<svg id="Grupo_1178981" data-name="Grupo 1178981" xmlns="http://www.w3.org/2000/svg" width="1240.051" height="693.067" viewBox="0 0 1240.051 693.067">
  <g id="Grupo_1178979" data-name="Grupo 1178979" transform="translate(0 157.941)">
    <g id="Grupo_1178833" data-name="Grupo 1178833">
      <path id="Trazado_1034149" data-name="Trazado 1034149" d="M0,0H1240V471.353H0Z" transform="translate(0 63.273)" fill="#fff"/>
      <path id="Trazado_1034053" data-name="Trazado 1034053" d="M0,0H1240V63H0Z" fill="#feead4"/>
      <text id="REFERENCIA" transform="translate(104.001 37.031)" fill="#12263f" font-size="16" font-family="SegoeUI-Bold, Segoe UI" font-weight="700"><tspan x="-46.852" y="0">REFERENCIA</tspan></text>
      <text id="PRODUCTO" transform="translate(307.391 37.031)" fill="#12263f" font-size="16" font-family="SegoeUI-Bold, Segoe UI" font-weight="700"><tspan x="-43.258" y="0">PRODUCTO</tspan></text>
      <rect id="Rectángulo_406952" data-name="Rectángulo 406952" width="1239.879" height="39.247" transform="translate(0.121 259.506)" fill="#f6f6f6"/>
      <rect id="Rectángulo_406974" data-name="Rectángulo 406974" width="1239.879" height="39.247" transform="translate(0.061 494.913)" fill="#f6f6f6"/>
      <rect id="Rectángulo_406973" data-name="Rectángulo 406973" width="1239.879" height="39.247" transform="translate(0.061 416.419)" fill="#f6f6f6"/>
      <rect id="Rectángulo_406972" data-name="Rectángulo 406972" width="1239.879" height="39.247" transform="translate(0.06 338)" fill="#f6f6f6"/>
      <rect id="Rectángulo_406951" data-name="Rectángulo 406951" width="1239.879" height="39.247" transform="translate(0 181.013)" fill="#f6f6f6"/>
      <rect id="Rectángulo_406950" data-name="Rectángulo 406950" width="1239.879" height="39.247" transform="translate(0.121 102.52)" fill="#f6f6f6"/>
      <path id="Trazado_1034202" data-name="Trazado 1034202" d="M0,338.044" transform="translate(370.243 -0.119)" fill="none" stroke="#d6d6d6" stroke-linecap="round" stroke-width="1"/>
      <path id="Trazado_1034204" data-name="Trazado 1034204" d="M0,0V533.469" transform="translate(206.688 1.157)" fill="none" stroke="#d6d6d6" stroke-linecap="round" stroke-width="1"/>
    </g>
    <g id="Grupo_1178829" data-name="Grupo 1178829" transform="translate(866.29 20.031)">
      <text id="VALOR_UNITARIO" data-name="VALOR UNITARIO" transform="translate(66 17)" fill="#12263f" font-size="16" font-family="SegoeUI-Bold, Segoe UI" font-weight="700"><tspan x="-66.152" y="0">VALOR UNITARIO</tspan></text>
      <text id="VALOR_TOTAL" data-name="VALOR TOTAL" transform="translate(271 17)" fill="#12263f" font-size="16" font-family="SegoeUI-Bold, Segoe UI" font-weight="700"><tspan x="-51.914" y="0">VALOR TOTAL</tspan></text>
    </g>
    <g id="Grupo_1178830" data-name="Grupo 1178830" transform="translate(469.885 20.031)">
      <text id="CANTIDAD" transform="translate(41 17)" fill="#12263f" font-size="16" font-family="SegoeUI-Bold, Segoe UI" font-weight="700"><tspan x="-41.461" y="0">CANTIDAD</tspan></text>
    </g>
    <g id="Grupo_1178831" data-name="Grupo 1178831" transform="translate(686.548 20.031)">
      <text id="UNIDAD" transform="translate(32 17)" fill="#12263f" font-size="16" font-family="SegoeUI-Bold, Segoe UI" font-weight="700"><tspan x="-31.941" y="0">UNIDAD</tspan></text>
    </g>
    <path id="Trazado_1034203" data-name="Trazado 1034203" d="M0,337.044" transform="translate(589.059 0.881)" fill="none" stroke="#d6d6d6" stroke-linecap="round" stroke-width="1"/>
    <line id="Línea_888" data-name="Línea 888" y2="533.545" transform="translate(823.874 0.955)" fill="none" stroke="#d6d6d6" stroke-linecap="round" stroke-width="1"/>
    <text id="_2341_3265_5566_-_-_-_-_-_-_-_-_-" data-name="2341
3265
5566
-
-
-
-
-
-
-
-
-" transform="translate(45 75.711)" fill="#00223d" font-size="16" font-family="SegoeUI, Segoe UI"><tspan x="-17.25" y="17">2341</tspan><tspan x="-17.25" y="56">3265</tspan><tspan x="-17.25" y="95">5566</tspan><tspan x="-3.199" y="134">-</tspan><tspan x="-3.199" y="173">-</tspan><tspan x="-3.199" y="212">-</tspan><tspan x="-3.199" y="251">-</tspan><tspan x="-3.199" y="290">-</tspan><tspan x="-3.199" y="329">-</tspan><tspan x="-3.199" y="368">-</tspan><tspan x="-3.199" y="407">-</tspan><tspan x="-3.199" y="446">-</tspan></text>
    <text id="HARINA_EL_LOBO_ARROZ_DIANA_HUEVOS_ORO_-_-_-_-_-_-_-_-_-" data-name="HARINA EL LOBO
ARROZ DIANA
HUEVOS ORO
-
-
-
-
-
-
-
-
-" transform="translate(233.863 75.711)" fill="#00223d" font-size="16" font-family="SegoeUI, Segoe UI"><tspan x="-61.234" y="17">HARINA EL LOBO</tspan><tspan x="-51.285" y="56">ARROZ DIANA</tspan><tspan x="-49.238" y="95">HUEVOS ORO</tspan><tspan x="-3.199" y="134">-</tspan><tspan x="-3.199" y="173">-</tspan><tspan x="-3.199" y="212">-</tspan><tspan x="-3.199" y="251">-</tspan><tspan x="-3.199" y="290">-</tspan><tspan x="-3.199" y="329">-</tspan><tspan x="-3.199" y="368">-</tspan><tspan x="-3.199" y="407">-</tspan><tspan x="-3.199" y="446">-</tspan></text>
    <text id="_2.500_5.000_12.500_-" data-name="2.500
5.000
12.500
-" transform="translate(494.069 75.711)" fill="#00223d" font-size="16" font-family="SegoeUI, Segoe UI"><tspan x="-37.969" y="17">2.500</tspan><tspan x="-37.969" y="56">5.000</tspan><tspan x="-46.594" y="95">12.500</tspan><tspan x="-6.398" y="134">-</tspan></text>
    <text id="SUBTOTAL_DECTO_COM_SUBTOTAL_2_IVA_1_RFRTA_1_RFIVA_2_RFICA_1_TOTAL" data-name="SUBTOTAL
DECTO COM
SUBTOTAL 2
IVA/*1
RFRTA/*1 
RFIVA/*2
RFICA/*1
TOTAL" transform="translate(431.568 231.711)" fill="#00223d" font-size="16" font-family="SegoeUI-Bold, Segoe UI" font-weight="700"><tspan x="0" y="17">SUBTOTAL</tspan><tspan x="0" y="56">DECTO COM</tspan><tspan x="0" y="95">SUBTOTAL 2</tspan><tspan x="0" y="134">IVA/*1</tspan><tspan x="0" y="173">RFRTA/*1 </tspan><tspan x="0" y="212">RFIVA/*2</tspan><tspan x="0" y="251">RFICA/*1</tspan><tspan x="0" y="290">TOTAL</tspan></text>
    <text id="KILO_KILO_UNIDAD_-_-_-_-_-_-_-_-_-" data-name="KILO
KILO
UNIDAD
-
-
-
-
-
-
-
-
-" transform="translate(666.928 75.711)" fill="#00223d" font-size="16" font-family="SegoeUI, Segoe UI"><tspan x="-16.293" y="17">KILO</tspan><tspan x="-16.293" y="56">KILO</tspan><tspan x="-29.793" y="95">UNIDAD</tspan><tspan x="-3.199" y="134">-</tspan><tspan x="-3.199" y="173">-</tspan><tspan x="-3.199" y="212">-</tspan><tspan x="-3.199" y="251">-</tspan><tspan x="-3.199" y="290">-</tspan><tspan x="-3.199" y="329">-</tspan><tspan x="-3.199" y="368">-</tspan><tspan x="-3.199" y="407">-</tspan><tspan x="-3.199" y="446">-</tspan></text>
    <text id="_4.000_4.400_350_-_-_2_-_19_2.50_-_1_104_-" data-name="$4.000
$4.400
$350
-
-
2 %
-
19 %
2.50 %
-
1,104 %
-" transform="translate(848.847 75.711)" fill="#00223d" font-size="16" font-family="SegoeUI, Segoe UI"><tspan x="-46.594" y="17">$4.000</tspan><tspan x="-46.594" y="56">$4.400</tspan><tspan x="-34.5" y="95">$350</tspan><tspan x="-6.398" y="134">-</tspan><tspan x="-6.398" y="173">-</tspan><tspan x="-26.102" y="212">2 %</tspan><tspan x="-6.398" y="251">-</tspan><tspan x="-34.727" y="290">19 %</tspan><tspan x="-46.82" y="329">2.50 %</tspan><tspan x="-6.398" y="368">-</tspan><tspan x="-55.445" y="407">1,104 %</tspan><tspan x="-6.398" y="446">-</tspan></text>
    <text id="_10.000.000_22.000.000_4.375.000_-_36.375.000_727.500_35.647.500_6.080.000_891.188_-_393.548_40.442.764" data-name="$10.000.000
$22.000.000
$4.375.000
-
$36.375.000
$727.500
$35.647.500
$6.080.000
$891.188
-
$393.548
$40.442.764" transform="translate(1117.847 75.711)" fill="#00223d" font-size="16" font-family="SegoeUI, Segoe UI"><tspan x="-84.563" y="17">$10.000.000</tspan><tspan x="-84.563" y="56">$22.000.000</tspan><tspan x="-75.938" y="95">$4.375.000</tspan><tspan x="-6.398" y="134">-</tspan><tspan x="-84.563" y="173">$36.375.000</tspan><tspan x="-63.844" y="212">$727.500</tspan><tspan x="-84.563" y="251">$35.647.500</tspan><tspan x="-75.938" y="290">$6.080.000</tspan><tspan x="-63.844" y="329">$891.188</tspan><tspan x="-6.398" y="368">-</tspan><tspan x="-63.844" y="407">$393.548</tspan><tspan x="-84.563" y="446">$40.442.764</tspan></text>
  </g>
  <g id="Grupo_1178978" data-name="Grupo 1178978" transform="translate(0.051)">
    <path id="Trazado_1034200" data-name="Trazado 1034200" d="M0,0H1239.5V72.72H0Z" transform="translate(0 84.748)" fill="#fff"/>
    <path id="Trazado_1034198" data-name="Trazado 1034198" d="M0,0H1240V84.994H0Z" transform="translate(0 0.137)" fill="#bce0fc"/>
    <text id="DISTRIBUIDORA_TOTAL_LTDA_NIT_860200_" data-name="DISTRIBUIDORA TOTAL LTDA
NIT 860200	" transform="translate(45.025 4.469)" fill="#12263f" font-size="16" font-family="SegoeUI-Bold, Segoe UI" font-weight="700"><tspan x="0" y="17">DISTRIBUIDORA TOTAL LTDA</tspan><tspan x="0" y="45">NIT 860200	</tspan></text>
    <text id="FACTURA_DE_VENTA_No._FECHA_EMISIÓN_2" data-name="FACTURA DE VENTA No.
FECHA EMISIÓN
2" transform="translate(716.025 5.469)" fill="#12263f" font-size="16" font-family="SegoeUI-Bold, Segoe UI" font-weight="700"><tspan x="-182.734" y="17">FACTURA DE VENTA No.</tspan><tspan x="-122.445" y="45">FECHA EMISIÓN</tspan><tspan x="-9.203" y="73">2</tspan></text>
    <text id="_228754_1_09_2020" data-name="228754
1/09/2020" transform="translate(1093.025 5.469)" fill="#12263f" font-size="16" font-family="SegoeUI-Bold, Segoe UI" font-weight="700"><tspan x="-55.219" y="17">228754</tspan><tspan x="-78.609" y="45">1/09/2020</tspan></text>
    <path id="Trazado_1034201" data-name="Trazado 1034201" d="M1240,59h0Z" transform="translate(0 157.93)" fill="#fd9826"/>
    <path id="Trazado_1034205" data-name="Trazado 1034205" d="M0,0V532.42" transform="translate(1027.5 159.441)" fill="none" stroke="#ccc" stroke-width="1"/>
    <line id="Línea_1859" data-name="Línea 1859" y2="530" transform="translate(617.5 159.441)" fill="none" stroke="#ccc" stroke-width="1"/>
    <line id="Línea_1861" data-name="Línea 1861" y2="530" transform="translate(411.5 159.441)" fill="none" stroke="#ccc" stroke-width="1"/>
    <text id="EMPANADAZO_LTDA_NIT_860100" data-name="EMPANADAZO LTDA
NIT 860100" transform="translate(45.025 94.469)" fill="#12263f" font-size="16" font-family="SegoeUI-Bold, Segoe UI" font-weight="700"><tspan x="0" y="17">EMPANADAZO LTDA</tspan><tspan x="0" y="52">NIT 860100</tspan></text>
    <text id="RRI" transform="translate(396.025 33.469)" fill="#12263f" font-size="16" font-family="SegoeUI-Bold, Segoe UI" font-weight="700"><tspan x="-12.98" y="17">RRI</tspan></text>
    <text id="RRI-2" data-name="RRI" transform="translate(396.025 93.973)" fill="#12263f" font-size="16" font-family="SegoeUI-Bold, Segoe UI" font-weight="700"><tspan x="-12.98" y="17">RRI</tspan></text>
    <text id="_2" data-name="2" transform="translate(897.025 93.973)" fill="#12263f" font-size="16" font-family="SegoeUI-Bold, Segoe UI" font-weight="700"><tspan x="-9.203" y="17">2</tspan></text>
    <text id="COMPRA" transform="translate(1091.025 93.973)" fill="#12263f" font-size="16" font-family="SegoeUI-Bold, Segoe UI" font-weight="700"><tspan x="-68.758" y="17">COMPRA</tspan></text>
    <text id="VENDE" transform="translate(1093.025 61.469)" fill="#12263f" font-size="16" font-family="SegoeUI-Bold, Segoe UI" font-weight="700"><tspan x="-52.141" y="17">VENDE</tspan></text>
    <line id="Línea_2256" data-name="Línea 2256" y2="37" transform="translate(206.525 121.381)" fill="none" stroke="#d6d6d6" stroke-width="1"/>
    <line id="Línea_2257" data-name="Línea 2257" y1="57" transform="translate(206.525 28)" fill="none" stroke="#3e7dad" stroke-width="1"/>
    <line id="Línea_2258" data-name="Línea 2258" y1="73" transform="translate(411.525 85)" fill="none" stroke="#ccc" stroke-width="1"/>
    <line id="Línea_2260" data-name="Línea 2260" y1="73.469" transform="translate(617.525 85)" fill="none" stroke="#ccc" stroke-width="1"/>
    <line id="Línea_2261" data-name="Línea 2261" y1="73.469" transform="translate(1027.542 84.5)" fill="none" stroke="#ccc" stroke-width="1"/>
    <line id="Línea_2259" data-name="Línea 2259" y1="85" transform="translate(411.525)" fill="none" stroke="#3e7dad" stroke-width="1"/>
    <path id="Trazado_1054713" data-name="Trazado 1054713" d="M-.042,84.654,0,0" transform="translate(617.525 0.469)" fill="none" stroke="#3e7dad" stroke-width="1"/>
    <path id="Trazado_1054714" data-name="Trazado 1054714" d="M-.007,84.986,0,0" transform="translate(1027.542 0.137)" fill="none" stroke="#3e7dad" stroke-width="1"/>
  </g>
</svg>
