<svg xmlns="http://www.w3.org/2000/svg" width="797.578" height="545.529" viewBox="0 0 797.578 545.529">
  <g id="Grupo_1180997" data-name="Grupo 1180997" transform="translate(9833.059 -3708.268)">
    <path id="Trazado_1054725" data-name="Trazado 1054725" d="M796.3,0H0" transform="translate(-9833.059 4253.122)" fill="none" stroke="#e1e1e1" stroke-width="1"/>
    <path id="Trazado_1054726" data-name="Trazado 1054726" d="M0,0H796.1V429.516H0Z" transform="translate(-9832.147 3823.606)" fill="#fff"/>
    <path id="Trazado_1054749" data-name="Trazado 1054749" d="M0,0H796.108V53.05H0Z" transform="translate(-9832.147 3897.748)" fill="#f6f6f6"/>
    <path id="Trazado_1054744" data-name="Trazado 1054744" d="M0,0H796.108V53.05H0Z" transform="translate(-9832.147 3997.748)" fill="#f6f6f6"/>
    <path id="Trazado_1054738" data-name="Trazado 1054738" d="M0,0H795.989V53.25H0Z" transform="translate(-9832.039 4097.647)" fill="#f6f6f6"/>
    <path id="Trazado_1054727" data-name="Trazado 1054727" d="M0,0H796.1V53.049H0Z" transform="translate(-9832.147 4200.748)" fill="#f6f6f6"/>
    <path id="Trazado_1054750" data-name="Trazado 1054750" d="M796,0H0" transform="translate(-9832.039 3950.511)" fill="none" stroke="#e1e1e1" stroke-width="1"/>
    <path id="Trazado_1054751" data-name="Trazado 1054751" d="M796.108,0H0" transform="translate(-9832.147 3897.601)" fill="none" stroke="#e1e1e1" stroke-width="1"/>
    <path id="Trazado_1054748" data-name="Trazado 1054748" d="M795.95,0H0" transform="translate(-9832.039 3997.515)" fill="none" stroke="#e1e1e1" stroke-width="1"/>
    <path id="Trazado_1054745" data-name="Trazado 1054745" d="M796,0H0" transform="translate(-9832.039 4050.14)" fill="none" stroke="#e1e1e1" stroke-width="1"/>
    <path id="Trazado_1054741" data-name="Trazado 1054741" d="M795.989,0H0" transform="translate(-9832.039 4098.173)" fill="none" stroke="#e1e1e1" stroke-width="1"/>
    <path id="Trazado_1054739" data-name="Trazado 1054739" d="M796,0H0" transform="translate(-9832.039 4151.122)" fill="none" stroke="#e1e1e1" stroke-width="1"/>
    <path id="Trazado_1054733" data-name="Trazado 1054733" d="M796,0H0" transform="translate(-9832.039 4201.122)" fill="none" stroke="#e1e1e1" stroke-width="1"/>
    <path id="Trazado_1054747" data-name="Trazado 1054747" d="M29.446,16.547V15a3,3,0,0,0,.637.422,5.159,5.159,0,0,0,.781.316,6.219,6.219,0,0,0,.824.2,4.6,4.6,0,0,0,.766.07,3,3,0,0,0,1.809-.449,1.685,1.685,0,0,0,.4-2.082,2.244,2.244,0,0,0-.551-.613,5.465,5.465,0,0,0-.832-.531q-.48-.254-1.035-.535-.586-.3-1.094-.6a4.74,4.74,0,0,1-.883-.672,2.8,2.8,0,0,1-.59-.832,2.575,2.575,0,0,1-.215-1.09A2.563,2.563,0,0,1,29.8,7.27a2.881,2.881,0,0,1,.883-.934,4,4,0,0,1,1.246-.547,5.706,5.706,0,0,1,1.426-.18,5.464,5.464,0,0,1,2.414.4V7.484A4.376,4.376,0,0,0,33.22,6.8a4.189,4.189,0,0,0-.859.09,2.428,2.428,0,0,0-.766.293,1.7,1.7,0,0,0-.547.523,1.389,1.389,0,0,0-.211.781,1.608,1.608,0,0,0,.16.742,1.819,1.819,0,0,0,.473.57,4.708,4.708,0,0,0,.762.5q.449.242,1.035.531.6.3,1.141.625a5.213,5.213,0,0,1,.945.727,3.229,3.229,0,0,1,.645.883,2.482,2.482,0,0,1,.238,1.109,2.813,2.813,0,0,1-.324,1.4,2.661,2.661,0,0,1-.875.934,3.821,3.821,0,0,1-1.27.52,6.953,6.953,0,0,1-1.516.16,6.176,6.176,0,0,1-.656-.043q-.391-.043-.8-.125a6.5,6.5,0,0,1-.77-.2A2.394,2.394,0,0,1,29.446,16.547Zm17.7.453H45.688L44.5,13.859h-4.75L38.634,17H37.173l4.3-11.2h1.359Zm-3.07-4.32L42.313,7.906a4.571,4.571,0,0,1-.172-.75H42.11a4.185,4.185,0,0,1-.18.75L40.188,12.68ZM54.6,17H48.79V5.8H50.1V15.813h4.5ZM18.227,66.531a6.571,6.571,0,0,1-3.094.656,4.989,4.989,0,0,1-3.828-1.539,5.679,5.679,0,0,1-1.437-4.039,5.952,5.952,0,0,1,1.617-4.344,5.489,5.489,0,0,1,4.1-1.656,6.576,6.576,0,0,1,2.641.461v1.4a5.355,5.355,0,0,0-2.656-.672,4.076,4.076,0,0,0-3.129,1.289,4.856,4.856,0,0,0-1.2,3.445,4.621,4.621,0,0,0,1.121,3.262,3.815,3.815,0,0,0,2.941,1.215,5.518,5.518,0,0,0,2.922-.75ZM26.446,67H20.509V55.8H26.2v1.188H21.821v3.727h4.047v1.18H21.821v3.922h4.625ZM28.6,67V55.8H31.79a3.484,3.484,0,0,1,2.3.711,2.3,2.3,0,0,1,.852,1.852,2.724,2.724,0,0,1-.516,1.656,2.781,2.781,0,0,1-1.422,1v.031a2.85,2.85,0,0,1,1.813.855,2.631,2.631,0,0,1,.68,1.879,2.929,2.929,0,0,1-1.031,2.328,3.838,3.838,0,0,1-2.6.891Zm1.313-10.016V60.6h1.344a2.552,2.552,0,0,0,1.7-.52,1.809,1.809,0,0,0,.617-1.465q0-1.633-2.148-1.633Zm0,4.8v4.031H31.7a2.669,2.669,0,0,0,1.793-.547,1.873,1.873,0,0,0,.637-1.5q0-1.984-2.7-1.984ZM42.29,67.188a4.918,4.918,0,0,1-3.816-1.57,5.824,5.824,0,0,1-1.434-4.086A6.171,6.171,0,0,1,38.5,57.219a5.1,5.1,0,0,1,3.977-1.609,4.807,4.807,0,0,1,3.738,1.563,5.845,5.845,0,0,1,1.418,4.086,6.191,6.191,0,0,1-1.453,4.336A5.008,5.008,0,0,1,42.29,67.188ZM42.384,56.8a3.612,3.612,0,0,0-2.867,1.273,5.665,5.665,0,0,0-.027,6.676,3.5,3.5,0,0,0,2.8,1.262A3.678,3.678,0,0,0,45.2,64.8a4.917,4.917,0,0,0,1.063-3.367,5.138,5.138,0,0,0-1.031-3.43A3.536,3.536,0,0,0,42.384,56.8ZM55.649,67H49.837V55.8h1.313V65.813h4.5Zm7.531,0H57.368V55.8h1.313V65.813h4.5ZM74.04,67H72.587L71.4,63.859h-4.75L65.532,67H64.071l4.3-11.2h1.359Zm-3.07-4.32-1.758-4.773a4.571,4.571,0,0,1-.172-.75h-.031a4.185,4.185,0,0,1-.18.75L67.087,62.68ZM13.614,116.531a6.571,6.571,0,0,1-3.094.656,4.989,4.989,0,0,1-3.828-1.539,5.679,5.679,0,0,1-1.437-4.039,5.952,5.952,0,0,1,1.617-4.344,5.489,5.489,0,0,1,4.1-1.656,6.576,6.576,0,0,1,2.641.461v1.4a5.355,5.355,0,0,0-2.656-.672,4.076,4.076,0,0,0-3.129,1.289,4.856,4.856,0,0,0-1.2,3.445,4.621,4.621,0,0,0,1.121,3.262,3.815,3.815,0,0,0,2.941,1.215,5.518,5.518,0,0,0,2.922-.75Zm3.594.469H15.9V105.8h1.313Zm8.758,0H20.153V105.8h1.313v10.016h4.5Zm10.859,0H35.372l-1.187-3.141h-4.75L28.317,117H26.856l4.3-11.2h1.359Zm-3.07-4.32L32,107.906a4.571,4.571,0,0,1-.172-.75h-.031a4.184,4.184,0,0,1-.18.75l-1.742,4.773ZM47.5,117H45.9l-5.766-8.93a3.732,3.732,0,0,1-.359-.7h-.047a11.534,11.534,0,0,1,.063,1.539V117H38.474V105.8h1.7l5.609,8.789q.352.547.453.75h.031a11.853,11.853,0,0,1-.078-1.648V105.8H47.5Zm9.563-10.016H53.833V117H52.52V106.984H49.294V105.8h7.773ZM66.856,117H65.294l-1.875-3.141a6.84,6.84,0,0,0-.5-.746,2.85,2.85,0,0,0-.5-.5,1.718,1.718,0,0,0-.547-.285,2.249,2.249,0,0,0-.66-.09H60.138V117H58.825V105.8h3.344a4.765,4.765,0,0,1,1.355.184,3.033,3.033,0,0,1,1.078.559,2.6,2.6,0,0,1,.715.934,3.1,3.1,0,0,1,.258,1.309,3.151,3.151,0,0,1-.176,1.074,2.805,2.805,0,0,1-.5.871,3.031,3.031,0,0,1-.781.652,3.989,3.989,0,0,1-1.027.418v.031a2.363,2.363,0,0,1,.488.285,2.687,2.687,0,0,1,.395.379,5.019,5.019,0,0,1,.371.5q.184.277.41.645Zm-6.719-10.016v4.063h1.781a2.7,2.7,0,0,0,.91-.148,2.107,2.107,0,0,0,.723-.426,1.931,1.931,0,0,0,.477-.68,2.275,2.275,0,0,0,.172-.9,1.756,1.756,0,0,0-.582-1.4,2.5,2.5,0,0,0-1.684-.5Zm12.617,10.2a4.918,4.918,0,0,1-3.816-1.57,5.824,5.824,0,0,1-1.434-4.086,6.171,6.171,0,0,1,1.461-4.312,5.1,5.1,0,0,1,3.977-1.609,4.807,4.807,0,0,1,3.738,1.563,5.845,5.845,0,0,1,1.418,4.086,6.191,6.191,0,0,1-1.453,4.336A5.008,5.008,0,0,1,72.755,117.188Zm.094-10.391a3.612,3.612,0,0,0-2.867,1.273,5.665,5.665,0,0,0-.027,6.676,3.5,3.5,0,0,0,2.8,1.262,3.678,3.678,0,0,0,2.906-1.2,4.917,4.917,0,0,0,1.063-3.367,5.138,5.138,0,0,0-1.031-3.43A3.536,3.536,0,0,0,72.849,106.8ZM41.306,167H39.852l-1.187-3.141h-4.75L32.8,167H31.337l4.3-11.2h1.359Zm-3.07-4.32-1.758-4.773a4.571,4.571,0,0,1-.172-.75h-.031a4.185,4.185,0,0,1-.18.75l-1.742,4.773Zm8.32.3a5.007,5.007,0,0,1-.844,3.1,2.7,2.7,0,0,1-2.258,1.105A2.669,2.669,0,0,1,42.376,167v-1.3a1.824,1.824,0,0,0,1.094.3q1.773,0,1.773-3.008v-7.2h1.313ZM50.712,167H49.4V155.8h1.313Zm1.2-14.8-2.047,2.563h-.992L50.61,152.2Zm-8.039,60.844H39.6v-1.008h4.266Zm0,50H39.6v-1.008h4.266Zm0,50H39.6v-1.008h4.266Z" transform="translate(-9806.339 3914.374)" fill="#12263f"/>
    <path id="Trazado_1054737" data-name="Trazado 1054737" d="M40.5,13.828a3.266,3.266,0,0,1-.285,1.379,3.045,3.045,0,0,1-.8,1.063,3.714,3.714,0,0,1-1.246.684,5.04,5.04,0,0,1-1.6.242,4.654,4.654,0,0,1-2.547-.609V15.211a4.081,4.081,0,0,0,2.594.891,3.525,3.525,0,0,0,1.059-.148,2.374,2.374,0,0,0,.813-.43,1.909,1.909,0,0,0,.523-.68,2.123,2.123,0,0,0,.184-.9q0-2.2-3.125-2.2h-.93V10.664h.883q2.766,0,2.766-2.062,0-1.906-2.109-1.906a3.592,3.592,0,0,0-2.227.8V6.25a4.868,4.868,0,0,1,2.547-.641,3.913,3.913,0,0,1,1.273.2,2.918,2.918,0,0,1,.977.547,2.423,2.423,0,0,1,.629.844,2.6,2.6,0,0,1,.223,1.086,2.735,2.735,0,0,1-2.234,2.844v.031a3.534,3.534,0,0,1,1.055.277,2.814,2.814,0,0,1,.836.559,2.49,2.49,0,0,1,.551.809A2.582,2.582,0,0,1,40.5,13.828Zm9.148-2.477a11.005,11.005,0,0,1-.254,2.492,5.807,5.807,0,0,1-.734,1.832,3.305,3.305,0,0,1-1.18,1.133,3.23,3.23,0,0,1-1.59.387,3.016,3.016,0,0,1-1.5-.371,3.152,3.152,0,0,1-1.113-1.082A5.484,5.484,0,0,1,42.583,14a10.8,10.8,0,0,1-.234-2.371,12.222,12.222,0,0,1,.246-2.594,5.933,5.933,0,0,1,.723-1.887A3.216,3.216,0,0,1,44.5,6a3.323,3.323,0,0,1,1.621-.387Q49.645,5.609,49.645,11.352Zm-1.312.125q0-4.781-2.273-4.781-2.4,0-2.4,4.867,0,4.539,2.352,4.539Q48.333,16.1,48.333,11.477ZM36.184,63.828a3.266,3.266,0,0,1-.285,1.379,3.045,3.045,0,0,1-.8,1.063,3.714,3.714,0,0,1-1.246.684,5.04,5.04,0,0,1-1.6.242,4.654,4.654,0,0,1-2.547-.609V65.211a4.081,4.081,0,0,0,2.594.891,3.525,3.525,0,0,0,1.059-.148,2.374,2.374,0,0,0,.813-.43,1.909,1.909,0,0,0,.523-.68,2.123,2.123,0,0,0,.184-.9q0-2.2-3.125-2.2h-.93V60.664H31.7q2.766,0,2.766-2.062,0-1.906-2.109-1.906a3.592,3.592,0,0,0-2.227.8V56.25a4.868,4.868,0,0,1,2.547-.641,3.913,3.913,0,0,1,1.273.2,2.918,2.918,0,0,1,.977.547,2.423,2.423,0,0,1,.629.844,2.6,2.6,0,0,1,.223,1.086,2.735,2.735,0,0,1-2.234,2.844v.031a3.534,3.534,0,0,1,1.055.277,2.814,2.814,0,0,1,.836.559,2.49,2.49,0,0,1,.551.809A2.582,2.582,0,0,1,36.184,63.828Zm9.148-2.477a11.005,11.005,0,0,1-.254,2.492,5.807,5.807,0,0,1-.734,1.832,3.305,3.305,0,0,1-1.18,1.133,3.23,3.23,0,0,1-1.59.387,3.016,3.016,0,0,1-1.5-.371,3.152,3.152,0,0,1-1.113-1.082A5.484,5.484,0,0,1,38.27,64a10.8,10.8,0,0,1-.234-2.371,12.222,12.222,0,0,1,.246-2.594A5.933,5.933,0,0,1,39,57.145,3.216,3.216,0,0,1,40.188,56a3.323,3.323,0,0,1,1.621-.387Q45.333,55.609,45.333,61.352Zm-1.312.125q0-4.781-2.273-4.781-2.4,0-2.4,4.867,0,4.539,2.352,4.539Q44.02,66.1,44.02,61.477Zm9.938-.125a11.005,11.005,0,0,1-.254,2.492,5.807,5.807,0,0,1-.734,1.832,3.305,3.305,0,0,1-1.18,1.133,3.23,3.23,0,0,1-1.59.387,3.016,3.016,0,0,1-1.5-.371,3.152,3.152,0,0,1-1.113-1.082A5.484,5.484,0,0,1,46.9,64a10.8,10.8,0,0,1-.234-2.371,12.222,12.222,0,0,1,.246-2.594,5.933,5.933,0,0,1,.723-1.887A3.216,3.216,0,0,1,48.813,56a3.323,3.323,0,0,1,1.621-.387Q53.958,55.609,53.958,61.352Zm-1.312.125q0-4.781-2.273-4.781-2.4,0-2.4,4.867,0,4.539,2.352,4.539Q52.645,66.1,52.645,61.477ZM34.4,117H33.114v-9.68a2.965,2.965,0,0,1-.434.34,7.068,7.068,0,0,1-.641.379q-.355.188-.75.352a5.451,5.451,0,0,1-.77.258v-1.3a7.448,7.448,0,0,0,.895-.316q.473-.2.93-.445t.863-.516a6.854,6.854,0,0,0,.7-.527H34.4Zm10.539-3.422a3.771,3.771,0,0,1-.281,1.484,3.245,3.245,0,0,1-.8,1.141,3.586,3.586,0,0,1-1.254.734,4.9,4.9,0,0,1-1.633.258,4.511,4.511,0,0,1-2.32-.469v-1.359a4.266,4.266,0,0,0,2.336.734,3.161,3.161,0,0,0,1.1-.18,2.439,2.439,0,0,0,.832-.5,2.141,2.141,0,0,0,.527-.773,2.618,2.618,0,0,0,.184-.992,2.125,2.125,0,0,0-.734-1.715,3.221,3.221,0,0,0-2.133-.621q-.227,0-.477.008t-.5.02q-.25.012-.488.027t-.434.039l.383-5.617h5.18v1.156h-4.07l-.227,3.289q.25-.016.531-.027t.5-.012a5.028,5.028,0,0,1,1.594.234,3.377,3.377,0,0,1,1.191.668,2.8,2.8,0,0,1,.742,1.063A3.737,3.737,0,0,1,44.934,113.578Zm9.023-2.227a11.005,11.005,0,0,1-.254,2.492,5.807,5.807,0,0,1-.734,1.832,3.305,3.305,0,0,1-1.18,1.133,3.23,3.23,0,0,1-1.59.387,3.016,3.016,0,0,1-1.5-.371,3.152,3.152,0,0,1-1.113-1.082A5.484,5.484,0,0,1,46.9,114a10.8,10.8,0,0,1-.234-2.371,12.222,12.222,0,0,1,.246-2.594,5.933,5.933,0,0,1,.723-1.887A3.216,3.216,0,0,1,48.813,106a3.323,3.323,0,0,1,1.621-.387Q53.958,105.609,53.958,111.352Zm-1.312.125q0-4.781-2.273-4.781-2.4,0-2.4,4.867,0,4.539,2.352,4.539Q52.645,116.1,52.645,111.477Zm-11.7,45.063q-.258.445-.621,1.109t-.77,1.492q-.406.828-.828,1.781t-.789,1.969q-.367,1.016-.645,2.059a15.315,15.315,0,0,0-.4,2.051H35.513a15.579,15.579,0,0,1,.434-2.043q.293-1.043.664-2.047t.785-1.934q.414-.93.8-1.711t.715-1.379q.324-.6.52-.934H33.817V155.8h7.125Zm8.7,4.813a11.005,11.005,0,0,1-.254,2.492,5.807,5.807,0,0,1-.734,1.832,3.305,3.305,0,0,1-1.18,1.133,3.23,3.23,0,0,1-1.59.387,3.016,3.016,0,0,1-1.5-.371,3.152,3.152,0,0,1-1.113-1.082A5.484,5.484,0,0,1,42.583,164a10.8,10.8,0,0,1-.234-2.371,12.222,12.222,0,0,1,.246-2.594,5.933,5.933,0,0,1,.723-1.887A3.216,3.216,0,0,1,44.5,156a3.323,3.323,0,0,1,1.621-.387Q49.645,155.609,49.645,161.352Zm-1.312.125q0-4.781-2.273-4.781-2.4,0-2.4,4.867,0,4.539,2.352,4.539Q48.333,166.1,48.333,161.477Zm-4.465,51.57H39.6v-1.008h4.266Zm0,50H39.6v-1.008h4.266Zm0,50H39.6v-1.008h4.266Z" transform="translate(-9659.34 3915.323)" fill="#12263f"/>
    <path id="Trazado_1054732" data-name="Trazado 1054732" d="M34.649,17H32.821l-4.328-5.125a3.124,3.124,0,0,1-.3-.391h-.031V17H26.852V5.8h1.313v5.266H28.2a3.089,3.089,0,0,1,.3-.383L32.681,5.8h1.633l-4.8,5.375Zm2.8,0H36.134V5.8h1.313ZM46.2,17H40.391V5.8H41.7V15.813h4.5Zm5.688.188a4.918,4.918,0,0,1-3.816-1.57,5.824,5.824,0,0,1-1.434-4.086A6.171,6.171,0,0,1,48.1,7.219a5.1,5.1,0,0,1,3.977-1.609,4.807,4.807,0,0,1,3.738,1.563,5.845,5.845,0,0,1,1.418,4.086,6.191,6.191,0,0,1-1.453,4.336A5.008,5.008,0,0,1,51.891,17.188ZM51.985,6.8A3.612,3.612,0,0,0,49.118,8.07a4.93,4.93,0,0,0-1.1,3.344,4.964,4.964,0,0,0,1.074,3.332,3.5,3.5,0,0,0,2.8,1.262A3.678,3.678,0,0,0,54.8,14.8a4.917,4.917,0,0,0,1.063-3.367,5.138,5.138,0,0,0-1.031-3.43A3.536,3.536,0,0,0,51.985,6.8ZM28.532,67H22.72V55.8h1.313V65.813h4.5Zm3.031,0H30.251V55.8h1.313Zm2.945,0V55.8H37.7a3.484,3.484,0,0,1,2.3.711,2.3,2.3,0,0,1,.852,1.852,2.724,2.724,0,0,1-.516,1.656,2.781,2.781,0,0,1-1.422,1v.031a2.85,2.85,0,0,1,1.813.855,2.631,2.631,0,0,1,.68,1.879,2.929,2.929,0,0,1-1.031,2.328,3.838,3.838,0,0,1-2.6.891Zm1.313-10.016V60.6h1.344a2.552,2.552,0,0,0,1.7-.52,1.809,1.809,0,0,0,.617-1.465q0-1.633-2.148-1.633Zm0,4.8v4.031H37.6a2.669,2.669,0,0,0,1.793-.547,1.873,1.873,0,0,0,.637-1.5q0-1.984-2.7-1.984ZM51.712,67H50.149l-1.875-3.141a6.84,6.84,0,0,0-.5-.746,2.85,2.85,0,0,0-.5-.5,1.718,1.718,0,0,0-.547-.285,2.249,2.249,0,0,0-.66-.09H44.993V67H43.681V55.8h3.344a4.765,4.765,0,0,1,1.355.184,3.033,3.033,0,0,1,1.078.559,2.6,2.6,0,0,1,.715.934,3.1,3.1,0,0,1,.258,1.309,3.151,3.151,0,0,1-.176,1.074,2.806,2.806,0,0,1-.5.871,3.031,3.031,0,0,1-.781.652,3.988,3.988,0,0,1-1.027.418v.031a2.363,2.363,0,0,1,.488.285,2.687,2.687,0,0,1,.395.379,5.019,5.019,0,0,1,.371.5q.184.277.41.645ZM44.993,56.984v4.063h1.781a2.7,2.7,0,0,0,.91-.148,2.107,2.107,0,0,0,.723-.426,1.931,1.931,0,0,0,.477-.68,2.275,2.275,0,0,0,.172-.9,1.756,1.756,0,0,0-.582-1.4,2.5,2.5,0,0,0-1.684-.5ZM61.923,67H60.47l-1.187-3.141h-4.75L53.415,67H51.954l4.3-11.2H57.61Zm-3.07-4.32-1.758-4.773a4.571,4.571,0,0,1-.172-.75h-.031a4.185,4.185,0,0,1-.18.75L54.97,62.68ZM32.552,117H31.1l-1.187-3.141h-4.75L24.044,117H22.583l4.3-11.2h1.359Zm-3.07-4.32-1.758-4.773a4.571,4.571,0,0,1-.172-.75H27.52a4.184,4.184,0,0,1-.18.75L25.6,112.68Zm10.2-5.7H36.442V117H35.13V106.984H31.9V105.8h7.773ZM49.013,117H47.559l-1.187-3.141h-4.75L40.5,117H39.044l4.3-11.2H44.7Zm-3.07-4.32-1.758-4.773a4.571,4.571,0,0,1-.172-.75h-.031a4.184,4.184,0,0,1-.18.75l-1.742,4.773Zm8.922,4.508a4.918,4.918,0,0,1-3.816-1.57,5.824,5.824,0,0,1-1.434-4.086,6.171,6.171,0,0,1,1.461-4.312,5.1,5.1,0,0,1,3.977-1.609,4.807,4.807,0,0,1,3.738,1.563,5.845,5.845,0,0,1,1.418,4.086,6.191,6.191,0,0,1-1.453,4.336A5.008,5.008,0,0,1,54.864,117.188Zm.094-10.391a3.612,3.612,0,0,0-2.867,1.273,5.665,5.665,0,0,0-.027,6.676,3.5,3.5,0,0,0,2.8,1.262,3.678,3.678,0,0,0,2.906-1.2,4.917,4.917,0,0,0,1.063-3.367,5.138,5.138,0,0,0-1.031-3.43A3.536,3.536,0,0,0,54.958,106.8ZM28.532,167H22.72V155.8h1.313v10.016h4.5Zm3.031,0H30.251V155.8h1.313Zm2.945,0V155.8H37.7a3.484,3.484,0,0,1,2.3.711,2.3,2.3,0,0,1,.852,1.852,2.724,2.724,0,0,1-.516,1.656,2.781,2.781,0,0,1-1.422,1v.031a2.85,2.85,0,0,1,1.813.855,2.631,2.631,0,0,1,.68,1.879,2.929,2.929,0,0,1-1.031,2.328,3.838,3.838,0,0,1-2.6.891Zm1.313-10.016V160.6h1.344a2.552,2.552,0,0,0,1.7-.52,1.809,1.809,0,0,0,.617-1.465q0-1.633-2.148-1.633Zm0,4.8v4.031H37.6a2.669,2.669,0,0,0,1.793-.547,1.873,1.873,0,0,0,.637-1.5q0-1.984-2.7-1.984ZM51.712,167H50.149l-1.875-3.141a6.84,6.84,0,0,0-.5-.746,2.85,2.85,0,0,0-.5-.5,1.718,1.718,0,0,0-.547-.285,2.249,2.249,0,0,0-.66-.09H44.993V167H43.681V155.8h3.344a4.765,4.765,0,0,1,1.355.184,3.033,3.033,0,0,1,1.078.559,2.6,2.6,0,0,1,.715.934,3.1,3.1,0,0,1,.258,1.309,3.151,3.151,0,0,1-.176,1.074,2.806,2.806,0,0,1-.5.871,3.031,3.031,0,0,1-.781.652,3.988,3.988,0,0,1-1.027.418v.031a2.363,2.363,0,0,1,.488.285,2.687,2.687,0,0,1,.395.379,5.019,5.019,0,0,1,.371.5q.184.277.41.645Zm-6.719-10.016v4.063h1.781a2.7,2.7,0,0,0,.91-.148,2.107,2.107,0,0,0,.723-.426,1.931,1.931,0,0,0,.477-.68,2.275,2.275,0,0,0,.172-.9,1.756,1.756,0,0,0-.582-1.4,2.5,2.5,0,0,0-1.684-.5ZM61.923,167H60.47l-1.187-3.141h-4.75L53.415,167H51.954l4.3-11.2H57.61Zm-3.07-4.32-1.758-4.773a4.571,4.571,0,0,1-.172-.75h-.031a4.185,4.185,0,0,1-.18.75L54.97,162.68ZM43.868,213.047H39.6v-1.008h4.266Zm0,50H39.6v-1.008h4.266Zm0,50H39.6v-1.008h4.266Z" transform="translate(-9495.338 3915.323)" fill="#12263f"/>
    <path id="Trazado_1054742" data-name="Trazado 1054742" d="M37.853,16.938v1.7h-.812V17a4.9,4.9,0,0,1-2.7-.672V14.969a3.661,3.661,0,0,0,1.238.668,4.528,4.528,0,0,0,1.465.27v-4a6.129,6.129,0,0,1-2.227-1.527,2.736,2.736,0,0,1-.508-1.652A2.763,2.763,0,0,1,35.08,6.77a3.2,3.2,0,0,1,1.961-.988V4.375h.813V5.75a4.324,4.324,0,0,1,2.117.438V7.516a3.549,3.549,0,0,0-2.117-.672v4.125a6.64,6.64,0,0,1,2.223,1.5,2.51,2.51,0,0,1,.6,1.645,2.545,2.545,0,0,1-.746,1.863A3.624,3.624,0,0,1,37.853,16.938Zm-.812-6.406V6.891A1.78,1.78,0,0,0,36,7.473a1.623,1.623,0,0,0-.383,1.09,1.826,1.826,0,0,0,.313,1.1A3.367,3.367,0,0,0,37.041,10.531Zm.813,1.781v3.531q1.508-.328,1.508-1.625Q39.361,13.141,37.853,12.313ZM47.322,17H46.041V7.32a2.965,2.965,0,0,1-.434.34,7.068,7.068,0,0,1-.641.379q-.355.188-.75.352a5.45,5.45,0,0,1-.77.258v-1.3a7.448,7.448,0,0,0,.895-.316q.473-.2.93-.445t.863-.516a6.854,6.854,0,0,0,.7-.527h.484Zm4.711.172a.829.829,0,0,1-.613-.258.849.849,0,0,1-.254-.617.862.862,0,0,1,.254-.621.823.823,0,0,1,.613-.262.845.845,0,0,1,.625.262.855.855,0,0,1,.258.621.842.842,0,0,1-.258.617A.851.851,0,0,1,52.033,17.172Zm2.43-3.3a2.981,2.981,0,0,1,.141-.895,3.24,3.24,0,0,1,.4-.84,3.33,3.33,0,0,1,.648-.711,3.091,3.091,0,0,1,.879-.508,3.322,3.322,0,0,1-1.156-1.043,2.466,2.466,0,0,1-.43-1.41,2.72,2.72,0,0,1,.238-1.141,2.748,2.748,0,0,1,.66-.906,3.052,3.052,0,0,1,1-.6,3.735,3.735,0,0,1,2.508,0,3.106,3.106,0,0,1,1,.6,2.7,2.7,0,0,1,.656.906,2.74,2.74,0,0,1,.234,1.133,2.466,2.466,0,0,1-.43,1.41,3.363,3.363,0,0,1-1.141,1.043,3.064,3.064,0,0,1,.867.508,3.379,3.379,0,0,1,.645.711,3.24,3.24,0,0,1,.4.84,2.981,2.981,0,0,1,.141.895,3.327,3.327,0,0,1-.266,1.344,3,3,0,0,1-.746,1.043,3.444,3.444,0,0,1-1.148.676,4.293,4.293,0,0,1-1.473.242,4.235,4.235,0,0,1-1.461-.242,3.5,3.5,0,0,1-1.148-.676,3.023,3.023,0,0,1-.754-1.043A3.285,3.285,0,0,1,54.463,13.875Zm1.391-.109a2.647,2.647,0,0,0,.16.945,2.038,2.038,0,0,0,.453.719,1.978,1.978,0,0,0,.711.457,2.568,2.568,0,0,0,.926.16,2.439,2.439,0,0,0,.906-.164,2.112,2.112,0,0,0,.715-.461,2.073,2.073,0,0,0,.469-.719,2.514,2.514,0,0,0,.168-.937,2.4,2.4,0,0,0-.16-.879,2.2,2.2,0,0,0-.457-.723,2.147,2.147,0,0,0-.711-.492,2.313,2.313,0,0,0-.93-.18,2.338,2.338,0,0,0-.895.168,2.14,2.14,0,0,0-.711.469,2.171,2.171,0,0,0-.473.719A2.391,2.391,0,0,0,55.853,13.766Zm.4-5.2a1.86,1.86,0,0,0,1.133,1.73,1.846,1.846,0,0,0,1.441,0,1.867,1.867,0,0,0,.59-.4,1.95,1.95,0,0,0,.4-.594,1.8,1.8,0,0,0,.148-.73,1.916,1.916,0,0,0-.145-.75A1.841,1.841,0,0,0,58.1,6.688a1.864,1.864,0,0,0-.754.148,1.821,1.821,0,0,0-.586.4,1.759,1.759,0,0,0-.379.6A2.02,2.02,0,0,0,56.252,8.57Zm14.1,2.781a11.005,11.005,0,0,1-.254,2.492,5.807,5.807,0,0,1-.734,1.832,3.305,3.305,0,0,1-1.18,1.133,3.23,3.23,0,0,1-1.59.387,3.016,3.016,0,0,1-1.5-.371,3.152,3.152,0,0,1-1.113-1.082A5.484,5.484,0,0,1,63.291,14a10.8,10.8,0,0,1-.234-2.371A12.222,12.222,0,0,1,63.3,9.031a5.933,5.933,0,0,1,.723-1.887A3.217,3.217,0,0,1,65.209,6a3.323,3.323,0,0,1,1.621-.387Q70.353,5.609,70.353,11.352Zm-1.312.125q0-4.781-2.273-4.781-2.4,0-2.4,4.867,0,4.539,2.352,4.539Q69.041,16.1,69.041,11.477Zm9.938-.125a11.005,11.005,0,0,1-.254,2.492,5.807,5.807,0,0,1-.734,1.832,3.305,3.305,0,0,1-1.18,1.133,3.23,3.23,0,0,1-1.59.387,3.016,3.016,0,0,1-1.5-.371A3.152,3.152,0,0,1,72.6,15.742,5.484,5.484,0,0,1,71.916,14a10.8,10.8,0,0,1-.234-2.371,12.222,12.222,0,0,1,.246-2.594,5.933,5.933,0,0,1,.723-1.887A3.217,3.217,0,0,1,73.834,6a3.323,3.323,0,0,1,1.621-.387Q78.978,5.609,78.978,11.352Zm-1.312.125q0-4.781-2.273-4.781-2.4,0-2.4,4.867,0,4.539,2.352,4.539Q77.666,16.1,77.666,11.477ZM82.1,15.219l-1.25,3.844h-.914l.914-3.844Zm8.969-3.867a11.005,11.005,0,0,1-.254,2.492,5.807,5.807,0,0,1-.734,1.832,3.305,3.305,0,0,1-1.18,1.133,3.23,3.23,0,0,1-1.59.387,3.016,3.016,0,0,1-1.5-.371A3.152,3.152,0,0,1,84.7,15.742,5.484,5.484,0,0,1,84.01,14a10.8,10.8,0,0,1-.234-2.371,12.222,12.222,0,0,1,.246-2.594,5.933,5.933,0,0,1,.723-1.887A3.217,3.217,0,0,1,85.927,6a3.323,3.323,0,0,1,1.621-.387Q91.072,5.609,91.072,11.352Zm-1.312.125q0-4.781-2.273-4.781-2.4,0-2.4,4.867,0,4.539,2.352,4.539Q89.76,16.1,89.76,11.477Zm9.938-.125a11.005,11.005,0,0,1-.254,2.492,5.807,5.807,0,0,1-.734,1.832,3.305,3.305,0,0,1-1.18,1.133,3.23,3.23,0,0,1-1.59.387,3.016,3.016,0,0,1-1.5-.371,3.152,3.152,0,0,1-1.113-1.082A5.484,5.484,0,0,1,92.635,14a10.8,10.8,0,0,1-.234-2.371,12.222,12.222,0,0,1,.246-2.594,5.933,5.933,0,0,1,.723-1.887A3.217,3.217,0,0,1,94.552,6a3.323,3.323,0,0,1,1.621-.387Q99.7,5.609,99.7,11.352Zm-1.312.125q0-4.781-2.273-4.781-2.4,0-2.4,4.867,0,4.539,2.352,4.539Q98.385,16.1,98.385,11.477ZM49.947,66.938v1.7h-.812V67a4.9,4.9,0,0,1-2.7-.672V64.969a3.661,3.661,0,0,0,1.238.668,4.528,4.528,0,0,0,1.465.27v-4a6.129,6.129,0,0,1-2.227-1.527,2.9,2.9,0,0,1,.266-3.609,3.2,3.2,0,0,1,1.961-.988V54.375h.813V55.75a4.324,4.324,0,0,1,2.117.438v1.328a3.549,3.549,0,0,0-2.117-.672v4.125a6.64,6.64,0,0,1,2.223,1.5,2.51,2.51,0,0,1,.6,1.645,2.545,2.545,0,0,1-.746,1.863A3.624,3.624,0,0,1,49.947,66.938Zm-.812-6.406V56.891a1.78,1.78,0,0,0-1.039.582,1.623,1.623,0,0,0-.383,1.09,1.826,1.826,0,0,0,.313,1.1A3.367,3.367,0,0,0,49.135,60.531Zm.813,1.781v3.531q1.508-.328,1.508-1.625Q51.455,63.141,49.947,62.313ZM61.6,60.727a11.159,11.159,0,0,1-.3,2.738,6.108,6.108,0,0,1-.891,2.031,3.942,3.942,0,0,1-1.43,1.266,4.145,4.145,0,0,1-1.922.434A4.6,4.6,0,0,1,55.1,66.8V65.578a3.981,3.981,0,0,0,1.984.523,2.881,2.881,0,0,0,1.355-.312,2.807,2.807,0,0,0,1.012-.91,4.468,4.468,0,0,0,.633-1.473,8.315,8.315,0,0,0,.219-2.008h-.031a2.559,2.559,0,0,1-2.5,1.445,3.361,3.361,0,0,1-1.32-.254,3.025,3.025,0,0,1-1.039-.719,3.289,3.289,0,0,1-.68-1.105,3.97,3.97,0,0,1-.242-1.414,4.119,4.119,0,0,1,.27-1.516,3.532,3.532,0,0,1,.75-1.184,3.356,3.356,0,0,1,1.141-.77,3.73,3.73,0,0,1,1.441-.273,3.191,3.191,0,0,1,1.5.34,3,3,0,0,1,1.1.992,4.9,4.9,0,0,1,.68,1.605A9.166,9.166,0,0,1,61.6,60.727ZM60.22,59.578a3.9,3.9,0,0,0-.168-1.18,2.856,2.856,0,0,0-.465-.91,2.086,2.086,0,0,0-.707-.586,1.957,1.957,0,0,0-.895-.207,2.029,2.029,0,0,0-.859.184,2.066,2.066,0,0,0-.691.516,2.462,2.462,0,0,0-.461.789,2.866,2.866,0,0,0-.168,1,3.277,3.277,0,0,0,.16,1.063,2.219,2.219,0,0,0,.457.793,1.974,1.974,0,0,0,.715.5,2.412,2.412,0,0,0,.926.172,2.121,2.121,0,0,0,.84-.168,2.224,2.224,0,0,0,.688-.453,2.088,2.088,0,0,0,.461-.672A2.066,2.066,0,0,0,60.22,59.578Zm10.133,1.773a11.005,11.005,0,0,1-.254,2.492,5.807,5.807,0,0,1-.734,1.832,3.305,3.305,0,0,1-1.18,1.133,3.23,3.23,0,0,1-1.59.387,3.016,3.016,0,0,1-1.5-.371,3.152,3.152,0,0,1-1.113-1.082A5.484,5.484,0,0,1,63.291,64a10.8,10.8,0,0,1-.234-2.371,12.222,12.222,0,0,1,.246-2.594,5.933,5.933,0,0,1,.723-1.887A3.217,3.217,0,0,1,65.209,56a3.323,3.323,0,0,1,1.621-.387Q70.353,55.609,70.353,61.352Zm-1.312.125q0-4.781-2.273-4.781-2.4,0-2.4,4.867,0,4.539,2.352,4.539Q69.041,66.1,69.041,61.477Zm9.938-.125a11.005,11.005,0,0,1-.254,2.492,5.807,5.807,0,0,1-.734,1.832,3.305,3.305,0,0,1-1.18,1.133,3.23,3.23,0,0,1-1.59.387,3.016,3.016,0,0,1-1.5-.371A3.152,3.152,0,0,1,72.6,65.742,5.484,5.484,0,0,1,71.916,64a10.8,10.8,0,0,1-.234-2.371,12.222,12.222,0,0,1,.246-2.594,5.933,5.933,0,0,1,.723-1.887A3.217,3.217,0,0,1,73.834,56a3.323,3.323,0,0,1,1.621-.387Q78.978,55.609,78.978,61.352Zm-1.312.125q0-4.781-2.273-4.781-2.4,0-2.4,4.867,0,4.539,2.352,4.539Q77.666,66.1,77.666,61.477ZM82.1,65.219l-1.25,3.844h-.914l.914-3.844Zm8.969-3.867a11.005,11.005,0,0,1-.254,2.492,5.807,5.807,0,0,1-.734,1.832,3.305,3.305,0,0,1-1.18,1.133,3.23,3.23,0,0,1-1.59.387,3.016,3.016,0,0,1-1.5-.371A3.152,3.152,0,0,1,84.7,65.742,5.484,5.484,0,0,1,84.01,64a10.8,10.8,0,0,1-.234-2.371,12.222,12.222,0,0,1,.246-2.594,5.933,5.933,0,0,1,.723-1.887A3.217,3.217,0,0,1,85.927,56a3.323,3.323,0,0,1,1.621-.387Q91.072,55.609,91.072,61.352Zm-1.312.125q0-4.781-2.273-4.781-2.4,0-2.4,4.867,0,4.539,2.352,4.539Q89.76,66.1,89.76,61.477Zm9.938-.125a11.005,11.005,0,0,1-.254,2.492,5.807,5.807,0,0,1-.734,1.832,3.305,3.305,0,0,1-1.18,1.133,3.23,3.23,0,0,1-1.59.387,3.016,3.016,0,0,1-1.5-.371,3.152,3.152,0,0,1-1.113-1.082A5.484,5.484,0,0,1,92.635,64a10.8,10.8,0,0,1-.234-2.371,12.222,12.222,0,0,1,.246-2.594,5.933,5.933,0,0,1,.723-1.887A3.217,3.217,0,0,1,94.552,56a3.323,3.323,0,0,1,1.621-.387Q99.7,55.609,99.7,61.352Zm-1.312.125q0-4.781-2.273-4.781-2.4,0-2.4,4.867,0,4.539,2.352,4.539Q98.385,66.1,98.385,61.477ZM37.853,116.938v1.7h-.812V117a4.9,4.9,0,0,1-2.7-.672v-1.359a3.661,3.661,0,0,0,1.238.668,4.528,4.528,0,0,0,1.465.27v-4a6.129,6.129,0,0,1-2.227-1.527,2.9,2.9,0,0,1,.266-3.609,3.2,3.2,0,0,1,1.961-.988v-1.406h.813v1.375a4.324,4.324,0,0,1,2.117.438v1.328a3.549,3.549,0,0,0-2.117-.672v4.125a6.64,6.64,0,0,1,2.223,1.5,2.51,2.51,0,0,1,.6,1.645,2.545,2.545,0,0,1-.746,1.863A3.624,3.624,0,0,1,37.853,116.938Zm-.812-6.406v-3.641a1.78,1.78,0,0,0-1.039.582,1.623,1.623,0,0,0-.383,1.09,1.826,1.826,0,0,0,.313,1.1A3.367,3.367,0,0,0,37.041,110.531Zm.813,1.781v3.531q1.508-.328,1.508-1.625Q39.361,113.141,37.853,112.313ZM47.322,117H46.041v-9.68a2.965,2.965,0,0,1-.434.34,7.068,7.068,0,0,1-.641.379q-.355.188-.75.352a5.45,5.45,0,0,1-.77.258v-1.3a7.448,7.448,0,0,0,.895-.316q.473-.2.93-.445t.863-.516a6.854,6.854,0,0,0,.7-.527h.484Zm4.711.172a.829.829,0,0,1-.613-.258.849.849,0,0,1-.254-.617.862.862,0,0,1,.254-.621.823.823,0,0,1,.613-.262.845.845,0,0,1,.625.262.855.855,0,0,1,.258.621.842.842,0,0,1-.258.617A.851.851,0,0,1,52.033,117.172Zm7.758-8.437a2.316,2.316,0,0,0-.16-.9,1.739,1.739,0,0,0-1.09-1.016,2.554,2.554,0,0,0-.812-.125,2.687,2.687,0,0,0-.734.1,3.57,3.57,0,0,0-.7.281,4.3,4.3,0,0,0-.656.43,4.74,4.74,0,0,0-.59.555v-1.375a3.831,3.831,0,0,1,1.207-.8,4.25,4.25,0,0,1,1.629-.277,3.932,3.932,0,0,1,1.273.2,2.92,2.92,0,0,1,1.016.582,2.691,2.691,0,0,1,.676.945,3.188,3.188,0,0,1,.246,1.289,4.42,4.42,0,0,1-.152,1.2,3.721,3.721,0,0,1-.461,1.016,4.9,4.9,0,0,1-.777.914,11.012,11.012,0,0,1-1.1.891q-.789.563-1.3.961a5.75,5.75,0,0,0-.812.746,2.165,2.165,0,0,0-.422.7,2.43,2.43,0,0,0-.121.8h5.578V117H54.611v-.555a4.622,4.622,0,0,1,.156-1.266,3.286,3.286,0,0,1,.516-1.039,5.767,5.767,0,0,1,.941-.984q.582-.492,1.426-1.109a9.014,9.014,0,0,0,1.02-.836,4.346,4.346,0,0,0,.66-.8,2.862,2.862,0,0,0,.355-.809A3.486,3.486,0,0,0,59.791,108.734Zm10.563,2.617a11.005,11.005,0,0,1-.254,2.492,5.807,5.807,0,0,1-.734,1.832,3.305,3.305,0,0,1-1.18,1.133,3.23,3.23,0,0,1-1.59.387,3.016,3.016,0,0,1-1.5-.371,3.152,3.152,0,0,1-1.113-1.082A5.484,5.484,0,0,1,63.291,114a10.8,10.8,0,0,1-.234-2.371,12.222,12.222,0,0,1,.246-2.594,5.933,5.933,0,0,1,.723-1.887A3.217,3.217,0,0,1,65.209,106a3.323,3.323,0,0,1,1.621-.387Q70.353,105.609,70.353,111.352Zm-1.312.125q0-4.781-2.273-4.781-2.4,0-2.4,4.867,0,4.539,2.352,4.539Q69.041,116.1,69.041,111.477Zm9.938-.125a11.005,11.005,0,0,1-.254,2.492,5.807,5.807,0,0,1-.734,1.832,3.305,3.305,0,0,1-1.18,1.133,3.23,3.23,0,0,1-1.59.387,3.016,3.016,0,0,1-1.5-.371,3.152,3.152,0,0,1-1.113-1.082A5.484,5.484,0,0,1,71.916,114a10.8,10.8,0,0,1-.234-2.371,12.222,12.222,0,0,1,.246-2.594,5.933,5.933,0,0,1,.723-1.887A3.217,3.217,0,0,1,73.834,106a3.323,3.323,0,0,1,1.621-.387Q78.978,105.609,78.978,111.352Zm-1.312.125q0-4.781-2.273-4.781-2.4,0-2.4,4.867,0,4.539,2.352,4.539Q77.666,116.1,77.666,111.477Zm4.438,3.742-1.25,3.844h-.914l.914-3.844Zm8.969-3.867a11.005,11.005,0,0,1-.254,2.492,5.807,5.807,0,0,1-.734,1.832,3.305,3.305,0,0,1-1.18,1.133,3.23,3.23,0,0,1-1.59.387,3.016,3.016,0,0,1-1.5-.371,3.152,3.152,0,0,1-1.113-1.082A5.484,5.484,0,0,1,84.01,114a10.8,10.8,0,0,1-.234-2.371,12.222,12.222,0,0,1,.246-2.594,5.933,5.933,0,0,1,.723-1.887A3.217,3.217,0,0,1,85.927,106a3.323,3.323,0,0,1,1.621-.387Q91.072,105.609,91.072,111.352Zm-1.312.125q0-4.781-2.273-4.781-2.4,0-2.4,4.867,0,4.539,2.352,4.539Q89.76,116.1,89.76,111.477Zm9.938-.125a11.005,11.005,0,0,1-.254,2.492,5.807,5.807,0,0,1-.734,1.832,3.305,3.305,0,0,1-1.18,1.133,3.23,3.23,0,0,1-1.59.387,3.016,3.016,0,0,1-1.5-.371,3.152,3.152,0,0,1-1.113-1.082A5.484,5.484,0,0,1,92.635,114a10.8,10.8,0,0,1-.234-2.371,12.222,12.222,0,0,1,.246-2.594,5.933,5.933,0,0,1,.723-1.887A3.217,3.217,0,0,1,94.552,106a3.323,3.323,0,0,1,1.621-.387Q99.7,105.609,99.7,111.352Zm-1.312.125q0-4.781-2.273-4.781-2.4,0-2.4,4.867,0,4.539,2.352,4.539Q98.385,116.1,98.385,111.477ZM49.947,166.938v1.7h-.812V167a4.9,4.9,0,0,1-2.7-.672v-1.359a3.661,3.661,0,0,0,1.238.668,4.528,4.528,0,0,0,1.465.27v-4a6.129,6.129,0,0,1-2.227-1.527,2.9,2.9,0,0,1,.266-3.609,3.2,3.2,0,0,1,1.961-.988v-1.406h.813v1.375a4.324,4.324,0,0,1,2.117.438v1.328a3.549,3.549,0,0,0-2.117-.672v4.125a6.64,6.64,0,0,1,2.223,1.5,2.51,2.51,0,0,1,.6,1.645,2.545,2.545,0,0,1-.746,1.863A3.624,3.624,0,0,1,49.947,166.938Zm-.812-6.406v-3.641a1.78,1.78,0,0,0-1.039.582,1.624,1.624,0,0,0-.383,1.09,1.826,1.826,0,0,0,.313,1.1A3.367,3.367,0,0,0,49.135,160.531Zm.813,1.781v3.531q1.508-.328,1.508-1.625Q51.455,163.141,49.947,162.313ZM61.6,160.727a11.159,11.159,0,0,1-.3,2.738,6.108,6.108,0,0,1-.891,2.031,3.942,3.942,0,0,1-1.43,1.266,4.145,4.145,0,0,1-1.922.434A4.6,4.6,0,0,1,55.1,166.8v-1.227a3.981,3.981,0,0,0,1.984.523,2.881,2.881,0,0,0,1.355-.312,2.807,2.807,0,0,0,1.012-.91,4.468,4.468,0,0,0,.633-1.473,8.315,8.315,0,0,0,.219-2.008h-.031a2.559,2.559,0,0,1-2.5,1.445,3.361,3.361,0,0,1-1.32-.254,3.025,3.025,0,0,1-1.039-.719,3.289,3.289,0,0,1-.68-1.105,3.97,3.97,0,0,1-.242-1.414,4.119,4.119,0,0,1,.27-1.516,3.532,3.532,0,0,1,.75-1.184,3.356,3.356,0,0,1,1.141-.77,3.73,3.73,0,0,1,1.441-.273,3.191,3.191,0,0,1,1.5.34,3,3,0,0,1,1.1.992,4.9,4.9,0,0,1,.68,1.605A9.166,9.166,0,0,1,61.6,160.727Zm-1.383-1.148a3.9,3.9,0,0,0-.168-1.18,2.856,2.856,0,0,0-.465-.91,2.086,2.086,0,0,0-.707-.586,1.957,1.957,0,0,0-.895-.207,2.029,2.029,0,0,0-.859.184,2.066,2.066,0,0,0-.691.516,2.462,2.462,0,0,0-.461.789,2.866,2.866,0,0,0-.168,1,3.277,3.277,0,0,0,.16,1.063,2.219,2.219,0,0,0,.457.793,1.974,1.974,0,0,0,.715.5,2.412,2.412,0,0,0,.926.172,2.121,2.121,0,0,0,.84-.168,2.224,2.224,0,0,0,.688-.453,2.088,2.088,0,0,0,.461-.672A2.066,2.066,0,0,0,60.22,159.578Zm10.133,1.773a11.005,11.005,0,0,1-.254,2.492,5.807,5.807,0,0,1-.734,1.832,3.305,3.305,0,0,1-1.18,1.133,3.23,3.23,0,0,1-1.59.387,3.016,3.016,0,0,1-1.5-.371,3.152,3.152,0,0,1-1.113-1.082A5.484,5.484,0,0,1,63.291,164a10.8,10.8,0,0,1-.234-2.371,12.222,12.222,0,0,1,.246-2.594,5.933,5.933,0,0,1,.723-1.887A3.217,3.217,0,0,1,65.209,156a3.323,3.323,0,0,1,1.621-.387Q70.353,155.609,70.353,161.352Zm-1.312.125q0-4.781-2.273-4.781-2.4,0-2.4,4.867,0,4.539,2.352,4.539Q69.041,166.1,69.041,161.477Zm9.938-.125a11.005,11.005,0,0,1-.254,2.492,5.807,5.807,0,0,1-.734,1.832,3.305,3.305,0,0,1-1.18,1.133,3.23,3.23,0,0,1-1.59.387,3.016,3.016,0,0,1-1.5-.371,3.152,3.152,0,0,1-1.113-1.082A5.484,5.484,0,0,1,71.916,164a10.8,10.8,0,0,1-.234-2.371,12.222,12.222,0,0,1,.246-2.594,5.933,5.933,0,0,1,.723-1.887A3.217,3.217,0,0,1,73.834,156a3.323,3.323,0,0,1,1.621-.387Q78.978,155.609,78.978,161.352Zm-1.312.125q0-4.781-2.273-4.781-2.4,0-2.4,4.867,0,4.539,2.352,4.539Q77.666,166.1,77.666,161.477Zm4.438,3.742-1.25,3.844h-.914l.914-3.844Zm8.969-3.867a11.005,11.005,0,0,1-.254,2.492,5.807,5.807,0,0,1-.734,1.832,3.305,3.305,0,0,1-1.18,1.133,3.23,3.23,0,0,1-1.59.387,3.016,3.016,0,0,1-1.5-.371,3.152,3.152,0,0,1-1.113-1.082A5.484,5.484,0,0,1,84.01,164a10.8,10.8,0,0,1-.234-2.371,12.222,12.222,0,0,1,.246-2.594,5.933,5.933,0,0,1,.723-1.887A3.217,3.217,0,0,1,85.927,156a3.323,3.323,0,0,1,1.621-.387Q91.072,155.609,91.072,161.352Zm-1.312.125q0-4.781-2.273-4.781-2.4,0-2.4,4.867,0,4.539,2.352,4.539Q89.76,166.1,89.76,161.477Zm9.938-.125a11.005,11.005,0,0,1-.254,2.492,5.807,5.807,0,0,1-.734,1.832,3.305,3.305,0,0,1-1.18,1.133,3.23,3.23,0,0,1-1.59.387,3.016,3.016,0,0,1-1.5-.371,3.152,3.152,0,0,1-1.113-1.082A5.484,5.484,0,0,1,92.635,164a10.8,10.8,0,0,1-.234-2.371,12.222,12.222,0,0,1,.246-2.594,5.933,5.933,0,0,1,.723-1.887A3.217,3.217,0,0,1,94.552,156a3.323,3.323,0,0,1,1.621-.387Q99.7,155.609,99.7,161.352Zm-1.312.125q0-4.781-2.273-4.781-2.4,0-2.4,4.867,0,4.539,2.352,4.539Q98.385,166.1,98.385,161.477Z" transform="translate(-9312.83 3914.374)" fill="#12263f"/>
    <path id="Trazado_1054740" data-name="Trazado 1054740" d="M11.755,16.57v-2.5a4.8,4.8,0,0,0,1.477.855,4.746,4.746,0,0,0,1.609.285,3.569,3.569,0,0,0,.832-.086,1.949,1.949,0,0,0,.594-.238,1.039,1.039,0,0,0,.355-.359.9.9,0,0,0,.117-.449.971.971,0,0,0-.187-.586,2.018,2.018,0,0,0-.512-.477,5.347,5.347,0,0,0-.77-.422q-.445-.2-.961-.414a4.9,4.9,0,0,1-1.957-1.336,2.917,2.917,0,0,1-.645-1.906,3.036,3.036,0,0,1,.352-1.5A2.986,2.986,0,0,1,13.016,6.4a4.291,4.291,0,0,1,1.4-.6,7.206,7.206,0,0,1,1.688-.191,10.15,10.15,0,0,1,1.551.105,6.1,6.1,0,0,1,1.246.324V8.375a3.768,3.768,0,0,0-.613-.344,4.859,4.859,0,0,0-.684-.246,5.214,5.214,0,0,0-.7-.145,4.949,4.949,0,0,0-.66-.047,3.443,3.443,0,0,0-.781.082,2,2,0,0,0-.594.23,1.147,1.147,0,0,0-.375.355.843.843,0,0,0-.133.465.888.888,0,0,0,.148.5,1.7,1.7,0,0,0,.422.422,4.477,4.477,0,0,0,.664.391q.391.191.883.395a9.837,9.837,0,0,1,1.207.6,4.291,4.291,0,0,1,.918.715,2.785,2.785,0,0,1,.586.91,3.216,3.216,0,0,1,.2,1.191,3.191,3.191,0,0,1-.355,1.574,2.886,2.886,0,0,1-.965,1.031,4.184,4.184,0,0,1-1.418.566,8.2,8.2,0,0,1-1.707.172,9.492,9.492,0,0,1-1.754-.156A5.3,5.3,0,0,1,11.755,16.57Zm18.617-4.422q0,5.047-4.7,5.047-4.562,0-4.562-4.93V5.8h2.531v6.5q0,2.719,2.125,2.719,2.086,0,2.086-2.625V5.8h2.523ZM32.809,17V5.8h4.078a5.093,5.093,0,0,1,2.883.688,2.211,2.211,0,0,1,1.008,1.938,2.293,2.293,0,0,1-.613,1.586,3.222,3.222,0,0,1-1.566.945v.031a3.1,3.1,0,0,1,1.91.883,2.469,2.469,0,0,1,.715,1.789,2.99,2.99,0,0,1-1.1,2.441,4.61,4.61,0,0,1-3.008.9Zm2.523-9.344v2.656h1.109a1.849,1.849,0,0,0,1.23-.379,1.291,1.291,0,0,0,.449-1.043q0-1.234-1.844-1.234Zm0,4.531v2.953H36.7a2.1,2.1,0,0,0,1.371-.406,1.357,1.357,0,0,0,.5-1.109,1.266,1.266,0,0,0-.488-1.055,2.16,2.16,0,0,0-1.363-.383ZM50.552,7.852h-3.2V17H44.825V7.852h-3.18V5.8h8.906ZM56.2,17.2a5.215,5.215,0,0,1-3.922-1.566,5.624,5.624,0,0,1-1.516-4.082A6.026,6.026,0,0,1,52.3,7.25,5.328,5.328,0,0,1,56.38,5.609a5.085,5.085,0,0,1,3.879,1.57,5.79,5.79,0,0,1,1.48,4.141A5.929,5.929,0,0,1,60.2,15.578,5.269,5.269,0,0,1,56.2,17.2Zm.109-9.414a2.54,2.54,0,0,0-2.109,1,4.153,4.153,0,0,0-.781,2.637,4.077,4.077,0,0,0,.781,2.633,2.7,2.7,0,0,0,4.117.027,4.032,4.032,0,0,0,.766-2.613,4.369,4.369,0,0,0-.742-2.711A2.42,2.42,0,0,0,56.309,7.781Zm14.516.07h-3.2V17H65.1V7.852h-3.18V5.8h8.906ZM81.067,17h-2.75l-.8-2.492H73.536L72.747,17H70.013L74.091,5.8h2.992Zm-4.125-4.43L75.739,8.8A4.908,4.908,0,0,1,75.552,7.8h-.062a4.273,4.273,0,0,1-.2.977l-1.219,3.8ZM89.138,17H82.466V5.8h2.523v9.156h4.148Z" transform="translate(-9329.339 4114.946)" fill="#12263f"/>
    <path id="Trazado_1054734" data-name="Trazado 1054734" d="M43.106,17H40.583V5.8h2.523ZM54.981,5.8,51.122,17H48.263L44.45,5.8h2.719l2.336,7.8a5.584,5.584,0,0,1,.227,1.117h.047a6.314,6.314,0,0,1,.242-1.148L52.341,5.8ZM65.349,17H62.6l-.8-2.492H57.817L57.028,17H54.294L58.372,5.8h2.992Zm-4.125-4.43L60.02,8.8A4.907,4.907,0,0,1,59.833,7.8H59.77a4.273,4.273,0,0,1-.2.977l-1.219,3.8Z" transform="translate(-9329.339 4163.499)" fill="#12263f"/>
    <path id="Trazado_1054729" data-name="Trazado 1054729" d="M37.552,7.852h-3.2V17H31.825V7.852h-3.18V5.8h8.906ZM43.2,17.2a5.215,5.215,0,0,1-3.922-1.566,5.624,5.624,0,0,1-1.516-4.082A6.026,6.026,0,0,1,39.3,7.25,5.328,5.328,0,0,1,43.38,5.609a5.085,5.085,0,0,1,3.879,1.57,5.79,5.79,0,0,1,1.48,4.141A5.929,5.929,0,0,1,47.2,15.578,5.269,5.269,0,0,1,43.2,17.2Zm.109-9.414a2.54,2.54,0,0,0-2.109,1,4.153,4.153,0,0,0-.781,2.637,4.077,4.077,0,0,0,.781,2.633,2.7,2.7,0,0,0,4.117.027,4.032,4.032,0,0,0,.766-2.613,4.369,4.369,0,0,0-.742-2.711A2.42,2.42,0,0,0,43.309,7.781Zm14.516.07h-3.2V17H52.1V7.852h-3.18V5.8h8.906ZM68.067,17h-2.75l-.8-2.492H60.536L59.747,17H57.013L61.091,5.8h2.992Zm-4.125-4.43L62.739,8.8A4.907,4.907,0,0,1,62.552,7.8h-.062a4.273,4.273,0,0,1-.2.977l-1.219,3.8ZM76.138,17H69.466V5.8h2.523v9.156h4.148Z" transform="translate(-9329.339 4217.896)" fill="#12263f"/>
    <path id="Trazado_1054743" data-name="Trazado 1054743" d="M49.947,16.938v1.7h-.812V17a4.9,4.9,0,0,1-2.7-.672V14.969a3.661,3.661,0,0,0,1.238.668,4.528,4.528,0,0,0,1.465.27v-4a6.129,6.129,0,0,1-2.227-1.527A2.736,2.736,0,0,1,46.4,8.727a2.763,2.763,0,0,1,.773-1.957,3.2,3.2,0,0,1,1.961-.988V4.375h.813V5.75a4.324,4.324,0,0,1,2.117.438V7.516a3.549,3.549,0,0,0-2.117-.672v4.125a6.64,6.64,0,0,1,2.223,1.5,2.51,2.51,0,0,1,.6,1.645,2.545,2.545,0,0,1-.746,1.863A3.624,3.624,0,0,1,49.947,16.938Zm-.812-6.406V6.891a1.78,1.78,0,0,0-1.039.582,1.623,1.623,0,0,0-.383,1.09,1.826,1.826,0,0,0,.313,1.1A3.367,3.367,0,0,0,49.135,10.531Zm.813,1.781v3.531q1.508-.328,1.508-1.625Q51.455,13.141,49.947,12.313ZM61.33,13.578a3.771,3.771,0,0,1-.281,1.484,3.245,3.245,0,0,1-.8,1.141,3.586,3.586,0,0,1-1.254.734,4.9,4.9,0,0,1-1.633.258,4.511,4.511,0,0,1-2.32-.469V15.367a4.266,4.266,0,0,0,2.336.734,3.161,3.161,0,0,0,1.1-.18,2.439,2.439,0,0,0,.832-.5,2.141,2.141,0,0,0,.527-.773,2.618,2.618,0,0,0,.184-.992,2.125,2.125,0,0,0-.734-1.715,3.221,3.221,0,0,0-2.133-.621q-.227,0-.477.008t-.5.02q-.25.012-.488.027t-.434.039L55.635,5.8h5.18V6.953h-4.07l-.227,3.289q.25-.016.531-.027t.5-.012a5.028,5.028,0,0,1,1.594.234,3.377,3.377,0,0,1,1.191.668,2.8,2.8,0,0,1,.742,1.063A3.737,3.737,0,0,1,61.33,13.578Zm7.7-7.781v7.4h1.438v1.172H69.025V17H67.76V14.367H62.494V13.258q.734-.828,1.484-1.77t1.434-1.91q.684-.969,1.266-1.934a17.671,17.671,0,0,0,.98-1.848Zm-5.086,7.4h3.82V7.711q-.586,1.023-1.109,1.828t-1,1.461q-.473.656-.9,1.188T63.939,13.2Zm8.813,3.977a.829.829,0,0,1-.613-.258.849.849,0,0,1-.254-.617.862.862,0,0,1,.254-.621.823.823,0,0,1,.613-.262.845.845,0,0,1,.625.262.855.855,0,0,1,.258.621.842.842,0,0,1-.258.617A.851.851,0,0,1,72.752,17.172Zm9.7-5.82a11.005,11.005,0,0,1-.254,2.492,5.807,5.807,0,0,1-.734,1.832,3.305,3.305,0,0,1-1.18,1.133,3.23,3.23,0,0,1-1.59.387,3.016,3.016,0,0,1-1.5-.371,3.152,3.152,0,0,1-1.113-1.082A5.484,5.484,0,0,1,75.385,14a10.8,10.8,0,0,1-.234-2.371A12.222,12.222,0,0,1,75.4,9.031a5.933,5.933,0,0,1,.723-1.887A3.217,3.217,0,0,1,77.3,6a3.323,3.323,0,0,1,1.621-.387Q82.447,5.609,82.447,11.352Zm-1.312.125q0-4.781-2.273-4.781-2.4,0-2.4,4.867,0,4.539,2.352,4.539Q81.135,16.1,81.135,11.477Zm9.938-.125a11.005,11.005,0,0,1-.254,2.492,5.807,5.807,0,0,1-.734,1.832,3.305,3.305,0,0,1-1.18,1.133,3.23,3.23,0,0,1-1.59.387,3.016,3.016,0,0,1-1.5-.371A3.152,3.152,0,0,1,84.7,15.742,5.484,5.484,0,0,1,84.01,14a10.8,10.8,0,0,1-.234-2.371,12.222,12.222,0,0,1,.246-2.594,5.933,5.933,0,0,1,.723-1.887A3.217,3.217,0,0,1,85.927,6a3.323,3.323,0,0,1,1.621-.387Q91.072,5.609,91.072,11.352Zm-1.312.125q0-4.781-2.273-4.781-2.4,0-2.4,4.867,0,4.539,2.352,4.539Q89.76,16.1,89.76,11.477Zm9.938-.125a11.005,11.005,0,0,1-.254,2.492,5.807,5.807,0,0,1-.734,1.832,3.305,3.305,0,0,1-1.18,1.133,3.23,3.23,0,0,1-1.59.387,3.016,3.016,0,0,1-1.5-.371,3.152,3.152,0,0,1-1.113-1.082A5.484,5.484,0,0,1,92.635,14a10.8,10.8,0,0,1-.234-2.371,12.222,12.222,0,0,1,.246-2.594,5.933,5.933,0,0,1,.723-1.887A3.217,3.217,0,0,1,94.552,6a3.323,3.323,0,0,1,1.621-.387Q99.7,5.609,99.7,11.352Zm-1.312.125q0-4.781-2.273-4.781-2.4,0-2.4,4.867,0,4.539,2.352,4.539Q98.385,16.1,98.385,11.477ZM41.322,66.938v1.7H40.51V67a4.9,4.9,0,0,1-2.7-.672V64.969a3.661,3.661,0,0,0,1.238.668,4.528,4.528,0,0,0,1.465.27v-4a6.129,6.129,0,0,1-2.227-1.527,2.9,2.9,0,0,1,.266-3.609,3.2,3.2,0,0,1,1.961-.988V54.375h.813V55.75a4.324,4.324,0,0,1,2.117.438v1.328a3.549,3.549,0,0,0-2.117-.672v4.125a6.64,6.64,0,0,1,2.223,1.5,2.51,2.51,0,0,1,.6,1.645,2.545,2.545,0,0,1-.746,1.863A3.624,3.624,0,0,1,41.322,66.938Zm-.812-6.406V56.891a1.78,1.78,0,0,0-1.039.582,1.623,1.623,0,0,0-.383,1.09,1.826,1.826,0,0,0,.313,1.1A3.367,3.367,0,0,0,40.51,60.531Zm.813,1.781v3.531q1.508-.328,1.508-1.625Q42.83,63.141,41.322,62.313Zm9.844-3.578a2.316,2.316,0,0,0-.16-.9,1.739,1.739,0,0,0-1.09-1.016A2.555,2.555,0,0,0,49.1,56.7a2.688,2.688,0,0,0-.734.1,3.57,3.57,0,0,0-.7.281,4.3,4.3,0,0,0-.656.43,4.741,4.741,0,0,0-.59.555V56.688a3.831,3.831,0,0,1,1.207-.8,4.25,4.25,0,0,1,1.629-.277,3.932,3.932,0,0,1,1.273.2,2.92,2.92,0,0,1,1.016.582,2.691,2.691,0,0,1,.676.945,3.188,3.188,0,0,1,.246,1.289,4.42,4.42,0,0,1-.152,1.2,3.721,3.721,0,0,1-.461,1.016,4.9,4.9,0,0,1-.777.914,11.011,11.011,0,0,1-1.1.891q-.789.563-1.3.961a5.75,5.75,0,0,0-.812.746,2.165,2.165,0,0,0-.422.7,2.43,2.43,0,0,0-.121.8H52.9V67H45.986v-.555a4.622,4.622,0,0,1,.156-1.266,3.286,3.286,0,0,1,.516-1.039,5.767,5.767,0,0,1,.941-.984q.582-.492,1.426-1.109a9.014,9.014,0,0,0,1.02-.836,4.346,4.346,0,0,0,.66-.8,2.862,2.862,0,0,0,.355-.809A3.486,3.486,0,0,0,51.166,58.734Zm10.484-2.2q-.258.445-.621,1.109t-.77,1.492q-.406.828-.828,1.781t-.789,1.969q-.367,1.016-.645,2.059A15.315,15.315,0,0,0,57.6,67H56.22a15.579,15.579,0,0,1,.434-2.043q.293-1.043.664-2.047t.785-1.934q.414-.93.8-1.711t.715-1.379q.324-.6.52-.934H54.525V55.8H61.65Zm8.7,4.813a11.005,11.005,0,0,1-.254,2.492,5.807,5.807,0,0,1-.734,1.832,3.305,3.305,0,0,1-1.18,1.133,3.23,3.23,0,0,1-1.59.387,3.016,3.016,0,0,1-1.5-.371,3.152,3.152,0,0,1-1.113-1.082A5.484,5.484,0,0,1,63.291,64a10.8,10.8,0,0,1-.234-2.371,12.222,12.222,0,0,1,.246-2.594,5.933,5.933,0,0,1,.723-1.887A3.217,3.217,0,0,1,65.209,56a3.323,3.323,0,0,1,1.621-.387Q70.353,55.609,70.353,61.352Zm-1.312.125q0-4.781-2.273-4.781-2.4,0-2.4,4.867,0,4.539,2.352,4.539Q69.041,66.1,69.041,61.477Zm3.711,5.7a.829.829,0,0,1-.613-.258.849.849,0,0,1-.254-.617.862.862,0,0,1,.254-.621.823.823,0,0,1,.613-.262.845.845,0,0,1,.625.262.855.855,0,0,1,.258.621.842.842,0,0,1-.258.617A.851.851,0,0,1,72.752,67.172Zm9.7-5.82a11.005,11.005,0,0,1-.254,2.492,5.807,5.807,0,0,1-.734,1.832,3.305,3.305,0,0,1-1.18,1.133,3.23,3.23,0,0,1-1.59.387,3.016,3.016,0,0,1-1.5-.371,3.152,3.152,0,0,1-1.113-1.082A5.484,5.484,0,0,1,75.385,64a10.8,10.8,0,0,1-.234-2.371,12.222,12.222,0,0,1,.246-2.594,5.933,5.933,0,0,1,.723-1.887A3.217,3.217,0,0,1,77.3,56a3.323,3.323,0,0,1,1.621-.387Q82.447,55.609,82.447,61.352Zm-1.312.125q0-4.781-2.273-4.781-2.4,0-2.4,4.867,0,4.539,2.352,4.539Q81.135,66.1,81.135,61.477Zm9.938-.125a11.005,11.005,0,0,1-.254,2.492,5.807,5.807,0,0,1-.734,1.832,3.305,3.305,0,0,1-1.18,1.133,3.23,3.23,0,0,1-1.59.387,3.016,3.016,0,0,1-1.5-.371A3.152,3.152,0,0,1,84.7,65.742,5.484,5.484,0,0,1,84.01,64a10.8,10.8,0,0,1-.234-2.371,12.222,12.222,0,0,1,.246-2.594,5.933,5.933,0,0,1,.723-1.887A3.217,3.217,0,0,1,85.927,56a3.323,3.323,0,0,1,1.621-.387Q91.072,55.609,91.072,61.352Zm-1.312.125q0-4.781-2.273-4.781-2.4,0-2.4,4.867,0,4.539,2.352,4.539Q89.76,66.1,89.76,61.477Zm9.938-.125a11.005,11.005,0,0,1-.254,2.492,5.807,5.807,0,0,1-.734,1.832,3.305,3.305,0,0,1-1.18,1.133,3.23,3.23,0,0,1-1.59.387,3.016,3.016,0,0,1-1.5-.371,3.152,3.152,0,0,1-1.113-1.082A5.484,5.484,0,0,1,92.635,64a10.8,10.8,0,0,1-.234-2.371,12.222,12.222,0,0,1,.246-2.594,5.933,5.933,0,0,1,.723-1.887A3.217,3.217,0,0,1,94.552,56a3.323,3.323,0,0,1,1.621-.387Q99.7,55.609,99.7,61.352Zm-1.312.125q0-4.781-2.273-4.781-2.4,0-2.4,4.867,0,4.539,2.352,4.539Q98.385,66.1,98.385,61.477ZM41.322,116.938v1.7H40.51V117a4.9,4.9,0,0,1-2.7-.672v-1.359a3.661,3.661,0,0,0,1.238.668,4.528,4.528,0,0,0,1.465.27v-4a6.129,6.129,0,0,1-2.227-1.527,2.9,2.9,0,0,1,.266-3.609,3.2,3.2,0,0,1,1.961-.988v-1.406h.813v1.375a4.324,4.324,0,0,1,2.117.438v1.328a3.549,3.549,0,0,0-2.117-.672v4.125a6.64,6.64,0,0,1,2.223,1.5,2.51,2.51,0,0,1,.6,1.645,2.545,2.545,0,0,1-.746,1.863A3.624,3.624,0,0,1,41.322,116.938Zm-.812-6.406v-3.641a1.78,1.78,0,0,0-1.039.582,1.623,1.623,0,0,0-.383,1.09,1.826,1.826,0,0,0,.313,1.1A3.367,3.367,0,0,0,40.51,110.531Zm.813,1.781v3.531q1.508-.328,1.508-1.625Q42.83,113.141,41.322,112.313ZM50.791,117H49.51v-9.68a2.965,2.965,0,0,1-.434.34,7.068,7.068,0,0,1-.641.379q-.355.188-.75.352a5.45,5.45,0,0,1-.77.258v-1.3a7.448,7.448,0,0,0,.895-.316q.473-.2.93-.445t.863-.516a6.854,6.854,0,0,0,.7-.527h.484Zm3.672-3.125a2.981,2.981,0,0,1,.141-.895,3.24,3.24,0,0,1,.4-.84,3.33,3.33,0,0,1,.648-.711,3.091,3.091,0,0,1,.879-.508,3.322,3.322,0,0,1-1.156-1.043,2.466,2.466,0,0,1-.43-1.41,2.72,2.72,0,0,1,.238-1.141,2.748,2.748,0,0,1,.66-.906,3.052,3.052,0,0,1,1-.6,3.735,3.735,0,0,1,2.508,0,3.106,3.106,0,0,1,1,.6,2.7,2.7,0,0,1,.656.906,2.74,2.74,0,0,1,.234,1.133,2.466,2.466,0,0,1-.43,1.41,3.363,3.363,0,0,1-1.141,1.043,3.064,3.064,0,0,1,.867.508,3.379,3.379,0,0,1,.645.711,3.24,3.24,0,0,1,.4.84,2.981,2.981,0,0,1,.141.895,3.327,3.327,0,0,1-.266,1.344,3,3,0,0,1-.746,1.043,3.444,3.444,0,0,1-1.148.676,4.293,4.293,0,0,1-1.473.242,4.235,4.235,0,0,1-1.461-.242,3.5,3.5,0,0,1-1.148-.676,3.023,3.023,0,0,1-.754-1.043A3.285,3.285,0,0,1,54.463,113.875Zm1.391-.109a2.647,2.647,0,0,0,.16.945,2.038,2.038,0,0,0,.453.719,1.978,1.978,0,0,0,.711.457,2.568,2.568,0,0,0,.926.16,2.439,2.439,0,0,0,.906-.164,2.112,2.112,0,0,0,.715-.461,2.072,2.072,0,0,0,.469-.719,2.514,2.514,0,0,0,.168-.937,2.4,2.4,0,0,0-.16-.879,2.2,2.2,0,0,0-.457-.723,2.147,2.147,0,0,0-.711-.492,2.313,2.313,0,0,0-.93-.18,2.338,2.338,0,0,0-.895.168,2.14,2.14,0,0,0-.711.469,2.171,2.171,0,0,0-.473.719A2.391,2.391,0,0,0,55.853,113.766Zm.4-5.2a1.86,1.86,0,0,0,1.133,1.73,1.846,1.846,0,0,0,1.441,0,1.867,1.867,0,0,0,.59-.4,1.95,1.95,0,0,0,.4-.594,1.8,1.8,0,0,0,.148-.73,1.915,1.915,0,0,0-.145-.75,1.841,1.841,0,0,0-1.715-1.133,1.864,1.864,0,0,0-.754.148,1.821,1.821,0,0,0-.586.4,1.759,1.759,0,0,0-.379.6A2.02,2.02,0,0,0,56.252,108.57Zm14.1,2.781a11.005,11.005,0,0,1-.254,2.492,5.807,5.807,0,0,1-.734,1.832,3.305,3.305,0,0,1-1.18,1.133,3.23,3.23,0,0,1-1.59.387,3.016,3.016,0,0,1-1.5-.371,3.152,3.152,0,0,1-1.113-1.082A5.484,5.484,0,0,1,63.291,114a10.8,10.8,0,0,1-.234-2.371,12.222,12.222,0,0,1,.246-2.594,5.933,5.933,0,0,1,.723-1.887A3.217,3.217,0,0,1,65.209,106a3.323,3.323,0,0,1,1.621-.387Q70.353,105.609,70.353,111.352Zm-1.312.125q0-4.781-2.273-4.781-2.4,0-2.4,4.867,0,4.539,2.352,4.539Q69.041,116.1,69.041,111.477Zm3.711,5.7a.829.829,0,0,1-.613-.258.849.849,0,0,1-.254-.617.862.862,0,0,1,.254-.621.823.823,0,0,1,.613-.262.845.845,0,0,1,.625.262.855.855,0,0,1,.258.621.842.842,0,0,1-.258.617A.851.851,0,0,1,72.752,117.172Zm9.7-5.82a11.005,11.005,0,0,1-.254,2.492,5.807,5.807,0,0,1-.734,1.832,3.305,3.305,0,0,1-1.18,1.133,3.23,3.23,0,0,1-1.59.387,3.016,3.016,0,0,1-1.5-.371,3.152,3.152,0,0,1-1.113-1.082A5.484,5.484,0,0,1,75.385,114a10.8,10.8,0,0,1-.234-2.371,12.222,12.222,0,0,1,.246-2.594,5.933,5.933,0,0,1,.723-1.887A3.217,3.217,0,0,1,77.3,106a3.323,3.323,0,0,1,1.621-.387Q82.447,105.609,82.447,111.352Zm-1.312.125q0-4.781-2.273-4.781-2.4,0-2.4,4.867,0,4.539,2.352,4.539Q81.135,116.1,81.135,111.477Zm9.938-.125a11.005,11.005,0,0,1-.254,2.492,5.807,5.807,0,0,1-.734,1.832,3.305,3.305,0,0,1-1.18,1.133,3.23,3.23,0,0,1-1.59.387,3.016,3.016,0,0,1-1.5-.371,3.152,3.152,0,0,1-1.113-1.082A5.484,5.484,0,0,1,84.01,114a10.8,10.8,0,0,1-.234-2.371,12.222,12.222,0,0,1,.246-2.594,5.933,5.933,0,0,1,.723-1.887A3.217,3.217,0,0,1,85.927,106a3.323,3.323,0,0,1,1.621-.387Q91.072,105.609,91.072,111.352Zm-1.312.125q0-4.781-2.273-4.781-2.4,0-2.4,4.867,0,4.539,2.352,4.539Q89.76,116.1,89.76,111.477Zm9.938-.125a11.005,11.005,0,0,1-.254,2.492,5.807,5.807,0,0,1-.734,1.832,3.305,3.305,0,0,1-1.18,1.133,3.23,3.23,0,0,1-1.59.387,3.016,3.016,0,0,1-1.5-.371,3.152,3.152,0,0,1-1.113-1.082A5.484,5.484,0,0,1,92.635,114a10.8,10.8,0,0,1-.234-2.371,12.222,12.222,0,0,1,.246-2.594,5.933,5.933,0,0,1,.723-1.887A3.217,3.217,0,0,1,94.552,106a3.323,3.323,0,0,1,1.621-.387Q99.7,105.609,99.7,111.352Zm-1.312.125q0-4.781-2.273-4.781-2.4,0-2.4,4.867,0,4.539,2.352,4.539Q98.385,116.1,98.385,111.477ZM49.947,166.938v1.7h-.812V167a4.9,4.9,0,0,1-2.7-.672v-1.359a3.661,3.661,0,0,0,1.238.668,4.528,4.528,0,0,0,1.465.27v-4a6.129,6.129,0,0,1-2.227-1.527,2.9,2.9,0,0,1,.266-3.609,3.2,3.2,0,0,1,1.961-.988v-1.406h.813v1.375a4.324,4.324,0,0,1,2.117.438v1.328a3.549,3.549,0,0,0-2.117-.672v4.125a6.64,6.64,0,0,1,2.223,1.5,2.51,2.51,0,0,1,.6,1.645,2.545,2.545,0,0,1-.746,1.863A3.624,3.624,0,0,1,49.947,166.938Zm-.812-6.406v-3.641a1.78,1.78,0,0,0-1.039.582,1.624,1.624,0,0,0-.383,1.09,1.826,1.826,0,0,0,.313,1.1A3.367,3.367,0,0,0,49.135,160.531Zm.813,1.781v3.531q1.508-.328,1.508-1.625Q51.455,163.141,49.947,162.313Zm11.8,1.133a4.15,4.15,0,0,1-.266,1.508,3.624,3.624,0,0,1-.734,1.188,3.281,3.281,0,0,1-1.117.777,3.538,3.538,0,0,1-1.406.277,3.1,3.1,0,0,1-2.645-1.363,4.853,4.853,0,0,1-.707-1.613,8.74,8.74,0,0,1-.242-2.148,10.1,10.1,0,0,1,.324-2.652,6.444,6.444,0,0,1,.922-2.039,4.25,4.25,0,0,1,1.441-1.309,3.862,3.862,0,0,1,1.883-.461,4.535,4.535,0,0,1,1.859.32v1.211a3.949,3.949,0,0,0-1.828-.445,2.724,2.724,0,0,0-1.352.336,3.1,3.1,0,0,0-1.031.949,4.63,4.63,0,0,0-.66,1.48,7.511,7.511,0,0,0-.23,1.93h.031a2.69,2.69,0,0,1,2.555-1.4,3.362,3.362,0,0,1,1.324.25,2.859,2.859,0,0,1,1.008.707,3.183,3.183,0,0,1,.645,1.09A4.148,4.148,0,0,1,61.744,163.445Zm-1.312.164a3.486,3.486,0,0,0-.148-1.055,2.288,2.288,0,0,0-.426-.8,1.836,1.836,0,0,0-.684-.5,2.3,2.3,0,0,0-.922-.176,2.158,2.158,0,0,0-.883.18,2.2,2.2,0,0,0-.7.488,2.286,2.286,0,0,0-.633,1.59,3.475,3.475,0,0,0,.164,1.082,2.8,2.8,0,0,0,.461.879,2.192,2.192,0,0,0,.707.59,1.931,1.931,0,0,0,.91.215,2.084,2.084,0,0,0,.883-.184,1.969,1.969,0,0,0,.68-.512,2.369,2.369,0,0,0,.438-.785A3.112,3.112,0,0,0,60.431,163.609Zm9.4.219a3.266,3.266,0,0,1-.285,1.379,3.044,3.044,0,0,1-.8,1.063,3.714,3.714,0,0,1-1.246.684,5.041,5.041,0,0,1-1.6.242,4.654,4.654,0,0,1-2.547-.609v-1.375a4.081,4.081,0,0,0,2.594.891A3.525,3.525,0,0,0,67,165.953a2.374,2.374,0,0,0,.813-.43,1.909,1.909,0,0,0,.523-.68,2.123,2.123,0,0,0,.184-.9q0-2.2-3.125-2.2h-.93v-1.086h.883q2.766,0,2.766-2.062,0-1.906-2.109-1.906a3.592,3.592,0,0,0-2.227.8V156.25a4.868,4.868,0,0,1,2.547-.641,3.914,3.914,0,0,1,1.273.2,2.918,2.918,0,0,1,.977.547,2.423,2.423,0,0,1,.629.844,2.6,2.6,0,0,1,.223,1.086,2.735,2.735,0,0,1-2.234,2.844v.031a3.534,3.534,0,0,1,1.055.277,2.814,2.814,0,0,1,.836.559,2.49,2.49,0,0,1,.551.809A2.582,2.582,0,0,1,69.83,163.828Zm2.922,3.344a.829.829,0,0,1-.613-.258.849.849,0,0,1-.254-.617.862.862,0,0,1,.254-.621.823.823,0,0,1,.613-.262.845.845,0,0,1,.625.262.855.855,0,0,1,.258.621.842.842,0,0,1-.258.617A.851.851,0,0,1,72.752,167.172Zm9.7-5.82a11.005,11.005,0,0,1-.254,2.492,5.807,5.807,0,0,1-.734,1.832,3.305,3.305,0,0,1-1.18,1.133,3.23,3.23,0,0,1-1.59.387,3.016,3.016,0,0,1-1.5-.371,3.152,3.152,0,0,1-1.113-1.082A5.484,5.484,0,0,1,75.385,164a10.8,10.8,0,0,1-.234-2.371,12.222,12.222,0,0,1,.246-2.594,5.933,5.933,0,0,1,.723-1.887A3.217,3.217,0,0,1,77.3,156a3.323,3.323,0,0,1,1.621-.387Q82.447,155.609,82.447,161.352Zm-1.312.125q0-4.781-2.273-4.781-2.4,0-2.4,4.867,0,4.539,2.352,4.539Q81.135,166.1,81.135,161.477Zm9.938-.125a11.005,11.005,0,0,1-.254,2.492,5.807,5.807,0,0,1-.734,1.832,3.305,3.305,0,0,1-1.18,1.133,3.23,3.23,0,0,1-1.59.387,3.016,3.016,0,0,1-1.5-.371,3.152,3.152,0,0,1-1.113-1.082A5.484,5.484,0,0,1,84.01,164a10.8,10.8,0,0,1-.234-2.371,12.222,12.222,0,0,1,.246-2.594,5.933,5.933,0,0,1,.723-1.887A3.217,3.217,0,0,1,85.927,156a3.323,3.323,0,0,1,1.621-.387Q91.072,155.609,91.072,161.352Zm-1.312.125q0-4.781-2.273-4.781-2.4,0-2.4,4.867,0,4.539,2.352,4.539Q89.76,166.1,89.76,161.477Zm9.938-.125a11.005,11.005,0,0,1-.254,2.492,5.807,5.807,0,0,1-.734,1.832,3.305,3.305,0,0,1-1.18,1.133,3.23,3.23,0,0,1-1.59.387,3.016,3.016,0,0,1-1.5-.371,3.152,3.152,0,0,1-1.113-1.082A5.484,5.484,0,0,1,92.635,164a10.8,10.8,0,0,1-.234-2.371,12.222,12.222,0,0,1,.246-2.594,5.933,5.933,0,0,1,.723-1.887A3.217,3.217,0,0,1,94.552,156a3.323,3.323,0,0,1,1.621-.387Q99.7,155.609,99.7,161.352Zm-1.312.125q0-4.781-2.273-4.781-2.4,0-2.4,4.867,0,4.539,2.352,4.539Q98.385,166.1,98.385,161.477Z" transform="translate(-9157.414 3915.323)" fill="#12263f"/>
    <path id="Trazado_1054735" data-name="Trazado 1054735" d="M41.322,16.938v1.7H40.51V17a4.9,4.9,0,0,1-2.7-.672V14.969a3.661,3.661,0,0,0,1.238.668,4.528,4.528,0,0,0,1.465.27v-4a6.129,6.129,0,0,1-2.227-1.527,2.736,2.736,0,0,1-.508-1.652,2.763,2.763,0,0,1,.773-1.957,3.2,3.2,0,0,1,1.961-.988V4.375h.813V5.75a4.324,4.324,0,0,1,2.117.438V7.516a3.549,3.549,0,0,0-2.117-.672v4.125a6.64,6.64,0,0,1,2.223,1.5,2.51,2.51,0,0,1,.6,1.645,2.545,2.545,0,0,1-.746,1.863A3.624,3.624,0,0,1,41.322,16.938Zm-.812-6.406V6.891a1.78,1.78,0,0,0-1.039.582,1.623,1.623,0,0,0-.383,1.09,1.826,1.826,0,0,0,.313,1.1A3.367,3.367,0,0,0,40.51,10.531Zm.813,1.781v3.531q1.508-.328,1.508-1.625Q42.83,13.141,41.322,12.313ZM52.7,13.578a3.771,3.771,0,0,1-.281,1.484,3.245,3.245,0,0,1-.8,1.141,3.586,3.586,0,0,1-1.254.734,4.9,4.9,0,0,1-1.633.258,4.511,4.511,0,0,1-2.32-.469V15.367a4.266,4.266,0,0,0,2.336.734,3.161,3.161,0,0,0,1.1-.18,2.439,2.439,0,0,0,.832-.5,2.141,2.141,0,0,0,.527-.773,2.618,2.618,0,0,0,.184-.992,2.125,2.125,0,0,0-.734-1.715,3.221,3.221,0,0,0-2.133-.621q-.227,0-.477.008t-.5.02q-.25.012-.488.027t-.434.039L47.01,5.8h5.18V6.953h-4.07l-.227,3.289q.25-.016.531-.027t.5-.012a5.028,5.028,0,0,1,1.594.234,3.377,3.377,0,0,1,1.191.668,2.8,2.8,0,0,1,.742,1.063A3.737,3.737,0,0,1,52.7,13.578Zm9.039-.133a4.15,4.15,0,0,1-.266,1.508,3.624,3.624,0,0,1-.734,1.188,3.281,3.281,0,0,1-1.117.777,3.538,3.538,0,0,1-1.406.277,3.1,3.1,0,0,1-2.645-1.363,4.853,4.853,0,0,1-.707-1.613,8.74,8.74,0,0,1-.242-2.148,10.1,10.1,0,0,1,.324-2.652,6.444,6.444,0,0,1,.922-2.039A4.25,4.25,0,0,1,57.314,6.07,3.862,3.862,0,0,1,59.2,5.609a4.535,4.535,0,0,1,1.859.32V7.141A3.949,3.949,0,0,0,59.228,6.7a2.724,2.724,0,0,0-1.352.336,3.1,3.1,0,0,0-1.031.949,4.63,4.63,0,0,0-.66,1.48,7.511,7.511,0,0,0-.23,1.93h.031a2.69,2.69,0,0,1,2.555-1.4,3.363,3.363,0,0,1,1.324.25,2.859,2.859,0,0,1,1.008.707,3.183,3.183,0,0,1,.645,1.09A4.148,4.148,0,0,1,61.744,13.445Zm-1.312.164a3.486,3.486,0,0,0-.148-1.055,2.288,2.288,0,0,0-.426-.8,1.836,1.836,0,0,0-.684-.5,2.3,2.3,0,0,0-.922-.176,2.158,2.158,0,0,0-.883.18,2.2,2.2,0,0,0-.7.488,2.286,2.286,0,0,0-.633,1.59,3.475,3.475,0,0,0,.164,1.082,2.8,2.8,0,0,0,.461.879,2.192,2.192,0,0,0,.707.59,1.931,1.931,0,0,0,.91.215,2.084,2.084,0,0,0,.883-.184,1.97,1.97,0,0,0,.68-.512,2.369,2.369,0,0,0,.438-.785A3.112,3.112,0,0,0,60.431,13.609Zm9.844-7.07q-.258.445-.621,1.109t-.77,1.492q-.406.828-.828,1.781t-.789,1.969q-.367,1.016-.645,2.059A15.315,15.315,0,0,0,66.22,17H64.845a15.579,15.579,0,0,1,.434-2.043q.293-1.043.664-2.047t.785-1.934q.414-.93.8-1.711t.715-1.379q.324-.6.52-.934H63.15V5.8h7.125Zm2.477,10.633a.829.829,0,0,1-.613-.258.849.849,0,0,1-.254-.617.862.862,0,0,1,.254-.621.823.823,0,0,1,.613-.262.845.845,0,0,1,.625.262.855.855,0,0,1,.258.621.842.842,0,0,1-.258.617A.851.851,0,0,1,72.752,17.172Zm9.7-5.82a11.005,11.005,0,0,1-.254,2.492,5.807,5.807,0,0,1-.734,1.832,3.305,3.305,0,0,1-1.18,1.133,3.23,3.23,0,0,1-1.59.387,3.016,3.016,0,0,1-1.5-.371,3.152,3.152,0,0,1-1.113-1.082A5.484,5.484,0,0,1,75.385,14a10.8,10.8,0,0,1-.234-2.371A12.222,12.222,0,0,1,75.4,9.031a5.933,5.933,0,0,1,.723-1.887A3.217,3.217,0,0,1,77.3,6a3.323,3.323,0,0,1,1.621-.387Q82.447,5.609,82.447,11.352Zm-1.312.125q0-4.781-2.273-4.781-2.4,0-2.4,4.867,0,4.539,2.352,4.539Q81.135,16.1,81.135,11.477Zm9.938-.125a11.005,11.005,0,0,1-.254,2.492,5.807,5.807,0,0,1-.734,1.832,3.305,3.305,0,0,1-1.18,1.133,3.23,3.23,0,0,1-1.59.387,3.016,3.016,0,0,1-1.5-.371A3.152,3.152,0,0,1,84.7,15.742,5.484,5.484,0,0,1,84.01,14a10.8,10.8,0,0,1-.234-2.371,12.222,12.222,0,0,1,.246-2.594,5.933,5.933,0,0,1,.723-1.887A3.217,3.217,0,0,1,85.927,6a3.323,3.323,0,0,1,1.621-.387Q91.072,5.609,91.072,11.352Zm-1.312.125q0-4.781-2.273-4.781-2.4,0-2.4,4.867,0,4.539,2.352,4.539Q89.76,16.1,89.76,11.477Zm9.938-.125a11.005,11.005,0,0,1-.254,2.492,5.807,5.807,0,0,1-.734,1.832,3.305,3.305,0,0,1-1.18,1.133,3.23,3.23,0,0,1-1.59.387,3.016,3.016,0,0,1-1.5-.371,3.152,3.152,0,0,1-1.113-1.082A5.484,5.484,0,0,1,92.635,14a10.8,10.8,0,0,1-.234-2.371,12.222,12.222,0,0,1,.246-2.594,5.933,5.933,0,0,1,.723-1.887A3.217,3.217,0,0,1,94.552,6a3.323,3.323,0,0,1,1.621-.387Q99.7,5.609,99.7,11.352Zm-1.312.125q0-4.781-2.273-4.781-2.4,0-2.4,4.867,0,4.539,2.352,4.539Q98.385,16.1,98.385,11.477Zm.961,51.57H95.08V62.039h4.266Z" transform="translate(-9157.414 4115.896)" fill="#12263f"/>
    <path id="Trazado_1054730" data-name="Trazado 1054730" d="M41.322,16.938v1.7H40.51V17a4.9,4.9,0,0,1-2.7-.672V14.969a3.661,3.661,0,0,0,1.238.668,4.528,4.528,0,0,0,1.465.27v-4a6.129,6.129,0,0,1-2.227-1.527,2.736,2.736,0,0,1-.508-1.652,2.763,2.763,0,0,1,.773-1.957,3.2,3.2,0,0,1,1.961-.988V4.375h.813V5.75a4.324,4.324,0,0,1,2.117.438V7.516a3.549,3.549,0,0,0-2.117-.672v4.125a6.64,6.64,0,0,1,2.223,1.5,2.51,2.51,0,0,1,.6,1.645,2.545,2.545,0,0,1-.746,1.863A3.624,3.624,0,0,1,41.322,16.938Zm-.812-6.406V6.891a1.78,1.78,0,0,0-1.039.582,1.623,1.623,0,0,0-.383,1.09,1.826,1.826,0,0,0,.313,1.1A3.367,3.367,0,0,0,40.51,10.531Zm.813,1.781v3.531q1.508-.328,1.508-1.625Q42.83,13.141,41.322,12.313ZM52.7,13.578a3.771,3.771,0,0,1-.281,1.484,3.245,3.245,0,0,1-.8,1.141,3.586,3.586,0,0,1-1.254.734,4.9,4.9,0,0,1-1.633.258,4.511,4.511,0,0,1-2.32-.469V15.367a4.266,4.266,0,0,0,2.336.734,3.161,3.161,0,0,0,1.1-.18,2.439,2.439,0,0,0,.832-.5,2.141,2.141,0,0,0,.527-.773,2.618,2.618,0,0,0,.184-.992,2.125,2.125,0,0,0-.734-1.715,3.221,3.221,0,0,0-2.133-.621q-.227,0-.477.008t-.5.02q-.25.012-.488.027t-.434.039L47.01,5.8h5.18V6.953h-4.07l-.227,3.289q.25-.016.531-.027t.5-.012a5.028,5.028,0,0,1,1.594.234,3.377,3.377,0,0,1,1.191.668,2.8,2.8,0,0,1,.742,1.063A3.737,3.737,0,0,1,52.7,13.578Zm9.039-.133a4.15,4.15,0,0,1-.266,1.508,3.624,3.624,0,0,1-.734,1.188,3.281,3.281,0,0,1-1.117.777,3.538,3.538,0,0,1-1.406.277,3.1,3.1,0,0,1-2.645-1.363,4.853,4.853,0,0,1-.707-1.613,8.74,8.74,0,0,1-.242-2.148,10.1,10.1,0,0,1,.324-2.652,6.444,6.444,0,0,1,.922-2.039A4.25,4.25,0,0,1,57.314,6.07,3.862,3.862,0,0,1,59.2,5.609a4.535,4.535,0,0,1,1.859.32V7.141A3.949,3.949,0,0,0,59.228,6.7a2.724,2.724,0,0,0-1.352.336,3.1,3.1,0,0,0-1.031.949,4.63,4.63,0,0,0-.66,1.48,7.511,7.511,0,0,0-.23,1.93h.031a2.69,2.69,0,0,1,2.555-1.4,3.363,3.363,0,0,1,1.324.25,2.859,2.859,0,0,1,1.008.707,3.183,3.183,0,0,1,.645,1.09A4.148,4.148,0,0,1,61.744,13.445Zm-1.312.164a3.486,3.486,0,0,0-.148-1.055,2.288,2.288,0,0,0-.426-.8,1.836,1.836,0,0,0-.684-.5,2.3,2.3,0,0,0-.922-.176,2.158,2.158,0,0,0-.883.18,2.2,2.2,0,0,0-.7.488,2.286,2.286,0,0,0-.633,1.59,3.475,3.475,0,0,0,.164,1.082,2.8,2.8,0,0,0,.461.879,2.192,2.192,0,0,0,.707.59,1.931,1.931,0,0,0,.91.215,2.084,2.084,0,0,0,.883-.184,1.97,1.97,0,0,0,.68-.512,2.369,2.369,0,0,0,.438-.785A3.112,3.112,0,0,0,60.431,13.609Zm9.844-7.07q-.258.445-.621,1.109t-.77,1.492q-.406.828-.828,1.781t-.789,1.969q-.367,1.016-.645,2.059A15.315,15.315,0,0,0,66.22,17H64.845a15.579,15.579,0,0,1,.434-2.043q.293-1.043.664-2.047t.785-1.934q.414-.93.8-1.711t.715-1.379q.324-.6.52-.934H63.15V5.8h7.125Zm2.477,10.633a.829.829,0,0,1-.613-.258.849.849,0,0,1-.254-.617.862.862,0,0,1,.254-.621.823.823,0,0,1,.613-.262.845.845,0,0,1,.625.262.855.855,0,0,1,.258.621.842.842,0,0,1-.258.617A.851.851,0,0,1,72.752,17.172Zm9.7-5.82a11.005,11.005,0,0,1-.254,2.492,5.807,5.807,0,0,1-.734,1.832,3.305,3.305,0,0,1-1.18,1.133,3.23,3.23,0,0,1-1.59.387,3.016,3.016,0,0,1-1.5-.371,3.152,3.152,0,0,1-1.113-1.082A5.484,5.484,0,0,1,75.385,14a10.8,10.8,0,0,1-.234-2.371A12.222,12.222,0,0,1,75.4,9.031a5.933,5.933,0,0,1,.723-1.887A3.217,3.217,0,0,1,77.3,6a3.323,3.323,0,0,1,1.621-.387Q82.447,5.609,82.447,11.352Zm-1.312.125q0-4.781-2.273-4.781-2.4,0-2.4,4.867,0,4.539,2.352,4.539Q81.135,16.1,81.135,11.477Zm9.938-.125a11.005,11.005,0,0,1-.254,2.492,5.807,5.807,0,0,1-.734,1.832,3.305,3.305,0,0,1-1.18,1.133,3.23,3.23,0,0,1-1.59.387,3.016,3.016,0,0,1-1.5-.371A3.152,3.152,0,0,1,84.7,15.742,5.484,5.484,0,0,1,84.01,14a10.8,10.8,0,0,1-.234-2.371,12.222,12.222,0,0,1,.246-2.594,5.933,5.933,0,0,1,.723-1.887A3.217,3.217,0,0,1,85.927,6a3.323,3.323,0,0,1,1.621-.387Q91.072,5.609,91.072,11.352Zm-1.312.125q0-4.781-2.273-4.781-2.4,0-2.4,4.867,0,4.539,2.352,4.539Q89.76,16.1,89.76,11.477Zm9.938-.125a11.005,11.005,0,0,1-.254,2.492,5.807,5.807,0,0,1-.734,1.832,3.305,3.305,0,0,1-1.18,1.133,3.23,3.23,0,0,1-1.59.387,3.016,3.016,0,0,1-1.5-.371,3.152,3.152,0,0,1-1.113-1.082A5.484,5.484,0,0,1,92.635,14a10.8,10.8,0,0,1-.234-2.371,12.222,12.222,0,0,1,.246-2.594,5.933,5.933,0,0,1,.723-1.887A3.217,3.217,0,0,1,94.552,6a3.323,3.323,0,0,1,1.621-.387Q99.7,5.609,99.7,11.352Zm-1.312.125q0-4.781-2.273-4.781-2.4,0-2.4,4.867,0,4.539,2.352,4.539Q98.385,16.1,98.385,11.477Z" transform="translate(-9157.414 4218.845)" fill="#12263f"/>
    <path id="Trazado_1054752" data-name="Trazado 1054752" d="M0,0H796.1V57.952H0Z" transform="translate(-9832.147 3839.477)" fill="#f89828"/>
    <g id="Trazado_1054758" data-name="Trazado 1054758" transform="translate(-9832 3708.893)" fill="#f6f6f6">
      <path d="M 795.59765625 130.0839996337891 L 0.500028133392334 130.0839996337891 L 0.500028133392334 0.4999921917915344 L 795.59765625 0.4999921917915344 L 795.59765625 130.0839996337891 Z" stroke="none"/>
      <path d="M 1 0.9999847412109375 L 1 129.5839996337891 L 795.09765625 129.5839996337891 L 795.09765625 0.9999847412109375 L 1 0.9999847412109375 M 0 -1.52587890625e-05 L 796.09765625 -1.52587890625e-05 L 796.09765625 130.5839996337891 L 0 130.5839996337891 L 0 -1.52587890625e-05 Z" stroke="none" fill="#e1e1e1"/>
    </g>
    <path id="Trazado_1054746" data-name="Trazado 1054746" d="M0,0V413.622" transform="translate(-9694.672 3839.5)" fill="none" stroke="#e1e1e1" stroke-width="1"/>
    <path id="Trazado_1054736" data-name="Trazado 1054736" d="M0,0V413.432" transform="translate(-9534.388 3839.5)" fill="none" stroke="#e1e1e1" stroke-width="1"/>
    <path id="Trazado_1054731" data-name="Trazado 1054731" d="M0,0V412.724" transform="translate(-9367.399 3839.5)" fill="none" stroke="#e1e1e1" stroke-width="1"/>
    <path id="Trazado_1054728" data-name="Trazado 1054728" d="M0,0V413.572" transform="translate(-9194.334 3839.5)" fill="none" stroke="#e1e1e1" stroke-width="1"/>
    <path id="Trazado_1054756" data-name="Trazado 1054756" d="M9.41,16.6a7.388,7.388,0,0,1-3.2.594A5.4,5.4,0,0,1,2.152,15.68,5.54,5.54,0,0,1,.676,11.641a5.919,5.919,0,0,1,1.66-4.359A5.807,5.807,0,0,1,6.645,5.609a8.058,8.058,0,0,1,2.766.414v2.43a4.9,4.9,0,0,0-2.562-.672A3.4,3.4,0,0,0,4.3,8.773a3.682,3.682,0,0,0-.969,2.688,3.611,3.611,0,0,0,.914,2.59,3.229,3.229,0,0,0,2.461.965,5.249,5.249,0,0,0,2.7-.719ZM15.9,17.2a5.215,5.215,0,0,1-3.922-1.566,5.624,5.624,0,0,1-1.516-4.082A6.026,6.026,0,0,1,12,7.25a5.328,5.328,0,0,1,4.078-1.641,5.085,5.085,0,0,1,3.879,1.57,5.79,5.79,0,0,1,1.48,4.141,5.929,5.929,0,0,1-1.535,4.258A5.269,5.269,0,0,1,15.9,17.2Zm.109-9.414a2.54,2.54,0,0,0-2.109,1,4.153,4.153,0,0,0-.781,2.637,4.077,4.077,0,0,0,.781,2.633,2.5,2.5,0,0,0,2.047.969,2.528,2.528,0,0,0,2.07-.941,4.032,4.032,0,0,0,.766-2.613,4.369,4.369,0,0,0-.742-2.711A2.42,2.42,0,0,0,16.012,7.781ZM33.379,17H30.832L26.215,9.961a10.179,10.179,0,0,1-.562-.93h-.031q.062.594.063,1.813V17H23.3V5.8H26.02l4.445,6.82q.3.461.563.914h.031A11.978,11.978,0,0,1,31,11.992V5.8h2.383Zm10.594-.4a7.388,7.388,0,0,1-3.2.594,5.4,5.4,0,0,1-4.055-1.516,5.54,5.54,0,0,1-1.477-4.039A5.919,5.919,0,0,1,36.9,7.281a5.807,5.807,0,0,1,4.309-1.672,8.058,8.058,0,0,1,2.766.414v2.43a4.9,4.9,0,0,0-2.562-.672,3.4,3.4,0,0,0-2.547.992,3.682,3.682,0,0,0-.969,2.688,3.611,3.611,0,0,0,.914,2.59,3.229,3.229,0,0,0,2.461.965,5.249,5.249,0,0,0,2.7-.719Zm8.672.4H45.926V5.8h6.461V7.852H48.449v2.492h3.664v2.047H48.449v2.563h4.2Zm4.32-3.859V17H54.441V5.8h3.953q4.234,0,4.234,3.57a3.426,3.426,0,0,1-1.215,2.73,4.813,4.813,0,0,1-3.246,1.043Zm0-5.406v3.492h.992q2.016,0,2.016-1.766,0-1.727-2.016-1.727Zm15.172.117h-3.2V17H66.41V7.852H63.23V5.8h8.906ZM77.785,17.2a5.215,5.215,0,0,1-3.922-1.566,5.624,5.624,0,0,1-1.516-4.082,6.026,6.026,0,0,1,1.539-4.3,5.328,5.328,0,0,1,4.078-1.641,5.085,5.085,0,0,1,3.879,1.57,5.79,5.79,0,0,1,1.48,4.141,5.929,5.929,0,0,1-1.535,4.258A5.269,5.269,0,0,1,77.785,17.2Zm.109-9.414a2.54,2.54,0,0,0-2.109,1A4.153,4.153,0,0,0,75,11.414a4.077,4.077,0,0,0,.781,2.633,2.7,2.7,0,0,0,4.117.027,4.032,4.032,0,0,0,.766-2.613,4.369,4.369,0,0,0-.742-2.711A2.42,2.42,0,0,0,77.895,7.781Z" transform="translate(-9806.008 3858.477)" fill="#12263f"/>
    <path id="Trazado_1054766" data-name="Trazado 1054766" d="M7.953,17H1.281V5.8H3.8v9.156H7.953Zm11.711,0h-2.75l-.8-2.492H12.133L11.344,17H8.609L12.688,5.8H15.68Zm-4.125-4.43L14.336,8.8A4.907,4.907,0,0,1,14.148,7.8h-.062a4.273,4.273,0,0,1-.2.977l-1.219,3.8ZM28,13.141V17H25.477V5.8H29.43q4.234,0,4.234,3.57a3.426,3.426,0,0,1-1.215,2.73A4.813,4.813,0,0,1,29.2,13.141Zm0-5.406v3.492h.992q2.016,0,2.016-1.766,0-1.727-2.016-1.727ZM41.977,17H35.3V5.8h2.523v9.156h4.148Zm11.711,0h-2.75l-.8-2.492H46.156L45.367,17H42.633L46.711,5.8H49.7Zm-4.125-4.43L48.359,8.8A4.907,4.907,0,0,1,48.172,7.8h-.062a4.273,4.273,0,0,1-.2.977L46.7,12.57ZM62.875,16.6a7.388,7.388,0,0,1-3.2.594,5.4,5.4,0,0,1-4.055-1.516,5.54,5.54,0,0,1-1.477-4.039A5.919,5.919,0,0,1,55.8,7.281a5.807,5.807,0,0,1,4.309-1.672,8.058,8.058,0,0,1,2.766.414v2.43a4.9,4.9,0,0,0-2.562-.672,3.4,3.4,0,0,0-2.547.992,3.682,3.682,0,0,0-.969,2.688,3.611,3.611,0,0,0,.914,2.59,3.229,3.229,0,0,0,2.461.965,5.249,5.249,0,0,0,2.7-.719Zm4.477.4H64.828V5.8h2.523ZM77.766,7.852h-3.2V17H72.039V7.852h-3.18V5.8h8.906ZM88.008,17h-2.75l-.8-2.492H80.477L79.688,17H76.953L81.031,5.8h2.992Zm-4.125-4.43L82.68,8.8A4.908,4.908,0,0,1,82.492,7.8H82.43a4.273,4.273,0,0,1-.2.977l-1.219,3.8ZM11.359,42H8.813L4.2,34.961a10.179,10.179,0,0,1-.562-.93H3.6q.062.594.063,1.813V42H1.281V30.8H4l4.445,6.82q.3.461.563.914h.031a11.978,11.978,0,0,1-.062-1.539V30.8h2.383Zm5.086,0H13.922V30.8h2.523Zm10.414-9.148h-3.2V42H21.133V32.852h-3.18V30.8h8.906ZM38,30.547V42H35.539V33.328a2.947,2.947,0,0,1-.48.34,4.96,4.96,0,0,1-.59.289,5.267,5.267,0,0,1-.648.219,4.737,4.737,0,0,1-.664.129V32.227a10.435,10.435,0,0,0,3.352-1.68ZM45.242,42.2q-4,0-4-5.617a7.643,7.643,0,0,1,1.082-4.441,3.605,3.605,0,0,1,3.137-1.527q3.906,0,3.906,5.711A7.526,7.526,0,0,1,48.3,40.68,3.513,3.513,0,0,1,45.242,42.2Zm.109-9.7q-1.6,0-1.6,4.023,0,3.789,1.57,3.789,1.531,0,1.531-3.906T45.352,32.492Zm9.094,9.7q-4,0-4-5.617a7.643,7.643,0,0,1,1.082-4.441,3.605,3.605,0,0,1,3.137-1.527q3.906,0,3.906,5.711A7.526,7.526,0,0,1,57.5,40.68,3.513,3.513,0,0,1,54.445,42.2Zm.109-9.7q-1.6,0-1.6,4.023,0,3.789,1.57,3.789,1.531,0,1.531-3.906T54.555,32.492Zm9.094,9.7q-4,0-4-5.617a7.643,7.643,0,0,1,1.082-4.441,3.605,3.605,0,0,1,3.137-1.527q3.906,0,3.906,5.711a7.526,7.526,0,0,1-1.066,4.359A3.513,3.513,0,0,1,63.648,42.2Zm.109-9.7q-1.6,0-1.6,4.023,0,3.789,1.57,3.789,1.531,0,1.531-3.906T63.758,32.492Zm5.469,9.141V39.484a4.336,4.336,0,0,0,2.625.82,2.363,2.363,0,0,0,1.473-.406,1.349,1.349,0,0,0,.527-1.133,1.288,1.288,0,0,0-.652-1.156,3.38,3.38,0,0,0-1.793-.406H70.367V35.313h.961q2.188,0,2.188-1.453,0-1.367-1.68-1.367a3.829,3.829,0,0,0-2.187.727V31.2a6.042,6.042,0,0,1,2.75-.594,4.15,4.15,0,0,1,2.676.773,2.461,2.461,0,0,1,.957,2.008,2.611,2.611,0,0,1-2.227,2.75v.039a3.027,3.027,0,0,1,1.875.863,2.434,2.434,0,0,1,.688,1.754,3.006,3.006,0,0,1-1.148,2.484,4.965,4.965,0,0,1-3.172.914A6.13,6.13,0,0,1,69.227,41.633Zm16.961-3.359A4.107,4.107,0,0,1,85.9,39.82a3.776,3.776,0,0,1-.8,1.246,3.723,3.723,0,0,1-1.227.828,4.208,4.208,0,0,1-3.246-.051,3.414,3.414,0,0,1-1.262-1.02,4.767,4.767,0,0,1-.789-1.637,8.089,8.089,0,0,1-.273-2.2,9.039,9.039,0,0,1,.355-2.621,6.018,6.018,0,0,1,1.016-2.012,4.562,4.562,0,0,1,1.6-1.293,4.751,4.751,0,0,1,2.109-.457,5.32,5.32,0,0,1,2.016.3v2.063a3.7,3.7,0,0,0-1.859-.484,2.6,2.6,0,0,0-1.133.242,2.5,2.5,0,0,0-.871.688,3.324,3.324,0,0,0-.57,1.074,4.781,4.781,0,0,0-.223,1.4h.047a2.717,2.717,0,0,1,2.352-1.1,3.064,3.064,0,0,1,1.258.25,2.729,2.729,0,0,1,.961.707,3.243,3.243,0,0,1,.617,1.1A4.379,4.379,0,0,1,86.188,38.273Zm-2.414.156q0-1.8-1.477-1.8a1.449,1.449,0,0,0-.609.125,1.356,1.356,0,0,0-.469.352,1.6,1.6,0,0,0-.3.535,2.1,2.1,0,0,0-.105.684,2.644,2.644,0,0,0,.109.773,2.054,2.054,0,0,0,.309.629,1.528,1.528,0,0,0,.473.426,1.206,1.206,0,0,0,.609.156,1.319,1.319,0,0,0,.605-.137,1.356,1.356,0,0,0,.461-.383,1.76,1.76,0,0,0,.293-.594A2.708,2.708,0,0,0,83.773,38.43Zm4.055,3.281V39.6a4.605,4.605,0,0,0,2.445.7A2.3,2.3,0,0,0,91.8,39.84a1.565,1.565,0,0,0,.551-1.262q0-1.664-2.352-1.664a17.413,17.413,0,0,0-2,.133l.422-6.25h5.93v2.016H90.3l-.156,2.242q.6-.047,1.039-.047a3.821,3.821,0,0,1,2.7.906,3.165,3.165,0,0,1,.977,2.438,3.6,3.6,0,0,1-1.164,2.77A4.473,4.473,0,0,1,90.547,42.2,6.754,6.754,0,0,1,87.828,41.711Z" transform="translate(-9806.008 3713)" fill="#12263f"/>
    <path id="Trazado_1054763" data-name="Trazado 1054763" d="M10.68,17h-2.9L6.039,14.117q-.2-.328-.375-.586A3.255,3.255,0,0,0,5.3,13.09a1.445,1.445,0,0,0-.383-.281.972.972,0,0,0-.434-.1H3.8V17H1.281V5.8h4q4.078,0,4.078,3.047a3.155,3.155,0,0,1-.18,1.082,3.006,3.006,0,0,1-.508.895,3.219,3.219,0,0,1-.793.688,4.089,4.089,0,0,1-1.035.453v.031a1.606,1.606,0,0,1,.484.254,3.469,3.469,0,0,1,.453.41,5.722,5.722,0,0,1,.418.5q.2.27.363.527ZM3.8,7.688V10.8H4.9a1.813,1.813,0,0,0,1.3-.469,1.564,1.564,0,0,0,.5-1.18q0-1.469-1.758-1.469ZM21.8,17H19.258L14.641,9.961a10.179,10.179,0,0,1-.562-.93h-.031q.063.594.063,1.813V17H11.727V5.8h2.719l4.445,6.82q.3.461.563.914h.031a11.978,11.978,0,0,1-.062-1.539V5.8H21.8Zm5.086,0H24.367V5.8h2.523Z" transform="translate(-9522.008 3739.333)" fill="#12263f"/>
    <path id="Trazado_1054760" data-name="Trazado 1054760" d="M7.758,7.852H3.8V10.6H7.438v2.047H3.8V17H1.281V5.8H7.758ZM19,17H16.1l-1.742-2.883q-.2-.328-.375-.586a3.255,3.255,0,0,0-.363-.441,1.445,1.445,0,0,0-.383-.281.972.972,0,0,0-.434-.1h-.68V17H9.6V5.8h4q4.078,0,4.078,3.047a3.155,3.155,0,0,1-.18,1.082,3.006,3.006,0,0,1-.508.895,3.219,3.219,0,0,1-.793.688,4.089,4.089,0,0,1-1.035.453v.031a1.606,1.606,0,0,1,.484.254,3.468,3.468,0,0,1,.453.41,5.722,5.722,0,0,1,.418.5q.2.27.363.527ZM12.125,7.688V10.8h1.094a1.813,1.813,0,0,0,1.3-.469,1.564,1.564,0,0,0,.5-1.18q0-1.469-1.758-1.469ZM29.9,17h-2.75l-.8-2.492H22.367L21.578,17H18.844L22.922,5.8h2.992Zm-4.125-4.43L24.57,8.8A4.907,4.907,0,0,1,24.383,7.8H24.32a4.273,4.273,0,0,1-.2.977l-1.219,3.8ZM35.711,17V5.8H39.68q5.969,0,5.969,5.461a5.522,5.522,0,0,1-1.629,4.18A6.007,6.007,0,0,1,39.68,17Zm2.523-9.148v7.1h1.25a3.378,3.378,0,0,0,2.574-.984,3.735,3.735,0,0,0,.934-2.68,3.388,3.388,0,0,0-.926-2.52,3.529,3.529,0,0,0-2.6-.918ZM54.227,17H47.508V5.8h6.461V7.852H50.031v2.492H53.7v2.047H50.031v2.563h4.2ZM69.766,5.8,65.906,17H63.047L59.234,5.8h2.719l2.336,7.8a5.584,5.584,0,0,1,.227,1.117h.047a6.315,6.315,0,0,1,.242-1.148L67.125,5.8ZM77.828,17H71.109V5.8H77.57V7.852H73.633v2.492H77.3v2.047H73.633v2.563h4.2ZM89.7,17H87.156L82.539,9.961a10.178,10.178,0,0,1-.562-.93h-.031q.062.594.063,1.813V17H79.625V5.8h2.719l4.445,6.82q.3.461.563.914h.031a11.979,11.979,0,0,1-.062-1.539V5.8H89.7Zm10.43-9.148h-3.2V17H94.406V7.852h-3.18V5.8h8.906ZM110.375,17h-2.75l-.8-2.492h-3.984L102.055,17H99.32L103.4,5.8h2.992Zm-4.125-4.43-1.2-3.766a4.908,4.908,0,0,1-.187-1.008H104.8a4.273,4.273,0,0,1-.2.977l-1.219,3.8ZM7.758,32.852H3.8V35.6H7.438v2.047H3.8V42H1.281V30.8H7.758ZM16.32,42H9.6V30.8h6.461v2.055H12.125v2.492h3.664v2.047H12.125v2.563h4.2Zm9.828-.4a7.388,7.388,0,0,1-3.2.594,5.4,5.4,0,0,1-4.055-1.516,5.54,5.54,0,0,1-1.477-4.039,5.919,5.919,0,0,1,1.66-4.359,5.807,5.807,0,0,1,4.309-1.672,8.058,8.058,0,0,1,2.766.414v2.43a4.9,4.9,0,0,0-2.562-.672,3.4,3.4,0,0,0-2.547.992,3.682,3.682,0,0,0-.969,2.688,3.611,3.611,0,0,0,.914,2.59,3.229,3.229,0,0,0,2.461.965,5.249,5.249,0,0,0,2.7-.719ZM37.8,42H35.266V37.438H30.625V42H28.1V30.8h2.523v4.469h4.641V30.8H37.8Zm12.414,0h-2.75l-.8-2.492H42.68L41.891,42H39.156l4.078-11.2h2.992Zm-4.125-4.43-1.2-3.766A4.907,4.907,0,0,1,44.7,32.8h-.062a4.273,4.273,0,0,1-.2.977l-1.219,3.8ZM8,67H1.281V55.8H7.742v2.055H3.8v2.492H7.469v2.047H3.8v2.563H8Zm14.563,0H20.07V60.3q0-1.086.094-2.4H20.1a11.8,11.8,0,0,1-.352,1.484L17.125,67H15.063l-2.672-7.539a14.67,14.67,0,0,1-.352-1.562h-.07q.1,1.656.1,2.906V67H9.8V55.8h3.7l2.289,6.641a9.35,9.35,0,0,1,.4,1.6h.047a16.127,16.127,0,0,1,.445-1.617L18.961,55.8h3.6Zm5.07,0H25.109V55.8h2.523Zm2.031-.43v-2.5a4.8,4.8,0,0,0,1.477.855,4.746,4.746,0,0,0,1.609.285,3.569,3.569,0,0,0,.832-.086,1.949,1.949,0,0,0,.594-.238,1.039,1.039,0,0,0,.355-.359.9.9,0,0,0,.117-.449.971.971,0,0,0-.187-.586,2.018,2.018,0,0,0-.512-.477,5.347,5.347,0,0,0-.77-.422q-.445-.2-.961-.414a4.9,4.9,0,0,1-1.957-1.336,2.917,2.917,0,0,1-.645-1.906,3.036,3.036,0,0,1,.352-1.5,2.986,2.986,0,0,1,.957-1.035,4.291,4.291,0,0,1,1.4-.6,7.206,7.206,0,0,1,1.688-.191,10.15,10.15,0,0,1,1.551.105,6.1,6.1,0,0,1,1.246.324v2.336a3.768,3.768,0,0,0-.613-.344,4.859,4.859,0,0,0-.684-.246,5.214,5.214,0,0,0-.7-.145,4.949,4.949,0,0,0-.66-.047,3.443,3.443,0,0,0-.781.082,2,2,0,0,0-.594.23,1.147,1.147,0,0,0-.375.355.843.843,0,0,0-.133.465.888.888,0,0,0,.148.5,1.7,1.7,0,0,0,.422.422,4.477,4.477,0,0,0,.664.391q.391.191.883.395a9.837,9.837,0,0,1,1.207.6,4.291,4.291,0,0,1,.918.715,2.785,2.785,0,0,1,.586.91,3.634,3.634,0,0,1-.152,2.766,2.886,2.886,0,0,1-.965,1.031,4.184,4.184,0,0,1-1.418.566,8.2,8.2,0,0,1-1.707.172,9.492,9.492,0,0,1-1.754-.156A5.294,5.294,0,0,1,29.664,66.57ZM41.672,67H39.148V55.8h2.523Zm7.281.2a5.215,5.215,0,0,1-3.922-1.566,5.624,5.624,0,0,1-1.516-4.082,6.026,6.026,0,0,1,1.539-4.3,5.328,5.328,0,0,1,4.078-1.641,5.085,5.085,0,0,1,3.879,1.57,5.789,5.789,0,0,1,1.48,4.141,5.929,5.929,0,0,1-1.535,4.258A5.269,5.269,0,0,1,48.953,67.2Zm.109-9.414a2.54,2.54,0,0,0-2.109,1,4.153,4.153,0,0,0-.781,2.637,4.077,4.077,0,0,0,.781,2.633A2.5,2.5,0,0,0,49,65.016a2.528,2.528,0,0,0,2.07-.941,4.032,4.032,0,0,0,.766-2.613,4.369,4.369,0,0,0-.742-2.711A2.42,2.42,0,0,0,49.063,57.781Zm2.547-5.547-2.445,2.523H47.383l2.031-2.523ZM66.422,67H63.875l-4.617-7.039a10.18,10.18,0,0,1-.562-.93h-.031q.063.594.063,1.813V67H56.344V55.8h2.719l4.445,6.82q.3.461.563.914H64.1a11.979,11.979,0,0,1-.062-1.539V55.8h2.383Z" transform="translate(-9333.83 3714)" fill="#12263f"/>
    <path id="Trazado_1054759" data-name="Trazado 1054759" d="M75.9,13.141V17H73.38V5.8h3.953q4.234,0,4.234,3.57a3.426,3.426,0,0,1-1.215,2.73,4.813,4.813,0,0,1-3.246,1.043Zm0-5.406v3.492H76.9q2.016,0,2.016-1.766,0-1.727-2.016-1.727ZM92.115,17h-2.75l-.8-2.492H84.583L83.794,17H81.06L85.138,5.8H88.13ZM87.99,12.57,86.787,8.8A4.908,4.908,0,0,1,86.6,7.8h-.062a4.273,4.273,0,0,1-.2.977l-1.219,3.8ZM93.513,17V5.8h4.078a5.093,5.093,0,0,1,2.883.688,2.211,2.211,0,0,1,1.008,1.938,2.293,2.293,0,0,1-.613,1.586,3.222,3.222,0,0,1-1.566.945v.031a3.1,3.1,0,0,1,1.91.883,2.469,2.469,0,0,1,.715,1.789,2.99,2.99,0,0,1-1.1,2.441,4.61,4.61,0,0,1-3.008.9Zm2.523-9.344v2.656h1.109a1.849,1.849,0,0,0,1.23-.379,1.291,1.291,0,0,0,.449-1.043q0-1.234-1.844-1.234Zm0,4.531v2.953H97.4a2.1,2.1,0,0,0,1.371-.406,1.357,1.357,0,0,0,.5-1.109,1.266,1.266,0,0,0-.488-1.055,2.16,2.16,0,0,0-1.363-.383ZM110.443,17h-6.672V5.8h2.523v9.156h4.148Zm5.844.2a5.215,5.215,0,0,1-3.922-1.566,5.624,5.624,0,0,1-1.516-4.082,6.026,6.026,0,0,1,1.539-4.3,5.328,5.328,0,0,1,4.078-1.641,5.085,5.085,0,0,1,3.879,1.57,5.79,5.79,0,0,1,1.48,4.141,5.929,5.929,0,0,1-1.535,4.258A5.269,5.269,0,0,1,116.287,17.2Zm.109-9.414a2.54,2.54,0,0,0-2.109,1,4.153,4.153,0,0,0-.781,2.637,4.077,4.077,0,0,0,.781,2.633,2.7,2.7,0,0,0,4.117.027,4.032,4.032,0,0,0,.766-2.613,4.369,4.369,0,0,0-.742-2.711A2.42,2.42,0,0,0,116.4,7.781ZM128.1,17V5.8h3.969q5.969,0,5.969,5.461a5.522,5.522,0,0,1-1.629,4.18A6.007,6.007,0,0,1,132.068,17Zm2.523-9.148v7.1h1.25a3.378,3.378,0,0,0,2.574-.984,3.735,3.735,0,0,0,.934-2.68,3.388,3.388,0,0,0-.926-2.52,3.529,3.529,0,0,0-2.6-.918ZM142.419,17H139.9V5.8h2.523Zm12.4,0h-2.75l-.8-2.492h-3.984L146.5,17h-2.734l4.078-11.2h2.992Zm-4.125-4.43L149.49,8.8A4.906,4.906,0,0,1,149.3,7.8h-.062a4.273,4.273,0,0,1-.2.977l-1.219,3.8ZM164.458,17h-9.023V15.547l5.742-7.7h-5.328V5.8h8.594V7.211l-5.617,7.742h5.633ZM48.263,42H41.544V30.8h6.461v2.055H44.068v2.492h3.664v2.047H44.068v2.563h4.2Zm14.563,0H60.333V35.3q0-1.086.094-2.4h-.062a11.8,11.8,0,0,1-.352,1.484L57.388,42H55.326l-2.672-7.539A14.67,14.67,0,0,1,52.3,32.9h-.07q.1,1.656.1,2.906V42H50.06V30.8h3.7l2.289,6.641a9.35,9.35,0,0,1,.4,1.6h.047a16.127,16.127,0,0,1,.445-1.617L59.224,30.8h3.6Zm5.07-3.859V42H65.373V30.8h3.953q4.234,0,4.234,3.57a3.426,3.426,0,0,1-1.215,2.73A4.813,4.813,0,0,1,69.1,38.141Zm0-5.406v3.492h.992q2.016,0,2.016-1.766,0-1.727-2.016-1.727ZM84.107,42h-2.75l-.8-2.492H76.576L75.787,42H73.052L77.13,30.8h2.992Zm-4.125-4.43-1.2-3.766a4.908,4.908,0,0,1-.187-1.008h-.062a4.273,4.273,0,0,1-.2.977l-1.219,3.8ZM95.583,42H93.037l-4.617-7.039a10.178,10.178,0,0,1-.562-.93h-.031q.062.594.063,1.813V42H85.505V30.8h2.719l4.445,6.82q.3.461.563.914h.031a11.979,11.979,0,0,1-.062-1.539V30.8h2.383ZM108,42h-2.75l-.8-2.492h-3.984L99.677,42H96.943l4.078-11.2h2.992Zm-4.125-4.43-1.2-3.766a4.908,4.908,0,0,1-.187-1.008h-.062a4.273,4.273,0,0,1-.2.977l-1.219,3.8ZM109.4,42V30.8h3.969q5.969,0,5.969,5.461a5.522,5.522,0,0,1-1.629,4.18A6.007,6.007,0,0,1,113.365,42Zm2.523-9.148v7.1h1.25a3.378,3.378,0,0,0,2.574-.984,3.735,3.735,0,0,0,.934-2.68,3.388,3.388,0,0,0-.926-2.52,3.529,3.529,0,0,0-2.6-.918ZM130.8,42h-2.75l-.8-2.492h-3.984L122.482,42h-2.734l4.078-11.2h2.992Zm-4.125-4.43-1.2-3.766a4.908,4.908,0,0,1-.187-1.008h-.062a4.273,4.273,0,0,1-.2.977l-1.219,3.8ZM140.443,42h-9.023V40.547l5.742-7.7h-5.328V30.8h8.594v1.414l-5.617,7.742h5.633Zm6.383.2a5.215,5.215,0,0,1-3.922-1.566,5.624,5.624,0,0,1-1.516-4.082,6.026,6.026,0,0,1,1.539-4.3,5.328,5.328,0,0,1,4.078-1.641,5.085,5.085,0,0,1,3.879,1.57,5.789,5.789,0,0,1,1.48,4.141,5.929,5.929,0,0,1-1.535,4.258A5.269,5.269,0,0,1,146.826,42.2Zm.109-9.414a2.54,2.54,0,0,0-2.109,1,4.153,4.153,0,0,0-.781,2.637,4.077,4.077,0,0,0,.781,2.633,2.7,2.7,0,0,0,4.117.027,4.032,4.032,0,0,0,.766-2.613,4.369,4.369,0,0,0-.742-2.711A2.42,2.42,0,0,0,146.935,32.781ZM165.31,42h-6.672V30.8h2.523v9.156h4.148Zm8.32-9.148h-3.2V42H167.9V32.852h-3.18V30.8h8.906ZM175.138,42V30.8h3.969q5.969,0,5.969,5.461a5.522,5.522,0,0,1-1.629,4.18A6.007,6.007,0,0,1,179.107,42Zm2.523-9.148v7.1h1.25a3.378,3.378,0,0,0,2.574-.984,3.735,3.735,0,0,0,.934-2.68,3.388,3.388,0,0,0-.926-2.52,3.529,3.529,0,0,0-2.6-.918ZM196.544,42h-2.75l-.8-2.492h-3.984L188.224,42H185.49l4.078-11.2h2.992Zm-4.125-4.43-1.2-3.766a4.906,4.906,0,0,1-.187-1.008h-.062a4.273,4.273,0,0,1-.2.977l-1.219,3.8ZM86.462,67H83.916L79.3,59.961a10.178,10.178,0,0,1-.562-.93H78.7q.062.594.063,1.813V67H76.384V55.8H79.1l4.445,6.82q.3.461.563.914h.031a11.979,11.979,0,0,1-.062-1.539V55.8h2.383Zm5.086,0H89.025V55.8h2.523Zm10.414-9.148h-3.2V67H96.236V57.852h-3.18V55.8h8.906Zm5.266,6.133a2.983,2.983,0,0,1,.137-.9,2.735,2.735,0,0,1,.41-.8,3.019,3.019,0,0,1,.684-.664,3.672,3.672,0,0,1,.965-.48,3.46,3.46,0,0,1-1.32-1.082,2.473,2.473,0,0,1-.469-1.465,2.649,2.649,0,0,1,.27-1.187,2.881,2.881,0,0,1,.746-.945,3.49,3.49,0,0,1,1.137-.621,4.485,4.485,0,0,1,1.441-.223,4.573,4.573,0,0,1,1.461.223,3.572,3.572,0,0,1,1.145.617,2.8,2.8,0,0,1,.746.934,2.615,2.615,0,0,1,.266,1.172,2.326,2.326,0,0,1-.5,1.449,3.722,3.722,0,0,1-1.383,1.074,3.769,3.769,0,0,1,.961.48,3.093,3.093,0,0,1,.7.668,2.736,2.736,0,0,1,.422.816,3.006,3.006,0,0,1,.141.918,2.933,2.933,0,0,1-.289,1.309,2.979,2.979,0,0,1-.816,1.016,3.853,3.853,0,0,1-1.258.66,5.661,5.661,0,0,1-3.211,0,3.84,3.84,0,0,1-1.258-.652,3.025,3.025,0,0,1-.824-1.012A2.852,2.852,0,0,1,107.228,63.984Zm2.336-.211a1.9,1.9,0,0,0,.117.688,1.406,1.406,0,0,0,.336.516,1.5,1.5,0,0,0,.52.324,1.906,1.906,0,0,0,.676.113,1.8,1.8,0,0,0,.66-.117,1.549,1.549,0,0,0,.52-.328,1.493,1.493,0,0,0,.344-.516,1.86,1.86,0,0,0,.008-1.32,1.523,1.523,0,0,0-.336-.527,1.635,1.635,0,0,0-1.2-.488,1.761,1.761,0,0,0-.656.121,1.5,1.5,0,0,0-.523.344,1.622,1.622,0,0,0-.344.527A1.733,1.733,0,0,0,109.564,63.773Zm.344-4.961a1.48,1.48,0,0,0,.105.559,1.441,1.441,0,0,0,.285.453,1.3,1.3,0,0,0,.426.3,1.3,1.3,0,0,0,1.043,0,1.331,1.331,0,0,0,.426-.3,1.459,1.459,0,0,0,.395-1.008,1.552,1.552,0,0,0-.1-.566,1.339,1.339,0,0,0-.715-.754,1.342,1.342,0,0,0-1.07,0,1.309,1.309,0,0,0-.422.3,1.369,1.369,0,0,0-.273.453A1.585,1.585,0,0,0,109.908,58.813Zm14.57,4.461a4.107,4.107,0,0,1-.289,1.547,3.776,3.776,0,0,1-.8,1.246,3.723,3.723,0,0,1-1.227.828,4.208,4.208,0,0,1-3.246-.051,3.414,3.414,0,0,1-1.262-1.02,4.767,4.767,0,0,1-.789-1.637,8.089,8.089,0,0,1-.273-2.2,9.039,9.039,0,0,1,.355-2.621,6.018,6.018,0,0,1,1.016-2.012,4.562,4.562,0,0,1,1.6-1.293,4.751,4.751,0,0,1,2.109-.457,5.32,5.32,0,0,1,2.016.3v2.063a3.7,3.7,0,0,0-1.859-.484,2.6,2.6,0,0,0-1.133.242,2.5,2.5,0,0,0-.871.688,3.324,3.324,0,0,0-.57,1.074,4.781,4.781,0,0,0-.223,1.4h.047a2.717,2.717,0,0,1,2.352-1.1,3.064,3.064,0,0,1,1.258.25,2.729,2.729,0,0,1,.961.707,3.243,3.243,0,0,1,.617,1.1A4.379,4.379,0,0,1,124.478,63.273Zm-2.414.156q0-1.8-1.477-1.8a1.449,1.449,0,0,0-.609.125,1.356,1.356,0,0,0-.469.352,1.6,1.6,0,0,0-.3.535,2.1,2.1,0,0,0-.105.684,2.644,2.644,0,0,0,.109.773,2.054,2.054,0,0,0,.309.629,1.528,1.528,0,0,0,.473.426,1.206,1.206,0,0,0,.609.156,1.319,1.319,0,0,0,.605-.137,1.356,1.356,0,0,0,.461-.383,1.76,1.76,0,0,0,.293-.594A2.708,2.708,0,0,0,122.064,63.43Zm7.484,3.766q-4,0-4-5.617a7.643,7.643,0,0,1,1.082-4.441,3.605,3.605,0,0,1,3.137-1.527q3.906,0,3.906,5.711a7.526,7.526,0,0,1-1.066,4.359A3.513,3.513,0,0,1,129.548,67.2Zm.109-9.7q-1.6,0-1.6,4.023,0,3.789,1.57,3.789,1.531,0,1.531-3.906T129.658,57.492Zm11.055-1.945V67h-2.461V58.328a2.947,2.947,0,0,1-.48.34,4.96,4.96,0,0,1-.59.289,5.267,5.267,0,0,1-.648.219,4.736,4.736,0,0,1-.664.129V57.227a10.435,10.435,0,0,0,3.352-1.68ZM147.955,67.2q-4,0-4-5.617a7.643,7.643,0,0,1,1.082-4.441,3.605,3.605,0,0,1,3.137-1.527q3.906,0,3.906,5.711a7.526,7.526,0,0,1-1.066,4.359A3.513,3.513,0,0,1,147.955,67.2Zm.109-9.7q-1.6,0-1.6,4.023,0,3.789,1.57,3.789,1.531,0,1.531-3.906T148.064,57.492Zm9.094,9.7q-4,0-4-5.617a7.643,7.643,0,0,1,1.082-4.441,3.605,3.605,0,0,1,3.137-1.527q3.906,0,3.906,5.711a7.526,7.526,0,0,1-1.066,4.359A3.513,3.513,0,0,1,157.158,67.2Zm.109-9.7q-1.6,0-1.6,4.023,0,3.789,1.57,3.789,1.531,0,1.531-3.906T157.267,57.492Z" transform="translate(-9552 3767.202)" fill="#12263f"/>
    <path id="Trazado_1054764" data-name="Trazado 1054764" d="M88.539,14.953h4.75V17H85.836v-.844a3.927,3.927,0,0,1,.289-1.543,5.12,5.12,0,0,1,.727-1.227,6.3,6.3,0,0,1,.957-.961q.52-.418.988-.754.492-.352.863-.672a4.919,4.919,0,0,0,.625-.637,2.421,2.421,0,0,0,.379-.641,1.905,1.905,0,0,0,.125-.691,1.39,1.39,0,0,0-.406-1.086,1.806,1.806,0,0,0-1.242-.367,4.172,4.172,0,0,0-2.766,1.148V6.555a5.937,5.937,0,0,1,3.3-.945,4.869,4.869,0,0,1,1.527.223,3.231,3.231,0,0,1,1.145.637,2.716,2.716,0,0,1,.715,1A3.388,3.388,0,0,1,93.3,8.789a3.712,3.712,0,0,1-.238,1.375,4.225,4.225,0,0,1-.633,1.094,5.74,5.74,0,0,1-.91.9q-.516.41-1.07.793-.375.266-.723.527a6.851,6.851,0,0,0-.613.516,2.8,2.8,0,0,0-.422.5A.856.856,0,0,0,88.539,14.953ZM101.828,5.8v7.063h1.344V14.7h-1.344V17h-2.25V14.7H94.7v-1.93q.648-.727,1.344-1.59t1.344-1.777q.648-.914,1.207-1.84a18.442,18.442,0,0,0,.949-1.77Zm-4.922,7.063h2.672V8.945q-.273.508-.594,1.027T98.313,11q-.352.5-.711.977T96.906,12.859Zm15.234-5.641q-.75,1.352-1.344,2.535T109.75,12.09a22.028,22.028,0,0,0-.773,2.344A22.638,22.638,0,0,0,108.453,17h-2.578a21.094,21.094,0,0,1,.578-2.516,23.593,23.593,0,0,1,.832-2.348q.473-1.137,1.047-2.215t1.215-2.109h-5.2V5.8h7.8Zm9.2,0Q120.594,8.57,120,9.754t-1.047,2.336a22.028,22.028,0,0,0-.773,2.344A22.638,22.638,0,0,0,117.656,17h-2.578a21.094,21.094,0,0,1,.578-2.516,23.593,23.593,0,0,1,.832-2.348q.473-1.137,1.047-2.215t1.215-2.109h-5.2V5.8h7.8ZM49.891,30.547V42H47.43V33.328a2.947,2.947,0,0,1-.48.34,4.96,4.96,0,0,1-.59.289,5.267,5.267,0,0,1-.648.219,4.737,4.737,0,0,1-.664.129V32.227a10.435,10.435,0,0,0,3.352-1.68Zm9.984.25L54.414,43.859h-2.2L57.648,30.8Zm4.352,11.4q-4,0-4-5.617a7.643,7.643,0,0,1,1.082-4.441,3.605,3.605,0,0,1,3.137-1.527q3.906,0,3.906,5.711a7.526,7.526,0,0,1-1.066,4.359A3.513,3.513,0,0,1,64.227,42.2Zm.109-9.7q-1.6,0-1.6,4.023,0,3.789,1.57,3.789,1.531,0,1.531-3.906T64.336,32.492Zm13.047,3.367a9.937,9.937,0,0,1-.328,2.668,5.723,5.723,0,0,1-.957,1.988,4.227,4.227,0,0,1-1.535,1.246,4.7,4.7,0,0,1-2.055.434,5.838,5.838,0,0,1-2.367-.437V39.727a3.793,3.793,0,0,0,2.125.578,2.446,2.446,0,0,0,1.992-.867,3.869,3.869,0,0,0,.727-2.508l-.047-.016a2.537,2.537,0,0,1-2.258,1.1,3.1,3.1,0,0,1-1.27-.258,3.05,3.05,0,0,1-1.008-.715,3.267,3.267,0,0,1-.664-1.09,3.917,3.917,0,0,1-.238-1.391,4.318,4.318,0,0,1,.289-1.609A3.684,3.684,0,0,1,70.6,31.7a3.568,3.568,0,0,1,1.246-.809,4.37,4.37,0,0,1,1.609-.285,3.685,3.685,0,0,1,1.641.355,3.447,3.447,0,0,1,1.238,1.027,4.8,4.8,0,0,1,.781,1.648A8.352,8.352,0,0,1,77.383,35.859Zm-2.492-1.312a2.9,2.9,0,0,0-.109-.809,2.128,2.128,0,0,0-.3-.652A1.483,1.483,0,0,0,74,32.652a1.226,1.226,0,0,0-.617-.16,1.256,1.256,0,0,0-.59.141,1.438,1.438,0,0,0-.465.387,1.831,1.831,0,0,0-.3.59,2.435,2.435,0,0,0-.109.742,2.536,2.536,0,0,0,.109.777,1.66,1.66,0,0,0,.309.574,1.3,1.3,0,0,0,.48.355,1.565,1.565,0,0,0,.625.121,1.342,1.342,0,0,0,.594-.129,1.43,1.43,0,0,0,.457-.348,1.574,1.574,0,0,0,.3-.516A1.9,1.9,0,0,0,74.891,34.547ZM85.375,30.8,79.914,43.859h-2.2L83.148,30.8Zm3.164,9.156h4.75V42H85.836v-.844a3.927,3.927,0,0,1,.289-1.543,5.12,5.12,0,0,1,.727-1.227,6.3,6.3,0,0,1,.957-.961q.52-.418.988-.754.492-.352.863-.672a4.919,4.919,0,0,0,.625-.637,2.421,2.421,0,0,0,.379-.641,1.905,1.905,0,0,0,.125-.691,1.39,1.39,0,0,0-.406-1.086,1.806,1.806,0,0,0-1.242-.367,4.172,4.172,0,0,0-2.766,1.148V31.555a5.937,5.937,0,0,1,3.3-.945,4.869,4.869,0,0,1,1.527.223,3.231,3.231,0,0,1,1.145.637,2.716,2.716,0,0,1,.715,1,3.388,3.388,0,0,1,.246,1.316,3.712,3.712,0,0,1-.238,1.375,4.225,4.225,0,0,1-.633,1.094,5.74,5.74,0,0,1-.91.9q-.516.41-1.07.793-.375.266-.723.527a6.851,6.851,0,0,0-.613.516,2.8,2.8,0,0,0-.422.5A.856.856,0,0,0,88.539,39.953ZM98.93,42.2q-4,0-4-5.617a7.643,7.643,0,0,1,1.082-4.441,3.605,3.605,0,0,1,3.137-1.527q3.906,0,3.906,5.711a7.526,7.526,0,0,1-1.066,4.359A3.513,3.513,0,0,1,98.93,42.2Zm.109-9.7q-1.6,0-1.6,4.023,0,3.789,1.57,3.789,1.531,0,1.531-3.906T99.039,32.492Zm7.906,7.461h4.75V42h-7.453v-.844a3.927,3.927,0,0,1,.289-1.543,5.12,5.12,0,0,1,.727-1.227,6.3,6.3,0,0,1,.957-.961q.52-.418.988-.754.492-.352.863-.672a4.919,4.919,0,0,0,.625-.637,2.421,2.421,0,0,0,.379-.641,1.905,1.905,0,0,0,.125-.691,1.39,1.39,0,0,0-.406-1.086,1.806,1.806,0,0,0-1.242-.367,4.172,4.172,0,0,0-2.766,1.148V31.555a5.937,5.937,0,0,1,3.3-.945,4.869,4.869,0,0,1,1.527.223,3.231,3.231,0,0,1,1.145.637,2.716,2.716,0,0,1,.715,1,3.388,3.388,0,0,1,.246,1.316,3.712,3.712,0,0,1-.238,1.375,4.225,4.225,0,0,1-.633,1.094,5.74,5.74,0,0,1-.91.9q-.516.41-1.07.793-.375.266-.723.527a6.851,6.851,0,0,0-.613.516,2.8,2.8,0,0,0-.422.5A.856.856,0,0,0,106.945,39.953ZM117.336,42.2q-4,0-4-5.617a7.643,7.643,0,0,1,1.082-4.441,3.605,3.605,0,0,1,3.137-1.527q3.906,0,3.906,5.711a7.526,7.526,0,0,1-1.066,4.359A3.513,3.513,0,0,1,117.336,42.2Zm.109-9.7q-1.6,0-1.6,4.023,0,3.789,1.57,3.789,1.531,0,1.531-3.906T117.445,32.492Z" transform="translate(-9168.414 3714)" fill="#12263f"/>
    <path id="Trazado_1054757" data-name="Trazado 1054757" d="M9.612,16.6a7.388,7.388,0,0,1-3.2.594A5.4,5.4,0,0,1,2.354,15.68,5.54,5.54,0,0,1,.878,11.641a5.919,5.919,0,0,1,1.66-4.359A5.807,5.807,0,0,1,6.847,5.609a8.058,8.058,0,0,1,2.766.414v2.43A4.9,4.9,0,0,0,7.05,7.781,3.4,3.4,0,0,0,4.5,8.773a3.682,3.682,0,0,0-.969,2.688,3.611,3.611,0,0,0,.914,2.59,3.229,3.229,0,0,0,2.461.965,5.249,5.249,0,0,0,2.7-.719Zm11.8.4h-2.75l-.8-2.492H13.886L13.1,17H10.362L14.44,5.8h2.992Zm-4.125-4.43L16.089,8.8A4.907,4.907,0,0,1,15.9,7.8h-.062a4.273,4.273,0,0,1-.2.977l-1.219,3.8ZM32.894,17H30.347L25.729,9.961a10.179,10.179,0,0,1-.562-.93h-.031q.062.594.063,1.813V17H22.815V5.8h2.719l4.445,6.82q.3.461.563.914h.031a11.978,11.978,0,0,1-.062-1.539V5.8h2.383Zm10.43-9.148h-3.2V17H37.6V7.852h-3.18V5.8h8.906ZM47.354,17H44.831V5.8h2.523ZM49.9,17V5.8H53.87q5.969,0,5.969,5.461a5.522,5.522,0,0,1-1.629,4.18A6.007,6.007,0,0,1,53.87,17Zm2.523-9.148v7.1h1.25a3.378,3.378,0,0,0,2.574-.984,3.735,3.735,0,0,0,.934-2.68,3.388,3.388,0,0,0-.926-2.52,3.529,3.529,0,0,0-2.6-.918ZM71.308,17h-2.75l-.8-2.492H63.776L62.987,17H60.253L64.331,5.8h2.992Zm-4.125-4.43L65.979,8.8A4.908,4.908,0,0,1,65.792,7.8h-.062a4.273,4.273,0,0,1-.2.977l-1.219,3.8ZM72.706,17V5.8h3.969q5.969,0,5.969,5.461a5.522,5.522,0,0,1-1.629,4.18A6.007,6.007,0,0,1,76.675,17Zm2.523-9.148v7.1h1.25a3.378,3.378,0,0,0,2.574-.984,3.735,3.735,0,0,0,.934-2.68,3.388,3.388,0,0,0-.926-2.52,3.529,3.529,0,0,0-2.6-.918Z" transform="translate(-9660.34 3858.474)" fill="#12263f"/>
    <path id="Trazado_1054753" data-name="Trazado 1054753" d="M39.473,12.148q0,5.047-4.7,5.047-4.562,0-4.562-4.93V5.8h2.531v6.5q0,2.719,2.125,2.719,2.086,0,2.086-2.625V5.8h2.523ZM51.988,17H49.441L44.824,9.961a10.18,10.18,0,0,1-.562-.93H44.23q.063.594.063,1.813V17H41.91V5.8h2.719l4.445,6.82q.3.461.563.914h.031a11.978,11.978,0,0,1-.062-1.539V5.8h2.383Zm5.086,0H54.551V5.8h2.523Zm2.547,0V5.8H63.59q5.969,0,5.969,5.461a5.522,5.522,0,0,1-1.629,4.18A6.007,6.007,0,0,1,63.59,17Zm2.523-9.148v7.1h1.25a3.378,3.378,0,0,0,2.574-.984,3.735,3.735,0,0,0,.934-2.68,3.388,3.388,0,0,0-.926-2.52,3.529,3.529,0,0,0-2.6-.918ZM81.027,17h-2.75l-.8-2.492H73.5L72.707,17H69.973L74.051,5.8h2.992ZM76.9,12.57,75.7,8.8A4.908,4.908,0,0,1,75.512,7.8h-.062a4.273,4.273,0,0,1-.2.977l-1.219,3.8ZM82.426,17V5.8h3.969q5.969,0,5.969,5.461a5.522,5.522,0,0,1-1.629,4.18A6.007,6.007,0,0,1,86.395,17Zm2.523-9.148v7.1H86.2a3.378,3.378,0,0,0,2.574-.984,3.735,3.735,0,0,0,.934-2.68,3.388,3.388,0,0,0-.926-2.52,3.529,3.529,0,0,0-2.6-.918ZM43.3,35H40.8V28.3q0-1.086.094-2.4h-.062a11.8,11.8,0,0,1-.352,1.484L37.859,35H35.8l-2.672-7.539a14.67,14.67,0,0,1-.352-1.562H32.7q.1,1.656.1,2.906V35H30.531V23.8h3.7l2.289,6.641a9.35,9.35,0,0,1,.4,1.6h.047a16.127,16.127,0,0,1,.445-1.617L39.7,23.8h3.6Zm9.266,0H45.844V23.8H52.3v2.055H48.367v2.492h3.664v2.047H48.367v2.563h4.2Zm1.8,0V23.8h3.969q5.969,0,5.969,5.461a5.522,5.522,0,0,1-1.629,4.18A6.007,6.007,0,0,1,58.328,35Zm2.523-9.148v7.1h1.25a3.378,3.378,0,0,0,2.574-.984,3.735,3.735,0,0,0,.934-2.68,3.388,3.388,0,0,0-.926-2.52,3.529,3.529,0,0,0-2.6-.918ZM68.68,35H66.156V23.8H68.68Zm2.547,0V23.8H75.2q5.969,0,5.969,5.461a5.522,5.522,0,0,1-1.629,4.18A6.007,6.007,0,0,1,75.2,35Zm2.523-9.148v7.1H75a3.378,3.378,0,0,0,2.574-.984,3.735,3.735,0,0,0,.934-2.68,3.388,3.388,0,0,0-.926-2.52,3.529,3.529,0,0,0-2.6-.918ZM92.633,35h-2.75l-.8-2.492H85.1L84.313,35H81.578l4.078-11.2h2.992Zm-4.125-4.43L87.3,26.8a4.908,4.908,0,0,1-.187-1.008h-.062a4.273,4.273,0,0,1-.2.977l-1.219,3.8Z" transform="translate(-9515.966 3849.477)" fill="#12263f"/>
    <path id="Trazado_1054754" data-name="Trazado 1054754" d="M40.816,13.141V17H38.293V5.8h3.953q4.234,0,4.234,3.57a3.426,3.426,0,0,1-1.215,2.73,4.813,4.813,0,0,1-3.246,1.043Zm0-5.406v3.492h.992q2.016,0,2.016-1.766,0-1.727-2.016-1.727ZM57.52,17h-2.9l-1.742-2.883q-.2-.328-.375-.586a3.255,3.255,0,0,0-.363-.441,1.445,1.445,0,0,0-.383-.281.972.972,0,0,0-.434-.1h-.68V17H48.121V5.8h4Q56.2,5.8,56.2,8.844a3.155,3.155,0,0,1-.18,1.082,3.006,3.006,0,0,1-.508.895,3.219,3.219,0,0,1-.793.688,4.089,4.089,0,0,1-1.035.453v.031a1.606,1.606,0,0,1,.484.254,3.468,3.468,0,0,1,.453.41,5.723,5.723,0,0,1,.418.5q.2.27.363.527ZM50.645,7.688V10.8h1.094a1.813,1.813,0,0,0,1.3-.469,1.564,1.564,0,0,0,.5-1.18q0-1.469-1.758-1.469ZM65.285,17H58.566V5.8h6.461V7.852H61.09v2.492h3.664v2.047H61.09v2.563h4.2Zm9.828-.4a7.388,7.388,0,0,1-3.2.594,5.4,5.4,0,0,1-4.055-1.516,5.54,5.54,0,0,1-1.477-4.039,5.919,5.919,0,0,1,1.66-4.359,5.807,5.807,0,0,1,4.309-1.672,8.058,8.058,0,0,1,2.766.414v2.43a4.9,4.9,0,0,0-2.562-.672A3.4,3.4,0,0,0,70,8.773a3.682,3.682,0,0,0-.969,2.688,3.611,3.611,0,0,0,.914,2.59,3.229,3.229,0,0,0,2.461.965,5.249,5.249,0,0,0,2.7-.719Zm4.477.4H77.066V5.8H79.59Zm7.281.2a5.215,5.215,0,0,1-3.922-1.566,5.624,5.624,0,0,1-1.516-4.082,6.026,6.026,0,0,1,1.539-4.3,5.328,5.328,0,0,1,4.078-1.641A5.085,5.085,0,0,1,90.93,7.18a5.79,5.79,0,0,1,1.48,4.141,5.929,5.929,0,0,1-1.535,4.258A5.269,5.269,0,0,1,86.871,17.2Zm.109-9.414a2.54,2.54,0,0,0-2.109,1,4.153,4.153,0,0,0-.781,2.637,4.077,4.077,0,0,0,.781,2.633,2.7,2.7,0,0,0,4.117.027,4.032,4.032,0,0,0,.766-2.613,4.369,4.369,0,0,0-.742-2.711A2.42,2.42,0,0,0,86.98,7.781ZM37.2,30.148q0,5.047-4.7,5.047-4.562,0-4.562-4.93V23.8h2.531v6.5q0,2.719,2.125,2.719,2.086,0,2.086-2.625V23.8H37.2ZM49.711,35H47.164l-4.617-7.039a10.18,10.18,0,0,1-.562-.93h-.031q.063.594.063,1.813V35H39.633V23.8h2.719l4.445,6.82q.3.461.563.914h.031a11.978,11.978,0,0,1-.062-1.539V23.8h2.383ZM54.8,35H52.273V23.8H54.8Zm10.414-9.148h-3.2V35H59.484V25.852H56.3V23.8h8.906ZM75.453,35H72.7l-.8-2.492H67.922L67.133,35H64.4l4.078-11.2h2.992Zm-4.125-4.43-1.2-3.766a4.908,4.908,0,0,1-.187-1.008h-.062a4.273,4.273,0,0,1-.2.977l-1.219,3.8ZM86.25,35h-2.9l-1.742-2.883q-.2-.328-.375-.586a3.255,3.255,0,0,0-.363-.441,1.445,1.445,0,0,0-.383-.281.972.972,0,0,0-.434-.1h-.68V35H76.852V23.8h4q4.078,0,4.078,3.047a3.155,3.155,0,0,1-.18,1.082,3.006,3.006,0,0,1-.508.895,3.219,3.219,0,0,1-.793.688,4.089,4.089,0,0,1-1.035.453v.031a1.606,1.606,0,0,1,.484.254,3.469,3.469,0,0,1,.453.41,5.722,5.722,0,0,1,.418.5q.2.27.363.527Zm-6.875-9.312V28.8h1.094a1.813,1.813,0,0,0,1.3-.469,1.564,1.564,0,0,0,.5-1.18q0-1.469-1.758-1.469ZM89.82,35H87.3V23.8H89.82Zm7.281.2a5.215,5.215,0,0,1-3.922-1.566,5.624,5.624,0,0,1-1.516-4.082,6.026,6.026,0,0,1,1.539-4.3,5.328,5.328,0,0,1,4.078-1.641,5.085,5.085,0,0,1,3.879,1.57,5.79,5.79,0,0,1,1.48,4.141,5.929,5.929,0,0,1-1.535,4.258A5.269,5.269,0,0,1,97.1,35.2Zm.109-9.414a2.54,2.54,0,0,0-2.109,1,4.153,4.153,0,0,0-.781,2.637,4.077,4.077,0,0,0,.781,2.633,2.7,2.7,0,0,0,4.117.027,4.032,4.032,0,0,0,.766-2.613,4.369,4.369,0,0,0-.742-2.711A2.42,2.42,0,0,0,97.211,25.781Z" transform="translate(-9344.339 3849.477)" fill="#12263f"/>
    <path id="Trazado_1054755" data-name="Trazado 1054755" d="M35.883,5.8,32.023,17H29.164L25.352,5.8H28.07l2.336,7.8a5.584,5.584,0,0,1,.227,1.117h.047a6.315,6.315,0,0,1,.242-1.148L33.242,5.8ZM46.25,17H43.5l-.8-2.492H38.719L37.93,17H35.2L39.273,5.8h2.992Zm-4.125-4.43L40.922,8.8A4.907,4.907,0,0,1,40.734,7.8h-.062a4.273,4.273,0,0,1-.2.977l-1.219,3.8ZM54.32,17H47.648V5.8h2.523v9.156H54.32Zm5.844.2a5.215,5.215,0,0,1-3.922-1.566,5.624,5.624,0,0,1-1.516-4.082,6.026,6.026,0,0,1,1.539-4.3,5.328,5.328,0,0,1,4.078-1.641,5.085,5.085,0,0,1,3.879,1.57A5.79,5.79,0,0,1,65.7,11.32a5.929,5.929,0,0,1-1.535,4.258A5.269,5.269,0,0,1,60.164,17.2Zm.109-9.414a2.54,2.54,0,0,0-2.109,1,4.153,4.153,0,0,0-.781,2.637,4.077,4.077,0,0,0,.781,2.633,2.7,2.7,0,0,0,4.117.027,4.032,4.032,0,0,0,.766-2.613A4.369,4.369,0,0,0,62.3,8.75,2.42,2.42,0,0,0,60.273,7.781ZM76.961,17h-2.9L72.32,14.117q-.2-.328-.375-.586a3.255,3.255,0,0,0-.363-.441,1.445,1.445,0,0,0-.383-.281.972.972,0,0,0-.434-.1h-.68V17H67.563V5.8h4q4.078,0,4.078,3.047a3.155,3.155,0,0,1-.18,1.082,3.006,3.006,0,0,1-.508.895,3.219,3.219,0,0,1-.793.688,4.089,4.089,0,0,1-1.035.453v.031a1.606,1.606,0,0,1,.484.254,3.469,3.469,0,0,1,.453.41,5.722,5.722,0,0,1,.418.5q.2.27.363.527ZM70.086,7.688V10.8H71.18a1.813,1.813,0,0,0,1.3-.469,1.564,1.564,0,0,0,.5-1.18q0-1.469-1.758-1.469ZM36.168,25.852h-3.2V35H30.441V25.852h-3.18V23.8h8.906ZM41.816,35.2a5.215,5.215,0,0,1-3.922-1.566,5.624,5.624,0,0,1-1.516-4.082,6.026,6.026,0,0,1,1.539-4.3A5.328,5.328,0,0,1,42,23.609a5.085,5.085,0,0,1,3.879,1.57,5.79,5.79,0,0,1,1.48,4.141,5.929,5.929,0,0,1-1.535,4.258A5.269,5.269,0,0,1,41.816,35.2Zm.109-9.414a2.54,2.54,0,0,0-2.109,1,4.153,4.153,0,0,0-.781,2.637,4.077,4.077,0,0,0,.781,2.633,2.7,2.7,0,0,0,4.117.027,4.032,4.032,0,0,0,.766-2.613,4.369,4.369,0,0,0-.742-2.711A2.42,2.42,0,0,0,41.926,25.781Zm14.516.07h-3.2V35H50.715V25.852h-3.18V23.8h8.906ZM66.684,35h-2.75l-.8-2.492H59.152L58.363,35H55.629l4.078-11.2H62.7Zm-4.125-4.43-1.2-3.766a4.907,4.907,0,0,1-.187-1.008h-.062a4.273,4.273,0,0,1-.2.977l-1.219,3.8ZM74.754,35H68.082V23.8h2.523v9.156h4.148Z" transform="translate(-9167.768 3849.477)" fill="#12263f"/>
    <path id="Trazado_1054715" data-name="Trazado 1054715" d="M0,0H794.464" transform="translate(-9832 3735.5)" fill="none" stroke="#e2e2e2" stroke-width="1"/>
    <path id="Trazado_1054716" data-name="Trazado 1054716" d="M0,0H796.027" transform="translate(-9832 3761.268)" fill="none" stroke="#e2e2e2" stroke-width="1"/>
    <path id="Trazado_1054717" data-name="Trazado 1054717" d="M0,0H796.527" transform="translate(-9832.008 3787.035)" fill="none" stroke="#e2e2e2" stroke-width="1"/>
    <path id="Trazado_1054718" data-name="Trazado 1054718" d="M0,0H795.244" transform="translate(-9832 3812.803)" fill="none" stroke="#e2e2e2" stroke-width="1"/>
    <path id="Trazado_1054761" data-name="Trazado 1054761" d="M0,0V26" transform="translate(-9534.5 3735.5)" fill="none" stroke="#e2e2e2" stroke-width="1"/>
    <path id="Trazado_1054762" data-name="Trazado 1054762" d="M0,53V0" transform="translate(-9367.5 3708.5)" fill="none" stroke="#e2e2e2" stroke-width="1"/>
    <path id="Trazado_1054765" data-name="Trazado 1054765" d="M0,53V0" transform="translate(-9194.334 3708.268)" fill="none" stroke="#e2e2e2" stroke-width="1"/>
  </g>
</svg>
