<svg xmlns="http://www.w3.org/2000/svg" xmlns:xlink="http://www.w3.org/1999/xlink" width="1240.059" height="555.162" viewBox="0 0 1240.059 555.162">
  <defs>
    <clipPath id="clip-path">
      <rect x="4" width="122" height="48" fill="none"/>
    </clipPath>
  </defs>
  <g id="Grupo_1181001" data-name="Grupo 1181001" transform="translate(6602.084 -6118.253)">
    <g id="Componente_2_5" data-name="Componente 2 – 5" transform="translate(-6602.076 6118.253)">
      <g id="Grupo_1178833" data-name="Grupo 1178833" transform="translate(0 137.213)">
        <g id="Trazado_1034149" data-name="Trazado 1034149" transform="translate(0 63.393)" fill="#fff">
          <path d="M 1239.5 353.556640625 L 598.0161743164062 353.556640625 L 0.5 353.556640625 L 0.5 0.5000126361846924 L 1239.5 0.5000126361846924 L 1239.5 353.556640625 Z" stroke="none"/>
          <path d="M 1 1 L 1 353.056640625 L 1239 353.056640625 L 1239 1 L 1 1 M 0 0 L 1240 0 L 1240 354.056640625 L 0 354.056640625 L 0 0 Z" stroke="none" fill="#d6d6d6"/>
        </g>
        <path id="Trazado_1034053" data-name="Trazado 1034053" d="M0,0H1240V63H0Z" transform="translate(0 0.119)" fill="#fd9826"/>
        <text id="REFERENCIA" transform="translate(104.001 39.656)" fill="#12263f" font-size="16" font-family="SegoeUI-Bold, Segoe UI" font-weight="700"><tspan x="-46.852" y="0">REFERENCIA</tspan></text>
        <text id="PRODUCTO" transform="translate(307.391 40.393)" fill="#12263f" font-size="16" font-family="SegoeUI-Bold, Segoe UI" font-weight="700"><tspan x="-43.258" y="0">PRODUCTO</tspan></text>
        <rect id="Rectángulo_406952" data-name="Rectángulo 406952" width="1239.879" height="39.247" transform="translate(0.121 259.625)" fill="#f6f6f6"/>
        <rect id="Rectángulo_406972" data-name="Rectángulo 406972" width="1239.879" height="39.247" transform="translate(0.06 338.119)" fill="#f6f6f6"/>
        <rect id="Rectángulo_406951" data-name="Rectángulo 406951" width="1239.879" height="39.247" transform="translate(0 181.132)" fill="#f6f6f6"/>
        <rect id="Rectángulo_406950" data-name="Rectángulo 406950" width="1239.879" height="39.247" transform="translate(0.121 102.639)" fill="#f6f6f6"/>
        <path id="Trazado_1034204" data-name="Trazado 1034204" d="M0,0V417.449" transform="translate(206.688)" fill="none" stroke="#d6d6d6" stroke-linecap="round" stroke-width="1"/>
        <path id="Trazado_1034202" data-name="Trazado 1034202" d="M0,338.044" transform="translate(370.243)" fill="none" stroke="#d6d6d6" stroke-linecap="round" stroke-width="1"/>
      </g>
      <path id="Trazado_1054802" data-name="Trazado 1054802" d="M-55.543-11.2-59.4,0h-2.859l-3.812-11.2h2.719l2.336,7.8a5.584,5.584,0,0,1,.227,1.117h.047A6.314,6.314,0,0,1-60.5-3.437l2.32-7.766ZM-45.176,0h-2.75l-.8-2.492h-3.984L-53.5,0H-56.23l4.078-11.2h2.992ZM-49.3-4.43-50.5-8.2A4.907,4.907,0,0,1-50.691-9.2h-.062a4.273,4.273,0,0,1-.2.977l-1.219,3.8ZM-37.105,0h-6.672V-11.2h2.523v9.156h4.148Zm5.844.2a5.215,5.215,0,0,1-3.922-1.566A5.624,5.624,0,0,1-36.7-5.453a6.026,6.026,0,0,1,1.539-4.3,5.328,5.328,0,0,1,4.078-1.641A5.085,5.085,0,0,1-27.2-9.82a5.79,5.79,0,0,1,1.48,4.141,5.929,5.929,0,0,1-1.535,4.258A5.269,5.269,0,0,1-31.262.2Zm.109-9.414a2.54,2.54,0,0,0-2.109,1,4.153,4.153,0,0,0-.781,2.637,4.077,4.077,0,0,0,.781,2.633,2.5,2.5,0,0,0,2.047.969,2.528,2.528,0,0,0,2.07-.941,4.032,4.032,0,0,0,.766-2.613,4.369,4.369,0,0,0-.742-2.711A2.42,2.42,0,0,0-31.152-9.219ZM-14.465,0h-2.9l-1.742-2.883q-.2-.328-.375-.586a3.255,3.255,0,0,0-.363-.441,1.445,1.445,0,0,0-.383-.281.972.972,0,0,0-.434-.1h-.68V0h-2.523V-11.2h4q4.078,0,4.078,3.047a3.155,3.155,0,0,1-.18,1.082,3.006,3.006,0,0,1-.508.895,3.219,3.219,0,0,1-.793.688,4.089,4.089,0,0,1-1.035.453v.031a1.606,1.606,0,0,1,.484.254,3.469,3.469,0,0,1,.453.41,5.722,5.722,0,0,1,.418.5q.2.27.363.527ZM-21.34-9.312V-6.2h1.094a1.813,1.813,0,0,0,1.3-.469,1.564,1.564,0,0,0,.5-1.18q0-1.469-1.758-1.469ZM.129-4.852Q.129.2-4.574.2q-4.563,0-4.562-4.93V-11.2h2.531v6.5q0,2.719,2.125,2.719,2.086,0,2.086-2.625V-11.2H.129ZM12.645,0H10.1L5.48-7.039a10.179,10.179,0,0,1-.562-.93H4.887q.062.594.063,1.813V0H2.566V-11.2H5.285L9.73-4.383q.3.461.563.914h.031a11.978,11.978,0,0,1-.062-1.539v-6.2h2.383ZM17.73,0H15.207V-11.2H17.73ZM28.145-9.148h-3.2V0H22.418V-9.148h-3.18V-11.2h8.906ZM38.387,0h-2.75l-.8-2.492H30.855L30.066,0H27.332L31.41-11.2H34.4ZM34.262-4.43,33.059-8.2A4.907,4.907,0,0,1,32.871-9.2h-.062a4.273,4.273,0,0,1-.2.977l-1.219,3.8ZM49.184,0h-2.9L44.543-2.883q-.2-.328-.375-.586A3.255,3.255,0,0,0,43.8-3.91a1.445,1.445,0,0,0-.383-.281.972.972,0,0,0-.434-.1h-.68V0H39.785V-11.2h4q4.078,0,4.078,3.047a3.155,3.155,0,0,1-.18,1.082,3.006,3.006,0,0,1-.508.895,3.219,3.219,0,0,1-.793.688,4.089,4.089,0,0,1-1.035.453v.031a1.606,1.606,0,0,1,.484.254,3.468,3.468,0,0,1,.453.41,5.723,5.723,0,0,1,.418.5q.2.27.363.527ZM42.309-9.312V-6.2H43.4a1.813,1.813,0,0,0,1.3-.469,1.564,1.564,0,0,0,.5-1.18q0-1.469-1.758-1.469ZM52.754,0H50.23V-11.2h2.523Zm7.281.2a5.215,5.215,0,0,1-3.922-1.566A5.624,5.624,0,0,1,54.6-5.453a6.026,6.026,0,0,1,1.539-4.3,5.328,5.328,0,0,1,4.078-1.641,5.085,5.085,0,0,1,3.879,1.57,5.79,5.79,0,0,1,1.48,4.141,5.929,5.929,0,0,1-1.535,4.258A5.269,5.269,0,0,1,60.035.2Zm.109-9.414a2.54,2.54,0,0,0-2.109,1,4.153,4.153,0,0,0-.781,2.637,4.077,4.077,0,0,0,.781,2.633,2.5,2.5,0,0,0,2.047.969,2.528,2.528,0,0,0,2.07-.941,4.032,4.032,0,0,0,.766-2.613,4.369,4.369,0,0,0-.742-2.711A2.42,2.42,0,0,0,60.145-9.219Z" transform="translate(927.076 173.605)" fill="#12263f"/>
      <path id="Trazado_1054803" data-name="Trazado 1054803" d="M-41.3-11.2-45.164,0h-2.859l-3.812-11.2h2.719l2.336,7.8a5.584,5.584,0,0,1,.227,1.117h.047a6.314,6.314,0,0,1,.242-1.148l2.32-7.766ZM-30.937,0h-2.75l-.8-2.492h-3.984L-39.258,0h-2.734l4.078-11.2h2.992Zm-4.125-4.43-1.2-3.766A4.907,4.907,0,0,1-36.453-9.2h-.062a4.273,4.273,0,0,1-.2.977l-1.219,3.8ZM-22.867,0h-6.672V-11.2h2.523v9.156h4.148Zm5.844.2a5.215,5.215,0,0,1-3.922-1.566,5.624,5.624,0,0,1-1.516-4.082,6.026,6.026,0,0,1,1.539-4.3,5.328,5.328,0,0,1,4.078-1.641,5.085,5.085,0,0,1,3.879,1.57,5.79,5.79,0,0,1,1.48,4.141A5.929,5.929,0,0,1-13.02-1.422,5.269,5.269,0,0,1-17.023.2Zm.109-9.414a2.54,2.54,0,0,0-2.109,1A4.153,4.153,0,0,0-19.8-5.586a4.077,4.077,0,0,0,.781,2.633,2.5,2.5,0,0,0,2.047.969,2.528,2.528,0,0,0,2.07-.941,4.032,4.032,0,0,0,.766-2.613,4.369,4.369,0,0,0-.742-2.711A2.42,2.42,0,0,0-16.914-9.219ZM-.227,0h-2.9L-4.867-2.883q-.2-.328-.375-.586a3.255,3.255,0,0,0-.363-.441,1.445,1.445,0,0,0-.383-.281.972.972,0,0,0-.434-.1H-7.1V0H-9.625V-11.2h4q4.078,0,4.078,3.047a3.155,3.155,0,0,1-.18,1.082,3.006,3.006,0,0,1-.508.895,3.219,3.219,0,0,1-.793.688,4.089,4.089,0,0,1-1.035.453v.031a1.606,1.606,0,0,1,.484.254,3.468,3.468,0,0,1,.453.41,5.722,5.722,0,0,1,.418.5q.2.27.363.527ZM-7.1-9.312V-6.2h1.094a1.813,1.813,0,0,0,1.3-.469,1.564,1.564,0,0,0,.5-1.18q0-1.469-1.758-1.469Zm20.2.164h-3.2V0H7.375V-9.148H4.2V-11.2H13.1ZM18.75.2a5.215,5.215,0,0,1-3.922-1.566,5.624,5.624,0,0,1-1.516-4.082,6.026,6.026,0,0,1,1.539-4.3,5.328,5.328,0,0,1,4.078-1.641,5.085,5.085,0,0,1,3.879,1.57,5.79,5.79,0,0,1,1.48,4.141,5.929,5.929,0,0,1-1.535,4.258A5.269,5.269,0,0,1,18.75.2Zm.109-9.414a2.54,2.54,0,0,0-2.109,1,4.153,4.153,0,0,0-.781,2.637,4.077,4.077,0,0,0,.781,2.633,2.5,2.5,0,0,0,2.047.969,2.528,2.528,0,0,0,2.07-.941,4.032,4.032,0,0,0,.766-2.613,4.369,4.369,0,0,0-.742-2.711A2.42,2.42,0,0,0,18.859-9.219Zm14.516.07h-3.2V0H27.648V-9.148h-3.18V-11.2h8.906ZM43.617,0h-2.75l-.8-2.492H36.086L35.3,0H32.563l4.078-11.2h2.992ZM39.492-4.43,38.289-8.2A4.907,4.907,0,0,1,38.1-9.2h-.062a4.273,4.273,0,0,1-.2.977l-1.219,3.8ZM51.688,0H45.016V-11.2h2.523v9.156h4.148Z" transform="translate(1137.29 173.605)" fill="#12263f"/>
      <g id="Grupo_1178830" data-name="Grupo 1178830" transform="translate(471.885 161.605)">
        <text id="CANTIDAD" transform="translate(39 15)" fill="#12263f" font-size="16" font-family="SegoeUI-Bold, Segoe UI" font-weight="700"><tspan x="-41.461" y="0">CANTIDAD</tspan></text>
      </g>
      <g id="Grupo_1178831" data-name="Grupo 1178831" transform="translate(689.548 159.332)">
        <text id="UNIDAD" transform="translate(29 15)" fill="#12263f" font-size="16" font-family="SegoeUI-Bold, Segoe UI" font-weight="700"><tspan x="-31.941" y="0">UNIDAD</tspan></text>
      </g>
      <path id="Trazado_1034203" data-name="Trazado 1034203" d="M0,337.044" transform="translate(589.059 138.213)" fill="none" stroke="#d6d6d6" stroke-linecap="round" stroke-width="1"/>
      <path id="Trazado_1054808" data-name="Trazado 1054808" d="M40.281,8.734a2.316,2.316,0,0,0-.16-.9,1.739,1.739,0,0,0-1.09-1.016,2.555,2.555,0,0,0-.812-.125,2.688,2.688,0,0,0-.734.1,3.57,3.57,0,0,0-.7.281,4.3,4.3,0,0,0-.656.43,4.74,4.74,0,0,0-.59.555V6.688a3.831,3.831,0,0,1,1.207-.8,4.25,4.25,0,0,1,1.629-.277,3.932,3.932,0,0,1,1.273.2,2.92,2.92,0,0,1,1.016.582,2.691,2.691,0,0,1,.676.945,3.188,3.188,0,0,1,.246,1.289,4.42,4.42,0,0,1-.152,1.2,3.721,3.721,0,0,1-.461,1.016,4.9,4.9,0,0,1-.777.914,11.011,11.011,0,0,1-1.1.891q-.789.563-1.3.961a5.75,5.75,0,0,0-.812.746,2.165,2.165,0,0,0-.422.7,2.43,2.43,0,0,0-.121.8h5.578V17H35.1v-.555a4.622,4.622,0,0,1,.156-1.266,3.286,3.286,0,0,1,.516-1.039,5.767,5.767,0,0,1,.941-.984q.582-.492,1.426-1.109a9.014,9.014,0,0,0,1.02-.836,4.346,4.346,0,0,0,.66-.8,2.862,2.862,0,0,0,.355-.809A3.486,3.486,0,0,0,40.281,8.734ZM50.32,13.828a3.266,3.266,0,0,1-.285,1.379,3.045,3.045,0,0,1-.8,1.063,3.714,3.714,0,0,1-1.246.684,5.04,5.04,0,0,1-1.6.242,4.654,4.654,0,0,1-2.547-.609V15.211a4.081,4.081,0,0,0,2.594.891,3.525,3.525,0,0,0,1.059-.148,2.374,2.374,0,0,0,.813-.43,1.909,1.909,0,0,0,.523-.68,2.123,2.123,0,0,0,.184-.9q0-2.2-3.125-2.2h-.93V10.664h.883q2.766,0,2.766-2.062Q48.6,6.7,46.492,6.7a3.592,3.592,0,0,0-2.227.8V6.25a4.868,4.868,0,0,1,2.547-.641,3.913,3.913,0,0,1,1.273.2,2.918,2.918,0,0,1,.977.547,2.423,2.423,0,0,1,.629.844,2.6,2.6,0,0,1,.223,1.086,2.735,2.735,0,0,1-2.234,2.844v.031a3.534,3.534,0,0,1,1.055.277,2.814,2.814,0,0,1,.836.559,2.49,2.49,0,0,1,.551.809A2.582,2.582,0,0,1,50.32,13.828ZM58.141,5.8v7.4h1.438v1.172H58.141V17H56.875V14.367H51.609V13.258q.734-.828,1.484-1.77t1.434-1.91q.684-.969,1.266-1.934a17.672,17.672,0,0,0,.98-1.848Zm-5.086,7.4h3.82V7.711q-.586,1.023-1.109,1.828T54.77,11q-.473.656-.9,1.188T53.055,13.2ZM65.781,17H64.5V7.32a2.966,2.966,0,0,1-.434.34,7.068,7.068,0,0,1-.641.379q-.355.188-.75.352a5.45,5.45,0,0,1-.77.258v-1.3a7.448,7.448,0,0,0,.895-.316q.473-.2.93-.445t.863-.516a6.853,6.853,0,0,0,.7-.527h.484ZM53.691,52.047H49.426V51.039h4.266Zm0,39H49.426V90.039h4.266Zm0,39H49.426v-1.008h4.266Zm0,39H49.426v-1.008h4.266Zm0,39H49.426v-1.008h4.266Zm0,39H49.426v-1.008h4.266Zm0,39H49.426v-1.008h4.266Zm0,39H49.426v-1.008h4.266Z" transform="translate(45 213.043)" fill="#00223d"/>
      <path id="Trazado_1054800" data-name="Trazado 1054800" d="M40.113,17H34.176V5.8h5.688V6.984H35.488v3.727h4.047v1.18H35.488v3.922h4.625Zm13.578,0h-1.3V9.484q0-.891.109-2.18h-.031a6.969,6.969,0,0,1-.336,1.086L48.3,17H47.66L43.84,8.453A6.7,6.7,0,0,1,43.5,7.3h-.031q.063.672.063,2.2V17H42.27V5.8H44l3.438,7.813a10,10,0,0,1,.516,1.344H48q.336-.922.539-1.375L52.051,5.8h1.641Zm4.258-4.234V17H56.637V5.8h3.078a4.063,4.063,0,0,1,2.785.875,3.124,3.124,0,0,1,.988,2.469,3.4,3.4,0,0,1-1.1,2.609,4.194,4.194,0,0,1-2.965,1.016Zm0-5.781v4.594h1.375a3.074,3.074,0,0,0,2.074-.621A2.2,2.2,0,0,0,62.113,9.2q0-2.219-2.625-2.219ZM73.176,17H71.723l-1.187-3.141h-4.75L64.668,17H63.207L67.5,5.8h1.359Zm-3.07-4.32L68.348,7.906a4.571,4.571,0,0,1-.172-.75h-.031a4.185,4.185,0,0,1-.18.75L66.223,12.68ZM83.855,17H82.246L76.48,8.07a3.731,3.731,0,0,1-.359-.7h-.047a11.534,11.534,0,0,1,.063,1.539V17H74.824V5.8h1.7l5.609,8.789q.352.547.453.75h.031a11.853,11.853,0,0,1-.078-1.648V5.8h1.313Zm11.609,0H94.012l-1.187-3.141h-4.75L86.957,17H85.5l4.3-11.2h1.359Zm-3.07-4.32L90.637,7.906a4.571,4.571,0,0,1-.172-.75h-.031a4.185,4.185,0,0,1-.18.75L88.512,12.68ZM97.113,17V5.8h3.094q5.922,0,5.922,5.461a5.5,5.5,0,0,1-1.645,4.168,6.1,6.1,0,0,1-4.4,1.574ZM98.426,6.984v8.828H100.1a4.745,4.745,0,0,0,3.43-1.18,4.422,4.422,0,0,0,1.227-3.344q0-4.3-4.578-4.3ZM116.613,17H115.16l-1.187-3.141h-4.75L108.105,17h-1.461l4.3-11.2H112.3Zm-3.07-4.32-1.758-4.773a4.571,4.571,0,0,1-.172-.75h-.031a4.185,4.185,0,0,1-.18.75L109.66,12.68Zm4.2,3.867V15a3,3,0,0,0,.637.422,5.159,5.159,0,0,0,.781.316,6.219,6.219,0,0,0,.824.2,4.6,4.6,0,0,0,.766.07,3,3,0,0,0,1.809-.449,1.685,1.685,0,0,0,.4-2.082,2.244,2.244,0,0,0-.551-.613,5.465,5.465,0,0,0-.832-.531q-.48-.254-1.035-.535-.586-.3-1.094-.6a4.74,4.74,0,0,1-.883-.672,2.8,2.8,0,0,1-.59-.832,2.575,2.575,0,0,1-.215-1.09,2.563,2.563,0,0,1,.336-1.332,2.881,2.881,0,0,1,.883-.934,4,4,0,0,1,1.246-.547,5.706,5.706,0,0,1,1.426-.18,5.464,5.464,0,0,1,2.414.4V7.484a4.376,4.376,0,0,0-2.547-.687,4.189,4.189,0,0,0-.859.09,2.428,2.428,0,0,0-.766.293,1.7,1.7,0,0,0-.547.523,1.389,1.389,0,0,0-.211.781,1.608,1.608,0,0,0,.16.742,1.819,1.819,0,0,0,.473.57,4.708,4.708,0,0,0,.762.5q.449.242,1.035.531.6.3,1.141.625a5.214,5.214,0,0,1,.945.727,3.229,3.229,0,0,1,.645.883,2.482,2.482,0,0,1,.238,1.109,2.813,2.813,0,0,1-.324,1.4,2.661,2.661,0,0,1-.875.934,3.822,3.822,0,0,1-1.27.52,6.953,6.953,0,0,1-1.516.16,6.176,6.176,0,0,1-.656-.043q-.391-.043-.8-.125a6.5,6.5,0,0,1-.77-.2A2.4,2.4,0,0,1,117.738,16.547Zm-36.547,35.5H76.926V51.039h4.266Zm0,39H76.926V90.039h4.266Zm0,39H76.926v-1.008h4.266Zm0,39H76.926v-1.008h4.266Zm0,39H76.926v-1.008h4.266Zm0,39H76.926v-1.008h4.266Zm0,39H76.926v-1.008h4.266Zm0,39H76.926v-1.008h4.266Z" transform="translate(233.863 213.043)" fill="#00223d"/>
      <path id="Trazado_1054801" data-name="Trazado 1054801" d="M63.047,5.8v7.4h1.438v1.172H63.047V17H61.781V14.367H56.516V13.258q.734-.828,1.484-1.77t1.434-1.91q.684-.969,1.266-1.934A17.672,17.672,0,0,0,61.68,5.8Zm-5.086,7.4h3.82V7.711Q61.2,8.734,60.672,9.539t-1,1.461q-.473.656-.9,1.188T57.961,13.2ZM73,11.352a11.005,11.005,0,0,1-.254,2.492,5.807,5.807,0,0,1-.734,1.832,3.305,3.305,0,0,1-1.18,1.133,3.23,3.23,0,0,1-1.59.387,3.016,3.016,0,0,1-1.5-.371,3.152,3.152,0,0,1-1.113-1.082A5.484,5.484,0,0,1,65.938,14a10.8,10.8,0,0,1-.234-2.371,12.222,12.222,0,0,1,.246-2.594,5.933,5.933,0,0,1,.723-1.887A3.217,3.217,0,0,1,67.855,6a3.323,3.323,0,0,1,1.621-.387Q73,5.609,73,11.352Zm-1.312.125q0-4.781-2.273-4.781-2.4,0-2.4,4.867,0,4.539,2.352,4.539Q71.688,16.1,71.688,11.477Zm3.711,5.7a.829.829,0,0,1-.613-.258.849.849,0,0,1-.254-.617.862.862,0,0,1,.254-.621.823.823,0,0,1,.613-.262.845.845,0,0,1,.625.262.855.855,0,0,1,.258.621.842.842,0,0,1-.258.617A.851.851,0,0,1,75.4,17.172Zm9.7-5.82a11.005,11.005,0,0,1-.254,2.492,5.807,5.807,0,0,1-.734,1.832,3.305,3.305,0,0,1-1.18,1.133,3.23,3.23,0,0,1-1.59.387,3.016,3.016,0,0,1-1.5-.371,3.152,3.152,0,0,1-1.113-1.082A5.484,5.484,0,0,1,78.031,14a10.8,10.8,0,0,1-.234-2.371,12.222,12.222,0,0,1,.246-2.594,5.933,5.933,0,0,1,.723-1.887A3.217,3.217,0,0,1,79.949,6a3.323,3.323,0,0,1,1.621-.387Q85.094,5.609,85.094,11.352Zm-1.312.125q0-4.781-2.273-4.781-2.4,0-2.4,4.867,0,4.539,2.352,4.539Q83.781,16.1,83.781,11.477Zm9.938-.125a11.005,11.005,0,0,1-.254,2.492,5.807,5.807,0,0,1-.734,1.832,3.305,3.305,0,0,1-1.18,1.133,3.23,3.23,0,0,1-1.59.387,3.016,3.016,0,0,1-1.5-.371,3.152,3.152,0,0,1-1.113-1.082A5.484,5.484,0,0,1,86.656,14a10.8,10.8,0,0,1-.234-2.371,12.222,12.222,0,0,1,.246-2.594,5.933,5.933,0,0,1,.723-1.887A3.217,3.217,0,0,1,88.574,6,3.323,3.323,0,0,1,90.2,5.609Q93.719,5.609,93.719,11.352Zm-1.312.125q0-4.781-2.273-4.781-2.4,0-2.4,4.867,0,4.539,2.352,4.539Q92.406,16.1,92.406,11.477Zm9.938-.125a11.005,11.005,0,0,1-.254,2.492,5.807,5.807,0,0,1-.734,1.832,3.305,3.305,0,0,1-1.18,1.133,3.23,3.23,0,0,1-1.59.387,3.016,3.016,0,0,1-1.5-.371,3.152,3.152,0,0,1-1.113-1.082A5.484,5.484,0,0,1,95.281,14a10.8,10.8,0,0,1-.234-2.371,12.222,12.222,0,0,1,.246-2.594,5.933,5.933,0,0,1,.723-1.887A3.217,3.217,0,0,1,97.2,6a3.323,3.323,0,0,1,1.621-.387Q102.344,5.609,102.344,11.352Zm-1.312.125q0-4.781-2.273-4.781-2.4,0-2.4,4.867,0,4.539,2.352,4.539Q101.031,16.1,101.031,11.477Z" transform="translate(498.069 213.043)" fill="#00223d"/>
      <path id="Trazado_1054799" data-name="Trazado 1054799" d="M11.773,16.57v-2.5a4.8,4.8,0,0,0,1.477.855,4.746,4.746,0,0,0,1.609.285,3.569,3.569,0,0,0,.832-.086,1.949,1.949,0,0,0,.594-.238,1.039,1.039,0,0,0,.355-.359.9.9,0,0,0,.117-.449.971.971,0,0,0-.187-.586,2.018,2.018,0,0,0-.512-.477,5.347,5.347,0,0,0-.77-.422q-.445-.2-.961-.414a4.9,4.9,0,0,1-1.957-1.336,2.917,2.917,0,0,1-.645-1.906,3.036,3.036,0,0,1,.352-1.5A2.986,2.986,0,0,1,13.035,6.4a4.291,4.291,0,0,1,1.4-.6,7.206,7.206,0,0,1,1.688-.191,10.15,10.15,0,0,1,1.551.105,6.1,6.1,0,0,1,1.246.324V8.375a3.768,3.768,0,0,0-.613-.344,4.859,4.859,0,0,0-.684-.246,5.214,5.214,0,0,0-.7-.145,4.949,4.949,0,0,0-.66-.047,3.443,3.443,0,0,0-.781.082,2,2,0,0,0-.594.23,1.147,1.147,0,0,0-.375.355.843.843,0,0,0-.133.465.888.888,0,0,0,.148.5,1.7,1.7,0,0,0,.422.422,4.477,4.477,0,0,0,.664.391q.391.191.883.395a9.837,9.837,0,0,1,1.207.6,4.291,4.291,0,0,1,.918.715,2.785,2.785,0,0,1,.586.91,3.216,3.216,0,0,1,.2,1.191,3.191,3.191,0,0,1-.355,1.574,2.886,2.886,0,0,1-.965,1.031,4.184,4.184,0,0,1-1.418.566,8.2,8.2,0,0,1-1.707.172,9.492,9.492,0,0,1-1.754-.156A5.3,5.3,0,0,1,11.773,16.57Zm18.617-4.422q0,5.047-4.7,5.047-4.562,0-4.562-4.93V5.8h2.531v6.5q0,2.719,2.125,2.719,2.086,0,2.086-2.625V5.8h2.523ZM32.828,17V5.8h4.078a5.093,5.093,0,0,1,2.883.688A2.211,2.211,0,0,1,40.8,8.422a2.293,2.293,0,0,1-.613,1.586,3.222,3.222,0,0,1-1.566.945v.031a3.1,3.1,0,0,1,1.91.883,2.469,2.469,0,0,1,.715,1.789,2.99,2.99,0,0,1-1.1,2.441,4.61,4.61,0,0,1-3.008.9Zm2.523-9.344v2.656h1.109a1.849,1.849,0,0,0,1.23-.379,1.291,1.291,0,0,0,.449-1.043q0-1.234-1.844-1.234Zm0,4.531v2.953h1.367a2.1,2.1,0,0,0,1.371-.406,1.357,1.357,0,0,0,.5-1.109A1.266,1.266,0,0,0,38.1,12.57a2.16,2.16,0,0,0-1.363-.383ZM50.57,7.852h-3.2V17H44.844V7.852h-3.18V5.8H50.57ZM56.219,17.2A5.215,5.215,0,0,1,52.3,15.629a5.624,5.624,0,0,1-1.516-4.082,6.026,6.026,0,0,1,1.539-4.3A5.328,5.328,0,0,1,56.4,5.609a5.085,5.085,0,0,1,3.879,1.57,5.79,5.79,0,0,1,1.48,4.141,5.929,5.929,0,0,1-1.535,4.258A5.269,5.269,0,0,1,56.219,17.2Zm.109-9.414a2.54,2.54,0,0,0-2.109,1,4.153,4.153,0,0,0-.781,2.637,4.077,4.077,0,0,0,.781,2.633,2.7,2.7,0,0,0,4.117.027,4.032,4.032,0,0,0,.766-2.613,4.369,4.369,0,0,0-.742-2.711A2.42,2.42,0,0,0,56.328,7.781Zm14.516.07h-3.2V17H65.117V7.852h-3.18V5.8h8.906ZM81.086,17h-2.75l-.8-2.492H73.555L72.766,17H70.031L74.109,5.8H77.1Zm-4.125-4.43L75.758,8.8A4.908,4.908,0,0,1,75.57,7.8h-.062a4.273,4.273,0,0,1-.2.977l-1.219,3.8ZM89.156,17H82.484V5.8h2.523v9.156h4.148ZM100.3,5.547V17H97.836V8.328a2.947,2.947,0,0,1-.48.34,4.96,4.96,0,0,1-.59.289,5.267,5.267,0,0,1-.648.219,4.736,4.736,0,0,1-.664.129V7.227a10.266,10.266,0,0,0,1.813-.719A10.315,10.315,0,0,0,98.8,5.547ZM11.422,56V44.8h3.969q5.969,0,5.969,5.461a5.522,5.522,0,0,1-1.629,4.18A6.007,6.007,0,0,1,15.391,56Zm2.523-9.148v7.1H15.2a3.378,3.378,0,0,0,2.574-.984,3.735,3.735,0,0,0,.934-2.68,3.388,3.388,0,0,0-.926-2.52,3.529,3.529,0,0,0-2.6-.918ZM29.938,56H23.219V44.8H29.68v2.055H25.742v2.492h3.664v2.047H25.742v2.563h4.2Zm9.828-.4a7.388,7.388,0,0,1-3.2.594,5.4,5.4,0,0,1-4.055-1.516,5.54,5.54,0,0,1-1.477-4.039,5.919,5.919,0,0,1,1.66-4.359A5.807,5.807,0,0,1,37,44.609a8.058,8.058,0,0,1,2.766.414v2.43a4.9,4.9,0,0,0-2.562-.672,3.4,3.4,0,0,0-2.547.992,3.682,3.682,0,0,0-.969,2.688,3.611,3.611,0,0,0,.914,2.59,3.229,3.229,0,0,0,2.461.965,5.249,5.249,0,0,0,2.7-.719Zm9.82-8.75h-3.2V56H43.859V46.852H40.68V44.8h8.906ZM55.234,56.2a5.215,5.215,0,0,1-3.922-1.566A5.624,5.624,0,0,1,49.8,50.547a6.026,6.026,0,0,1,1.539-4.3,5.328,5.328,0,0,1,4.078-1.641,5.085,5.085,0,0,1,3.879,1.57,5.789,5.789,0,0,1,1.48,4.141,5.929,5.929,0,0,1-1.535,4.258A5.269,5.269,0,0,1,55.234,56.2Zm.109-9.414a2.54,2.54,0,0,0-2.109,1,4.153,4.153,0,0,0-.781,2.637,4.077,4.077,0,0,0,.781,2.633,2.7,2.7,0,0,0,4.117.027,4.032,4.032,0,0,0,.766-2.613,4.369,4.369,0,0,0-.742-2.711A2.42,2.42,0,0,0,55.344,46.781ZM75.078,55.6a7.388,7.388,0,0,1-3.2.594A5.4,5.4,0,0,1,67.82,54.68a5.54,5.54,0,0,1-1.477-4.039A5.919,5.919,0,0,1,68,46.281a5.807,5.807,0,0,1,4.309-1.672,8.058,8.058,0,0,1,2.766.414v2.43a4.9,4.9,0,0,0-2.562-.672,3.4,3.4,0,0,0-2.547.992A3.682,3.682,0,0,0,69,50.461a3.611,3.611,0,0,0,.914,2.59,3.229,3.229,0,0,0,2.461.965,5.249,5.249,0,0,0,2.7-.719Zm6.492.594a5.215,5.215,0,0,1-3.922-1.566,5.624,5.624,0,0,1-1.516-4.082,6.026,6.026,0,0,1,1.539-4.3,5.328,5.328,0,0,1,4.078-1.641,5.085,5.085,0,0,1,3.879,1.57,5.79,5.79,0,0,1,1.48,4.141,5.929,5.929,0,0,1-1.535,4.258A5.269,5.269,0,0,1,81.57,56.2Zm.109-9.414a2.54,2.54,0,0,0-2.109,1,4.153,4.153,0,0,0-.781,2.637,4.077,4.077,0,0,0,.781,2.633,2.7,2.7,0,0,0,4.117.027,4.032,4.032,0,0,0,.766-2.613,4.369,4.369,0,0,0-.742-2.711A2.42,2.42,0,0,0,81.68,46.781ZM101.734,56H99.242V49.3q0-1.086.094-2.4h-.062a11.8,11.8,0,0,1-.352,1.484L96.3,56H94.234l-2.672-7.539a14.672,14.672,0,0,1-.352-1.562h-.07q.1,1.656.1,2.906V56H88.969V44.8h3.7l2.289,6.641a9.35,9.35,0,0,1,.4,1.6H95.4a16.127,16.127,0,0,1,.445-1.617L98.133,44.8h3.6ZM11.773,94.57v-2.5a4.8,4.8,0,0,0,1.477.855,4.746,4.746,0,0,0,1.609.285,3.569,3.569,0,0,0,.832-.086,1.949,1.949,0,0,0,.594-.238,1.039,1.039,0,0,0,.355-.359.9.9,0,0,0,.117-.449.971.971,0,0,0-.187-.586,2.018,2.018,0,0,0-.512-.477,5.346,5.346,0,0,0-.77-.422q-.445-.2-.961-.414a4.9,4.9,0,0,1-1.957-1.336,2.917,2.917,0,0,1-.645-1.906,3.036,3.036,0,0,1,.352-1.5,2.986,2.986,0,0,1,.957-1.035,4.291,4.291,0,0,1,1.4-.6,7.206,7.206,0,0,1,1.688-.191,10.15,10.15,0,0,1,1.551.105,6.1,6.1,0,0,1,1.246.324v2.336a3.768,3.768,0,0,0-.613-.344,4.858,4.858,0,0,0-.684-.246,5.214,5.214,0,0,0-.7-.145,4.949,4.949,0,0,0-.66-.047,3.443,3.443,0,0,0-.781.082,2,2,0,0,0-.594.23,1.147,1.147,0,0,0-.375.355.843.843,0,0,0-.133.465.888.888,0,0,0,.148.5,1.7,1.7,0,0,0,.422.422,4.477,4.477,0,0,0,.664.391q.391.191.883.395a9.837,9.837,0,0,1,1.207.6,4.291,4.291,0,0,1,.918.715,2.785,2.785,0,0,1,.586.91,3.634,3.634,0,0,1-.152,2.766,2.886,2.886,0,0,1-.965,1.031,4.184,4.184,0,0,1-1.418.566,8.2,8.2,0,0,1-1.707.172,9.492,9.492,0,0,1-1.754-.156A5.294,5.294,0,0,1,11.773,94.57Zm18.617-4.422q0,5.047-4.7,5.047-4.562,0-4.562-4.93V83.8h2.531v6.5q0,2.719,2.125,2.719,2.086,0,2.086-2.625V83.8h2.523ZM32.828,95V83.8h4.078a5.093,5.093,0,0,1,2.883.688A2.211,2.211,0,0,1,40.8,86.422a2.293,2.293,0,0,1-.613,1.586,3.222,3.222,0,0,1-1.566.945v.031a3.1,3.1,0,0,1,1.91.883,2.469,2.469,0,0,1,.715,1.789,2.99,2.99,0,0,1-1.1,2.441,4.61,4.61,0,0,1-3.008.9Zm2.523-9.344v2.656h1.109a1.849,1.849,0,0,0,1.23-.379,1.291,1.291,0,0,0,.449-1.043q0-1.234-1.844-1.234Zm0,4.531v2.953h1.367a2.1,2.1,0,0,0,1.371-.406,1.357,1.357,0,0,0,.5-1.109A1.266,1.266,0,0,0,38.1,90.57a2.16,2.16,0,0,0-1.363-.383ZM50.57,85.852h-3.2V95H44.844V85.852h-3.18V83.8H50.57ZM56.219,95.2A5.215,5.215,0,0,1,52.3,93.629a5.624,5.624,0,0,1-1.516-4.082,6.026,6.026,0,0,1,1.539-4.3A5.328,5.328,0,0,1,56.4,83.609a5.085,5.085,0,0,1,3.879,1.57,5.79,5.79,0,0,1,1.48,4.141,5.929,5.929,0,0,1-1.535,4.258A5.269,5.269,0,0,1,56.219,95.2Zm.109-9.414a2.54,2.54,0,0,0-2.109,1,4.153,4.153,0,0,0-.781,2.637,4.077,4.077,0,0,0,.781,2.633,2.5,2.5,0,0,0,2.047.969,2.528,2.528,0,0,0,2.07-.941,4.032,4.032,0,0,0,.766-2.613,4.369,4.369,0,0,0-.742-2.711A2.42,2.42,0,0,0,56.328,85.781Zm14.516.07h-3.2V95H65.117V85.852h-3.18V83.8h8.906ZM81.086,95h-2.75l-.8-2.492H73.555L72.766,95H70.031l4.078-11.2H77.1Zm-4.125-4.43-1.2-3.766A4.908,4.908,0,0,1,75.57,85.8h-.062a4.273,4.273,0,0,1-.2.977l-1.219,3.8ZM89.156,95H82.484V83.8h2.523v9.156h4.148Zm7.992-2.047h4.75V95H94.445v-.844a3.927,3.927,0,0,1,.289-1.543,5.12,5.12,0,0,1,.727-1.227,6.3,6.3,0,0,1,.957-.961q.52-.418.988-.754.492-.352.863-.672a4.919,4.919,0,0,0,.625-.637,2.421,2.421,0,0,0,.379-.641,1.905,1.905,0,0,0,.125-.691,1.39,1.39,0,0,0-.406-1.086,1.806,1.806,0,0,0-1.242-.367,4.172,4.172,0,0,0-2.766,1.148V84.555a5.937,5.937,0,0,1,3.3-.945,4.869,4.869,0,0,1,1.527.223,3.231,3.231,0,0,1,1.145.637,2.716,2.716,0,0,1,.715,1,3.388,3.388,0,0,1,.246,1.316,3.712,3.712,0,0,1-.238,1.375,4.225,4.225,0,0,1-.633,1.094,5.74,5.74,0,0,1-.91.9q-.516.41-1.07.793-.375.266-.723.527a6.85,6.85,0,0,0-.613.516,2.8,2.8,0,0,0-.422.5A.856.856,0,0,0,97.148,92.953ZM57.063,134H54.539V122.8h2.523Zm11.875-11.2L65.078,134H62.219l-3.812-11.2h2.719l2.336,7.8a5.584,5.584,0,0,1,.227,1.117h.047a6.315,6.315,0,0,1,.242-1.148L66.3,122.8ZM79.3,134h-2.75l-.8-2.492H71.773L70.984,134H68.25l4.078-11.2H75.32Zm-4.125-4.43-1.2-3.766a4.908,4.908,0,0,1-.187-1.008h-.062a4.273,4.273,0,0,1-.2.977l-1.219,3.8ZM86.7,122.8l-5.461,13.063h-2.2L84.477,122.8Zm6.563,2.977-2.141.289,1.531,1.648-1.422.977-1.07-1.984-1.07,1.984-1.43-.977,1.539-1.648-2.141-.289.555-1.578,1.969.844L89.25,122.8h1.828l-.336,2.242L92.7,124.2Zm7.031-3.227V134H97.836v-8.672a2.947,2.947,0,0,1-.48.34,4.96,4.96,0,0,1-.59.289,5.267,5.267,0,0,1-.648.219,4.736,4.736,0,0,1-.664.129v-2.078a10.435,10.435,0,0,0,3.352-1.68ZM41.7,173H38.8l-1.742-2.883q-.2-.328-.375-.586a3.255,3.255,0,0,0-.363-.441,1.445,1.445,0,0,0-.383-.281.972.972,0,0,0-.434-.1h-.68V173H32.3V161.8h4q4.078,0,4.078,3.047a3.155,3.155,0,0,1-.18,1.082,3.006,3.006,0,0,1-.508.895,3.219,3.219,0,0,1-.793.688,4.09,4.09,0,0,1-1.035.453v.031a1.605,1.605,0,0,1,.484.254,3.468,3.468,0,0,1,.453.41,5.723,5.723,0,0,1,.418.5q.2.27.363.527Zm-6.875-9.312V166.8h1.094a1.813,1.813,0,0,0,1.3-.469,1.564,1.564,0,0,0,.5-1.18q0-1.469-1.758-1.469Zm14.4.164H45.273v2.75h3.633v2.047H45.273V173H42.75V161.8h6.477ZM60.469,173h-2.9l-1.742-2.883q-.2-.328-.375-.586a3.255,3.255,0,0,0-.363-.441,1.445,1.445,0,0,0-.383-.281.972.972,0,0,0-.434-.1h-.68V173H51.07V161.8h4q4.078,0,4.078,3.047a3.155,3.155,0,0,1-.18,1.082,3.006,3.006,0,0,1-.508.895,3.219,3.219,0,0,1-.793.688,4.09,4.09,0,0,1-1.035.453v.031a1.605,1.605,0,0,1,.484.254,3.468,3.468,0,0,1,.453.41,5.723,5.723,0,0,1,.418.5q.2.27.363.527Zm-6.875-9.312V166.8h1.094a1.813,1.813,0,0,0,1.3-.469,1.564,1.564,0,0,0,.5-1.18q0-1.469-1.758-1.469Zm15.469.164h-3.2V173H63.336v-9.148h-3.18V161.8h8.906ZM79.3,173h-2.75l-.8-2.492H71.773L70.984,173H68.25l4.078-11.2H75.32Zm-4.125-4.43-1.2-3.766a4.908,4.908,0,0,1-.187-1.008h-.062a4.273,4.273,0,0,1-.2.977l-1.219,3.8ZM86.7,161.8l-5.461,13.063h-2.2L84.477,161.8Zm6.563,2.977-2.141.289,1.531,1.648-1.422.977-1.07-1.984-1.07,1.984-1.43-.977,1.539-1.648-2.141-.289.555-1.578,1.969.844L89.25,161.8h1.828l-.336,2.242L92.7,163.2Zm7.031-3.227V173H97.836v-8.672a2.946,2.946,0,0,1-.48.34,4.961,4.961,0,0,1-.59.289,5.266,5.266,0,0,1-.648.219,4.738,4.738,0,0,1-.664.129v-2.078a10.435,10.435,0,0,0,3.352-1.68ZM45.172,212h-2.9l-1.742-2.883q-.2-.328-.375-.586a3.255,3.255,0,0,0-.363-.441,1.445,1.445,0,0,0-.383-.281.972.972,0,0,0-.434-.1H38.3V212H35.773V200.8h4q4.078,0,4.078,3.047a3.155,3.155,0,0,1-.18,1.082,3.006,3.006,0,0,1-.508.895,3.219,3.219,0,0,1-.793.688,4.09,4.09,0,0,1-1.035.453v.031a1.605,1.605,0,0,1,.484.254,3.468,3.468,0,0,1,.453.41,5.723,5.723,0,0,1,.418.5q.2.27.363.527ZM38.3,202.688V205.8h1.094a1.813,1.813,0,0,0,1.3-.469,1.564,1.564,0,0,0,.5-1.18q0-1.469-1.758-1.469Zm14.4.164H48.742v2.75h3.633v2.047H48.742V212H46.219V200.8H52.7ZM57.063,212H54.539V200.8h2.523Zm11.875-11.2L65.078,212H62.219l-3.812-11.2h2.719l2.336,7.8a5.584,5.584,0,0,1,.227,1.117h.047a6.315,6.315,0,0,1,.242-1.148L66.3,200.8ZM79.3,212h-2.75l-.8-2.492H71.773L70.984,212H68.25l4.078-11.2H75.32Zm-4.125-4.43-1.2-3.766a4.908,4.908,0,0,1-.187-1.008h-.062a4.273,4.273,0,0,1-.2.977l-1.219,3.8ZM86.7,200.8l-5.461,13.063h-2.2L84.477,200.8Zm6.563,2.977-2.141.289,1.531,1.648-1.422.977-1.07-1.984-1.07,1.984-1.43-.977,1.539-1.648-2.141-.289.555-1.578,1.969.844L89.25,200.8h1.828l-.336,2.242L92.7,202.2Zm3.883,6.18h4.75V212H94.445v-.844a3.927,3.927,0,0,1,.289-1.543,5.12,5.12,0,0,1,.727-1.227,6.3,6.3,0,0,1,.957-.961q.52-.418.988-.754.492-.352.863-.672a4.92,4.92,0,0,0,.625-.637,2.421,2.421,0,0,0,.379-.641,1.905,1.905,0,0,0,.125-.691,1.39,1.39,0,0,0-.406-1.086,1.806,1.806,0,0,0-1.242-.367,4.172,4.172,0,0,0-2.766,1.148v-2.172a5.937,5.937,0,0,1,3.3-.945,4.869,4.869,0,0,1,1.527.223,3.231,3.231,0,0,1,1.145.637,2.716,2.716,0,0,1,.715,1,3.388,3.388,0,0,1,.246,1.316,3.712,3.712,0,0,1-.238,1.375,4.225,4.225,0,0,1-.633,1.094,5.74,5.74,0,0,1-.91.9q-.516.41-1.07.793-.375.266-.723.527a6.853,6.853,0,0,0-.613.516,2.8,2.8,0,0,0-.422.5A.856.856,0,0,0,97.148,209.953ZM45.031,251h-2.9l-1.742-2.883q-.2-.328-.375-.586a3.255,3.255,0,0,0-.363-.441,1.445,1.445,0,0,0-.383-.281.972.972,0,0,0-.434-.1h-.68V251H35.633V239.8h4q4.078,0,4.078,3.047a3.155,3.155,0,0,1-.18,1.082,3.006,3.006,0,0,1-.508.895,3.219,3.219,0,0,1-.793.688,4.09,4.09,0,0,1-1.035.453v.031a1.605,1.605,0,0,1,.484.254,3.468,3.468,0,0,1,.453.41,5.723,5.723,0,0,1,.418.5q.2.27.363.527Zm-6.875-9.312V244.8H39.25a1.813,1.813,0,0,0,1.3-.469,1.564,1.564,0,0,0,.5-1.18q0-1.469-1.758-1.469Zm14.4.164H48.6v2.75h3.633v2.047H48.6V251H46.078V239.8h6.477ZM56.922,251H54.4V239.8h2.523Zm10.578-.4a7.388,7.388,0,0,1-3.2.594,5.4,5.4,0,0,1-4.055-1.516,5.54,5.54,0,0,1-1.477-4.039,5.919,5.919,0,0,1,1.66-4.359,5.807,5.807,0,0,1,4.309-1.672,8.058,8.058,0,0,1,2.766.414v2.43a4.9,4.9,0,0,0-2.562-.672,3.4,3.4,0,0,0-2.547.992,3.682,3.682,0,0,0-.969,2.688,3.611,3.611,0,0,0,.914,2.59,3.229,3.229,0,0,0,2.461.965,5.249,5.249,0,0,0,2.7-.719Zm11.8.4h-2.75l-.8-2.492H71.773L70.984,251H68.25l4.078-11.2H75.32Zm-4.125-4.43-1.2-3.766a4.908,4.908,0,0,1-.187-1.008h-.062a4.273,4.273,0,0,1-.2.977l-1.219,3.8ZM86.7,239.8l-5.461,13.063h-2.2L84.477,239.8Zm6.563,2.977-2.141.289,1.531,1.648-1.422.977-1.07-1.984-1.07,1.984-1.43-.977,1.539-1.648-2.141-.289.555-1.578,1.969.844L89.25,239.8h1.828l-.336,2.242L92.7,241.2Zm7.031-3.227V251H97.836v-8.672a2.946,2.946,0,0,1-.48.34,4.961,4.961,0,0,1-.59.289,5.266,5.266,0,0,1-.648.219,4.738,4.738,0,0,1-.664.129v-2.078a10.435,10.435,0,0,0,3.352-1.68Zm-36.109,41.3h-3.2V290H58.461v-9.148h-3.18V278.8h8.906Zm5.648,9.344a5.215,5.215,0,0,1-3.922-1.566,5.624,5.624,0,0,1-1.516-4.082,6.026,6.026,0,0,1,1.539-4.3,5.328,5.328,0,0,1,4.078-1.641,5.085,5.085,0,0,1,3.879,1.57,5.79,5.79,0,0,1,1.48,4.141,5.929,5.929,0,0,1-1.535,4.258A5.269,5.269,0,0,1,69.836,290.2Zm.109-9.414a2.54,2.54,0,0,0-2.109,1,4.153,4.153,0,0,0-.781,2.637,4.077,4.077,0,0,0,.781,2.633,2.5,2.5,0,0,0,2.047.969,2.528,2.528,0,0,0,2.07-.941,4.032,4.032,0,0,0,.766-2.613,4.369,4.369,0,0,0-.742-2.711A2.42,2.42,0,0,0,69.945,280.781Zm14.516.07h-3.2V290H78.734v-9.148h-3.18V278.8h8.906ZM94.7,290h-2.75l-.8-2.492H87.172L86.383,290H83.648l4.078-11.2h2.992Zm-4.125-4.43-1.2-3.766a4.908,4.908,0,0,1-.187-1.008h-.062a4.273,4.273,0,0,1-.2.977l-1.219,3.8Zm12.2,4.43H96.1V278.8h2.523v9.156h4.148Z" transform="translate(498.068 249.043)" fill="#00223d"/>
      <path id="Trazado_1054795" data-name="Trazado 1054795" d="M31.371,12.469q0,4.719-4.258,4.719-4.078,0-4.078-4.539V5.8h1.313v6.766q0,3.445,2.906,3.445,2.8,0,2.8-3.328V5.8h1.313ZM43.2,17H41.59L35.824,8.07a3.731,3.731,0,0,1-.359-.7h-.047a11.534,11.534,0,0,1,.063,1.539V17H34.168V5.8h1.7l5.609,8.789q.352.547.453.75h.031a11.853,11.853,0,0,1-.078-1.648V5.8H43.2Zm4.25,0H46.137V5.8h1.313Zm2.945,0V5.8h3.094q5.922,0,5.922,5.461a5.5,5.5,0,0,1-1.645,4.168A6.1,6.1,0,0,1,53.363,17ZM51.707,6.984v8.828h1.672a4.745,4.745,0,0,0,3.43-1.18,4.422,4.422,0,0,0,1.227-3.344q0-4.3-4.578-4.3ZM69.895,17H68.441l-1.187-3.141H62.5L61.387,17H59.926l4.3-11.2h1.359Zm-3.07-4.32L65.066,7.906a4.571,4.571,0,0,1-.172-.75h-.031a4.185,4.185,0,0,1-.18.75L62.941,12.68ZM71.543,17V5.8h3.094q5.922,0,5.922,5.461a5.5,5.5,0,0,1-1.645,4.168A6.1,6.1,0,0,1,74.512,17ZM72.855,6.984v8.828h1.672a4.745,4.745,0,0,0,3.43-1.18,4.422,4.422,0,0,0,1.227-3.344q0-4.3-4.578-4.3ZM53.691,52.047H49.426V51.039h4.266Zm0,39H49.426V90.039h4.266Zm0,39H49.426v-1.008h4.266Zm0,39H49.426v-1.008h4.266Zm0,39H49.426v-1.008h4.266Zm0,39H49.426v-1.008h4.266Zm0,39H49.426v-1.008h4.266Zm0,39H49.426v-1.008h4.266Z" transform="translate(666.928 213.043)" fill="#00223d"/>
      <path id="Trazado_1054796" data-name="Trazado 1054796" d="M33.016,16.938v1.7H32.2V17a4.9,4.9,0,0,1-2.7-.672V14.969a3.661,3.661,0,0,0,1.238.668,4.528,4.528,0,0,0,1.465.27v-4a6.129,6.129,0,0,1-2.227-1.527,2.736,2.736,0,0,1-.508-1.652,2.763,2.763,0,0,1,.773-1.957A3.2,3.2,0,0,1,32.2,5.781V4.375h.813V5.75a4.324,4.324,0,0,1,2.117.438V7.516a3.549,3.549,0,0,0-2.117-.672v4.125a6.64,6.64,0,0,1,2.223,1.5,2.51,2.51,0,0,1,.6,1.645,2.545,2.545,0,0,1-.746,1.863A3.624,3.624,0,0,1,33.016,16.938ZM32.2,10.531V6.891a1.78,1.78,0,0,0-1.039.582,1.623,1.623,0,0,0-.383,1.09,1.826,1.826,0,0,0,.313,1.1A3.367,3.367,0,0,0,32.2,10.531Zm.813,1.781v3.531q1.508-.328,1.508-1.625Q34.523,13.141,33.016,12.313Zm11.258,1.516a3.266,3.266,0,0,1-.285,1.379,3.045,3.045,0,0,1-.8,1.063,3.714,3.714,0,0,1-1.246.684,5.04,5.04,0,0,1-1.6.242,4.654,4.654,0,0,1-2.547-.609V15.211a4.081,4.081,0,0,0,2.594.891,3.525,3.525,0,0,0,1.059-.148,2.374,2.374,0,0,0,.813-.43,1.909,1.909,0,0,0,.523-.68,2.123,2.123,0,0,0,.184-.9q0-2.2-3.125-2.2h-.93V10.664h.883q2.766,0,2.766-2.062,0-1.906-2.109-1.906a3.592,3.592,0,0,0-2.227.8V6.25a4.868,4.868,0,0,1,2.547-.641,3.913,3.913,0,0,1,1.273.2,2.918,2.918,0,0,1,.977.547,2.423,2.423,0,0,1,.629.844,2.6,2.6,0,0,1,.223,1.086,2.735,2.735,0,0,1-2.234,2.844v.031a3.534,3.534,0,0,1,1.055.277,2.814,2.814,0,0,1,.836.559,2.49,2.49,0,0,1,.551.809A2.582,2.582,0,0,1,44.273,13.828ZM47.2,17.172a.829.829,0,0,1-.613-.258.849.849,0,0,1-.254-.617.862.862,0,0,1,.254-.621.823.823,0,0,1,.613-.262.845.845,0,0,1,.625.262.855.855,0,0,1,.258.621.842.842,0,0,1-.258.617A.851.851,0,0,1,47.2,17.172Zm9.7-5.82a11.005,11.005,0,0,1-.254,2.492,5.807,5.807,0,0,1-.734,1.832,3.305,3.305,0,0,1-1.18,1.133,3.23,3.23,0,0,1-1.59.387,3.016,3.016,0,0,1-1.5-.371,3.152,3.152,0,0,1-1.113-1.082A5.484,5.484,0,0,1,49.828,14a10.8,10.8,0,0,1-.234-2.371,12.222,12.222,0,0,1,.246-2.594,5.933,5.933,0,0,1,.723-1.887A3.216,3.216,0,0,1,51.746,6a3.323,3.323,0,0,1,1.621-.387Q56.891,5.609,56.891,11.352Zm-1.312.125Q55.578,6.7,53.3,6.7q-2.4,0-2.4,4.867,0,4.539,2.352,4.539Q55.578,16.1,55.578,11.477Zm9.938-.125a11.005,11.005,0,0,1-.254,2.492,5.807,5.807,0,0,1-.734,1.832,3.305,3.305,0,0,1-1.18,1.133,3.23,3.23,0,0,1-1.59.387,3.016,3.016,0,0,1-1.5-.371,3.152,3.152,0,0,1-1.113-1.082A5.484,5.484,0,0,1,58.453,14a10.8,10.8,0,0,1-.234-2.371,12.222,12.222,0,0,1,.246-2.594,5.933,5.933,0,0,1,.723-1.887A3.216,3.216,0,0,1,60.371,6a3.323,3.323,0,0,1,1.621-.387Q65.516,5.609,65.516,11.352Zm-1.312.125Q64.2,6.7,61.93,6.7q-2.4,0-2.4,4.867,0,4.539,2.352,4.539Q64.2,16.1,64.2,11.477Zm9.938-.125a11.005,11.005,0,0,1-.254,2.492,5.807,5.807,0,0,1-.734,1.832,3.305,3.305,0,0,1-1.18,1.133,3.23,3.23,0,0,1-1.59.387,3.016,3.016,0,0,1-1.5-.371,3.152,3.152,0,0,1-1.113-1.082A5.484,5.484,0,0,1,67.078,14a10.8,10.8,0,0,1-.234-2.371,12.222,12.222,0,0,1,.246-2.594,5.933,5.933,0,0,1,.723-1.887A3.217,3.217,0,0,1,69,6a3.323,3.323,0,0,1,1.621-.387Q74.141,5.609,74.141,11.352Zm-1.312.125q0-4.781-2.273-4.781-2.4,0-2.4,4.867,0,4.539,2.352,4.539Q72.828,16.1,72.828,11.477ZM53.691,52.047H49.426V51.039h4.266Zm0,78H49.426v-1.008h4.266Zm0,39H49.426v-1.008h4.266Zm-19.57,34.688a2.316,2.316,0,0,0-.16-.9,1.739,1.739,0,0,0-1.09-1.016,2.555,2.555,0,0,0-.812-.125,2.688,2.688,0,0,0-.734.1,3.569,3.569,0,0,0-.7.281,4.3,4.3,0,0,0-.656.43,4.741,4.741,0,0,0-.59.555v-1.375a3.831,3.831,0,0,1,1.207-.8,4.25,4.25,0,0,1,1.629-.277,3.932,3.932,0,0,1,1.273.2,2.92,2.92,0,0,1,1.016.582,2.691,2.691,0,0,1,.676.945,3.188,3.188,0,0,1,.246,1.289,4.42,4.42,0,0,1-.152,1.2,3.721,3.721,0,0,1-.461,1.016,4.9,4.9,0,0,1-.777.914,11.01,11.01,0,0,1-1.1.891q-.789.563-1.3.961a5.751,5.751,0,0,0-.812.746,2.165,2.165,0,0,0-.422.7,2.431,2.431,0,0,0-.121.8h5.578V212H28.941v-.555a4.622,4.622,0,0,1,.156-1.266,3.286,3.286,0,0,1,.516-1.039,5.767,5.767,0,0,1,.941-.984q.582-.492,1.426-1.109a9.014,9.014,0,0,0,1.02-.836,4.346,4.346,0,0,0,.66-.8,2.862,2.862,0,0,0,.355-.809A3.486,3.486,0,0,0,34.121,203.734Zm5.063,6.484-1.25,3.844H37.02l.914-3.844Zm8.57-1.641a3.771,3.771,0,0,1-.281,1.484,3.245,3.245,0,0,1-.8,1.141,3.586,3.586,0,0,1-1.254.734,4.9,4.9,0,0,1-1.633.258,4.511,4.511,0,0,1-2.32-.469v-1.359a4.266,4.266,0,0,0,2.336.734,3.161,3.161,0,0,0,1.1-.18,2.439,2.439,0,0,0,.832-.5,2.141,2.141,0,0,0,.527-.773,2.618,2.618,0,0,0,.184-.992,2.125,2.125,0,0,0-.734-1.715,3.221,3.221,0,0,0-2.133-.621q-.227,0-.477.008t-.5.02q-.25.012-.488.027t-.434.039l.383-5.617h5.18v1.156h-4.07l-.227,3.289q.25-.016.531-.027t.5-.012a5.028,5.028,0,0,1,1.594.234,3.377,3.377,0,0,1,1.191.668,2.8,2.8,0,0,1,.742,1.063A3.737,3.737,0,0,1,47.754,208.578Zm9.023-2.227a11.005,11.005,0,0,1-.254,2.492,5.807,5.807,0,0,1-.734,1.832,3.305,3.305,0,0,1-1.18,1.133,3.23,3.23,0,0,1-1.59.387,3.016,3.016,0,0,1-1.5-.371,3.152,3.152,0,0,1-1.113-1.082A5.484,5.484,0,0,1,49.715,209a10.8,10.8,0,0,1-.234-2.371,12.222,12.222,0,0,1,.246-2.594,5.933,5.933,0,0,1,.723-1.887A3.216,3.216,0,0,1,51.633,201a3.323,3.323,0,0,1,1.621-.387Q56.777,200.609,56.777,206.352Zm-1.312.125q0-4.781-2.273-4.781-2.4,0-2.4,4.867,0,4.539,2.352,4.539Q55.465,211.1,55.465,206.477Zm9.508-.062a2.361,2.361,0,0,1-1.844-.762,2.923,2.923,0,0,1-.687-2.035,3.14,3.14,0,0,1,.727-2.191,2.517,2.517,0,0,1,1.961-.8,2.354,2.354,0,0,1,1.855.742,3.033,3.033,0,0,1,.66,2.086,3.068,3.068,0,0,1-.738,2.152A2.5,2.5,0,0,1,64.973,206.414Zm.109-4.93a1.406,1.406,0,0,0-1.172.551,2.4,2.4,0,0,0-.43,1.512,2.3,2.3,0,0,0,.422,1.473,1.392,1.392,0,0,0,1.148.527A1.36,1.36,0,0,0,66.2,205a2.461,2.461,0,0,0,.414-1.516,2.347,2.347,0,0,0-.41-1.473A1.343,1.343,0,0,0,65.082,201.484Zm7.391-.687-7.187,11.281H64.168l7.18-11.281Zm-.828,11.375a2.355,2.355,0,0,1-1.844-.766,2.926,2.926,0,0,1-.687-2.031,3.148,3.148,0,0,1,.734-2.2,2.511,2.511,0,0,1,1.953-.809,2.344,2.344,0,0,1,1.852.75,3.567,3.567,0,0,1-.074,4.246A2.5,2.5,0,0,1,71.645,212.172Zm.109-4.922a1.407,1.407,0,0,0-1.176.547,2.411,2.411,0,0,0-.426,1.516,2.273,2.273,0,0,0,.422,1.457,1.392,1.392,0,0,0,1.148.527,1.356,1.356,0,0,0,1.148-.551,2.464,2.464,0,0,0,.414-1.512,2.31,2.31,0,0,0-.41-1.469A1.355,1.355,0,0,0,71.754,207.25Zm-18.062,39.8H49.426v-1.008h4.266ZM33.746,290H32.465v-9.68a2.964,2.964,0,0,1-.434.34,7.07,7.07,0,0,1-.641.379q-.355.188-.75.352a5.451,5.451,0,0,1-.77.258v-1.3a7.448,7.448,0,0,0,.895-.316q.473-.2.93-.445t.863-.516a6.854,6.854,0,0,0,.7-.527h.484Zm5.438-1.781-1.25,3.844H37.02l.914-3.844ZM45.84,290H44.559v-9.68a2.964,2.964,0,0,1-.434.34,7.07,7.07,0,0,1-.641.379q-.355.188-.75.352a5.45,5.45,0,0,1-.77.258v-1.3a7.448,7.448,0,0,0,.895-.316q.473-.2.93-.445t.863-.516a6.854,6.854,0,0,0,.7-.527h.484Zm10.938-5.648a11.005,11.005,0,0,1-.254,2.492,5.807,5.807,0,0,1-.734,1.832,3.305,3.305,0,0,1-1.18,1.133,3.23,3.23,0,0,1-1.59.387,3.016,3.016,0,0,1-1.5-.371,3.152,3.152,0,0,1-1.113-1.082A5.484,5.484,0,0,1,49.715,287a10.8,10.8,0,0,1-.234-2.371,12.222,12.222,0,0,1,.246-2.594,5.933,5.933,0,0,1,.723-1.887A3.216,3.216,0,0,1,51.633,279a3.323,3.323,0,0,1,1.621-.387Q56.777,278.609,56.777,284.352Zm-1.312.125q0-4.781-2.273-4.781-2.4,0-2.4,4.867,0,4.539,2.352,4.539Q55.465,289.1,55.465,284.477Zm9.508-.062a2.361,2.361,0,0,1-1.844-.762,2.922,2.922,0,0,1-.687-2.035,3.14,3.14,0,0,1,.727-2.191,2.517,2.517,0,0,1,1.961-.8,2.354,2.354,0,0,1,1.855.742,3.033,3.033,0,0,1,.66,2.086,3.068,3.068,0,0,1-.738,2.152A2.5,2.5,0,0,1,64.973,284.414Zm.109-4.93a1.406,1.406,0,0,0-1.172.551,2.4,2.4,0,0,0-.43,1.512,2.3,2.3,0,0,0,.422,1.473,1.392,1.392,0,0,0,1.148.527A1.36,1.36,0,0,0,66.2,283a2.461,2.461,0,0,0,.414-1.516,2.347,2.347,0,0,0-.41-1.473A1.343,1.343,0,0,0,65.082,279.484Zm7.391-.687-7.187,11.281H64.168l7.18-11.281Zm-.828,11.375a2.355,2.355,0,0,1-1.844-.766,2.926,2.926,0,0,1-.687-2.031,3.148,3.148,0,0,1,.734-2.2,2.511,2.511,0,0,1,1.953-.809,2.344,2.344,0,0,1,1.852.75,3.567,3.567,0,0,1-.074,4.246A2.5,2.5,0,0,1,71.645,290.172Zm.109-4.922a1.407,1.407,0,0,0-1.176.547,2.411,2.411,0,0,0-.426,1.516,2.273,2.273,0,0,0,.422,1.457,1.392,1.392,0,0,0,1.148.527,1.356,1.356,0,0,0,1.148-.551,2.464,2.464,0,0,0,.414-1.512,2.31,2.31,0,0,0-.41-1.469A1.355,1.355,0,0,0,71.754,285.25Zm-18.062,39.8H49.426v-1.008h4.266Z" transform="translate(876.076 213.043)" fill="#00223d"/>
      <path id="Trazado_1054797" data-name="Trazado 1054797" d="M14.625,16.938v1.7h-.812V17a4.9,4.9,0,0,1-2.7-.672V14.969a3.661,3.661,0,0,0,1.238.668,4.528,4.528,0,0,0,1.465.27v-4a6.129,6.129,0,0,1-2.227-1.527,2.736,2.736,0,0,1-.508-1.652,2.763,2.763,0,0,1,.773-1.957,3.2,3.2,0,0,1,1.961-.988V4.375h.813V5.75a4.324,4.324,0,0,1,2.117.438V7.516a3.549,3.549,0,0,0-2.117-.672v4.125a6.64,6.64,0,0,1,2.223,1.5,2.51,2.51,0,0,1,.6,1.645,2.545,2.545,0,0,1-.746,1.863A3.624,3.624,0,0,1,14.625,16.938Zm-.812-6.406V6.891a1.78,1.78,0,0,0-1.039.582,1.623,1.623,0,0,0-.383,1.09,1.826,1.826,0,0,0,.313,1.1A3.367,3.367,0,0,0,13.813,10.531Zm.813,1.781v3.531q1.508-.328,1.508-1.625Q16.133,13.141,14.625,12.313ZM24.094,17H22.813V7.32a2.966,2.966,0,0,1-.434.34,7.068,7.068,0,0,1-.641.379q-.355.188-.75.352a5.451,5.451,0,0,1-.77.258v-1.3a7.448,7.448,0,0,0,.895-.316q.473-.2.93-.445t.863-.516a6.854,6.854,0,0,0,.7-.527h.484Zm9-8.266a2.316,2.316,0,0,0-.16-.9,1.739,1.739,0,0,0-1.09-1.016,2.555,2.555,0,0,0-.812-.125,2.688,2.688,0,0,0-.734.1,3.57,3.57,0,0,0-.7.281,4.3,4.3,0,0,0-.656.43,4.74,4.74,0,0,0-.59.555V6.688a3.831,3.831,0,0,1,1.207-.8,4.25,4.25,0,0,1,1.629-.277,3.932,3.932,0,0,1,1.273.2,2.92,2.92,0,0,1,1.016.582,2.691,2.691,0,0,1,.676.945A3.188,3.188,0,0,1,34.4,8.625a4.42,4.42,0,0,1-.152,1.2,3.721,3.721,0,0,1-.461,1.016,4.9,4.9,0,0,1-.777.914,11.011,11.011,0,0,1-1.1.891q-.789.563-1.3.961a5.75,5.75,0,0,0-.812.746,2.165,2.165,0,0,0-.422.7,2.431,2.431,0,0,0-.121.8h5.578V17H27.914v-.555a4.622,4.622,0,0,1,.156-1.266,3.286,3.286,0,0,1,.516-1.039,5.767,5.767,0,0,1,.941-.984q.582-.492,1.426-1.109a9.014,9.014,0,0,0,1.02-.836,4.346,4.346,0,0,0,.66-.8,2.862,2.862,0,0,0,.355-.809A3.486,3.486,0,0,0,33.094,8.734Zm10.563,2.617a11.005,11.005,0,0,1-.254,2.492,5.807,5.807,0,0,1-.734,1.832,3.305,3.305,0,0,1-1.18,1.133,3.23,3.23,0,0,1-1.59.387,3.016,3.016,0,0,1-1.5-.371,3.152,3.152,0,0,1-1.113-1.082A5.484,5.484,0,0,1,36.594,14a10.8,10.8,0,0,1-.234-2.371,12.222,12.222,0,0,1,.246-2.594,5.933,5.933,0,0,1,.723-1.887A3.216,3.216,0,0,1,38.512,6a3.323,3.323,0,0,1,1.621-.387Q43.656,5.609,43.656,11.352Zm-1.312.125q0-4.781-2.273-4.781-2.4,0-2.4,4.867,0,4.539,2.352,4.539Q42.344,16.1,42.344,11.477Zm3.711,5.7a.829.829,0,0,1-.613-.258.849.849,0,0,1-.254-.617.862.862,0,0,1,.254-.621.823.823,0,0,1,.613-.262.845.845,0,0,1,.625.262.855.855,0,0,1,.258.621.842.842,0,0,1-.258.617A.851.851,0,0,1,46.055,17.172Zm9.7-5.82a11.005,11.005,0,0,1-.254,2.492,5.807,5.807,0,0,1-.734,1.832,3.305,3.305,0,0,1-1.18,1.133,3.23,3.23,0,0,1-1.59.387,3.016,3.016,0,0,1-1.5-.371,3.152,3.152,0,0,1-1.113-1.082A5.484,5.484,0,0,1,48.688,14a10.8,10.8,0,0,1-.234-2.371A12.222,12.222,0,0,1,48.7,9.031a5.933,5.933,0,0,1,.723-1.887A3.216,3.216,0,0,1,50.605,6a3.323,3.323,0,0,1,1.621-.387Q55.75,5.609,55.75,11.352Zm-1.312.125q0-4.781-2.273-4.781-2.4,0-2.4,4.867,0,4.539,2.352,4.539Q54.438,16.1,54.438,11.477Zm9.938-.125a11.005,11.005,0,0,1-.254,2.492,5.807,5.807,0,0,1-.734,1.832,3.305,3.305,0,0,1-1.18,1.133,3.23,3.23,0,0,1-1.59.387,3.016,3.016,0,0,1-1.5-.371A3.152,3.152,0,0,1,58,15.742,5.484,5.484,0,0,1,57.313,14a10.8,10.8,0,0,1-.234-2.371,12.222,12.222,0,0,1,.246-2.594,5.933,5.933,0,0,1,.723-1.887A3.216,3.216,0,0,1,59.23,6a3.323,3.323,0,0,1,1.621-.387Q64.375,5.609,64.375,11.352Zm-1.312.125q0-4.781-2.273-4.781-2.4,0-2.4,4.867,0,4.539,2.352,4.539Q63.063,16.1,63.063,11.477ZM73,11.352a11.005,11.005,0,0,1-.254,2.492,5.807,5.807,0,0,1-.734,1.832,3.305,3.305,0,0,1-1.18,1.133,3.23,3.23,0,0,1-1.59.387,3.016,3.016,0,0,1-1.5-.371,3.152,3.152,0,0,1-1.113-1.082A5.484,5.484,0,0,1,65.938,14a10.8,10.8,0,0,1-.234-2.371,12.222,12.222,0,0,1,.246-2.594,5.933,5.933,0,0,1,.723-1.887A3.217,3.217,0,0,1,67.855,6a3.323,3.323,0,0,1,1.621-.387Q73,5.609,73,11.352Zm-1.312.125q0-4.781-2.273-4.781-2.4,0-2.4,4.867,0,4.539,2.352,4.539Q71.688,16.1,71.688,11.477Zm3.711,5.7a.829.829,0,0,1-.613-.258.849.849,0,0,1-.254-.617.862.862,0,0,1,.254-.621.823.823,0,0,1,.613-.262.845.845,0,0,1,.625.262.855.855,0,0,1,.258.621.842.842,0,0,1-.258.617A.851.851,0,0,1,75.4,17.172Zm9.7-5.82a11.005,11.005,0,0,1-.254,2.492,5.807,5.807,0,0,1-.734,1.832,3.305,3.305,0,0,1-1.18,1.133,3.23,3.23,0,0,1-1.59.387,3.016,3.016,0,0,1-1.5-.371,3.152,3.152,0,0,1-1.113-1.082A5.484,5.484,0,0,1,78.031,14a10.8,10.8,0,0,1-.234-2.371,12.222,12.222,0,0,1,.246-2.594,5.933,5.933,0,0,1,.723-1.887A3.217,3.217,0,0,1,79.949,6a3.323,3.323,0,0,1,1.621-.387Q85.094,5.609,85.094,11.352Zm-1.312.125q0-4.781-2.273-4.781-2.4,0-2.4,4.867,0,4.539,2.352,4.539Q83.781,16.1,83.781,11.477Zm9.938-.125a11.005,11.005,0,0,1-.254,2.492,5.807,5.807,0,0,1-.734,1.832,3.305,3.305,0,0,1-1.18,1.133,3.23,3.23,0,0,1-1.59.387,3.016,3.016,0,0,1-1.5-.371,3.152,3.152,0,0,1-1.113-1.082A5.484,5.484,0,0,1,86.656,14a10.8,10.8,0,0,1-.234-2.371,12.222,12.222,0,0,1,.246-2.594,5.933,5.933,0,0,1,.723-1.887A3.217,3.217,0,0,1,88.574,6,3.323,3.323,0,0,1,90.2,5.609Q93.719,5.609,93.719,11.352Zm-1.312.125q0-4.781-2.273-4.781-2.4,0-2.4,4.867,0,4.539,2.352,4.539Q92.406,16.1,92.406,11.477Zm9.938-.125a11.005,11.005,0,0,1-.254,2.492,5.807,5.807,0,0,1-.734,1.832,3.305,3.305,0,0,1-1.18,1.133,3.23,3.23,0,0,1-1.59.387,3.016,3.016,0,0,1-1.5-.371,3.152,3.152,0,0,1-1.113-1.082A5.484,5.484,0,0,1,95.281,14a10.8,10.8,0,0,1-.234-2.371,12.222,12.222,0,0,1,.246-2.594,5.933,5.933,0,0,1,.723-1.887A3.217,3.217,0,0,1,97.2,6a3.323,3.323,0,0,1,1.621-.387Q102.344,5.609,102.344,11.352Zm-1.312.125q0-4.781-2.273-4.781-2.4,0-2.4,4.867,0,4.539,2.352,4.539Q101.031,16.1,101.031,11.477ZM14.625,55.938v1.7h-.812V56a4.9,4.9,0,0,1-2.7-.672V53.969a3.661,3.661,0,0,0,1.238.668,4.528,4.528,0,0,0,1.465.27v-4a6.129,6.129,0,0,1-2.227-1.527,2.9,2.9,0,0,1,.266-3.609,3.2,3.2,0,0,1,1.961-.988V43.375h.813V44.75a4.324,4.324,0,0,1,2.117.438v1.328a3.549,3.549,0,0,0-2.117-.672v4.125a6.64,6.64,0,0,1,2.223,1.5,2.51,2.51,0,0,1,.6,1.645,2.545,2.545,0,0,1-.746,1.863A3.624,3.624,0,0,1,14.625,55.938Zm-.812-6.406V45.891a1.78,1.78,0,0,0-1.039.582,1.623,1.623,0,0,0-.383,1.09,1.826,1.826,0,0,0,.313,1.1A3.367,3.367,0,0,0,13.813,49.531Zm.813,1.781v3.531q1.508-.328,1.508-1.625Q16.133,52.141,14.625,51.313ZM24.094,56H22.813V46.32a2.966,2.966,0,0,1-.434.34,7.067,7.067,0,0,1-.641.379q-.355.188-.75.352a5.451,5.451,0,0,1-.77.258v-1.3a7.448,7.448,0,0,0,.895-.316q.473-.2.93-.445t.863-.516a6.854,6.854,0,0,0,.7-.527h.484Zm9-8.266a2.316,2.316,0,0,0-.16-.9,1.739,1.739,0,0,0-1.09-1.016,2.555,2.555,0,0,0-.812-.125,2.688,2.688,0,0,0-.734.1,3.57,3.57,0,0,0-.7.281,4.3,4.3,0,0,0-.656.43,4.74,4.74,0,0,0-.59.555V45.688a3.831,3.831,0,0,1,1.207-.8,4.25,4.25,0,0,1,1.629-.277,3.932,3.932,0,0,1,1.273.2,2.92,2.92,0,0,1,1.016.582,2.691,2.691,0,0,1,.676.945,3.188,3.188,0,0,1,.246,1.289,4.42,4.42,0,0,1-.152,1.2,3.721,3.721,0,0,1-.461,1.016,4.9,4.9,0,0,1-.777.914,11.011,11.011,0,0,1-1.1.891q-.789.563-1.3.961a5.75,5.75,0,0,0-.812.746,2.165,2.165,0,0,0-.422.7,2.431,2.431,0,0,0-.121.8h5.578V56H27.914v-.555a4.622,4.622,0,0,1,.156-1.266,3.286,3.286,0,0,1,.516-1.039,5.767,5.767,0,0,1,.941-.984q.582-.492,1.426-1.109a9.014,9.014,0,0,0,1.02-.836,4.346,4.346,0,0,0,.66-.8,2.862,2.862,0,0,0,.355-.809A3.486,3.486,0,0,0,33.094,47.734Zm10.563,2.617a11.005,11.005,0,0,1-.254,2.492,5.807,5.807,0,0,1-.734,1.832,3.305,3.305,0,0,1-1.18,1.133,3.23,3.23,0,0,1-1.59.387,3.016,3.016,0,0,1-1.5-.371,3.152,3.152,0,0,1-1.113-1.082A5.484,5.484,0,0,1,36.594,53a10.8,10.8,0,0,1-.234-2.371,12.222,12.222,0,0,1,.246-2.594,5.933,5.933,0,0,1,.723-1.887A3.216,3.216,0,0,1,38.512,45a3.323,3.323,0,0,1,1.621-.387Q43.656,44.609,43.656,50.352Zm-1.312.125q0-4.781-2.273-4.781-2.4,0-2.4,4.867,0,4.539,2.352,4.539Q42.344,55.1,42.344,50.477Zm3.711,5.7a.829.829,0,0,1-.613-.258.849.849,0,0,1-.254-.617.862.862,0,0,1,.254-.621.823.823,0,0,1,.613-.262.845.845,0,0,1,.625.262.855.855,0,0,1,.258.621.842.842,0,0,1-.258.617A.851.851,0,0,1,46.055,56.172Zm9.7-5.82a11.005,11.005,0,0,1-.254,2.492,5.807,5.807,0,0,1-.734,1.832,3.305,3.305,0,0,1-1.18,1.133,3.23,3.23,0,0,1-1.59.387,3.016,3.016,0,0,1-1.5-.371,3.152,3.152,0,0,1-1.113-1.082A5.484,5.484,0,0,1,48.688,53a10.8,10.8,0,0,1-.234-2.371,12.222,12.222,0,0,1,.246-2.594,5.933,5.933,0,0,1,.723-1.887A3.216,3.216,0,0,1,50.605,45a3.323,3.323,0,0,1,1.621-.387Q55.75,44.609,55.75,50.352Zm-1.312.125q0-4.781-2.273-4.781-2.4,0-2.4,4.867,0,4.539,2.352,4.539Q54.438,55.1,54.438,50.477Zm9.938-.125a11.005,11.005,0,0,1-.254,2.492,5.807,5.807,0,0,1-.734,1.832,3.305,3.305,0,0,1-1.18,1.133,3.23,3.23,0,0,1-1.59.387,3.016,3.016,0,0,1-1.5-.371A3.152,3.152,0,0,1,58,54.742,5.484,5.484,0,0,1,57.313,53a10.8,10.8,0,0,1-.234-2.371,12.222,12.222,0,0,1,.246-2.594,5.933,5.933,0,0,1,.723-1.887A3.216,3.216,0,0,1,59.23,45a3.323,3.323,0,0,1,1.621-.387Q64.375,44.609,64.375,50.352Zm-1.312.125q0-4.781-2.273-4.781-2.4,0-2.4,4.867,0,4.539,2.352,4.539Q63.063,55.1,63.063,50.477ZM73,50.352a11.005,11.005,0,0,1-.254,2.492,5.807,5.807,0,0,1-.734,1.832,3.305,3.305,0,0,1-1.18,1.133,3.23,3.23,0,0,1-1.59.387,3.016,3.016,0,0,1-1.5-.371,3.152,3.152,0,0,1-1.113-1.082A5.484,5.484,0,0,1,65.938,53a10.8,10.8,0,0,1-.234-2.371,12.222,12.222,0,0,1,.246-2.594,5.933,5.933,0,0,1,.723-1.887A3.217,3.217,0,0,1,67.855,45a3.323,3.323,0,0,1,1.621-.387Q73,44.609,73,50.352Zm-1.312.125q0-4.781-2.273-4.781-2.4,0-2.4,4.867,0,4.539,2.352,4.539Q71.688,55.1,71.688,50.477Zm3.711,5.7a.829.829,0,0,1-.613-.258.849.849,0,0,1-.254-.617.862.862,0,0,1,.254-.621.823.823,0,0,1,.613-.262.845.845,0,0,1,.625.262.855.855,0,0,1,.258.621.842.842,0,0,1-.258.617A.851.851,0,0,1,75.4,56.172Zm9.7-5.82a11.005,11.005,0,0,1-.254,2.492,5.807,5.807,0,0,1-.734,1.832,3.305,3.305,0,0,1-1.18,1.133,3.23,3.23,0,0,1-1.59.387,3.016,3.016,0,0,1-1.5-.371,3.152,3.152,0,0,1-1.113-1.082A5.484,5.484,0,0,1,78.031,53a10.8,10.8,0,0,1-.234-2.371,12.222,12.222,0,0,1,.246-2.594,5.933,5.933,0,0,1,.723-1.887A3.217,3.217,0,0,1,79.949,45a3.323,3.323,0,0,1,1.621-.387Q85.094,44.609,85.094,50.352Zm-1.312.125q0-4.781-2.273-4.781-2.4,0-2.4,4.867,0,4.539,2.352,4.539Q83.781,55.1,83.781,50.477Zm9.938-.125a11.005,11.005,0,0,1-.254,2.492,5.807,5.807,0,0,1-.734,1.832,3.305,3.305,0,0,1-1.18,1.133,3.23,3.23,0,0,1-1.59.387,3.016,3.016,0,0,1-1.5-.371,3.152,3.152,0,0,1-1.113-1.082A5.484,5.484,0,0,1,86.656,53a10.8,10.8,0,0,1-.234-2.371,12.222,12.222,0,0,1,.246-2.594,5.933,5.933,0,0,1,.723-1.887A3.217,3.217,0,0,1,88.574,45a3.323,3.323,0,0,1,1.621-.387Q93.719,44.609,93.719,50.352Zm-1.312.125q0-4.781-2.273-4.781-2.4,0-2.4,4.867,0,4.539,2.352,4.539Q92.406,55.1,92.406,50.477Zm9.938-.125a11.005,11.005,0,0,1-.254,2.492,5.807,5.807,0,0,1-.734,1.832,3.305,3.305,0,0,1-1.18,1.133,3.23,3.23,0,0,1-1.59.387,3.016,3.016,0,0,1-1.5-.371,3.152,3.152,0,0,1-1.113-1.082A5.484,5.484,0,0,1,95.281,53a10.8,10.8,0,0,1-.234-2.371,12.222,12.222,0,0,1,.246-2.594,5.933,5.933,0,0,1,.723-1.887A3.217,3.217,0,0,1,97.2,45a3.323,3.323,0,0,1,1.621-.387Q102.344,44.609,102.344,50.352Zm-1.312.125q0-4.781-2.273-4.781-2.4,0-2.4,4.867,0,4.539,2.352,4.539Q101.031,55.1,101.031,50.477Zm.961,40.57H97.727V90.039h4.266ZM14.625,133.938v1.7h-.812V134a4.9,4.9,0,0,1-2.7-.672v-1.359a3.661,3.661,0,0,0,1.238.668,4.528,4.528,0,0,0,1.465.27v-4a6.129,6.129,0,0,1-2.227-1.527,2.9,2.9,0,0,1,.266-3.609,3.2,3.2,0,0,1,1.961-.988v-1.406h.813v1.375a4.324,4.324,0,0,1,2.117.438v1.328a3.549,3.549,0,0,0-2.117-.672v4.125a6.64,6.64,0,0,1,2.223,1.5,2.51,2.51,0,0,1,.6,1.645,2.545,2.545,0,0,1-.746,1.863A3.624,3.624,0,0,1,14.625,133.938Zm-.812-6.406v-3.641a1.78,1.78,0,0,0-1.039.582,1.623,1.623,0,0,0-.383,1.09,1.826,1.826,0,0,0,.313,1.1A3.367,3.367,0,0,0,13.813,127.531Zm.813,1.781v3.531q1.508-.328,1.508-1.625Q16.133,130.141,14.625,129.313ZM24.094,134H22.813v-9.68a2.965,2.965,0,0,1-.434.34,7.068,7.068,0,0,1-.641.379q-.355.188-.75.352a5.451,5.451,0,0,1-.77.258v-1.3a7.448,7.448,0,0,0,.895-.316q.473-.2.93-.445t.863-.516a6.854,6.854,0,0,0,.7-.527h.484Zm9-8.266a2.316,2.316,0,0,0-.16-.9,1.739,1.739,0,0,0-1.09-1.016,2.554,2.554,0,0,0-.812-.125,2.687,2.687,0,0,0-.734.1,3.57,3.57,0,0,0-.7.281,4.3,4.3,0,0,0-.656.43,4.74,4.74,0,0,0-.59.555v-1.375a3.831,3.831,0,0,1,1.207-.8,4.25,4.25,0,0,1,1.629-.277,3.932,3.932,0,0,1,1.273.2,2.92,2.92,0,0,1,1.016.582,2.691,2.691,0,0,1,.676.945,3.188,3.188,0,0,1,.246,1.289,4.42,4.42,0,0,1-.152,1.2,3.721,3.721,0,0,1-.461,1.016,4.9,4.9,0,0,1-.777.914,11.01,11.01,0,0,1-1.1.891q-.789.563-1.3.961a5.751,5.751,0,0,0-.812.746,2.165,2.165,0,0,0-.422.7,2.431,2.431,0,0,0-.121.8h5.578V134H27.914v-.555a4.622,4.622,0,0,1,.156-1.266,3.286,3.286,0,0,1,.516-1.039,5.767,5.767,0,0,1,.941-.984q.582-.492,1.426-1.109a9.014,9.014,0,0,0,1.02-.836,4.346,4.346,0,0,0,.66-.8,2.862,2.862,0,0,0,.355-.809A3.486,3.486,0,0,0,33.094,125.734Zm10.563,2.617a11.005,11.005,0,0,1-.254,2.492,5.807,5.807,0,0,1-.734,1.832,3.305,3.305,0,0,1-1.18,1.133,3.23,3.23,0,0,1-1.59.387,3.016,3.016,0,0,1-1.5-.371,3.152,3.152,0,0,1-1.113-1.082A5.484,5.484,0,0,1,36.594,131a10.8,10.8,0,0,1-.234-2.371,12.222,12.222,0,0,1,.246-2.594,5.933,5.933,0,0,1,.723-1.887A3.216,3.216,0,0,1,38.512,123a3.323,3.323,0,0,1,1.621-.387Q43.656,122.609,43.656,128.352Zm-1.312.125q0-4.781-2.273-4.781-2.4,0-2.4,4.867,0,4.539,2.352,4.539Q42.344,133.1,42.344,128.477Zm3.711,5.7a.829.829,0,0,1-.613-.258.849.849,0,0,1-.254-.617.862.862,0,0,1,.254-.621.823.823,0,0,1,.613-.262.845.845,0,0,1,.625.262.855.855,0,0,1,.258.621.842.842,0,0,1-.258.617A.851.851,0,0,1,46.055,134.172Zm9.7-5.82a11.005,11.005,0,0,1-.254,2.492,5.807,5.807,0,0,1-.734,1.832,3.305,3.305,0,0,1-1.18,1.133,3.23,3.23,0,0,1-1.59.387,3.016,3.016,0,0,1-1.5-.371,3.152,3.152,0,0,1-1.113-1.082A5.484,5.484,0,0,1,48.688,131a10.8,10.8,0,0,1-.234-2.371,12.222,12.222,0,0,1,.246-2.594,5.933,5.933,0,0,1,.723-1.887A3.216,3.216,0,0,1,50.605,123a3.323,3.323,0,0,1,1.621-.387Q55.75,122.609,55.75,128.352Zm-1.312.125q0-4.781-2.273-4.781-2.4,0-2.4,4.867,0,4.539,2.352,4.539Q54.438,133.1,54.438,128.477Zm9.938-.125a11.005,11.005,0,0,1-.254,2.492,5.807,5.807,0,0,1-.734,1.832,3.305,3.305,0,0,1-1.18,1.133,3.23,3.23,0,0,1-1.59.387,3.016,3.016,0,0,1-1.5-.371A3.152,3.152,0,0,1,58,132.742,5.484,5.484,0,0,1,57.313,131a10.8,10.8,0,0,1-.234-2.371,12.222,12.222,0,0,1,.246-2.594,5.933,5.933,0,0,1,.723-1.887A3.216,3.216,0,0,1,59.23,123a3.323,3.323,0,0,1,1.621-.387Q64.375,122.609,64.375,128.352Zm-1.312.125q0-4.781-2.273-4.781-2.4,0-2.4,4.867,0,4.539,2.352,4.539Q63.063,133.1,63.063,128.477ZM73,128.352a11.005,11.005,0,0,1-.254,2.492,5.807,5.807,0,0,1-.734,1.832,3.305,3.305,0,0,1-1.18,1.133,3.23,3.23,0,0,1-1.59.387,3.016,3.016,0,0,1-1.5-.371,3.152,3.152,0,0,1-1.113-1.082A5.484,5.484,0,0,1,65.938,131a10.8,10.8,0,0,1-.234-2.371,12.222,12.222,0,0,1,.246-2.594,5.933,5.933,0,0,1,.723-1.887A3.217,3.217,0,0,1,67.855,123a3.323,3.323,0,0,1,1.621-.387Q73,122.609,73,128.352Zm-1.312.125q0-4.781-2.273-4.781-2.4,0-2.4,4.867,0,4.539,2.352,4.539Q71.688,133.1,71.688,128.477Zm3.711,5.7a.829.829,0,0,1-.613-.258.849.849,0,0,1-.254-.617.862.862,0,0,1,.254-.621.823.823,0,0,1,.613-.262.845.845,0,0,1,.625.262.855.855,0,0,1,.258.621.842.842,0,0,1-.258.617A.851.851,0,0,1,75.4,134.172Zm9.7-5.82a11.005,11.005,0,0,1-.254,2.492,5.807,5.807,0,0,1-.734,1.832,3.305,3.305,0,0,1-1.18,1.133,3.23,3.23,0,0,1-1.59.387,3.016,3.016,0,0,1-1.5-.371,3.152,3.152,0,0,1-1.113-1.082A5.484,5.484,0,0,1,78.031,131a10.8,10.8,0,0,1-.234-2.371,12.222,12.222,0,0,1,.246-2.594,5.933,5.933,0,0,1,.723-1.887A3.217,3.217,0,0,1,79.949,123a3.323,3.323,0,0,1,1.621-.387Q85.094,122.609,85.094,128.352Zm-1.312.125q0-4.781-2.273-4.781-2.4,0-2.4,4.867,0,4.539,2.352,4.539Q83.781,133.1,83.781,128.477Zm9.938-.125a11.005,11.005,0,0,1-.254,2.492,5.807,5.807,0,0,1-.734,1.832,3.305,3.305,0,0,1-1.18,1.133,3.23,3.23,0,0,1-1.59.387,3.016,3.016,0,0,1-1.5-.371,3.152,3.152,0,0,1-1.113-1.082A5.484,5.484,0,0,1,86.656,131a10.8,10.8,0,0,1-.234-2.371,12.222,12.222,0,0,1,.246-2.594,5.933,5.933,0,0,1,.723-1.887A3.217,3.217,0,0,1,88.574,123a3.323,3.323,0,0,1,1.621-.387Q93.719,122.609,93.719,128.352Zm-1.312.125q0-4.781-2.273-4.781-2.4,0-2.4,4.867,0,4.539,2.352,4.539Q92.406,133.1,92.406,128.477Zm9.938-.125a11.005,11.005,0,0,1-.254,2.492,5.807,5.807,0,0,1-.734,1.832,3.305,3.305,0,0,1-1.18,1.133,3.23,3.23,0,0,1-1.59.387,3.016,3.016,0,0,1-1.5-.371,3.152,3.152,0,0,1-1.113-1.082A5.484,5.484,0,0,1,95.281,131a10.8,10.8,0,0,1-.234-2.371,12.222,12.222,0,0,1,.246-2.594,5.933,5.933,0,0,1,.723-1.887A3.217,3.217,0,0,1,97.2,123a3.323,3.323,0,0,1,1.621-.387Q102.344,122.609,102.344,128.352Zm-1.312.125q0-4.781-2.273-4.781-2.4,0-2.4,4.867,0,4.539,2.352,4.539Q101.031,133.1,101.031,128.477Zm.961,40.57H97.727v-1.008h4.266ZM31.875,211.938v1.7h-.812V212a4.9,4.9,0,0,1-2.7-.672v-1.359a3.661,3.661,0,0,0,1.238.668,4.528,4.528,0,0,0,1.465.27v-4a6.129,6.129,0,0,1-2.227-1.527,2.9,2.9,0,0,1,.266-3.609,3.2,3.2,0,0,1,1.961-.988v-1.406h.813v1.375a4.324,4.324,0,0,1,2.117.438v1.328a3.549,3.549,0,0,0-2.117-.672v4.125a6.64,6.64,0,0,1,2.223,1.5,2.51,2.51,0,0,1,.6,1.645,2.545,2.545,0,0,1-.746,1.863A3.624,3.624,0,0,1,31.875,211.938Zm-.812-6.406v-3.641a1.78,1.78,0,0,0-1.039.582,1.624,1.624,0,0,0-.383,1.09,1.826,1.826,0,0,0,.313,1.1A3.367,3.367,0,0,0,31.063,205.531Zm.813,1.781v3.531q1.508-.328,1.508-1.625Q33.383,208.141,31.875,207.313Zm11.258,1.516a3.266,3.266,0,0,1-.285,1.379,3.044,3.044,0,0,1-.8,1.063,3.714,3.714,0,0,1-1.246.684,5.041,5.041,0,0,1-1.6.242,4.654,4.654,0,0,1-2.547-.609v-1.375a4.081,4.081,0,0,0,2.594.891,3.525,3.525,0,0,0,1.059-.148,2.373,2.373,0,0,0,.813-.43,1.909,1.909,0,0,0,.523-.68,2.123,2.123,0,0,0,.184-.9q0-2.2-3.125-2.2h-.93v-1.086h.883q2.766,0,2.766-2.062,0-1.906-2.109-1.906a3.592,3.592,0,0,0-2.227.8V201.25a4.868,4.868,0,0,1,2.547-.641,3.914,3.914,0,0,1,1.273.2,2.918,2.918,0,0,1,.977.547,2.423,2.423,0,0,1,.629.844,2.6,2.6,0,0,1,.223,1.086,2.735,2.735,0,0,1-2.234,2.844v.031a3.534,3.534,0,0,1,1.055.277,2.814,2.814,0,0,1,.836.559,2.49,2.49,0,0,1,.551.809A2.582,2.582,0,0,1,43.133,208.828Zm2.922,3.344a.829.829,0,0,1-.613-.258.849.849,0,0,1-.254-.617.862.862,0,0,1,.254-.621.823.823,0,0,1,.613-.262.845.845,0,0,1,.625.262.855.855,0,0,1,.258.621.842.842,0,0,1-.258.617A.851.851,0,0,1,46.055,212.172Zm9.7-5.82a11.005,11.005,0,0,1-.254,2.492,5.807,5.807,0,0,1-.734,1.832,3.305,3.305,0,0,1-1.18,1.133,3.23,3.23,0,0,1-1.59.387,3.016,3.016,0,0,1-1.5-.371,3.152,3.152,0,0,1-1.113-1.082A5.484,5.484,0,0,1,48.688,209a10.8,10.8,0,0,1-.234-2.371,12.222,12.222,0,0,1,.246-2.594,5.933,5.933,0,0,1,.723-1.887A3.216,3.216,0,0,1,50.605,201a3.323,3.323,0,0,1,1.621-.387Q55.75,200.609,55.75,206.352Zm-1.312.125q0-4.781-2.273-4.781-2.4,0-2.4,4.867,0,4.539,2.352,4.539Q54.438,211.1,54.438,206.477Zm9.938-.125a11.005,11.005,0,0,1-.254,2.492,5.807,5.807,0,0,1-.734,1.832,3.305,3.305,0,0,1-1.18,1.133,3.23,3.23,0,0,1-1.59.387,3.016,3.016,0,0,1-1.5-.371A3.152,3.152,0,0,1,58,210.742,5.484,5.484,0,0,1,57.313,209a10.8,10.8,0,0,1-.234-2.371,12.222,12.222,0,0,1,.246-2.594,5.933,5.933,0,0,1,.723-1.887A3.216,3.216,0,0,1,59.23,201a3.323,3.323,0,0,1,1.621-.387Q64.375,200.609,64.375,206.352Zm-1.312.125q0-4.781-2.273-4.781-2.4,0-2.4,4.867,0,4.539,2.352,4.539Q63.063,211.1,63.063,206.477ZM73,206.352a11.005,11.005,0,0,1-.254,2.492,5.807,5.807,0,0,1-.734,1.832,3.305,3.305,0,0,1-1.18,1.133,3.23,3.23,0,0,1-1.59.387,3.016,3.016,0,0,1-1.5-.371,3.152,3.152,0,0,1-1.113-1.082A5.484,5.484,0,0,1,65.938,209a10.8,10.8,0,0,1-.234-2.371,12.222,12.222,0,0,1,.246-2.594,5.933,5.933,0,0,1,.723-1.887A3.217,3.217,0,0,1,67.855,201a3.323,3.323,0,0,1,1.621-.387Q73,200.609,73,206.352Zm-1.312.125q0-4.781-2.273-4.781-2.4,0-2.4,4.867,0,4.539,2.352,4.539Q71.688,211.1,71.688,206.477Zm3.711,5.7a.829.829,0,0,1-.613-.258.849.849,0,0,1-.254-.617.862.862,0,0,1,.254-.621.823.823,0,0,1,.613-.262.845.845,0,0,1,.625.262.855.855,0,0,1,.258.621.842.842,0,0,1-.258.617A.851.851,0,0,1,75.4,212.172Zm9.7-5.82a11.005,11.005,0,0,1-.254,2.492,5.807,5.807,0,0,1-.734,1.832,3.305,3.305,0,0,1-1.18,1.133,3.23,3.23,0,0,1-1.59.387,3.016,3.016,0,0,1-1.5-.371,3.152,3.152,0,0,1-1.113-1.082A5.484,5.484,0,0,1,78.031,209a10.8,10.8,0,0,1-.234-2.371,12.222,12.222,0,0,1,.246-2.594,5.933,5.933,0,0,1,.723-1.887A3.217,3.217,0,0,1,79.949,201a3.323,3.323,0,0,1,1.621-.387Q85.094,200.609,85.094,206.352Zm-1.312.125q0-4.781-2.273-4.781-2.4,0-2.4,4.867,0,4.539,2.352,4.539Q83.781,211.1,83.781,206.477Zm9.938-.125a11.005,11.005,0,0,1-.254,2.492,5.807,5.807,0,0,1-.734,1.832,3.305,3.305,0,0,1-1.18,1.133,3.23,3.23,0,0,1-1.59.387,3.016,3.016,0,0,1-1.5-.371,3.152,3.152,0,0,1-1.113-1.082A5.484,5.484,0,0,1,86.656,209a10.8,10.8,0,0,1-.234-2.371,12.222,12.222,0,0,1,.246-2.594,5.933,5.933,0,0,1,.723-1.887A3.217,3.217,0,0,1,88.574,201a3.323,3.323,0,0,1,1.621-.387Q93.719,200.609,93.719,206.352Zm-1.312.125q0-4.781-2.273-4.781-2.4,0-2.4,4.867,0,4.539,2.352,4.539Q92.406,211.1,92.406,206.477Zm9.938-.125a11.005,11.005,0,0,1-.254,2.492,5.807,5.807,0,0,1-.734,1.832,3.305,3.305,0,0,1-1.18,1.133,3.23,3.23,0,0,1-1.59.387,3.016,3.016,0,0,1-1.5-.371,3.152,3.152,0,0,1-1.113-1.082A5.484,5.484,0,0,1,95.281,209a10.8,10.8,0,0,1-.234-2.371,12.222,12.222,0,0,1,.246-2.594,5.933,5.933,0,0,1,.723-1.887A3.217,3.217,0,0,1,97.2,201a3.323,3.323,0,0,1,1.621-.387Q102.344,200.609,102.344,206.352Zm-1.312.125q0-4.781-2.273-4.781-2.4,0-2.4,4.867,0,4.539,2.352,4.539Q101.031,211.1,101.031,206.477Zm.961,40.57H97.727v-1.008h4.266ZM31.875,289.938v1.7h-.812V290a4.9,4.9,0,0,1-2.7-.672v-1.359a3.661,3.661,0,0,0,1.238.668,4.528,4.528,0,0,0,1.465.27v-4a6.129,6.129,0,0,1-2.227-1.527,2.9,2.9,0,0,1,.266-3.609,3.2,3.2,0,0,1,1.961-.988v-1.406h.813v1.375a4.324,4.324,0,0,1,2.117.438v1.328a3.549,3.549,0,0,0-2.117-.672v4.125a6.64,6.64,0,0,1,2.223,1.5,2.51,2.51,0,0,1,.6,1.645,2.545,2.545,0,0,1-.746,1.863A3.625,3.625,0,0,1,31.875,289.938Zm-.812-6.406v-3.641a1.78,1.78,0,0,0-1.039.582,1.623,1.623,0,0,0-.383,1.09,1.826,1.826,0,0,0,.313,1.1A3.367,3.367,0,0,0,31.063,283.531Zm.813,1.781v3.531q1.508-.328,1.508-1.625Q33.383,286.141,31.875,285.313ZM41.344,290H40.063v-9.68a2.964,2.964,0,0,1-.434.34,7.07,7.07,0,0,1-.641.379q-.355.188-.75.352a5.45,5.45,0,0,1-.77.258v-1.3a7.448,7.448,0,0,0,.895-.316q.473-.2.93-.445t.863-.516a6.854,6.854,0,0,0,.7-.527h.484Zm4.711.172a.829.829,0,0,1-.613-.258.849.849,0,0,1-.254-.617.862.862,0,0,1,.254-.621.823.823,0,0,1,.613-.262.845.845,0,0,1,.625.262.855.855,0,0,1,.258.621.842.842,0,0,1-.258.617A.851.851,0,0,1,46.055,290.172Zm9.172-3.344a3.266,3.266,0,0,1-.285,1.379,3.045,3.045,0,0,1-.8,1.063,3.714,3.714,0,0,1-1.246.684,5.04,5.04,0,0,1-1.6.242,4.654,4.654,0,0,1-2.547-.609v-1.375a4.081,4.081,0,0,0,2.594.891,3.525,3.525,0,0,0,1.059-.148,2.374,2.374,0,0,0,.813-.43,1.909,1.909,0,0,0,.523-.68,2.123,2.123,0,0,0,.184-.9q0-2.2-3.125-2.2h-.93v-1.086h.883q2.766,0,2.766-2.062,0-1.906-2.109-1.906a3.592,3.592,0,0,0-2.227.8V279.25a4.868,4.868,0,0,1,2.547-.641,3.913,3.913,0,0,1,1.273.2,2.918,2.918,0,0,1,.977.547,2.423,2.423,0,0,1,.629.844,2.6,2.6,0,0,1,.223,1.086,2.735,2.735,0,0,1-2.234,2.844v.031a3.534,3.534,0,0,1,1.055.277,2.814,2.814,0,0,1,.836.559,2.49,2.49,0,0,1,.551.809A2.582,2.582,0,0,1,55.227,286.828Zm7.211-5.094a2.316,2.316,0,0,0-.16-.9,1.739,1.739,0,0,0-1.09-1.016,2.554,2.554,0,0,0-.812-.125,2.687,2.687,0,0,0-.734.1,3.571,3.571,0,0,0-.7.281,4.3,4.3,0,0,0-.656.43,4.74,4.74,0,0,0-.59.555v-1.375a3.831,3.831,0,0,1,1.207-.8,4.25,4.25,0,0,1,1.629-.277,3.932,3.932,0,0,1,1.273.2,2.92,2.92,0,0,1,1.016.582,2.691,2.691,0,0,1,.676.945,3.188,3.188,0,0,1,.246,1.289,4.42,4.42,0,0,1-.152,1.2,3.721,3.721,0,0,1-.461,1.016,4.9,4.9,0,0,1-.777.914,11.014,11.014,0,0,1-1.1.891q-.789.563-1.3.961a5.75,5.75,0,0,0-.812.746,2.165,2.165,0,0,0-.422.7,2.43,2.43,0,0,0-.121.8h5.578V290H57.258v-.555a4.622,4.622,0,0,1,.156-1.266,3.286,3.286,0,0,1,.516-1.039,5.767,5.767,0,0,1,.941-.984q.582-.492,1.426-1.109a9.013,9.013,0,0,0,1.02-.836,4.346,4.346,0,0,0,.66-.8,2.862,2.862,0,0,0,.355-.809A3.486,3.486,0,0,0,62.438,281.734Zm9.234-2.937v7.4h1.438v1.172H71.672V290H70.406v-2.633H65.141v-1.109q.734-.828,1.484-1.77t1.434-1.91q.684-.969,1.266-1.934a17.671,17.671,0,0,0,.98-1.848Zm-5.086,7.4h3.82v-5.484q-.586,1.023-1.109,1.828T68.3,284q-.473.656-.9,1.188T66.586,286.2Zm8.813,3.977a.829.829,0,0,1-.613-.258.849.849,0,0,1-.254-.617.862.862,0,0,1,.254-.621.823.823,0,0,1,.613-.262.845.845,0,0,1,.625.262.855.855,0,0,1,.258.621.842.842,0,0,1-.258.617A.851.851,0,0,1,75.4,290.172Zm2.43-3.3a2.981,2.981,0,0,1,.141-.895,3.24,3.24,0,0,1,.4-.84,3.329,3.329,0,0,1,.648-.711,3.092,3.092,0,0,1,.879-.508,3.322,3.322,0,0,1-1.156-1.043,2.466,2.466,0,0,1-.43-1.41,2.719,2.719,0,0,1,.9-2.047,3.051,3.051,0,0,1,1-.6,3.735,3.735,0,0,1,2.508,0,3.106,3.106,0,0,1,1,.6,2.7,2.7,0,0,1,.656.906,2.74,2.74,0,0,1,.234,1.133,2.466,2.466,0,0,1-.43,1.41,3.363,3.363,0,0,1-1.141,1.043,3.064,3.064,0,0,1,.867.508,3.378,3.378,0,0,1,.645.711,3.24,3.24,0,0,1,.4.84,2.981,2.981,0,0,1,.141.895,3.327,3.327,0,0,1-.266,1.344,3,3,0,0,1-.746,1.043,3.445,3.445,0,0,1-1.148.676,4.292,4.292,0,0,1-1.473.242A4.235,4.235,0,0,1,80,289.938a3.5,3.5,0,0,1-1.148-.676,3.023,3.023,0,0,1-.754-1.043A3.285,3.285,0,0,1,77.828,286.875Zm1.391-.109a2.646,2.646,0,0,0,.16.945,2.038,2.038,0,0,0,.453.719,1.978,1.978,0,0,0,.711.457,2.568,2.568,0,0,0,.926.16,2.439,2.439,0,0,0,.906-.164,2.112,2.112,0,0,0,.715-.461,2.072,2.072,0,0,0,.469-.719,2.514,2.514,0,0,0,.168-.937,2.4,2.4,0,0,0-.16-.879,2.2,2.2,0,0,0-.457-.723,2.147,2.147,0,0,0-.711-.492,2.313,2.313,0,0,0-.93-.18,2.338,2.338,0,0,0-.895.168,2.14,2.14,0,0,0-.711.469,2.171,2.171,0,0,0-.473.719A2.391,2.391,0,0,0,79.219,286.766Zm.4-5.2a1.86,1.86,0,0,0,1.133,1.73,1.846,1.846,0,0,0,1.441,0,1.867,1.867,0,0,0,.59-.4,1.95,1.95,0,0,0,.4-.594,1.8,1.8,0,0,0,.148-.73,1.916,1.916,0,0,0-.145-.75,1.841,1.841,0,0,0-1.715-1.133,1.864,1.864,0,0,0-.754.148,1.821,1.821,0,0,0-.586.4,1.759,1.759,0,0,0-.379.6A2.02,2.02,0,0,0,79.617,281.57Zm14.1,2.781a11.005,11.005,0,0,1-.254,2.492,5.807,5.807,0,0,1-.734,1.832,3.305,3.305,0,0,1-1.18,1.133,3.23,3.23,0,0,1-1.59.387,3.016,3.016,0,0,1-1.5-.371,3.152,3.152,0,0,1-1.113-1.082A5.484,5.484,0,0,1,86.656,287a10.8,10.8,0,0,1-.234-2.371,12.222,12.222,0,0,1,.246-2.594,5.933,5.933,0,0,1,.723-1.887A3.217,3.217,0,0,1,88.574,279a3.323,3.323,0,0,1,1.621-.387Q93.719,278.609,93.719,284.352Zm-1.312.125q0-4.781-2.273-4.781-2.4,0-2.4,4.867,0,4.539,2.352,4.539Q92.406,289.1,92.406,284.477Zm9.938-.125a11.005,11.005,0,0,1-.254,2.492,5.807,5.807,0,0,1-.734,1.832,3.305,3.305,0,0,1-1.18,1.133,3.23,3.23,0,0,1-1.59.387,3.016,3.016,0,0,1-1.5-.371,3.152,3.152,0,0,1-1.113-1.082A5.484,5.484,0,0,1,95.281,287a10.8,10.8,0,0,1-.234-2.371,12.222,12.222,0,0,1,.246-2.594,5.933,5.933,0,0,1,.723-1.887A3.217,3.217,0,0,1,97.2,279a3.323,3.323,0,0,1,1.621-.387Q102.344,278.609,102.344,284.352Zm-1.312.125q0-4.781-2.273-4.781-2.4,0-2.4,4.867,0,4.539,2.352,4.539Q101.031,289.1,101.031,284.477ZM14.625,328.938v1.7h-.812V329a4.9,4.9,0,0,1-2.7-.672v-1.359a3.661,3.661,0,0,0,1.238.668,4.528,4.528,0,0,0,1.465.27v-4a6.129,6.129,0,0,1-2.227-1.527,2.9,2.9,0,0,1,.266-3.609,3.2,3.2,0,0,1,1.961-.988v-1.406h.813v1.375a4.324,4.324,0,0,1,2.117.438v1.328a3.549,3.549,0,0,0-2.117-.672v4.125a6.64,6.64,0,0,1,2.223,1.5,2.51,2.51,0,0,1,.6,1.645,2.545,2.545,0,0,1-.746,1.863A3.625,3.625,0,0,1,14.625,328.938Zm-.812-6.406v-3.641a1.78,1.78,0,0,0-1.039.582,1.623,1.623,0,0,0-.383,1.09,1.826,1.826,0,0,0,.313,1.1A3.367,3.367,0,0,0,13.813,322.531Zm.813,1.781v3.531q1.508-.328,1.508-1.625Q16.133,325.141,14.625,324.313ZM24.094,329H22.813v-9.68a2.964,2.964,0,0,1-.434.34,7.07,7.07,0,0,1-.641.379q-.355.188-.75.352a5.451,5.451,0,0,1-.77.258v-1.3a7.448,7.448,0,0,0,.895-.316q.473-.2.93-.445t.863-.516a6.854,6.854,0,0,0,.7-.527h.484Zm8.625,0H31.438v-9.68a2.964,2.964,0,0,1-.434.34,7.07,7.07,0,0,1-.641.379q-.355.188-.75.352a5.451,5.451,0,0,1-.77.258v-1.3a7.448,7.448,0,0,0,.895-.316q.473-.2.93-.445t.863-.516a6.854,6.854,0,0,0,.7-.527h.484Zm10.539-3.422a3.771,3.771,0,0,1-.281,1.484,3.245,3.245,0,0,1-.8,1.141,3.586,3.586,0,0,1-1.254.734,4.9,4.9,0,0,1-1.633.258,4.511,4.511,0,0,1-2.32-.469v-1.359a4.266,4.266,0,0,0,2.336.734,3.161,3.161,0,0,0,1.1-.18,2.439,2.439,0,0,0,.832-.5,2.141,2.141,0,0,0,.527-.773,2.618,2.618,0,0,0,.184-.992,2.125,2.125,0,0,0-.734-1.715,3.221,3.221,0,0,0-2.133-.621q-.227,0-.477.008t-.5.02q-.25.012-.488.027t-.434.039l.383-5.617h5.18v1.156h-4.07l-.227,3.289q.25-.016.531-.027t.5-.012a5.028,5.028,0,0,1,1.594.234,3.377,3.377,0,0,1,1.191.668A2.8,2.8,0,0,1,43,324.168,3.737,3.737,0,0,1,43.258,325.578Zm2.8,3.594a.829.829,0,0,1-.613-.258.849.849,0,0,1-.254-.617.862.862,0,0,1,.254-.621.823.823,0,0,1,.613-.262.845.845,0,0,1,.625.262.855.855,0,0,1,.258.621.842.842,0,0,1-.258.617A.851.851,0,0,1,46.055,329.172Zm9.711-3.727a4.15,4.15,0,0,1-.266,1.508,3.624,3.624,0,0,1-.734,1.188,3.281,3.281,0,0,1-1.117.777,3.538,3.538,0,0,1-1.406.277,3.1,3.1,0,0,1-2.645-1.363,4.853,4.853,0,0,1-.707-1.613,8.74,8.74,0,0,1-.242-2.148,10.1,10.1,0,0,1,.324-2.652,6.443,6.443,0,0,1,.922-2.039,4.25,4.25,0,0,1,1.441-1.309,3.862,3.862,0,0,1,1.883-.461,4.535,4.535,0,0,1,1.859.32v1.211a3.949,3.949,0,0,0-1.828-.445,2.724,2.724,0,0,0-1.352.336,3.1,3.1,0,0,0-1.031.949,4.63,4.63,0,0,0-.66,1.48,7.511,7.511,0,0,0-.23,1.93h.031a2.69,2.69,0,0,1,2.555-1.4,3.363,3.363,0,0,1,1.324.25,2.859,2.859,0,0,1,1.008.707,3.183,3.183,0,0,1,.645,1.09A4.148,4.148,0,0,1,55.766,325.445Zm-1.312.164a3.486,3.486,0,0,0-.148-1.055,2.288,2.288,0,0,0-.426-.8,1.836,1.836,0,0,0-.684-.5,2.3,2.3,0,0,0-.922-.176,2.158,2.158,0,0,0-.883.18,2.2,2.2,0,0,0-.7.488,2.286,2.286,0,0,0-.633,1.59,3.475,3.475,0,0,0,.164,1.082,2.8,2.8,0,0,0,.461.879,2.192,2.192,0,0,0,.707.59,1.931,1.931,0,0,0,.91.215,2.084,2.084,0,0,0,.883-.184,1.97,1.97,0,0,0,.68-.512,2.369,2.369,0,0,0,.438-.785A3.112,3.112,0,0,0,54.453,325.609Zm9.844-7.07q-.258.445-.621,1.109t-.77,1.492q-.406.828-.828,1.781t-.789,1.969q-.367,1.016-.645,2.059a15.315,15.315,0,0,0-.4,2.051H58.867a15.579,15.579,0,0,1,.434-2.043q.293-1.043.664-2.047t.785-1.934q.414-.93.8-1.711t.715-1.379q.324-.6.52-.934H57.172V317.8H64.3Zm8.3,7.039a3.771,3.771,0,0,1-.281,1.484,3.245,3.245,0,0,1-.8,1.141,3.586,3.586,0,0,1-1.254.734,4.9,4.9,0,0,1-1.633.258,4.511,4.511,0,0,1-2.32-.469v-1.359a4.266,4.266,0,0,0,2.336.734,3.161,3.161,0,0,0,1.1-.18,2.439,2.439,0,0,0,.832-.5,2.141,2.141,0,0,0,.527-.773,2.618,2.618,0,0,0,.184-.992,2.125,2.125,0,0,0-.734-1.715,3.221,3.221,0,0,0-2.133-.621q-.227,0-.477.008t-.5.02q-.25.012-.488.027t-.434.039l.383-5.617h5.18v1.156h-4.07l-.227,3.289q.25-.016.531-.027t.5-.012a5.028,5.028,0,0,1,1.594.234,3.377,3.377,0,0,1,1.191.668,2.8,2.8,0,0,1,.742,1.063A3.737,3.737,0,0,1,72.6,325.578Zm2.8,3.594a.829.829,0,0,1-.613-.258.849.849,0,0,1-.254-.617.862.862,0,0,1,.254-.621.823.823,0,0,1,.613-.262.845.845,0,0,1,.625.262.855.855,0,0,1,.258.621.842.842,0,0,1-.258.617A.851.851,0,0,1,75.4,329.172Zm7.758-8.437a2.316,2.316,0,0,0-.16-.9,1.739,1.739,0,0,0-1.09-1.016,2.554,2.554,0,0,0-.812-.125,2.687,2.687,0,0,0-.734.1,3.571,3.571,0,0,0-.7.281,4.3,4.3,0,0,0-.656.43,4.739,4.739,0,0,0-.59.555v-1.375a3.831,3.831,0,0,1,1.207-.8,4.25,4.25,0,0,1,1.629-.277,3.932,3.932,0,0,1,1.273.2,2.92,2.92,0,0,1,1.016.582,2.691,2.691,0,0,1,.676.945,3.188,3.188,0,0,1,.246,1.289,4.42,4.42,0,0,1-.152,1.2,3.721,3.721,0,0,1-.461,1.016,4.9,4.9,0,0,1-.777.914,11.014,11.014,0,0,1-1.1.891q-.789.563-1.3.961a5.75,5.75,0,0,0-.812.746,2.165,2.165,0,0,0-.422.7,2.431,2.431,0,0,0-.121.8h5.578V329H77.977v-.555a4.623,4.623,0,0,1,.156-1.266,3.286,3.286,0,0,1,.516-1.039,5.767,5.767,0,0,1,.941-.984q.582-.492,1.426-1.109a9.013,9.013,0,0,0,1.02-.836,4.346,4.346,0,0,0,.66-.8,2.862,2.862,0,0,0,.355-.809A3.486,3.486,0,0,0,83.156,320.734Zm10.563,2.617a11.005,11.005,0,0,1-.254,2.492,5.807,5.807,0,0,1-.734,1.832,3.305,3.305,0,0,1-1.18,1.133,3.23,3.23,0,0,1-1.59.387,3.016,3.016,0,0,1-1.5-.371,3.152,3.152,0,0,1-1.113-1.082A5.484,5.484,0,0,1,86.656,326a10.8,10.8,0,0,1-.234-2.371,12.222,12.222,0,0,1,.246-2.594,5.933,5.933,0,0,1,.723-1.887A3.217,3.217,0,0,1,88.574,318a3.323,3.323,0,0,1,1.621-.387Q93.719,317.609,93.719,323.352Zm-1.312.125q0-4.781-2.273-4.781-2.4,0-2.4,4.867,0,4.539,2.352,4.539Q92.406,328.1,92.406,323.477Zm9.938-.125a11.005,11.005,0,0,1-.254,2.492,5.807,5.807,0,0,1-.734,1.832,3.305,3.305,0,0,1-1.18,1.133,3.23,3.23,0,0,1-1.59.387,3.016,3.016,0,0,1-1.5-.371,3.152,3.152,0,0,1-1.113-1.082A5.484,5.484,0,0,1,95.281,326a10.8,10.8,0,0,1-.234-2.371,12.222,12.222,0,0,1,.246-2.594,5.933,5.933,0,0,1,.723-1.887A3.217,3.217,0,0,1,97.2,318a3.323,3.323,0,0,1,1.621-.387Q102.344,317.609,102.344,323.352Zm-1.312.125q0-4.781-2.273-4.781-2.4,0-2.4,4.867,0,4.539,2.352,4.539Q101.031,328.1,101.031,323.477Z" transform="translate(1117.848 213.043)" fill="#00223d"/>
      <g id="Trazado_1034200" data-name="Trazado 1034200" transform="translate(0.051)" fill="#f9f7f4">
        <path d="M 1239 137.8320159912109 L 0.5 137.8320159912109 L 0.5 0.5000156164169312 L 1239 0.5000156164169312 L 1239 137.8320159912109 Z" stroke="none"/>
        <path d="M 1 1.000015258789062 L 1 137.3320159912109 L 1238.5 137.3320159912109 L 1238.5 1.000015258789062 L 1 1.000015258789062 M 0 1.52587890625e-05 L 1239.5 1.52587890625e-05 L 1239.5 138.3320159912109 L 0 138.3320159912109 L 0 1.52587890625e-05 Z" stroke="none" fill="#ccc"/>
      </g>
      <path id="Trazado_1034201" data-name="Trazado 1034201" d="M1240,59h0Z" transform="translate(0.051 138.332)" fill="#fd9826"/>
      <path id="Trazado_1034205" data-name="Trazado 1034205" d="M0,0V552.961" transform="translate(1027.551 0.002)" fill="none" stroke="#ccc" stroke-width="1"/>
      <path id="Trazado_1054724" data-name="Trazado 1054724" d="M0,0V527.856" transform="translate(823.483 27.248)" fill="none" stroke="#ccc" stroke-width="1"/>
      <path id="Trazado_1054798" data-name="Trazado 1054798" d="M0,0V554.857" transform="translate(617.551 0.247)" fill="none" stroke="#ccc" stroke-width="1"/>
      <path id="Trazado_1035691" data-name="Trazado 1035691" d="M0,0V554.237" transform="translate(411.551)" fill="none" stroke="#ccc" stroke-width="1"/>
      <path id="Trazado_1054810" data-name="Trazado 1054810" d="M10.68,17h-2.9L6.039,14.117q-.2-.328-.375-.586A3.255,3.255,0,0,0,5.3,13.09a1.445,1.445,0,0,0-.383-.281.972.972,0,0,0-.434-.1H3.8V17H1.281V5.8h4q4.078,0,4.078,3.047a3.155,3.155,0,0,1-.18,1.082,3.006,3.006,0,0,1-.508.895,3.219,3.219,0,0,1-.793.688,4.089,4.089,0,0,1-1.035.453v.031a1.606,1.606,0,0,1,.484.254,3.469,3.469,0,0,1,.453.41,5.722,5.722,0,0,1,.418.5q.2.27.363.527ZM3.8,7.688V10.8H4.9a1.813,1.813,0,0,0,1.3-.469,1.564,1.564,0,0,0,.5-1.18q0-1.469-1.758-1.469ZM21.125,17h-2.9l-1.742-2.883q-.2-.328-.375-.586a3.255,3.255,0,0,0-.363-.441,1.445,1.445,0,0,0-.383-.281.972.972,0,0,0-.434-.1h-.68V17H11.727V5.8h4Q19.8,5.8,19.8,8.844a3.155,3.155,0,0,1-.18,1.082,3.006,3.006,0,0,1-.508.895,3.219,3.219,0,0,1-.793.688,4.089,4.089,0,0,1-1.035.453v.031a1.606,1.606,0,0,1,.484.254,3.469,3.469,0,0,1,.453.41,5.722,5.722,0,0,1,.418.5q.2.27.363.527ZM14.25,7.688V10.8h1.094a1.813,1.813,0,0,0,1.3-.469,1.564,1.564,0,0,0,.5-1.18q0-1.469-1.758-1.469ZM24.7,17H22.172V5.8H24.7Z" transform="translate(434.076 32.665)" fill="#12263f"/>
      <path id="Trazado_1054807" data-name="Trazado 1054807" d="M10.68,17h-2.9L6.039,14.117q-.2-.328-.375-.586A3.255,3.255,0,0,0,5.3,13.09a1.445,1.445,0,0,0-.383-.281.972.972,0,0,0-.434-.1H3.8V17H1.281V5.8h4q4.078,0,4.078,3.047a3.155,3.155,0,0,1-.18,1.082,3.006,3.006,0,0,1-.508.895,3.219,3.219,0,0,1-.793.688,4.089,4.089,0,0,1-1.035.453v.031a1.606,1.606,0,0,1,.484.254,3.469,3.469,0,0,1,.453.41,5.722,5.722,0,0,1,.418.5q.2.27.363.527ZM3.8,7.688V10.8H4.9a1.813,1.813,0,0,0,1.3-.469,1.564,1.564,0,0,0,.5-1.18q0-1.469-1.758-1.469ZM21.125,17h-2.9l-1.742-2.883q-.2-.328-.375-.586a3.255,3.255,0,0,0-.363-.441,1.445,1.445,0,0,0-.383-.281.972.972,0,0,0-.434-.1h-.68V17H11.727V5.8h4Q19.8,5.8,19.8,8.844a3.155,3.155,0,0,1-.18,1.082,3.006,3.006,0,0,1-.508.895,3.219,3.219,0,0,1-.793.688,4.089,4.089,0,0,1-1.035.453v.031a1.606,1.606,0,0,1,.484.254,3.469,3.469,0,0,1,.453.41,5.722,5.722,0,0,1,.418.5q.2.27.363.527ZM14.25,7.688V10.8h1.094a1.813,1.813,0,0,0,1.3-.469,1.564,1.564,0,0,0,.5-1.18q0-1.469-1.758-1.469ZM24.7,17H22.172V5.8H24.7Z" transform="translate(434.076 85.667)" fill="#12263f"/>
      <path id="Trazado_1054806" data-name="Trazado 1054806" d="M23.539,17h-2.75l-.8-2.492H16.008L15.219,17H12.484L16.563,5.8h2.992Zm-4.125-4.43L18.211,8.8A4.907,4.907,0,0,1,18.023,7.8h-.062a4.273,4.273,0,0,1-.2.977l-1.219,3.8ZM31.609,17H24.938V5.8h2.523v9.156h4.148Zm14.273,0H43.391V10.3q0-1.086.094-2.4h-.062a11.8,11.8,0,0,1-.352,1.484L40.445,17H38.383L35.711,9.461A14.67,14.67,0,0,1,35.359,7.9h-.07q.1,1.656.1,2.906V17H33.117V5.8h3.7L39.1,12.438a9.35,9.35,0,0,1,.4,1.6h.047a16.127,16.127,0,0,1,.445-1.617L42.281,5.8h3.6Zm12.4,0h-2.75l-.8-2.492H50.75L49.961,17H47.227L51.3,5.8H54.3Zm-4.125-4.43L52.953,8.8A4.907,4.907,0,0,1,52.766,7.8H52.7a4.273,4.273,0,0,1-.2.977l-1.219,3.8ZM67.469,16.6a7.388,7.388,0,0,1-3.2.594,5.4,5.4,0,0,1-4.055-1.516,5.54,5.54,0,0,1-1.477-4.039,5.919,5.919,0,0,1,1.66-4.359A5.807,5.807,0,0,1,64.7,5.609a8.058,8.058,0,0,1,2.766.414v2.43a4.9,4.9,0,0,0-2.562-.672,3.4,3.4,0,0,0-2.547.992,3.682,3.682,0,0,0-.969,2.688,3.611,3.611,0,0,0,.914,2.59,3.229,3.229,0,0,0,2.461.965,5.249,5.249,0,0,0,2.7-.719Zm8.672.4H69.422V5.8h6.461V7.852H71.945v2.492h3.664v2.047H71.945v2.563h4.2Zm11.875,0H85.469L80.852,9.961a10.178,10.178,0,0,1-.562-.93h-.031q.062.594.063,1.813V17H77.938V5.8h2.719l4.445,6.82q.3.461.563.914H85.7a11.979,11.979,0,0,1-.062-1.539V5.8h2.383Zm13.7,0H94.992V5.8h6.461V7.852H97.516v2.492h3.664v2.047H97.516v2.563h4.2Zm-.7-14.766L98.563,4.758H96.781l2.031-2.523ZM112.656,17h-2.992l-1.93-3.648a3.2,3.2,0,0,1-.227-.75h-.031a5.678,5.678,0,0,1-.258.781L105.281,17h-3.008l3.57-5.6-3.266-5.6h3.07l1.6,3.359a5.8,5.8,0,0,1,.336.945h.031q.094-.328.352-.977L109.75,5.8h2.813L109.2,11.352Zm3.859,0h-2.523V5.8h2.523ZM126.93,7.852h-3.2V17H121.2V7.852h-3.18V5.8h8.906Zm5.648,9.344a5.215,5.215,0,0,1-3.922-1.566,5.624,5.624,0,0,1-1.516-4.082,6.026,6.026,0,0,1,1.539-4.3,5.328,5.328,0,0,1,4.078-1.641,5.085,5.085,0,0,1,3.879,1.57,5.789,5.789,0,0,1,1.48,4.141,5.929,5.929,0,0,1-1.535,4.258A5.269,5.269,0,0,1,132.578,17.2Zm.109-9.414a2.54,2.54,0,0,0-2.109,1,4.153,4.153,0,0,0-.781,2.637,4.077,4.077,0,0,0,.781,2.633,2.7,2.7,0,0,0,4.117.027,4.032,4.032,0,0,0,.766-2.613,4.369,4.369,0,0,0-.742-2.711A2.42,2.42,0,0,0,132.688,7.781Zm11.188,8.789v-2.5a4.8,4.8,0,0,0,1.477.855,4.746,4.746,0,0,0,1.609.285,3.569,3.569,0,0,0,.832-.086,1.949,1.949,0,0,0,.594-.238,1.039,1.039,0,0,0,.355-.359.9.9,0,0,0,.117-.449.971.971,0,0,0-.187-.586,2.018,2.018,0,0,0-.512-.477,5.347,5.347,0,0,0-.77-.422q-.445-.2-.961-.414a4.9,4.9,0,0,1-1.957-1.336,2.917,2.917,0,0,1-.645-1.906,3.036,3.036,0,0,1,.352-1.5,2.986,2.986,0,0,1,.957-1.035,4.291,4.291,0,0,1,1.4-.6,7.206,7.206,0,0,1,1.688-.191,10.15,10.15,0,0,1,1.551.105,6.1,6.1,0,0,1,1.246.324V8.375a3.768,3.768,0,0,0-.613-.344,4.859,4.859,0,0,0-.684-.246,5.214,5.214,0,0,0-.7-.145,4.949,4.949,0,0,0-.66-.047,3.443,3.443,0,0,0-.781.082,2,2,0,0,0-.594.23,1.147,1.147,0,0,0-.375.355.843.843,0,0,0-.133.465.888.888,0,0,0,.148.5,1.7,1.7,0,0,0,.422.422,4.477,4.477,0,0,0,.664.391q.391.191.883.395a9.837,9.837,0,0,1,1.207.6,4.291,4.291,0,0,1,.918.715,2.785,2.785,0,0,1,.586.91,3.216,3.216,0,0,1,.2,1.191,3.191,3.191,0,0,1-.355,1.574,2.886,2.886,0,0,1-.965,1.031,4.184,4.184,0,0,1-1.418.566,8.2,8.2,0,0,1-1.707.172,9.492,9.492,0,0,1-1.754-.156A5.3,5.3,0,0,1,143.875,16.57Zm10.344.625a1.44,1.44,0,0,1-1.016-.375,1.206,1.206,0,0,1-.406-.922,1.161,1.161,0,0,1,.418-.922,1.543,1.543,0,0,1,1.043-.359,1.486,1.486,0,0,1,1.035.363,1.258,1.258,0,0,1-.008,1.852A1.549,1.549,0,0,1,154.219,17.2Zm13.328-.2H164.8l-.8-2.492h-3.984L159.227,17h-2.734L160.57,5.8h2.992Zm-4.125-4.43-1.2-3.766a4.906,4.906,0,0,1-.187-1.008h-.062a4.273,4.273,0,0,1-.2.977l-1.219,3.8ZM169.8,17.2a1.44,1.44,0,0,1-1.016-.375,1.206,1.206,0,0,1-.406-.922,1.161,1.161,0,0,1,.418-.922,1.543,1.543,0,0,1,1.043-.359,1.486,1.486,0,0,1,1.035.363,1.258,1.258,0,0,1-.008,1.852A1.549,1.549,0,0,1,169.8,17.2Zm-52.4,20.789a2.983,2.983,0,0,1,.137-.9,2.735,2.735,0,0,1,.41-.8,3.019,3.019,0,0,1,.684-.664,3.672,3.672,0,0,1,.965-.48,3.46,3.46,0,0,1-1.32-1.082,2.473,2.473,0,0,1-.469-1.465,2.649,2.649,0,0,1,.27-1.187,2.881,2.881,0,0,1,.746-.945,3.49,3.49,0,0,1,1.137-.621,4.485,4.485,0,0,1,1.441-.223,4.573,4.573,0,0,1,1.461.223,3.572,3.572,0,0,1,1.145.617,2.8,2.8,0,0,1,.746.934,2.615,2.615,0,0,1,.266,1.172,2.326,2.326,0,0,1-.5,1.449,3.722,3.722,0,0,1-1.383,1.074,3.769,3.769,0,0,1,.961.48,3.093,3.093,0,0,1,.7.668,2.736,2.736,0,0,1,.422.816,3.006,3.006,0,0,1,.141.918,2.933,2.933,0,0,1-.289,1.309,2.979,2.979,0,0,1-.816,1.016,3.853,3.853,0,0,1-1.258.66,5.661,5.661,0,0,1-3.211,0,3.84,3.84,0,0,1-1.258-.652,3.025,3.025,0,0,1-.824-1.012A2.852,2.852,0,0,1,117.406,37.984Zm2.336-.211a1.9,1.9,0,0,0,.117.688,1.406,1.406,0,0,0,.336.516,1.5,1.5,0,0,0,.52.324,1.906,1.906,0,0,0,.676.113,1.8,1.8,0,0,0,.66-.117,1.549,1.549,0,0,0,.52-.328,1.493,1.493,0,0,0,.344-.516,1.86,1.86,0,0,0,.008-1.32,1.523,1.523,0,0,0-.336-.527,1.635,1.635,0,0,0-1.2-.488,1.761,1.761,0,0,0-.656.121,1.5,1.5,0,0,0-.523.344,1.622,1.622,0,0,0-.344.527A1.733,1.733,0,0,0,119.742,37.773Zm.344-4.961a1.48,1.48,0,0,0,.105.559,1.441,1.441,0,0,0,.285.453,1.3,1.3,0,0,0,.426.3,1.3,1.3,0,0,0,1.043,0,1.331,1.331,0,0,0,.426-.3,1.459,1.459,0,0,0,.395-1.008,1.552,1.552,0,0,0-.1-.566,1.339,1.339,0,0,0-.715-.754,1.342,1.342,0,0,0-1.07,0,1.309,1.309,0,0,0-.422.3,1.369,1.369,0,0,0-.273.453A1.585,1.585,0,0,0,120.086,32.813Zm14.57,4.461a4.107,4.107,0,0,1-.289,1.547,3.776,3.776,0,0,1-.8,1.246,3.723,3.723,0,0,1-1.227.828,4.208,4.208,0,0,1-3.246-.051,3.414,3.414,0,0,1-1.262-1.02,4.767,4.767,0,0,1-.789-1.637,8.089,8.089,0,0,1-.273-2.2,9.039,9.039,0,0,1,.355-2.621,6.018,6.018,0,0,1,1.016-2.012,4.562,4.562,0,0,1,1.6-1.293,4.751,4.751,0,0,1,2.109-.457,5.321,5.321,0,0,1,2.016.3v2.063A3.7,3.7,0,0,0,132,31.492a2.6,2.6,0,0,0-1.133.242,2.5,2.5,0,0,0-.871.688,3.324,3.324,0,0,0-.57,1.074,4.781,4.781,0,0,0-.223,1.4h.047a2.717,2.717,0,0,1,2.352-1.1,3.064,3.064,0,0,1,1.258.25,2.729,2.729,0,0,1,.961.707,3.243,3.243,0,0,1,.617,1.1A4.379,4.379,0,0,1,134.656,37.273Zm-2.414.156q0-1.8-1.477-1.8a1.449,1.449,0,0,0-.609.125,1.356,1.356,0,0,0-.469.352,1.6,1.6,0,0,0-.3.535,2.1,2.1,0,0,0-.105.684,2.644,2.644,0,0,0,.109.773,2.054,2.054,0,0,0,.309.629,1.528,1.528,0,0,0,.473.426,1.206,1.206,0,0,0,.609.156,1.319,1.319,0,0,0,.605-.137,1.356,1.356,0,0,0,.461-.383,1.759,1.759,0,0,0,.293-.594A2.709,2.709,0,0,0,132.242,37.43Zm7.484,3.766q-4,0-4-5.617a7.643,7.643,0,0,1,1.082-4.441,3.605,3.605,0,0,1,3.137-1.527q3.906,0,3.906,5.711a7.526,7.526,0,0,1-1.066,4.359A3.513,3.513,0,0,1,139.727,41.2Zm.109-9.7q-1.6,0-1.6,4.023,0,3.789,1.57,3.789,1.531,0,1.531-3.906T139.836,31.492Zm11.992-1.7v7.063h1.344V38.7h-1.344V41h-2.25V38.7H144.7v-1.93q.648-.727,1.344-1.59t1.344-1.777q.648-.914,1.207-1.84a18.445,18.445,0,0,0,.949-1.77Zm-4.922,7.063h2.672V32.945q-.273.508-.594,1.027T148.313,35q-.352.5-.711.977T146.906,36.859ZM161.031,29.8v7.063h1.344V38.7h-1.344V41h-2.25V38.7H153.9v-1.93q.648-.727,1.344-1.59t1.344-1.777q.648-.914,1.207-1.84a18.445,18.445,0,0,0,.949-1.77Zm-4.922,7.063h2.672V32.945q-.273.508-.594,1.027T157.516,35q-.352.5-.711.977T156.109,36.859ZM167.336,41.2q-4,0-4-5.617a7.643,7.643,0,0,1,1.082-4.441,3.605,3.605,0,0,1,3.137-1.527q3.906,0,3.906,5.711a7.526,7.526,0,0,1-1.066,4.359A3.513,3.513,0,0,1,167.336,41.2Zm.109-9.7q-1.6,0-1.6,4.023,0,3.789,1.57,3.789,1.531,0,1.531-3.906T167.445,31.492Z" transform="translate(24.076 86.604)" fill="#12263f"/>
      <path id="Trazado_1054811" data-name="Trazado 1054811" d="M8,17H1.281V5.8H7.742V7.852H3.8v2.492H7.469v2.047H3.8v2.563H8Zm14.563,0H20.07V10.3q0-1.086.094-2.4H20.1a11.8,11.8,0,0,1-.352,1.484L17.125,17H15.063L12.391,9.461A14.67,14.67,0,0,1,12.039,7.9h-.07q.1,1.656.1,2.906V17H9.8V5.8h3.7l2.289,6.641a9.35,9.35,0,0,1,.4,1.6h.047a16.127,16.127,0,0,1,.445-1.617L18.961,5.8h3.6Zm5.07-3.859V17H25.109V5.8h3.953q4.234,0,4.234,3.57a3.426,3.426,0,0,1-1.215,2.73,4.813,4.813,0,0,1-3.246,1.043Zm0-5.406v3.492h.992q2.016,0,2.016-1.766,0-1.727-2.016-1.727ZM43.844,17h-2.75l-.8-2.492H36.313L35.523,17H32.789L36.867,5.8h2.992Zm-4.125-4.43L38.516,8.8A4.907,4.907,0,0,1,38.328,7.8h-.062a4.273,4.273,0,0,1-.2.977l-1.219,3.8ZM55.32,17H52.773L48.156,9.961a10.18,10.18,0,0,1-.562-.93h-.031q.063.594.063,1.813V17H45.242V5.8h2.719l4.445,6.82q.3.461.563.914H53a11.978,11.978,0,0,1-.062-1.539V5.8H55.32Zm12.414,0h-2.75l-.8-2.492H60.2L59.414,17H56.68L60.758,5.8H63.75Zm-4.125-4.43L62.406,8.8A4.907,4.907,0,0,1,62.219,7.8h-.062a4.273,4.273,0,0,1-.2.977l-1.219,3.8ZM69.133,17V5.8H73.1q5.969,0,5.969,5.461a5.522,5.522,0,0,1-1.629,4.18A6.007,6.007,0,0,1,73.1,17Zm2.523-9.148v7.1h1.25a3.378,3.378,0,0,0,2.574-.984,3.735,3.735,0,0,0,.934-2.68,3.388,3.388,0,0,0-.926-2.52,3.529,3.529,0,0,0-2.6-.918ZM90.539,17h-2.75l-.8-2.492H83.008L82.219,17H79.484L83.563,5.8h2.992Zm-4.125-4.43L85.211,8.8A4.908,4.908,0,0,1,85.023,7.8h-.062a4.273,4.273,0,0,1-.2.977l-1.219,3.8ZM100.18,17H91.156V15.547l5.742-7.7H91.57V5.8h8.594V7.211l-5.617,7.742h5.633Zm6.383.2a5.215,5.215,0,0,1-3.922-1.566,5.624,5.624,0,0,1-1.516-4.082,6.026,6.026,0,0,1,1.539-4.3,5.328,5.328,0,0,1,4.078-1.641,5.085,5.085,0,0,1,3.879,1.57,5.79,5.79,0,0,1,1.48,4.141,5.929,5.929,0,0,1-1.535,4.258A5.269,5.269,0,0,1,106.563,17.2Zm.109-9.414a2.54,2.54,0,0,0-2.109,1,4.153,4.153,0,0,0-.781,2.637,4.077,4.077,0,0,0,.781,2.633,2.7,2.7,0,0,0,4.117.027,4.032,4.032,0,0,0,.766-2.613A4.369,4.369,0,0,0,108.7,8.75,2.42,2.42,0,0,0,106.672,7.781ZM125.047,17h-6.672V5.8H120.9v9.156h4.148Zm8.32-9.148h-3.2V17h-2.531V7.852h-3.18V5.8h8.906ZM134.875,17V5.8h3.969q5.969,0,5.969,5.461a5.522,5.522,0,0,1-1.629,4.18A6.007,6.007,0,0,1,138.844,17ZM137.4,7.852v7.1h1.25a3.378,3.378,0,0,0,2.574-.984,3.735,3.735,0,0,0,.934-2.68,3.388,3.388,0,0,0-.926-2.52,3.529,3.529,0,0,0-2.6-.918ZM156.281,17h-2.75l-.8-2.492H148.75L147.961,17h-2.734L149.3,5.8H152.3Zm-4.125-4.43-1.2-3.766a4.906,4.906,0,0,1-.187-1.008H150.7a4.273,4.273,0,0,1-.2.977l-1.219,3.8ZM11.359,41H8.813L4.2,33.961a10.179,10.179,0,0,1-.562-.93H3.6q.062.594.063,1.813V41H1.281V29.8H4l4.445,6.82q.3.461.563.914h.031a11.978,11.978,0,0,1-.062-1.539V29.8h2.383Zm5.086,0H13.922V29.8h2.523Zm10.414-9.148h-3.2V41H21.133V31.852h-3.18V29.8h8.906Zm5.266,6.133a2.983,2.983,0,0,1,.137-.9,2.734,2.734,0,0,1,.41-.8,3.019,3.019,0,0,1,.684-.664,3.672,3.672,0,0,1,.965-.48A3.46,3.46,0,0,1,33,34.051a2.473,2.473,0,0,1-.469-1.465A2.649,2.649,0,0,1,32.8,31.4a2.881,2.881,0,0,1,.746-.945,3.49,3.49,0,0,1,1.137-.621,4.485,4.485,0,0,1,1.441-.223,4.573,4.573,0,0,1,1.461.223,3.572,3.572,0,0,1,1.145.617,2.8,2.8,0,0,1,.746.934,2.615,2.615,0,0,1,.266,1.172,2.326,2.326,0,0,1-.5,1.449,3.722,3.722,0,0,1-1.383,1.074,3.769,3.769,0,0,1,.961.48,3.093,3.093,0,0,1,.7.668,2.736,2.736,0,0,1,.422.816,3.006,3.006,0,0,1,.141.918,2.933,2.933,0,0,1-.289,1.309,2.979,2.979,0,0,1-.816,1.016,3.853,3.853,0,0,1-1.258.66,5.661,5.661,0,0,1-3.211,0,3.839,3.839,0,0,1-1.258-.652,3.025,3.025,0,0,1-.824-1.012A2.852,2.852,0,0,1,32.125,37.984Zm2.336-.211a1.9,1.9,0,0,0,.117.688,1.406,1.406,0,0,0,.336.516,1.5,1.5,0,0,0,.52.324,1.906,1.906,0,0,0,.676.113,1.8,1.8,0,0,0,.66-.117,1.549,1.549,0,0,0,.52-.328,1.493,1.493,0,0,0,.344-.516,1.86,1.86,0,0,0,.008-1.32,1.523,1.523,0,0,0-.336-.527,1.635,1.635,0,0,0-1.2-.488,1.761,1.761,0,0,0-.656.121,1.5,1.5,0,0,0-.523.344,1.622,1.622,0,0,0-.344.527A1.733,1.733,0,0,0,34.461,37.773Zm.344-4.961a1.48,1.48,0,0,0,.105.559,1.441,1.441,0,0,0,.285.453,1.3,1.3,0,0,0,.426.3,1.3,1.3,0,0,0,1.043,0,1.331,1.331,0,0,0,.426-.3,1.459,1.459,0,0,0,.395-1.008,1.552,1.552,0,0,0-.1-.566,1.339,1.339,0,0,0-.715-.754,1.342,1.342,0,0,0-1.07,0,1.309,1.309,0,0,0-.422.3,1.369,1.369,0,0,0-.273.453A1.585,1.585,0,0,0,34.8,32.813Zm14.57,4.461a4.107,4.107,0,0,1-.289,1.547,3.776,3.776,0,0,1-.8,1.246,3.723,3.723,0,0,1-1.227.828,4.208,4.208,0,0,1-3.246-.051,3.414,3.414,0,0,1-1.262-1.02,4.767,4.767,0,0,1-.789-1.637,8.088,8.088,0,0,1-.273-2.2,9.038,9.038,0,0,1,.355-2.621,6.018,6.018,0,0,1,1.016-2.012,4.562,4.562,0,0,1,1.6-1.293,4.751,4.751,0,0,1,2.109-.457,5.32,5.32,0,0,1,2.016.3v2.063a3.7,3.7,0,0,0-1.859-.484,2.6,2.6,0,0,0-1.133.242,2.5,2.5,0,0,0-.871.688,3.324,3.324,0,0,0-.57,1.074,4.781,4.781,0,0,0-.223,1.4h.047a2.717,2.717,0,0,1,2.352-1.1,3.064,3.064,0,0,1,1.258.25,2.729,2.729,0,0,1,.961.707,3.243,3.243,0,0,1,.617,1.1A4.379,4.379,0,0,1,49.375,37.273Zm-2.414.156q0-1.8-1.477-1.8a1.449,1.449,0,0,0-.609.125,1.356,1.356,0,0,0-.469.352,1.6,1.6,0,0,0-.3.535A2.1,2.1,0,0,0,44,37.32a2.644,2.644,0,0,0,.109.773,2.054,2.054,0,0,0,.309.629,1.528,1.528,0,0,0,.473.426,1.206,1.206,0,0,0,.609.156,1.319,1.319,0,0,0,.605-.137,1.356,1.356,0,0,0,.461-.383,1.759,1.759,0,0,0,.293-.594A2.708,2.708,0,0,0,46.961,37.43ZM54.445,41.2q-4,0-4-5.617a7.643,7.643,0,0,1,1.082-4.441,3.605,3.605,0,0,1,3.137-1.527q3.906,0,3.906,5.711A7.526,7.526,0,0,1,57.5,39.68,3.513,3.513,0,0,1,54.445,41.2Zm.109-9.7q-1.6,0-1.6,4.023,0,3.789,1.57,3.789,1.531,0,1.531-3.906T54.555,31.492Zm11.055-1.945V41H63.148V32.328a2.947,2.947,0,0,1-.48.34,4.96,4.96,0,0,1-.59.289,5.267,5.267,0,0,1-.648.219,4.737,4.737,0,0,1-.664.129V31.227a10.435,10.435,0,0,0,3.352-1.68ZM72.852,41.2q-4,0-4-5.617a7.643,7.643,0,0,1,1.082-4.441,3.605,3.605,0,0,1,3.137-1.527q3.906,0,3.906,5.711A7.526,7.526,0,0,1,75.91,39.68,3.513,3.513,0,0,1,72.852,41.2Zm.109-9.7q-1.6,0-1.6,4.023,0,3.789,1.57,3.789,1.531,0,1.531-3.906T72.961,31.492Zm9.094,9.7q-4,0-4-5.617a7.643,7.643,0,0,1,1.082-4.441,3.605,3.605,0,0,1,3.137-1.527q3.906,0,3.906,5.711a7.526,7.526,0,0,1-1.066,4.359A3.513,3.513,0,0,1,82.055,41.2Zm.109-9.7q-1.6,0-1.6,4.023,0,3.789,1.57,3.789,1.531,0,1.531-3.906T82.164,31.492Z" transform="translate(24.076 5.889)" fill="#12263f"/>
      <path id="Trazado_1054814" data-name="Trazado 1054814" d="M94.023,7.852H90.07V10.6H93.7v2.047H90.07V17H87.547V5.8h6.477ZM104.852,17H102.1l-.8-2.492H97.32L96.531,17H93.8L97.875,5.8h2.992Zm-4.125-4.43L99.523,8.8A4.908,4.908,0,0,1,99.336,7.8h-.062a4.273,4.273,0,0,1-.2.977l-1.219,3.8ZM114.039,16.6a7.388,7.388,0,0,1-3.2.594,5.4,5.4,0,0,1-4.055-1.516,5.54,5.54,0,0,1-1.477-4.039,5.919,5.919,0,0,1,1.66-4.359,5.807,5.807,0,0,1,4.309-1.672,8.058,8.058,0,0,1,2.766.414v2.43a4.9,4.9,0,0,0-2.562-.672,3.4,3.4,0,0,0-2.547.992,3.682,3.682,0,0,0-.969,2.688,3.611,3.611,0,0,0,.914,2.59,3.229,3.229,0,0,0,2.461.965,5.249,5.249,0,0,0,2.7-.719Zm9.82-8.75h-3.2V17h-2.531V7.852h-3.18V5.8h8.906Zm10.641,4.3q0,5.047-4.7,5.047-4.562,0-4.562-4.93V5.8h2.531v6.5q0,2.719,2.125,2.719,2.086,0,2.086-2.625V5.8H134.5ZM146.336,17h-2.9L141.7,14.117q-.2-.328-.375-.586a3.256,3.256,0,0,0-.363-.441,1.445,1.445,0,0,0-.383-.281.972.972,0,0,0-.434-.1h-.68V17h-2.523V5.8h4q4.078,0,4.078,3.047a3.155,3.155,0,0,1-.18,1.082,3.006,3.006,0,0,1-.508.895,3.219,3.219,0,0,1-.793.688,4.089,4.089,0,0,1-1.035.453v.031a1.606,1.606,0,0,1,.484.254,3.468,3.468,0,0,1,.453.41,5.723,5.723,0,0,1,.418.5q.2.27.363.527Zm-6.875-9.312V10.8h1.094a1.813,1.813,0,0,0,1.3-.469,1.564,1.564,0,0,0,.5-1.18q0-1.469-1.758-1.469ZM157.234,17h-2.75l-.8-2.492H149.7L148.914,17H146.18l4.078-11.2h2.992Zm-4.125-4.43-1.2-3.766a4.906,4.906,0,0,1-.187-1.008h-.062a4.273,4.273,0,0,1-.2.977l-1.219,3.8ZM163.047,17V5.8h3.969q5.969,0,5.969,5.461a5.522,5.522,0,0,1-1.629,4.18A6.007,6.007,0,0,1,167.016,17Zm2.523-9.148v7.1h1.25a3.378,3.378,0,0,0,2.574-.984,3.735,3.735,0,0,0,.934-2.68,3.388,3.388,0,0,0-.926-2.52,3.529,3.529,0,0,0-2.6-.918ZM181.563,17h-6.719V5.8H181.3V7.852h-3.937v2.492h3.664v2.047h-3.664v2.563h4.2ZM197.1,5.8,193.242,17h-2.859L186.57,5.8h2.719l2.336,7.8a5.584,5.584,0,0,1,.227,1.117h.047a6.314,6.314,0,0,1,.242-1.148l2.32-7.766ZM205.164,17h-6.719V5.8h6.461V7.852h-3.937v2.492h3.664v2.047h-3.664v2.563h4.2Zm11.875,0h-2.547l-4.617-7.039a10.181,10.181,0,0,1-.562-.93h-.031q.063.594.063,1.813V17h-2.383V5.8h2.719l4.445,6.82q.3.461.563.914h.031a11.977,11.977,0,0,1-.062-1.539V5.8h2.383Zm10.43-9.148h-3.2V17h-2.531V7.852h-3.18V5.8h8.906ZM237.711,17h-2.75l-.8-2.492H230.18L229.391,17h-2.734l4.078-11.2h2.992Zm-4.125-4.43-1.2-3.766A4.906,4.906,0,0,1,232.2,7.8h-.062a4.273,4.273,0,0,1-.2.977l-1.219,3.8ZM253.6,17h-2.547l-4.617-7.039a10.181,10.181,0,0,1-.562-.93h-.031q.063.594.063,1.813V17h-2.383V5.8h2.719l4.445,6.82q.3.461.563.914h.031a11.977,11.977,0,0,1-.062-1.539V5.8H253.6Zm6.133.2a4.3,4.3,0,0,1-3.145-1.121,4.064,4.064,0,0,1-1.145-3.043,4.065,4.065,0,0,1,1.188-3.105A4.487,4.487,0,0,1,259.844,8.8a4.249,4.249,0,0,1,3.125,1.121,3.985,3.985,0,0,1,1.133,2.965,4.23,4.23,0,0,1-1.168,3.148A4.348,4.348,0,0,1,259.734,17.2Zm.063-6.5a1.647,1.647,0,0,0-1.359.6,2.653,2.653,0,0,0-.484,1.7q0,2.3,1.859,2.3,1.773,0,1.773-2.367Q261.586,10.7,259.8,10.7Zm7.008,6.5a1.44,1.44,0,0,1-1.016-.375,1.206,1.206,0,0,1-.406-.922,1.161,1.161,0,0,1,.418-.922,1.543,1.543,0,0,1,1.043-.359,1.486,1.486,0,0,1,1.035.363,1.258,1.258,0,0,1-.008,1.852A1.549,1.549,0,0,1,266.8,17.2Z" transform="translate(547.983 5.332)" fill="#12263f"/>
      <path id="Trazado_1054812" data-name="Trazado 1054812" d="M154.313,7.852h-3.953V10.6h3.633v2.047h-3.633V17h-2.523V5.8h6.477ZM162.875,17h-6.719V5.8h6.461V7.852H158.68v2.492h3.664v2.047H158.68v2.563h4.2Zm9.828-.4a7.388,7.388,0,0,1-3.2.594,5.4,5.4,0,0,1-4.055-1.516,5.54,5.54,0,0,1-1.477-4.039,5.919,5.919,0,0,1,1.66-4.359,5.807,5.807,0,0,1,4.309-1.672,8.058,8.058,0,0,1,2.766.414v2.43a4.9,4.9,0,0,0-2.562-.672,3.4,3.4,0,0,0-2.547.992,3.682,3.682,0,0,0-.969,2.688,3.611,3.611,0,0,0,.914,2.59,3.229,3.229,0,0,0,2.461.965,5.249,5.249,0,0,0,2.7-.719Zm11.648.4H181.82V12.438H177.18V17h-2.523V5.8h2.523v4.469h4.641V5.8h2.531Zm12.414,0h-2.75l-.8-2.492h-3.984L188.445,17h-2.734l4.078-11.2h2.992Zm-4.125-4.43-1.2-3.766A4.906,4.906,0,0,1,191.25,7.8h-.062a4.273,4.273,0,0,1-.2.977l-1.219,3.8ZM209.3,17h-6.719V5.8h6.461V7.852H205.1v2.492h3.664v2.047H205.1v2.563h4.2Zm14.563,0h-2.492V10.3q0-1.086.094-2.4H221.4a11.8,11.8,0,0,1-.352,1.484L218.422,17h-2.062l-2.672-7.539a14.668,14.668,0,0,1-.352-1.562h-.07q.1,1.656.1,2.906V17h-2.273V5.8h3.7l2.289,6.641a9.349,9.349,0,0,1,.4,1.6h.047a16.127,16.127,0,0,1,.445-1.617L220.258,5.8h3.6Zm5.07,0h-2.523V5.8h2.523Zm2.031-.43v-2.5a4.8,4.8,0,0,0,1.477.855,4.746,4.746,0,0,0,1.609.285,3.569,3.569,0,0,0,.832-.086,1.949,1.949,0,0,0,.594-.238,1.039,1.039,0,0,0,.355-.359.9.9,0,0,0,.117-.449.971.971,0,0,0-.187-.586,2.018,2.018,0,0,0-.512-.477,5.347,5.347,0,0,0-.77-.422q-.445-.2-.961-.414a4.9,4.9,0,0,1-1.957-1.336,2.917,2.917,0,0,1-.645-1.906,3.036,3.036,0,0,1,.352-1.5,2.986,2.986,0,0,1,.957-1.035,4.291,4.291,0,0,1,1.4-.6,7.206,7.206,0,0,1,1.688-.191,10.15,10.15,0,0,1,1.551.105,6.1,6.1,0,0,1,1.246.324V8.375a3.768,3.768,0,0,0-.613-.344,4.859,4.859,0,0,0-.684-.246,5.214,5.214,0,0,0-.7-.145,4.949,4.949,0,0,0-.66-.047,3.443,3.443,0,0,0-.781.082,2,2,0,0,0-.594.23,1.147,1.147,0,0,0-.375.355.843.843,0,0,0-.133.465.888.888,0,0,0,.148.5,1.7,1.7,0,0,0,.422.422,4.477,4.477,0,0,0,.664.391q.391.191.883.395a9.837,9.837,0,0,1,1.207.6,4.291,4.291,0,0,1,.918.715,2.785,2.785,0,0,1,.586.91,3.216,3.216,0,0,1,.2,1.191,3.191,3.191,0,0,1-.355,1.574,2.886,2.886,0,0,1-.965,1.031,4.184,4.184,0,0,1-1.418.566,8.2,8.2,0,0,1-1.707.172,9.492,9.492,0,0,1-1.754-.156A5.3,5.3,0,0,1,230.961,16.57Zm12.008.43h-2.523V5.8h2.523Zm7.281.2a5.215,5.215,0,0,1-3.922-1.566,5.624,5.624,0,0,1-1.516-4.082,6.026,6.026,0,0,1,1.539-4.3,5.328,5.328,0,0,1,4.078-1.641,5.085,5.085,0,0,1,3.879,1.57,5.789,5.789,0,0,1,1.48,4.141,5.929,5.929,0,0,1-1.535,4.258A5.269,5.269,0,0,1,250.25,17.2Zm.109-9.414a2.54,2.54,0,0,0-2.109,1,4.153,4.153,0,0,0-.781,2.637,4.077,4.077,0,0,0,.781,2.633,2.7,2.7,0,0,0,4.117.027,4.032,4.032,0,0,0,.766-2.613,4.369,4.369,0,0,0-.742-2.711A2.42,2.42,0,0,0,250.359,7.781Zm2.547-5.547-2.445,2.523H248.68l2.031-2.523ZM267.719,17h-2.547l-4.617-7.039a10.174,10.174,0,0,1-.562-.93h-.031q.062.594.063,1.813V17h-2.383V5.8h2.719l4.445,6.82q.3.461.563.914h.031a11.98,11.98,0,0,1-.062-1.539V5.8h2.383Z" transform="translate(683.983 31.5)" fill="#12263f"/>
      <path id="Trazado_1054804" data-name="Trazado 1054804" d="M42.75,14.953H47.5V17H40.047v-.844a3.927,3.927,0,0,1,.289-1.543,5.12,5.12,0,0,1,.727-1.227,6.3,6.3,0,0,1,.957-.961q.52-.418.988-.754.492-.352.863-.672a4.919,4.919,0,0,0,.625-.637,2.421,2.421,0,0,0,.379-.641A1.905,1.905,0,0,0,45,9.031a1.39,1.39,0,0,0-.406-1.086,1.806,1.806,0,0,0-1.242-.367,4.172,4.172,0,0,0-2.766,1.148V6.555a5.937,5.937,0,0,1,3.3-.945,4.869,4.869,0,0,1,1.527.223,3.231,3.231,0,0,1,1.145.637,2.716,2.716,0,0,1,.715,1,3.388,3.388,0,0,1,.246,1.316,3.712,3.712,0,0,1-.238,1.375,4.225,4.225,0,0,1-.633,1.094,5.74,5.74,0,0,1-.91.9q-.516.41-1.07.793-.375.266-.723.527a6.851,6.851,0,0,0-.613.516,2.8,2.8,0,0,0-.422.5A.856.856,0,0,0,42.75,14.953Zm-2.437,29.68V42.484a4.336,4.336,0,0,0,2.625.82A2.363,2.363,0,0,0,44.41,42.9a1.349,1.349,0,0,0,.527-1.133,1.288,1.288,0,0,0-.652-1.156,3.38,3.38,0,0,0-1.793-.406H41.453V38.313h.961q2.187,0,2.188-1.453,0-1.367-1.68-1.367a3.829,3.829,0,0,0-2.187.727V34.2a6.042,6.042,0,0,1,2.75-.594,4.15,4.15,0,0,1,2.676.773,2.461,2.461,0,0,1,.957,2.008,2.611,2.611,0,0,1-2.227,2.75v.039a3.027,3.027,0,0,1,1.875.863,2.434,2.434,0,0,1,.688,1.754A3.006,3.006,0,0,1,46.3,44.281a4.965,4.965,0,0,1-3.172.914A6.13,6.13,0,0,1,40.313,44.633Z" transform="translate(939.551 84.604)" fill="#12263f"/>
      <path id="Trazado_1054815" data-name="Trazado 1054815" d="M83.3,5.547V17H80.836V8.328a2.947,2.947,0,0,1-.48.34,4.96,4.96,0,0,1-.59.289,5.267,5.267,0,0,1-.648.219,4.736,4.736,0,0,1-.664.129V7.227a10.266,10.266,0,0,0,1.813-.719A10.315,10.315,0,0,0,81.8,5.547Z" transform="translate(1134.983 5.332)" fill="#12263f"/>
      <path id="Trazado_1054813" data-name="Trazado 1054813" d="M47.422,5.8v7.063h1.344V14.7H47.422V17h-2.25V14.7H40.289v-1.93q.648-.727,1.344-1.59t1.344-1.777q.648-.914,1.207-1.84a18.444,18.444,0,0,0,.949-1.77ZM42.5,12.859h2.672V8.945q-.273.508-.594,1.027T43.906,11q-.352.5-.711.977T42.5,12.859ZM56.625,5.8v7.063h1.344V14.7H56.625V17h-2.25V14.7H49.492v-1.93q.648-.727,1.344-1.59T52.18,9.406q.648-.914,1.207-1.84a18.444,18.444,0,0,0,.949-1.77ZM51.7,12.859h2.672V8.945q-.273.508-.594,1.027T53.109,11q-.352.5-.711.977T51.7,12.859ZM64.891,5.547V17H62.43V8.328a2.947,2.947,0,0,1-.48.34,4.96,4.96,0,0,1-.59.289,5.267,5.267,0,0,1-.648.219,4.736,4.736,0,0,1-.664.129V7.227a10.266,10.266,0,0,0,1.813-.719A10.315,10.315,0,0,0,63.4,5.547ZM72.133,17.2q-4,0-4-5.617a7.643,7.643,0,0,1,1.082-4.441,3.605,3.605,0,0,1,3.137-1.527q3.906,0,3.906,5.711a7.526,7.526,0,0,1-1.066,4.359A3.513,3.513,0,0,1,72.133,17.2Zm.109-9.7q-1.6,0-1.6,4.023,0,3.789,1.57,3.789,1.531,0,1.531-3.906T72.242,7.492ZM84.234,5.8v7.063h1.344V14.7H84.234V17h-2.25V14.7H77.1v-1.93q.648-.727,1.344-1.59t1.344-1.777q.648-.914,1.207-1.84a18.442,18.442,0,0,0,.949-1.77Zm-4.922,7.063h2.672V8.945q-.273.508-.594,1.027T80.719,11q-.352.5-.711.977T79.313,12.859Z" transform="translate(1134.983 31.332)" fill="#12263f"/>
      <g id="Grupo_de_desplazamiento_1" data-name="Grupo de desplazamiento 1" transform="translate(1074.848 85.332)" clip-path="url(#clip-path)" style="isolation: isolate">
        <g id="Grupo_1180934" data-name="Grupo 1180934" transform="translate(-1207.551 -14361.834)">
          <text id="_COMPRA" data-name="   COMPRA" transform="translate(1207.551 14388.834)" fill="#12263f" font-size="16" font-family="SegoeUI-Bold, Segoe UI" font-weight="700"><tspan x="-82" y="17" xml:space="preserve">   COMPRA</tspan></text>
          <text id="VENDE" transform="translate(1207.551 14361.834)" fill="#12263f" font-size="16" font-family="SegoeUI-Bold, Segoe UI" font-weight="700"><tspan x="-52.141" y="17">VENDE</tspan></text>
        </g>
      </g>
      <path id="Trazado_1054722" data-name="Trazado 1054722" d="M-11.273,0H1115.039" transform="translate(124.512 108.247)" fill="none" stroke="#ccc" stroke-width="1"/>
      <path id="Trazado_1054809" data-name="Trazado 1054809" d="M0,0V54" transform="translate(206.576 27.247)" fill="none" stroke="#ccc" stroke-width="1"/>
      <path id="Trazado_1054805" data-name="Trazado 1054805" d="M0,0V29" transform="translate(206.576 108.247)" fill="none" stroke="#ccc" stroke-width="1"/>
      <path id="Trazado_1054719" data-name="Trazado 1054719" d="M-11.273,0H1115.039" transform="translate(124.537 27.247)" fill="none" stroke="#ccc" stroke-width="1"/>
      <path id="Trazado_1054720" data-name="Trazado 1054720" d="M-11.273,0H1115.039" transform="translate(124.512 54.247)" fill="none" stroke="#ccc" stroke-width="1"/>
      <path id="Trazado_1054721" data-name="Trazado 1054721" d="M-11.273,0H1115.039" transform="translate(124.512 81.247)" fill="none" stroke="#ccc" stroke-width="1"/>
    </g>
  </g>
</svg>
