<svg xmlns="http://www.w3.org/2000/svg" width="1093.61" height="394.456" viewBox="0 0 1093.61 394.456">
  <g id="Grupo_1180998" data-name="Grupo 1180998" transform="translate(6904.305 -8102.91)">
    <g id="Grupo_1180997" data-name="Grupo 1180997">
      <path id="Trazado_1034149" data-name="Trazado 1034149" d="M0,0H1093.565V107.085H0Z" transform="translate(-6904.305 8390.28)" fill="#f6f6f6"/>
      <path id="Trazado_1054512" data-name="Trazado 1054512" d="M0,0H1093.458V39.247H0Z" transform="translate(-6904.197 8458.119)" fill="#fff"/>
      <path id="Trazado_1035694" data-name="Trazado 1035694" d="M0,0H1093.458V39.247H0Z" transform="translate(-6904.25 8341.004)" fill="#f6f6f6"/>
      <path id="Trazado_1054732" data-name="Trazado 1054732" d="M-309.867-.43v-2.5a4.8,4.8,0,0,0,1.477.855,4.746,4.746,0,0,0,1.609.285,3.569,3.569,0,0,0,.832-.086,1.949,1.949,0,0,0,.594-.238A1.039,1.039,0,0,0-305-2.473a.9.9,0,0,0,.117-.449.971.971,0,0,0-.187-.586,2.017,2.017,0,0,0-.512-.477,5.347,5.347,0,0,0-.77-.422q-.445-.2-.961-.414a4.9,4.9,0,0,1-1.957-1.336,2.917,2.917,0,0,1-.645-1.906,3.036,3.036,0,0,1,.352-1.5,2.986,2.986,0,0,1,.957-1.035,4.291,4.291,0,0,1,1.4-.6,7.206,7.206,0,0,1,1.688-.191,10.15,10.15,0,0,1,1.551.105,6.1,6.1,0,0,1,1.246.324v2.336a3.768,3.768,0,0,0-.613-.344,4.859,4.859,0,0,0-.684-.246,5.214,5.214,0,0,0-.7-.145,4.949,4.949,0,0,0-.66-.047,3.443,3.443,0,0,0-.781.082,2,2,0,0,0-.594.23,1.146,1.146,0,0,0-.375.355.843.843,0,0,0-.133.465.888.888,0,0,0,.148.5,1.7,1.7,0,0,0,.422.422,4.477,4.477,0,0,0,.664.391q.391.191.883.395a9.839,9.839,0,0,1,1.207.6,4.291,4.291,0,0,1,.918.715,2.784,2.784,0,0,1,.586.91,3.216,3.216,0,0,1,.2,1.191,3.191,3.191,0,0,1-.355,1.574,2.886,2.886,0,0,1-.965,1.031,4.184,4.184,0,0,1-1.418.566A8.2,8.2,0,0,1-306.672.2a9.492,9.492,0,0,1-1.754-.156A5.3,5.3,0,0,1-309.867-.43Zm16.2.43h-6.719V-11.2h6.461v2.055h-3.937v2.492h3.664v2.047h-3.664v2.563h4.2Zm11.2,0h-2.9l-1.742-2.883q-.2-.328-.375-.586a3.254,3.254,0,0,0-.363-.441,1.445,1.445,0,0,0-.383-.281.972.972,0,0,0-.434-.1h-.68V0h-2.523V-11.2h4q4.078,0,4.078,3.047a3.155,3.155,0,0,1-.18,1.082,3.006,3.006,0,0,1-.508.895,3.219,3.219,0,0,1-.793.688,4.089,4.089,0,0,1-1.035.453v.031a1.606,1.606,0,0,1,.484.254,3.469,3.469,0,0,1,.453.41,5.721,5.721,0,0,1,.418.5q.2.27.363.527Zm-6.875-9.312V-6.2h1.094a1.813,1.813,0,0,0,1.3-.469,1.564,1.564,0,0,0,.5-1.18q0-1.469-1.758-1.469Zm17.25-1.891L-275.953,0h-2.859l-3.812-11.2h2.719l2.336,7.8a5.583,5.583,0,0,1,.227,1.117h.047a6.315,6.315,0,0,1,.242-1.148l2.32-7.766ZM-268.227,0h-2.523V-11.2h2.523Zm10.578-.4a7.388,7.388,0,0,1-3.2.594,5.4,5.4,0,0,1-4.055-1.516,5.54,5.54,0,0,1-1.477-4.039,5.919,5.919,0,0,1,1.66-4.359,5.807,5.807,0,0,1,4.309-1.672,8.058,8.058,0,0,1,2.766.414v2.43a4.9,4.9,0,0,0-2.562-.672,3.4,3.4,0,0,0-2.547.992,3.682,3.682,0,0,0-.969,2.688,3.611,3.611,0,0,0,.914,2.59,3.229,3.229,0,0,0,2.461.965,5.249,5.249,0,0,0,2.7-.719Zm4.477.4H-255.7V-11.2h2.523Zm7.281.2a5.215,5.215,0,0,1-3.922-1.566,5.624,5.624,0,0,1-1.516-4.082,6.026,6.026,0,0,1,1.539-4.3,5.328,5.328,0,0,1,4.078-1.641,5.085,5.085,0,0,1,3.879,1.57,5.789,5.789,0,0,1,1.48,4.141,5.929,5.929,0,0,1-1.535,4.258A5.269,5.269,0,0,1-245.891.2Zm.109-9.414a2.54,2.54,0,0,0-2.109,1,4.153,4.153,0,0,0-.781,2.637,4.077,4.077,0,0,0,.781,2.633,2.5,2.5,0,0,0,2.047.969,2.528,2.528,0,0,0,2.07-.941,4.032,4.032,0,0,0,.766-2.613,4.369,4.369,0,0,0-.742-2.711A2.42,2.42,0,0,0-245.781-9.219ZM-234.078,0V-11.2h3.969q5.969,0,5.969,5.461a5.522,5.522,0,0,1-1.629,4.18A6.007,6.007,0,0,1-230.109,0Zm2.523-9.148v7.1h1.25a3.378,3.378,0,0,0,2.574-.984,3.735,3.735,0,0,0,.934-2.68,3.388,3.388,0,0,0-.926-2.52,3.529,3.529,0,0,0-2.6-.918ZM-215.562,0h-6.719V-11.2h6.461v2.055h-3.937v2.492h3.664v2.047h-3.664v2.563h4.2ZM-199.5,0h-2.75l-.8-2.492h-3.984L-207.82,0h-2.734l4.078-11.2h2.992Zm-4.125-4.43-1.2-3.766a4.906,4.906,0,0,1-.187-1.008h-.062a4.273,4.273,0,0,1-.2.977l-1.219,3.8ZM-190.312-.4a7.388,7.388,0,0,1-3.2.594A5.4,5.4,0,0,1-197.57-1.32a5.54,5.54,0,0,1-1.477-4.039,5.919,5.919,0,0,1,1.66-4.359,5.807,5.807,0,0,1,4.309-1.672,8.058,8.058,0,0,1,2.766.414v2.43a4.9,4.9,0,0,0-2.562-.672,3.4,3.4,0,0,0-2.547.992,3.682,3.682,0,0,0-.969,2.688,3.611,3.611,0,0,0,.914,2.59,3.229,3.229,0,0,0,2.461.965,5.249,5.249,0,0,0,2.7-.719Zm11.086-4.453q0,5.047-4.7,5.047-4.563,0-4.562-4.93V-11.2h2.531v6.5q0,2.719,2.125,2.719,2.086,0,2.086-2.625V-11.2h2.523ZM-170.07,0h-6.719V-11.2h6.461v2.055h-3.937v2.492h3.664v2.047h-3.664v2.563h4.2Zm1.8,0V-11.2h3.969q5.969,0,5.969,5.461a5.522,5.522,0,0,1-1.629,4.18A6.007,6.007,0,0,1-164.3,0Zm2.523-9.148v7.1h1.25a3.378,3.378,0,0,0,2.574-.984,3.735,3.735,0,0,0,.934-2.68,3.388,3.388,0,0,0-.926-2.52,3.529,3.529,0,0,0-2.6-.918Zm18.406,4.3q0,5.047-4.7,5.047-4.563,0-4.562-4.93V-11.2h2.531v6.5q0,2.719,2.125,2.719,2.086,0,2.086-2.625V-11.2h2.523ZM-136.875-.4a7.388,7.388,0,0,1-3.2.594,5.4,5.4,0,0,1-4.055-1.516,5.54,5.54,0,0,1-1.477-4.039,5.919,5.919,0,0,1,1.66-4.359,5.807,5.807,0,0,1,4.309-1.672,8.058,8.058,0,0,1,2.766.414v2.43a4.9,4.9,0,0,0-2.562-.672,3.4,3.4,0,0,0-2.547.992,3.682,3.682,0,0,0-.969,2.688,3.611,3.611,0,0,0,.914,2.59,3.229,3.229,0,0,0,2.461.965,5.249,5.249,0,0,0,2.7-.719Zm9.82-8.75h-3.2V0h-2.531V-9.148h-3.18V-11.2h8.906ZM-121.406.2a5.215,5.215,0,0,1-3.922-1.566,5.624,5.624,0,0,1-1.516-4.082,6.026,6.026,0,0,1,1.539-4.3,5.328,5.328,0,0,1,4.078-1.641,5.085,5.085,0,0,1,3.879,1.57,5.79,5.79,0,0,1,1.48,4.141A5.929,5.929,0,0,1-117.4-1.422,5.269,5.269,0,0,1-121.406.2Zm.109-9.414a2.54,2.54,0,0,0-2.109,1,4.153,4.153,0,0,0-.781,2.637,4.077,4.077,0,0,0,.781,2.633,2.5,2.5,0,0,0,2.047.969,2.528,2.528,0,0,0,2.07-.941,4.032,4.032,0,0,0,.766-2.613,4.369,4.369,0,0,0-.742-2.711A2.42,2.42,0,0,0-121.3-9.219Zm20.148-1.984L-104.8-3.984V0h-2.523V-3.937l-3.555-7.266h2.883l1.8,4.18q.047.117.258.914h.031a4.07,4.07,0,0,1,.242-.883l1.836-4.211ZM-85.617,0h-2.75l-.8-2.492h-3.984L-93.937,0h-2.734l4.078-11.2H-89.6Zm-4.125-4.43-1.2-3.766A4.908,4.908,0,0,1-91.133-9.2H-91.2a4.273,4.273,0,0,1-.2.977l-1.219,3.8ZM-77.547,0h-6.672V-11.2H-81.7v9.156h4.148Zm9.141-.4a7.388,7.388,0,0,1-3.2.594A5.4,5.4,0,0,1-75.664-1.32a5.54,5.54,0,0,1-1.477-4.039,5.919,5.919,0,0,1,1.66-4.359,5.807,5.807,0,0,1,4.309-1.672,8.058,8.058,0,0,1,2.766.414v2.43a4.9,4.9,0,0,0-2.562-.672,3.4,3.4,0,0,0-2.547.992,3.682,3.682,0,0,0-.969,2.688,3.611,3.611,0,0,0,.914,2.59,3.229,3.229,0,0,0,2.461.965,5.249,5.249,0,0,0,2.7-.719Zm11.8.4h-2.75l-.8-2.492h-3.984L-64.922,0h-2.734l4.078-11.2h2.992Zm-4.125-4.43L-61.93-8.2A4.907,4.907,0,0,1-62.117-9.2h-.062a4.273,4.273,0,0,1-.2.977l-1.219,3.8ZM-45.125,0h-2.547l-4.617-7.039a10.18,10.18,0,0,1-.562-.93h-.031q.063.594.063,1.813V0H-55.2V-11.2h2.719l4.445,6.82q.3.461.563.914h.031a11.978,11.978,0,0,1-.062-1.539v-6.2h2.383ZM-34.7-9.148h-3.2V0h-2.531V-9.148H-43.6V-11.2H-34.7ZM-24.453,0H-27.2L-28-2.492h-3.984L-32.773,0h-2.734l4.078-11.2h2.992Zm-4.125-4.43-1.2-3.766A4.907,4.907,0,0,1-29.969-9.2h-.062a4.273,4.273,0,0,1-.2.977l-1.219,3.8ZM-13.656,0h-2.9L-18.3-2.883q-.2-.328-.375-.586a3.255,3.255,0,0,0-.363-.441,1.445,1.445,0,0,0-.383-.281.972.972,0,0,0-.434-.1h-.68V0h-2.523V-11.2h4q4.078,0,4.078,3.047a3.155,3.155,0,0,1-.18,1.082,3.006,3.006,0,0,1-.508.895,3.219,3.219,0,0,1-.793.688,4.089,4.089,0,0,1-1.035.453v.031a1.606,1.606,0,0,1,.484.254,3.469,3.469,0,0,1,.453.41,5.722,5.722,0,0,1,.418.5q.2.27.363.527Zm-6.875-9.312V-6.2h1.094a1.813,1.813,0,0,0,1.3-.469,1.564,1.564,0,0,0,.5-1.18q0-1.469-1.758-1.469ZM-10.086,0h-2.523V-11.2h2.523ZM-.867,0H-7.539V-11.2h2.523v9.156H-.867Zm8.18,0H.641V-11.2H3.164v9.156H7.313ZM19.023,0h-2.75l-.8-2.492H11.492L10.7,0H7.969l4.078-11.2h2.992ZM14.9-4.43,13.7-8.2A4.907,4.907,0,0,1,13.508-9.2h-.062a4.273,4.273,0,0,1-.2.977l-1.219,3.8ZM20.422,0V-11.2h3.969q5.969,0,5.969,5.461a5.522,5.522,0,0,1-1.629,4.18A6.007,6.007,0,0,1,24.391,0Zm2.523-9.148v7.1H24.2a3.378,3.378,0,0,0,2.574-.984,3.735,3.735,0,0,0,.934-2.68,3.388,3.388,0,0,0-.926-2.52,3.529,3.529,0,0,0-2.6-.918ZM36.953.2a5.215,5.215,0,0,1-3.922-1.566,5.624,5.624,0,0,1-1.516-4.082,6.026,6.026,0,0,1,1.539-4.3,5.328,5.328,0,0,1,4.078-1.641,5.085,5.085,0,0,1,3.879,1.57,5.79,5.79,0,0,1,1.48,4.141,5.929,5.929,0,0,1-1.535,4.258A5.269,5.269,0,0,1,36.953.2Zm.109-9.414a2.54,2.54,0,0,0-2.109,1,4.153,4.153,0,0,0-.781,2.637,4.077,4.077,0,0,0,.781,2.633A2.5,2.5,0,0,0,37-1.984a2.528,2.528,0,0,0,2.07-.941,4.032,4.032,0,0,0,.766-2.613,4.369,4.369,0,0,0-.742-2.711A2.42,2.42,0,0,0,37.063-9.219ZM48.766,0V-11.2h3.969q5.969,0,5.969,5.461a5.522,5.522,0,0,1-1.629,4.18A6.007,6.007,0,0,1,52.734,0Zm2.523-9.148v7.1h1.25a3.378,3.378,0,0,0,2.574-.984,3.735,3.735,0,0,0,.934-2.68,3.388,3.388,0,0,0-.926-2.52,3.529,3.529,0,0,0-2.6-.918ZM67.281,0H60.563V-11.2h6.461v2.055H63.086v2.492H66.75v2.047H63.086v2.563h4.2ZM75.75,0H69.078V-11.2H71.6v9.156H75.75Zm9.18.2q-4,0-4-5.617a7.643,7.643,0,0,1,1.082-4.441,3.605,3.605,0,0,1,3.137-1.527q3.906,0,3.906,5.711A7.526,7.526,0,0,1,87.988-1.32,3.513,3.513,0,0,1,84.93.2Zm.109-9.7q-1.6,0-1.6,4.023,0,3.789,1.57,3.789,1.531,0,1.531-3.906T85.039-9.508Zm11.055-1.945V0H93.633V-8.672a2.947,2.947,0,0,1-.48.34,4.96,4.96,0,0,1-.59.289,5.267,5.267,0,0,1-.648.219,4.736,4.736,0,0,1-.664.129V-9.773a10.266,10.266,0,0,0,1.813-.719,10.315,10.315,0,0,0,1.539-.961ZM114.344,0h-2.75l-.8-2.492h-3.984L106.023,0h-2.734l4.078-11.2h2.992Zm-4.125-4.43-1.2-3.766a4.908,4.908,0,0,1-.187-1.008h-.062a4.273,4.273,0,0,1-.2.977l-1.219,3.8ZM122.414,0h-6.672V-11.2h2.523v9.156h4.148Zm5.555-.367V-2.516a4.336,4.336,0,0,0,2.625.82,2.363,2.363,0,0,0,1.473-.406,1.349,1.349,0,0,0,.527-1.133,1.288,1.288,0,0,0-.652-1.156,3.38,3.38,0,0,0-1.793-.406h-1.039V-6.687h.961q2.187,0,2.188-1.453,0-1.367-1.68-1.367a3.829,3.829,0,0,0-2.187.727V-10.8a6.042,6.042,0,0,1,2.75-.594,4.15,4.15,0,0,1,2.676.773,2.461,2.461,0,0,1,.957,2.008,2.611,2.611,0,0,1-2.227,2.75v.039a3.027,3.027,0,0,1,1.875.863,2.434,2.434,0,0,1,.688,1.754,3.006,3.006,0,0,1-1.148,2.484A4.965,4.965,0,0,1,130.789.2,6.13,6.13,0,0,1,127.969-.367ZM140.8.2q-4,0-4-5.617a7.643,7.643,0,0,1,1.082-4.441,3.605,3.605,0,0,1,3.137-1.527q3.906,0,3.906,5.711a7.526,7.526,0,0,1-1.066,4.359A3.513,3.513,0,0,1,140.8.2Zm.109-9.7q-1.6,0-1.6,4.023,0,3.789,1.57,3.789,1.531,0,1.531-3.906T140.906-9.508ZM151.156,0V-11.2h3.969q5.969,0,5.969,5.461a5.522,5.522,0,0,1-1.629,4.18A6.007,6.007,0,0,1,155.125,0Zm2.523-9.148v7.1h1.25a3.378,3.378,0,0,0,2.574-.984,3.735,3.735,0,0,0,.934-2.68,3.388,3.388,0,0,0-.926-2.52,3.529,3.529,0,0,0-2.6-.918ZM169.672,0h-6.719V-11.2h6.461v2.055h-3.937v2.492h3.664v2.047h-3.664v2.563h4.2Zm5.7-.43v-2.5a4.8,4.8,0,0,0,1.477.855,4.746,4.746,0,0,0,1.609.285,3.569,3.569,0,0,0,.832-.086,1.949,1.949,0,0,0,.594-.238,1.039,1.039,0,0,0,.355-.359.9.9,0,0,0,.117-.449.971.971,0,0,0-.187-.586,2.018,2.018,0,0,0-.512-.477,5.347,5.347,0,0,0-.77-.422q-.445-.2-.961-.414a4.9,4.9,0,0,1-1.957-1.336,2.917,2.917,0,0,1-.645-1.906,3.036,3.036,0,0,1,.352-1.5,2.986,2.986,0,0,1,.957-1.035,4.291,4.291,0,0,1,1.4-.6,7.206,7.206,0,0,1,1.688-.191,10.15,10.15,0,0,1,1.551.105,6.1,6.1,0,0,1,1.246.324v2.336a3.768,3.768,0,0,0-.613-.344,4.859,4.859,0,0,0-.684-.246,5.214,5.214,0,0,0-.7-.145,4.949,4.949,0,0,0-.66-.047,3.443,3.443,0,0,0-.781.082,2,2,0,0,0-.594.23,1.147,1.147,0,0,0-.375.355.843.843,0,0,0-.133.465.888.888,0,0,0,.148.5,1.7,1.7,0,0,0,.422.422,4.477,4.477,0,0,0,.664.391q.391.191.883.395a9.836,9.836,0,0,1,1.207.6,4.291,4.291,0,0,1,.918.715,2.785,2.785,0,0,1,.586.91,3.216,3.216,0,0,1,.2,1.191,3.191,3.191,0,0,1-.355,1.574,2.886,2.886,0,0,1-.965,1.031,4.184,4.184,0,0,1-1.418.566A8.2,8.2,0,0,1,178.563.2a9.492,9.492,0,0,1-1.754-.156A5.3,5.3,0,0,1,175.367-.43Zm16.2.43h-6.719V-11.2h6.461v2.055h-3.937v2.492h3.664v2.047h-3.664v2.563h4.2Zm4.32-3.859V0h-2.523V-11.2h3.953q4.234,0,4.234,3.57A3.426,3.426,0,0,1,200.34-4.9a4.813,4.813,0,0,1-3.246,1.043Zm0-5.406v3.492h.992q2.016,0,2.016-1.766,0-1.727-2.016-1.727Zm15.172.117h-3.2V0h-2.531V-9.148h-3.18V-11.2h8.906ZM215.094,0H212.57V-11.2h2.523Zm9.266,0h-6.719V-11.2H224.1v2.055h-3.937v2.492h3.664v2.047h-3.664v2.563h4.2Zm14.563,0H236.43V-6.7q0-1.086.094-2.4h-.062a11.8,11.8,0,0,1-.352,1.484L233.484,0h-2.062L228.75-7.539A14.668,14.668,0,0,1,228.4-9.1h-.07q.1,1.656.1,2.906V0h-2.273V-11.2h3.7l2.289,6.641a9.349,9.349,0,0,1,.4,1.6h.047a16.127,16.127,0,0,1,.445-1.617L235.32-11.2h3.6Zm2.547,0V-11.2h4.078a5.093,5.093,0,0,1,2.883.688,2.211,2.211,0,0,1,1.008,1.938,2.293,2.293,0,0,1-.613,1.586,3.222,3.222,0,0,1-1.566.945v.031a3.1,3.1,0,0,1,1.91.883,2.469,2.469,0,0,1,.715,1.789,2.99,2.99,0,0,1-1.1,2.441,4.61,4.61,0,0,1-3.008.9Zm2.523-9.344v2.656H245.1a1.849,1.849,0,0,0,1.23-.379,1.291,1.291,0,0,0,.449-1.043q0-1.234-1.844-1.234Zm0,4.531v2.953h1.367a2.1,2.1,0,0,0,1.371-.406,1.357,1.357,0,0,0,.5-1.109,1.266,1.266,0,0,0-.488-1.055,2.16,2.16,0,0,0-1.363-.383ZM261.125,0h-2.9l-1.742-2.883q-.2-.328-.375-.586a3.256,3.256,0,0,0-.363-.441,1.445,1.445,0,0,0-.383-.281.972.972,0,0,0-.434-.1h-.68V0h-2.523V-11.2h4q4.078,0,4.078,3.047a3.155,3.155,0,0,1-.18,1.082,3.006,3.006,0,0,1-.508.895,3.219,3.219,0,0,1-.793.688,4.089,4.089,0,0,1-1.035.453v.031a1.606,1.606,0,0,1,.484.254,3.469,3.469,0,0,1,.453.41,5.721,5.721,0,0,1,.418.5q.2.27.363.527ZM254.25-9.312V-6.2h1.094a1.813,1.813,0,0,0,1.3-.469,1.564,1.564,0,0,0,.5-1.18q0-1.469-1.758-1.469ZM268.891,0h-6.719V-11.2h6.461v2.055H264.7v2.492h3.664v2.047H264.7v2.563h4.2Zm8.281-2.047h4.75V0h-7.453V-.844a3.927,3.927,0,0,1,.289-1.543,5.121,5.121,0,0,1,.727-1.227,6.3,6.3,0,0,1,.957-.961q.52-.418.988-.754.492-.352.863-.672a4.919,4.919,0,0,0,.625-.637,2.421,2.421,0,0,0,.379-.641,1.905,1.905,0,0,0,.125-.691,1.39,1.39,0,0,0-.406-1.086,1.806,1.806,0,0,0-1.242-.367,4.172,4.172,0,0,0-2.766,1.148v-2.172a5.937,5.937,0,0,1,3.3-.945,4.869,4.869,0,0,1,1.527.223,3.231,3.231,0,0,1,1.145.637,2.716,2.716,0,0,1,.715,1,3.388,3.388,0,0,1,.246,1.316,3.712,3.712,0,0,1-.238,1.375,4.225,4.225,0,0,1-.633,1.094,5.741,5.741,0,0,1-.91.9q-.516.41-1.07.793-.375.266-.723.527A6.851,6.851,0,0,0,277.75-3a2.8,2.8,0,0,0-.422.5A.856.856,0,0,0,277.172-2.047ZM287.563.2q-4,0-4-5.617a7.643,7.643,0,0,1,1.082-4.441,3.605,3.605,0,0,1,3.137-1.527q3.906,0,3.906,5.711a7.526,7.526,0,0,1-1.066,4.359A3.513,3.513,0,0,1,287.563.2Zm.109-9.7q-1.6,0-1.6,4.023,0,3.789,1.57,3.789,1.531,0,1.531-3.906T287.672-9.508Zm7.906,7.461h4.75V0h-7.453V-.844a3.927,3.927,0,0,1,.289-1.543,5.121,5.121,0,0,1,.727-1.227,6.3,6.3,0,0,1,.957-.961q.52-.418.988-.754.492-.352.863-.672a4.919,4.919,0,0,0,.625-.637,2.421,2.421,0,0,0,.379-.641,1.905,1.905,0,0,0,.125-.691,1.39,1.39,0,0,0-.406-1.086,1.806,1.806,0,0,0-1.242-.367,4.172,4.172,0,0,0-2.766,1.148v-2.172a5.937,5.937,0,0,1,3.3-.945,4.869,4.869,0,0,1,1.527.223,3.231,3.231,0,0,1,1.145.637,2.716,2.716,0,0,1,.715,1,3.388,3.388,0,0,1,.246,1.316,3.712,3.712,0,0,1-.238,1.375,4.225,4.225,0,0,1-.633,1.094,5.741,5.741,0,0,1-.91.9q-.516.41-1.07.793-.375.266-.723.527a6.851,6.851,0,0,0-.613.516,2.8,2.8,0,0,0-.422.5A.856.856,0,0,0,295.578-2.047ZM305.969.2q-4,0-4-5.617a7.643,7.643,0,0,1,1.082-4.441,3.605,3.605,0,0,1,3.137-1.527q3.906,0,3.906,5.711a7.526,7.526,0,0,1-1.066,4.359A3.513,3.513,0,0,1,305.969.2Zm.109-9.7q-1.6,0-1.6,4.023,0,3.789,1.57,3.789,1.531,0,1.531-3.906T306.078-9.508Z" transform="translate(-6590.773 8364.627)" fill="#12263f"/>
      <path id="Trazado_1034198" data-name="Trazado 1034198" d="M0,0H1093.124V238H0Z" transform="translate(-6903.819 8103.369)" fill="#fff"/>
      <path id="Trazado_1034195" data-name="Trazado 1034195" d="M0,0H1093.565V59.665H0Z" transform="translate(-6904.305 8103.369)" fill="#fd9826"/>
      <path id="Trazado_1034197" data-name="Trazado 1034197" d="M0,0H1093.565V59.665H0Z" transform="translate(-6904.305 8222.699)" fill="#fd9826"/>
      <path id="Trazado_1054736" data-name="Trazado 1054736" d="M0,0V177" transform="translate(-5998.1 8105.369)" fill="none"/>
      <path id="Trazado_1054745" data-name="Trazado 1054745" d="M75.281,17h-2.75l-.8-2.492H67.75L66.961,17H64.227L68.3,5.8H71.3Zm-4.125-4.43L69.953,8.8A4.908,4.908,0,0,1,69.766,7.8H69.7a4.273,4.273,0,0,1-.2.977l-1.219,3.8ZM84.469,16.6a7.388,7.388,0,0,1-3.2.594,5.4,5.4,0,0,1-4.055-1.516,5.54,5.54,0,0,1-1.477-4.039,5.919,5.919,0,0,1,1.66-4.359A5.807,5.807,0,0,1,81.7,5.609a8.058,8.058,0,0,1,2.766.414v2.43a4.9,4.9,0,0,0-2.562-.672,3.4,3.4,0,0,0-2.547.992,3.682,3.682,0,0,0-.969,2.688,3.611,3.611,0,0,0,.914,2.59,3.229,3.229,0,0,0,2.461.965,5.249,5.249,0,0,0,2.7-.719Zm11.086-4.453q0,5.047-4.7,5.047-4.562,0-4.562-4.93V5.8H88.82v6.5q0,2.719,2.125,2.719,2.086,0,2.086-2.625V5.8h2.523ZM104.711,17H97.992V5.8h6.461V7.852h-3.937v2.492h3.664v2.047h-3.664v2.563h4.2Zm1.8,0V5.8h3.969q5.969,0,5.969,5.461a5.522,5.522,0,0,1-1.629,4.18A6.007,6.007,0,0,1,110.477,17Zm2.523-9.148v7.1h1.25a3.378,3.378,0,0,0,2.574-.984,3.735,3.735,0,0,0,.934-2.68,3.388,3.388,0,0,0-.926-2.52,3.529,3.529,0,0,0-2.6-.918Zm18.406,4.3q0,5.047-4.7,5.047-4.562,0-4.562-4.93V5.8H120.7v6.5q0,2.719,2.125,2.719,2.086,0,2.086-2.625V5.8h2.523ZM137.906,16.6a7.388,7.388,0,0,1-3.2.594,5.4,5.4,0,0,1-4.055-1.516,5.54,5.54,0,0,1-1.477-4.039,5.919,5.919,0,0,1,1.66-4.359,5.807,5.807,0,0,1,4.309-1.672,8.058,8.058,0,0,1,2.766.414v2.43a4.9,4.9,0,0,0-2.562-.672,3.4,3.4,0,0,0-2.547.992,3.682,3.682,0,0,0-.969,2.688,3.611,3.611,0,0,0,.914,2.59,3.229,3.229,0,0,0,2.461.965,5.249,5.249,0,0,0,2.7-.719Zm9.82-8.75h-3.2V17H142V7.852h-3.18V5.8h8.906Zm5.648,9.344a5.215,5.215,0,0,1-3.922-1.566,5.624,5.624,0,0,1-1.516-4.082,6.026,6.026,0,0,1,1.539-4.3,5.328,5.328,0,0,1,4.078-1.641,5.085,5.085,0,0,1,3.879,1.57,5.789,5.789,0,0,1,1.48,4.141,5.929,5.929,0,0,1-1.535,4.258A5.269,5.269,0,0,1,153.375,17.2Zm.109-9.414a2.54,2.54,0,0,0-2.109,1,4.153,4.153,0,0,0-.781,2.637,4.077,4.077,0,0,0,.781,2.633,2.7,2.7,0,0,0,4.117.027,4.032,4.032,0,0,0,.766-2.613,4.369,4.369,0,0,0-.742-2.711A2.42,2.42,0,0,0,153.484,7.781ZM173.633,5.8l-3.648,7.219V17h-2.523V13.063L163.906,5.8h2.883l1.8,4.18q.047.117.258.914h.031a4.07,4.07,0,0,1,.242-.883L170.961,5.8ZM189.164,17h-2.75l-.8-2.492h-3.984L180.844,17h-2.734l4.078-11.2h2.992Zm-4.125-4.43-1.2-3.766a4.906,4.906,0,0,1-.187-1.008h-.062a4.273,4.273,0,0,1-.2.977l-1.219,3.8Zm12.2,4.43h-6.672V5.8h2.523v9.156h4.148Zm9.141-.4a7.388,7.388,0,0,1-3.2.594,5.4,5.4,0,0,1-4.055-1.516,5.54,5.54,0,0,1-1.477-4.039,5.919,5.919,0,0,1,1.66-4.359,5.807,5.807,0,0,1,4.309-1.672,8.058,8.058,0,0,1,2.766.414v2.43a4.9,4.9,0,0,0-2.562-.672,3.4,3.4,0,0,0-2.547.992,3.682,3.682,0,0,0-.969,2.688,3.611,3.611,0,0,0,.914,2.59,3.229,3.229,0,0,0,2.461.965,5.249,5.249,0,0,0,2.7-.719Zm11.8.4h-2.75l-.8-2.492h-3.984L209.859,17h-2.734L211.2,5.8H214.2Zm-4.125-4.43-1.2-3.766a4.906,4.906,0,0,1-.187-1.008H212.6a4.273,4.273,0,0,1-.2.977l-1.219,3.8Zm15.6,4.43h-2.547l-4.617-7.039a10.181,10.181,0,0,1-.562-.93H221.9q.063.594.063,1.813V17h-2.383V5.8H222.3l4.445,6.82q.3.461.563.914h.031a11.977,11.977,0,0,1-.062-1.539V5.8h2.383Zm10.43-9.148h-3.2V17h-2.531V7.852h-3.18V5.8h8.906ZM250.328,17h-2.75l-.8-2.492H242.8L242.008,17h-2.734l4.078-11.2h2.992ZM246.2,12.57,245,8.8a4.906,4.906,0,0,1-.187-1.008h-.062a4.273,4.273,0,0,1-.2.977l-1.219,3.8ZM261.125,17h-2.9l-1.742-2.883q-.2-.328-.375-.586a3.256,3.256,0,0,0-.363-.441,1.445,1.445,0,0,0-.383-.281.972.972,0,0,0-.434-.1h-.68V17h-2.523V5.8h4q4.078,0,4.078,3.047a3.155,3.155,0,0,1-.18,1.082,3.006,3.006,0,0,1-.508.895,3.219,3.219,0,0,1-.793.688,4.089,4.089,0,0,1-1.035.453v.031a1.606,1.606,0,0,1,.484.254,3.469,3.469,0,0,1,.453.41,5.721,5.721,0,0,1,.418.5q.2.27.363.527ZM254.25,7.688V10.8h1.094a1.813,1.813,0,0,0,1.3-.469,1.564,1.564,0,0,0,.5-1.18q0-1.469-1.758-1.469ZM264.7,17h-2.523V5.8H264.7Zm9.219,0h-6.672V5.8h2.523v9.156h4.148Zm8.18,0h-6.672V5.8h2.523v9.156h4.148ZM293.8,17h-2.75l-.8-2.492h-3.984L285.484,17H282.75l4.078-11.2h2.992Zm-4.125-4.43-1.2-3.766a4.909,4.909,0,0,1-.187-1.008h-.062a4.273,4.273,0,0,1-.2.977l-1.219,3.8ZM295.2,17V5.8h3.969q5.969,0,5.969,5.461a5.522,5.522,0,0,1-1.629,4.18A6.007,6.007,0,0,1,299.172,17Zm2.523-9.148v7.1h1.25a3.378,3.378,0,0,0,2.574-.984,3.735,3.735,0,0,0,.934-2.68,3.388,3.388,0,0,0-.926-2.52,3.529,3.529,0,0,0-2.6-.918ZM311.734,17.2a5.215,5.215,0,0,1-3.922-1.566,5.624,5.624,0,0,1-1.516-4.082,6.026,6.026,0,0,1,1.539-4.3,5.328,5.328,0,0,1,4.078-1.641,5.085,5.085,0,0,1,3.879,1.57,5.79,5.79,0,0,1,1.48,4.141,5.929,5.929,0,0,1-1.535,4.258A5.269,5.269,0,0,1,311.734,17.2Zm.109-9.414a2.54,2.54,0,0,0-2.109,1,4.153,4.153,0,0,0-.781,2.637,4.077,4.077,0,0,0,.781,2.633,2.7,2.7,0,0,0,4.117.027,4.032,4.032,0,0,0,.766-2.613,4.369,4.369,0,0,0-.742-2.711A2.42,2.42,0,0,0,311.844,7.781Z" transform="translate(-6794.205 8124.201)" fill="#12263f"/>
      <path id="Trazado_1054743" data-name="Trazado 1054743" d="M8,17H1.281V5.8H7.742V7.852H3.8v2.492H7.469v2.047H3.8v2.563H8Zm14.563,0H20.07V10.3q0-1.086.094-2.4H20.1a11.8,11.8,0,0,1-.352,1.484L17.125,17H15.063L12.391,9.461A14.67,14.67,0,0,1,12.039,7.9h-.07q.1,1.656.1,2.906V17H9.8V5.8h3.7l2.289,6.641a9.35,9.35,0,0,1,.4,1.6h.047a16.127,16.127,0,0,1,.445-1.617L18.961,5.8h3.6Zm5.07-3.859V17H25.109V5.8h3.953q4.234,0,4.234,3.57a3.426,3.426,0,0,1-1.215,2.73,4.813,4.813,0,0,1-3.246,1.043Zm0-5.406v3.492h.992q2.016,0,2.016-1.766,0-1.727-2.016-1.727ZM43.844,17h-2.75l-.8-2.492H36.313L35.523,17H32.789L36.867,5.8h2.992Zm-4.125-4.43L38.516,8.8A4.907,4.907,0,0,1,38.328,7.8h-.062a4.273,4.273,0,0,1-.2.977l-1.219,3.8ZM55.32,17H52.773L48.156,9.961a10.18,10.18,0,0,1-.562-.93h-.031q.063.594.063,1.813V17H45.242V5.8h2.719l4.445,6.82q.3.461.563.914H53a11.978,11.978,0,0,1-.062-1.539V5.8H55.32Zm12.414,0h-2.75l-.8-2.492H60.2L59.414,17H56.68L60.758,5.8H63.75Zm-4.125-4.43L62.406,8.8A4.907,4.907,0,0,1,62.219,7.8h-.062a4.273,4.273,0,0,1-.2.977l-1.219,3.8ZM69.133,17V5.8H73.1q5.969,0,5.969,5.461a5.522,5.522,0,0,1-1.629,4.18A6.007,6.007,0,0,1,73.1,17Zm2.523-9.148v7.1h1.25a3.378,3.378,0,0,0,2.574-.984,3.735,3.735,0,0,0,.934-2.68,3.388,3.388,0,0,0-.926-2.52,3.529,3.529,0,0,0-2.6-.918ZM90.539,17h-2.75l-.8-2.492H83.008L82.219,17H79.484L83.563,5.8h2.992Zm-4.125-4.43L85.211,8.8A4.908,4.908,0,0,1,85.023,7.8h-.062a4.273,4.273,0,0,1-.2.977l-1.219,3.8ZM100.18,17H91.156V15.547l5.742-7.7H91.57V5.8h8.594V7.211l-5.617,7.742h5.633Zm6.383.2a5.215,5.215,0,0,1-3.922-1.566,5.624,5.624,0,0,1-1.516-4.082,6.026,6.026,0,0,1,1.539-4.3,5.328,5.328,0,0,1,4.078-1.641,5.085,5.085,0,0,1,3.879,1.57,5.79,5.79,0,0,1,1.48,4.141,5.929,5.929,0,0,1-1.535,4.258A5.269,5.269,0,0,1,106.563,17.2Zm.109-9.414a2.54,2.54,0,0,0-2.109,1,4.153,4.153,0,0,0-.781,2.637,4.077,4.077,0,0,0,.781,2.633,2.7,2.7,0,0,0,4.117.027,4.032,4.032,0,0,0,.766-2.613A4.369,4.369,0,0,0,108.7,8.75,2.42,2.42,0,0,0,106.672,7.781ZM125.047,17h-6.672V5.8H120.9v9.156h4.148Zm8.32-9.148h-3.2V17h-2.531V7.852h-3.18V5.8h8.906ZM134.875,17V5.8h3.969q5.969,0,5.969,5.461a5.522,5.522,0,0,1-1.629,4.18A6.007,6.007,0,0,1,138.844,17ZM137.4,7.852v7.1h1.25a3.378,3.378,0,0,0,2.574-.984,3.735,3.735,0,0,0,.934-2.68,3.388,3.388,0,0,0-.926-2.52,3.529,3.529,0,0,0-2.6-.918ZM156.281,17h-2.75l-.8-2.492H148.75L147.961,17h-2.734L149.3,5.8H152.3Zm-4.125-4.43-1.2-3.766a4.906,4.906,0,0,1-.187-1.008H150.7a4.273,4.273,0,0,1-.2.977l-1.219,3.8Z" transform="translate(-6820 8182.871)" fill="#12263f"/>
      <path id="Trazado_1054744" data-name="Trazado 1054744" d="M55.671,7.852H51.718V10.6h3.633v2.047H51.718V17H49.195V5.8h6.477ZM66.914,17h-2.9l-1.742-2.883q-.2-.328-.375-.586a3.255,3.255,0,0,0-.363-.441,1.445,1.445,0,0,0-.383-.281.972.972,0,0,0-.434-.1h-.68V17H57.515V5.8h4q4.078,0,4.078,3.047a3.155,3.155,0,0,1-.18,1.082,3.006,3.006,0,0,1-.508.895,3.219,3.219,0,0,1-.793.688,4.089,4.089,0,0,1-1.035.453v.031a1.606,1.606,0,0,1,.484.254,3.468,3.468,0,0,1,.453.41,5.722,5.722,0,0,1,.418.5q.2.27.363.527ZM60.039,7.688V10.8h1.094a1.813,1.813,0,0,0,1.3-.469,1.564,1.564,0,0,0,.5-1.18q0-1.469-1.758-1.469ZM77.812,17h-2.75l-.8-2.492H70.281L69.492,17H66.757L70.835,5.8h2.992Zm-4.125-4.43L72.484,8.8A4.908,4.908,0,0,1,72.3,7.8h-.062a4.273,4.273,0,0,1-.2.977l-1.219,3.8ZM83.625,17V5.8h3.969q5.969,0,5.969,5.461a5.522,5.522,0,0,1-1.629,4.18A6.007,6.007,0,0,1,87.593,17Zm2.523-9.148v7.1H87.4a3.378,3.378,0,0,0,2.574-.984,3.735,3.735,0,0,0,.934-2.68,3.388,3.388,0,0,0-.926-2.52,3.529,3.529,0,0,0-2.6-.918ZM102.14,17H95.421V5.8h6.461V7.852H97.945v2.492h3.664v2.047H97.945v2.563h4.2ZM117.679,5.8,113.82,17H110.96L107.148,5.8h2.719l2.336,7.8a5.584,5.584,0,0,1,.227,1.117h.047a6.315,6.315,0,0,1,.242-1.148l2.32-7.766ZM125.742,17h-6.719V5.8h6.461V7.852h-3.937v2.492h3.664v2.047h-3.664v2.563h4.2Zm11.875,0H135.07l-4.617-7.039a10.174,10.174,0,0,1-.562-.93h-.031q.062.594.063,1.813V17h-2.383V5.8h2.719l4.445,6.82q.3.461.563.914h.031a11.977,11.977,0,0,1-.062-1.539V5.8h2.383Zm10.43-9.148h-3.2V17H142.32V7.852h-3.18V5.8h8.906ZM158.289,17h-2.75l-.8-2.492h-3.984L149.968,17h-2.734l4.078-11.2H154.3Zm-4.125-4.43L152.96,8.8a4.906,4.906,0,0,1-.187-1.008h-.062a4.273,4.273,0,0,1-.2.977l-1.219,3.8ZM174.179,17h-2.547l-4.617-7.039a10.181,10.181,0,0,1-.562-.93h-.031q.063.594.063,1.813V17H164.1V5.8h2.719l4.445,6.82q.3.461.563.914h.031a11.977,11.977,0,0,1-.062-1.539V5.8h2.383Zm6.133.2a4.3,4.3,0,0,1-3.145-1.121,4.064,4.064,0,0,1-1.145-3.043,4.065,4.065,0,0,1,1.188-3.105A4.487,4.487,0,0,1,180.421,8.8a4.249,4.249,0,0,1,3.125,1.121,3.985,3.985,0,0,1,1.133,2.965,4.23,4.23,0,0,1-1.168,3.148A4.348,4.348,0,0,1,180.312,17.2Zm.063-6.5a1.647,1.647,0,0,0-1.359.6,2.653,2.653,0,0,0-.484,1.7q0,2.3,1.859,2.3,1.773,0,1.773-2.367Q182.164,10.7,180.375,10.7Zm7.008,6.5a1.44,1.44,0,0,1-1.016-.375,1.206,1.206,0,0,1-.406-.922,1.161,1.161,0,0,1,.418-.922,1.543,1.543,0,0,1,1.043-.359,1.486,1.486,0,0,1,1.035.363,1.258,1.258,0,0,1-.008,1.852A1.549,1.549,0,0,1,187.382,17.2Z" transform="translate(-6267.626 8128.701)" fill="#12263f"/>
      <path id="Trazado_1054740" data-name="Trazado 1054740" d="M65.281,7.852H61.328V10.6H64.96v2.047H61.328V17H58.8V5.8h6.477ZM73.843,17H67.125V5.8h6.461V7.852H69.648v2.492h3.664v2.047H69.648v2.563h4.2Zm9.828-.4a7.388,7.388,0,0,1-3.2.594,5.4,5.4,0,0,1-4.055-1.516,5.54,5.54,0,0,1-1.477-4.039A5.919,5.919,0,0,1,76.6,7.281a5.807,5.807,0,0,1,4.309-1.672,8.058,8.058,0,0,1,2.766.414v2.43a4.9,4.9,0,0,0-2.562-.672,3.4,3.4,0,0,0-2.547.992,3.682,3.682,0,0,0-.969,2.688,3.611,3.611,0,0,0,.914,2.59,3.229,3.229,0,0,0,2.461.965,5.249,5.249,0,0,0,2.7-.719ZM95.32,17H92.789V12.438H88.148V17H85.625V5.8h2.523v4.469h4.641V5.8H95.32Zm12.414,0h-2.75l-.8-2.492H100.2L99.414,17H96.679l4.078-11.2h2.992Zm-4.125-4.43-1.2-3.766a4.908,4.908,0,0,1-.187-1.008h-.062a4.273,4.273,0,0,1-.2.977l-1.219,3.8ZM120.265,17h-6.719V5.8h6.461V7.852H116.07v2.492h3.664v2.047H116.07v2.563h4.2Zm14.563,0h-2.492V10.3q0-1.086.094-2.4h-.062a11.806,11.806,0,0,1-.352,1.484L129.39,17h-2.063l-2.672-7.539A14.672,14.672,0,0,1,124.3,7.9h-.07q.1,1.656.1,2.906V17h-2.273V5.8h3.7l2.289,6.641a9.349,9.349,0,0,1,.4,1.6h.047a16.119,16.119,0,0,1,.445-1.617L131.226,5.8h3.6Zm5.07,0h-2.523V5.8H139.9Zm2.031-.43v-2.5a4.8,4.8,0,0,0,1.477.855,4.746,4.746,0,0,0,1.609.285,3.569,3.569,0,0,0,.832-.086,1.949,1.949,0,0,0,.594-.238,1.039,1.039,0,0,0,.355-.359.9.9,0,0,0,.117-.449.971.971,0,0,0-.187-.586,2.018,2.018,0,0,0-.512-.477,5.347,5.347,0,0,0-.77-.422q-.445-.2-.961-.414a4.9,4.9,0,0,1-1.957-1.336,2.917,2.917,0,0,1-.645-1.906,3.036,3.036,0,0,1,.352-1.5,2.986,2.986,0,0,1,.957-1.035,4.291,4.291,0,0,1,1.4-.6,7.206,7.206,0,0,1,1.688-.191,10.15,10.15,0,0,1,1.551.105,6.1,6.1,0,0,1,1.246.324V8.375a3.768,3.768,0,0,0-.613-.344,4.859,4.859,0,0,0-.684-.246,5.214,5.214,0,0,0-.7-.145,4.949,4.949,0,0,0-.66-.047,3.443,3.443,0,0,0-.781.082,2,2,0,0,0-.594.23,1.147,1.147,0,0,0-.375.355.843.843,0,0,0-.133.465.888.888,0,0,0,.148.5,1.7,1.7,0,0,0,.422.422,4.477,4.477,0,0,0,.664.391q.391.191.883.395a9.837,9.837,0,0,1,1.207.6,4.291,4.291,0,0,1,.918.715,2.785,2.785,0,0,1,.586.91,3.216,3.216,0,0,1,.2,1.191,3.191,3.191,0,0,1-.355,1.574,2.886,2.886,0,0,1-.965,1.031,4.184,4.184,0,0,1-1.418.566,8.2,8.2,0,0,1-1.707.172,9.492,9.492,0,0,1-1.754-.156A5.3,5.3,0,0,1,141.929,16.57Zm12.008.43h-2.523V5.8h2.523Zm7.281.2a5.215,5.215,0,0,1-3.922-1.566,5.624,5.624,0,0,1-1.516-4.082,6.026,6.026,0,0,1,1.539-4.3A5.328,5.328,0,0,1,161.4,5.609a5.085,5.085,0,0,1,3.879,1.57,5.789,5.789,0,0,1,1.48,4.141,5.929,5.929,0,0,1-1.535,4.258A5.269,5.269,0,0,1,161.218,17.2Zm.109-9.414a2.54,2.54,0,0,0-2.109,1,4.153,4.153,0,0,0-.781,2.637,4.077,4.077,0,0,0,.781,2.633,2.7,2.7,0,0,0,4.117.027,4.032,4.032,0,0,0,.766-2.613,4.369,4.369,0,0,0-.742-2.711A2.42,2.42,0,0,0,161.328,7.781Zm2.547-5.547-2.445,2.523h-1.781l2.031-2.523ZM178.687,17H176.14l-4.617-7.039a10.181,10.181,0,0,1-.562-.93h-.031q.063.594.063,1.813V17h-2.383V5.8h2.719l4.445,6.82q.3.461.563.914h.031a11.977,11.977,0,0,1-.062-1.539V5.8h2.383Z" transform="translate(-6267.626 8183.537)" fill="#12263f"/>
      <path id="Trazado_1054746" data-name="Trazado 1054746" d="M28.194,7.219q-.75,1.352-1.344,2.535T25.8,12.09a22.029,22.029,0,0,0-.773,2.344A22.638,22.638,0,0,0,24.507,17H21.929a21.094,21.094,0,0,1,.578-2.516,23.592,23.592,0,0,1,.832-2.348Q23.811,11,24.386,9.922T25.6,7.813H20.4V5.8h7.8Zm9.2,0q-.75,1.352-1.344,2.535T35.007,12.09a22.03,22.03,0,0,0-.773,2.344A22.638,22.638,0,0,0,33.71,17H31.132a21.094,21.094,0,0,1,.578-2.516,23.592,23.592,0,0,1,.832-2.348Q33.015,11,33.589,9.922T34.8,7.813H29.6V5.8h7.8Zm9.148,3.641a9.937,9.937,0,0,1-.328,2.668,5.723,5.723,0,0,1-.957,1.988,4.227,4.227,0,0,1-1.535,1.246,4.7,4.7,0,0,1-2.055.434,5.838,5.838,0,0,1-2.367-.437V14.727a3.793,3.793,0,0,0,2.125.578,2.446,2.446,0,0,0,1.992-.867,3.869,3.869,0,0,0,.727-2.508l-.047-.016a2.537,2.537,0,0,1-2.258,1.1,3.1,3.1,0,0,1-1.27-.258,3.05,3.05,0,0,1-1.008-.715,3.267,3.267,0,0,1-.664-1.09,3.917,3.917,0,0,1-.238-1.391,4.318,4.318,0,0,1,.289-1.609,3.684,3.684,0,0,1,.809-1.25,3.568,3.568,0,0,1,1.246-.809,4.37,4.37,0,0,1,1.609-.285,3.685,3.685,0,0,1,1.641.355A3.447,3.447,0,0,1,45.5,6.992a4.8,4.8,0,0,1,.781,1.648A8.352,8.352,0,0,1,46.546,10.859ZM44.054,9.547a2.9,2.9,0,0,0-.109-.809,2.128,2.128,0,0,0-.3-.652,1.483,1.483,0,0,0-.477-.434,1.226,1.226,0,0,0-.617-.16,1.256,1.256,0,0,0-.59.141,1.438,1.438,0,0,0-.465.387,1.832,1.832,0,0,0-.3.59,2.435,2.435,0,0,0-.109.742,2.536,2.536,0,0,0,.109.777,1.66,1.66,0,0,0,.309.574,1.3,1.3,0,0,0,.48.355,1.565,1.565,0,0,0,.625.121,1.342,1.342,0,0,0,.594-.129,1.43,1.43,0,0,0,.457-.348,1.574,1.574,0,0,0,.3-.516A1.9,1.9,0,0,0,44.054,9.547Zm11.7,1.313a9.937,9.937,0,0,1-.328,2.668,5.723,5.723,0,0,1-.957,1.988,4.227,4.227,0,0,1-1.535,1.246,4.7,4.7,0,0,1-2.055.434,5.838,5.838,0,0,1-2.367-.437V14.727a3.793,3.793,0,0,0,2.125.578,2.446,2.446,0,0,0,1.992-.867,3.869,3.869,0,0,0,.727-2.508l-.047-.016a2.537,2.537,0,0,1-2.258,1.1,3.1,3.1,0,0,1-1.27-.258,3.05,3.05,0,0,1-1.008-.715,3.267,3.267,0,0,1-.664-1.09,3.917,3.917,0,0,1-.238-1.391,4.318,4.318,0,0,1,.289-1.609,3.684,3.684,0,0,1,.809-1.25,3.568,3.568,0,0,1,1.246-.809,4.37,4.37,0,0,1,1.609-.285,3.685,3.685,0,0,1,1.641.355A3.447,3.447,0,0,1,54.7,6.992a4.8,4.8,0,0,1,.781,1.648A8.352,8.352,0,0,1,55.749,10.859ZM53.257,9.547a2.9,2.9,0,0,0-.109-.809,2.128,2.128,0,0,0-.3-.652,1.483,1.483,0,0,0-.477-.434,1.226,1.226,0,0,0-.617-.16,1.256,1.256,0,0,0-.59.141,1.438,1.438,0,0,0-.465.387,1.832,1.832,0,0,0-.3.59,2.435,2.435,0,0,0-.109.742,2.536,2.536,0,0,0,.109.777,1.66,1.66,0,0,0,.309.574,1.3,1.3,0,0,0,.48.355,1.565,1.565,0,0,0,.625.121,1.342,1.342,0,0,0,.594-.129,1.43,1.43,0,0,0,.457-.348,1.574,1.574,0,0,0,.3-.516A1.9,1.9,0,0,0,53.257,9.547Z" transform="translate(-5925 8125.701)" fill="#12263f"/>
      <path id="Trazado_1054741" data-name="Trazado 1054741" d="M2.4,16.633V14.484a4.336,4.336,0,0,0,2.625.82A2.363,2.363,0,0,0,6.495,14.9a1.349,1.349,0,0,0,.527-1.133,1.288,1.288,0,0,0-.652-1.156A3.38,3.38,0,0,0,4.577,12.2H3.538V10.313H4.5q2.187,0,2.188-1.453,0-1.367-1.68-1.367a3.829,3.829,0,0,0-2.187.727V6.2a6.042,6.042,0,0,1,2.75-.594,4.15,4.15,0,0,1,2.676.773A2.461,2.461,0,0,1,9.2,8.391a2.611,2.611,0,0,1-2.227,2.75v.039a3.027,3.027,0,0,1,1.875.863A2.434,2.434,0,0,1,9.538,13.8a3.006,3.006,0,0,1-1.148,2.484,4.965,4.965,0,0,1-3.172.914A6.13,6.13,0,0,1,2.4,16.633Zm12.828.563q-4,0-4-5.617a7.643,7.643,0,0,1,1.082-4.441,3.605,3.605,0,0,1,3.137-1.527q3.906,0,3.906,5.711a7.526,7.526,0,0,1-1.066,4.359A3.513,3.513,0,0,1,15.225,17.2Zm.109-9.7q-1.6,0-1.6,4.023,0,3.789,1.57,3.789,1.531,0,1.531-3.906T15.335,7.492ZM27.17,5.8,21.71,18.859h-2.2L24.944,5.8Zm4.352,11.4q-4,0-4-5.617A7.643,7.643,0,0,1,28.6,7.137a3.605,3.605,0,0,1,3.137-1.527q3.906,0,3.906,5.711a7.526,7.526,0,0,1-1.066,4.359A3.513,3.513,0,0,1,31.522,17.2Zm.109-9.7q-1.6,0-1.6,4.023,0,3.789,1.57,3.789,1.531,0,1.531-3.906T31.631,7.492Zm13.047,3.367a9.937,9.937,0,0,1-.328,2.668,5.723,5.723,0,0,1-.957,1.988,4.227,4.227,0,0,1-1.535,1.246A4.7,4.7,0,0,1,39.8,17.2a5.838,5.838,0,0,1-2.367-.437V14.727a3.793,3.793,0,0,0,2.125.578,2.446,2.446,0,0,0,1.992-.867,3.869,3.869,0,0,0,.727-2.508l-.047-.016a2.537,2.537,0,0,1-2.258,1.1,3.1,3.1,0,0,1-1.27-.258,3.05,3.05,0,0,1-1.008-.715,3.267,3.267,0,0,1-.664-1.09A3.917,3.917,0,0,1,36.8,9.563a4.318,4.318,0,0,1,.289-1.609,3.684,3.684,0,0,1,.809-1.25,3.568,3.568,0,0,1,1.246-.809,4.37,4.37,0,0,1,1.609-.285,3.685,3.685,0,0,1,1.641.355,3.447,3.447,0,0,1,1.238,1.027,4.8,4.8,0,0,1,.781,1.648A8.352,8.352,0,0,1,44.678,10.859ZM42.186,9.547a2.9,2.9,0,0,0-.109-.809,2.128,2.128,0,0,0-.3-.652,1.483,1.483,0,0,0-.477-.434,1.226,1.226,0,0,0-.617-.16,1.256,1.256,0,0,0-.59.141,1.438,1.438,0,0,0-.465.387,1.832,1.832,0,0,0-.3.59,2.435,2.435,0,0,0-.109.742,2.536,2.536,0,0,0,.109.777,1.66,1.66,0,0,0,.309.574,1.3,1.3,0,0,0,.48.355,1.565,1.565,0,0,0,.625.121,1.342,1.342,0,0,0,.594-.129,1.43,1.43,0,0,0,.457-.348,1.574,1.574,0,0,0,.3-.516A1.9,1.9,0,0,0,42.186,9.547ZM52.67,5.8,47.21,18.859h-2.2L50.444,5.8Zm3.164,9.156h4.75V17H53.131v-.844a3.927,3.927,0,0,1,.289-1.543,5.12,5.12,0,0,1,.727-1.227,6.3,6.3,0,0,1,.957-.961q.52-.418.988-.754.492-.352.863-.672a4.919,4.919,0,0,0,.625-.637,2.421,2.421,0,0,0,.379-.641,1.905,1.905,0,0,0,.125-.691,1.39,1.39,0,0,0-.406-1.086,1.806,1.806,0,0,0-1.242-.367A4.172,4.172,0,0,0,53.67,8.727V6.555a5.937,5.937,0,0,1,3.3-.945,4.869,4.869,0,0,1,1.527.223,3.231,3.231,0,0,1,1.145.637,2.716,2.716,0,0,1,.715,1A3.388,3.388,0,0,1,60.6,8.789a3.712,3.712,0,0,1-.238,1.375,4.225,4.225,0,0,1-.633,1.094,5.74,5.74,0,0,1-.91.9q-.516.41-1.07.793-.375.266-.723.527a6.851,6.851,0,0,0-.613.516,2.8,2.8,0,0,0-.422.5A.856.856,0,0,0,55.835,14.953ZM66.225,17.2q-4,0-4-5.617a7.643,7.643,0,0,1,1.082-4.441,3.605,3.605,0,0,1,3.137-1.527q3.906,0,3.906,5.711a7.526,7.526,0,0,1-1.066,4.359A3.513,3.513,0,0,1,66.225,17.2Zm.109-9.7q-1.6,0-1.6,4.023,0,3.789,1.57,3.789,1.531,0,1.531-3.906T66.335,7.492Zm7.906,7.461h4.75V17H71.538v-.844a3.927,3.927,0,0,1,.289-1.543,5.12,5.12,0,0,1,.727-1.227,6.3,6.3,0,0,1,.957-.961q.52-.418.988-.754.492-.352.863-.672a4.919,4.919,0,0,0,.625-.637,2.421,2.421,0,0,0,.379-.641,1.905,1.905,0,0,0,.125-.691,1.39,1.39,0,0,0-.406-1.086,1.806,1.806,0,0,0-1.242-.367,4.172,4.172,0,0,0-2.766,1.148V6.555a5.937,5.937,0,0,1,3.3-.945,4.869,4.869,0,0,1,1.527.223,3.231,3.231,0,0,1,1.145.637,2.716,2.716,0,0,1,.715,1,3.388,3.388,0,0,1,.246,1.316,3.712,3.712,0,0,1-.238,1.375,4.225,4.225,0,0,1-.633,1.094,5.74,5.74,0,0,1-.91.9q-.516.41-1.07.793-.375.266-.723.527a6.851,6.851,0,0,0-.613.516,2.8,2.8,0,0,0-.422.5A.856.856,0,0,0,74.241,14.953ZM84.631,17.2q-4,0-4-5.617a7.643,7.643,0,0,1,1.082-4.441A3.605,3.605,0,0,1,84.85,5.609q3.906,0,3.906,5.711A7.526,7.526,0,0,1,87.69,15.68,3.513,3.513,0,0,1,84.631,17.2Zm.109-9.7q-1.6,0-1.6,4.023,0,3.789,1.57,3.789,1.531,0,1.531-3.906T84.741,7.492Z" transform="translate(-5933 8184.369)" fill="#12263f"/>
      <path id="Trazado_1034201" data-name="Trazado 1034201" d="M1093.565,59h0Z" transform="translate(-6904.26 8400.369)" fill="#fd9826"/>
      <path id="Trazado_1054733" data-name="Trazado 1054733" d="M0,0H1092.683" transform="translate(-6903.819 8340.869)" fill="none"/>
      <path id="Trazado_1054739" data-name="Trazado 1054739" d="M11.359,17H8.813L4.2,9.961a10.179,10.179,0,0,1-.562-.93H3.6q.062.594.063,1.813V17H1.281V5.8H4l4.445,6.82q.3.461.563.914h.031a11.978,11.978,0,0,1-.062-1.539V5.8h2.383Zm5.086,0H13.922V5.8h2.523ZM26.859,7.852h-3.2V17H21.133V7.852h-3.18V5.8h8.906Zm5.266,6.133a2.983,2.983,0,0,1,.137-.9,2.734,2.734,0,0,1,.41-.8,3.019,3.019,0,0,1,.684-.664,3.672,3.672,0,0,1,.965-.48A3.46,3.46,0,0,1,33,10.051a2.473,2.473,0,0,1-.469-1.465A2.649,2.649,0,0,1,32.8,7.4a2.881,2.881,0,0,1,.746-.945,3.49,3.49,0,0,1,1.137-.621,4.485,4.485,0,0,1,1.441-.223,4.573,4.573,0,0,1,1.461.223,3.572,3.572,0,0,1,1.145.617,2.8,2.8,0,0,1,.746.934,2.615,2.615,0,0,1,.266,1.172,2.326,2.326,0,0,1-.5,1.449,3.722,3.722,0,0,1-1.383,1.074,3.769,3.769,0,0,1,.961.48,3.093,3.093,0,0,1,.7.668,2.736,2.736,0,0,1,.422.816,3.006,3.006,0,0,1,.141.918,2.933,2.933,0,0,1-.289,1.309,2.979,2.979,0,0,1-.816,1.016,3.853,3.853,0,0,1-1.258.66,5.661,5.661,0,0,1-3.211,0,3.84,3.84,0,0,1-1.258-.652,3.025,3.025,0,0,1-.824-1.012A2.852,2.852,0,0,1,32.125,13.984Zm2.336-.211a1.9,1.9,0,0,0,.117.688,1.406,1.406,0,0,0,.336.516,1.5,1.5,0,0,0,.52.324,1.906,1.906,0,0,0,.676.113,1.8,1.8,0,0,0,.66-.117,1.549,1.549,0,0,0,.52-.328,1.493,1.493,0,0,0,.344-.516,1.86,1.86,0,0,0,.008-1.32,1.523,1.523,0,0,0-.336-.527,1.635,1.635,0,0,0-1.2-.488,1.761,1.761,0,0,0-.656.121,1.5,1.5,0,0,0-.523.344,1.622,1.622,0,0,0-.344.527A1.733,1.733,0,0,0,34.461,13.773ZM34.8,8.813a1.48,1.48,0,0,0,.105.559,1.441,1.441,0,0,0,.285.453,1.3,1.3,0,0,0,.426.3,1.3,1.3,0,0,0,1.043,0,1.331,1.331,0,0,0,.426-.3,1.459,1.459,0,0,0,.395-1.008,1.552,1.552,0,0,0-.1-.566,1.339,1.339,0,0,0-.715-.754,1.342,1.342,0,0,0-1.07,0,1.309,1.309,0,0,0-.422.3,1.369,1.369,0,0,0-.273.453A1.585,1.585,0,0,0,34.8,8.813Zm14.57,4.461a4.107,4.107,0,0,1-.289,1.547,3.776,3.776,0,0,1-.8,1.246,3.723,3.723,0,0,1-1.227.828,4.208,4.208,0,0,1-3.246-.051,3.414,3.414,0,0,1-1.262-1.02,4.767,4.767,0,0,1-.789-1.637,8.088,8.088,0,0,1-.273-2.2,9.038,9.038,0,0,1,.355-2.621,6.018,6.018,0,0,1,1.016-2.012,4.562,4.562,0,0,1,1.6-1.293,4.751,4.751,0,0,1,2.109-.457,5.32,5.32,0,0,1,2.016.3V7.977a3.7,3.7,0,0,0-1.859-.484,2.6,2.6,0,0,0-1.133.242,2.5,2.5,0,0,0-.871.688,3.324,3.324,0,0,0-.57,1.074,4.781,4.781,0,0,0-.223,1.4h.047A2.717,2.717,0,0,1,46.32,9.8a3.064,3.064,0,0,1,1.258.25,2.729,2.729,0,0,1,.961.707,3.243,3.243,0,0,1,.617,1.1A4.379,4.379,0,0,1,49.375,13.273Zm-2.414.156q0-1.8-1.477-1.8a1.449,1.449,0,0,0-.609.125,1.356,1.356,0,0,0-.469.352,1.6,1.6,0,0,0-.3.535A2.1,2.1,0,0,0,44,13.32a2.644,2.644,0,0,0,.109.773,2.054,2.054,0,0,0,.309.629,1.528,1.528,0,0,0,.473.426,1.206,1.206,0,0,0,.609.156,1.319,1.319,0,0,0,.605-.137,1.356,1.356,0,0,0,.461-.383,1.759,1.759,0,0,0,.293-.594A2.708,2.708,0,0,0,46.961,13.43ZM54.445,17.2q-4,0-4-5.617a7.643,7.643,0,0,1,1.082-4.441,3.605,3.605,0,0,1,3.137-1.527q3.906,0,3.906,5.711A7.526,7.526,0,0,1,57.5,15.68,3.513,3.513,0,0,1,54.445,17.2Zm.109-9.7q-1.6,0-1.6,4.023,0,3.789,1.57,3.789,1.531,0,1.531-3.906T54.555,7.492ZM65.609,5.547V17H63.148V8.328a2.947,2.947,0,0,1-.48.34,4.96,4.96,0,0,1-.59.289,5.267,5.267,0,0,1-.648.219,4.736,4.736,0,0,1-.664.129V7.227a10.266,10.266,0,0,0,1.813-.719,10.315,10.315,0,0,0,1.539-.961ZM72.852,17.2q-4,0-4-5.617a7.643,7.643,0,0,1,1.082-4.441A3.605,3.605,0,0,1,73.07,5.609q3.906,0,3.906,5.711A7.526,7.526,0,0,1,75.91,15.68,3.513,3.513,0,0,1,72.852,17.2Zm.109-9.7q-1.6,0-1.6,4.023,0,3.789,1.57,3.789,1.531,0,1.531-3.906T72.961,7.492Zm9.094,9.7q-4,0-4-5.617a7.643,7.643,0,0,1,1.082-4.441,3.605,3.605,0,0,1,3.137-1.527q3.906,0,3.906,5.711a7.526,7.526,0,0,1-1.066,4.359A3.513,3.513,0,0,1,82.055,17.2Zm.109-9.7q-1.6,0-1.6,4.023,0,3.789,1.57,3.789,1.531,0,1.531-3.906T82.164,7.492Z" transform="translate(-6820 8242.539)" fill="#12263f"/>
      <path id="Trazado_1054742" data-name="Trazado 1054742" d="M36.67,17h-2.9l-1.742-2.883q-.2-.328-.375-.586a3.255,3.255,0,0,0-.363-.441,1.445,1.445,0,0,0-.383-.281.972.972,0,0,0-.434-.1h-.68V17H27.271V5.8h4q4.078,0,4.078,3.047a3.155,3.155,0,0,1-.18,1.082,3.006,3.006,0,0,1-.508.895,3.219,3.219,0,0,1-.793.688,4.089,4.089,0,0,1-1.035.453v.031a1.606,1.606,0,0,1,.484.254,3.468,3.468,0,0,1,.453.41,5.723,5.723,0,0,1,.418.5q.2.27.363.527ZM29.795,7.688V10.8h1.094a1.813,1.813,0,0,0,1.3-.469,1.564,1.564,0,0,0,.5-1.18q0-1.469-1.758-1.469ZM47.115,17h-2.9l-1.742-2.883q-.2-.328-.375-.586a3.255,3.255,0,0,0-.363-.441,1.445,1.445,0,0,0-.383-.281.972.972,0,0,0-.434-.1h-.68V17H37.717V5.8h4q4.078,0,4.078,3.047a3.155,3.155,0,0,1-.18,1.082,3.006,3.006,0,0,1-.508.895,3.219,3.219,0,0,1-.793.688,4.089,4.089,0,0,1-1.035.453v.031a1.606,1.606,0,0,1,.484.254,3.468,3.468,0,0,1,.453.41,5.723,5.723,0,0,1,.418.5q.2.27.363.527ZM40.24,7.688V10.8h1.094a1.813,1.813,0,0,0,1.3-.469,1.564,1.564,0,0,0,.5-1.18q0-1.469-1.758-1.469ZM50.685,17H48.162V5.8h2.523Z" transform="translate(-6459.205 8185.023)" fill="#12263f"/>
      <path id="Trazado_1035692" data-name="Trazado 1035692" d="M0,0H1092.683V59H0Z" transform="translate(-6904.26 8281.41)" fill="#feead4"/>
      <path id="Trazado_1054735" data-name="Trazado 1054735" d="M14.917,16.6a7.388,7.388,0,0,1-3.2.594A5.4,5.4,0,0,1,7.659,15.68a5.54,5.54,0,0,1-1.477-4.039,5.919,5.919,0,0,1,1.66-4.359,5.807,5.807,0,0,1,4.309-1.672,8.058,8.058,0,0,1,2.766.414v2.43a4.9,4.9,0,0,0-2.562-.672,3.4,3.4,0,0,0-2.547.992,3.682,3.682,0,0,0-.969,2.688,3.611,3.611,0,0,0,.914,2.59,3.229,3.229,0,0,0,2.461.965,5.249,5.249,0,0,0,2.7-.719Zm6.492.594a5.215,5.215,0,0,1-3.922-1.566,5.624,5.624,0,0,1-1.516-4.082,6.026,6.026,0,0,1,1.539-4.3,5.328,5.328,0,0,1,4.078-1.641,5.085,5.085,0,0,1,3.879,1.57,5.79,5.79,0,0,1,1.48,4.141,5.929,5.929,0,0,1-1.535,4.258A5.269,5.269,0,0,1,21.409,17.2Zm.109-9.414a2.54,2.54,0,0,0-2.109,1,4.153,4.153,0,0,0-.781,2.637,4.077,4.077,0,0,0,.781,2.633,2.7,2.7,0,0,0,4.117.027,4.032,4.032,0,0,0,.766-2.613A4.369,4.369,0,0,0,23.55,8.75,2.42,2.42,0,0,0,21.518,7.781ZM38.885,17H36.339L31.721,9.961a10.179,10.179,0,0,1-.562-.93h-.031q.062.594.063,1.813V17H28.807V5.8h2.719l4.445,6.82q.3.461.563.914h.031a11.978,11.978,0,0,1-.062-1.539V5.8h2.383Zm10.594-.4a7.388,7.388,0,0,1-3.2.594,5.4,5.4,0,0,1-4.055-1.516,5.54,5.54,0,0,1-1.477-4.039,5.919,5.919,0,0,1,1.66-4.359,5.807,5.807,0,0,1,4.309-1.672,8.058,8.058,0,0,1,2.766.414v2.43a4.9,4.9,0,0,0-2.562-.672,3.4,3.4,0,0,0-2.547.992,3.682,3.682,0,0,0-.969,2.688,3.611,3.611,0,0,0,.914,2.59,3.229,3.229,0,0,0,2.461.965,5.249,5.249,0,0,0,2.7-.719Zm8.672.4H51.432V5.8h6.461V7.852H53.956v2.492H57.62v2.047H53.956v2.563h4.2Zm4.32-3.859V17H59.948V5.8H63.9q4.234,0,4.234,3.57a3.426,3.426,0,0,1-1.215,2.73,4.813,4.813,0,0,1-3.246,1.043Zm0-5.406v3.492h.992q2.016,0,2.016-1.766,0-1.727-2.016-1.727Zm15.172.117h-3.2V17H71.917V7.852h-3.18V5.8h8.906ZM83.292,17.2a5.215,5.215,0,0,1-3.922-1.566,5.624,5.624,0,0,1-1.516-4.082,6.026,6.026,0,0,1,1.539-4.3,5.328,5.328,0,0,1,4.078-1.641A5.085,5.085,0,0,1,87.35,7.18a5.79,5.79,0,0,1,1.48,4.141A5.929,5.929,0,0,1,87.3,15.578,5.269,5.269,0,0,1,83.292,17.2ZM83.4,7.781a2.54,2.54,0,0,0-2.109,1,4.153,4.153,0,0,0-.781,2.637,4.077,4.077,0,0,0,.781,2.633,2.7,2.7,0,0,0,4.117.027,4.032,4.032,0,0,0,.766-2.613,4.369,4.369,0,0,0-.742-2.711A2.42,2.42,0,0,0,83.4,7.781Z" transform="translate(-6697.012 8303.41)" fill="#12263f"/>
      <path id="Trazado_1054734" data-name="Trazado 1054734" d="M36.691,5.8,32.831,17H29.972L26.159,5.8h2.719l2.336,7.8a5.584,5.584,0,0,1,.227,1.117h.047a6.315,6.315,0,0,1,.242-1.148L34.05,5.8ZM47.058,17h-2.75l-.8-2.492H39.527L38.738,17H36L40.081,5.8h2.992Zm-4.125-4.43L41.73,8.8A4.907,4.907,0,0,1,41.542,7.8H41.48a4.273,4.273,0,0,1-.2.977l-1.219,3.8ZM55.128,17H48.456V5.8H50.98v9.156h4.148Zm5.844.2a5.215,5.215,0,0,1-3.922-1.566,5.624,5.624,0,0,1-1.516-4.082,6.026,6.026,0,0,1,1.539-4.3,5.328,5.328,0,0,1,4.078-1.641,5.085,5.085,0,0,1,3.879,1.57,5.79,5.79,0,0,1,1.48,4.141,5.929,5.929,0,0,1-1.535,4.258A5.269,5.269,0,0,1,60.972,17.2Zm.109-9.414a2.54,2.54,0,0,0-2.109,1,4.153,4.153,0,0,0-.781,2.637,4.077,4.077,0,0,0,.781,2.633,2.7,2.7,0,0,0,4.117.027,4.032,4.032,0,0,0,.766-2.613,4.369,4.369,0,0,0-.742-2.711A2.42,2.42,0,0,0,61.081,7.781ZM77.769,17h-2.9l-1.742-2.883q-.2-.328-.375-.586a3.255,3.255,0,0,0-.363-.441,1.445,1.445,0,0,0-.383-.281.972.972,0,0,0-.434-.1h-.68V17H68.37V5.8h4q4.078,0,4.078,3.047a3.155,3.155,0,0,1-.18,1.082,3.006,3.006,0,0,1-.508.895,3.219,3.219,0,0,1-.793.688,4.089,4.089,0,0,1-1.035.453v.031a1.606,1.606,0,0,1,.484.254,3.469,3.469,0,0,1,.453.41,5.722,5.722,0,0,1,.418.5q.2.27.363.527ZM70.894,7.688V10.8h1.094a1.813,1.813,0,0,0,1.3-.469,1.564,1.564,0,0,0,.5-1.18q0-1.469-1.758-1.469ZM36.976,31.852h-3.2V41H31.249V31.852H28.07V29.8h8.906ZM42.624,41.2A5.215,5.215,0,0,1,38.7,39.629a5.624,5.624,0,0,1-1.516-4.082,6.026,6.026,0,0,1,1.539-4.3A5.328,5.328,0,0,1,42.8,29.609a5.085,5.085,0,0,1,3.879,1.57,5.789,5.789,0,0,1,1.48,4.141,5.929,5.929,0,0,1-1.535,4.258A5.269,5.269,0,0,1,42.624,41.2Zm.109-9.414a2.54,2.54,0,0,0-2.109,1,4.153,4.153,0,0,0-.781,2.637,4.077,4.077,0,0,0,.781,2.633,2.7,2.7,0,0,0,4.117.027,4.032,4.032,0,0,0,.766-2.613,4.369,4.369,0,0,0-.742-2.711A2.42,2.42,0,0,0,42.734,31.781Zm14.516.07h-3.2V41H51.523V31.852h-3.18V29.8h8.906ZM67.492,41h-2.75l-.8-2.492H59.96L59.171,41H56.437l4.078-11.2h2.992Zm-4.125-4.43-1.2-3.766a4.907,4.907,0,0,1-.187-1.008h-.062a4.273,4.273,0,0,1-.2.977L60.5,36.57ZM75.562,41H68.89V29.8h2.523v9.156h4.148Z" transform="translate(-5946 8288.41)" fill="#12263f"/>
      <path id="Trazado_1054511" data-name="Trazado 1054511" d="M0,0H1093.458V39.247H0Z" transform="translate(-6904.25 8379.627)" fill="#fff"/>
      <path id="Trazado_1054737" data-name="Trazado 1054737" d="M0,0V179" transform="translate(-6316.469 8102.91)" fill="none" stroke="#dcdcdc" stroke-width="1"/>
      <path id="Trazado_1054725" data-name="Trazado 1054725" d="M0,0V393.265" transform="translate(-5975.101 8102.91)" fill="none" stroke="#ededee" stroke-width="1"/>
      <path id="Trazado_1054738" data-name="Trazado 1054738" d="M0,0V119" transform="translate(-6530.772 8162.91)" fill="none" stroke="#e2e2e2" stroke-width="1"/>
      <path id="Trazado_1054731" data-name="Trazado 1054731" d="M0,0V215.5" transform="translate(-6261.431 8281.447)" fill="none" stroke="#e0e0e0" stroke-width="1"/>
      <path id="Trazado_1054730" data-name="Trazado 1054730" d="M0,0V215.5" transform="translate(-6209.399 8281.41)" fill="none" stroke="#e0e0e0" stroke-width="1"/>
      <path id="Trazado_1054727" data-name="Trazado 1054727" d="M0,0V215.5" transform="translate(-6157.366 8281.868)" fill="none" stroke="#e0e0e0" stroke-width="1"/>
      <path id="Trazado_1054726" data-name="Trazado 1054726" d="M0,0V214.136" transform="translate(-6105.334 8283.23)" fill="none" stroke="#e0e0e0" stroke-width="1"/>
      <path id="Trazado_1054728" data-name="Trazado 1054728" d="M64.586,16.938v1.7h-.812V17a4.9,4.9,0,0,1-2.7-.672V14.969a3.661,3.661,0,0,0,1.238.668,4.528,4.528,0,0,0,1.465.27v-4a6.129,6.129,0,0,1-2.227-1.527,2.736,2.736,0,0,1-.508-1.652,2.763,2.763,0,0,1,.773-1.957,3.2,3.2,0,0,1,1.961-.988V4.375h.813V5.75a4.324,4.324,0,0,1,2.117.438V7.516a3.549,3.549,0,0,0-2.117-.672v4.125a6.64,6.64,0,0,1,2.223,1.5,2.51,2.51,0,0,1,.6,1.645,2.545,2.545,0,0,1-.746,1.863A3.624,3.624,0,0,1,64.586,16.938Zm-.812-6.406V6.891a1.78,1.78,0,0,0-1.039.582,1.623,1.623,0,0,0-.383,1.09,1.826,1.826,0,0,0,.313,1.1A3.367,3.367,0,0,0,63.773,10.531Zm.813,1.781v3.531q1.508-.328,1.508-1.625Q66.094,13.141,64.586,12.313Zm15.641,1.516a3.266,3.266,0,0,1-.285,1.379,3.045,3.045,0,0,1-.8,1.063,3.714,3.714,0,0,1-1.246.684,5.04,5.04,0,0,1-1.6.242,4.654,4.654,0,0,1-2.547-.609V15.211a4.081,4.081,0,0,0,2.594.891,3.525,3.525,0,0,0,1.059-.148,2.374,2.374,0,0,0,.813-.43,1.909,1.909,0,0,0,.523-.68,2.123,2.123,0,0,0,.184-.9q0-2.2-3.125-2.2h-.93V10.664h.883q2.766,0,2.766-2.062Q78.508,6.7,76.4,6.7a3.592,3.592,0,0,0-2.227.8V6.25a4.868,4.868,0,0,1,2.547-.641,3.913,3.913,0,0,1,1.273.2,2.918,2.918,0,0,1,.977.547A2.423,2.423,0,0,1,79.6,7.2a2.6,2.6,0,0,1,.223,1.086,2.735,2.735,0,0,1-2.234,2.844v.031a3.534,3.534,0,0,1,1.055.277,2.814,2.814,0,0,1,.836.559,2.49,2.49,0,0,1,.551.809A2.582,2.582,0,0,1,80.227,13.828Zm9.148-2.477a11.005,11.005,0,0,1-.254,2.492,5.807,5.807,0,0,1-.734,1.832,3.305,3.305,0,0,1-1.18,1.133,3.23,3.23,0,0,1-1.59.387,3.016,3.016,0,0,1-1.5-.371A3.152,3.152,0,0,1,83,15.742,5.484,5.484,0,0,1,82.313,14a10.8,10.8,0,0,1-.234-2.371,12.222,12.222,0,0,1,.246-2.594,5.933,5.933,0,0,1,.723-1.887A3.217,3.217,0,0,1,84.23,6a3.323,3.323,0,0,1,1.621-.387Q89.375,5.609,89.375,11.352Zm-1.312.125q0-4.781-2.273-4.781-2.4,0-2.4,4.867,0,4.539,2.352,4.539Q88.063,16.1,88.063,11.477ZM98,11.352a11.005,11.005,0,0,1-.254,2.492,5.807,5.807,0,0,1-.734,1.832,3.305,3.305,0,0,1-1.18,1.133,3.23,3.23,0,0,1-1.59.387,3.016,3.016,0,0,1-1.5-.371,3.152,3.152,0,0,1-1.113-1.082A5.484,5.484,0,0,1,90.938,14a10.8,10.8,0,0,1-.234-2.371,12.222,12.222,0,0,1,.246-2.594,5.933,5.933,0,0,1,.723-1.887A3.217,3.217,0,0,1,92.855,6a3.323,3.323,0,0,1,1.621-.387Q98,5.609,98,11.352Zm-1.312.125q0-4.781-2.273-4.781-2.4,0-2.4,4.867,0,4.539,2.352,4.539Q96.688,16.1,96.688,11.477Zm3.711,5.7a.829.829,0,0,1-.613-.258.849.849,0,0,1-.254-.617.862.862,0,0,1,.254-.621.823.823,0,0,1,.613-.262.845.845,0,0,1,.625.262.855.855,0,0,1,.258.621.842.842,0,0,1-.258.617A.851.851,0,0,1,100.4,17.172Zm9.7-5.82a11.005,11.005,0,0,1-.254,2.492,5.807,5.807,0,0,1-.734,1.832,3.305,3.305,0,0,1-1.18,1.133,3.23,3.23,0,0,1-1.59.387,3.016,3.016,0,0,1-1.5-.371,3.152,3.152,0,0,1-1.113-1.082A5.484,5.484,0,0,1,103.031,14a10.8,10.8,0,0,1-.234-2.371,12.222,12.222,0,0,1,.246-2.594,5.933,5.933,0,0,1,.723-1.887A3.217,3.217,0,0,1,104.949,6a3.323,3.323,0,0,1,1.621-.387Q110.094,5.609,110.094,11.352Zm-1.312.125q0-4.781-2.273-4.781-2.4,0-2.4,4.867,0,4.539,2.352,4.539Q108.781,16.1,108.781,11.477Zm9.938-.125a11.005,11.005,0,0,1-.254,2.492,5.807,5.807,0,0,1-.734,1.832,3.305,3.305,0,0,1-1.18,1.133,3.23,3.23,0,0,1-1.59.387,3.016,3.016,0,0,1-1.5-.371,3.152,3.152,0,0,1-1.113-1.082A5.484,5.484,0,0,1,111.656,14a10.8,10.8,0,0,1-.234-2.371,12.222,12.222,0,0,1,.246-2.594,5.933,5.933,0,0,1,.723-1.887A3.217,3.217,0,0,1,113.574,6a3.323,3.323,0,0,1,1.621-.387Q118.719,5.609,118.719,11.352Zm-1.312.125q0-4.781-2.273-4.781-2.4,0-2.4,4.867,0,4.539,2.352,4.539Q117.406,16.1,117.406,11.477Zm9.938-.125a11.005,11.005,0,0,1-.254,2.492,5.807,5.807,0,0,1-.734,1.832,3.305,3.305,0,0,1-1.18,1.133,3.23,3.23,0,0,1-1.59.387,3.016,3.016,0,0,1-1.5-.371,3.152,3.152,0,0,1-1.113-1.082A5.484,5.484,0,0,1,120.281,14a10.8,10.8,0,0,1-.234-2.371,12.222,12.222,0,0,1,.246-2.594,5.933,5.933,0,0,1,.723-1.887A3.217,3.217,0,0,1,122.2,6a3.323,3.323,0,0,1,1.621-.387Q127.344,5.609,127.344,11.352Zm-1.312.125q0-4.781-2.273-4.781-2.4,0-2.4,4.867,0,4.539,2.352,4.539Q126.031,16.1,126.031,11.477ZM64.586,55.938v1.7h-.812V56a4.9,4.9,0,0,1-2.7-.672V53.969a3.661,3.661,0,0,0,1.238.668,4.528,4.528,0,0,0,1.465.27v-4a6.129,6.129,0,0,1-2.227-1.527,2.9,2.9,0,0,1,.266-3.609,3.2,3.2,0,0,1,1.961-.988V43.375h.813V44.75a4.324,4.324,0,0,1,2.117.438v1.328a3.549,3.549,0,0,0-2.117-.672v4.125a6.64,6.64,0,0,1,2.223,1.5,2.51,2.51,0,0,1,.6,1.645,2.545,2.545,0,0,1-.746,1.863A3.624,3.624,0,0,1,64.586,55.938Zm-.812-6.406V45.891a1.78,1.78,0,0,0-1.039.582,1.623,1.623,0,0,0-.383,1.09,1.826,1.826,0,0,0,.313,1.1A3.367,3.367,0,0,0,63.773,49.531Zm.813,1.781v3.531q1.508-.328,1.508-1.625Q66.094,52.141,64.586,51.313Zm15.641,1.516a3.266,3.266,0,0,1-.285,1.379,3.044,3.044,0,0,1-.8,1.063,3.714,3.714,0,0,1-1.246.684,5.04,5.04,0,0,1-1.6.242,4.654,4.654,0,0,1-2.547-.609V54.211a4.081,4.081,0,0,0,2.594.891,3.525,3.525,0,0,0,1.059-.148,2.374,2.374,0,0,0,.813-.43,1.909,1.909,0,0,0,.523-.68,2.123,2.123,0,0,0,.184-.9q0-2.2-3.125-2.2h-.93V49.664h.883q2.766,0,2.766-2.062,0-1.906-2.109-1.906a3.592,3.592,0,0,0-2.227.8V45.25a4.868,4.868,0,0,1,2.547-.641,3.913,3.913,0,0,1,1.273.2,2.918,2.918,0,0,1,.977.547,2.423,2.423,0,0,1,.629.844,2.6,2.6,0,0,1,.223,1.086,2.735,2.735,0,0,1-2.234,2.844v.031a3.534,3.534,0,0,1,1.055.277,2.814,2.814,0,0,1,.836.559,2.49,2.49,0,0,1,.551.809A2.582,2.582,0,0,1,80.227,52.828Zm9.148-2.477a11.005,11.005,0,0,1-.254,2.492,5.807,5.807,0,0,1-.734,1.832,3.305,3.305,0,0,1-1.18,1.133,3.23,3.23,0,0,1-1.59.387,3.016,3.016,0,0,1-1.5-.371A3.152,3.152,0,0,1,83,54.742,5.484,5.484,0,0,1,82.313,53a10.8,10.8,0,0,1-.234-2.371,12.222,12.222,0,0,1,.246-2.594,5.933,5.933,0,0,1,.723-1.887A3.217,3.217,0,0,1,84.23,45a3.323,3.323,0,0,1,1.621-.387Q89.375,44.609,89.375,50.352Zm-1.312.125q0-4.781-2.273-4.781-2.4,0-2.4,4.867,0,4.539,2.352,4.539Q88.063,55.1,88.063,50.477ZM98,50.352a11.005,11.005,0,0,1-.254,2.492,5.807,5.807,0,0,1-.734,1.832,3.305,3.305,0,0,1-1.18,1.133,3.23,3.23,0,0,1-1.59.387,3.016,3.016,0,0,1-1.5-.371,3.152,3.152,0,0,1-1.113-1.082A5.484,5.484,0,0,1,90.938,53a10.8,10.8,0,0,1-.234-2.371,12.222,12.222,0,0,1,.246-2.594,5.933,5.933,0,0,1,.723-1.887A3.217,3.217,0,0,1,92.855,45a3.323,3.323,0,0,1,1.621-.387Q98,44.609,98,50.352Zm-1.312.125q0-4.781-2.273-4.781-2.4,0-2.4,4.867,0,4.539,2.352,4.539Q96.688,55.1,96.688,50.477Zm3.711,5.7a.829.829,0,0,1-.613-.258.849.849,0,0,1-.254-.617.862.862,0,0,1,.254-.621.823.823,0,0,1,.613-.262.845.845,0,0,1,.625.262.855.855,0,0,1,.258.621.842.842,0,0,1-.258.617A.851.851,0,0,1,100.4,56.172Zm9.7-5.82a11.005,11.005,0,0,1-.254,2.492,5.807,5.807,0,0,1-.734,1.832,3.305,3.305,0,0,1-1.18,1.133,3.23,3.23,0,0,1-1.59.387,3.016,3.016,0,0,1-1.5-.371,3.152,3.152,0,0,1-1.113-1.082A5.484,5.484,0,0,1,103.031,53a10.8,10.8,0,0,1-.234-2.371,12.222,12.222,0,0,1,.246-2.594,5.933,5.933,0,0,1,.723-1.887A3.217,3.217,0,0,1,104.949,45a3.323,3.323,0,0,1,1.621-.387Q110.094,44.609,110.094,50.352Zm-1.312.125q0-4.781-2.273-4.781-2.4,0-2.4,4.867,0,4.539,2.352,4.539Q108.781,55.1,108.781,50.477Zm9.938-.125a11.005,11.005,0,0,1-.254,2.492,5.807,5.807,0,0,1-.734,1.832,3.305,3.305,0,0,1-1.18,1.133,3.23,3.23,0,0,1-1.59.387,3.016,3.016,0,0,1-1.5-.371,3.152,3.152,0,0,1-1.113-1.082A5.484,5.484,0,0,1,111.656,53a10.8,10.8,0,0,1-.234-2.371,12.222,12.222,0,0,1,.246-2.594,5.933,5.933,0,0,1,.723-1.887A3.217,3.217,0,0,1,113.574,45a3.323,3.323,0,0,1,1.621-.387Q118.719,44.609,118.719,50.352Zm-1.312.125q0-4.781-2.273-4.781-2.4,0-2.4,4.867,0,4.539,2.352,4.539Q117.406,55.1,117.406,50.477Zm9.938-.125a11.005,11.005,0,0,1-.254,2.492,5.807,5.807,0,0,1-.734,1.832,3.305,3.305,0,0,1-1.18,1.133,3.23,3.23,0,0,1-1.59.387,3.016,3.016,0,0,1-1.5-.371,3.152,3.152,0,0,1-1.113-1.082A5.484,5.484,0,0,1,120.281,53a10.8,10.8,0,0,1-.234-2.371,12.222,12.222,0,0,1,.246-2.594,5.933,5.933,0,0,1,.723-1.887A3.217,3.217,0,0,1,122.2,45a3.323,3.323,0,0,1,1.621-.387Q127.344,44.609,127.344,50.352Zm-1.312.125q0-4.781-2.273-4.781-2.4,0-2.4,4.867,0,4.539,2.352,4.539Q126.031,55.1,126.031,50.477Zm.961,40.57h-4.266V90.039h4.266ZM64.586,133.938v1.7h-.812V134a4.9,4.9,0,0,1-2.7-.672v-1.359a3.661,3.661,0,0,0,1.238.668,4.528,4.528,0,0,0,1.465.27v-4a6.129,6.129,0,0,1-2.227-1.527,2.9,2.9,0,0,1,.266-3.609,3.2,3.2,0,0,1,1.961-.988v-1.406h.813v1.375a4.324,4.324,0,0,1,2.117.438v1.328a3.549,3.549,0,0,0-2.117-.672v4.125a6.64,6.64,0,0,1,2.223,1.5,2.51,2.51,0,0,1,.6,1.645,2.545,2.545,0,0,1-.746,1.863A3.624,3.624,0,0,1,64.586,133.938Zm-.812-6.406v-3.641a1.78,1.78,0,0,0-1.039.582,1.623,1.623,0,0,0-.383,1.09,1.826,1.826,0,0,0,.313,1.1A3.367,3.367,0,0,0,63.773,127.531Zm.813,1.781v3.531q1.508-.328,1.508-1.625Q66.094,130.141,64.586,129.313Zm15.641,1.516a3.266,3.266,0,0,1-.285,1.379,3.044,3.044,0,0,1-.8,1.063,3.714,3.714,0,0,1-1.246.684,5.041,5.041,0,0,1-1.6.242,4.654,4.654,0,0,1-2.547-.609v-1.375a4.081,4.081,0,0,0,2.594.891,3.525,3.525,0,0,0,1.059-.148,2.374,2.374,0,0,0,.813-.43,1.909,1.909,0,0,0,.523-.68,2.123,2.123,0,0,0,.184-.9q0-2.2-3.125-2.2h-.93v-1.086h.883q2.766,0,2.766-2.062,0-1.906-2.109-1.906a3.592,3.592,0,0,0-2.227.8V123.25a4.868,4.868,0,0,1,2.547-.641,3.913,3.913,0,0,1,1.273.2,2.918,2.918,0,0,1,.977.547,2.423,2.423,0,0,1,.629.844,2.6,2.6,0,0,1,.223,1.086,2.735,2.735,0,0,1-2.234,2.844v.031a3.534,3.534,0,0,1,1.055.277,2.814,2.814,0,0,1,.836.559,2.49,2.49,0,0,1,.551.809A2.582,2.582,0,0,1,80.227,130.828Zm9.148-2.477a11.005,11.005,0,0,1-.254,2.492,5.807,5.807,0,0,1-.734,1.832,3.305,3.305,0,0,1-1.18,1.133,3.23,3.23,0,0,1-1.59.387,3.016,3.016,0,0,1-1.5-.371A3.152,3.152,0,0,1,83,132.742,5.484,5.484,0,0,1,82.313,131a10.8,10.8,0,0,1-.234-2.371,12.222,12.222,0,0,1,.246-2.594,5.933,5.933,0,0,1,.723-1.887A3.217,3.217,0,0,1,84.23,123a3.323,3.323,0,0,1,1.621-.387Q89.375,122.609,89.375,128.352Zm-1.312.125q0-4.781-2.273-4.781-2.4,0-2.4,4.867,0,4.539,2.352,4.539Q88.063,133.1,88.063,128.477ZM98,128.352a11.005,11.005,0,0,1-.254,2.492,5.807,5.807,0,0,1-.734,1.832,3.305,3.305,0,0,1-1.18,1.133,3.23,3.23,0,0,1-1.59.387,3.016,3.016,0,0,1-1.5-.371,3.152,3.152,0,0,1-1.113-1.082A5.484,5.484,0,0,1,90.938,131a10.8,10.8,0,0,1-.234-2.371,12.222,12.222,0,0,1,.246-2.594,5.933,5.933,0,0,1,.723-1.887A3.217,3.217,0,0,1,92.855,123a3.323,3.323,0,0,1,1.621-.387Q98,122.609,98,128.352Zm-1.312.125q0-4.781-2.273-4.781-2.4,0-2.4,4.867,0,4.539,2.352,4.539Q96.688,133.1,96.688,128.477Zm3.711,5.7a.829.829,0,0,1-.613-.258.849.849,0,0,1-.254-.617.862.862,0,0,1,.254-.621.823.823,0,0,1,.613-.262.845.845,0,0,1,.625.262.855.855,0,0,1,.258.621.842.842,0,0,1-.258.617A.851.851,0,0,1,100.4,134.172Zm9.7-5.82a11.005,11.005,0,0,1-.254,2.492,5.807,5.807,0,0,1-.734,1.832,3.305,3.305,0,0,1-1.18,1.133,3.23,3.23,0,0,1-1.59.387,3.016,3.016,0,0,1-1.5-.371,3.152,3.152,0,0,1-1.113-1.082,5.484,5.484,0,0,1-.687-1.746,10.8,10.8,0,0,1-.234-2.371,12.222,12.222,0,0,1,.246-2.594,5.933,5.933,0,0,1,.723-1.887A3.217,3.217,0,0,1,104.949,123a3.323,3.323,0,0,1,1.621-.387Q110.094,122.609,110.094,128.352Zm-1.312.125q0-4.781-2.273-4.781-2.4,0-2.4,4.867,0,4.539,2.352,4.539Q108.781,133.1,108.781,128.477Zm9.938-.125a11.005,11.005,0,0,1-.254,2.492,5.807,5.807,0,0,1-.734,1.832,3.305,3.305,0,0,1-1.18,1.133,3.23,3.23,0,0,1-1.59.387,3.016,3.016,0,0,1-1.5-.371,3.152,3.152,0,0,1-1.113-1.082,5.484,5.484,0,0,1-.687-1.746,10.8,10.8,0,0,1-.234-2.371,12.222,12.222,0,0,1,.246-2.594,5.933,5.933,0,0,1,.723-1.887A3.217,3.217,0,0,1,113.574,123a3.323,3.323,0,0,1,1.621-.387Q118.719,122.609,118.719,128.352Zm-1.312.125q0-4.781-2.273-4.781-2.4,0-2.4,4.867,0,4.539,2.352,4.539Q117.406,133.1,117.406,128.477Zm9.938-.125a11.005,11.005,0,0,1-.254,2.492,5.807,5.807,0,0,1-.734,1.832,3.305,3.305,0,0,1-1.18,1.133,3.23,3.23,0,0,1-1.59.387,3.016,3.016,0,0,1-1.5-.371,3.152,3.152,0,0,1-1.113-1.082,5.484,5.484,0,0,1-.687-1.746,10.8,10.8,0,0,1-.234-2.371,12.222,12.222,0,0,1,.246-2.594,5.933,5.933,0,0,1,.723-1.887A3.217,3.217,0,0,1,122.2,123a3.323,3.323,0,0,1,1.621-.387Q127.344,122.609,127.344,128.352Zm-1.312.125q0-4.781-2.273-4.781-2.4,0-2.4,4.867,0,4.539,2.352,4.539Q126.031,133.1,126.031,128.477Z" transform="translate(-5956 8350.627)" fill="#00223d"/>
      <path id="Trazado_1054729" data-name="Trazado 1054729" d="M-77.609-.43v-2.5a4.8,4.8,0,0,0,1.477.855,4.746,4.746,0,0,0,1.609.285,3.569,3.569,0,0,0,.832-.086,1.949,1.949,0,0,0,.594-.238,1.039,1.039,0,0,0,.355-.359.9.9,0,0,0,.117-.449.971.971,0,0,0-.187-.586,2.018,2.018,0,0,0-.512-.477,5.347,5.347,0,0,0-.77-.422q-.445-.2-.961-.414a4.9,4.9,0,0,1-1.957-1.336,2.917,2.917,0,0,1-.645-1.906,3.036,3.036,0,0,1,.352-1.5,2.986,2.986,0,0,1,.957-1.035,4.291,4.291,0,0,1,1.4-.6,7.206,7.206,0,0,1,1.688-.191,10.15,10.15,0,0,1,1.551.105,6.1,6.1,0,0,1,1.246.324v2.336a3.768,3.768,0,0,0-.613-.344,4.859,4.859,0,0,0-.684-.246,5.214,5.214,0,0,0-.7-.145,4.949,4.949,0,0,0-.66-.047,3.443,3.443,0,0,0-.781.082,2,2,0,0,0-.594.23,1.147,1.147,0,0,0-.375.355A.843.843,0,0,0-75-8.273a.888.888,0,0,0,.148.5,1.7,1.7,0,0,0,.422.422,4.477,4.477,0,0,0,.664.391q.391.191.883.395a9.838,9.838,0,0,1,1.207.6,4.291,4.291,0,0,1,.918.715,2.785,2.785,0,0,1,.586.91,3.216,3.216,0,0,1,.2,1.191,3.191,3.191,0,0,1-.355,1.574,2.886,2.886,0,0,1-.965,1.031,4.184,4.184,0,0,1-1.418.566A8.2,8.2,0,0,1-74.414.2,9.492,9.492,0,0,1-76.168.039,5.3,5.3,0,0,1-77.609-.43Zm18.617-4.422Q-58.992.2-63.7.2q-4.562,0-4.562-4.93V-11.2h2.531v6.5q0,2.719,2.125,2.719,2.086,0,2.086-2.625V-11.2h2.523ZM-56.555,0V-11.2h4.078a5.093,5.093,0,0,1,2.883.688,2.211,2.211,0,0,1,1.008,1.938A2.293,2.293,0,0,1-49.2-6.992a3.222,3.222,0,0,1-1.566.945v.031a3.1,3.1,0,0,1,1.91.883,2.469,2.469,0,0,1,.715,1.789A2.99,2.99,0,0,1-49.242-.9,4.61,4.61,0,0,1-52.25,0Zm2.523-9.344v2.656h1.109a1.849,1.849,0,0,0,1.23-.379,1.291,1.291,0,0,0,.449-1.043q0-1.234-1.844-1.234Zm0,4.531v2.953h1.367a2.1,2.1,0,0,0,1.371-.406,1.357,1.357,0,0,0,.5-1.109,1.266,1.266,0,0,0-.488-1.055,2.16,2.16,0,0,0-1.363-.383Zm15.219-4.336h-3.2V0h-2.531V-9.148h-3.18V-11.2h8.906ZM-33.164.2a5.215,5.215,0,0,1-3.922-1.566A5.624,5.624,0,0,1-38.6-5.453a6.026,6.026,0,0,1,1.539-4.3,5.328,5.328,0,0,1,4.078-1.641,5.085,5.085,0,0,1,3.879,1.57,5.79,5.79,0,0,1,1.48,4.141A5.929,5.929,0,0,1-29.16-1.422,5.269,5.269,0,0,1-33.164.2Zm.109-9.414a2.54,2.54,0,0,0-2.109,1,4.153,4.153,0,0,0-.781,2.637,4.077,4.077,0,0,0,.781,2.633,2.5,2.5,0,0,0,2.047.969,2.528,2.528,0,0,0,2.07-.941,4.032,4.032,0,0,0,.766-2.613,4.369,4.369,0,0,0-.742-2.711A2.42,2.42,0,0,0-33.055-9.219Zm14.516.07h-3.2V0h-2.531V-9.148h-3.18V-11.2h8.906ZM-8.3,0h-2.75l-.8-2.492h-3.984L-16.617,0h-2.734l4.078-11.2h2.992Zm-4.125-4.43-1.2-3.766A4.907,4.907,0,0,1-13.812-9.2h-.062a4.273,4.273,0,0,1-.2.977l-1.219,3.8ZM-.227,0H-6.9V-11.2h2.523v9.156H-.227ZM-22.359,39h-2.523V27.8h2.523Zm11.875-11.2L-14.344,39H-17.2l-3.812-11.2H-18.3l2.336,7.8a5.584,5.584,0,0,1,.227,1.117h.047a6.315,6.315,0,0,1,.242-1.148l2.32-7.766ZM-.117,39h-2.75l-.8-2.492H-7.648L-8.437,39h-2.734l4.078-11.2H-4.1Zm-4.125-4.43-1.2-3.766A4.907,4.907,0,0,1-5.633,29.8H-5.7a4.273,4.273,0,0,1-.2.977l-1.219,3.8Zm-34.57,34.281h-3.2V78h-2.531V68.852h-3.18V66.8h8.906Zm5.648,9.344a5.215,5.215,0,0,1-3.922-1.566A5.624,5.624,0,0,1-38.6,72.547a6.026,6.026,0,0,1,1.539-4.3,5.328,5.328,0,0,1,4.078-1.641,5.085,5.085,0,0,1,3.879,1.57,5.79,5.79,0,0,1,1.48,4.141,5.929,5.929,0,0,1-1.535,4.258A5.269,5.269,0,0,1-33.164,78.2Zm.109-9.414a2.54,2.54,0,0,0-2.109,1,4.153,4.153,0,0,0-.781,2.637,4.077,4.077,0,0,0,.781,2.633,2.5,2.5,0,0,0,2.047.969,2.528,2.528,0,0,0,2.07-.941,4.032,4.032,0,0,0,.766-2.613,4.369,4.369,0,0,0-.742-2.711A2.42,2.42,0,0,0-33.055,68.781Zm14.516.07h-3.2V78h-2.531V68.852h-3.18V66.8h8.906ZM-8.3,78h-2.75l-.8-2.492h-3.984L-16.617,78h-2.734l4.078-11.2h2.992Zm-4.125-4.43-1.2-3.766a4.907,4.907,0,0,1-.187-1.008h-.062a4.273,4.273,0,0,1-.2.977l-1.219,3.8ZM-.227,78H-6.9V66.8h2.523v9.156H-.227Z" transform="translate(-5990.228 8404.869)" fill="#12263f"/>
    </g>
  </g>
</svg>
