<svg xmlns="http://www.w3.org/2000/svg" width="1160.725" height="471.414" viewBox="0 0 1160.725 471.414">
  <g id="Grupo_1180998" data-name="Grupo 1180998" transform="translate(4986.759 1345.91)">
    <path id="Trazado_1054837" data-name="Trazado 1054837" d="M0,0H1159V40H0Z" transform="translate(-4986.534 -1345.91)" fill="#fd9826"/>
    <path id="Trazado_1054838" data-name="Trazado 1054838" d="M-21,0h-3.187l-3.266-4.867a4.665,4.665,0,0,1-.3-.617h-.039V0h-2.523V-11.2h2.523v5.3h.039q.094-.219.313-.625l3.094-4.672h3.008l-3.906,5.344Zm10.922,0h-2.75l-.8-2.492h-3.984L-18.4,0h-2.734l4.078-11.2h2.992Zm-4.125-4.43L-15.41-8.2A4.907,4.907,0,0,1-15.6-9.2h-.062a4.273,4.273,0,0,1-.2.977l-1.219,3.8ZM.715,0h-2.9L-3.926-2.883q-.2-.328-.375-.586a3.255,3.255,0,0,0-.363-.441,1.445,1.445,0,0,0-.383-.281.972.972,0,0,0-.434-.1h-.68V0H-8.684V-11.2h4q4.078,0,4.078,3.047a3.155,3.155,0,0,1-.18,1.082,3.006,3.006,0,0,1-.508.895,3.219,3.219,0,0,1-.793.688,4.089,4.089,0,0,1-1.035.453v.031a1.606,1.606,0,0,1,.484.254,3.468,3.468,0,0,1,.453.41,5.722,5.722,0,0,1,.418.5q.2.27.363.527ZM-6.16-9.312V-6.2h1.094a1.813,1.813,0,0,0,1.3-.469,1.564,1.564,0,0,0,.5-1.18q0-1.469-1.758-1.469ZM1.762,0V-11.2H5.73q5.969,0,5.969,5.461a5.522,5.522,0,0,1-1.629,4.18A6.007,6.007,0,0,1,5.73,0ZM4.285-9.148v7.1h1.25a3.378,3.378,0,0,0,2.574-.984,3.735,3.735,0,0,0,.934-2.68,3.388,3.388,0,0,0-.926-2.52,3.529,3.529,0,0,0-2.6-.918ZM20.277,0H13.559V-11.2H20.02v2.055H16.082v2.492h3.664v2.047H16.082v2.563h4.2ZM31.543,0H28.551l-1.93-3.648a3.2,3.2,0,0,1-.227-.75h-.031a5.678,5.678,0,0,1-.258.781L24.168,0H21.16l3.57-5.6-3.266-5.6h3.07l1.6,3.359a5.8,5.8,0,0,1,.336.945H26.5q.094-.328.352-.977L28.637-11.2h2.813L28.09-5.648Z" transform="translate(-4922.628 -1320.41)" fill="#12263f"/>
    <path id="Trazado_1034209" data-name="Trazado 1034209" d="M0,0H1159.949V424.421H0Z" transform="translate(-4986.034 -1305.91)" fill="#fff"/>
    <path id="Trazado_1054827" data-name="Trazado 1054827" d="M1160,0,0,.637" transform="translate(-4986.085 -1224.547)" fill="none" stroke="#e1e1e1" stroke-width="1"/>
    <path id="Trazado_1054819" data-name="Trazado 1054819" d="M1159,0H0" transform="translate(-4986.034 -1151.184)" fill="none" stroke="#e1e1e1" stroke-width="1"/>
    <path id="Trazado_1034207" data-name="Trazado 1034207" d="M0,0" transform="translate(-4986.034 -999.09)" fill="none" stroke="#e1e1e1" stroke-width="1"/>
    <path id="Trazado_899679" data-name="Trazado 899679" d="M1160,0" transform="translate(-4986.085 -1151.547)" fill="none" stroke="#e1e1e1" stroke-width="1"/>
    <path id="Trazado_1054832" data-name="Trazado 1054832" d="M26.327,17H24.764l-1.875-3.141a6.84,6.84,0,0,0-.5-.746,2.85,2.85,0,0,0-.5-.5,1.718,1.718,0,0,0-.547-.285,2.249,2.249,0,0,0-.66-.09H19.608V17H18.3V5.8h3.344a4.765,4.765,0,0,1,1.355.184,3.033,3.033,0,0,1,1.078.559,2.6,2.6,0,0,1,.715.934,3.1,3.1,0,0,1,.258,1.309,3.151,3.151,0,0,1-.176,1.074,2.805,2.805,0,0,1-.5.871,3.031,3.031,0,0,1-.781.652,3.988,3.988,0,0,1-1.027.418v.031a2.363,2.363,0,0,1,.488.285,2.687,2.687,0,0,1,.395.379,5.019,5.019,0,0,1,.371.5q.184.277.41.645ZM19.608,6.984v4.063h1.781a2.7,2.7,0,0,0,.91-.148,2.107,2.107,0,0,0,.723-.426,1.931,1.931,0,0,0,.477-.68,2.275,2.275,0,0,0,.172-.9,1.756,1.756,0,0,0-.582-1.4,2.5,2.5,0,0,0-1.684-.5ZM33.8,17H27.866V5.8h5.688V6.984H29.178v3.727h4.047v1.18H29.178v3.922H33.8ZM41.647,6.984H37.272v3.875h4.047v1.18H37.272V17H35.96V5.8h5.688ZM49.71,17H43.772V5.8H49.46V6.984H45.085v3.727h4.047v1.18H45.085v3.922H49.71ZM59.9,17H58.335L56.46,13.859a6.84,6.84,0,0,0-.5-.746,2.85,2.85,0,0,0-.5-.5,1.718,1.718,0,0,0-.547-.285,2.249,2.249,0,0,0-.66-.09H53.178V17H51.866V5.8H55.21a4.765,4.765,0,0,1,1.355.184,3.033,3.033,0,0,1,1.078.559,2.6,2.6,0,0,1,.715.934,3.1,3.1,0,0,1,.258,1.309,3.151,3.151,0,0,1-.176,1.074,2.806,2.806,0,0,1-.5.871,3.031,3.031,0,0,1-.781.652,3.988,3.988,0,0,1-1.027.418v.031a2.363,2.363,0,0,1,.488.285,2.687,2.687,0,0,1,.395.379,5.019,5.019,0,0,1,.371.5q.184.277.41.645ZM53.178,6.984v4.063H54.96a2.7,2.7,0,0,0,.91-.148,2.107,2.107,0,0,0,.723-.426,1.931,1.931,0,0,0,.477-.68,2.275,2.275,0,0,0,.172-.9,1.756,1.756,0,0,0-.582-1.4,2.5,2.5,0,0,0-1.684-.5ZM67.374,17H61.436V5.8h5.688V6.984H62.749v3.727H66.8v1.18H62.749v3.922h4.625Zm11.188,0H76.952L71.186,8.07a3.731,3.731,0,0,1-.359-.7H70.78a11.534,11.534,0,0,1,.063,1.539V17H69.53V5.8h1.7l5.609,8.789q.352.547.453.75h.031a11.853,11.853,0,0,1-.078-1.648V5.8h1.313Zm10.563-.469a6.571,6.571,0,0,1-3.094.656A4.989,4.989,0,0,1,82.2,15.648a5.679,5.679,0,0,1-1.437-4.039,5.952,5.952,0,0,1,1.617-4.344,5.489,5.489,0,0,1,4.1-1.656,6.576,6.576,0,0,1,2.641.461v1.4A5.355,5.355,0,0,0,86.468,6.8a4.076,4.076,0,0,0-3.129,1.289,4.856,4.856,0,0,0-1.2,3.445,4.621,4.621,0,0,0,1.121,3.262A3.815,3.815,0,0,0,86.2,16.008a5.518,5.518,0,0,0,2.922-.75ZM92.718,17H91.405V5.8h1.313Zm11.617,0h-1.453l-1.187-3.141h-4.75L95.827,17H94.366l4.3-11.2h1.359Zm-3.07-4.32L99.507,7.906a4.571,4.571,0,0,1-.172-.75H99.3a4.185,4.185,0,0,1-.18.75L97.382,12.68Z" transform="translate(-4964 -1274.229)" fill="#12263f"/>
    <path id="Trazado_1054833" data-name="Trazado 1054833" d="M8.32,13.578a3.771,3.771,0,0,1-.281,1.484,3.245,3.245,0,0,1-.8,1.141,3.586,3.586,0,0,1-1.254.734,4.9,4.9,0,0,1-1.633.258,4.511,4.511,0,0,1-2.32-.469V15.367a4.266,4.266,0,0,0,2.336.734,3.161,3.161,0,0,0,1.1-.18,2.439,2.439,0,0,0,.832-.5,2.141,2.141,0,0,0,.527-.773,2.618,2.618,0,0,0,.184-.992,2.125,2.125,0,0,0-.734-1.715,3.221,3.221,0,0,0-2.133-.621q-.227,0-.477.008t-.5.02q-.25.012-.488.027t-.434.039L2.625,5.8H7.8V6.953H3.734l-.227,3.289q.25-.016.531-.027t.5-.012a5.028,5.028,0,0,1,1.594.234,3.377,3.377,0,0,1,1.191.668,2.8,2.8,0,0,1,.742,1.063A3.737,3.737,0,0,1,8.32,13.578Zm8.625,0a3.771,3.771,0,0,1-.281,1.484,3.245,3.245,0,0,1-.8,1.141,3.586,3.586,0,0,1-1.254.734,4.9,4.9,0,0,1-1.633.258,4.511,4.511,0,0,1-2.32-.469V15.367a4.266,4.266,0,0,0,2.336.734,3.161,3.161,0,0,0,1.1-.18,2.439,2.439,0,0,0,.832-.5,2.141,2.141,0,0,0,.527-.773,2.618,2.618,0,0,0,.184-.992,2.125,2.125,0,0,0-.734-1.715,3.221,3.221,0,0,0-2.133-.621q-.227,0-.477.008t-.5.02q-.25.012-.488.027t-.434.039L11.25,5.8h5.18V6.953h-4.07l-.227,3.289q.25-.016.531-.027t.5-.012a5.028,5.028,0,0,1,1.594.234,3.377,3.377,0,0,1,1.191.668,2.8,2.8,0,0,1,.742,1.063A3.737,3.737,0,0,1,16.945,13.578Zm9.039-.133a4.15,4.15,0,0,1-.266,1.508,3.624,3.624,0,0,1-.734,1.188,3.281,3.281,0,0,1-1.117.777,3.538,3.538,0,0,1-1.406.277,3.1,3.1,0,0,1-2.645-1.363,4.853,4.853,0,0,1-.707-1.613,8.74,8.74,0,0,1-.242-2.148,10.1,10.1,0,0,1,.324-2.652,6.444,6.444,0,0,1,.922-2.039A4.25,4.25,0,0,1,21.555,6.07a3.862,3.862,0,0,1,1.883-.461,4.535,4.535,0,0,1,1.859.32V7.141A3.949,3.949,0,0,0,23.469,6.7a2.724,2.724,0,0,0-1.352.336,3.1,3.1,0,0,0-1.031.949,4.63,4.63,0,0,0-.66,1.48,7.511,7.511,0,0,0-.23,1.93h.031a2.69,2.69,0,0,1,2.555-1.4,3.363,3.363,0,0,1,1.324.25,2.859,2.859,0,0,1,1.008.707,3.183,3.183,0,0,1,.645,1.09A4.148,4.148,0,0,1,25.984,13.445Zm-1.312.164a3.486,3.486,0,0,0-.148-1.055,2.288,2.288,0,0,0-.426-.8,1.836,1.836,0,0,0-.684-.5,2.3,2.3,0,0,0-.922-.176,2.158,2.158,0,0,0-.883.18,2.2,2.2,0,0,0-.7.488,2.286,2.286,0,0,0-.633,1.59,3.475,3.475,0,0,0,.164,1.082,2.8,2.8,0,0,0,.461.879,2.192,2.192,0,0,0,.707.59,1.931,1.931,0,0,0,.91.215,2.084,2.084,0,0,0,.883-.184,1.97,1.97,0,0,0,.68-.512,2.369,2.369,0,0,0,.438-.785A3.112,3.112,0,0,0,24.672,13.609Zm9.938-.164a4.15,4.15,0,0,1-.266,1.508,3.624,3.624,0,0,1-.734,1.188,3.281,3.281,0,0,1-1.117.777,3.538,3.538,0,0,1-1.406.277,3.1,3.1,0,0,1-2.645-1.363,4.853,4.853,0,0,1-.707-1.613,8.74,8.74,0,0,1-.242-2.148,10.1,10.1,0,0,1,.324-2.652,6.444,6.444,0,0,1,.922-2.039A4.25,4.25,0,0,1,30.18,6.07a3.862,3.862,0,0,1,1.883-.461,4.535,4.535,0,0,1,1.859.32V7.141A3.949,3.949,0,0,0,32.094,6.7a2.724,2.724,0,0,0-1.352.336,3.1,3.1,0,0,0-1.031.949,4.63,4.63,0,0,0-.66,1.48,7.511,7.511,0,0,0-.23,1.93h.031a2.69,2.69,0,0,1,2.555-1.4,3.363,3.363,0,0,1,1.324.25,2.859,2.859,0,0,1,1.008.707,3.183,3.183,0,0,1,.645,1.09A4.148,4.148,0,0,1,34.609,13.445Zm-1.312.164a3.486,3.486,0,0,0-.148-1.055,2.288,2.288,0,0,0-.426-.8,1.836,1.836,0,0,0-.684-.5,2.3,2.3,0,0,0-.922-.176,2.158,2.158,0,0,0-.883.18,2.2,2.2,0,0,0-.7.488,2.286,2.286,0,0,0-.633,1.59,3.475,3.475,0,0,0,.164,1.082,2.8,2.8,0,0,0,.461.879,2.192,2.192,0,0,0,.707.59,1.931,1.931,0,0,0,.91.215,2.084,2.084,0,0,0,.883-.184,1.97,1.97,0,0,0,.68-.512,2.369,2.369,0,0,0,.438-.785A3.112,3.112,0,0,0,33.3,13.609Z" transform="translate(-4768 -1271)" fill="#12263f"/>
    <path id="Trazado_1054834" data-name="Trazado 1054834" d="M5.152,12.766V17H3.84V5.8H6.918A4.063,4.063,0,0,1,9.7,6.672a3.124,3.124,0,0,1,.988,2.469,3.4,3.4,0,0,1-1.1,2.609,4.194,4.194,0,0,1-2.965,1.016Zm0-5.781v4.594H6.527A3.074,3.074,0,0,0,8.6,10.957,2.2,2.2,0,0,0,9.316,9.2q0-2.219-2.625-2.219ZM20.832,17H19.27l-1.875-3.141a6.84,6.84,0,0,0-.5-.746,2.85,2.85,0,0,0-.5-.5,1.718,1.718,0,0,0-.547-.285,2.249,2.249,0,0,0-.66-.09H14.113V17H12.8V5.8h3.344A4.765,4.765,0,0,1,17.5,5.98a3.033,3.033,0,0,1,1.078.559,2.6,2.6,0,0,1,.715.934,3.1,3.1,0,0,1,.258,1.309,3.151,3.151,0,0,1-.176,1.074,2.805,2.805,0,0,1-.5.871,3.031,3.031,0,0,1-.781.652,3.988,3.988,0,0,1-1.027.418v.031a2.363,2.363,0,0,1,.488.285,2.687,2.687,0,0,1,.395.379,5.019,5.019,0,0,1,.371.5q.184.277.41.645ZM14.113,6.984v4.063h1.781a2.7,2.7,0,0,0,.91-.148,2.107,2.107,0,0,0,.723-.426A1.931,1.931,0,0,0,18,9.793a2.275,2.275,0,0,0,.172-.9,1.756,1.756,0,0,0-.582-1.4,2.5,2.5,0,0,0-1.684-.5Zm12.617,10.2a4.918,4.918,0,0,1-3.816-1.57,5.824,5.824,0,0,1-1.434-4.086,6.171,6.171,0,0,1,1.461-4.312,5.1,5.1,0,0,1,3.977-1.609,4.807,4.807,0,0,1,3.738,1.563,5.845,5.845,0,0,1,1.418,4.086,6.191,6.191,0,0,1-1.453,4.336A5.008,5.008,0,0,1,26.73,17.188ZM26.824,6.8A3.612,3.612,0,0,0,23.957,8.07a4.93,4.93,0,0,0-1.1,3.344,4.964,4.964,0,0,0,1.074,3.332,3.5,3.5,0,0,0,2.8,1.262,3.678,3.678,0,0,0,2.906-1.2A4.917,4.917,0,0,0,30.7,11.438a5.138,5.138,0,0,0-1.031-3.43A3.536,3.536,0,0,0,26.824,6.8ZM34.277,17V5.8h3.094q5.922,0,5.922,5.461a5.5,5.5,0,0,1-1.645,4.168A6.1,6.1,0,0,1,37.246,17ZM35.59,6.984v8.828h1.672a4.745,4.745,0,0,0,3.43-1.18,4.422,4.422,0,0,0,1.227-3.344q0-4.3-4.578-4.3Zm18.1,5.484q0,4.719-4.258,4.719-4.078,0-4.078-4.539V5.8h1.313v6.766q0,3.445,2.906,3.445,2.8,0,2.8-3.328V5.8h1.313Zm10.422,4.063a6.571,6.571,0,0,1-3.094.656,4.989,4.989,0,0,1-3.828-1.539,5.679,5.679,0,0,1-1.437-4.039,5.952,5.952,0,0,1,1.617-4.344,5.489,5.489,0,0,1,4.1-1.656,6.576,6.576,0,0,1,2.641.461v1.4A5.355,5.355,0,0,0,61.457,6.8a4.076,4.076,0,0,0-3.129,1.289,4.856,4.856,0,0,0-1.2,3.445,4.621,4.621,0,0,0,1.121,3.262,3.815,3.815,0,0,0,2.941,1.215,5.518,5.518,0,0,0,2.922-.75ZM73.02,6.984H69.785V17H68.473V6.984H65.246V5.8H73.02Zm5.531,10.2a4.918,4.918,0,0,1-3.816-1.57A5.824,5.824,0,0,1,73.3,11.531a6.171,6.171,0,0,1,1.461-4.312,5.1,5.1,0,0,1,3.977-1.609,4.807,4.807,0,0,1,3.738,1.563,5.845,5.845,0,0,1,1.418,4.086,6.191,6.191,0,0,1-1.453,4.336A5.008,5.008,0,0,1,78.551,17.188ZM78.645,6.8A3.612,3.612,0,0,0,75.777,8.07a4.93,4.93,0,0,0-1.1,3.344,4.964,4.964,0,0,0,1.074,3.332,3.5,3.5,0,0,0,2.8,1.262,3.678,3.678,0,0,0,2.906-1.2,4.917,4.917,0,0,0,1.063-3.367,5.138,5.138,0,0,0-1.031-3.43A3.536,3.536,0,0,0,78.645,6.8Z" transform="translate(-4663 -1271)" fill="#12263f"/>
    <path id="Trazado_1054835" data-name="Trazado 1054835" d="M34.855,17H33.4l-1.187-3.141h-4.75L26.348,17H24.887l4.3-11.2h1.359Zm-3.07-4.32L30.027,7.906a4.571,4.571,0,0,1-.172-.75h-.031a4.185,4.185,0,0,1-.18.75L27.9,12.68ZM44.535,17H42.973L41.1,13.859a6.84,6.84,0,0,0-.5-.746,2.85,2.85,0,0,0-.5-.5,1.718,1.718,0,0,0-.547-.285,2.249,2.249,0,0,0-.66-.09H37.816V17H36.5V5.8h3.344A4.765,4.765,0,0,1,41.2,5.98a3.033,3.033,0,0,1,1.078.559A2.6,2.6,0,0,1,43,7.473a3.1,3.1,0,0,1,.258,1.309,3.151,3.151,0,0,1-.176,1.074,2.806,2.806,0,0,1-.5.871,3.031,3.031,0,0,1-.781.652,3.988,3.988,0,0,1-1.027.418v.031a2.363,2.363,0,0,1,.488.285,2.687,2.687,0,0,1,.395.379,5.019,5.019,0,0,1,.371.5q.184.277.41.645ZM37.816,6.984v4.063H39.6a2.7,2.7,0,0,0,.91-.148,2.107,2.107,0,0,0,.723-.426,1.931,1.931,0,0,0,.477-.68,2.275,2.275,0,0,0,.172-.9,1.756,1.756,0,0,0-.582-1.4,2.5,2.5,0,0,0-1.684-.5ZM54.105,17H52.543l-1.875-3.141a6.84,6.84,0,0,0-.5-.746,2.85,2.85,0,0,0-.5-.5,1.718,1.718,0,0,0-.547-.285,2.249,2.249,0,0,0-.66-.09H47.387V17H46.074V5.8h3.344a4.765,4.765,0,0,1,1.355.184,3.033,3.033,0,0,1,1.078.559,2.6,2.6,0,0,1,.715.934,3.1,3.1,0,0,1,.258,1.309,3.151,3.151,0,0,1-.176,1.074,2.806,2.806,0,0,1-.5.871,3.031,3.031,0,0,1-.781.652,3.988,3.988,0,0,1-1.027.418v.031a2.363,2.363,0,0,1,.488.285,2.687,2.687,0,0,1,.395.379,5.019,5.019,0,0,1,.371.5q.184.277.41.645ZM47.387,6.984v4.063h1.781a2.7,2.7,0,0,0,.91-.148,2.107,2.107,0,0,0,.723-.426,1.931,1.931,0,0,0,.477-.68,2.275,2.275,0,0,0,.172-.9,1.756,1.756,0,0,0-.582-1.4,2.5,2.5,0,0,0-1.684-.5ZM60,17.188a4.918,4.918,0,0,1-3.816-1.57,5.824,5.824,0,0,1-1.434-4.086,6.171,6.171,0,0,1,1.461-4.312,5.1,5.1,0,0,1,3.977-1.609A4.807,4.807,0,0,1,63.93,7.172a5.845,5.845,0,0,1,1.418,4.086,6.191,6.191,0,0,1-1.453,4.336A5.008,5.008,0,0,1,60,17.188ZM60.1,6.8A3.612,3.612,0,0,0,57.23,8.07a4.93,4.93,0,0,0-1.1,3.344A4.964,4.964,0,0,0,57.2,14.746,3.5,3.5,0,0,0,60,16.008a3.678,3.678,0,0,0,2.906-1.2,4.917,4.917,0,0,0,1.063-3.367,5.138,5.138,0,0,0-1.031-3.43A3.536,3.536,0,0,0,60.1,6.8Zm14.375-.687-6.562,9.7h6.406V17H65.949v-.367l6.508-9.648H66.473V5.8h8ZM80.668,17V5.8h3.094q5.922,0,5.922,5.461a5.5,5.5,0,0,1-1.645,4.168A6.1,6.1,0,0,1,83.637,17ZM81.98,6.984v8.828h1.672a4.745,4.745,0,0,0,3.43-1.18,4.422,4.422,0,0,0,1.227-3.344q0-4.3-4.578-4.3ZM93.2,17H91.887V5.8H93.2Zm11.617,0h-1.453l-1.187-3.141h-4.75L96.309,17H94.848l4.3-11.2H100.5Zm-3.07-4.32L99.988,7.906a4.571,4.571,0,0,1-.172-.75h-.031a4.185,4.185,0,0,1-.18.75L97.863,12.68ZM115.5,17h-1.609l-5.766-8.93a3.731,3.731,0,0,1-.359-.7h-.047a11.534,11.534,0,0,1,.063,1.539V17h-1.312V5.8h1.7l5.609,8.789q.352.547.453.75h.031a11.853,11.853,0,0,1-.078-1.648V5.8H115.5Zm11.609,0h-1.453l-1.187-3.141h-4.75L118.6,17h-1.461l4.3-11.2h1.359Zm-3.07-4.32-1.758-4.773a4.571,4.571,0,0,1-.172-.75h-.031a4.185,4.185,0,0,1-.18.75l-1.742,4.773Z" transform="translate(-4512.634 -1271)" fill="#12263f"/>
    <path id="Trazado_1054830" data-name="Trazado 1054830" d="M9.492,16.531a6.571,6.571,0,0,1-3.094.656A4.989,4.989,0,0,1,2.57,15.648a5.679,5.679,0,0,1-1.437-4.039A5.952,5.952,0,0,1,2.75,7.266a5.489,5.489,0,0,1,4.1-1.656,6.576,6.576,0,0,1,2.641.461v1.4A5.355,5.355,0,0,0,6.836,6.8,4.076,4.076,0,0,0,3.707,8.086a4.856,4.856,0,0,0-1.2,3.445,4.621,4.621,0,0,0,1.121,3.262A3.815,3.815,0,0,0,6.57,16.008a5.518,5.518,0,0,0,2.922-.75ZM20.445,17H18.992L17.8,13.859h-4.75L11.938,17H10.477l4.3-11.2h1.359Zm-3.07-4.32L15.617,7.906a4.571,4.571,0,0,1-.172-.75h-.031a4.185,4.185,0,0,1-.18.75L13.492,12.68ZM31.125,17H29.516L23.75,8.07a3.731,3.731,0,0,1-.359-.7h-.047a11.534,11.534,0,0,1,.063,1.539V17H22.094V5.8h1.7l5.609,8.789q.352.547.453.75h.031a11.853,11.853,0,0,1-.078-1.648V5.8h1.313ZM40.688,6.984H37.453V17H36.141V6.984H32.914V5.8h7.773ZM43.758,17H42.445V5.8h1.313ZM46.7,17V5.8H49.8q5.922,0,5.922,5.461a5.5,5.5,0,0,1-1.645,4.168A6.1,6.1,0,0,1,49.672,17ZM48.016,6.984v8.828h1.672a4.745,4.745,0,0,0,3.43-1.18,4.422,4.422,0,0,0,1.227-3.344q0-4.3-4.578-4.3ZM66.2,17H64.75l-1.187-3.141h-4.75L57.7,17H56.234l4.3-11.2h1.359Zm-3.07-4.32L61.375,7.906a4.571,4.571,0,0,1-.172-.75h-.031a4.185,4.185,0,0,1-.18.75L59.25,12.68ZM67.852,17V5.8h3.094q5.922,0,5.922,5.461a5.5,5.5,0,0,1-1.645,4.168A6.1,6.1,0,0,1,70.82,17ZM69.164,6.984v8.828h1.672a4.745,4.745,0,0,0,3.43-1.18,4.422,4.422,0,0,0,1.227-3.344q0-4.3-4.578-4.3ZM22.121,35h-1.3V27.484q0-.891.109-2.18h-.031a6.968,6.968,0,0,1-.336,1.086L16.73,35H16.09l-3.82-8.547a6.7,6.7,0,0,1-.336-1.148H11.9q.063.672.063,2.2V35H10.7V23.8h1.734l3.438,7.813a10,10,0,0,1,.516,1.344h.047q.336-.922.539-1.375L20.48,23.8h1.641Zm4.258,0H25.066V23.8h1.313Zm1.2-14.8-2.047,2.563h-.992L26.277,20.2ZM38.355,35H36.746L30.98,26.07a3.731,3.731,0,0,1-.359-.7h-.047a11.534,11.534,0,0,1,.063,1.539V35H29.324V23.8h1.7l5.609,8.789q.352.547.453.75h.031a11.853,11.853,0,0,1-.078-1.648V23.8h1.313Zm4.25,0H41.293V23.8h1.313Zm14.367,0h-1.3V27.484q0-.891.109-2.18h-.031a6.969,6.969,0,0,1-.336,1.086L51.582,35h-.641l-3.82-8.547a6.7,6.7,0,0,1-.336-1.148h-.031q.063.672.063,2.2V35H45.551V23.8h1.734l3.438,7.813a10,10,0,0,1,.516,1.344h.047q.336-.922.539-1.375L55.332,23.8h1.641ZM68.59,35H67.137l-1.187-3.141H61.2L60.082,35H58.621l4.3-11.2h1.359Zm-3.07-4.32-1.758-4.773a4.571,4.571,0,0,1-.172-.75h-.031a4.185,4.185,0,0,1-.18.75L61.637,30.68Z" transform="translate(-4323.244 -1280)" fill="#12263f"/>
    <path id="Trazado_1054836" data-name="Trazado 1054836" d="M8,17H6.719V7.32a2.966,2.966,0,0,1-.434.34,7.068,7.068,0,0,1-.641.379q-.355.188-.75.352a5.451,5.451,0,0,1-.77.258v-1.3a7.448,7.448,0,0,0,.895-.316q.473-.2.93-.445t.863-.516a6.854,6.854,0,0,0,.7-.527H8Zm4.711.172a.829.829,0,0,1-.613-.258.849.849,0,0,1-.254-.617.862.862,0,0,1,.254-.621.823.823,0,0,1,.613-.262.845.845,0,0,1,.625.262.855.855,0,0,1,.258.621.842.842,0,0,1-.258.617A.851.851,0,0,1,12.711,17.172Zm9.7-5.82a11.005,11.005,0,0,1-.254,2.492,5.807,5.807,0,0,1-.734,1.832,3.305,3.305,0,0,1-1.18,1.133,3.23,3.23,0,0,1-1.59.387,3.016,3.016,0,0,1-1.5-.371,3.152,3.152,0,0,1-1.113-1.082A5.484,5.484,0,0,1,15.344,14a10.8,10.8,0,0,1-.234-2.371,12.222,12.222,0,0,1,.246-2.594,5.933,5.933,0,0,1,.723-1.887A3.216,3.216,0,0,1,17.262,6a3.323,3.323,0,0,1,1.621-.387Q22.406,5.609,22.406,11.352Zm-1.312.125q0-4.781-2.273-4.781-2.4,0-2.4,4.867,0,4.539,2.352,4.539Q21.094,16.1,21.094,11.477Zm9.938-.125a11.005,11.005,0,0,1-.254,2.492,5.807,5.807,0,0,1-.734,1.832,3.305,3.305,0,0,1-1.18,1.133,3.23,3.23,0,0,1-1.59.387,3.016,3.016,0,0,1-1.5-.371,3.152,3.152,0,0,1-1.113-1.082A5.484,5.484,0,0,1,23.969,14a10.8,10.8,0,0,1-.234-2.371,12.222,12.222,0,0,1,.246-2.594A5.933,5.933,0,0,1,24.7,7.145,3.216,3.216,0,0,1,25.887,6a3.323,3.323,0,0,1,1.621-.387Q31.031,5.609,31.031,11.352Zm-1.312.125q0-4.781-2.273-4.781-2.4,0-2.4,4.867,0,4.539,2.352,4.539Q29.719,16.1,29.719,11.477Zm9.938-.125a11.005,11.005,0,0,1-.254,2.492,5.807,5.807,0,0,1-.734,1.832,3.305,3.305,0,0,1-1.18,1.133,3.23,3.23,0,0,1-1.59.387,3.016,3.016,0,0,1-1.5-.371,3.152,3.152,0,0,1-1.113-1.082A5.484,5.484,0,0,1,32.594,14a10.8,10.8,0,0,1-.234-2.371,12.222,12.222,0,0,1,.246-2.594,5.933,5.933,0,0,1,.723-1.887A3.216,3.216,0,0,1,34.512,6a3.323,3.323,0,0,1,1.621-.387Q39.656,5.609,39.656,11.352Zm-1.312.125q0-4.781-2.273-4.781-2.4,0-2.4,4.867,0,4.539,2.352,4.539Q38.344,16.1,38.344,11.477Zm3.711,5.7a.829.829,0,0,1-.613-.258.849.849,0,0,1-.254-.617.862.862,0,0,1,.254-.621.823.823,0,0,1,.613-.262.845.845,0,0,1,.625.262.855.855,0,0,1,.258.621.842.842,0,0,1-.258.617A.851.851,0,0,1,42.055,17.172Zm9.7-5.82a11.005,11.005,0,0,1-.254,2.492,5.807,5.807,0,0,1-.734,1.832,3.305,3.305,0,0,1-1.18,1.133,3.23,3.23,0,0,1-1.59.387,3.016,3.016,0,0,1-1.5-.371,3.152,3.152,0,0,1-1.113-1.082A5.484,5.484,0,0,1,44.688,14a10.8,10.8,0,0,1-.234-2.371A12.222,12.222,0,0,1,44.7,9.031a5.933,5.933,0,0,1,.723-1.887A3.216,3.216,0,0,1,46.605,6a3.323,3.323,0,0,1,1.621-.387Q51.75,5.609,51.75,11.352Zm-1.312.125q0-4.781-2.273-4.781-2.4,0-2.4,4.867,0,4.539,2.352,4.539Q50.438,16.1,50.438,11.477Zm9.938-.125a11.005,11.005,0,0,1-.254,2.492,5.807,5.807,0,0,1-.734,1.832,3.305,3.305,0,0,1-1.18,1.133,3.23,3.23,0,0,1-1.59.387,3.016,3.016,0,0,1-1.5-.371A3.152,3.152,0,0,1,54,15.742,5.484,5.484,0,0,1,53.313,14a10.8,10.8,0,0,1-.234-2.371,12.222,12.222,0,0,1,.246-2.594,5.933,5.933,0,0,1,.723-1.887A3.216,3.216,0,0,1,55.23,6a3.323,3.323,0,0,1,1.621-.387Q60.375,5.609,60.375,11.352Zm-1.312.125q0-4.781-2.273-4.781-2.4,0-2.4,4.867,0,4.539,2.352,4.539Q59.063,16.1,59.063,11.477ZM69,11.352a11.005,11.005,0,0,1-.254,2.492,5.807,5.807,0,0,1-.734,1.832,3.305,3.305,0,0,1-1.18,1.133,3.23,3.23,0,0,1-1.59.387,3.016,3.016,0,0,1-1.5-.371,3.152,3.152,0,0,1-1.113-1.082A5.484,5.484,0,0,1,61.938,14a10.8,10.8,0,0,1-.234-2.371,12.222,12.222,0,0,1,.246-2.594,5.933,5.933,0,0,1,.723-1.887A3.216,3.216,0,0,1,63.855,6a3.323,3.323,0,0,1,1.621-.387Q69,5.609,69,11.352Zm-1.312.125q0-4.781-2.273-4.781-2.4,0-2.4,4.867,0,4.539,2.352,4.539Q67.688,16.1,67.688,11.477Z" transform="translate(-4221.039 -1271)" fill="#12263f"/>
    <path id="Trazado_1054831" data-name="Trazado 1054831" d="M9.492,16.531a6.571,6.571,0,0,1-3.094.656A4.989,4.989,0,0,1,2.57,15.648a5.679,5.679,0,0,1-1.437-4.039A5.952,5.952,0,0,1,2.75,7.266a5.489,5.489,0,0,1,4.1-1.656,6.576,6.576,0,0,1,2.641.461v1.4A5.355,5.355,0,0,0,6.836,6.8,4.076,4.076,0,0,0,3.707,8.086a4.856,4.856,0,0,0-1.2,3.445,4.621,4.621,0,0,0,1.121,3.262A3.815,3.815,0,0,0,6.57,16.008a5.518,5.518,0,0,0,2.922-.75ZM20.445,17H18.992L17.8,13.859h-4.75L11.938,17H10.477l4.3-11.2h1.359Zm-3.07-4.32L15.617,7.906a4.571,4.571,0,0,1-.172-.75h-.031a4.185,4.185,0,0,1-.18.75L13.492,12.68ZM31.125,17H29.516L23.75,8.07a3.731,3.731,0,0,1-.359-.7h-.047a11.534,11.534,0,0,1,.063,1.539V17H22.094V5.8h1.7l5.609,8.789q.352.547.453.75h.031a11.853,11.853,0,0,1-.078-1.648V5.8h1.313ZM40.688,6.984H37.453V17H36.141V6.984H32.914V5.8h7.773ZM43.758,17H42.445V5.8h1.313ZM46.7,17V5.8H49.8q5.922,0,5.922,5.461a5.5,5.5,0,0,1-1.645,4.168A6.1,6.1,0,0,1,49.672,17ZM48.016,6.984v8.828h1.672a4.745,4.745,0,0,0,3.43-1.18,4.422,4.422,0,0,0,1.227-3.344q0-4.3-4.578-4.3ZM66.2,17H64.75l-1.187-3.141h-4.75L57.7,17H56.234l4.3-11.2h1.359Zm-3.07-4.32L61.375,7.906a4.571,4.571,0,0,1-.172-.75h-.031a4.185,4.185,0,0,1-.18.75L59.25,12.68ZM67.852,17V5.8h3.094q5.922,0,5.922,5.461a5.5,5.5,0,0,1-1.645,4.168A6.1,6.1,0,0,1,70.82,17ZM69.164,6.984v8.828h1.672a4.745,4.745,0,0,0,3.43-1.18,4.422,4.422,0,0,0,1.227-3.344q0-4.3-4.578-4.3ZM20.355,35h-1.3V27.484q0-.891.109-2.18h-.031a6.968,6.968,0,0,1-.336,1.086L14.965,35h-.641L10.5,26.453a6.7,6.7,0,0,1-.336-1.148h-.031q.063.672.063,2.2V35H8.934V23.8h1.734l3.438,7.813a10,10,0,0,1,.516,1.344h.047q.336-.922.539-1.375L18.715,23.8h1.641Zm11.617,0H30.52l-1.187-3.141h-4.75L23.465,35H22l4.3-11.2H27.66ZM28.9,30.68l-1.758-4.773a4.571,4.571,0,0,1-.172-.75h-.031a4.185,4.185,0,0,1-.18.75L25.02,30.68Zm-.3-10.477-2.047,2.563h-.992L27.309,20.2ZM41.355,35h-1.6l-2.578-4.289a3.846,3.846,0,0,1-.258-.555h-.031q-.078.18-.266.555L33.965,35H32.355l3.75-5.633L32.652,23.8h1.609l2.289,3.938a7.9,7.9,0,0,1,.4.781h.031a8.626,8.626,0,0,1,.438-.812L39.8,23.8h1.508l-3.523,5.555Zm3.016,0H43.059V23.8h1.313Zm14.367,0h-1.3V27.484q0-.891.109-2.18h-.031a6.969,6.969,0,0,1-.336,1.086L53.348,35h-.641l-3.82-8.547a6.7,6.7,0,0,1-.336-1.148H48.52q.063.672.063,2.2V35H47.316V23.8h1.734l3.438,7.813A10,10,0,0,1,53,32.953h.047q.336-.922.539-1.375L57.1,23.8h1.641Zm11.617,0H68.9l-1.187-3.141h-4.75L61.848,35H60.387l4.3-11.2h1.359Zm-3.07-4.32-1.758-4.773a4.571,4.571,0,0,1-.172-.75h-.031a4.185,4.185,0,0,1-.18.75L63.4,30.68Z" transform="translate(-4105 -1280)" fill="#12263f"/>
    <path id="Trazado_1034208" data-name="Trazado 1034208" d="M0,0H1160V72H0Z" transform="translate(-4986.034 -1224.047)" fill="#f6f6f6"/>
    <path id="Trazado_1054823" data-name="Trazado 1054823" d="M3.8,13.141V17H1.281V5.8H5.234q4.234,0,4.234,3.57A3.426,3.426,0,0,1,8.254,12.1a4.813,4.813,0,0,1-3.246,1.043Zm0-5.406v3.492H4.8q2.016,0,2.016-1.766,0-1.727-2.016-1.727ZM20.508,17h-2.9l-1.742-2.883q-.2-.328-.375-.586a3.255,3.255,0,0,0-.363-.441,1.445,1.445,0,0,0-.383-.281.972.972,0,0,0-.434-.1h-.68V17H11.109V5.8h4q4.078,0,4.078,3.047a3.155,3.155,0,0,1-.18,1.082,3.006,3.006,0,0,1-.508.895,3.219,3.219,0,0,1-.793.688,4.089,4.089,0,0,1-1.035.453v.031a1.606,1.606,0,0,1,.484.254,3.469,3.469,0,0,1,.453.41,5.722,5.722,0,0,1,.418.5q.2.27.363.527ZM13.633,7.688V10.8h1.094a1.813,1.813,0,0,0,1.3-.469,1.564,1.564,0,0,0,.5-1.18q0-1.469-1.758-1.469Zm12.5,9.508a5.215,5.215,0,0,1-3.922-1.566A5.624,5.624,0,0,1,20.7,11.547a6.026,6.026,0,0,1,1.539-4.3,5.328,5.328,0,0,1,4.078-1.641,5.085,5.085,0,0,1,3.879,1.57,5.79,5.79,0,0,1,1.48,4.141,5.929,5.929,0,0,1-1.535,4.258A5.269,5.269,0,0,1,26.133,17.2Zm.109-9.414a2.54,2.54,0,0,0-2.109,1,4.153,4.153,0,0,0-.781,2.637,4.077,4.077,0,0,0,.781,2.633,2.7,2.7,0,0,0,4.117.027,4.032,4.032,0,0,0,.766-2.613,4.369,4.369,0,0,0-.742-2.711A2.42,2.42,0,0,0,26.242,7.781ZM42.859,5.8,39,17H36.141L32.328,5.8h2.719l2.336,7.8a5.584,5.584,0,0,1,.227,1.117h.047a6.314,6.314,0,0,1,.242-1.148L40.219,5.8ZM50.922,17H44.2V5.8h6.461V7.852H46.727v2.492h3.664v2.047H46.727v2.563h4.2Zm8.516,0H52.719V5.8H59.18V7.852H55.242v2.492h3.664v2.047H55.242v2.563h4.2Zm1.8,0V5.8H65.2q5.969,0,5.969,5.461a5.522,5.522,0,0,1-1.629,4.18A6.007,6.007,0,0,1,65.2,17Zm2.523-9.148v7.1h1.25a3.378,3.378,0,0,0,2.574-.984,3.735,3.735,0,0,0,.934-2.68,3.388,3.388,0,0,0-.926-2.52,3.529,3.529,0,0,0-2.6-.918ZM77.766,17.2a5.215,5.215,0,0,1-3.922-1.566,5.624,5.624,0,0,1-1.516-4.082,6.026,6.026,0,0,1,1.539-4.3,5.328,5.328,0,0,1,4.078-1.641,5.085,5.085,0,0,1,3.879,1.57A5.79,5.79,0,0,1,83.3,11.32a5.929,5.929,0,0,1-1.535,4.258A5.269,5.269,0,0,1,77.766,17.2Zm.109-9.414a2.54,2.54,0,0,0-2.109,1,4.153,4.153,0,0,0-.781,2.637,4.077,4.077,0,0,0,.781,2.633,2.7,2.7,0,0,0,4.117.027,4.032,4.032,0,0,0,.766-2.613,4.369,4.369,0,0,0-.742-2.711A2.42,2.42,0,0,0,77.875,7.781ZM94.563,17h-2.9l-1.742-2.883q-.2-.328-.375-.586a3.255,3.255,0,0,0-.363-.441,1.445,1.445,0,0,0-.383-.281.972.972,0,0,0-.434-.1h-.68V17H85.164V5.8h4q4.078,0,4.078,3.047a3.155,3.155,0,0,1-.18,1.082,3.006,3.006,0,0,1-.508.895,3.219,3.219,0,0,1-.793.688,4.089,4.089,0,0,1-1.035.453v.031a1.606,1.606,0,0,1,.484.254,3.469,3.469,0,0,1,.453.41,5.722,5.722,0,0,1,.418.5q.2.27.363.527ZM87.688,7.688V10.8h1.094a1.813,1.813,0,0,0,1.3-.469,1.564,1.564,0,0,0,.5-1.18q0-1.469-1.758-1.469ZM102.328,17H95.609V5.8h6.461V7.852H98.133v2.492H101.8v2.047H98.133v2.563h4.2Zm1.281-.43v-2.5a4.8,4.8,0,0,0,1.477.855,4.746,4.746,0,0,0,1.609.285,3.569,3.569,0,0,0,.832-.086,1.949,1.949,0,0,0,.594-.238,1.039,1.039,0,0,0,.355-.359.9.9,0,0,0,.117-.449.971.971,0,0,0-.187-.586,2.018,2.018,0,0,0-.512-.477,5.347,5.347,0,0,0-.77-.422q-.445-.2-.961-.414a4.9,4.9,0,0,1-1.957-1.336,2.917,2.917,0,0,1-.645-1.906,3.036,3.036,0,0,1,.352-1.5,2.986,2.986,0,0,1,.957-1.035,4.291,4.291,0,0,1,1.4-.6,7.206,7.206,0,0,1,1.688-.191,10.15,10.15,0,0,1,1.551.105,6.1,6.1,0,0,1,1.246.324V8.375a3.768,3.768,0,0,0-.613-.344,4.859,4.859,0,0,0-.684-.246,5.214,5.214,0,0,0-.7-.145,4.949,4.949,0,0,0-.66-.047,3.443,3.443,0,0,0-.781.082,2,2,0,0,0-.594.23,1.147,1.147,0,0,0-.375.355.843.843,0,0,0-.133.465.888.888,0,0,0,.148.5,1.7,1.7,0,0,0,.422.422,4.477,4.477,0,0,0,.664.391q.391.191.883.395a9.838,9.838,0,0,1,1.207.6,4.291,4.291,0,0,1,.918.715,2.785,2.785,0,0,1,.586.91,3.216,3.216,0,0,1,.2,1.191,3.191,3.191,0,0,1-.355,1.574,2.886,2.886,0,0,1-.965,1.031,4.184,4.184,0,0,1-1.418.566,8.2,8.2,0,0,1-1.707.172,9.492,9.492,0,0,1-1.754-.156A5.3,5.3,0,0,1,103.609,16.57Z" transform="translate(-4964 -1198.91)" fill="#12263f"/>
    <path id="Trazado_1054824" data-name="Trazado 1054824" d="M17.643,12.148q0,5.047-4.7,5.047-4.563,0-4.562-4.93V5.8h2.531v6.5q0,2.719,2.125,2.719,2.086,0,2.086-2.625V5.8h2.523ZM30.159,17H27.612L22.995,9.961a10.179,10.179,0,0,1-.562-.93H22.4q.062.594.063,1.813V17H20.081V5.8H22.8l4.445,6.82q.3.461.563.914h.031a11.978,11.978,0,0,1-.062-1.539V5.8h2.383Zm5.086,0H32.721V5.8h2.523Zm2.547,0V5.8H41.76q5.969,0,5.969,5.461a5.522,5.522,0,0,1-1.629,4.18A6.007,6.007,0,0,1,41.76,17Zm2.523-9.148v7.1h1.25a3.378,3.378,0,0,0,2.574-.984,3.735,3.735,0,0,0,.934-2.68,3.388,3.388,0,0,0-.926-2.52,3.529,3.529,0,0,0-2.6-.918ZM59.2,17h-2.75l-.8-2.492H51.667L50.878,17H48.143L52.221,5.8h2.992Zm-4.125-4.43L53.87,8.8A4.907,4.907,0,0,1,53.682,7.8H53.62a4.273,4.273,0,0,1-.2.977l-1.219,3.8ZM60.6,17V5.8h3.969q5.969,0,5.969,5.461a5.522,5.522,0,0,1-1.629,4.18A6.007,6.007,0,0,1,64.565,17ZM63.12,7.852v7.1h1.25a3.378,3.378,0,0,0,2.574-.984,3.735,3.735,0,0,0,.934-2.68,3.388,3.388,0,0,0-.926-2.52,3.529,3.529,0,0,0-2.6-.918Z" transform="translate(-4105 -1198.91)" fill="#12263f"/>
    <path id="Trazado_1054825" data-name="Trazado 1054825" d="M10.477,16.25A8.063,8.063,0,0,1,6.4,17.2a5.9,5.9,0,0,1-4.262-1.5A5.443,5.443,0,0,1,.578,11.578a5.753,5.753,0,0,1,1.7-4.3A6.205,6.205,0,0,1,6.813,5.609,9.2,9.2,0,0,1,9.953,6.1V8.469a6.242,6.242,0,0,0-3.172-.75,3.405,3.405,0,0,0-2.559,1.02,3.745,3.745,0,0,0-.988,2.723,3.756,3.756,0,0,0,.887,2.672,3.125,3.125,0,0,0,2.395.945,3.333,3.333,0,0,0,1.438-.258V12.633H5.711V10.617h4.766ZM22.055,17h-2.9l-1.742-2.883q-.2-.328-.375-.586a3.255,3.255,0,0,0-.363-.441,1.445,1.445,0,0,0-.383-.281.972.972,0,0,0-.434-.1h-.68V17H12.656V5.8h4q4.078,0,4.078,3.047a3.155,3.155,0,0,1-.18,1.082,3.006,3.006,0,0,1-.508.895,3.219,3.219,0,0,1-.793.688,4.089,4.089,0,0,1-1.035.453v.031a1.606,1.606,0,0,1,.484.254,3.469,3.469,0,0,1,.453.41,5.722,5.722,0,0,1,.418.5q.2.27.363.527ZM15.18,7.688V10.8h1.094a1.813,1.813,0,0,0,1.3-.469,1.564,1.564,0,0,0,.5-1.18q0-1.469-1.758-1.469ZM32.953,17H30.2l-.8-2.492H25.422L24.633,17H21.9L25.977,5.8h2.992Zm-4.125-4.43L27.625,8.8A4.907,4.907,0,0,1,27.438,7.8h-.062a4.273,4.273,0,0,1-.2.977l-1.219,3.8ZM47.117,17H44.625V10.3q0-1.086.094-2.4h-.062A11.8,11.8,0,0,1,44.3,9.383L41.68,17H39.617L36.945,9.461A14.67,14.67,0,0,1,36.594,7.9h-.07q.1,1.656.1,2.906V17H34.352V5.8h3.7l2.289,6.641a9.35,9.35,0,0,1,.4,1.6h.047a16.127,16.127,0,0,1,.445-1.617L43.516,5.8h3.6Zm7.281.2a5.215,5.215,0,0,1-3.922-1.566,5.624,5.624,0,0,1-1.516-4.082A6.026,6.026,0,0,1,50.5,7.25a5.328,5.328,0,0,1,4.078-1.641,5.085,5.085,0,0,1,3.879,1.57,5.79,5.79,0,0,1,1.48,4.141A5.929,5.929,0,0,1,58.4,15.578,5.269,5.269,0,0,1,54.4,17.2Zm.109-9.414a2.54,2.54,0,0,0-2.109,1,4.153,4.153,0,0,0-.781,2.637,4.077,4.077,0,0,0,.781,2.633,2.7,2.7,0,0,0,4.117.027,4.032,4.032,0,0,0,.766-2.613,4.369,4.369,0,0,0-.742-2.711A2.42,2.42,0,0,0,54.508,7.781Z" transform="translate(-3952.023 -1198.91)" fill="#12263f"/>
    <path id="Trazado_1054826" data-name="Trazado 1054826" d="M1.281,17V5.8H5.25q5.969,0,5.969,5.461a5.522,5.522,0,0,1-1.629,4.18A6.007,6.007,0,0,1,5.25,17ZM3.8,7.852v7.1h1.25a3.378,3.378,0,0,0,2.574-.984,3.735,3.735,0,0,0,.934-2.68,3.388,3.388,0,0,0-.926-2.52,3.529,3.529,0,0,0-2.6-.918ZM15.6,17H13.078V5.8H15.6Zm2.031-.43v-2.5a4.8,4.8,0,0,0,1.477.855,4.746,4.746,0,0,0,1.609.285,3.569,3.569,0,0,0,.832-.086,1.949,1.949,0,0,0,.594-.238,1.039,1.039,0,0,0,.355-.359.9.9,0,0,0,.117-.449.971.971,0,0,0-.187-.586,2.018,2.018,0,0,0-.512-.477,5.347,5.347,0,0,0-.77-.422q-.445-.2-.961-.414a4.9,4.9,0,0,1-1.957-1.336,2.917,2.917,0,0,1-.645-1.906,3.036,3.036,0,0,1,.352-1.5A2.986,2.986,0,0,1,18.895,6.4a4.291,4.291,0,0,1,1.4-.6,7.206,7.206,0,0,1,1.688-.191,10.15,10.15,0,0,1,1.551.105,6.1,6.1,0,0,1,1.246.324V8.375a3.768,3.768,0,0,0-.613-.344,4.859,4.859,0,0,0-.684-.246,5.214,5.214,0,0,0-.7-.145,4.949,4.949,0,0,0-.66-.047,3.443,3.443,0,0,0-.781.082,2,2,0,0,0-.594.23,1.147,1.147,0,0,0-.375.355.843.843,0,0,0-.133.465.888.888,0,0,0,.148.5,1.7,1.7,0,0,0,.422.422,4.477,4.477,0,0,0,.664.391q.391.191.883.395a9.837,9.837,0,0,1,1.207.6,4.291,4.291,0,0,1,.918.715,2.785,2.785,0,0,1,.586.91,3.216,3.216,0,0,1,.2,1.191,3.191,3.191,0,0,1-.355,1.574,2.886,2.886,0,0,1-.965,1.031,4.184,4.184,0,0,1-1.418.566,8.2,8.2,0,0,1-1.707.172,9.492,9.492,0,0,1-1.754-.156A5.3,5.3,0,0,1,17.633,16.57ZM34.984,7.852h-3.2V17H29.258V7.852h-3.18V5.8h8.906ZM45.891,17h-2.9L41.25,14.117q-.2-.328-.375-.586a3.255,3.255,0,0,0-.363-.441,1.445,1.445,0,0,0-.383-.281.972.972,0,0,0-.434-.1h-.68V17H36.492V5.8h4q4.078,0,4.078,3.047a3.155,3.155,0,0,1-.18,1.082,3.006,3.006,0,0,1-.508.895,3.219,3.219,0,0,1-.793.688,4.089,4.089,0,0,1-1.035.453v.031a1.606,1.606,0,0,1,.484.254,3.468,3.468,0,0,1,.453.41,5.723,5.723,0,0,1,.418.5q.2.27.363.527ZM39.016,7.688V10.8h1.094a1.813,1.813,0,0,0,1.3-.469,1.564,1.564,0,0,0,.5-1.18q0-1.469-1.758-1.469ZM49.461,17H46.938V5.8h2.523Zm2.547,0V5.8h4.078a5.093,5.093,0,0,1,2.883.688,2.211,2.211,0,0,1,1.008,1.938,2.293,2.293,0,0,1-.613,1.586,3.222,3.222,0,0,1-1.566.945v.031a3.1,3.1,0,0,1,1.91.883,2.469,2.469,0,0,1,.715,1.789,2.99,2.99,0,0,1-1.1,2.441,4.61,4.61,0,0,1-3.008.9Zm2.523-9.344v2.656h1.109a1.849,1.849,0,0,0,1.23-.379,1.291,1.291,0,0,0,.449-1.043q0-1.234-1.844-1.234Zm0,4.531v2.953H55.9a2.1,2.1,0,0,0,1.371-.406,1.357,1.357,0,0,0,.5-1.109,1.266,1.266,0,0,0-.488-1.055,2.16,2.16,0,0,0-1.363-.383ZM71.4,12.148q0,5.047-4.7,5.047-4.563,0-4.562-4.93V5.8h2.531v6.5q0,2.719,2.125,2.719,2.086,0,2.086-2.625V5.8H71.4ZM76.359,17H73.836V5.8h2.523Zm2.547,0V5.8h3.969q5.969,0,5.969,5.461a5.522,5.522,0,0,1-1.629,4.18A6.007,6.007,0,0,1,82.875,17ZM81.43,7.852v7.1h1.25a3.378,3.378,0,0,0,2.574-.984,3.735,3.735,0,0,0,.934-2.68,3.388,3.388,0,0,0-.926-2.52,3.529,3.529,0,0,0-2.6-.918ZM95.438,17.2a5.215,5.215,0,0,1-3.922-1.566A5.624,5.624,0,0,1,90,11.547a6.026,6.026,0,0,1,1.539-4.3,5.328,5.328,0,0,1,4.078-1.641A5.085,5.085,0,0,1,99.5,7.18a5.79,5.79,0,0,1,1.48,4.141,5.929,5.929,0,0,1-1.535,4.258A5.269,5.269,0,0,1,95.438,17.2Zm.109-9.414a2.54,2.54,0,0,0-2.109,1,4.153,4.153,0,0,0-.781,2.637,4.077,4.077,0,0,0,.781,2.633,2.7,2.7,0,0,0,4.117.027,4.032,4.032,0,0,0,.766-2.613,4.369,4.369,0,0,0-.742-2.711A2.42,2.42,0,0,0,95.547,7.781ZM112.234,17h-2.9l-1.742-2.883q-.2-.328-.375-.586a3.255,3.255,0,0,0-.363-.441,1.445,1.445,0,0,0-.383-.281.972.972,0,0,0-.434-.1h-.68V17h-2.523V5.8h4q4.078,0,4.078,3.047a3.155,3.155,0,0,1-.18,1.082,3.006,3.006,0,0,1-.508.895,3.219,3.219,0,0,1-.793.688,4.089,4.089,0,0,1-1.035.453v.031a1.606,1.606,0,0,1,.484.254,3.469,3.469,0,0,1,.453.41,5.722,5.722,0,0,1,.418.5q.2.27.363.527Zm-6.875-9.312V10.8h1.094a1.813,1.813,0,0,0,1.3-.469,1.564,1.564,0,0,0,.5-1.18q0-1.469-1.758-1.469ZM123.133,17h-2.75l-.8-2.492H115.6L114.813,17h-2.734l4.078-11.2h2.992Zm-4.125-4.43L117.8,8.8a4.908,4.908,0,0,1-.187-1.008h-.062a4.273,4.273,0,0,1-.2.977l-1.219,3.8Zm17.8-4.719h-3.2V17h-2.531V7.852h-3.18V5.8h8.906Zm5.648,9.344a5.215,5.215,0,0,1-3.922-1.566,5.624,5.624,0,0,1-1.516-4.082,6.026,6.026,0,0,1,1.539-4.3,5.328,5.328,0,0,1,4.078-1.641,5.085,5.085,0,0,1,3.879,1.57A5.789,5.789,0,0,1,148,11.32a5.929,5.929,0,0,1-1.535,4.258A5.269,5.269,0,0,1,142.461,17.2Zm.109-9.414a2.54,2.54,0,0,0-2.109,1,4.153,4.153,0,0,0-.781,2.637,4.077,4.077,0,0,0,.781,2.633,2.7,2.7,0,0,0,4.117.027,4.032,4.032,0,0,0,.766-2.613A4.369,4.369,0,0,0,144.6,8.75,2.42,2.42,0,0,0,142.57,7.781Zm14.516.07h-3.2V17h-2.531V7.852h-3.18V5.8h8.906ZM167.328,17h-2.75l-.8-2.492H159.8L159.008,17h-2.734l4.078-11.2h2.992ZM163.2,12.57,162,8.8a4.906,4.906,0,0,1-.187-1.008h-.062a4.273,4.273,0,0,1-.2.977l-1.219,3.8ZM175.4,17h-6.672V5.8h2.523v9.156H175.4ZM7.953,41H1.281V29.8H3.8v9.156H7.953Zm8.32-9.148h-3.2V41H10.547V31.852H7.367V29.8h8.906ZM17.781,41V29.8H21.75q5.969,0,5.969,5.461a5.522,5.522,0,0,1-1.629,4.18A6.007,6.007,0,0,1,21.75,41ZM20.3,31.852v7.1h1.25a3.378,3.378,0,0,0,2.574-.984,3.735,3.735,0,0,0,.934-2.68,3.388,3.388,0,0,0-.926-2.52,3.529,3.529,0,0,0-2.6-.918ZM39.188,41h-2.75l-.8-2.492H31.656L30.867,41H28.133l4.078-11.2H35.2Zm-4.125-4.43-1.2-3.766a4.907,4.907,0,0,1-.187-1.008h-.062a4.273,4.273,0,0,1-.2.977L32.2,36.57Z" transform="translate(-4668.585 -1209.305)" fill="#12263f"/>
    <path id="Trazado_1054828" data-name="Trazado 1054828" d="M.159,0,0,82.363" transform="translate(-4683.085 -1305.91)" fill="none" stroke="#e1e1e1" stroke-width="1"/>
    <path id="Trazado_1054829" data-name="Trazado 1054829" d="M0,0V81.363" transform="translate(-4559.926 -1305.91)" fill="none" stroke="#e1e1e1" stroke-width="1"/>
    <path id="Trazado_1054820" data-name="Trazado 1054820" d="M0,0,.549,154.363" transform="translate(-4337.975 -1305.91)" fill="none" stroke="#e1e1e1" stroke-width="1"/>
    <path id="Trazado_1054821" data-name="Trazado 1054821" d="M.086,0,0,154.363" transform="translate(-4131.988 -1305.91)" fill="none" stroke="#e1e1e1" stroke-width="1"/>
    <path id="Trazado_1054822" data-name="Trazado 1054822" d="M0,0,.6,155.363" transform="translate(-4003.681 -1305.91)" fill="none" stroke="#e1e1e1" stroke-width="1"/>
    <path id="Trazado_1054814" data-name="Trazado 1054814" d="M1159,0H0" transform="translate(-4986.034 -1109.547)" fill="none" stroke="#e1e1e1" stroke-width="1"/>
    <path id="Trazado_1054815" data-name="Trazado 1054815" d="M0,0H1159.551V44.895H0Z" transform="translate(-4986.085 -1153.121)" fill="#fd9826"/>
    <path id="Trazado_1054804" data-name="Trazado 1054804" d="M0,0H1159.551V44.895H0Z" transform="translate(-4986.31 -1108.227)" fill="#e8e8e8"/>
    <path id="Trazado_1054801" data-name="Trazado 1054801" d="M0,0H1159.551V44.895H0Z" transform="translate(-4986.759 -1010.18)" fill="#f6f6f6"/>
    <path id="Trazado_1054788" data-name="Trazado 1054788" d="M0,0H1159.551V44.895H0Z" transform="translate(-4986.759 -920.391)" fill="#f6f6f6"/>
    <path id="Trazado_1054816" data-name="Trazado 1054816" d="M12.984,17H6.266V5.8h6.461V7.852H8.789v2.492h3.664v2.047H8.789v2.563h4.2Zm11.875,0H22.313L17.7,9.961a10.179,10.179,0,0,1-.562-.93H17.1q.062.594.063,1.813V17H14.781V5.8H17.5l4.445,6.82q.3.461.563.914h.031a11.978,11.978,0,0,1-.062-1.539V5.8h2.383Zm10.43-9.148h-3.2V17H29.563V7.852h-3.18V5.8h8.906ZM46.2,17H43.3l-1.742-2.883q-.2-.328-.375-.586a3.255,3.255,0,0,0-.363-.441,1.445,1.445,0,0,0-.383-.281.972.972,0,0,0-.434-.1h-.68V17H36.8V5.8h4q4.078,0,4.078,3.047a3.155,3.155,0,0,1-.18,1.082,3.006,3.006,0,0,1-.508.895,3.219,3.219,0,0,1-.793.688,4.089,4.089,0,0,1-1.035.453v.031a1.606,1.606,0,0,1,.484.254,3.468,3.468,0,0,1,.453.41,5.723,5.723,0,0,1,.418.5q.2.27.363.527ZM39.32,7.688V10.8h1.094a1.813,1.813,0,0,0,1.3-.469,1.564,1.564,0,0,0,.5-1.18q0-1.469-1.758-1.469ZM57.094,17h-2.75l-.8-2.492H49.563L48.773,17H46.039L50.117,5.8h2.992Zm-4.125-4.43L51.766,8.8A4.907,4.907,0,0,1,51.578,7.8h-.062a4.273,4.273,0,0,1-.2.977L50.1,12.57ZM58.492,17V5.8h3.969q5.969,0,5.969,5.461a5.522,5.522,0,0,1-1.629,4.18A6.007,6.007,0,0,1,62.461,17Zm2.523-9.148v7.1h1.25a3.378,3.378,0,0,0,2.574-.984,3.735,3.735,0,0,0,.934-2.68,3.388,3.388,0,0,0-.926-2.52,3.529,3.529,0,0,0-2.6-.918ZM79.9,17h-2.75l-.8-2.492H72.367L71.578,17H68.844L72.922,5.8h2.992Zm-4.125-4.43L74.57,8.8A4.908,4.908,0,0,1,74.383,7.8H74.32a4.273,4.273,0,0,1-.2.977l-1.219,3.8Z" transform="translate(-4661.584 -1140)" fill="#12263f"/>
    <path id="Trazado_1054817" data-name="Trazado 1054817" d="M15.129,16.57v-2.5a4.8,4.8,0,0,0,1.477.855,4.746,4.746,0,0,0,1.609.285,3.569,3.569,0,0,0,.832-.086,1.949,1.949,0,0,0,.594-.238A1.039,1.039,0,0,0,20,14.527a.9.9,0,0,0,.117-.449.971.971,0,0,0-.187-.586,2.018,2.018,0,0,0-.512-.477,5.347,5.347,0,0,0-.77-.422q-.445-.2-.961-.414a4.9,4.9,0,0,1-1.957-1.336,2.917,2.917,0,0,1-.645-1.906,3.036,3.036,0,0,1,.352-1.5A2.986,2.986,0,0,1,16.391,6.4a4.291,4.291,0,0,1,1.4-.6,7.206,7.206,0,0,1,1.688-.191,10.15,10.15,0,0,1,1.551.105,6.1,6.1,0,0,1,1.246.324V8.375a3.768,3.768,0,0,0-.613-.344,4.859,4.859,0,0,0-.684-.246,5.214,5.214,0,0,0-.7-.145,4.949,4.949,0,0,0-.66-.047,3.443,3.443,0,0,0-.781.082,2,2,0,0,0-.594.23,1.147,1.147,0,0,0-.375.355.843.843,0,0,0-.133.465.888.888,0,0,0,.148.5,1.7,1.7,0,0,0,.422.422,4.477,4.477,0,0,0,.664.391q.391.191.883.395a9.837,9.837,0,0,1,1.207.6,4.291,4.291,0,0,1,.918.715,2.785,2.785,0,0,1,.586.91,3.216,3.216,0,0,1,.2,1.191,3.191,3.191,0,0,1-.355,1.574,2.886,2.886,0,0,1-.965,1.031,4.184,4.184,0,0,1-1.418.566,8.2,8.2,0,0,1-1.707.172,9.492,9.492,0,0,1-1.754-.156A5.3,5.3,0,0,1,15.129,16.57ZM34.465,17h-2.75l-.8-2.492H26.934L26.145,17H23.41L27.488,5.8H30.48ZM30.34,12.57,29.137,8.8A4.907,4.907,0,0,1,28.949,7.8h-.062a4.273,4.273,0,0,1-.2.977l-1.219,3.8ZM42.535,17H35.863V5.8h2.523v9.156h4.148Zm4.031,0H44.043V5.8h2.523Zm2.547,0V5.8h3.969q5.969,0,5.969,5.461a5.522,5.522,0,0,1-1.629,4.18A6.007,6.007,0,0,1,53.082,17Zm2.523-9.148v7.1h1.25a3.378,3.378,0,0,0,2.574-.984,3.735,3.735,0,0,0,.934-2.68,3.388,3.388,0,0,0-.926-2.52,3.529,3.529,0,0,0-2.6-.918ZM70.52,17H67.77l-.8-2.492H62.988L62.2,17H59.465L63.543,5.8h2.992Zm-4.125-4.43L65.191,8.8A4.908,4.908,0,0,1,65,7.8h-.062a4.273,4.273,0,0,1-.2.977l-1.219,3.8Z" transform="translate(-4380.475 -1140)" fill="#12263f"/>
    <path id="Trazado_1054818" data-name="Trazado 1054818" d="M17.1,16.57v-2.5a4.8,4.8,0,0,0,1.477.855,4.746,4.746,0,0,0,1.609.285,3.569,3.569,0,0,0,.832-.086,1.949,1.949,0,0,0,.594-.238,1.039,1.039,0,0,0,.355-.359.9.9,0,0,0,.117-.449.971.971,0,0,0-.187-.586,2.018,2.018,0,0,0-.512-.477,5.347,5.347,0,0,0-.77-.422q-.445-.2-.961-.414A4.9,4.9,0,0,1,17.7,10.844a2.917,2.917,0,0,1-.645-1.906,3.036,3.036,0,0,1,.352-1.5A2.986,2.986,0,0,1,18.363,6.4a4.291,4.291,0,0,1,1.4-.6,7.206,7.206,0,0,1,1.688-.191A10.15,10.15,0,0,1,23,5.715a6.1,6.1,0,0,1,1.246.324V8.375a3.768,3.768,0,0,0-.613-.344,4.859,4.859,0,0,0-.684-.246,5.214,5.214,0,0,0-.7-.145,4.949,4.949,0,0,0-.66-.047,3.443,3.443,0,0,0-.781.082,2,2,0,0,0-.594.23,1.147,1.147,0,0,0-.375.355.843.843,0,0,0-.133.465.888.888,0,0,0,.148.5,1.7,1.7,0,0,0,.422.422,4.477,4.477,0,0,0,.664.391q.391.191.883.395a9.837,9.837,0,0,1,1.207.6,4.291,4.291,0,0,1,.918.715,2.785,2.785,0,0,1,.586.91,3.216,3.216,0,0,1,.2,1.191,3.191,3.191,0,0,1-.355,1.574,2.886,2.886,0,0,1-.965,1.031A4.184,4.184,0,0,1,22,17.023,8.2,8.2,0,0,1,20.3,17.2a9.492,9.492,0,0,1-1.754-.156A5.3,5.3,0,0,1,17.1,16.57ZM36.438,17h-2.75l-.8-2.492H28.906L28.117,17H25.383L29.461,5.8h2.992Zm-4.125-4.43L31.109,8.8A4.907,4.907,0,0,1,30.922,7.8h-.062a4.273,4.273,0,0,1-.2.977l-1.219,3.8ZM44.508,17H37.836V5.8h2.523v9.156h4.148Zm1.508,0V5.8h3.969q5.969,0,5.969,5.461a5.522,5.522,0,0,1-1.629,4.18A6.007,6.007,0,0,1,49.984,17Zm2.523-9.148v7.1h1.25a3.378,3.378,0,0,0,2.574-.984,3.735,3.735,0,0,0,.934-2.68,3.388,3.388,0,0,0-.926-2.52,3.529,3.529,0,0,0-2.6-.918ZM62.547,17.2a5.215,5.215,0,0,1-3.922-1.566,5.624,5.624,0,0,1-1.516-4.082,6.026,6.026,0,0,1,1.539-4.3,5.328,5.328,0,0,1,4.078-1.641,5.085,5.085,0,0,1,3.879,1.57,5.79,5.79,0,0,1,1.48,4.141,5.929,5.929,0,0,1-1.535,4.258A5.269,5.269,0,0,1,62.547,17.2Zm.109-9.414a2.54,2.54,0,0,0-2.109,1,4.153,4.153,0,0,0-.781,2.637,4.077,4.077,0,0,0,.781,2.633,2.7,2.7,0,0,0,4.117.027,4.032,4.032,0,0,0,.766-2.613,4.369,4.369,0,0,0-.742-2.711A2.42,2.42,0,0,0,62.656,7.781Z" transform="translate(-4085.023 -1140)" fill="#12263f"/>
    <path id="Trazado_1054802" data-name="Trazado 1054802" d="M0,0V430.083" transform="translate(-4817.243 -1305.91)" fill="none" stroke="#e1e1e1" stroke-width="1"/>
    <path id="Trazado_1054800" data-name="Trazado 1054800" d="M0,0V232.918" transform="translate(-4683.085 -1108.547)" fill="none" stroke="#e1e1e1" stroke-width="1"/>
    <path id="Trazado_1054791" data-name="Trazado 1054791" d="M0,0V275" transform="translate(-4437.085 -1150.5)" fill="none" stroke="#e1e1e1" stroke-width="1"/>
    <path id="Trazado_1054792" data-name="Trazado 1054792" d="M1.769,0,0,430.282" transform="translate(-4239.085 -1305.91)" fill="none" stroke="#e1e1e1" stroke-width="1"/>
    <path id="Trazado_1054805" data-name="Trazado 1054805" d="M43.264,7.852H39.311V10.6h3.633v2.047H39.311V17H36.788V5.8h6.477ZM51.827,17H45.108V5.8h6.461V7.852H47.632v2.492H51.3v2.047H47.632v2.563h4.2Zm9.828-.4a7.388,7.388,0,0,1-3.2.594A5.4,5.4,0,0,1,54.4,15.68a5.54,5.54,0,0,1-1.477-4.039,5.919,5.919,0,0,1,1.66-4.359,5.807,5.807,0,0,1,4.309-1.672,8.058,8.058,0,0,1,2.766.414v2.43a4.9,4.9,0,0,0-2.562-.672,3.4,3.4,0,0,0-2.547.992,3.682,3.682,0,0,0-.969,2.688,3.611,3.611,0,0,0,.914,2.59,3.229,3.229,0,0,0,2.461.965,5.249,5.249,0,0,0,2.7-.719ZM73.3,17H70.772V12.438H66.132V17H63.608V5.8h2.523v4.469h4.641V5.8H73.3Zm12.414,0h-2.75l-.8-2.492H78.186L77.4,17H74.663L78.741,5.8h2.992Zm-4.125-4.43L80.389,8.8A4.908,4.908,0,0,1,80.2,7.8h-.062a4.273,4.273,0,0,1-.2.977l-1.219,3.8Z" transform="translate(-4964 -1094)" fill="#12263f"/>
    <path id="Trazado_1054806" data-name="Trazado 1054806" d="M9.737,17V5.8h3.969q5.969,0,5.969,5.461a5.522,5.522,0,0,1-1.629,4.18A6.007,6.007,0,0,1,13.706,17ZM12.26,7.852v7.1h1.25a3.378,3.378,0,0,0,2.574-.984,3.735,3.735,0,0,0,.934-2.68,3.388,3.388,0,0,0-.926-2.52,3.529,3.529,0,0,0-2.6-.918ZM28.253,17H21.534V5.8h6.461V7.852H24.057v2.492h3.664v2.047H24.057v2.563h4.2Zm1.281-.43v-2.5a4.8,4.8,0,0,0,1.477.855,4.746,4.746,0,0,0,1.609.285,3.569,3.569,0,0,0,.832-.086,1.949,1.949,0,0,0,.594-.238,1.039,1.039,0,0,0,.355-.359.9.9,0,0,0,.117-.449.971.971,0,0,0-.187-.586,2.018,2.018,0,0,0-.512-.477,5.347,5.347,0,0,0-.77-.422q-.445-.2-.961-.414a4.9,4.9,0,0,1-1.957-1.336,2.917,2.917,0,0,1-.645-1.906,3.036,3.036,0,0,1,.352-1.5A2.986,2.986,0,0,1,30.8,6.4a4.291,4.291,0,0,1,1.4-.6,7.206,7.206,0,0,1,1.688-.191,10.15,10.15,0,0,1,1.551.105,6.1,6.1,0,0,1,1.246.324V8.375a3.768,3.768,0,0,0-.613-.344,4.859,4.859,0,0,0-.684-.246,5.214,5.214,0,0,0-.7-.145,4.949,4.949,0,0,0-.66-.047,3.443,3.443,0,0,0-.781.082,2,2,0,0,0-.594.23,1.147,1.147,0,0,0-.375.355.843.843,0,0,0-.133.465.888.888,0,0,0,.148.5,1.7,1.7,0,0,0,.422.422,4.477,4.477,0,0,0,.664.391q.391.191.883.395a9.837,9.837,0,0,1,1.207.6,4.291,4.291,0,0,1,.918.715,2.785,2.785,0,0,1,.586.91,3.216,3.216,0,0,1,.2,1.191,3.191,3.191,0,0,1-.355,1.574,2.886,2.886,0,0,1-.965,1.031,4.184,4.184,0,0,1-1.418.566,8.2,8.2,0,0,1-1.707.172,9.492,9.492,0,0,1-1.754-.156A5.3,5.3,0,0,1,29.534,16.57ZM47.05,16.6a7.388,7.388,0,0,1-3.2.594,5.4,5.4,0,0,1-4.055-1.516,5.54,5.54,0,0,1-1.477-4.039,5.919,5.919,0,0,1,1.66-4.359,5.807,5.807,0,0,1,4.309-1.672,8.058,8.058,0,0,1,2.766.414v2.43a4.9,4.9,0,0,0-2.562-.672,3.4,3.4,0,0,0-2.547.992,3.682,3.682,0,0,0-.969,2.688,3.611,3.611,0,0,0,.914,2.59,3.229,3.229,0,0,0,2.461.965,5.249,5.249,0,0,0,2.7-.719ZM58.4,17H55.5L53.76,14.117q-.2-.328-.375-.586a3.255,3.255,0,0,0-.363-.441,1.445,1.445,0,0,0-.383-.281.972.972,0,0,0-.434-.1h-.68V17H49V5.8h4q4.078,0,4.078,3.047a3.155,3.155,0,0,1-.18,1.082,3.006,3.006,0,0,1-.508.895,3.219,3.219,0,0,1-.793.688,4.089,4.089,0,0,1-1.035.453v.031a1.606,1.606,0,0,1,.484.254,3.468,3.468,0,0,1,.453.41,5.723,5.723,0,0,1,.418.5q.2.27.363.527ZM51.526,7.688V10.8H52.62a1.813,1.813,0,0,0,1.3-.469,1.564,1.564,0,0,0,.5-1.18q0-1.469-1.758-1.469ZM61.971,17H59.448V5.8h2.523Zm5.07-3.859V17H64.518V5.8h3.953q4.234,0,4.234,3.57a3.426,3.426,0,0,1-1.215,2.73,4.813,4.813,0,0,1-3.246,1.043Zm0-5.406v3.492h.992q2.016,0,2.016-1.766,0-1.727-2.016-1.727ZM82.378,16.6a7.388,7.388,0,0,1-3.2.594A5.4,5.4,0,0,1,75.12,15.68a5.54,5.54,0,0,1-1.477-4.039A5.919,5.919,0,0,1,75.3,7.281a5.807,5.807,0,0,1,4.309-1.672,8.058,8.058,0,0,1,2.766.414v2.43a4.9,4.9,0,0,0-2.562-.672,3.4,3.4,0,0,0-2.547.992,3.682,3.682,0,0,0-.969,2.688,3.611,3.611,0,0,0,.914,2.59,3.229,3.229,0,0,0,2.461.965,5.249,5.249,0,0,0,2.7-.719Zm4.477.4H84.331V5.8h2.523Zm7.281.2a5.215,5.215,0,0,1-3.922-1.566A5.624,5.624,0,0,1,88.7,11.547a6.026,6.026,0,0,1,1.539-4.3,5.328,5.328,0,0,1,4.078-1.641,5.085,5.085,0,0,1,3.879,1.57,5.79,5.79,0,0,1,1.48,4.141,5.929,5.929,0,0,1-1.535,4.258A5.269,5.269,0,0,1,94.135,17.2Zm.109-9.414a2.54,2.54,0,0,0-2.109,1,4.153,4.153,0,0,0-.781,2.637,4.077,4.077,0,0,0,.781,2.633,2.7,2.7,0,0,0,4.117.027,4.032,4.032,0,0,0,.766-2.613,4.369,4.369,0,0,0-.742-2.711A2.42,2.42,0,0,0,94.245,7.781Zm2.547-5.547L94.346,4.758H92.565L94.6,2.234ZM111.6,17h-2.547L104.44,9.961a10.178,10.178,0,0,1-.562-.93h-.031q.062.594.063,1.813V17h-2.383V5.8h2.719l4.445,6.82q.3.461.563.914h.031a11.979,11.979,0,0,1-.062-1.539V5.8H111.6Z" transform="translate(-4811 -1094)" fill="#12263f"/>
    <path id="Trazado_1054807" data-name="Trazado 1054807" d="M28.522,16.6a7.388,7.388,0,0,1-3.2.594,5.4,5.4,0,0,1-4.055-1.516,5.54,5.54,0,0,1-1.477-4.039,5.919,5.919,0,0,1,1.66-4.359,5.807,5.807,0,0,1,4.309-1.672,8.058,8.058,0,0,1,2.766.414v2.43a4.9,4.9,0,0,0-2.562-.672,3.4,3.4,0,0,0-2.547.992,3.682,3.682,0,0,0-.969,2.688,3.611,3.611,0,0,0,.914,2.59,3.229,3.229,0,0,0,2.461.965,5.249,5.249,0,0,0,2.7-.719Zm11.8.4h-2.75l-.8-2.492H32.8L32.007,17H29.272L33.35,5.8h2.992ZM36.2,12.57,35,8.8A4.907,4.907,0,0,1,34.811,7.8h-.062a4.273,4.273,0,0,1-.2.977l-1.219,3.8ZM51.8,17H49.257L44.639,9.961a10.18,10.18,0,0,1-.562-.93h-.031q.063.594.063,1.813V17H41.725V5.8h2.719l4.445,6.82q.3.461.563.914h.031a11.978,11.978,0,0,1-.062-1.539V5.8H51.8Zm10.43-9.148h-3.2V17H56.507V7.852h-3.18V5.8h8.906ZM66.264,17H63.741V5.8h2.523Zm2.547,0V5.8H72.78q5.969,0,5.969,5.461a5.522,5.522,0,0,1-1.629,4.18A6.007,6.007,0,0,1,72.78,17Zm2.523-9.148v7.1h1.25a3.378,3.378,0,0,0,2.574-.984,3.735,3.735,0,0,0,.934-2.68,3.388,3.388,0,0,0-.926-2.52,3.529,3.529,0,0,0-2.6-.918ZM90.218,17h-2.75l-.8-2.492H82.686L81.9,17H79.163L83.241,5.8h2.992Zm-4.125-4.43L84.889,8.8A4.908,4.908,0,0,1,84.7,7.8h-.062a4.273,4.273,0,0,1-.2.977l-1.219,3.8ZM91.616,17V5.8h3.969q5.969,0,5.969,5.461a5.522,5.522,0,0,1-1.629,4.18A6.007,6.007,0,0,1,95.585,17Zm2.523-9.148v7.1h1.25a3.378,3.378,0,0,0,2.574-.984,3.735,3.735,0,0,0,.934-2.68,3.388,3.388,0,0,0-.926-2.52,3.529,3.529,0,0,0-2.6-.918Z" transform="translate(-4680 -1094)" fill="#12263f"/>
    <path id="Trazado_1054808" data-name="Trazado 1054808" d="M24.383,5.8,20.523,17H17.664L13.852,5.8H16.57l2.336,7.8a5.584,5.584,0,0,1,.227,1.117h.047a6.315,6.315,0,0,1,.242-1.148L21.742,5.8ZM34.75,17H32l-.8-2.492H27.219L26.43,17H23.7L27.773,5.8h2.992Zm-4.125-4.43L29.422,8.8A4.907,4.907,0,0,1,29.234,7.8h-.062a4.273,4.273,0,0,1-.2.977l-1.219,3.8ZM42.82,17H36.148V5.8h2.523v9.156H42.82Zm5.844.2a5.215,5.215,0,0,1-3.922-1.566,5.624,5.624,0,0,1-1.516-4.082,6.026,6.026,0,0,1,1.539-4.3,5.328,5.328,0,0,1,4.078-1.641,5.085,5.085,0,0,1,3.879,1.57A5.79,5.79,0,0,1,54.2,11.32a5.929,5.929,0,0,1-1.535,4.258A5.269,5.269,0,0,1,48.664,17.2Zm.109-9.414a2.54,2.54,0,0,0-2.109,1,4.153,4.153,0,0,0-.781,2.637,4.077,4.077,0,0,0,.781,2.633,2.7,2.7,0,0,0,4.117.027,4.032,4.032,0,0,0,.766-2.613A4.369,4.369,0,0,0,50.8,8.75,2.42,2.42,0,0,0,48.773,7.781ZM65.461,17h-2.9L60.82,14.117q-.2-.328-.375-.586a3.255,3.255,0,0,0-.363-.441,1.445,1.445,0,0,0-.383-.281.972.972,0,0,0-.434-.1h-.68V17H56.063V5.8h4q4.078,0,4.078,3.047a3.155,3.155,0,0,1-.18,1.082,3.006,3.006,0,0,1-.508.895,3.219,3.219,0,0,1-.793.688,4.089,4.089,0,0,1-1.035.453v.031a1.606,1.606,0,0,1,.484.254,3.468,3.468,0,0,1,.453.41,5.723,5.723,0,0,1,.418.5q.2.27.363.527ZM58.586,7.688V10.8H59.68a1.813,1.813,0,0,0,1.3-.469,1.564,1.564,0,0,0,.5-1.18q0-1.469-1.758-1.469ZM26.875,25.852h-3.2V35H21.148V25.852h-3.18V23.8h8.906ZM32.523,35.2A5.215,5.215,0,0,1,28.6,33.629a5.624,5.624,0,0,1-1.516-4.082,6.026,6.026,0,0,1,1.539-4.3A5.328,5.328,0,0,1,32.7,23.609a5.085,5.085,0,0,1,3.879,1.57,5.79,5.79,0,0,1,1.48,4.141,5.929,5.929,0,0,1-1.535,4.258A5.269,5.269,0,0,1,32.523,35.2Zm.109-9.414a2.54,2.54,0,0,0-2.109,1,4.153,4.153,0,0,0-.781,2.637,4.077,4.077,0,0,0,.781,2.633,2.7,2.7,0,0,0,4.117.027,4.032,4.032,0,0,0,.766-2.613,4.369,4.369,0,0,0-.742-2.711A2.42,2.42,0,0,0,32.633,25.781Zm14.516.07h-3.2V35H41.422V25.852h-3.18V23.8h8.906ZM57.391,35h-2.75l-.8-2.492H49.859L49.07,35H46.336l4.078-11.2h2.992Zm-4.125-4.43-1.2-3.766a4.907,4.907,0,0,1-.187-1.008h-.062a4.273,4.273,0,0,1-.2.977L50.4,30.57ZM65.461,35H58.789V23.8h2.523v9.156h4.148Z" transform="translate(-4537 -1103)" fill="#12263f"/>
    <path id="Trazado_1054809" data-name="Trazado 1054809" d="M22.053,5.8,18.194,17H15.335L11.522,5.8h2.719l2.336,7.8a5.584,5.584,0,0,1,.227,1.117h.047a6.315,6.315,0,0,1,.242-1.148L19.413,5.8ZM32.421,17h-2.75l-.8-2.492H24.889L24.1,17H21.366L25.444,5.8h2.992ZM28.3,12.57,27.093,8.8A4.907,4.907,0,0,1,26.905,7.8h-.062a4.273,4.273,0,0,1-.2.977l-1.219,3.8ZM40.491,17H33.819V5.8h2.523v9.156h4.148Zm5.844.2a5.215,5.215,0,0,1-3.922-1.566A5.624,5.624,0,0,1,40.9,11.547a6.026,6.026,0,0,1,1.539-4.3,5.328,5.328,0,0,1,4.078-1.641,5.085,5.085,0,0,1,3.879,1.57,5.79,5.79,0,0,1,1.48,4.141,5.929,5.929,0,0,1-1.535,4.258A5.269,5.269,0,0,1,46.335,17.2Zm.109-9.414a2.54,2.54,0,0,0-2.109,1,4.153,4.153,0,0,0-.781,2.637,4.077,4.077,0,0,0,.781,2.633,2.7,2.7,0,0,0,4.117.027,4.032,4.032,0,0,0,.766-2.613,4.369,4.369,0,0,0-.742-2.711A2.42,2.42,0,0,0,46.444,7.781ZM63.132,17h-2.9l-1.742-2.883q-.2-.328-.375-.586a3.255,3.255,0,0,0-.363-.441,1.445,1.445,0,0,0-.383-.281.972.972,0,0,0-.434-.1h-.68V17H53.733V5.8h4q4.078,0,4.078,3.047a3.155,3.155,0,0,1-.18,1.082,3.006,3.006,0,0,1-.508.895,3.219,3.219,0,0,1-.793.688,4.089,4.089,0,0,1-1.035.453v.031a1.606,1.606,0,0,1,.484.254,3.468,3.468,0,0,1,.453.41,5.723,5.723,0,0,1,.418.5q.2.27.363.527ZM56.257,7.688V10.8H57.35a1.813,1.813,0,0,0,1.3-.469,1.564,1.564,0,0,0,.5-1.18q0-1.469-1.758-1.469ZM24.546,25.852h-3.2V35H18.819V25.852h-3.18V23.8h8.906ZM30.194,35.2a5.215,5.215,0,0,1-3.922-1.566,5.624,5.624,0,0,1-1.516-4.082,6.026,6.026,0,0,1,1.539-4.3,5.328,5.328,0,0,1,4.078-1.641,5.085,5.085,0,0,1,3.879,1.57,5.79,5.79,0,0,1,1.48,4.141A5.929,5.929,0,0,1,34.2,33.578,5.269,5.269,0,0,1,30.194,35.2Zm.109-9.414a2.54,2.54,0,0,0-2.109,1,4.153,4.153,0,0,0-.781,2.637,4.077,4.077,0,0,0,.781,2.633,2.7,2.7,0,0,0,4.117.027,4.032,4.032,0,0,0,.766-2.613,4.369,4.369,0,0,0-.742-2.711A2.42,2.42,0,0,0,30.3,25.781Zm14.516.07h-3.2V35H39.093V25.852h-3.18V23.8h8.906ZM55.061,35h-2.75l-.8-2.492H47.53L46.741,35H44.007l4.078-11.2h2.992Zm-4.125-4.43-1.2-3.766a4.907,4.907,0,0,1-.187-1.008h-.062a4.273,4.273,0,0,1-.2.977l-1.219,3.8ZM63.132,35H56.46V23.8h2.523v9.156h4.148Z" transform="translate(-4324 -1103)" fill="#12263f"/>
    <path id="Trazado_1054810" data-name="Trazado 1054810" d="M15.671,5.8,11.812,17H8.952L5.14,5.8H7.859l2.336,7.8a5.584,5.584,0,0,1,.227,1.117h.047a6.315,6.315,0,0,1,.242-1.148L13.031,5.8ZM26.038,17h-2.75l-.8-2.492H18.507L17.718,17H14.984L19.062,5.8h2.992Zm-4.125-4.43L20.71,8.8A4.907,4.907,0,0,1,20.523,7.8H20.46a4.273,4.273,0,0,1-.2.977l-1.219,3.8ZM34.109,17H27.437V5.8H29.96v9.156h4.148Zm5.844.2a5.215,5.215,0,0,1-3.922-1.566,5.624,5.624,0,0,1-1.516-4.082,6.026,6.026,0,0,1,1.539-4.3,5.328,5.328,0,0,1,4.078-1.641,5.085,5.085,0,0,1,3.879,1.57,5.79,5.79,0,0,1,1.48,4.141,5.929,5.929,0,0,1-1.535,4.258A5.269,5.269,0,0,1,39.952,17.2Zm.109-9.414a2.54,2.54,0,0,0-2.109,1,4.153,4.153,0,0,0-.781,2.637,4.077,4.077,0,0,0,.781,2.633,2.7,2.7,0,0,0,4.117.027,4.032,4.032,0,0,0,.766-2.613,4.369,4.369,0,0,0-.742-2.711A2.42,2.42,0,0,0,40.062,7.781ZM56.749,17h-2.9l-1.742-2.883q-.2-.328-.375-.586a3.255,3.255,0,0,0-.363-.441,1.445,1.445,0,0,0-.383-.281.972.972,0,0,0-.434-.1h-.68V17H47.351V5.8h4q4.078,0,4.078,3.047a3.155,3.155,0,0,1-.18,1.082,3.006,3.006,0,0,1-.508.895,3.219,3.219,0,0,1-.793.688,4.089,4.089,0,0,1-1.035.453v.031a1.606,1.606,0,0,1,.484.254,3.468,3.468,0,0,1,.453.41,5.723,5.723,0,0,1,.418.5q.2.27.363.527ZM49.874,7.688V10.8h1.094a1.813,1.813,0,0,0,1.3-.469,1.564,1.564,0,0,0,.5-1.18q0-1.469-1.758-1.469Zm20.2.164h-3.2V17H64.351V7.852h-3.18V5.8h8.906ZM75.726,17.2A5.215,5.215,0,0,1,71.8,15.629a5.624,5.624,0,0,1-1.516-4.082,6.026,6.026,0,0,1,1.539-4.3,5.328,5.328,0,0,1,4.078-1.641,5.085,5.085,0,0,1,3.879,1.57,5.79,5.79,0,0,1,1.48,4.141,5.929,5.929,0,0,1-1.535,4.258A5.269,5.269,0,0,1,75.726,17.2Zm.109-9.414a2.54,2.54,0,0,0-2.109,1,4.153,4.153,0,0,0-.781,2.637,4.077,4.077,0,0,0,.781,2.633,2.7,2.7,0,0,0,4.117.027,4.032,4.032,0,0,0,.766-2.613,4.369,4.369,0,0,0-.742-2.711A2.42,2.42,0,0,0,75.835,7.781Zm14.516.07h-3.2V17H84.624V7.852h-3.18V5.8h8.906ZM100.593,17h-2.75l-.8-2.492H93.062L92.273,17H89.538L93.616,5.8h2.992Zm-4.125-4.43L95.265,8.8A4.908,4.908,0,0,1,95.077,7.8h-.062a4.273,4.273,0,0,1-.2.977L93.6,12.57Zm12.2,4.43h-6.672V5.8h2.523v9.156h4.148Z" transform="translate(-3960.438 -1094)" fill="#12263f"/>
    <path id="Trazado_1054811" data-name="Trazado 1054811" d="M10.937,16.6a7.388,7.388,0,0,1-3.2.594A5.4,5.4,0,0,1,3.679,15.68,5.54,5.54,0,0,1,2.2,11.641a5.919,5.919,0,0,1,1.66-4.359A5.807,5.807,0,0,1,8.171,5.609a8.058,8.058,0,0,1,2.766.414v2.43a4.9,4.9,0,0,0-2.562-.672,3.4,3.4,0,0,0-2.547.992,3.682,3.682,0,0,0-.969,2.688,3.611,3.611,0,0,0,.914,2.59,3.229,3.229,0,0,0,2.461.965,5.249,5.249,0,0,0,2.7-.719Zm11.8.4h-2.75l-.8-2.492H15.21L14.421,17H11.687L15.765,5.8h2.992Zm-4.125-4.43L17.413,8.8A4.907,4.907,0,0,1,17.226,7.8h-.062a4.273,4.273,0,0,1-.2.977l-1.219,3.8ZM34.218,17H31.671L27.054,9.961a10.179,10.179,0,0,1-.562-.93H26.46q.062.594.063,1.813V17H24.14V5.8h2.719l4.445,6.82q.3.461.563.914H31.9a11.978,11.978,0,0,1-.062-1.539V5.8h2.383Zm10.43-9.148h-3.2V17H38.921V7.852h-3.18V5.8h8.906ZM48.679,17H46.156V5.8h2.523Zm2.547,0V5.8h3.969q5.969,0,5.969,5.461a5.522,5.522,0,0,1-1.629,4.18A6.007,6.007,0,0,1,55.195,17Zm2.523-9.148v7.1H55a3.378,3.378,0,0,0,2.574-.984,3.735,3.735,0,0,0,.934-2.68,3.388,3.388,0,0,0-.926-2.52,3.529,3.529,0,0,0-2.6-.918ZM72.632,17h-2.75l-.8-2.492H65.1L64.312,17H61.578L65.656,5.8h2.992Zm-4.125-4.43L67.3,8.8A4.908,4.908,0,0,1,67.117,7.8h-.062a4.273,4.273,0,0,1-.2.977l-1.219,3.8ZM74.031,17V5.8H78q5.969,0,5.969,5.461a5.522,5.522,0,0,1-1.629,4.18A6.007,6.007,0,0,1,78,17Zm2.523-9.148v7.1H77.8a3.378,3.378,0,0,0,2.574-.984,3.735,3.735,0,0,0,.934-2.68,3.388,3.388,0,0,0-.926-2.52,3.529,3.529,0,0,0-2.6-.918Z" transform="translate(-4430 -1094)" fill="#12263f"/>
    <path id="Trazado_1054812" data-name="Trazado 1054812" d="M11.37,14.651a6.464,6.464,0,0,1-2.8.52A4.724,4.724,0,0,1,5.02,13.845a4.848,4.848,0,0,1-1.292-3.534A5.179,5.179,0,0,1,5.18,6.5,5.081,5.081,0,0,1,8.95,5.033a7.05,7.05,0,0,1,2.42.362V7.521a4.288,4.288,0,0,0-2.242-.588A2.974,2.974,0,0,0,6.9,7.8a3.221,3.221,0,0,0-.848,2.352,3.16,3.16,0,0,0,.8,2.266A2.826,2.826,0,0,0,9,13.264a4.593,4.593,0,0,0,2.365-.629ZM21.7,15H19.293l-.7-2.181H15.109L14.419,15H12.026l3.568-9.8h2.618ZM18.09,11.124,17.037,7.829a4.294,4.294,0,0,1-.164-.882h-.055a3.739,3.739,0,0,1-.171.854l-1.066,3.322ZM31.741,15H29.513l-4.04-6.159a8.907,8.907,0,0,1-.492-.813h-.027q.055.52.055,1.586V15H22.923V5.2H25.3l3.89,5.968q.267.4.492.8h.027a10.481,10.481,0,0,1-.055-1.347V5.2h2.085Zm9.126-8h-2.8v8H35.856V7H33.074V5.2h7.793Zm3.527,8H42.187V5.2h2.208Zm2.229,0V5.2H50.1q5.223,0,5.223,4.778a4.832,4.832,0,0,1-1.425,3.657A5.256,5.256,0,0,1,50.1,15Zm2.208-8v6.214h1.094a2.956,2.956,0,0,0,2.252-.861A3.268,3.268,0,0,0,52.994,10a2.965,2.965,0,0,0-.81-2.2A3.088,3.088,0,0,0,49.911,7Zm16.522,8H62.947l-.7-2.181H58.764L58.073,15H55.681l3.568-9.8h2.618Zm-3.609-3.876L60.691,7.829a4.294,4.294,0,0,1-.164-.882h-.055A3.739,3.739,0,0,1,60.3,7.8l-1.066,3.322ZM66.577,15V5.2H70.05q5.223,0,5.223,4.778a4.832,4.832,0,0,1-1.425,3.657A5.256,5.256,0,0,1,70.05,15Zm2.208-8v6.214h1.094a2.955,2.955,0,0,0,2.252-.861A3.268,3.268,0,0,0,72.948,10a2.965,2.965,0,0,0-.81-2.2A3.088,3.088,0,0,0,69.865,7Z" transform="translate(-4225 -1094)" fill="#12263f"/>
    <path id="Trazado_1054813" data-name="Trazado 1054813" d="M35.858,5.2,32.481,15h-2.5L26.643,5.2h2.379l2.044,6.822a4.886,4.886,0,0,1,.2.978h.041a5.525,5.525,0,0,1,.212-1L33.547,5.2ZM44.929,15H42.523l-.7-2.181H38.339L37.649,15H35.256l3.568-9.8h2.618ZM41.32,11.124,40.267,7.829a4.294,4.294,0,0,1-.164-.882h-.055a3.739,3.739,0,0,1-.171.854l-1.066,3.322ZM51.991,15H46.153V5.2h2.208v8.012h3.63Zm5.113.171A4.563,4.563,0,0,1,53.672,13.8a4.921,4.921,0,0,1-1.326-3.572,5.273,5.273,0,0,1,1.347-3.76,4.662,4.662,0,0,1,3.568-1.436,4.449,4.449,0,0,1,3.394,1.374,5.066,5.066,0,0,1,1.3,3.623,5.188,5.188,0,0,1-1.343,3.726A4.61,4.61,0,0,1,57.1,15.171Zm.1-8.237a2.223,2.223,0,0,0-1.846.872,3.634,3.634,0,0,0-.684,2.307,3.567,3.567,0,0,0,.684,2.3,2.359,2.359,0,0,0,3.6.024,3.528,3.528,0,0,0,.67-2.287,3.823,3.823,0,0,0-.649-2.372A2.117,2.117,0,0,0,57.2,6.934ZM71.8,15H69.265l-1.524-2.522q-.171-.287-.328-.513a2.849,2.849,0,0,0-.318-.386,1.264,1.264,0,0,0-.335-.246.85.85,0,0,0-.379-.085h-.595V15H63.578V5.2h3.5q3.568,0,3.568,2.666a2.761,2.761,0,0,1-.157.947,2.63,2.63,0,0,1-.444.783,2.817,2.817,0,0,1-.694.6,3.578,3.578,0,0,1-.906.4v.027a1.4,1.4,0,0,1,.424.222,3.035,3.035,0,0,1,.4.359,5.007,5.007,0,0,1,.366.441q.174.236.318.461ZM65.786,6.852V9.579h.957a1.587,1.587,0,0,0,1.142-.41,1.369,1.369,0,0,0,.438-1.032q0-1.285-1.538-1.285Zm-51.56,21.9q0,4.416-4.115,4.416-3.992,0-3.992-4.313V23.2H8.333v5.688q0,2.379,1.859,2.379,1.825,0,1.825-2.3V23.2h2.208ZM25.177,33H22.948l-4.04-6.159a8.907,8.907,0,0,1-.492-.813h-.027q.055.52.055,1.586V33H16.358V23.2h2.379l3.89,5.968q.267.4.492.8h.027a10.481,10.481,0,0,1-.055-1.347V23.2h2.085Zm4.45,0H27.419V23.2h2.208Zm9.112-8h-2.8v8H33.728V25H30.946V23.2h7.793ZM47.7,33H45.295l-.7-2.181H41.111L40.421,33H38.028L41.6,23.2h2.618Zm-3.609-3.876-1.053-3.295a4.294,4.294,0,0,1-.164-.882H42.82a3.739,3.739,0,0,1-.171.854l-1.066,3.322ZM57.148,33H54.612l-1.524-2.522q-.171-.287-.328-.513a2.848,2.848,0,0,0-.318-.386,1.264,1.264,0,0,0-.335-.246.85.85,0,0,0-.379-.085h-.595V33H48.925V23.2h3.5q3.568,0,3.568,2.666a2.761,2.761,0,0,1-.157.947,2.63,2.63,0,0,1-.444.783,2.817,2.817,0,0,1-.694.6,3.578,3.578,0,0,1-.906.4v.027a1.4,1.4,0,0,1,.424.222,3.035,3.035,0,0,1,.4.359,5.007,5.007,0,0,1,.366.441q.174.236.318.461Zm-6.016-8.148v2.728h.957a1.587,1.587,0,0,0,1.142-.41,1.369,1.369,0,0,0,.438-1.032q0-1.285-1.538-1.285ZM60.272,33H58.064V23.2h2.208Zm6.371.171A4.563,4.563,0,0,1,63.212,31.8a4.921,4.921,0,0,1-1.326-3.572,5.273,5.273,0,0,1,1.347-3.76A4.662,4.662,0,0,1,66.8,23.033a4.449,4.449,0,0,1,3.394,1.374,5.066,5.066,0,0,1,1.3,3.623,5.188,5.188,0,0,1-1.343,3.726A4.61,4.61,0,0,1,66.643,33.171Zm.1-8.237a2.223,2.223,0,0,0-1.846.872,3.634,3.634,0,0,0-.684,2.307,3.567,3.567,0,0,0,.684,2.3,2.359,2.359,0,0,0,3.6.024,3.528,3.528,0,0,0,.67-2.287,3.823,3.823,0,0,0-.649-2.372A2.117,2.117,0,0,0,66.739,24.934Zm12.448,4.689V33H76.979V23.2h3.459q3.705,0,3.705,3.124A3,3,0,0,1,83.08,28.71a4.211,4.211,0,0,1-2.84.913Zm0-4.73v3.056h.868q1.764,0,1.764-1.545,0-1.511-1.764-1.511Zm8.6,4.73V33H85.579V23.2h3.459q3.705,0,3.705,3.124A3,3,0,0,1,91.68,28.71a4.211,4.211,0,0,1-2.84.913Zm0-4.73v3.056h.868q1.764,0,1.764-1.545,0-1.511-1.764-1.511Z" transform="translate(-4115 -1103)" fill="#12263f"/>
    <path id="Trazado_1054798" data-name="Trazado 1054798" d="M0,0V187.92" transform="translate(-4560.085 -1063.547)" fill="none" stroke="#e1e1e1" stroke-width="1"/>
    <path id="Trazado_1054793" data-name="Trazado 1054793" d="M0,0V232.919" transform="translate(-4337.085 -1108.547)" fill="none" stroke="#e1e1e1" stroke-width="1"/>
    <path id="Trazado_1054789" data-name="Trazado 1054789" d="M0,0V234.051" transform="translate(-4002.305 -1108.547)" fill="none" stroke="#e1e1e1" stroke-width="1"/>
    <path id="Trazado_1054790" data-name="Trazado 1054790" d="M0,0V232.541" transform="translate(-4131.988 -1108.547)" fill="none" stroke="#e1e1e1" stroke-width="1"/>
    <path id="Trazado_1054794" data-name="Trazado 1054794" d="M54.594,16.938v1.7h-.812V17a4.9,4.9,0,0,1-2.7-.672V14.969a3.661,3.661,0,0,0,1.238.668,4.528,4.528,0,0,0,1.465.27v-4a6.129,6.129,0,0,1-2.227-1.527,2.736,2.736,0,0,1-.508-1.652A2.763,2.763,0,0,1,51.82,6.77a3.2,3.2,0,0,1,1.961-.988V4.375h.813V5.75a4.324,4.324,0,0,1,2.117.438V7.516a3.549,3.549,0,0,0-2.117-.672v4.125a6.64,6.64,0,0,1,2.223,1.5,2.51,2.51,0,0,1,.6,1.645,2.545,2.545,0,0,1-.746,1.863A3.624,3.624,0,0,1,54.594,16.938Zm-.812-6.406V6.891a1.78,1.78,0,0,0-1.039.582,1.623,1.623,0,0,0-.383,1.09,1.826,1.826,0,0,0,.313,1.1A3.367,3.367,0,0,0,53.781,10.531Zm.813,1.781v3.531q1.508-.328,1.508-1.625Q56.1,13.141,54.594,12.313Zm11.258,1.516a3.266,3.266,0,0,1-.285,1.379,3.045,3.045,0,0,1-.8,1.063,3.714,3.714,0,0,1-1.246.684,5.04,5.04,0,0,1-1.6.242,4.654,4.654,0,0,1-2.547-.609V15.211a4.081,4.081,0,0,0,2.594.891,3.525,3.525,0,0,0,1.059-.148,2.374,2.374,0,0,0,.813-.43,1.909,1.909,0,0,0,.523-.68,2.123,2.123,0,0,0,.184-.9q0-2.2-3.125-2.2h-.93V10.664h.883q2.766,0,2.766-2.062,0-1.906-2.109-1.906a3.592,3.592,0,0,0-2.227.8V6.25a4.868,4.868,0,0,1,2.547-.641,3.913,3.913,0,0,1,1.273.2,2.918,2.918,0,0,1,.977.547,2.423,2.423,0,0,1,.629.844,2.6,2.6,0,0,1,.223,1.086,2.735,2.735,0,0,1-2.234,2.844v.031a3.534,3.534,0,0,1,1.055.277,2.814,2.814,0,0,1,.836.559,2.49,2.49,0,0,1,.551.809A2.582,2.582,0,0,1,65.852,13.828ZM73.672,5.8v7.4h1.438v1.172H73.672V17H72.406V14.367H67.141V13.258q.734-.828,1.484-1.77t1.434-1.91q.684-.969,1.266-1.934A17.671,17.671,0,0,0,72.3,5.8Zm-5.086,7.4h3.82V7.711Q71.82,8.734,71.3,9.539T70.3,11q-.473.656-.9,1.188T68.586,13.2Zm14.516.633a3.266,3.266,0,0,1-.285,1.379,3.045,3.045,0,0,1-.8,1.063,3.714,3.714,0,0,1-1.246.684,5.04,5.04,0,0,1-1.6.242,4.654,4.654,0,0,1-2.547-.609V15.211a4.081,4.081,0,0,0,2.594.891,3.525,3.525,0,0,0,1.059-.148,2.374,2.374,0,0,0,.813-.43,1.909,1.909,0,0,0,.523-.68,2.123,2.123,0,0,0,.184-.9q0-2.2-3.125-2.2h-.93V10.664h.883q2.766,0,2.766-2.062,0-1.906-2.109-1.906a3.592,3.592,0,0,0-2.227.8V6.25a4.868,4.868,0,0,1,2.547-.641,3.913,3.913,0,0,1,1.273.2,2.918,2.918,0,0,1,.977.547,2.423,2.423,0,0,1,.629.844A2.6,2.6,0,0,1,82.7,8.281a2.735,2.735,0,0,1-2.234,2.844v.031a3.534,3.534,0,0,1,1.055.277,2.814,2.814,0,0,1,.836.559,2.49,2.49,0,0,1,.551.809A2.582,2.582,0,0,1,83.1,13.828Zm2.922,3.344a.829.829,0,0,1-.613-.258.849.849,0,0,1-.254-.617.862.862,0,0,1,.254-.621.823.823,0,0,1,.613-.262.845.845,0,0,1,.625.262.855.855,0,0,1,.258.621.842.842,0,0,1-.258.617A.851.851,0,0,1,86.023,17.172Zm9.7-5.82a11.005,11.005,0,0,1-.254,2.492,5.807,5.807,0,0,1-.734,1.832,3.305,3.305,0,0,1-1.18,1.133,3.23,3.23,0,0,1-1.59.387,3.016,3.016,0,0,1-1.5-.371,3.152,3.152,0,0,1-1.113-1.082A5.484,5.484,0,0,1,88.656,14a10.8,10.8,0,0,1-.234-2.371,12.222,12.222,0,0,1,.246-2.594,5.933,5.933,0,0,1,.723-1.887A3.217,3.217,0,0,1,90.574,6,3.323,3.323,0,0,1,92.2,5.609Q95.719,5.609,95.719,11.352Zm-1.312.125q0-4.781-2.273-4.781-2.4,0-2.4,4.867,0,4.539,2.352,4.539Q94.406,16.1,94.406,11.477Zm9.938-.125a11.005,11.005,0,0,1-.254,2.492,5.807,5.807,0,0,1-.734,1.832,3.305,3.305,0,0,1-1.18,1.133,3.23,3.23,0,0,1-1.59.387,3.016,3.016,0,0,1-1.5-.371,3.152,3.152,0,0,1-1.113-1.082A5.484,5.484,0,0,1,97.281,14a10.8,10.8,0,0,1-.234-2.371,12.222,12.222,0,0,1,.246-2.594,5.933,5.933,0,0,1,.723-1.887A3.217,3.217,0,0,1,99.2,6a3.323,3.323,0,0,1,1.621-.387Q104.344,5.609,104.344,11.352Zm-1.312.125q0-4.781-2.273-4.781-2.4,0-2.4,4.867,0,4.539,2.352,4.539Q103.031,16.1,103.031,11.477Zm.961,47.57H99.727V58.039h4.266Zm0,46H99.727v-1.008h4.266Zm0,46H99.727v-1.008h4.266Z" transform="translate(-4118 -1046)" fill="#12263f"/>
    <path id="Trazado_1054803" data-name="Trazado 1054803" d="M27.905,11.352a11.005,11.005,0,0,1-.254,2.492,5.807,5.807,0,0,1-.734,1.832,3.305,3.305,0,0,1-1.18,1.133,3.23,3.23,0,0,1-1.59.387,3.016,3.016,0,0,1-1.5-.371,3.152,3.152,0,0,1-1.113-1.082A5.484,5.484,0,0,1,20.843,14a10.8,10.8,0,0,1-.234-2.371,12.222,12.222,0,0,1,.246-2.594,5.933,5.933,0,0,1,.723-1.887A3.216,3.216,0,0,1,22.76,6a3.323,3.323,0,0,1,1.621-.387Q27.905,5.609,27.905,11.352Zm-1.312.125q0-4.781-2.273-4.781-2.4,0-2.4,4.867,0,4.539,2.352,4.539Q26.593,16.1,26.593,11.477ZM34.218,17H32.936V7.32a2.965,2.965,0,0,1-.434.34,7.068,7.068,0,0,1-.641.379q-.355.188-.75.352a5.451,5.451,0,0,1-.77.258v-1.3a7.448,7.448,0,0,0,.895-.316q.473-.2.93-.445t.863-.516a6.854,6.854,0,0,0,.7-.527h.484Zm9.32-11.2L38.163,18.859h-1.2L42.327,5.8Zm7.852,5.555a11.005,11.005,0,0,1-.254,2.492,5.807,5.807,0,0,1-.734,1.832,3.305,3.305,0,0,1-1.18,1.133,3.23,3.23,0,0,1-1.59.387,3.016,3.016,0,0,1-1.5-.371,3.152,3.152,0,0,1-1.113-1.082A5.484,5.484,0,0,1,44.327,14a10.8,10.8,0,0,1-.234-2.371,12.222,12.222,0,0,1,.246-2.594,5.933,5.933,0,0,1,.723-1.887A3.216,3.216,0,0,1,46.245,6a3.323,3.323,0,0,1,1.621-.387Q51.389,5.609,51.389,11.352Zm-1.312.125Q50.077,6.7,47.8,6.7q-2.4,0-2.4,4.867,0,4.539,2.352,4.539Q50.077,16.1,50.077,11.477Zm9.813-.75a11.159,11.159,0,0,1-.3,2.738,6.108,6.108,0,0,1-.891,2.031,3.942,3.942,0,0,1-1.43,1.266,4.145,4.145,0,0,1-1.922.434,4.6,4.6,0,0,1-1.953-.391V15.578a3.981,3.981,0,0,0,1.984.523,2.881,2.881,0,0,0,1.355-.312,2.807,2.807,0,0,0,1.012-.91,4.468,4.468,0,0,0,.633-1.473,8.315,8.315,0,0,0,.219-2.008h-.031a2.559,2.559,0,0,1-2.5,1.445,3.361,3.361,0,0,1-1.32-.254,3.025,3.025,0,0,1-1.039-.719,3.289,3.289,0,0,1-.68-1.105,3.97,3.97,0,0,1-.242-1.414,4.119,4.119,0,0,1,.27-1.516,3.532,3.532,0,0,1,.75-1.184,3.356,3.356,0,0,1,1.141-.77,3.73,3.73,0,0,1,1.441-.273,3.191,3.191,0,0,1,1.5.34,3,3,0,0,1,1.1.992,4.9,4.9,0,0,1,.68,1.605A9.166,9.166,0,0,1,59.889,10.727ZM58.507,9.578a3.9,3.9,0,0,0-.168-1.18,2.856,2.856,0,0,0-.465-.91,2.086,2.086,0,0,0-.707-.586,1.957,1.957,0,0,0-.895-.207,2.028,2.028,0,0,0-.859.184,2.066,2.066,0,0,0-.691.516,2.462,2.462,0,0,0-.461.789,2.866,2.866,0,0,0-.168,1,3.277,3.277,0,0,0,.16,1.063,2.219,2.219,0,0,0,.457.793,1.974,1.974,0,0,0,.715.5,2.412,2.412,0,0,0,.926.172,2.121,2.121,0,0,0,.84-.168,2.224,2.224,0,0,0,.688-.453,2.088,2.088,0,0,0,.461-.672A2.066,2.066,0,0,0,58.507,9.578ZM67.022,5.8,61.647,18.859h-1.2L65.811,5.8Zm5.914,2.938a2.316,2.316,0,0,0-.16-.9,1.739,1.739,0,0,0-1.09-1.016,2.555,2.555,0,0,0-.812-.125,2.688,2.688,0,0,0-.734.1,3.57,3.57,0,0,0-.7.281,4.3,4.3,0,0,0-.656.43,4.74,4.74,0,0,0-.59.555V6.688a3.831,3.831,0,0,1,1.207-.8,4.25,4.25,0,0,1,1.629-.277,3.932,3.932,0,0,1,1.273.2,2.92,2.92,0,0,1,1.016.582,2.691,2.691,0,0,1,.676.945,3.188,3.188,0,0,1,.246,1.289,4.42,4.42,0,0,1-.152,1.2,3.721,3.721,0,0,1-.461,1.016,4.9,4.9,0,0,1-.777.914,11.011,11.011,0,0,1-1.1.891q-.789.563-1.3.961a5.75,5.75,0,0,0-.812.746,2.165,2.165,0,0,0-.422.7,2.431,2.431,0,0,0-.121.8h5.578V17H67.757v-.555a4.622,4.622,0,0,1,.156-1.266,3.286,3.286,0,0,1,.516-1.039,5.767,5.767,0,0,1,.941-.984q.582-.492,1.426-1.109a9.014,9.014,0,0,0,1.02-.836,4.346,4.346,0,0,0,.66-.8,2.862,2.862,0,0,0,.355-.809A3.486,3.486,0,0,0,72.936,8.734ZM83.5,11.352a11.005,11.005,0,0,1-.254,2.492,5.807,5.807,0,0,1-.734,1.832,3.305,3.305,0,0,1-1.18,1.133,3.23,3.23,0,0,1-1.59.387,3.016,3.016,0,0,1-1.5-.371,3.152,3.152,0,0,1-1.113-1.082A5.484,5.484,0,0,1,76.436,14a10.8,10.8,0,0,1-.234-2.371,12.222,12.222,0,0,1,.246-2.594,5.933,5.933,0,0,1,.723-1.887A3.217,3.217,0,0,1,78.354,6a3.323,3.323,0,0,1,1.621-.387Q83.5,5.609,83.5,11.352Zm-1.312.125q0-4.781-2.273-4.781-2.4,0-2.4,4.867,0,4.539,2.352,4.539Q82.186,16.1,82.186,11.477Zm8-2.742a2.316,2.316,0,0,0-.16-.9,1.739,1.739,0,0,0-1.09-1.016,2.555,2.555,0,0,0-.812-.125,2.688,2.688,0,0,0-.734.1,3.57,3.57,0,0,0-.7.281,4.3,4.3,0,0,0-.656.43,4.74,4.74,0,0,0-.59.555V6.688a3.831,3.831,0,0,1,1.207-.8,4.25,4.25,0,0,1,1.629-.277,3.932,3.932,0,0,1,1.273.2,2.92,2.92,0,0,1,1.016.582,2.691,2.691,0,0,1,.676.945,3.188,3.188,0,0,1,.246,1.289,4.42,4.42,0,0,1-.152,1.2,3.721,3.721,0,0,1-.461,1.016,4.9,4.9,0,0,1-.777.914,11.011,11.011,0,0,1-1.1.891q-.789.563-1.3.961a5.75,5.75,0,0,0-.812.746,2.165,2.165,0,0,0-.422.7,2.431,2.431,0,0,0-.121.8h5.578V17H85.007v-.555a4.622,4.622,0,0,1,.156-1.266,3.286,3.286,0,0,1,.516-1.039,5.767,5.767,0,0,1,.941-.984q.582-.492,1.426-1.109a9.014,9.014,0,0,0,1.02-.836,4.346,4.346,0,0,0,.66-.8,2.862,2.862,0,0,0,.355-.809A3.486,3.486,0,0,0,90.186,8.734Zm10.563,2.617a11.005,11.005,0,0,1-.254,2.492,5.807,5.807,0,0,1-.734,1.832,3.305,3.305,0,0,1-1.18,1.133,3.23,3.23,0,0,1-1.59.387,3.016,3.016,0,0,1-1.5-.371,3.152,3.152,0,0,1-1.113-1.082A5.484,5.484,0,0,1,93.686,14a10.8,10.8,0,0,1-.234-2.371A12.222,12.222,0,0,1,93.7,9.031a5.933,5.933,0,0,1,.723-1.887A3.217,3.217,0,0,1,95.6,6a3.323,3.323,0,0,1,1.621-.387Q100.749,5.609,100.749,11.352Zm-1.312.125q0-4.781-2.273-4.781-2.4,0-2.4,4.867,0,4.539,2.352,4.539Q99.436,16.1,99.436,11.477ZM62.862,59.047H58.6V58.039h4.266Zm0,46H58.6v-1.008h4.266Zm0,46H58.6v-1.008h4.266Z" transform="translate(-4964 -1045.999)" fill="#12263f"/>
    <path id="Trazado_1054839" data-name="Trazado 1054839" d="M41.718,6.984H37.343v3.875h4.047v1.18H37.343V17H36.03V5.8h5.688Zm9.75,9.547a6.571,6.571,0,0,1-3.094.656,4.989,4.989,0,0,1-3.828-1.539,5.679,5.679,0,0,1-1.437-4.039,5.952,5.952,0,0,1,1.617-4.344,5.489,5.489,0,0,1,4.1-1.656,6.576,6.576,0,0,1,2.641.461v1.4A5.355,5.355,0,0,0,48.811,6.8a4.076,4.076,0,0,0-3.129,1.289,4.856,4.856,0,0,0-1.2,3.445A4.621,4.621,0,0,0,45.6,14.793a3.815,3.815,0,0,0,2.941,1.215,5.518,5.518,0,0,0,2.922-.75Zm8.781-5.18a11.005,11.005,0,0,1-.254,2.492,5.807,5.807,0,0,1-.734,1.832,3.305,3.305,0,0,1-1.18,1.133,3.23,3.23,0,0,1-1.59.387,3.016,3.016,0,0,1-1.5-.371,3.152,3.152,0,0,1-1.113-1.082A5.484,5.484,0,0,1,53.186,14a10.8,10.8,0,0,1-.234-2.371A12.222,12.222,0,0,1,53.2,9.031a5.933,5.933,0,0,1,.723-1.887A3.216,3.216,0,0,1,55.1,6a3.323,3.323,0,0,1,1.621-.387Q60.249,5.609,60.249,11.352Zm-1.312.125q0-4.781-2.273-4.781-2.4,0-2.4,4.867,0,4.539,2.352,4.539Q58.936,16.1,58.936,11.477ZM66.561,17H65.28V7.32a2.966,2.966,0,0,1-.434.34,7.068,7.068,0,0,1-.641.379q-.355.188-.75.352a5.45,5.45,0,0,1-.77.258v-1.3a7.448,7.448,0,0,0,.895-.316q.473-.2.93-.445t.863-.516a6.853,6.853,0,0,0,.7-.527h.484ZM77.1,13.578a3.771,3.771,0,0,1-.281,1.484,3.245,3.245,0,0,1-.8,1.141,3.586,3.586,0,0,1-1.254.734,4.9,4.9,0,0,1-1.633.258,4.511,4.511,0,0,1-2.32-.469V15.367a4.266,4.266,0,0,0,2.336.734,3.161,3.161,0,0,0,1.1-.18,2.439,2.439,0,0,0,.832-.5,2.141,2.141,0,0,0,.527-.773,2.618,2.618,0,0,0,.184-.992,2.125,2.125,0,0,0-.734-1.715,3.221,3.221,0,0,0-2.133-.621q-.227,0-.477.008t-.5.02q-.25.012-.488.027t-.434.039L71.405,5.8h5.18V6.953h-4.07l-.227,3.289q.25-.016.531-.027t.5-.012a5.028,5.028,0,0,1,1.594.234,3.377,3.377,0,0,1,1.191.668,2.8,2.8,0,0,1,.742,1.063A3.737,3.737,0,0,1,77.1,13.578ZM84.8,5.8v7.4h1.438v1.172H84.8V17H83.53V14.367H78.264V13.258q.734-.828,1.484-1.77t1.434-1.91q.684-.969,1.266-1.934a17.671,17.671,0,0,0,.98-1.848ZM79.71,13.2h3.82V7.711q-.586,1.023-1.109,1.828t-1,1.461q-.473.656-.9,1.188T79.71,13.2ZM12.4,35V23.8h3.094q5.922,0,5.922,5.461a5.5,5.5,0,0,1-1.645,4.168A6.1,6.1,0,0,1,15.366,35ZM13.71,24.984v8.828h1.672a4.745,4.745,0,0,0,3.43-1.18,4.422,4.422,0,0,0,1.227-3.344q0-4.3-4.578-4.3ZM24.928,35H23.616V23.8h1.313Zm2.422-.453V33a3,3,0,0,0,.637.422,5.159,5.159,0,0,0,.781.316,6.219,6.219,0,0,0,.824.2,4.6,4.6,0,0,0,.766.07,3,3,0,0,0,1.809-.449,1.685,1.685,0,0,0,.4-2.082,2.244,2.244,0,0,0-.551-.613,5.465,5.465,0,0,0-.832-.531q-.48-.254-1.035-.535-.586-.3-1.094-.6a4.74,4.74,0,0,1-.883-.672,2.8,2.8,0,0,1-.59-.832A2.836,2.836,0,0,1,27.7,25.27a2.881,2.881,0,0,1,.883-.934,4,4,0,0,1,1.246-.547,5.706,5.706,0,0,1,1.426-.18,5.464,5.464,0,0,1,2.414.4v1.477a4.376,4.376,0,0,0-2.547-.687,4.189,4.189,0,0,0-.859.09,2.428,2.428,0,0,0-.766.293,1.7,1.7,0,0,0-.547.523,1.389,1.389,0,0,0-.211.781,1.608,1.608,0,0,0,.16.742,1.819,1.819,0,0,0,.473.57,4.708,4.708,0,0,0,.762.5q.449.242,1.035.531.6.3,1.141.625a5.213,5.213,0,0,1,.945.727,3.229,3.229,0,0,1,.645.883,2.482,2.482,0,0,1,.238,1.109,2.813,2.813,0,0,1-.324,1.4,2.661,2.661,0,0,1-.875.934,3.821,3.821,0,0,1-1.27.52,6.953,6.953,0,0,1-1.516.16,6.177,6.177,0,0,1-.656-.043q-.391-.043-.8-.125a6.5,6.5,0,0,1-.77-.2A2.4,2.4,0,0,1,27.35,34.547ZM43,24.984H39.764V35H38.452V24.984H35.225V23.8H43ZM52.788,35H51.225L49.35,31.859a6.84,6.84,0,0,0-.5-.746,2.85,2.85,0,0,0-.5-.5,1.718,1.718,0,0,0-.547-.285,2.249,2.249,0,0,0-.66-.09H46.069V35H44.757V23.8H48.1a4.765,4.765,0,0,1,1.355.184,3.033,3.033,0,0,1,1.078.559,2.6,2.6,0,0,1,.715.934,3.1,3.1,0,0,1,.258,1.309,3.151,3.151,0,0,1-.176,1.074,2.806,2.806,0,0,1-.5.871,3.031,3.031,0,0,1-.781.652,3.988,3.988,0,0,1-1.027.418v.031a2.363,2.363,0,0,1,.488.285,2.687,2.687,0,0,1,.395.379,5.019,5.019,0,0,1,.371.5q.184.277.41.645ZM46.069,24.984v4.063H47.85a2.7,2.7,0,0,0,.91-.148,2.107,2.107,0,0,0,.723-.426,1.931,1.931,0,0,0,.477-.68,2.275,2.275,0,0,0,.172-.9,1.756,1.756,0,0,0-.582-1.4,2.5,2.5,0,0,0-1.684-.5ZM55.639,35H54.327V23.8h1.313Zm2.945,0V23.8h3.188a3.484,3.484,0,0,1,2.3.711,2.3,2.3,0,0,1,.852,1.852,2.725,2.725,0,0,1-.516,1.656,2.78,2.78,0,0,1-1.422,1v.031A2.85,2.85,0,0,1,64.8,29.9a2.631,2.631,0,0,1,.68,1.879,2.929,2.929,0,0,1-1.031,2.328,3.838,3.838,0,0,1-2.6.891ZM59.9,24.984V28.6h1.344a2.552,2.552,0,0,0,1.7-.52,1.809,1.809,0,0,0,.617-1.465q0-1.633-2.148-1.633Zm0,4.8v4.031h1.781a2.669,2.669,0,0,0,1.793-.547,1.873,1.873,0,0,0,.637-1.5q0-1.984-2.7-1.984Zm18.867-4.8H75.53V35H74.218V24.984H70.991V23.8h7.773Zm5.531,10.2a4.918,4.918,0,0,1-3.816-1.57,5.824,5.824,0,0,1-1.434-4.086,6.171,6.171,0,0,1,1.461-4.312,5.1,5.1,0,0,1,3.977-1.609,4.807,4.807,0,0,1,3.738,1.563,5.845,5.845,0,0,1,1.418,4.086,6.191,6.191,0,0,1-1.453,4.336A5.008,5.008,0,0,1,84.3,35.188ZM84.389,24.8a3.612,3.612,0,0,0-2.867,1.273,4.93,4.93,0,0,0-1.1,3.344,4.964,4.964,0,0,0,1.074,3.332,3.5,3.5,0,0,0,2.8,1.262A3.678,3.678,0,0,0,87.2,32.8a4.917,4.917,0,0,0,1.063-3.367,5.138,5.138,0,0,0-1.031-3.43A3.536,3.536,0,0,0,84.389,24.8Zm13.359.188H94.514V35H93.2V24.984H89.975V23.8h7.773ZM107.085,35h-1.453l-1.187-3.141h-4.75L98.577,35H97.116l4.3-11.2h1.359Zm-3.07-4.32-1.758-4.773a4.571,4.571,0,0,1-.172-.75h-.031a4.185,4.185,0,0,1-.18.75l-1.742,4.773ZM114.546,35h-5.812V23.8h1.313V33.813h4.5Z" transform="translate(-4811 -1053)" fill="#12263f"/>
    <path id="Trazado_1054840" data-name="Trazado 1054840" d="M45.839,7.852h-3.2V17H40.112V7.852h-3.18V5.8h8.906ZM51.487,17.2a5.215,5.215,0,0,1-3.922-1.566,5.624,5.624,0,0,1-1.516-4.082,6.026,6.026,0,0,1,1.539-4.3,5.328,5.328,0,0,1,4.078-1.641,5.085,5.085,0,0,1,3.879,1.57,5.79,5.79,0,0,1,1.48,4.141,5.929,5.929,0,0,1-1.535,4.258A5.269,5.269,0,0,1,51.487,17.2ZM51.6,7.781a2.54,2.54,0,0,0-2.109,1,4.153,4.153,0,0,0-.781,2.637,4.077,4.077,0,0,0,.781,2.633,2.7,2.7,0,0,0,4.117.027,4.032,4.032,0,0,0,.766-2.613,4.369,4.369,0,0,0-.742-2.711A2.42,2.42,0,0,0,51.6,7.781Zm14.516.07h-3.2V17H60.385V7.852h-3.18V5.8h8.906ZM76.354,17H73.6l-.8-2.492H68.823L68.034,17H65.3L69.378,5.8H72.37Zm-4.125-4.43L71.026,8.8A4.908,4.908,0,0,1,70.839,7.8h-.062a4.273,4.273,0,0,1-.2.977l-1.219,3.8ZM84.425,17H77.753V5.8h2.523v9.156h4.148Z" transform="translate(-4811 -902.896)" fill="#12263f"/>
    <path id="Trazado_1054841" data-name="Trazado 1054841" d="M2.191-3.953H-2.074V-4.961H2.191Zm0,46H-2.074V41.039H2.191Z" transform="translate(-4751 -980.59)" fill="#12263f"/>
    <path id="Trazado_1054795" data-name="Trazado 1054795" d="M2.191-3.953H-2.074V-4.961H2.191Zm0,46H-2.074V41.039H2.191Zm0,46H-2.074V87.039H2.191Zm0,46H-2.074v-1.008H2.191Z" transform="translate(-4387 -1030.999)" fill="#12263f"/>
    <path id="Trazado_1054799" data-name="Trazado 1054799" d="M43.03,17H41.749V7.32a2.965,2.965,0,0,1-.434.34,7.068,7.068,0,0,1-.641.379q-.355.188-.75.352a5.45,5.45,0,0,1-.77.258v-1.3a7.448,7.448,0,0,0,.895-.316q.473-.2.93-.445t.863-.516a6.854,6.854,0,0,0,.7-.527h.484Zm9-8.266a2.316,2.316,0,0,0-.16-.9A1.739,1.739,0,0,0,50.78,6.82a2.555,2.555,0,0,0-.812-.125,2.688,2.688,0,0,0-.734.1,3.57,3.57,0,0,0-.7.281,4.3,4.3,0,0,0-.656.43,4.74,4.74,0,0,0-.59.555V6.688a3.831,3.831,0,0,1,1.207-.8,4.25,4.25,0,0,1,1.629-.277,3.932,3.932,0,0,1,1.273.2,2.92,2.92,0,0,1,1.016.582,2.691,2.691,0,0,1,.676.945,3.188,3.188,0,0,1,.246,1.289,4.42,4.42,0,0,1-.152,1.2,3.721,3.721,0,0,1-.461,1.016,4.9,4.9,0,0,1-.777.914,11.011,11.011,0,0,1-1.1.891q-.789.563-1.3.961a5.75,5.75,0,0,0-.812.746,2.165,2.165,0,0,0-.422.7,2.43,2.43,0,0,0-.121.8h5.578V17H46.85v-.555a4.622,4.622,0,0,1,.156-1.266,3.286,3.286,0,0,1,.516-1.039,5.767,5.767,0,0,1,.941-.984q.582-.492,1.426-1.109a9.014,9.014,0,0,0,1.02-.836,4.346,4.346,0,0,0,.66-.8,2.862,2.862,0,0,0,.355-.809A3.486,3.486,0,0,0,52.03,8.734Zm4.336,8.438a.829.829,0,0,1-.613-.258A.849.849,0,0,1,55.5,16.3a.862.862,0,0,1,.254-.621.823.823,0,0,1,.613-.262.845.845,0,0,1,.625.262.855.855,0,0,1,.258.621.842.842,0,0,1-.258.617A.851.851,0,0,1,56.366,17.172Zm9.3-3.594a3.771,3.771,0,0,1-.281,1.484,3.245,3.245,0,0,1-.8,1.141,3.586,3.586,0,0,1-1.254.734,4.9,4.9,0,0,1-1.633.258,4.511,4.511,0,0,1-2.32-.469V15.367a4.266,4.266,0,0,0,2.336.734,3.161,3.161,0,0,0,1.1-.18,2.439,2.439,0,0,0,.832-.5,2.141,2.141,0,0,0,.527-.773,2.618,2.618,0,0,0,.184-.992,2.125,2.125,0,0,0-.734-1.715,3.221,3.221,0,0,0-2.133-.621q-.227,0-.477.008t-.5.02q-.25.012-.488.027t-.434.039L59.968,5.8h5.18V6.953h-4.07l-.227,3.289q.25-.016.531-.027t.5-.012a5.028,5.028,0,0,1,1.594.234,3.377,3.377,0,0,1,1.191.668,2.8,2.8,0,0,1,.742,1.063A3.737,3.737,0,0,1,65.663,13.578Zm9.023-2.227a11.005,11.005,0,0,1-.254,2.492,5.807,5.807,0,0,1-.734,1.832,3.305,3.305,0,0,1-1.18,1.133,3.23,3.23,0,0,1-1.59.387,3.016,3.016,0,0,1-1.5-.371,3.152,3.152,0,0,1-1.113-1.082A5.484,5.484,0,0,1,67.624,14a10.8,10.8,0,0,1-.234-2.371,12.222,12.222,0,0,1,.246-2.594,5.933,5.933,0,0,1,.723-1.887A3.217,3.217,0,0,1,69.542,6a3.323,3.323,0,0,1,1.621-.387Q74.686,5.609,74.686,11.352Zm-1.312.125Q73.374,6.7,71.1,6.7q-2.4,0-2.4,4.867,0,4.539,2.352,4.539Q73.374,16.1,73.374,11.477Zm9.938-.125a11.005,11.005,0,0,1-.254,2.492,5.807,5.807,0,0,1-.734,1.832,3.305,3.305,0,0,1-1.18,1.133,3.23,3.23,0,0,1-1.59.387,3.016,3.016,0,0,1-1.5-.371,3.152,3.152,0,0,1-1.113-1.082A5.484,5.484,0,0,1,76.249,14a10.8,10.8,0,0,1-.234-2.371,12.222,12.222,0,0,1,.246-2.594,5.933,5.933,0,0,1,.723-1.887A3.217,3.217,0,0,1,78.167,6a3.323,3.323,0,0,1,1.621-.387Q83.311,5.609,83.311,11.352ZM82,11.477Q82,6.7,79.725,6.7q-2.4,0-2.4,4.867,0,4.539,2.352,4.539Q82,16.1,82,11.477ZM62.862,59.047H58.6V58.039h4.266Zm0,46H58.6v-1.008h4.266Zm0,46H58.6v-1.008h4.266Z" transform="translate(-4680 -1045.999)" fill="#12263f"/>
    <path id="Trazado_1054796" data-name="Trazado 1054796" d="M30.875,16.938v1.7h-.812V17a4.9,4.9,0,0,1-2.7-.672V14.969a3.661,3.661,0,0,0,1.238.668,4.528,4.528,0,0,0,1.465.27v-4a6.129,6.129,0,0,1-2.227-1.527,2.736,2.736,0,0,1-.508-1.652A2.763,2.763,0,0,1,28.1,6.77a3.2,3.2,0,0,1,1.961-.988V4.375h.813V5.75a4.324,4.324,0,0,1,2.117.438V7.516a3.549,3.549,0,0,0-2.117-.672v4.125a6.64,6.64,0,0,1,2.223,1.5,2.51,2.51,0,0,1,.6,1.645,2.545,2.545,0,0,1-.746,1.863A3.624,3.624,0,0,1,30.875,16.938Zm-.812-6.406V6.891a1.78,1.78,0,0,0-1.039.582,1.623,1.623,0,0,0-.383,1.09,1.826,1.826,0,0,0,.313,1.1A3.367,3.367,0,0,0,30.063,10.531Zm.813,1.781v3.531q1.508-.328,1.508-1.625Q32.383,13.141,30.875,12.313ZM41.328,5.8v7.4h1.438v1.172H41.328V17H40.063V14.367H34.8V13.258q.734-.828,1.484-1.77t1.434-1.91q.684-.969,1.266-1.934a17.672,17.672,0,0,0,.98-1.848Zm-5.086,7.4h3.82V7.711q-.586,1.023-1.109,1.828t-1,1.461q-.473.656-.9,1.188T36.242,13.2Zm8.813,3.977a.829.829,0,0,1-.613-.258.849.849,0,0,1-.254-.617.862.862,0,0,1,.254-.621.823.823,0,0,1,.613-.262.845.845,0,0,1,.625.262.855.855,0,0,1,.258.621.842.842,0,0,1-.258.617A.851.851,0,0,1,45.055,17.172Zm7.758-8.437a2.316,2.316,0,0,0-.16-.9,1.739,1.739,0,0,0-1.09-1.016A2.555,2.555,0,0,0,50.75,6.7a2.688,2.688,0,0,0-.734.1,3.57,3.57,0,0,0-.7.281,4.3,4.3,0,0,0-.656.43,4.74,4.74,0,0,0-.59.555V6.688a3.831,3.831,0,0,1,1.207-.8,4.25,4.25,0,0,1,1.629-.277,3.932,3.932,0,0,1,1.273.2,2.92,2.92,0,0,1,1.016.582,2.691,2.691,0,0,1,.676.945,3.188,3.188,0,0,1,.246,1.289,4.42,4.42,0,0,1-.152,1.2,3.721,3.721,0,0,1-.461,1.016,4.9,4.9,0,0,1-.777.914,11.011,11.011,0,0,1-1.1.891q-.789.563-1.3.961a5.75,5.75,0,0,0-.812.746,2.165,2.165,0,0,0-.422.7,2.43,2.43,0,0,0-.121.8h5.578V17H47.633v-.555a4.622,4.622,0,0,1,.156-1.266,3.286,3.286,0,0,1,.516-1.039,5.767,5.767,0,0,1,.941-.984q.582-.492,1.426-1.109a9.014,9.014,0,0,0,1.02-.836,4.346,4.346,0,0,0,.66-.8,2.862,2.862,0,0,0,.355-.809A3.486,3.486,0,0,0,52.813,8.734Zm3.3,5.141a2.981,2.981,0,0,1,.141-.895,3.24,3.24,0,0,1,.4-.84,3.33,3.33,0,0,1,.648-.711,3.091,3.091,0,0,1,.879-.508,3.322,3.322,0,0,1-1.156-1.043,2.466,2.466,0,0,1-.43-1.41,2.72,2.72,0,0,1,.238-1.141,2.748,2.748,0,0,1,.66-.906,3.052,3.052,0,0,1,1-.6,3.735,3.735,0,0,1,2.508,0,3.106,3.106,0,0,1,1,.6,2.7,2.7,0,0,1,.656.906,2.74,2.74,0,0,1,.234,1.133,2.466,2.466,0,0,1-.43,1.41,3.363,3.363,0,0,1-1.141,1.043,3.064,3.064,0,0,1,.867.508,3.379,3.379,0,0,1,.645.711,3.24,3.24,0,0,1,.4.84,2.981,2.981,0,0,1,.141.895,3.327,3.327,0,0,1-.266,1.344,3,3,0,0,1-.746,1.043,3.444,3.444,0,0,1-1.148.676,4.293,4.293,0,0,1-1.473.242,4.235,4.235,0,0,1-1.461-.242,3.5,3.5,0,0,1-1.148-.676,3.023,3.023,0,0,1-.754-1.043A3.285,3.285,0,0,1,56.109,13.875Zm1.391-.109a2.647,2.647,0,0,0,.16.945,2.038,2.038,0,0,0,.453.719,1.978,1.978,0,0,0,.711.457,2.568,2.568,0,0,0,.926.16,2.439,2.439,0,0,0,.906-.164,2.112,2.112,0,0,0,.715-.461,2.073,2.073,0,0,0,.469-.719,2.514,2.514,0,0,0,.168-.937,2.4,2.4,0,0,0-.16-.879,2.2,2.2,0,0,0-.457-.723,2.147,2.147,0,0,0-.711-.492,2.313,2.313,0,0,0-.93-.18,2.338,2.338,0,0,0-.895.168,2.14,2.14,0,0,0-.711.469,2.171,2.171,0,0,0-.473.719A2.391,2.391,0,0,0,57.5,13.766Zm.4-5.2a1.86,1.86,0,0,0,1.133,1.73,1.846,1.846,0,0,0,1.441,0,1.867,1.867,0,0,0,.59-.4,1.95,1.95,0,0,0,.4-.594,1.8,1.8,0,0,0,.148-.73,1.916,1.916,0,0,0-.145-.75A1.841,1.841,0,0,0,59.75,6.688,1.864,1.864,0,0,0,59,6.836a1.821,1.821,0,0,0-.586.4,1.759,1.759,0,0,0-.379.6A2.02,2.02,0,0,0,57.9,8.57ZM71.922,6.539q-.258.445-.621,1.109t-.77,1.492q-.406.828-.828,1.781t-.789,1.969q-.367,1.016-.645,2.059a15.315,15.315,0,0,0-.4,2.051H66.492a15.579,15.579,0,0,1,.434-2.043q.293-1.043.664-2.047t.785-1.934q.414-.93.8-1.711t.715-1.379q.324-.6.52-.934H64.8V5.8h7.125ZM74.4,17.172a.829.829,0,0,1-.613-.258.849.849,0,0,1-.254-.617.862.862,0,0,1,.254-.621.823.823,0,0,1,.613-.262.845.845,0,0,1,.625.262.855.855,0,0,1,.258.621.842.842,0,0,1-.258.617A.851.851,0,0,1,74.4,17.172Zm9.3-3.594a3.771,3.771,0,0,1-.281,1.484,3.245,3.245,0,0,1-.8,1.141,3.586,3.586,0,0,1-1.254.734,4.9,4.9,0,0,1-1.633.258,4.511,4.511,0,0,1-2.32-.469V15.367a4.266,4.266,0,0,0,2.336.734,3.161,3.161,0,0,0,1.1-.18,2.439,2.439,0,0,0,.832-.5,2.141,2.141,0,0,0,.527-.773,2.618,2.618,0,0,0,.184-.992,2.125,2.125,0,0,0-.734-1.715,3.221,3.221,0,0,0-2.133-.621q-.227,0-.477.008t-.5.02q-.25.012-.488.027t-.434.039L78,5.8h5.18V6.953h-4.07l-.227,3.289q.25-.016.531-.027t.5-.012a5.028,5.028,0,0,1,1.594.234,3.377,3.377,0,0,1,1.191.668,2.8,2.8,0,0,1,.742,1.063A3.737,3.737,0,0,1,83.7,13.578Zm9.023-2.227a11.005,11.005,0,0,1-.254,2.492,5.807,5.807,0,0,1-.734,1.832,3.305,3.305,0,0,1-1.18,1.133,3.23,3.23,0,0,1-1.59.387,3.016,3.016,0,0,1-1.5-.371,3.152,3.152,0,0,1-1.113-1.082A5.484,5.484,0,0,1,85.656,14a10.8,10.8,0,0,1-.234-2.371,12.222,12.222,0,0,1,.246-2.594,5.933,5.933,0,0,1,.723-1.887A3.217,3.217,0,0,1,87.574,6,3.323,3.323,0,0,1,89.2,5.609Q92.719,5.609,92.719,11.352Zm-1.312.125q0-4.781-2.273-4.781-2.4,0-2.4,4.867,0,4.539,2.352,4.539Q91.406,16.1,91.406,11.477Zm9.938-.125a11.005,11.005,0,0,1-.254,2.492,5.807,5.807,0,0,1-.734,1.832,3.305,3.305,0,0,1-1.18,1.133,3.23,3.23,0,0,1-1.59.387,3.016,3.016,0,0,1-1.5-.371,3.152,3.152,0,0,1-1.113-1.082A5.484,5.484,0,0,1,94.281,14a10.8,10.8,0,0,1-.234-2.371,12.222,12.222,0,0,1,.246-2.594,5.933,5.933,0,0,1,.723-1.887A3.217,3.217,0,0,1,96.2,6a3.323,3.323,0,0,1,1.621-.387Q101.344,5.609,101.344,11.352Zm-1.312.125q0-4.781-2.273-4.781-2.4,0-2.4,4.867,0,4.539,2.352,4.539Q100.031,16.1,100.031,11.477Zm.961,47.57H96.727V58.039h4.266Zm0,46H96.727v-1.008h4.266Zm0,46H96.727v-1.008h4.266Z" transform="translate(-4549 -1045.999)" fill="#12263f"/>
    <path id="Trazado_1054797" data-name="Trazado 1054797" d="M2.191-3.953H-2.074V-4.961H2.191Zm0,46H-2.074V41.039H2.191Zm0,46H-2.074V87.039H2.191Zm0,46H-2.074v-1.008H2.191Z" transform="translate(-4287 -1030.999)" fill="#12263f"/>
    <path id="Trazado_1054842" data-name="Trazado 1054842" d="M25.106,17H23.825V7.32a2.966,2.966,0,0,1-.434.34,7.068,7.068,0,0,1-.641.379q-.355.188-.75.352a5.451,5.451,0,0,1-.77.258v-1.3a7.448,7.448,0,0,0,.895-.316q.473-.2.93-.445t.863-.516a6.854,6.854,0,0,0,.7-.527h.484Zm9-8.266a2.316,2.316,0,0,0-.16-.9,1.739,1.739,0,0,0-1.09-1.016,2.555,2.555,0,0,0-.812-.125,2.688,2.688,0,0,0-.734.1,3.57,3.57,0,0,0-.7.281,4.3,4.3,0,0,0-.656.43,4.74,4.74,0,0,0-.59.555V6.688a3.831,3.831,0,0,1,1.207-.8A4.25,4.25,0,0,1,32.2,5.609a3.932,3.932,0,0,1,1.273.2,2.92,2.92,0,0,1,1.016.582,2.691,2.691,0,0,1,.676.945,3.188,3.188,0,0,1,.246,1.289,4.42,4.42,0,0,1-.152,1.2,3.721,3.721,0,0,1-.461,1.016,4.9,4.9,0,0,1-.777.914,11.011,11.011,0,0,1-1.1.891q-.789.563-1.3.961a5.75,5.75,0,0,0-.812.746,2.165,2.165,0,0,0-.422.7,2.431,2.431,0,0,0-.121.8h5.578V17H28.927v-.555a4.622,4.622,0,0,1,.156-1.266,3.286,3.286,0,0,1,.516-1.039,5.767,5.767,0,0,1,.941-.984q.582-.492,1.426-1.109a9.014,9.014,0,0,0,1.02-.836,4.346,4.346,0,0,0,.66-.8A2.862,2.862,0,0,0,34,9.605,3.486,3.486,0,0,0,34.106,8.734Zm4.336,8.438a.829.829,0,0,1-.613-.258.849.849,0,0,1-.254-.617.862.862,0,0,1,.254-.621.823.823,0,0,1,.613-.262.845.845,0,0,1,.625.262.855.855,0,0,1,.258.621.842.842,0,0,1-.258.617A.851.851,0,0,1,38.442,17.172Zm9.3-3.594a3.771,3.771,0,0,1-.281,1.484,3.245,3.245,0,0,1-.8,1.141,3.586,3.586,0,0,1-1.254.734,4.9,4.9,0,0,1-1.633.258,4.511,4.511,0,0,1-2.32-.469V15.367a4.266,4.266,0,0,0,2.336.734,3.161,3.161,0,0,0,1.1-.18,2.439,2.439,0,0,0,.832-.5,2.141,2.141,0,0,0,.527-.773,2.618,2.618,0,0,0,.184-.992,2.125,2.125,0,0,0-.734-1.715,3.221,3.221,0,0,0-2.133-.621q-.227,0-.477.008t-.5.02q-.25.012-.488.027t-.434.039L42.044,5.8h5.18V6.953h-4.07l-.227,3.289q.25-.016.531-.027t.5-.012a5.028,5.028,0,0,1,1.594.234,3.377,3.377,0,0,1,1.191.668,2.8,2.8,0,0,1,.742,1.063A3.737,3.737,0,0,1,47.739,13.578Zm9.023-2.227a11.005,11.005,0,0,1-.254,2.492,5.807,5.807,0,0,1-.734,1.832,3.305,3.305,0,0,1-1.18,1.133A3.23,3.23,0,0,1,53,17.2a3.016,3.016,0,0,1-1.5-.371,3.152,3.152,0,0,1-1.113-1.082A5.484,5.484,0,0,1,49.7,14a10.8,10.8,0,0,1-.234-2.371,12.222,12.222,0,0,1,.246-2.594,5.933,5.933,0,0,1,.723-1.887A3.216,3.216,0,0,1,51.618,6a3.323,3.323,0,0,1,1.621-.387Q56.762,5.609,56.762,11.352Zm-1.312.125q0-4.781-2.273-4.781-2.4,0-2.4,4.867,0,4.539,2.352,4.539Q55.45,16.1,55.45,11.477Zm9.938-.125a11.005,11.005,0,0,1-.254,2.492,5.807,5.807,0,0,1-.734,1.832,3.305,3.305,0,0,1-1.18,1.133,3.23,3.23,0,0,1-1.59.387,3.016,3.016,0,0,1-1.5-.371,3.152,3.152,0,0,1-1.113-1.082A5.484,5.484,0,0,1,58.325,14a10.8,10.8,0,0,1-.234-2.371,12.222,12.222,0,0,1,.246-2.594,5.933,5.933,0,0,1,.723-1.887A3.216,3.216,0,0,1,60.243,6a3.323,3.323,0,0,1,1.621-.387Q65.387,5.609,65.387,11.352Zm-1.312.125Q64.075,6.7,61.8,6.7q-2.4,0-2.4,4.867,0,4.539,2.352,4.539Q64.075,16.1,64.075,11.477Zm4.438,3.742-1.25,3.844h-.914l.914-3.844Zm8.969-3.867a11.005,11.005,0,0,1-.254,2.492,5.807,5.807,0,0,1-.734,1.832,3.305,3.305,0,0,1-1.18,1.133,3.23,3.23,0,0,1-1.59.387,3.016,3.016,0,0,1-1.5-.371,3.152,3.152,0,0,1-1.113-1.082A5.484,5.484,0,0,1,70.419,14a10.8,10.8,0,0,1-.234-2.371,12.222,12.222,0,0,1,.246-2.594,5.933,5.933,0,0,1,.723-1.887A3.217,3.217,0,0,1,72.337,6a3.323,3.323,0,0,1,1.621-.387Q77.481,5.609,77.481,11.352Zm-1.312.125Q76.169,6.7,73.9,6.7q-2.4,0-2.4,4.867,0,4.539,2.352,4.539Q76.169,16.1,76.169,11.477Zm9.938-.125a11.005,11.005,0,0,1-.254,2.492,5.807,5.807,0,0,1-.734,1.832,3.305,3.305,0,0,1-1.18,1.133,3.23,3.23,0,0,1-1.59.387,3.016,3.016,0,0,1-1.5-.371,3.152,3.152,0,0,1-1.113-1.082A5.484,5.484,0,0,1,79.044,14a10.8,10.8,0,0,1-.234-2.371,12.222,12.222,0,0,1,.246-2.594,5.933,5.933,0,0,1,.723-1.887A3.217,3.217,0,0,1,80.962,6a3.323,3.323,0,0,1,1.621-.387Q86.106,5.609,86.106,11.352Zm-1.312.125q0-4.781-2.273-4.781-2.4,0-2.4,4.867,0,4.539,2.352,4.539Q84.794,16.1,84.794,11.477Z" transform="translate(-4238 -1047)" fill="#12263f"/>
    <path id="Trazado_1054843" data-name="Trazado 1054843" d="M2.191-3.953H-2.074V-4.961H2.191Zm0,46H-2.074V41.039H2.191Zm0,46H-2.074V87.039H2.191Z" transform="translate(-4185.439 -984.637)" fill="#12263f"/>
    <path id="Trazado_1054844" data-name="Trazado 1054844" d="M29.5,16.938v1.7h-.812V17a4.9,4.9,0,0,1-2.7-.672V14.969a3.661,3.661,0,0,0,1.238.668,4.528,4.528,0,0,0,1.465.27v-4a6.129,6.129,0,0,1-2.227-1.527,2.736,2.736,0,0,1-.508-1.652,2.763,2.763,0,0,1,.773-1.957,3.2,3.2,0,0,1,1.961-.988V4.375H29.5V5.75a4.324,4.324,0,0,1,2.117.438V7.516A3.549,3.549,0,0,0,29.5,6.844v4.125a6.64,6.64,0,0,1,2.223,1.5,2.51,2.51,0,0,1,.6,1.645,2.545,2.545,0,0,1-.746,1.863A3.624,3.624,0,0,1,29.5,16.938Zm-.812-6.406V6.891a1.78,1.78,0,0,0-1.039.582,1.623,1.623,0,0,0-.383,1.09,1.826,1.826,0,0,0,.313,1.1A3.367,3.367,0,0,0,28.685,10.531Zm.813,1.781v3.531q1.508-.328,1.508-1.625Q31.005,13.141,29.5,12.313ZM39.951,5.8v7.4h1.438v1.172H39.951V17H38.685V14.367H33.419V13.258q.734-.828,1.484-1.77t1.434-1.91q.684-.969,1.266-1.934a17.672,17.672,0,0,0,.98-1.848Zm-5.086,7.4h3.82V7.711Q38.1,8.734,37.576,9.539T36.58,11q-.473.656-.9,1.188T34.865,13.2Zm8.813,3.977a.829.829,0,0,1-.613-.258.849.849,0,0,1-.254-.617.862.862,0,0,1,.254-.621.823.823,0,0,1,.613-.262.845.845,0,0,1,.625.262.855.855,0,0,1,.258.621.842.842,0,0,1-.258.617A.851.851,0,0,1,43.677,17.172Zm7.758-8.437a2.316,2.316,0,0,0-.16-.9,1.739,1.739,0,0,0-1.09-1.016,2.555,2.555,0,0,0-.812-.125,2.688,2.688,0,0,0-.734.1,3.57,3.57,0,0,0-.7.281,4.3,4.3,0,0,0-.656.43,4.74,4.74,0,0,0-.59.555V6.688a3.831,3.831,0,0,1,1.207-.8,4.25,4.25,0,0,1,1.629-.277,3.932,3.932,0,0,1,1.273.2,2.92,2.92,0,0,1,1.016.582,2.691,2.691,0,0,1,.676.945,3.188,3.188,0,0,1,.246,1.289,4.42,4.42,0,0,1-.152,1.2,3.721,3.721,0,0,1-.461,1.016,4.9,4.9,0,0,1-.777.914,11.011,11.011,0,0,1-1.1.891q-.789.563-1.3.961a5.75,5.75,0,0,0-.812.746,2.165,2.165,0,0,0-.422.7,2.43,2.43,0,0,0-.121.8h5.578V17H46.255v-.555a4.622,4.622,0,0,1,.156-1.266,3.286,3.286,0,0,1,.516-1.039,5.767,5.767,0,0,1,.941-.984q.582-.492,1.426-1.109a9.014,9.014,0,0,0,1.02-.836,4.346,4.346,0,0,0,.66-.8,2.862,2.862,0,0,0,.355-.809A3.486,3.486,0,0,0,51.435,8.734Zm3.3,5.141a2.981,2.981,0,0,1,.141-.895,3.24,3.24,0,0,1,.4-.84,3.33,3.33,0,0,1,.648-.711,3.091,3.091,0,0,1,.879-.508,3.322,3.322,0,0,1-1.156-1.043,2.466,2.466,0,0,1-.43-1.41,2.72,2.72,0,0,1,.238-1.141,2.748,2.748,0,0,1,.66-.906,3.052,3.052,0,0,1,1-.6,3.735,3.735,0,0,1,2.508,0,3.106,3.106,0,0,1,1,.6,2.7,2.7,0,0,1,.656.906,2.74,2.74,0,0,1,.234,1.133,2.466,2.466,0,0,1-.43,1.41,3.363,3.363,0,0,1-1.141,1.043,3.064,3.064,0,0,1,.867.508,3.379,3.379,0,0,1,.645.711,3.24,3.24,0,0,1,.4.84,2.981,2.981,0,0,1,.141.895,3.327,3.327,0,0,1-.266,1.344,3,3,0,0,1-.746,1.043,3.444,3.444,0,0,1-1.148.676,4.293,4.293,0,0,1-1.473.242,4.235,4.235,0,0,1-1.461-.242,3.5,3.5,0,0,1-1.148-.676A3.023,3.023,0,0,1,55,15.219,3.285,3.285,0,0,1,54.732,13.875Zm1.391-.109a2.647,2.647,0,0,0,.16.945,2.038,2.038,0,0,0,.453.719,1.978,1.978,0,0,0,.711.457,2.568,2.568,0,0,0,.926.16,2.439,2.439,0,0,0,.906-.164,2.112,2.112,0,0,0,.715-.461,2.073,2.073,0,0,0,.469-.719,2.514,2.514,0,0,0,.168-.937,2.4,2.4,0,0,0-.16-.879,2.2,2.2,0,0,0-.457-.723,2.147,2.147,0,0,0-.711-.492,2.313,2.313,0,0,0-.93-.18,2.338,2.338,0,0,0-.895.168,2.14,2.14,0,0,0-.711.469,2.171,2.171,0,0,0-.473.719A2.391,2.391,0,0,0,56.123,13.766Zm.4-5.2a1.86,1.86,0,0,0,1.133,1.73,1.846,1.846,0,0,0,1.441,0,1.867,1.867,0,0,0,.59-.4,1.95,1.95,0,0,0,.4-.594,1.8,1.8,0,0,0,.148-.73,1.916,1.916,0,0,0-.145-.75,1.841,1.841,0,0,0-1.715-1.133,1.864,1.864,0,0,0-.754.148,1.821,1.821,0,0,0-.586.4,1.759,1.759,0,0,0-.379.6A2.02,2.02,0,0,0,56.521,8.57ZM70.544,6.539q-.258.445-.621,1.109t-.77,1.492q-.406.828-.828,1.781t-.789,1.969q-.367,1.016-.645,2.059A15.315,15.315,0,0,0,66.49,17H65.115a15.579,15.579,0,0,1,.434-2.043q.293-1.043.664-2.047T67,10.977q.414-.93.8-1.711t.715-1.379q.324-.6.52-.934H63.419V5.8h7.125Zm2.477,10.633a.829.829,0,0,1-.613-.258.849.849,0,0,1-.254-.617.862.862,0,0,1,.254-.621.823.823,0,0,1,.613-.262.845.845,0,0,1,.625.262.855.855,0,0,1,.258.621.842.842,0,0,1-.258.617A.851.851,0,0,1,73.021,17.172Zm9.3-3.594a3.771,3.771,0,0,1-.281,1.484,3.245,3.245,0,0,1-.8,1.141,3.586,3.586,0,0,1-1.254.734,4.9,4.9,0,0,1-1.633.258,4.511,4.511,0,0,1-2.32-.469V15.367a4.266,4.266,0,0,0,2.336.734,3.161,3.161,0,0,0,1.1-.18,2.439,2.439,0,0,0,.832-.5,2.141,2.141,0,0,0,.527-.773,2.618,2.618,0,0,0,.184-.992,2.125,2.125,0,0,0-.734-1.715,3.221,3.221,0,0,0-2.133-.621q-.227,0-.477.008t-.5.02q-.25.012-.488.027t-.434.039L76.623,5.8H81.8V6.953h-4.07l-.227,3.289q.25-.016.531-.027t.5-.012a5.028,5.028,0,0,1,1.594.234,3.377,3.377,0,0,1,1.191.668,2.8,2.8,0,0,1,.742,1.063A3.737,3.737,0,0,1,82.318,13.578Zm9.023-2.227a11.005,11.005,0,0,1-.254,2.492,5.807,5.807,0,0,1-.734,1.832,3.305,3.305,0,0,1-1.18,1.133,3.23,3.23,0,0,1-1.59.387,3.016,3.016,0,0,1-1.5-.371,3.152,3.152,0,0,1-1.113-1.082A5.484,5.484,0,0,1,84.279,14a10.8,10.8,0,0,1-.234-2.371,12.222,12.222,0,0,1,.246-2.594,5.933,5.933,0,0,1,.723-1.887A3.217,3.217,0,0,1,86.2,6a3.323,3.323,0,0,1,1.621-.387Q91.341,5.609,91.341,11.352Zm-1.312.125q0-4.781-2.273-4.781-2.4,0-2.4,4.867,0,4.539,2.352,4.539Q90.029,16.1,90.029,11.477Zm9.938-.125a11.005,11.005,0,0,1-.254,2.492,5.807,5.807,0,0,1-.734,1.832,3.305,3.305,0,0,1-1.18,1.133,3.23,3.23,0,0,1-1.59.387,3.016,3.016,0,0,1-1.5-.371,3.152,3.152,0,0,1-1.113-1.082A5.484,5.484,0,0,1,92.9,14a10.8,10.8,0,0,1-.234-2.371,12.222,12.222,0,0,1,.246-2.594,5.933,5.933,0,0,1,.723-1.887A3.217,3.217,0,0,1,94.822,6a3.323,3.323,0,0,1,1.621-.387Q99.966,5.609,99.966,11.352Zm-1.312.125q0-4.781-2.273-4.781-2.4,0-2.4,4.867,0,4.539,2.352,4.539Q98.654,16.1,98.654,11.477Zm4.438,3.742-1.25,3.844h-.914l.914-3.844Zm8.969-3.867a11.005,11.005,0,0,1-.254,2.492,5.807,5.807,0,0,1-.734,1.832,3.305,3.305,0,0,1-1.18,1.133,3.23,3.23,0,0,1-1.59.387,3.016,3.016,0,0,1-1.5-.371,3.152,3.152,0,0,1-1.113-1.082A5.484,5.484,0,0,1,105,14a10.8,10.8,0,0,1-.234-2.371,12.222,12.222,0,0,1,.246-2.594,5.933,5.933,0,0,1,.723-1.887A3.217,3.217,0,0,1,106.916,6a3.323,3.323,0,0,1,1.621-.387Q112.06,5.609,112.06,11.352Zm-1.312.125q0-4.781-2.273-4.781-2.4,0-2.4,4.867,0,4.539,2.352,4.539Q110.748,16.1,110.748,11.477Zm9.938-.125a11.005,11.005,0,0,1-.254,2.492,5.807,5.807,0,0,1-.734,1.832,3.305,3.305,0,0,1-1.18,1.133,3.23,3.23,0,0,1-1.59.387,3.016,3.016,0,0,1-1.5-.371,3.152,3.152,0,0,1-1.113-1.082A5.484,5.484,0,0,1,113.623,14a10.8,10.8,0,0,1-.234-2.371,12.222,12.222,0,0,1,.246-2.594,5.933,5.933,0,0,1,.723-1.887A3.217,3.217,0,0,1,115.541,6a3.323,3.323,0,0,1,1.621-.387Q120.685,5.609,120.685,11.352Zm-1.312.125q0-4.781-2.273-4.781-2.4,0-2.4,4.867,0,4.539,2.352,4.539Q119.373,16.1,119.373,11.477Z" transform="translate(-3963.487 -1047)" fill="#12263f"/>
    <path id="Trazado_1054845" data-name="Trazado 1054845" d="M2.191-3.953H-2.074V-4.961H2.191Zm0,46H-2.074V41.039H2.191Zm0,46H-2.074V87.039H2.191Z" transform="translate(-3844.487 -984.977)" fill="#12263f"/>
  </g>
</svg>
