<svg xmlns="http://www.w3.org/2000/svg" width="1239.949" height="367.629" viewBox="0 0 1239.949 367.629">
  <g id="Grupo_1180997" data-name="Grupo 1180997" transform="translate(7019.025 -6100.188)">
    <path id="Trazado_1054776" data-name="Trazado 1054776" d="M0,0H1238.275V40H0Z" transform="translate(-7018.801 6100.188)" fill="#fd9826"/>
    <path id="Trazado_1054777" data-name="Trazado 1054777" d="M-21,0h-3.187l-3.266-4.867a4.665,4.665,0,0,1-.3-.617h-.039V0h-2.523V-11.2h2.523v5.3h.039q.094-.219.313-.625l3.094-4.672h3.008l-3.906,5.344Zm10.922,0h-2.75l-.8-2.492h-3.984L-18.4,0h-2.734l4.078-11.2h2.992Zm-4.125-4.43L-15.41-8.2A4.907,4.907,0,0,1-15.6-9.2h-.062a4.273,4.273,0,0,1-.2.977l-1.219,3.8ZM.715,0h-2.9L-3.926-2.883q-.2-.328-.375-.586a3.255,3.255,0,0,0-.363-.441,1.445,1.445,0,0,0-.383-.281.972.972,0,0,0-.434-.1h-.68V0H-8.684V-11.2h4q4.078,0,4.078,3.047a3.155,3.155,0,0,1-.18,1.082,3.006,3.006,0,0,1-.508.895,3.219,3.219,0,0,1-.793.688,4.089,4.089,0,0,1-1.035.453v.031a1.606,1.606,0,0,1,.484.254,3.468,3.468,0,0,1,.453.41,5.722,5.722,0,0,1,.418.5q.2.27.363.527ZM-6.16-9.312V-6.2h1.094a1.813,1.813,0,0,0,1.3-.469,1.564,1.564,0,0,0,.5-1.18q0-1.469-1.758-1.469ZM1.762,0V-11.2H5.73q5.969,0,5.969,5.461a5.522,5.522,0,0,1-1.629,4.18A6.007,6.007,0,0,1,5.73,0ZM4.285-9.148v7.1h1.25a3.378,3.378,0,0,0,2.574-.984,3.735,3.735,0,0,0,.934-2.68,3.388,3.388,0,0,0-.926-2.52,3.529,3.529,0,0,0-2.6-.918ZM20.277,0H13.559V-11.2H20.02v2.055H16.082v2.492h3.664v2.047H16.082v2.563h4.2ZM31.543,0H28.551l-1.93-3.648a3.2,3.2,0,0,1-.227-.75h-.031a5.678,5.678,0,0,1-.258.781L24.168,0H21.16l3.57-5.6-3.266-5.6h3.07l1.6,3.359a5.8,5.8,0,0,1,.336.945H26.5q.094-.328.352-.977L28.637-11.2h2.813L28.09-5.648Z" transform="translate(-6954.895 6125.688)" fill="#12263f"/>
    <path id="Trazado_1034209" data-name="Trazado 1034209" d="M0,0H1239.225V327.625H0Z" transform="translate(-7018.301 6140.191)" fill="#fff"/>
    <path id="Trazado_1034207" data-name="Trazado 1034207" d="M0,0" transform="translate(-7018.301 6447.012)" fill="none" stroke="#e1e1e1" stroke-width="1"/>
    <path id="Trazado_899679" data-name="Trazado 899679" d="M1160,0" transform="translate(-6939.076 6294.555)" fill="none" stroke="#e1e1e1" stroke-width="1"/>
    <path id="Trazado_1054766" data-name="Trazado 1054766" d="M8.375,8.734a2.316,2.316,0,0,0-.16-.9A1.739,1.739,0,0,0,7.125,6.82,2.555,2.555,0,0,0,6.313,6.7a2.688,2.688,0,0,0-.734.1,3.57,3.57,0,0,0-.7.281,4.3,4.3,0,0,0-.656.43,4.74,4.74,0,0,0-.59.555V6.688a3.831,3.831,0,0,1,1.207-.8,4.25,4.25,0,0,1,1.629-.277,3.932,3.932,0,0,1,1.273.2,2.92,2.92,0,0,1,1.016.582,2.691,2.691,0,0,1,.676.945A3.188,3.188,0,0,1,9.68,8.625a4.42,4.42,0,0,1-.152,1.2,3.721,3.721,0,0,1-.461,1.016,4.9,4.9,0,0,1-.777.914,11.011,11.011,0,0,1-1.1.891q-.789.563-1.3.961a5.75,5.75,0,0,0-.812.746,2.165,2.165,0,0,0-.422.7,2.43,2.43,0,0,0-.121.8h5.578V17H3.2v-.555a4.622,4.622,0,0,1,.156-1.266,3.286,3.286,0,0,1,.516-1.039,5.767,5.767,0,0,1,.941-.984q.582-.492,1.426-1.109a9.014,9.014,0,0,0,1.02-.836,4.346,4.346,0,0,0,.66-.8,2.862,2.862,0,0,0,.355-.809A3.486,3.486,0,0,0,8.375,8.734Zm4.336,8.438a.829.829,0,0,1-.613-.258.849.849,0,0,1-.254-.617.862.862,0,0,1,.254-.621.823.823,0,0,1,.613-.262.845.845,0,0,1,.625.262.855.855,0,0,1,.258.621.842.842,0,0,1-.258.617A.851.851,0,0,1,12.711,17.172Zm9.7-5.82a11.005,11.005,0,0,1-.254,2.492,5.807,5.807,0,0,1-.734,1.832,3.305,3.305,0,0,1-1.18,1.133,3.23,3.23,0,0,1-1.59.387,3.016,3.016,0,0,1-1.5-.371,3.152,3.152,0,0,1-1.113-1.082A5.484,5.484,0,0,1,15.344,14a10.8,10.8,0,0,1-.234-2.371,12.222,12.222,0,0,1,.246-2.594,5.933,5.933,0,0,1,.723-1.887A3.216,3.216,0,0,1,17.262,6a3.323,3.323,0,0,1,1.621-.387Q22.406,5.609,22.406,11.352Zm-1.312.125q0-4.781-2.273-4.781-2.4,0-2.4,4.867,0,4.539,2.352,4.539Q21.094,16.1,21.094,11.477Zm9.938-.125a11.005,11.005,0,0,1-.254,2.492,5.807,5.807,0,0,1-.734,1.832,3.305,3.305,0,0,1-1.18,1.133,3.23,3.23,0,0,1-1.59.387,3.016,3.016,0,0,1-1.5-.371,3.152,3.152,0,0,1-1.113-1.082A5.484,5.484,0,0,1,23.969,14a10.8,10.8,0,0,1-.234-2.371,12.222,12.222,0,0,1,.246-2.594A5.933,5.933,0,0,1,24.7,7.145,3.216,3.216,0,0,1,25.887,6a3.323,3.323,0,0,1,1.621-.387Q31.031,5.609,31.031,11.352Zm-1.312.125q0-4.781-2.273-4.781-2.4,0-2.4,4.867,0,4.539,2.352,4.539Q29.719,16.1,29.719,11.477Zm9.938-.125a11.005,11.005,0,0,1-.254,2.492,5.807,5.807,0,0,1-.734,1.832,3.305,3.305,0,0,1-1.18,1.133,3.23,3.23,0,0,1-1.59.387,3.016,3.016,0,0,1-1.5-.371,3.152,3.152,0,0,1-1.113-1.082A5.484,5.484,0,0,1,32.594,14a10.8,10.8,0,0,1-.234-2.371,12.222,12.222,0,0,1,.246-2.594,5.933,5.933,0,0,1,.723-1.887A3.216,3.216,0,0,1,34.512,6a3.323,3.323,0,0,1,1.621-.387Q39.656,5.609,39.656,11.352Zm-1.312.125q0-4.781-2.273-4.781-2.4,0-2.4,4.867,0,4.539,2.352,4.539Q38.344,16.1,38.344,11.477Zm3.711,5.7a.829.829,0,0,1-.613-.258.849.849,0,0,1-.254-.617.862.862,0,0,1,.254-.621.823.823,0,0,1,.613-.262.845.845,0,0,1,.625.262.855.855,0,0,1,.258.621.842.842,0,0,1-.258.617A.851.851,0,0,1,42.055,17.172Zm9.7-5.82a11.005,11.005,0,0,1-.254,2.492,5.807,5.807,0,0,1-.734,1.832,3.305,3.305,0,0,1-1.18,1.133,3.23,3.23,0,0,1-1.59.387,3.016,3.016,0,0,1-1.5-.371,3.152,3.152,0,0,1-1.113-1.082A5.484,5.484,0,0,1,44.688,14a10.8,10.8,0,0,1-.234-2.371A12.222,12.222,0,0,1,44.7,9.031a5.933,5.933,0,0,1,.723-1.887A3.216,3.216,0,0,1,46.605,6a3.323,3.323,0,0,1,1.621-.387Q51.75,5.609,51.75,11.352Zm-1.312.125q0-4.781-2.273-4.781-2.4,0-2.4,4.867,0,4.539,2.352,4.539Q50.438,16.1,50.438,11.477Zm9.938-.125a11.005,11.005,0,0,1-.254,2.492,5.807,5.807,0,0,1-.734,1.832,3.305,3.305,0,0,1-1.18,1.133,3.23,3.23,0,0,1-1.59.387,3.016,3.016,0,0,1-1.5-.371A3.152,3.152,0,0,1,54,15.742,5.484,5.484,0,0,1,53.313,14a10.8,10.8,0,0,1-.234-2.371,12.222,12.222,0,0,1,.246-2.594,5.933,5.933,0,0,1,.723-1.887A3.216,3.216,0,0,1,55.23,6a3.323,3.323,0,0,1,1.621-.387Q60.375,5.609,60.375,11.352Zm-1.312.125q0-4.781-2.273-4.781-2.4,0-2.4,4.867,0,4.539,2.352,4.539Q59.063,16.1,59.063,11.477ZM69,11.352a11.005,11.005,0,0,1-.254,2.492,5.807,5.807,0,0,1-.734,1.832,3.305,3.305,0,0,1-1.18,1.133,3.23,3.23,0,0,1-1.59.387,3.016,3.016,0,0,1-1.5-.371,3.152,3.152,0,0,1-1.113-1.082A5.484,5.484,0,0,1,61.938,14a10.8,10.8,0,0,1-.234-2.371,12.222,12.222,0,0,1,.246-2.594,5.933,5.933,0,0,1,.723-1.887A3.216,3.216,0,0,1,63.855,6a3.323,3.323,0,0,1,1.621-.387Q69,5.609,69,11.352Zm-1.312.125q0-4.781-2.273-4.781-2.4,0-2.4,4.867,0,4.539,2.352,4.539Q67.688,16.1,67.688,11.477Z" transform="translate(-5905.014 6154.82)" fill="#12263f"/>
    <path id="Trazado_1035690" data-name="Trazado 1035690" d="M0,0H1239.225V20.615H0Z" transform="translate(-7018.301 6263.592)" fill="#f6f6f6"/>
    <path id="Trazado_1035688" data-name="Trazado 1035688" d="M0,0H1238.152V54.311H0Z" transform="translate(-7018.352 6187.766)" fill="#f6f6f6"/>
    <path id="Trazado_1054772" data-name="Trazado 1054772" d="M3.8,13.141V17H1.281V5.8H5.234q4.234,0,4.234,3.57A3.426,3.426,0,0,1,8.254,12.1a4.813,4.813,0,0,1-3.246,1.043Zm0-5.406v3.492H4.8q2.016,0,2.016-1.766,0-1.727-2.016-1.727ZM20.508,17h-2.9l-1.742-2.883q-.2-.328-.375-.586a3.255,3.255,0,0,0-.363-.441,1.445,1.445,0,0,0-.383-.281.972.972,0,0,0-.434-.1h-.68V17H11.109V5.8h4q4.078,0,4.078,3.047a3.155,3.155,0,0,1-.18,1.082,3.006,3.006,0,0,1-.508.895,3.219,3.219,0,0,1-.793.688,4.089,4.089,0,0,1-1.035.453v.031a1.606,1.606,0,0,1,.484.254,3.469,3.469,0,0,1,.453.41,5.722,5.722,0,0,1,.418.5q.2.27.363.527ZM13.633,7.688V10.8h1.094a1.813,1.813,0,0,0,1.3-.469,1.564,1.564,0,0,0,.5-1.18q0-1.469-1.758-1.469Zm12.5,9.508a5.215,5.215,0,0,1-3.922-1.566A5.624,5.624,0,0,1,20.7,11.547a6.026,6.026,0,0,1,1.539-4.3,5.328,5.328,0,0,1,4.078-1.641,5.085,5.085,0,0,1,3.879,1.57,5.79,5.79,0,0,1,1.48,4.141,5.929,5.929,0,0,1-1.535,4.258A5.269,5.269,0,0,1,26.133,17.2Zm.109-9.414a2.54,2.54,0,0,0-2.109,1,4.153,4.153,0,0,0-.781,2.637,4.077,4.077,0,0,0,.781,2.633,2.7,2.7,0,0,0,4.117.027,4.032,4.032,0,0,0,.766-2.613,4.369,4.369,0,0,0-.742-2.711A2.42,2.42,0,0,0,26.242,7.781ZM42.859,5.8,39,17H36.141L32.328,5.8h2.719l2.336,7.8a5.584,5.584,0,0,1,.227,1.117h.047a6.314,6.314,0,0,1,.242-1.148L40.219,5.8ZM50.922,17H44.2V5.8h6.461V7.852H46.727v2.492h3.664v2.047H46.727v2.563h4.2Zm8.516,0H52.719V5.8H59.18V7.852H55.242v2.492h3.664v2.047H55.242v2.563h4.2Zm1.8,0V5.8H65.2q5.969,0,5.969,5.461a5.522,5.522,0,0,1-1.629,4.18A6.007,6.007,0,0,1,65.2,17Zm2.523-9.148v7.1h1.25a3.378,3.378,0,0,0,2.574-.984,3.735,3.735,0,0,0,.934-2.68,3.388,3.388,0,0,0-.926-2.52,3.529,3.529,0,0,0-2.6-.918ZM77.766,17.2a5.215,5.215,0,0,1-3.922-1.566,5.624,5.624,0,0,1-1.516-4.082,6.026,6.026,0,0,1,1.539-4.3,5.328,5.328,0,0,1,4.078-1.641,5.085,5.085,0,0,1,3.879,1.57A5.79,5.79,0,0,1,83.3,11.32a5.929,5.929,0,0,1-1.535,4.258A5.269,5.269,0,0,1,77.766,17.2Zm.109-9.414a2.54,2.54,0,0,0-2.109,1,4.153,4.153,0,0,0-.781,2.637,4.077,4.077,0,0,0,.781,2.633,2.7,2.7,0,0,0,4.117.027,4.032,4.032,0,0,0,.766-2.613,4.369,4.369,0,0,0-.742-2.711A2.42,2.42,0,0,0,77.875,7.781ZM94.563,17h-2.9l-1.742-2.883q-.2-.328-.375-.586a3.255,3.255,0,0,0-.363-.441,1.445,1.445,0,0,0-.383-.281.972.972,0,0,0-.434-.1h-.68V17H85.164V5.8h4q4.078,0,4.078,3.047a3.155,3.155,0,0,1-.18,1.082,3.006,3.006,0,0,1-.508.895,3.219,3.219,0,0,1-.793.688,4.089,4.089,0,0,1-1.035.453v.031a1.606,1.606,0,0,1,.484.254,3.469,3.469,0,0,1,.453.41,5.722,5.722,0,0,1,.418.5q.2.27.363.527ZM87.688,7.688V10.8h1.094a1.813,1.813,0,0,0,1.3-.469,1.564,1.564,0,0,0,.5-1.18q0-1.469-1.758-1.469ZM102.328,17H95.609V5.8h6.461V7.852H98.133v2.492H101.8v2.047H98.133v2.563h4.2Zm1.281-.43v-2.5a4.8,4.8,0,0,0,1.477.855,4.746,4.746,0,0,0,1.609.285,3.569,3.569,0,0,0,.832-.086,1.949,1.949,0,0,0,.594-.238,1.039,1.039,0,0,0,.355-.359.9.9,0,0,0,.117-.449.971.971,0,0,0-.187-.586,2.018,2.018,0,0,0-.512-.477,5.347,5.347,0,0,0-.77-.422q-.445-.2-.961-.414a4.9,4.9,0,0,1-1.957-1.336,2.917,2.917,0,0,1-.645-1.906,3.036,3.036,0,0,1,.352-1.5,2.986,2.986,0,0,1,.957-1.035,4.291,4.291,0,0,1,1.4-.6,7.206,7.206,0,0,1,1.688-.191,10.15,10.15,0,0,1,1.551.105,6.1,6.1,0,0,1,1.246.324V8.375a3.768,3.768,0,0,0-.613-.344,4.859,4.859,0,0,0-.684-.246,5.214,5.214,0,0,0-.7-.145,4.949,4.949,0,0,0-.66-.047,3.443,3.443,0,0,0-.781.082,2,2,0,0,0-.594.23,1.147,1.147,0,0,0-.375.355.843.843,0,0,0-.133.465.888.888,0,0,0,.148.5,1.7,1.7,0,0,0,.422.422,4.477,4.477,0,0,0,.664.391q.391.191.883.395a9.838,9.838,0,0,1,1.207.6,4.291,4.291,0,0,1,.918.715,2.785,2.785,0,0,1,.586.91,3.216,3.216,0,0,1,.2,1.191,3.191,3.191,0,0,1-.355,1.574,2.886,2.886,0,0,1-.965,1.031,4.184,4.184,0,0,1-1.418.566,8.2,8.2,0,0,1-1.707.172,9.492,9.492,0,0,1-1.754-.156A5.3,5.3,0,0,1,103.609,16.57Z" transform="translate(-6996.852 6207.084)" fill="#12263f"/>
    <path id="Trazado_1054762" data-name="Trazado 1054762" d="M10.414,12.148q0,5.047-4.7,5.047-4.563,0-4.562-4.93V5.8H3.68v6.5q0,2.719,2.125,2.719,2.086,0,2.086-2.625V5.8h2.523ZM22.93,17H20.383L15.766,9.961a10.179,10.179,0,0,1-.562-.93h-.031q.063.594.063,1.813V17H12.852V5.8H15.57l4.445,6.82q.3.461.563.914h.031a11.978,11.978,0,0,1-.062-1.539V5.8H22.93Zm5.086,0H25.492V5.8h2.523Zm2.547,0V5.8h3.969q5.969,0,5.969,5.461a5.522,5.522,0,0,1-1.629,4.18A6.007,6.007,0,0,1,34.531,17Zm2.523-9.148v7.1h1.25a3.378,3.378,0,0,0,2.574-.984,3.735,3.735,0,0,0,.934-2.68,3.388,3.388,0,0,0-.926-2.52,3.529,3.529,0,0,0-2.6-.918ZM51.969,17h-2.75l-.8-2.492H44.438L43.648,17H40.914L44.992,5.8h2.992Zm-4.125-4.43L46.641,8.8A4.907,4.907,0,0,1,46.453,7.8h-.062a4.273,4.273,0,0,1-.2.977l-1.219,3.8ZM53.367,17V5.8h3.969q5.969,0,5.969,5.461a5.522,5.522,0,0,1-1.629,4.18A6.007,6.007,0,0,1,57.336,17Zm2.523-9.148v7.1h1.25a3.378,3.378,0,0,0,2.574-.984,3.735,3.735,0,0,0,.934-2.68,3.388,3.388,0,0,0-.926-2.52,3.529,3.529,0,0,0-2.6-.918Z" transform="translate(-6058.742 6203.873)" fill="#12263f"/>
    <path id="Trazado_1054763" data-name="Trazado 1054763" d="M10.477,16.25A8.063,8.063,0,0,1,6.4,17.2a5.9,5.9,0,0,1-4.262-1.5A5.443,5.443,0,0,1,.578,11.578a5.753,5.753,0,0,1,1.7-4.3A6.205,6.205,0,0,1,6.813,5.609,9.2,9.2,0,0,1,9.953,6.1V8.469a6.242,6.242,0,0,0-3.172-.75,3.405,3.405,0,0,0-2.559,1.02,3.745,3.745,0,0,0-.988,2.723,3.756,3.756,0,0,0,.887,2.672,3.125,3.125,0,0,0,2.395.945,3.333,3.333,0,0,0,1.438-.258V12.633H5.711V10.617h4.766ZM22.055,17h-2.9l-1.742-2.883q-.2-.328-.375-.586a3.255,3.255,0,0,0-.363-.441,1.445,1.445,0,0,0-.383-.281.972.972,0,0,0-.434-.1h-.68V17H12.656V5.8h4q4.078,0,4.078,3.047a3.155,3.155,0,0,1-.18,1.082,3.006,3.006,0,0,1-.508.895,3.219,3.219,0,0,1-.793.688,4.089,4.089,0,0,1-1.035.453v.031a1.606,1.606,0,0,1,.484.254,3.469,3.469,0,0,1,.453.41,5.722,5.722,0,0,1,.418.5q.2.27.363.527ZM15.18,7.688V10.8h1.094a1.813,1.813,0,0,0,1.3-.469,1.564,1.564,0,0,0,.5-1.18q0-1.469-1.758-1.469ZM32.953,17H30.2l-.8-2.492H25.422L24.633,17H21.9L25.977,5.8h2.992Zm-4.125-4.43L27.625,8.8A4.907,4.907,0,0,1,27.438,7.8h-.062a4.273,4.273,0,0,1-.2.977l-1.219,3.8ZM47.117,17H44.625V10.3q0-1.086.094-2.4h-.062A11.8,11.8,0,0,1,44.3,9.383L41.68,17H39.617L36.945,9.461A14.67,14.67,0,0,1,36.594,7.9h-.07q.1,1.656.1,2.906V17H34.352V5.8h3.7l2.289,6.641a9.35,9.35,0,0,1,.4,1.6h.047a16.127,16.127,0,0,1,.445-1.617L43.516,5.8h3.6Zm7.281.2a5.215,5.215,0,0,1-3.922-1.566,5.624,5.624,0,0,1-1.516-4.082A6.026,6.026,0,0,1,50.5,7.25a5.328,5.328,0,0,1,4.078-1.641,5.085,5.085,0,0,1,3.879,1.57,5.79,5.79,0,0,1,1.48,4.141A5.929,5.929,0,0,1,58.4,15.578,5.269,5.269,0,0,1,54.4,17.2Zm.109-9.414a2.54,2.54,0,0,0-2.109,1,4.153,4.153,0,0,0-.781,2.637,4.077,4.077,0,0,0,.781,2.633,2.7,2.7,0,0,0,4.117.027,4.032,4.032,0,0,0,.766-2.613,4.369,4.369,0,0,0-.742-2.711A2.42,2.42,0,0,0,54.508,7.781Z" transform="translate(-5903.014 6205.421)" fill="#12263f"/>
    <path id="Trazado_1054761" data-name="Trazado 1054761" d="M15.332,13.141V17H12.809V5.8h3.953Q21,5.8,21,9.367a3.426,3.426,0,0,1-1.215,2.73,4.813,4.813,0,0,1-3.246,1.043Zm0-5.406v3.492h.992q2.016,0,2.016-1.766,0-1.727-2.016-1.727ZM32.035,17h-2.9l-1.742-2.883q-.2-.328-.375-.586a3.255,3.255,0,0,0-.363-.441,1.445,1.445,0,0,0-.383-.281.972.972,0,0,0-.434-.1h-.68V17H22.637V5.8h4q4.078,0,4.078,3.047a3.155,3.155,0,0,1-.18,1.082,3.006,3.006,0,0,1-.508.895,3.219,3.219,0,0,1-.793.688,4.089,4.089,0,0,1-1.035.453v.031a1.606,1.606,0,0,1,.484.254,3.469,3.469,0,0,1,.453.41,5.722,5.722,0,0,1,.418.5q.2.27.363.527ZM25.16,7.688V10.8h1.094a1.813,1.813,0,0,0,1.3-.469,1.564,1.564,0,0,0,.5-1.18q0-1.469-1.758-1.469ZM37.66,17.2a5.215,5.215,0,0,1-3.922-1.566,5.624,5.624,0,0,1-1.516-4.082,6.026,6.026,0,0,1,1.539-4.3A5.328,5.328,0,0,1,37.84,5.609a5.085,5.085,0,0,1,3.879,1.57A5.79,5.79,0,0,1,43.2,11.32a5.929,5.929,0,0,1-1.535,4.258A5.269,5.269,0,0,1,37.66,17.2Zm.109-9.414a2.54,2.54,0,0,0-2.109,1,4.153,4.153,0,0,0-.781,2.637,4.077,4.077,0,0,0,.781,2.633,2.7,2.7,0,0,0,4.117.027,4.032,4.032,0,0,0,.766-2.613A4.369,4.369,0,0,0,39.8,8.75,2.42,2.42,0,0,0,37.77,7.781ZM45.059,17V5.8h3.969Q55,5.8,55,11.258a5.522,5.522,0,0,1-1.629,4.18A6.007,6.007,0,0,1,49.027,17Zm2.523-9.148v7.1h1.25a3.378,3.378,0,0,0,2.574-.984,3.735,3.735,0,0,0,.934-2.68,3.388,3.388,0,0,0-.926-2.52,3.529,3.529,0,0,0-2.6-.918Zm18.406,4.3q0,5.047-4.7,5.047-4.563,0-4.562-4.93V5.8h2.531v6.5q0,2.719,2.125,2.719,2.086,0,2.086-2.625V5.8h2.523ZM76.457,16.6a7.388,7.388,0,0,1-3.2.594A5.4,5.4,0,0,1,69.2,15.68a5.54,5.54,0,0,1-1.477-4.039,5.919,5.919,0,0,1,1.66-4.359,5.807,5.807,0,0,1,4.309-1.672,8.058,8.058,0,0,1,2.766.414v2.43a4.9,4.9,0,0,0-2.562-.672,3.4,3.4,0,0,0-2.547.992,3.682,3.682,0,0,0-.969,2.688,3.611,3.611,0,0,0,.914,2.59,3.229,3.229,0,0,0,2.461.965,5.249,5.249,0,0,0,2.7-.719Zm9.508,0a7.388,7.388,0,0,1-3.2.594,5.4,5.4,0,0,1-4.055-1.516,5.54,5.54,0,0,1-1.477-4.039,5.919,5.919,0,0,1,1.66-4.359A5.807,5.807,0,0,1,83.2,5.609a8.058,8.058,0,0,1,2.766.414v2.43A4.9,4.9,0,0,0,83.4,7.781a3.4,3.4,0,0,0-2.547.992,3.682,3.682,0,0,0-.969,2.688,3.611,3.611,0,0,0,.914,2.59,3.229,3.229,0,0,0,2.461.965,5.249,5.249,0,0,0,2.7-.719Zm4.477.4H87.918V5.8h2.523Zm7.281.2A5.215,5.215,0,0,1,93.8,15.629a5.624,5.624,0,0,1-1.516-4.082,6.026,6.026,0,0,1,1.539-4.3A5.328,5.328,0,0,1,97.9,5.609a5.085,5.085,0,0,1,3.879,1.57,5.79,5.79,0,0,1,1.48,4.141,5.929,5.929,0,0,1-1.535,4.258A5.269,5.269,0,0,1,97.723,17.2Zm.109-9.414a2.54,2.54,0,0,0-2.109,1,4.153,4.153,0,0,0-.781,2.637,4.077,4.077,0,0,0,.781,2.633,2.7,2.7,0,0,0,4.117.027,4.032,4.032,0,0,0,.766-2.613,4.369,4.369,0,0,0-.742-2.711A2.42,2.42,0,0,0,97.832,7.781Zm2.547-5.547L97.934,4.758H96.152l2.031-2.523ZM115.191,17h-2.547l-4.617-7.039a10.178,10.178,0,0,1-.562-.93h-.031q.062.594.063,1.813V17h-2.383V5.8h2.719l4.445,6.82q.3.461.563.914h.031a11.979,11.979,0,0,1-.062-1.539V5.8h2.383ZM32.836,41H30.313V29.8h2.523Zm12.625,0H42.914L38.3,33.961a10.18,10.18,0,0,1-.562-.93H37.7q.063.594.063,1.813V41H35.383V29.8H38.1l4.445,6.82q.3.461.563.914h.031a11.978,11.978,0,0,1-.062-1.539V29.8h2.383Zm10.43-9.148H52.7V41H50.164V31.852h-3.18V29.8h8.906ZM64.117,41H57.4V29.8h6.461v2.055H59.922v2.492h3.664v2.047H59.922v2.563h4.2Zm11.2,0h-2.9l-1.742-2.883q-.2-.328-.375-.586a3.255,3.255,0,0,0-.363-.441,1.445,1.445,0,0,0-.383-.281.972.972,0,0,0-.434-.1h-.68V41H65.914V29.8h4q4.078,0,4.078,3.047a3.155,3.155,0,0,1-.18,1.082,3.006,3.006,0,0,1-.508.895,3.219,3.219,0,0,1-.793.688,4.09,4.09,0,0,1-1.035.453v.031a1.606,1.606,0,0,1,.484.254,3.469,3.469,0,0,1,.453.41,5.722,5.722,0,0,1,.418.5q.2.27.363.527Zm-6.875-9.312V34.8h1.094a1.813,1.813,0,0,0,1.3-.469,1.564,1.564,0,0,0,.5-1.18q0-1.469-1.758-1.469Zm18,9.313H83.891l-4.617-7.039a10.178,10.178,0,0,1-.562-.93H78.68q.062.594.063,1.813V41H76.359V29.8h2.719l4.445,6.82q.3.461.563.914h.031a11.979,11.979,0,0,1-.062-1.539V29.8h2.383Zm12.414,0H96.1l-.8-2.492H91.32L90.531,41H87.8l4.078-11.2h2.992Zm-4.125-4.43-1.2-3.766a4.908,4.908,0,0,1-.187-1.008h-.062a4.273,4.273,0,0,1-.2.977l-1.219,3.8Z" transform="translate(-6842.309 6194.34)" fill="#12263f"/>
    <path id="Trazado_1054756" data-name="Trazado 1054756" d="M0,0V164" transform="translate(-6694.45 6140.191)" fill="none" stroke="#e1e1e1" stroke-width="1"/>
    <path id="Trazado_1054752" data-name="Trazado 1054752" d="M0,0V164" transform="translate(-6566.041 6140.191)" fill="none" stroke="#e1e1e1" stroke-width="1"/>
    <path id="Trazado_1054749" data-name="Trazado 1054749" d="M0,0V164" transform="translate(-6325.91 6140.191)" fill="none" stroke="#e1e1e1" stroke-width="1"/>
    <path id="Trazado_1054750" data-name="Trazado 1054750" d="M.086,0,0,162.448" transform="translate(-6105.872 6140.191)" fill="none" stroke="#e1e1e1" stroke-width="1"/>
    <path id="Trazado_1054751" data-name="Trazado 1054751" d="M0,0,.6,163.5" transform="translate(-5955.673 6140.191)" fill="none" stroke="#e1e1e1" stroke-width="1"/>
    <path id="Trazado_1054744" data-name="Trazado 1054744" d="M1238.275,0H0" transform="translate(-7018.301 6336.555)" fill="none" stroke="#e1e1e1" stroke-width="1"/>
    <path id="Trazado_1054731" data-name="Trazado 1054731" d="M0,0H1238.826V44.895H0Z" transform="translate(-7018.576 6337.875)" fill="#e8e8e8"/>
    <path id="Trazado_1054725" data-name="Trazado 1054725" d="M0,0H1238.826V39.895H0Z" transform="translate(-7019.025 6427.922)" fill="#f6f6f6"/>
    <path id="Trazado_1054767" data-name="Trazado 1054767" d="M0,0V326.574" transform="translate(-6860.51 6140.19)" fill="none" stroke="#e1e1e1" stroke-width="1"/>
    <path id="Trazado_1054732" data-name="Trazado 1054732" d="M1.769,0,0,326.732" transform="translate(-6220.209 6140.19)" fill="none" stroke="#e1e1e1" stroke-width="1"/>
    <path id="Trazado_1054773" data-name="Trazado 1054773" d="M43.094,7.852H39.141V10.6h3.633v2.047H39.141V17H36.617V5.8h6.477ZM51.656,17H44.938V5.8H51.4V7.852H47.461v2.492h3.664v2.047H47.461v2.563h4.2Zm9.828-.4a7.388,7.388,0,0,1-3.2.594,5.4,5.4,0,0,1-4.055-1.516,5.54,5.54,0,0,1-1.477-4.039,5.919,5.919,0,0,1,1.66-4.359,5.807,5.807,0,0,1,4.309-1.672,8.058,8.058,0,0,1,2.766.414v2.43a4.9,4.9,0,0,0-2.562-.672,3.4,3.4,0,0,0-2.547.992,3.682,3.682,0,0,0-.969,2.688,3.611,3.611,0,0,0,.914,2.59,3.229,3.229,0,0,0,2.461.965,5.249,5.249,0,0,0,2.7-.719Zm11.648.4H70.6V12.438H65.961V17H63.438V5.8h2.523v4.469H70.6V5.8h2.531Zm12.414,0H82.8L82,14.508H78.016L77.227,17H74.492L78.57,5.8h2.992Zm-4.125-4.43L80.219,8.8A4.908,4.908,0,0,1,80.031,7.8h-.062a4.273,4.273,0,0,1-.2.977l-1.219,3.8Z" transform="translate(-6999.975 6351.82)" fill="#12263f"/>
    <path id="Trazado_1054758" data-name="Trazado 1054758" d="M9.566,17V5.8h3.969q5.969,0,5.969,5.461a5.522,5.522,0,0,1-1.629,4.18A6.007,6.007,0,0,1,13.535,17ZM12.09,7.852v7.1h1.25a3.378,3.378,0,0,0,2.574-.984,3.735,3.735,0,0,0,.934-2.68,3.388,3.388,0,0,0-.926-2.52,3.529,3.529,0,0,0-2.6-.918ZM28.082,17H21.363V5.8h6.461V7.852H23.887v2.492h3.664v2.047H23.887v2.563h4.2Zm1.281-.43v-2.5a4.8,4.8,0,0,0,1.477.855,4.746,4.746,0,0,0,1.609.285,3.569,3.569,0,0,0,.832-.086,1.949,1.949,0,0,0,.594-.238,1.039,1.039,0,0,0,.355-.359.9.9,0,0,0,.117-.449.971.971,0,0,0-.187-.586,2.018,2.018,0,0,0-.512-.477,5.347,5.347,0,0,0-.77-.422q-.445-.2-.961-.414a4.9,4.9,0,0,1-1.957-1.336,2.917,2.917,0,0,1-.645-1.906,3.036,3.036,0,0,1,.352-1.5A2.986,2.986,0,0,1,30.625,6.4a4.291,4.291,0,0,1,1.4-.6,7.206,7.206,0,0,1,1.688-.191,10.15,10.15,0,0,1,1.551.105,6.1,6.1,0,0,1,1.246.324V8.375a3.768,3.768,0,0,0-.613-.344,4.859,4.859,0,0,0-.684-.246,5.214,5.214,0,0,0-.7-.145,4.949,4.949,0,0,0-.66-.047,3.443,3.443,0,0,0-.781.082,2,2,0,0,0-.594.23,1.147,1.147,0,0,0-.375.355.843.843,0,0,0-.133.465.888.888,0,0,0,.148.5,1.7,1.7,0,0,0,.422.422,4.477,4.477,0,0,0,.664.391q.391.191.883.395a9.837,9.837,0,0,1,1.207.6,4.291,4.291,0,0,1,.918.715,2.785,2.785,0,0,1,.586.91,3.216,3.216,0,0,1,.2,1.191,3.191,3.191,0,0,1-.355,1.574,2.886,2.886,0,0,1-.965,1.031,4.184,4.184,0,0,1-1.418.566,8.2,8.2,0,0,1-1.707.172,9.492,9.492,0,0,1-1.754-.156A5.3,5.3,0,0,1,29.363,16.57Zm17.516.031a7.388,7.388,0,0,1-3.2.594,5.4,5.4,0,0,1-4.055-1.516,5.54,5.54,0,0,1-1.477-4.039A5.919,5.919,0,0,1,39.8,7.281a5.807,5.807,0,0,1,4.309-1.672,8.058,8.058,0,0,1,2.766.414v2.43a4.9,4.9,0,0,0-2.562-.672,3.4,3.4,0,0,0-2.547.992,3.682,3.682,0,0,0-.969,2.688,3.611,3.611,0,0,0,.914,2.59,3.229,3.229,0,0,0,2.461.965,5.249,5.249,0,0,0,2.7-.719ZM58.23,17h-2.9L53.59,14.117q-.2-.328-.375-.586a3.255,3.255,0,0,0-.363-.441,1.445,1.445,0,0,0-.383-.281.972.972,0,0,0-.434-.1h-.68V17H48.832V5.8h4q4.078,0,4.078,3.047a3.155,3.155,0,0,1-.18,1.082,3.006,3.006,0,0,1-.508.895,3.219,3.219,0,0,1-.793.688,4.089,4.089,0,0,1-1.035.453v.031a1.606,1.606,0,0,1,.484.254,3.468,3.468,0,0,1,.453.41,5.723,5.723,0,0,1,.418.5q.2.27.363.527ZM51.355,7.688V10.8h1.094a1.813,1.813,0,0,0,1.3-.469,1.564,1.564,0,0,0,.5-1.18q0-1.469-1.758-1.469ZM61.8,17H59.277V5.8H61.8Zm5.07-3.859V17H64.348V5.8H68.3q4.234,0,4.234,3.57A3.426,3.426,0,0,1,71.32,12.1a4.813,4.813,0,0,1-3.246,1.043Zm0-5.406v3.492h.992q2.016,0,2.016-1.766,0-1.727-2.016-1.727ZM82.207,16.6A7.388,7.388,0,0,1,79,17.2a5.4,5.4,0,0,1-4.055-1.516,5.54,5.54,0,0,1-1.477-4.039,5.919,5.919,0,0,1,1.66-4.359,5.807,5.807,0,0,1,4.309-1.672,8.058,8.058,0,0,1,2.766.414v2.43a4.9,4.9,0,0,0-2.562-.672,3.4,3.4,0,0,0-2.547.992,3.682,3.682,0,0,0-.969,2.688,3.611,3.611,0,0,0,.914,2.59,3.229,3.229,0,0,0,2.461.965,5.249,5.249,0,0,0,2.7-.719Zm4.477.4H84.16V5.8h2.523Zm7.281.2a5.215,5.215,0,0,1-3.922-1.566,5.624,5.624,0,0,1-1.516-4.082,6.026,6.026,0,0,1,1.539-4.3,5.328,5.328,0,0,1,4.078-1.641,5.085,5.085,0,0,1,3.879,1.57A5.79,5.79,0,0,1,99.5,11.32a5.929,5.929,0,0,1-1.535,4.258A5.269,5.269,0,0,1,93.965,17.2Zm.109-9.414a2.54,2.54,0,0,0-2.109,1,4.153,4.153,0,0,0-.781,2.637,4.077,4.077,0,0,0,.781,2.633,2.7,2.7,0,0,0,4.117.027,4.032,4.032,0,0,0,.766-2.613,4.369,4.369,0,0,0-.742-2.711A2.42,2.42,0,0,0,94.074,7.781Zm2.547-5.547L94.176,4.758H92.395l2.031-2.523ZM111.434,17h-2.547L104.27,9.961a10.178,10.178,0,0,1-.562-.93h-.031q.062.594.063,1.813V17h-2.383V5.8h2.719l4.445,6.82q.3.461.563.914h.031a11.979,11.979,0,0,1-.062-1.539V5.8h2.383Z" transform="translate(-6835.974 6351.82)" fill="#12263f"/>
    <path id="Trazado_1054759" data-name="Trazado 1054759" d="M45.668,7.852h-3.2V17H39.941V7.852h-3.18V5.8h8.906ZM51.316,17.2a5.215,5.215,0,0,1-3.922-1.566,5.624,5.624,0,0,1-1.516-4.082,6.026,6.026,0,0,1,1.539-4.3A5.328,5.328,0,0,1,51.5,5.609a5.085,5.085,0,0,1,3.879,1.57,5.79,5.79,0,0,1,1.48,4.141,5.929,5.929,0,0,1-1.535,4.258A5.269,5.269,0,0,1,51.316,17.2Zm.109-9.414a2.54,2.54,0,0,0-2.109,1,4.153,4.153,0,0,0-.781,2.637,4.077,4.077,0,0,0,.781,2.633,2.7,2.7,0,0,0,4.117.027,4.032,4.032,0,0,0,.766-2.613,4.369,4.369,0,0,0-.742-2.711A2.42,2.42,0,0,0,51.426,7.781Zm14.516.07h-3.2V17H60.215V7.852h-3.18V5.8h8.906ZM76.184,17h-2.75l-.8-2.492H68.652L67.863,17H65.129L69.207,5.8H72.2Zm-4.125-4.43L70.855,8.8A4.908,4.908,0,0,1,70.668,7.8h-.062a4.273,4.273,0,0,1-.2.977l-1.219,3.8ZM84.254,17H77.582V5.8h2.523v9.156h4.148Z" transform="translate(-6835.974 6439.128)" fill="#12263f"/>
    <path id="Trazado_1054753" data-name="Trazado 1054753" d="M28.352,16.6a7.388,7.388,0,0,1-3.2.594,5.4,5.4,0,0,1-4.055-1.516,5.54,5.54,0,0,1-1.477-4.039,5.919,5.919,0,0,1,1.66-4.359,5.807,5.807,0,0,1,4.309-1.672,8.058,8.058,0,0,1,2.766.414v2.43a4.9,4.9,0,0,0-2.562-.672,3.4,3.4,0,0,0-2.547.992,3.682,3.682,0,0,0-.969,2.688,3.611,3.611,0,0,0,.914,2.59,3.229,3.229,0,0,0,2.461.965,5.249,5.249,0,0,0,2.7-.719Zm11.8.4h-2.75l-.8-2.492H32.625L31.836,17H29.1L33.18,5.8h2.992Zm-4.125-4.43L34.828,8.8A4.907,4.907,0,0,1,34.641,7.8h-.062a4.273,4.273,0,0,1-.2.977l-1.219,3.8ZM51.633,17H49.086L44.469,9.961a10.18,10.18,0,0,1-.562-.93h-.031q.063.594.063,1.813V17H41.555V5.8h2.719l4.445,6.82q.3.461.563.914h.031a11.978,11.978,0,0,1-.062-1.539V5.8h2.383Zm10.43-9.148h-3.2V17H56.336V7.852h-3.18V5.8h8.906ZM66.094,17H63.57V5.8h2.523Zm2.547,0V5.8h3.969q5.969,0,5.969,5.461a5.522,5.522,0,0,1-1.629,4.18A6.007,6.007,0,0,1,72.609,17Zm2.523-9.148v7.1h1.25a3.378,3.378,0,0,0,2.574-.984,3.735,3.735,0,0,0,.934-2.68A3.388,3.388,0,0,0,75,8.77a3.529,3.529,0,0,0-2.6-.918ZM90.047,17H87.3l-.8-2.492H82.516L81.727,17H78.992L83.07,5.8h2.992Zm-4.125-4.43L84.719,8.8A4.908,4.908,0,0,1,84.531,7.8h-.062a4.273,4.273,0,0,1-.2.977l-1.219,3.8ZM91.445,17V5.8h3.969q5.969,0,5.969,5.461a5.522,5.522,0,0,1-1.629,4.18A6.007,6.007,0,0,1,95.414,17Zm2.523-9.148v7.1h1.25a3.378,3.378,0,0,0,2.574-.984,3.735,3.735,0,0,0,.934-2.68A3.388,3.388,0,0,0,97.8,8.77a3.529,3.529,0,0,0-2.6-.918Z" transform="translate(-6691.975 6351.82)" fill="#12263f"/>
    <path id="Trazado_1054746" data-name="Trazado 1054746" d="M21.883,5.8,18.023,17H15.164L11.352,5.8H14.07l2.336,7.8a5.584,5.584,0,0,1,.227,1.117h.047a6.315,6.315,0,0,1,.242-1.148L19.242,5.8ZM32.25,17H29.5l-.8-2.492H24.719L23.93,17H21.2L25.273,5.8h2.992Zm-4.125-4.43L26.922,8.8A4.907,4.907,0,0,1,26.734,7.8h-.062a4.273,4.273,0,0,1-.2.977l-1.219,3.8ZM40.32,17H33.648V5.8h2.523v9.156H40.32Zm5.844.2a5.215,5.215,0,0,1-3.922-1.566,5.624,5.624,0,0,1-1.516-4.082,6.026,6.026,0,0,1,1.539-4.3,5.328,5.328,0,0,1,4.078-1.641,5.085,5.085,0,0,1,3.879,1.57A5.79,5.79,0,0,1,51.7,11.32a5.929,5.929,0,0,1-1.535,4.258A5.269,5.269,0,0,1,46.164,17.2Zm.109-9.414a2.54,2.54,0,0,0-2.109,1,4.153,4.153,0,0,0-.781,2.637,4.077,4.077,0,0,0,.781,2.633,2.7,2.7,0,0,0,4.117.027,4.032,4.032,0,0,0,.766-2.613A4.369,4.369,0,0,0,48.3,8.75,2.42,2.42,0,0,0,46.273,7.781ZM62.961,17h-2.9L58.32,14.117q-.2-.328-.375-.586a3.255,3.255,0,0,0-.363-.441,1.445,1.445,0,0,0-.383-.281.972.972,0,0,0-.434-.1h-.68V17H53.563V5.8h4q4.078,0,4.078,3.047a3.155,3.155,0,0,1-.18,1.082,3.006,3.006,0,0,1-.508.895,3.219,3.219,0,0,1-.793.688,4.089,4.089,0,0,1-1.035.453v.031a1.606,1.606,0,0,1,.484.254,3.468,3.468,0,0,1,.453.41,5.723,5.723,0,0,1,.418.5q.2.27.363.527ZM56.086,7.688V10.8H57.18a1.813,1.813,0,0,0,1.3-.469,1.564,1.564,0,0,0,.5-1.18q0-1.469-1.758-1.469ZM24.375,25.852h-3.2V35H18.648V25.852h-3.18V23.8h8.906ZM30.023,35.2A5.215,5.215,0,0,1,26.1,33.629a5.624,5.624,0,0,1-1.516-4.082,6.026,6.026,0,0,1,1.539-4.3A5.328,5.328,0,0,1,30.2,23.609a5.085,5.085,0,0,1,3.879,1.57,5.79,5.79,0,0,1,1.48,4.141,5.929,5.929,0,0,1-1.535,4.258A5.269,5.269,0,0,1,30.023,35.2Zm.109-9.414a2.54,2.54,0,0,0-2.109,1,4.153,4.153,0,0,0-.781,2.637,4.077,4.077,0,0,0,.781,2.633,2.7,2.7,0,0,0,4.117.027,4.032,4.032,0,0,0,.766-2.613,4.369,4.369,0,0,0-.742-2.711A2.42,2.42,0,0,0,30.133,25.781Zm14.516.07h-3.2V35H38.922V25.852h-3.18V23.8h8.906ZM54.891,35h-2.75l-.8-2.492H47.359L46.57,35H43.836l4.078-11.2h2.992Zm-4.125-4.43-1.2-3.766a4.907,4.907,0,0,1-.187-1.008h-.062a4.273,4.273,0,0,1-.2.977L47.9,30.57ZM62.961,35H56.289V23.8h2.523v9.156h4.148Z" transform="translate(-6534.781 6342.82)" fill="#12263f"/>
    <path id="Trazado_1054735" data-name="Trazado 1054735" d="M21.883,5.8,18.023,17H15.164L11.352,5.8H14.07l2.336,7.8a5.584,5.584,0,0,1,.227,1.117h.047a6.315,6.315,0,0,1,.242-1.148L19.242,5.8ZM32.25,17H29.5l-.8-2.492H24.719L23.93,17H21.2L25.273,5.8h2.992Zm-4.125-4.43L26.922,8.8A4.907,4.907,0,0,1,26.734,7.8h-.062a4.273,4.273,0,0,1-.2.977l-1.219,3.8ZM40.32,17H33.648V5.8h2.523v9.156H40.32Zm5.844.2a5.215,5.215,0,0,1-3.922-1.566,5.624,5.624,0,0,1-1.516-4.082,6.026,6.026,0,0,1,1.539-4.3,5.328,5.328,0,0,1,4.078-1.641,5.085,5.085,0,0,1,3.879,1.57A5.79,5.79,0,0,1,51.7,11.32a5.929,5.929,0,0,1-1.535,4.258A5.269,5.269,0,0,1,46.164,17.2Zm.109-9.414a2.54,2.54,0,0,0-2.109,1,4.153,4.153,0,0,0-.781,2.637,4.077,4.077,0,0,0,.781,2.633,2.7,2.7,0,0,0,4.117.027,4.032,4.032,0,0,0,.766-2.613A4.369,4.369,0,0,0,48.3,8.75,2.42,2.42,0,0,0,46.273,7.781ZM62.961,17h-2.9L58.32,14.117q-.2-.328-.375-.586a3.255,3.255,0,0,0-.363-.441,1.445,1.445,0,0,0-.383-.281.972.972,0,0,0-.434-.1h-.68V17H53.563V5.8h4q4.078,0,4.078,3.047a3.155,3.155,0,0,1-.18,1.082,3.006,3.006,0,0,1-.508.895,3.219,3.219,0,0,1-.793.688,4.089,4.089,0,0,1-1.035.453v.031a1.606,1.606,0,0,1,.484.254,3.468,3.468,0,0,1,.453.41,5.723,5.723,0,0,1,.418.5q.2.27.363.527ZM56.086,7.688V10.8H57.18a1.813,1.813,0,0,0,1.3-.469,1.564,1.564,0,0,0,.5-1.18q0-1.469-1.758-1.469ZM24.375,25.852h-3.2V35H18.648V25.852h-3.18V23.8h8.906ZM30.023,35.2A5.215,5.215,0,0,1,26.1,33.629a5.624,5.624,0,0,1-1.516-4.082,6.026,6.026,0,0,1,1.539-4.3A5.328,5.328,0,0,1,30.2,23.609a5.085,5.085,0,0,1,3.879,1.57,5.79,5.79,0,0,1,1.48,4.141,5.929,5.929,0,0,1-1.535,4.258A5.269,5.269,0,0,1,30.023,35.2Zm.109-9.414a2.54,2.54,0,0,0-2.109,1,4.153,4.153,0,0,0-.781,2.637,4.077,4.077,0,0,0,.781,2.633,2.7,2.7,0,0,0,4.117.027,4.032,4.032,0,0,0,.766-2.613,4.369,4.369,0,0,0-.742-2.711A2.42,2.42,0,0,0,30.133,25.781Zm14.516.07h-3.2V35H38.922V25.852h-3.18V23.8h8.906ZM54.891,35h-2.75l-.8-2.492H47.359L46.57,35H43.836l4.078-11.2h2.992Zm-4.125-4.43-1.2-3.766a4.907,4.907,0,0,1-.187-1.008h-.062a4.273,4.273,0,0,1-.2.977L47.9,30.57ZM62.961,35H56.289V23.8h2.523v9.156h4.148Z" transform="translate(-6311.608 6342.82)" fill="#12263f"/>
    <path id="Trazado_1054736" data-name="Trazado 1054736" d="M19.7,5.8,15.836,17H12.977L9.164,5.8h2.719l2.336,7.8a5.584,5.584,0,0,1,.227,1.117h.047a6.315,6.315,0,0,1,.242-1.148L17.055,5.8ZM30.063,17h-2.75l-.8-2.492H22.531L21.742,17H19.008L23.086,5.8h2.992Zm-4.125-4.43L24.734,8.8A4.907,4.907,0,0,1,24.547,7.8h-.062a4.273,4.273,0,0,1-.2.977l-1.219,3.8ZM38.133,17H31.461V5.8h2.523v9.156h4.148Zm5.844.2a5.215,5.215,0,0,1-3.922-1.566,5.624,5.624,0,0,1-1.516-4.082,6.026,6.026,0,0,1,1.539-4.3,5.328,5.328,0,0,1,4.078-1.641,5.085,5.085,0,0,1,3.879,1.57,5.79,5.79,0,0,1,1.48,4.141,5.929,5.929,0,0,1-1.535,4.258A5.269,5.269,0,0,1,43.977,17.2Zm.109-9.414a2.54,2.54,0,0,0-2.109,1,4.153,4.153,0,0,0-.781,2.637,4.077,4.077,0,0,0,.781,2.633,2.7,2.7,0,0,0,4.117.027,4.032,4.032,0,0,0,.766-2.613,4.369,4.369,0,0,0-.742-2.711A2.42,2.42,0,0,0,44.086,7.781ZM60.773,17h-2.9l-1.742-2.883q-.2-.328-.375-.586a3.255,3.255,0,0,0-.363-.441,1.445,1.445,0,0,0-.383-.281.972.972,0,0,0-.434-.1H53.9V17H51.375V5.8h4q4.078,0,4.078,3.047a3.155,3.155,0,0,1-.18,1.082,3.006,3.006,0,0,1-.508.895,3.219,3.219,0,0,1-.793.688,4.089,4.089,0,0,1-1.035.453v.031a1.606,1.606,0,0,1,.484.254,3.468,3.468,0,0,1,.453.41,5.723,5.723,0,0,1,.418.5q.2.27.363.527ZM53.9,7.688V10.8h1.094a1.813,1.813,0,0,0,1.3-.469,1.564,1.564,0,0,0,.5-1.18q0-1.469-1.758-1.469Zm20.2.164h-3.2V17H68.375V7.852H65.2V5.8H74.1ZM79.75,17.2a5.215,5.215,0,0,1-3.922-1.566,5.624,5.624,0,0,1-1.516-4.082,6.026,6.026,0,0,1,1.539-4.3A5.328,5.328,0,0,1,79.93,5.609a5.085,5.085,0,0,1,3.879,1.57,5.79,5.79,0,0,1,1.48,4.141,5.929,5.929,0,0,1-1.535,4.258A5.269,5.269,0,0,1,79.75,17.2Zm.109-9.414a2.54,2.54,0,0,0-2.109,1,4.153,4.153,0,0,0-.781,2.637,4.077,4.077,0,0,0,.781,2.633,2.7,2.7,0,0,0,4.117.027,4.032,4.032,0,0,0,.766-2.613,4.369,4.369,0,0,0-.742-2.711A2.42,2.42,0,0,0,79.859,7.781Zm14.516.07h-3.2V17H88.648V7.852h-3.18V5.8h8.906ZM104.617,17h-2.75l-.8-2.492H97.086L96.3,17H93.563L97.641,5.8h2.992Zm-4.125-4.43L99.289,8.8A4.908,4.908,0,0,1,99.1,7.8h-.062a4.273,4.273,0,0,1-.2.977l-1.219,3.8Zm12.2,4.43h-6.672V5.8h2.523v9.156h4.148Z" transform="translate(-5922.727 6351.037)" fill="#12263f"/>
    <path id="Trazado_1054739" data-name="Trazado 1054739" d="M10.852,16.6a7.388,7.388,0,0,1-3.2.594A5.4,5.4,0,0,1,3.594,15.68a5.54,5.54,0,0,1-1.477-4.039,5.919,5.919,0,0,1,1.66-4.359A5.807,5.807,0,0,1,8.086,5.609a8.058,8.058,0,0,1,2.766.414v2.43a4.9,4.9,0,0,0-2.562-.672,3.4,3.4,0,0,0-2.547.992,3.682,3.682,0,0,0-.969,2.688,3.611,3.611,0,0,0,.914,2.59,3.229,3.229,0,0,0,2.461.965,5.249,5.249,0,0,0,2.7-.719Zm11.8.4h-2.75l-.8-2.492H15.125L14.336,17H11.6L15.68,5.8h2.992Zm-4.125-4.43L17.328,8.8A4.907,4.907,0,0,1,17.141,7.8h-.062a4.273,4.273,0,0,1-.2.977l-1.219,3.8ZM34.133,17H31.586L26.969,9.961a10.179,10.179,0,0,1-.562-.93h-.031q.062.594.063,1.813V17H24.055V5.8h2.719l4.445,6.82q.3.461.563.914h.031a11.978,11.978,0,0,1-.062-1.539V5.8h2.383Zm10.43-9.148h-3.2V17H38.836V7.852h-3.18V5.8h8.906ZM48.594,17H46.07V5.8h2.523Zm2.547,0V5.8h3.969q5.969,0,5.969,5.461a5.522,5.522,0,0,1-1.629,4.18A6.007,6.007,0,0,1,55.109,17Zm2.523-9.148v7.1h1.25a3.378,3.378,0,0,0,2.574-.984,3.735,3.735,0,0,0,.934-2.68A3.388,3.388,0,0,0,57.5,8.77a3.529,3.529,0,0,0-2.6-.918ZM72.547,17H69.8L69,14.508H65.016L64.227,17H61.492L65.57,5.8h2.992Zm-4.125-4.43L67.219,8.8A4.908,4.908,0,0,1,67.031,7.8h-.062a4.273,4.273,0,0,1-.2.977l-1.219,3.8ZM73.945,17V5.8h3.969q5.969,0,5.969,5.461a5.522,5.522,0,0,1-1.629,4.18A6.007,6.007,0,0,1,77.914,17Zm2.523-9.148v7.1h1.25a3.378,3.378,0,0,0,2.574-.984,3.735,3.735,0,0,0,.934-2.68A3.388,3.388,0,0,0,80.3,8.77a3.529,3.529,0,0,0-2.6-.918Z" transform="translate(-6420.975 6351.82)" fill="#12263f"/>
    <path id="Trazado_1054737" data-name="Trazado 1054737" d="M10.852,16.6a7.388,7.388,0,0,1-3.2.594A5.4,5.4,0,0,1,3.594,15.68a5.54,5.54,0,0,1-1.477-4.039,5.919,5.919,0,0,1,1.66-4.359A5.807,5.807,0,0,1,8.086,5.609a8.058,8.058,0,0,1,2.766.414v2.43a4.9,4.9,0,0,0-2.562-.672,3.4,3.4,0,0,0-2.547.992,3.682,3.682,0,0,0-.969,2.688,3.611,3.611,0,0,0,.914,2.59,3.229,3.229,0,0,0,2.461.965,5.249,5.249,0,0,0,2.7-.719Zm11.8.4h-2.75l-.8-2.492H15.125L14.336,17H11.6L15.68,5.8h2.992Zm-4.125-4.43L17.328,8.8A4.907,4.907,0,0,1,17.141,7.8h-.062a4.273,4.273,0,0,1-.2.977l-1.219,3.8ZM34.133,17H31.586L26.969,9.961a10.179,10.179,0,0,1-.562-.93h-.031q.062.594.063,1.813V17H24.055V5.8h2.719l4.445,6.82q.3.461.563.914h.031a11.978,11.978,0,0,1-.062-1.539V5.8h2.383Zm10.43-9.148h-3.2V17H38.836V7.852h-3.18V5.8h8.906ZM48.594,17H46.07V5.8h2.523Zm2.547,0V5.8h3.969q5.969,0,5.969,5.461a5.522,5.522,0,0,1-1.629,4.18A6.007,6.007,0,0,1,55.109,17Zm2.523-9.148v7.1h1.25a3.378,3.378,0,0,0,2.574-.984,3.735,3.735,0,0,0,.934-2.68A3.388,3.388,0,0,0,57.5,8.77a3.529,3.529,0,0,0-2.6-.918ZM72.547,17H69.8L69,14.508H65.016L64.227,17H61.492L65.57,5.8h2.992Zm-4.125-4.43L67.219,8.8A4.908,4.908,0,0,1,67.031,7.8h-.062a4.273,4.273,0,0,1-.2.977l-1.219,3.8ZM73.945,17V5.8h3.969q5.969,0,5.969,5.461a5.522,5.522,0,0,1-1.629,4.18A6.007,6.007,0,0,1,77.914,17Zm2.523-9.148v7.1h1.25a3.378,3.378,0,0,0,2.574-.984,3.735,3.735,0,0,0,.934-2.68A3.388,3.388,0,0,0,80.3,8.77a3.529,3.529,0,0,0-2.6-.918Z" transform="translate(-6204.494 6351.82)" fill="#12263f"/>
    <path id="Trazado_1054733" data-name="Trazado 1054733" d="M35.772,5.2,32.4,15h-2.5L26.558,5.2h2.379L30.98,12.02a4.886,4.886,0,0,1,.2.978h.041a5.525,5.525,0,0,1,.212-1L33.462,5.2ZM44.844,15H42.438l-.7-2.181H38.254L37.563,15H35.171l3.568-9.8h2.618Zm-3.609-3.876L40.182,7.829a4.294,4.294,0,0,1-.164-.882h-.055a3.739,3.739,0,0,1-.171.854l-1.066,3.322ZM51.905,15H46.067V5.2h2.208v8.012h3.63Zm5.113.171A4.563,4.563,0,0,1,53.587,13.8a4.921,4.921,0,0,1-1.326-3.572,5.273,5.273,0,0,1,1.347-3.76,4.662,4.662,0,0,1,3.568-1.436A4.449,4.449,0,0,1,60.57,6.407a5.066,5.066,0,0,1,1.3,3.623,5.188,5.188,0,0,1-1.343,3.726A4.61,4.61,0,0,1,57.019,15.171Zm.1-8.237a2.223,2.223,0,0,0-1.846.872,3.634,3.634,0,0,0-.684,2.307,3.567,3.567,0,0,0,.684,2.3,2.359,2.359,0,0,0,3.6.024,3.528,3.528,0,0,0,.67-2.287,3.823,3.823,0,0,0-.649-2.372A2.117,2.117,0,0,0,57.114,6.934ZM71.716,15H69.18l-1.524-2.522q-.171-.287-.328-.513a2.849,2.849,0,0,0-.318-.386,1.264,1.264,0,0,0-.335-.246.85.85,0,0,0-.379-.085H65.7V15H63.492V5.2h3.5q3.568,0,3.568,2.666a2.761,2.761,0,0,1-.157.947,2.63,2.63,0,0,1-.444.783,2.817,2.817,0,0,1-.694.6,3.578,3.578,0,0,1-.906.4v.027a1.4,1.4,0,0,1,.424.222,3.035,3.035,0,0,1,.4.359,5.007,5.007,0,0,1,.366.441q.174.236.318.461ZM65.7,6.852V9.579h.957a1.587,1.587,0,0,0,1.142-.41,1.369,1.369,0,0,0,.438-1.032q0-1.285-1.538-1.285Zm-51.56,21.9q0,4.416-4.115,4.416-3.992,0-3.992-4.313V23.2H8.248v5.688q0,2.379,1.859,2.379,1.825,0,1.825-2.3V23.2H14.14ZM25.091,33H22.863l-4.04-6.159a8.907,8.907,0,0,1-.492-.813H18.3q.055.52.055,1.586V33H16.273V23.2h2.379l3.89,5.968q.267.4.492.8h.027a10.481,10.481,0,0,1-.055-1.347V23.2h2.085Zm4.45,0H27.333V23.2h2.208Zm9.112-8h-2.8v8H33.643V25H30.861V23.2h7.793Zm8.962,8H45.209l-.7-2.181H41.026L40.335,33H37.943l3.568-9.8h2.618Zm-3.609-3.876-1.053-3.295a4.294,4.294,0,0,1-.164-.882h-.055a3.739,3.739,0,0,1-.171.854L41.5,29.124ZM57.063,33H54.527L53,30.478q-.171-.287-.328-.513a2.848,2.848,0,0,0-.318-.386,1.264,1.264,0,0,0-.335-.246.85.85,0,0,0-.379-.085h-.595V33H48.839V23.2h3.5q3.568,0,3.568,2.666a2.761,2.761,0,0,1-.157.947,2.63,2.63,0,0,1-.444.783,2.817,2.817,0,0,1-.694.6,3.578,3.578,0,0,1-.906.4v.027a1.4,1.4,0,0,1,.424.222,3.035,3.035,0,0,1,.4.359,5.007,5.007,0,0,1,.366.441q.174.236.318.461Zm-6.016-8.148v2.728H52a1.587,1.587,0,0,0,1.142-.41,1.369,1.369,0,0,0,.438-1.032q0-1.285-1.538-1.285ZM60.187,33H57.979V23.2h2.208Zm6.371.171A4.563,4.563,0,0,1,63.126,31.8,4.921,4.921,0,0,1,61.8,28.229a5.273,5.273,0,0,1,1.347-3.76,4.662,4.662,0,0,1,3.568-1.436,4.449,4.449,0,0,1,3.394,1.374,5.066,5.066,0,0,1,1.3,3.623,5.188,5.188,0,0,1-1.343,3.726A4.61,4.61,0,0,1,66.558,33.171Zm.1-8.237a2.223,2.223,0,0,0-1.846.872,3.634,3.634,0,0,0-.684,2.307,3.567,3.567,0,0,0,.684,2.3,2.359,2.359,0,0,0,3.6.024,3.528,3.528,0,0,0,.67-2.287,3.823,3.823,0,0,0-.649-2.372A2.117,2.117,0,0,0,66.654,24.934ZM79.1,29.623V33H76.894V23.2h3.459q3.705,0,3.705,3.124A3,3,0,0,1,83,28.71a4.211,4.211,0,0,1-2.84.913Zm0-4.73v3.056h.868q1.764,0,1.764-1.545,0-1.511-1.764-1.511Zm8.6,4.73V33H85.494V23.2h3.459q3.705,0,3.705,3.124a3,3,0,0,1-1.063,2.389,4.211,4.211,0,0,1-2.84.913Zm0-4.73v3.056h.868q1.764,0,1.764-1.545,0-1.511-1.764-1.511Z" transform="translate(-6077.975 6342.82)" fill="#12263f"/>
    <path id="Trazado_1054754" data-name="Trazado 1054754" d="M0,0V170.274" transform="translate(-6566.21 6296.649)" fill="none" stroke="#e1e1e1" stroke-width="1"/>
    <path id="Trazado_1054738" data-name="Trazado 1054738" d="M0,0V170.273" transform="translate(-6324.98 6296.649)" fill="none" stroke="#e1e1e1" stroke-width="1"/>
    <path id="Trazado_1054774" data-name="Trazado 1054774" d="M9.5,17H7.938L6.063,13.859a6.84,6.84,0,0,0-.5-.746,2.85,2.85,0,0,0-.5-.5,1.718,1.718,0,0,0-.547-.285,2.249,2.249,0,0,0-.66-.09H2.781V17H1.469V5.8H4.813a4.765,4.765,0,0,1,1.355.184,3.033,3.033,0,0,1,1.078.559,2.6,2.6,0,0,1,.715.934,3.1,3.1,0,0,1,.258,1.309,3.151,3.151,0,0,1-.176,1.074,2.805,2.805,0,0,1-.5.871,3.031,3.031,0,0,1-.781.652,3.988,3.988,0,0,1-1.027.418v.031a2.363,2.363,0,0,1,.488.285,2.687,2.687,0,0,1,.395.379,5.019,5.019,0,0,1,.371.5q.184.277.41.645ZM2.781,6.984v4.063H4.563a2.7,2.7,0,0,0,.91-.148,2.107,2.107,0,0,0,.723-.426,1.931,1.931,0,0,0,.477-.68,2.275,2.275,0,0,0,.172-.9,1.756,1.756,0,0,0-.582-1.4,2.5,2.5,0,0,0-1.684-.5ZM16.977,17H11.039V5.8h5.688V6.984H12.352v3.727H16.4v1.18H12.352v3.922h4.625ZM24.82,6.984H20.445v3.875h4.047v1.18H20.445V17H19.133V5.8H24.82ZM32.883,17H26.945V5.8h5.688V6.984H28.258v3.727H32.3v1.18H28.258v3.922h4.625ZM43.07,17H41.508l-1.875-3.141a6.84,6.84,0,0,0-.5-.746,2.85,2.85,0,0,0-.5-.5,1.718,1.718,0,0,0-.547-.285,2.249,2.249,0,0,0-.66-.09H36.352V17H35.039V5.8h3.344a4.765,4.765,0,0,1,1.355.184,3.033,3.033,0,0,1,1.078.559,2.6,2.6,0,0,1,.715.934,3.1,3.1,0,0,1,.258,1.309,3.151,3.151,0,0,1-.176,1.074,2.806,2.806,0,0,1-.5.871,3.031,3.031,0,0,1-.781.652A3.988,3.988,0,0,1,39.3,11.8v.031a2.363,2.363,0,0,1,.488.285,2.687,2.687,0,0,1,.395.379,5.019,5.019,0,0,1,.371.5q.184.277.41.645ZM36.352,6.984v4.063h1.781a2.7,2.7,0,0,0,.91-.148,2.107,2.107,0,0,0,.723-.426,1.931,1.931,0,0,0,.477-.68,2.275,2.275,0,0,0,.172-.9,1.756,1.756,0,0,0-.582-1.4,2.5,2.5,0,0,0-1.684-.5ZM50.547,17H44.609V5.8H50.3V6.984H45.922v3.727h4.047v1.18H45.922v3.922h4.625Zm11.188,0H60.125L54.359,8.07a3.731,3.731,0,0,1-.359-.7h-.047a11.534,11.534,0,0,1,.063,1.539V17H52.7V5.8h1.7l5.609,8.789q.352.547.453.75H60.5a11.853,11.853,0,0,1-.078-1.648V5.8h1.313ZM72.3,16.531a6.571,6.571,0,0,1-3.094.656,4.989,4.989,0,0,1-3.828-1.539,5.679,5.679,0,0,1-1.437-4.039,5.952,5.952,0,0,1,1.617-4.344,5.489,5.489,0,0,1,4.1-1.656A6.576,6.576,0,0,1,72.3,6.07v1.4A5.355,5.355,0,0,0,69.641,6.8a4.076,4.076,0,0,0-3.129,1.289,4.856,4.856,0,0,0-1.2,3.445,4.621,4.621,0,0,0,1.121,3.262,3.815,3.815,0,0,0,2.941,1.215,5.518,5.518,0,0,0,2.922-.75ZM75.891,17H74.578V5.8h1.313Zm11.617,0H86.055l-1.187-3.141h-4.75L79,17H77.539l4.3-11.2H83.2Zm-3.07-4.32L82.68,7.906a4.571,4.571,0,0,1-.172-.75h-.031a4.185,4.185,0,0,1-.18.75L80.555,12.68Z" transform="translate(-6990.852 6154.82)" fill="#12263f"/>
    <path id="Trazado_1054768" data-name="Trazado 1054768" d="M7.984,13.445a4.15,4.15,0,0,1-.266,1.508,3.624,3.624,0,0,1-.734,1.188,3.281,3.281,0,0,1-1.117.777,3.538,3.538,0,0,1-1.406.277,3.2,3.2,0,0,1-1.512-.352,3.2,3.2,0,0,1-1.133-1.012,4.853,4.853,0,0,1-.707-1.613A8.74,8.74,0,0,1,.867,12.07a10.1,10.1,0,0,1,.324-2.652,6.444,6.444,0,0,1,.922-2.039A4.25,4.25,0,0,1,3.555,6.07a3.862,3.862,0,0,1,1.883-.461A4.535,4.535,0,0,1,7.3,5.93V7.141A3.949,3.949,0,0,0,5.469,6.7a2.724,2.724,0,0,0-1.352.336,3.1,3.1,0,0,0-1.031.949,4.63,4.63,0,0,0-.66,1.48,7.511,7.511,0,0,0-.23,1.93h.031a2.69,2.69,0,0,1,2.555-1.4,3.363,3.363,0,0,1,1.324.25,2.859,2.859,0,0,1,1.008.707,3.183,3.183,0,0,1,.645,1.09A4.148,4.148,0,0,1,7.984,13.445Zm-1.312.164a3.486,3.486,0,0,0-.148-1.055,2.288,2.288,0,0,0-.426-.8,1.836,1.836,0,0,0-.684-.5,2.3,2.3,0,0,0-.922-.176,2.158,2.158,0,0,0-.883.18,2.2,2.2,0,0,0-.7.488,2.286,2.286,0,0,0-.633,1.59,3.475,3.475,0,0,0,.164,1.082A2.8,2.8,0,0,0,2.9,15.3a2.192,2.192,0,0,0,.707.59,1.931,1.931,0,0,0,.91.215,2.084,2.084,0,0,0,.883-.184,1.97,1.97,0,0,0,.68-.512,2.369,2.369,0,0,0,.438-.785A3.112,3.112,0,0,0,6.672,13.609Zm9.938-.164a4.15,4.15,0,0,1-.266,1.508,3.624,3.624,0,0,1-.734,1.188,3.281,3.281,0,0,1-1.117.777,3.538,3.538,0,0,1-1.406.277,3.1,3.1,0,0,1-2.645-1.363,4.853,4.853,0,0,1-.707-1.613,8.74,8.74,0,0,1-.242-2.148,10.1,10.1,0,0,1,.324-2.652,6.444,6.444,0,0,1,.922-2.039A4.25,4.25,0,0,1,12.18,6.07a3.862,3.862,0,0,1,1.883-.461,4.535,4.535,0,0,1,1.859.32V7.141A3.949,3.949,0,0,0,14.094,6.7a2.724,2.724,0,0,0-1.352.336,3.1,3.1,0,0,0-1.031.949,4.63,4.63,0,0,0-.66,1.48,7.511,7.511,0,0,0-.23,1.93h.031a2.69,2.69,0,0,1,2.555-1.4,3.363,3.363,0,0,1,1.324.25,2.859,2.859,0,0,1,1.008.707,3.183,3.183,0,0,1,.645,1.09A4.148,4.148,0,0,1,16.609,13.445Zm-1.312.164a3.486,3.486,0,0,0-.148-1.055,2.288,2.288,0,0,0-.426-.8,1.836,1.836,0,0,0-.684-.5,2.3,2.3,0,0,0-.922-.176,2.158,2.158,0,0,0-.883.18,2.2,2.2,0,0,0-.7.488,2.286,2.286,0,0,0-.633,1.59,3.475,3.475,0,0,0,.164,1.082,2.8,2.8,0,0,0,.461.879,2.192,2.192,0,0,0,.707.59,1.931,1.931,0,0,0,.91.215,2.084,2.084,0,0,0,.883-.184,1.97,1.97,0,0,0,.68-.512,2.369,2.369,0,0,0,.438-.785A3.112,3.112,0,0,0,15.3,13.609Zm9.844-7.07q-.258.445-.621,1.109t-.77,1.492q-.406.828-.828,1.781t-.789,1.969q-.367,1.016-.645,2.059a15.315,15.315,0,0,0-.4,2.051H19.711a15.579,15.579,0,0,1,.434-2.043q.293-1.043.664-2.047t.785-1.934q.414-.93.8-1.711t.715-1.379q.324-.6.52-.934H18.016V5.8h7.125Zm8.625,0q-.258.445-.621,1.109t-.77,1.492q-.406.828-.828,1.781t-.789,1.969q-.367,1.016-.645,2.059a15.315,15.315,0,0,0-.4,2.051H28.336a15.579,15.579,0,0,1,.434-2.043q.293-1.043.664-2.047t.785-1.934q.414-.93.8-1.711t.715-1.379q.324-.6.52-.934H26.641V5.8h7.125Z" transform="translate(-6796.474 6154.82)" fill="#12263f"/>
    <path id="Trazado_1054769" data-name="Trazado 1054769" d="M2.781,12.766V17H1.469V5.8H4.547a4.063,4.063,0,0,1,2.785.875A3.124,3.124,0,0,1,8.32,9.141a3.4,3.4,0,0,1-1.1,2.609,4.194,4.194,0,0,1-2.965,1.016Zm0-5.781v4.594H4.156a3.074,3.074,0,0,0,2.074-.621A2.2,2.2,0,0,0,6.945,9.2q0-2.219-2.625-2.219ZM18.461,17H16.9l-1.875-3.141a6.84,6.84,0,0,0-.5-.746,2.85,2.85,0,0,0-.5-.5,1.718,1.718,0,0,0-.547-.285,2.249,2.249,0,0,0-.66-.09H11.742V17H10.43V5.8h3.344a4.765,4.765,0,0,1,1.355.184,3.033,3.033,0,0,1,1.078.559,2.6,2.6,0,0,1,.715.934,3.1,3.1,0,0,1,.258,1.309A3.151,3.151,0,0,1,17,9.855a2.805,2.805,0,0,1-.5.871,3.031,3.031,0,0,1-.781.652A3.988,3.988,0,0,1,14.7,11.8v.031a2.363,2.363,0,0,1,.488.285,2.687,2.687,0,0,1,.395.379,5.019,5.019,0,0,1,.371.5q.184.277.41.645ZM11.742,6.984v4.063h1.781a2.7,2.7,0,0,0,.91-.148,2.107,2.107,0,0,0,.723-.426,1.931,1.931,0,0,0,.477-.68,2.275,2.275,0,0,0,.172-.9,1.756,1.756,0,0,0-.582-1.4,2.5,2.5,0,0,0-1.684-.5Zm12.617,10.2a4.918,4.918,0,0,1-3.816-1.57,5.824,5.824,0,0,1-1.434-4.086A6.171,6.171,0,0,1,20.57,7.219a5.1,5.1,0,0,1,3.977-1.609,4.807,4.807,0,0,1,3.738,1.563A5.845,5.845,0,0,1,29.7,11.258a6.191,6.191,0,0,1-1.453,4.336A5.008,5.008,0,0,1,24.359,17.188ZM24.453,6.8A3.612,3.612,0,0,0,21.586,8.07a4.93,4.93,0,0,0-1.1,3.344,4.964,4.964,0,0,0,1.074,3.332,3.5,3.5,0,0,0,2.8,1.262,3.678,3.678,0,0,0,2.906-1.2,4.917,4.917,0,0,0,1.063-3.367A5.138,5.138,0,0,0,27.3,8.008,3.536,3.536,0,0,0,24.453,6.8ZM31.906,17V5.8H35q5.922,0,5.922,5.461a5.5,5.5,0,0,1-1.645,4.168A6.1,6.1,0,0,1,34.875,17ZM33.219,6.984v8.828h1.672a4.745,4.745,0,0,0,3.43-1.18,4.422,4.422,0,0,0,1.227-3.344q0-4.3-4.578-4.3Zm18.1,5.484q0,4.719-4.258,4.719-4.078,0-4.078-4.539V5.8H44.3v6.766q0,3.445,2.906,3.445,2.8,0,2.8-3.328V5.8H51.32Zm10.422,4.063a6.571,6.571,0,0,1-3.094.656,4.989,4.989,0,0,1-3.828-1.539,5.679,5.679,0,0,1-1.437-4.039A5.952,5.952,0,0,1,55,7.266a5.489,5.489,0,0,1,4.1-1.656,6.576,6.576,0,0,1,2.641.461v1.4A5.355,5.355,0,0,0,59.086,6.8a4.076,4.076,0,0,0-3.129,1.289,4.856,4.856,0,0,0-1.2,3.445,4.621,4.621,0,0,0,1.121,3.262,3.815,3.815,0,0,0,2.941,1.215,5.518,5.518,0,0,0,2.922-.75Zm8.906-9.547H67.414V17H66.1V6.984H62.875V5.8h7.773Zm5.531,10.2a4.918,4.918,0,0,1-3.816-1.57,5.824,5.824,0,0,1-1.434-4.086,6.171,6.171,0,0,1,1.461-4.312,5.1,5.1,0,0,1,3.977-1.609,4.807,4.807,0,0,1,3.738,1.563,5.845,5.845,0,0,1,1.418,4.086,6.191,6.191,0,0,1-1.453,4.336A5.008,5.008,0,0,1,76.18,17.188ZM76.273,6.8A3.612,3.612,0,0,0,73.406,8.07a4.93,4.93,0,0,0-1.1,3.344,4.964,4.964,0,0,0,1.074,3.332,3.5,3.5,0,0,0,2.8,1.262,3.678,3.678,0,0,0,2.906-1.2,4.917,4.917,0,0,0,1.063-3.367,5.138,5.138,0,0,0-1.031-3.43A3.536,3.536,0,0,0,76.273,6.8Z" transform="translate(-6669.451 6154.82)" fill="#12263f"/>
    <path id="Trazado_1054770" data-name="Trazado 1054770" d="M19.922,17H13.985V5.8h5.688V6.984H15.3v3.727h4.047v1.18H15.3v3.922h4.625ZM33.5,17H32.2V9.484q0-.891.109-2.18h-.031a6.969,6.969,0,0,1-.336,1.086L28.11,17h-.641l-3.82-8.547A6.7,6.7,0,0,1,23.313,7.3h-.031q.062.672.063,2.2V17H22.078V5.8h1.734l3.438,7.813a10,10,0,0,1,.516,1.344h.047q.336-.922.539-1.375L31.86,5.8H33.5Zm4.258-4.234V17H36.446V5.8h3.078a4.063,4.063,0,0,1,2.785.875A3.124,3.124,0,0,1,43.3,9.141a3.4,3.4,0,0,1-1.1,2.609,4.194,4.194,0,0,1-2.965,1.016Zm0-5.781v4.594h1.375a3.074,3.074,0,0,0,2.074-.621A2.2,2.2,0,0,0,41.922,9.2q0-2.219-2.625-2.219ZM52.985,17H51.531l-1.187-3.141h-4.75L44.477,17H43.016l4.3-11.2h1.359Zm-3.07-4.32L48.156,7.906a4.571,4.571,0,0,1-.172-.75h-.031a4.185,4.185,0,0,1-.18.75L46.031,12.68ZM63.664,17H62.055L56.289,8.07a3.731,3.731,0,0,1-.359-.7h-.047a11.534,11.534,0,0,1,.063,1.539V17H54.633V5.8h1.7l5.609,8.789q.352.547.453.75h.031a11.853,11.853,0,0,1-.078-1.648V5.8h1.313Zm11.609,0H73.821l-1.187-3.141h-4.75L66.766,17H65.3L69.6,5.8h1.359ZM72.2,12.68,70.446,7.906a4.571,4.571,0,0,1-.172-.75h-.031a4.185,4.185,0,0,1-.18.75L68.321,12.68ZM76.922,17V5.8h3.094q5.922,0,5.922,5.461a5.5,5.5,0,0,1-1.645,4.168A6.1,6.1,0,0,1,79.891,17ZM78.235,6.984v8.828h1.672a4.745,4.745,0,0,0,3.43-1.18,4.422,4.422,0,0,0,1.227-3.344q0-4.3-4.578-4.3ZM96.422,17H94.969l-1.187-3.141h-4.75L87.914,17H86.453l4.3-11.2H92.11Zm-3.07-4.32L91.594,7.906a4.571,4.571,0,0,1-.172-.75h-.031a4.185,4.185,0,0,1-.18.75L89.469,12.68Z" transform="translate(-6555.639 6154.821)" fill="#12263f"/>
    <path id="Trazado_1054764" data-name="Trazado 1054764" d="M9.492,16.531a6.571,6.571,0,0,1-3.094.656A4.989,4.989,0,0,1,2.57,15.648a5.679,5.679,0,0,1-1.437-4.039A5.952,5.952,0,0,1,2.75,7.266a5.489,5.489,0,0,1,4.1-1.656,6.576,6.576,0,0,1,2.641.461v1.4A5.355,5.355,0,0,0,6.836,6.8,4.076,4.076,0,0,0,3.707,8.086a4.856,4.856,0,0,0-1.2,3.445,4.621,4.621,0,0,0,1.121,3.262A3.815,3.815,0,0,0,6.57,16.008a5.518,5.518,0,0,0,2.922-.75ZM20.445,17H18.992L17.8,13.859h-4.75L11.938,17H10.477l4.3-11.2h1.359Zm-3.07-4.32L15.617,7.906a4.571,4.571,0,0,1-.172-.75h-.031a4.185,4.185,0,0,1-.18.75L13.492,12.68ZM31.125,17H29.516L23.75,8.07a3.731,3.731,0,0,1-.359-.7h-.047a11.534,11.534,0,0,1,.063,1.539V17H22.094V5.8h1.7l5.609,8.789q.352.547.453.75h.031a11.853,11.853,0,0,1-.078-1.648V5.8h1.313ZM40.688,6.984H37.453V17H36.141V6.984H32.914V5.8h7.773ZM43.758,17H42.445V5.8h1.313ZM46.7,17V5.8H49.8q5.922,0,5.922,5.461a5.5,5.5,0,0,1-1.645,4.168A6.1,6.1,0,0,1,49.672,17ZM48.016,6.984v8.828h1.672a4.745,4.745,0,0,0,3.43-1.18,4.422,4.422,0,0,0,1.227-3.344q0-4.3-4.578-4.3ZM66.2,17H64.75l-1.187-3.141h-4.75L57.7,17H56.234l4.3-11.2h1.359Zm-3.07-4.32L61.375,7.906a4.571,4.571,0,0,1-.172-.75h-.031a4.185,4.185,0,0,1-.18.75L59.25,12.68ZM67.852,17V5.8h3.094q5.922,0,5.922,5.461a5.5,5.5,0,0,1-1.645,4.168A6.1,6.1,0,0,1,70.82,17ZM69.164,6.984v8.828h1.672a4.745,4.745,0,0,0,3.43-1.18,4.422,4.422,0,0,0,1.227-3.344q0-4.3-4.578-4.3ZM22.121,35h-1.3V27.484q0-.891.109-2.18h-.031a6.968,6.968,0,0,1-.336,1.086L16.73,35H16.09l-3.82-8.547a6.7,6.7,0,0,1-.336-1.148H11.9q.063.672.063,2.2V35H10.7V23.8h1.734l3.438,7.813a10,10,0,0,1,.516,1.344h.047q.336-.922.539-1.375L20.48,23.8h1.641Zm4.258,0H25.066V23.8h1.313Zm1.2-14.8-2.047,2.563h-.992L26.277,20.2ZM38.355,35H36.746L30.98,26.07a3.731,3.731,0,0,1-.359-.7h-.047a11.534,11.534,0,0,1,.063,1.539V35H29.324V23.8h1.7l5.609,8.789q.352.547.453.75h.031a11.853,11.853,0,0,1-.078-1.648V23.8h1.313Zm4.25,0H41.293V23.8h1.313Zm14.367,0h-1.3V27.484q0-.891.109-2.18h-.031a6.969,6.969,0,0,1-.336,1.086L51.582,35h-.641l-3.82-8.547a6.7,6.7,0,0,1-.336-1.148h-.031q.063.672.063,2.2V35H45.551V23.8h1.734l3.438,7.813a10,10,0,0,1,.516,1.344h.047q.336-.922.539-1.375L55.332,23.8h1.641ZM68.59,35H67.137l-1.187-3.141H61.2L60.082,35H58.621l4.3-11.2h1.359Zm-3.07-4.32-1.758-4.773a4.571,4.571,0,0,1-.172-.75h-.031a4.185,4.185,0,0,1-.18.75L61.637,30.68Z" transform="translate(-6311.929 6145.82)" fill="#12263f"/>
    <path id="Trazado_1054771" data-name="Trazado 1054771" d="M6.641,5.8v7.4H8.078v1.172H6.641V17H5.375V14.367H.109V13.258q.734-.828,1.484-1.77t1.434-1.91q.684-.969,1.266-1.934A17.671,17.671,0,0,0,5.273,5.8ZM1.555,13.2h3.82V7.711Q4.789,8.734,4.266,9.539T3.27,11q-.473.656-.9,1.188T1.555,13.2Zm8.813,3.977a.829.829,0,0,1-.613-.258A.849.849,0,0,1,9.5,16.3a.862.862,0,0,1,.254-.621.823.823,0,0,1,.613-.262.845.845,0,0,1,.625.262.855.855,0,0,1,.258.621.842.842,0,0,1-.258.617A.851.851,0,0,1,10.367,17.172Zm9.7-5.82a11.005,11.005,0,0,1-.254,2.492,5.807,5.807,0,0,1-.734,1.832,3.305,3.305,0,0,1-1.18,1.133,3.23,3.23,0,0,1-1.59.387,3.016,3.016,0,0,1-1.5-.371,3.152,3.152,0,0,1-1.113-1.082A5.484,5.484,0,0,1,13,14a10.8,10.8,0,0,1-.234-2.371,12.222,12.222,0,0,1,.246-2.594,5.933,5.933,0,0,1,.723-1.887A3.216,3.216,0,0,1,14.918,6a3.323,3.323,0,0,1,1.621-.387Q20.063,5.609,20.063,11.352Zm-1.312.125q0-4.781-2.273-4.781-2.4,0-2.4,4.867,0,4.539,2.352,4.539Q18.75,16.1,18.75,11.477Zm9.938-.125a11.005,11.005,0,0,1-.254,2.492,5.807,5.807,0,0,1-.734,1.832,3.305,3.305,0,0,1-1.18,1.133,3.23,3.23,0,0,1-1.59.387,3.016,3.016,0,0,1-1.5-.371,3.152,3.152,0,0,1-1.113-1.082A5.484,5.484,0,0,1,21.625,14a10.8,10.8,0,0,1-.234-2.371,12.222,12.222,0,0,1,.246-2.594,5.933,5.933,0,0,1,.723-1.887A3.216,3.216,0,0,1,23.543,6a3.323,3.323,0,0,1,1.621-.387Q28.688,5.609,28.688,11.352Zm-1.312.125Q27.375,6.7,25.1,6.7q-2.4,0-2.4,4.867,0,4.539,2.352,4.539Q27.375,16.1,27.375,11.477Zm9.938-.125a11.005,11.005,0,0,1-.254,2.492,5.807,5.807,0,0,1-.734,1.832,3.305,3.305,0,0,1-1.18,1.133,3.23,3.23,0,0,1-1.59.387,3.016,3.016,0,0,1-1.5-.371,3.152,3.152,0,0,1-1.113-1.082A5.484,5.484,0,0,1,30.25,14a10.8,10.8,0,0,1-.234-2.371,12.222,12.222,0,0,1,.246-2.594,5.933,5.933,0,0,1,.723-1.887A3.216,3.216,0,0,1,32.168,6a3.323,3.323,0,0,1,1.621-.387Q37.312,5.609,37.313,11.352ZM36,11.477Q36,6.7,33.727,6.7q-2.4,0-2.4,4.867,0,4.539,2.352,4.539Q36,16.1,36,11.477Z" transform="translate(-6191.867 6154.82)" fill="#12263f"/>
    <path id="Trazado_1054765" data-name="Trazado 1054765" d="M9.492,16.531a6.571,6.571,0,0,1-3.094.656A4.989,4.989,0,0,1,2.57,15.648a5.679,5.679,0,0,1-1.437-4.039A5.952,5.952,0,0,1,2.75,7.266a5.489,5.489,0,0,1,4.1-1.656,6.576,6.576,0,0,1,2.641.461v1.4A5.355,5.355,0,0,0,6.836,6.8,4.076,4.076,0,0,0,3.707,8.086a4.856,4.856,0,0,0-1.2,3.445,4.621,4.621,0,0,0,1.121,3.262A3.815,3.815,0,0,0,6.57,16.008a5.518,5.518,0,0,0,2.922-.75ZM20.445,17H18.992L17.8,13.859h-4.75L11.938,17H10.477l4.3-11.2h1.359Zm-3.07-4.32L15.617,7.906a4.571,4.571,0,0,1-.172-.75h-.031a4.185,4.185,0,0,1-.18.75L13.492,12.68ZM31.125,17H29.516L23.75,8.07a3.731,3.731,0,0,1-.359-.7h-.047a11.534,11.534,0,0,1,.063,1.539V17H22.094V5.8h1.7l5.609,8.789q.352.547.453.75h.031a11.853,11.853,0,0,1-.078-1.648V5.8h1.313ZM40.688,6.984H37.453V17H36.141V6.984H32.914V5.8h7.773ZM43.758,17H42.445V5.8h1.313ZM46.7,17V5.8H49.8q5.922,0,5.922,5.461a5.5,5.5,0,0,1-1.645,4.168A6.1,6.1,0,0,1,49.672,17ZM48.016,6.984v8.828h1.672a4.745,4.745,0,0,0,3.43-1.18,4.422,4.422,0,0,0,1.227-3.344q0-4.3-4.578-4.3ZM66.2,17H64.75l-1.187-3.141h-4.75L57.7,17H56.234l4.3-11.2h1.359Zm-3.07-4.32L61.375,7.906a4.571,4.571,0,0,1-.172-.75h-.031a4.185,4.185,0,0,1-.18.75L59.25,12.68ZM67.852,17V5.8h3.094q5.922,0,5.922,5.461a5.5,5.5,0,0,1-1.645,4.168A6.1,6.1,0,0,1,70.82,17ZM69.164,6.984v8.828h1.672a4.745,4.745,0,0,0,3.43-1.18,4.422,4.422,0,0,0,1.227-3.344q0-4.3-4.578-4.3ZM20.355,35h-1.3V27.484q0-.891.109-2.18h-.031a6.968,6.968,0,0,1-.336,1.086L14.965,35h-.641L10.5,26.453a6.7,6.7,0,0,1-.336-1.148h-.031q.063.672.063,2.2V35H8.934V23.8h1.734l3.438,7.813a10,10,0,0,1,.516,1.344h.047q.336-.922.539-1.375L18.715,23.8h1.641Zm11.617,0H30.52l-1.187-3.141h-4.75L23.465,35H22l4.3-11.2H27.66ZM28.9,30.68l-1.758-4.773a4.571,4.571,0,0,1-.172-.75h-.031a4.185,4.185,0,0,1-.18.75L25.02,30.68Zm-.3-10.477-2.047,2.563h-.992L27.309,20.2ZM41.355,35h-1.6l-2.578-4.289a3.846,3.846,0,0,1-.258-.555h-.031q-.078.18-.266.555L33.965,35H32.355l3.75-5.633L32.652,23.8h1.609l2.289,3.938a7.9,7.9,0,0,1,.4.781h.031a8.626,8.626,0,0,1,.438-.812L39.8,23.8h1.508l-3.523,5.555Zm3.016,0H43.059V23.8h1.313Zm14.367,0h-1.3V27.484q0-.891.109-2.18h-.031a6.969,6.969,0,0,1-.336,1.086L53.348,35h-.641l-3.82-8.547a6.7,6.7,0,0,1-.336-1.148H48.52q.063.672.063,2.2V35H47.316V23.8h1.734l3.438,7.813A10,10,0,0,1,53,32.953h.047q.336-.922.539-1.375L57.1,23.8h1.641Zm11.617,0H68.9l-1.187-3.141h-4.75L61.848,35H60.387l4.3-11.2h1.359Zm-3.07-4.32-1.758-4.773a4.571,4.571,0,0,1-.172-.75h-.031a4.185,4.185,0,0,1-.18.75L63.4,30.68Z" transform="translate(-6068.583 6145.819)" fill="#12263f"/>
    <path id="Trazado_1054775" data-name="Trazado 1054775" d="M27.211,13.828a3.266,3.266,0,0,1-.285,1.379,3.045,3.045,0,0,1-.8,1.063,3.714,3.714,0,0,1-1.246.684,5.04,5.04,0,0,1-1.6.242,4.654,4.654,0,0,1-2.547-.609V15.211a4.081,4.081,0,0,0,2.594.891,3.525,3.525,0,0,0,1.059-.148,2.374,2.374,0,0,0,.813-.43,1.909,1.909,0,0,0,.523-.68,2.123,2.123,0,0,0,.184-.9q0-2.2-3.125-2.2h-.93V10.664h.883q2.766,0,2.766-2.062,0-1.906-2.109-1.906a3.592,3.592,0,0,0-2.227.8V6.25A4.868,4.868,0,0,1,23.7,5.609a3.913,3.913,0,0,1,1.273.2,2.918,2.918,0,0,1,.977.547,2.423,2.423,0,0,1,.629.844A2.6,2.6,0,0,1,26.8,8.281a2.735,2.735,0,0,1-2.234,2.844v.031a3.534,3.534,0,0,1,1.055.277,2.814,2.814,0,0,1,.836.559,2.49,2.49,0,0,1,.551.809A2.582,2.582,0,0,1,27.211,13.828Zm9.148-2.477a11.005,11.005,0,0,1-.254,2.492,5.807,5.807,0,0,1-.734,1.832,3.305,3.305,0,0,1-1.18,1.133,3.23,3.23,0,0,1-1.59.387,3.016,3.016,0,0,1-1.5-.371,3.152,3.152,0,0,1-1.113-1.082A5.484,5.484,0,0,1,29.3,14a10.8,10.8,0,0,1-.234-2.371,12.222,12.222,0,0,1,.246-2.594,5.933,5.933,0,0,1,.723-1.887A3.216,3.216,0,0,1,31.215,6a3.323,3.323,0,0,1,1.621-.387Q36.359,5.609,36.359,11.352Zm-1.312.125q0-4.781-2.273-4.781-2.4,0-2.4,4.867,0,4.539,2.352,4.539Q35.047,16.1,35.047,11.477Zm8.32-5.68L37.992,18.859H36.8L42.156,5.8Zm7.852,5.555a11.005,11.005,0,0,1-.254,2.492,5.807,5.807,0,0,1-.734,1.832,3.305,3.305,0,0,1-1.18,1.133,3.23,3.23,0,0,1-1.59.387,3.016,3.016,0,0,1-1.5-.371,3.152,3.152,0,0,1-1.113-1.082A5.484,5.484,0,0,1,44.156,14a10.8,10.8,0,0,1-.234-2.371,12.222,12.222,0,0,1,.246-2.594,5.933,5.933,0,0,1,.723-1.887A3.216,3.216,0,0,1,46.074,6,3.323,3.323,0,0,1,47.7,5.609Q51.219,5.609,51.219,11.352Zm-1.312.125q0-4.781-2.273-4.781-2.4,0-2.4,4.867,0,4.539,2.352,4.539Q49.906,16.1,49.906,11.477Zm9.813-.75a11.159,11.159,0,0,1-.3,2.738,6.108,6.108,0,0,1-.891,2.031,3.942,3.942,0,0,1-1.43,1.266,4.145,4.145,0,0,1-1.922.434,4.6,4.6,0,0,1-1.953-.391V15.578A3.981,3.981,0,0,0,55.2,16.1a2.881,2.881,0,0,0,1.355-.312,2.807,2.807,0,0,0,1.012-.91,4.468,4.468,0,0,0,.633-1.473,8.315,8.315,0,0,0,.219-2.008h-.031a2.559,2.559,0,0,1-2.5,1.445,3.361,3.361,0,0,1-1.32-.254,3.025,3.025,0,0,1-1.039-.719,3.289,3.289,0,0,1-.68-1.105,3.97,3.97,0,0,1-.242-1.414,4.119,4.119,0,0,1,.27-1.516,3.532,3.532,0,0,1,.75-1.184,3.356,3.356,0,0,1,1.141-.77,3.73,3.73,0,0,1,1.441-.273,3.191,3.191,0,0,1,1.5.34,3,3,0,0,1,1.1.992,4.9,4.9,0,0,1,.68,1.605A9.166,9.166,0,0,1,59.719,10.727ZM58.336,9.578a3.9,3.9,0,0,0-.168-1.18,2.856,2.856,0,0,0-.465-.91A2.086,2.086,0,0,0,57,6.9,1.957,1.957,0,0,0,56.1,6.7a2.028,2.028,0,0,0-.859.184,2.066,2.066,0,0,0-.691.516,2.462,2.462,0,0,0-.461.789,2.866,2.866,0,0,0-.168,1,3.277,3.277,0,0,0,.16,1.063,2.219,2.219,0,0,0,.457.793,1.974,1.974,0,0,0,.715.5,2.412,2.412,0,0,0,.926.172,2.121,2.121,0,0,0,.84-.168,2.224,2.224,0,0,0,.688-.453,2.088,2.088,0,0,0,.461-.672A2.066,2.066,0,0,0,58.336,9.578ZM66.852,5.8,61.477,18.859h-1.2L65.641,5.8Zm5.914,2.938a2.316,2.316,0,0,0-.16-.9,1.739,1.739,0,0,0-1.09-1.016A2.555,2.555,0,0,0,70.7,6.7a2.688,2.688,0,0,0-.734.1,3.57,3.57,0,0,0-.7.281,4.3,4.3,0,0,0-.656.43,4.74,4.74,0,0,0-.59.555V6.688a3.831,3.831,0,0,1,1.207-.8,4.25,4.25,0,0,1,1.629-.277,3.932,3.932,0,0,1,1.273.2,2.92,2.92,0,0,1,1.016.582,2.691,2.691,0,0,1,.676.945,3.188,3.188,0,0,1,.246,1.289,4.42,4.42,0,0,1-.152,1.2,3.721,3.721,0,0,1-.461,1.016,4.9,4.9,0,0,1-.777.914,11.011,11.011,0,0,1-1.1.891q-.789.563-1.3.961a5.75,5.75,0,0,0-.812.746,2.165,2.165,0,0,0-.422.7,2.431,2.431,0,0,0-.121.8H74.5V17H67.586v-.555a4.622,4.622,0,0,1,.156-1.266,3.286,3.286,0,0,1,.516-1.039,5.767,5.767,0,0,1,.941-.984q.582-.492,1.426-1.109a9.014,9.014,0,0,0,1.02-.836,4.346,4.346,0,0,0,.66-.8,2.862,2.862,0,0,0,.355-.809A3.486,3.486,0,0,0,72.766,8.734Zm10.563,2.617a11.005,11.005,0,0,1-.254,2.492,5.807,5.807,0,0,1-.734,1.832,3.305,3.305,0,0,1-1.18,1.133,3.23,3.23,0,0,1-1.59.387,3.016,3.016,0,0,1-1.5-.371,3.152,3.152,0,0,1-1.113-1.082A5.484,5.484,0,0,1,76.266,14a10.8,10.8,0,0,1-.234-2.371,12.222,12.222,0,0,1,.246-2.594A5.933,5.933,0,0,1,77,7.145,3.217,3.217,0,0,1,78.184,6,3.323,3.323,0,0,1,79.8,5.609Q83.328,5.609,83.328,11.352Zm-1.312.125q0-4.781-2.273-4.781-2.4,0-2.4,4.867,0,4.539,2.352,4.539Q82.016,16.1,82.016,11.477Zm8-2.742a2.316,2.316,0,0,0-.16-.9,1.739,1.739,0,0,0-1.09-1.016,2.555,2.555,0,0,0-.812-.125,2.688,2.688,0,0,0-.734.1,3.57,3.57,0,0,0-.7.281,4.3,4.3,0,0,0-.656.43,4.74,4.74,0,0,0-.59.555V6.688a3.831,3.831,0,0,1,1.207-.8,4.25,4.25,0,0,1,1.629-.277,3.932,3.932,0,0,1,1.273.2,2.92,2.92,0,0,1,1.016.582,2.691,2.691,0,0,1,.676.945,3.188,3.188,0,0,1,.246,1.289,4.42,4.42,0,0,1-.152,1.2,3.721,3.721,0,0,1-.461,1.016,4.9,4.9,0,0,1-.777.914,11.011,11.011,0,0,1-1.1.891q-.789.563-1.3.961a5.75,5.75,0,0,0-.812.746,2.165,2.165,0,0,0-.422.7,2.431,2.431,0,0,0-.121.8H91.75V17H84.836v-.555a4.622,4.622,0,0,1,.156-1.266,3.286,3.286,0,0,1,.516-1.039,5.767,5.767,0,0,1,.941-.984q.582-.492,1.426-1.109a9.014,9.014,0,0,0,1.02-.836,4.346,4.346,0,0,0,.66-.8,2.862,2.862,0,0,0,.355-.809A3.486,3.486,0,0,0,90.016,8.734Zm10.563,2.617a11.005,11.005,0,0,1-.254,2.492,5.807,5.807,0,0,1-.734,1.832,3.305,3.305,0,0,1-1.18,1.133,3.23,3.23,0,0,1-1.59.387,3.016,3.016,0,0,1-1.5-.371A3.152,3.152,0,0,1,94.2,15.742,5.484,5.484,0,0,1,93.516,14a10.8,10.8,0,0,1-.234-2.371,12.222,12.222,0,0,1,.246-2.594,5.933,5.933,0,0,1,.723-1.887A3.217,3.217,0,0,1,95.434,6a3.323,3.323,0,0,1,1.621-.387Q100.578,5.609,100.578,11.352Zm-1.312.125q0-4.781-2.273-4.781-2.4,0-2.4,4.867,0,4.539,2.352,4.539Q99.266,16.1,99.266,11.477ZM62.691,55.047H58.426V54.039h4.266Z" transform="translate(-6999.975 6399.818)" fill="#12263f"/>
    <path id="Trazado_1054760" data-name="Trazado 1054760" d="M50.074,17H44.137V5.8h5.688V6.984H45.449v3.727H49.5v1.18H45.449v3.922h4.625ZM60.9,17H59.449l-1.187-3.141h-4.75L52.395,17H50.934l4.3-11.2H56.59Zm-3.07-4.32L56.074,7.906a4.571,4.571,0,0,1-.172-.75h-.031a4.185,4.185,0,0,1-.18.75L53.949,12.68Zm11.219-1.328a11.005,11.005,0,0,1-.254,2.492,5.807,5.807,0,0,1-.734,1.832,3.305,3.305,0,0,1-1.18,1.133,3.23,3.23,0,0,1-1.59.387,3.016,3.016,0,0,1-1.5-.371,3.152,3.152,0,0,1-1.113-1.082A5.484,5.484,0,0,1,61.988,14a10.8,10.8,0,0,1-.234-2.371A12.222,12.222,0,0,1,62,9.031a5.933,5.933,0,0,1,.723-1.887A3.216,3.216,0,0,1,63.906,6a3.323,3.323,0,0,1,1.621-.387Q69.051,5.609,69.051,11.352Zm-1.312.125q0-4.781-2.273-4.781-2.4,0-2.4,4.867,0,4.539,2.352,4.539Q67.738,16.1,67.738,11.477ZM75.363,17H74.082V7.32a2.966,2.966,0,0,1-.434.34,7.068,7.068,0,0,1-.641.379q-.355.188-.75.352a5.451,5.451,0,0,1-.77.258v-1.3a7.448,7.448,0,0,0,.895-.316q.473-.2.93-.445t.863-.516a6.853,6.853,0,0,0,.7-.527h.484ZM13.121,30.766V35H11.809V23.8h3.078a4.063,4.063,0,0,1,2.785.875,3.124,3.124,0,0,1,.988,2.469,3.4,3.4,0,0,1-1.1,2.609A4.194,4.194,0,0,1,14.6,30.766Zm0-5.781v4.594H14.5a3.074,3.074,0,0,0,2.074-.621,2.2,2.2,0,0,0,.715-1.754q0-2.219-2.625-2.219ZM28.8,35H27.238l-1.875-3.141a6.84,6.84,0,0,0-.5-.746,2.85,2.85,0,0,0-.5-.5,1.718,1.718,0,0,0-.547-.285,2.249,2.249,0,0,0-.66-.09H22.082V35H20.77V23.8h3.344a4.765,4.765,0,0,1,1.355.184,3.033,3.033,0,0,1,1.078.559,2.6,2.6,0,0,1,.715.934,3.1,3.1,0,0,1,.258,1.309,3.151,3.151,0,0,1-.176,1.074,2.805,2.805,0,0,1-.5.871,3.031,3.031,0,0,1-.781.652,3.988,3.988,0,0,1-1.027.418v.031a2.363,2.363,0,0,1,.488.285,2.687,2.687,0,0,1,.395.379,5.019,5.019,0,0,1,.371.5q.184.277.41.645ZM22.082,24.984v4.063h1.781a2.7,2.7,0,0,0,.91-.148,2.107,2.107,0,0,0,.723-.426,1.931,1.931,0,0,0,.477-.68,2.275,2.275,0,0,0,.172-.9,1.756,1.756,0,0,0-.582-1.4,2.5,2.5,0,0,0-1.684-.5ZM34.7,35.188a4.918,4.918,0,0,1-3.816-1.57,5.824,5.824,0,0,1-1.434-4.086,6.171,6.171,0,0,1,1.461-4.312,5.1,5.1,0,0,1,3.977-1.609,4.807,4.807,0,0,1,3.738,1.563,5.845,5.845,0,0,1,1.418,4.086,6.191,6.191,0,0,1-1.453,4.336A5.008,5.008,0,0,1,34.7,35.188ZM34.793,24.8a3.612,3.612,0,0,0-2.867,1.273,4.93,4.93,0,0,0-1.1,3.344A4.964,4.964,0,0,0,31.9,32.746a3.5,3.5,0,0,0,2.8,1.262,3.678,3.678,0,0,0,2.906-1.2,4.917,4.917,0,0,0,1.063-3.367,5.138,5.138,0,0,0-1.031-3.43A3.536,3.536,0,0,0,34.793,24.8ZM42.246,35V23.8H45.34q5.922,0,5.922,5.461a5.5,5.5,0,0,1-1.645,4.168A6.1,6.1,0,0,1,45.215,35Zm1.313-10.016v8.828H45.23a4.745,4.745,0,0,0,3.43-1.18,4.422,4.422,0,0,0,1.227-3.344q0-4.3-4.578-4.3Zm18.1,5.484q0,4.719-4.258,4.719-4.078,0-4.078-4.539V23.8h1.313v6.766q0,3.445,2.906,3.445,2.8,0,2.8-3.328V23.8H61.66Zm10.422,4.063a6.571,6.571,0,0,1-3.094.656,4.989,4.989,0,0,1-3.828-1.539,5.679,5.679,0,0,1-1.437-4.039,5.952,5.952,0,0,1,1.617-4.344,5.489,5.489,0,0,1,4.1-1.656,6.576,6.576,0,0,1,2.641.461v1.4a5.355,5.355,0,0,0-2.656-.672A4.076,4.076,0,0,0,66.3,26.086a4.856,4.856,0,0,0-1.2,3.445,4.621,4.621,0,0,0,1.121,3.262,3.815,3.815,0,0,0,2.941,1.215,5.518,5.518,0,0,0,2.922-.75Zm9.477,0a6.571,6.571,0,0,1-3.094.656,4.989,4.989,0,0,1-3.828-1.539A5.679,5.679,0,0,1,73.2,29.609a5.952,5.952,0,0,1,1.617-4.344,5.489,5.489,0,0,1,4.1-1.656,6.576,6.576,0,0,1,2.641.461v1.4A5.355,5.355,0,0,0,78.9,24.8a4.076,4.076,0,0,0-3.129,1.289,4.856,4.856,0,0,0-1.2,3.445A4.621,4.621,0,0,0,75.7,32.793a3.815,3.815,0,0,0,2.941,1.215,5.518,5.518,0,0,0,2.922-.75ZM85.152,35H83.84V23.8h1.313Zm7.461.188a4.918,4.918,0,0,1-3.816-1.57,5.824,5.824,0,0,1-1.434-4.086,6.171,6.171,0,0,1,1.461-4.312A5.1,5.1,0,0,1,92.8,23.609a4.807,4.807,0,0,1,3.738,1.563,5.845,5.845,0,0,1,1.418,4.086A6.191,6.191,0,0,1,96.5,33.594,5.008,5.008,0,0,1,92.613,35.188ZM92.707,24.8A3.612,3.612,0,0,0,89.84,26.07a4.93,4.93,0,0,0-1.1,3.344,4.964,4.964,0,0,0,1.074,3.332,3.5,3.5,0,0,0,2.8,1.262,3.678,3.678,0,0,0,2.906-1.2,4.917,4.917,0,0,0,1.063-3.367,5.138,5.138,0,0,0-1.031-3.43A3.536,3.536,0,0,0,92.707,24.8ZM94.66,20.2l-2.047,2.563h-.992L93.363,20.2ZM109.191,35h-1.609l-5.766-8.93a3.731,3.731,0,0,1-.359-.7h-.047a11.534,11.534,0,0,1,.063,1.539V35H100.16V23.8h1.7l5.609,8.789q.352.547.453.75h.031a11.853,11.853,0,0,1-.078-1.648V23.8h1.313Z" transform="translate(-6835.975 6387.555)" fill="#12263f"/>
    <path id="Trazado_1054755" data-name="Trazado 1054755" d="M44.773,13.578a3.771,3.771,0,0,1-.281,1.484,3.245,3.245,0,0,1-.8,1.141,3.586,3.586,0,0,1-1.254.734A4.9,4.9,0,0,1,40.8,17.2a4.511,4.511,0,0,1-2.32-.469V15.367a4.266,4.266,0,0,0,2.336.734,3.161,3.161,0,0,0,1.1-.18,2.439,2.439,0,0,0,.832-.5,2.141,2.141,0,0,0,.527-.773,2.618,2.618,0,0,0,.184-.992,2.125,2.125,0,0,0-.734-1.715,3.221,3.221,0,0,0-2.133-.621q-.227,0-.477.008t-.5.02q-.25.012-.488.027t-.434.039L39.078,5.8h5.18V6.953h-4.07l-.227,3.289q.25-.016.531-.027t.5-.012a5.028,5.028,0,0,1,1.594.234,3.377,3.377,0,0,1,1.191.668,2.8,2.8,0,0,1,.742,1.063A3.737,3.737,0,0,1,44.773,13.578ZM53.8,11.352a11.005,11.005,0,0,1-.254,2.492,5.807,5.807,0,0,1-.734,1.832,3.305,3.305,0,0,1-1.18,1.133,3.23,3.23,0,0,1-1.59.387,3.016,3.016,0,0,1-1.5-.371,3.152,3.152,0,0,1-1.113-1.082A5.484,5.484,0,0,1,46.734,14a10.8,10.8,0,0,1-.234-2.371,12.222,12.222,0,0,1,.246-2.594,5.933,5.933,0,0,1,.723-1.887A3.216,3.216,0,0,1,48.652,6a3.323,3.323,0,0,1,1.621-.387Q53.8,5.609,53.8,11.352Zm-1.312.125q0-4.781-2.273-4.781-2.4,0-2.4,4.867,0,4.539,2.352,4.539Q52.484,16.1,52.484,11.477Zm3.711,5.7a.829.829,0,0,1-.613-.258.849.849,0,0,1-.254-.617.862.862,0,0,1,.254-.621.823.823,0,0,1,.613-.262.845.845,0,0,1,.625.262.855.855,0,0,1,.258.621.842.842,0,0,1-.258.617A.851.851,0,0,1,56.2,17.172Zm9.7-5.82a11.005,11.005,0,0,1-.254,2.492,5.807,5.807,0,0,1-.734,1.832,3.305,3.305,0,0,1-1.18,1.133,3.23,3.23,0,0,1-1.59.387,3.016,3.016,0,0,1-1.5-.371,3.152,3.152,0,0,1-1.113-1.082A5.484,5.484,0,0,1,58.828,14a10.8,10.8,0,0,1-.234-2.371,12.222,12.222,0,0,1,.246-2.594,5.933,5.933,0,0,1,.723-1.887A3.216,3.216,0,0,1,60.746,6a3.323,3.323,0,0,1,1.621-.387Q65.891,5.609,65.891,11.352Zm-1.312.125Q64.578,6.7,62.3,6.7q-2.4,0-2.4,4.867,0,4.539,2.352,4.539Q64.578,16.1,64.578,11.477Zm9.938-.125a11.005,11.005,0,0,1-.254,2.492,5.807,5.807,0,0,1-.734,1.832,3.305,3.305,0,0,1-1.18,1.133,3.23,3.23,0,0,1-1.59.387,3.016,3.016,0,0,1-1.5-.371,3.152,3.152,0,0,1-1.113-1.082A5.484,5.484,0,0,1,67.453,14a10.8,10.8,0,0,1-.234-2.371,12.222,12.222,0,0,1,.246-2.594,5.933,5.933,0,0,1,.723-1.887A3.217,3.217,0,0,1,69.371,6a3.323,3.323,0,0,1,1.621-.387Q74.516,5.609,74.516,11.352Zm-1.312.125Q73.2,6.7,70.93,6.7q-2.4,0-2.4,4.867,0,4.539,2.352,4.539Q73.2,16.1,73.2,11.477Zm9.938-.125a11.005,11.005,0,0,1-.254,2.492,5.807,5.807,0,0,1-.734,1.832,3.305,3.305,0,0,1-1.18,1.133,3.23,3.23,0,0,1-1.59.387,3.016,3.016,0,0,1-1.5-.371,3.152,3.152,0,0,1-1.113-1.082A5.484,5.484,0,0,1,76.078,14a10.8,10.8,0,0,1-.234-2.371,12.222,12.222,0,0,1,.246-2.594,5.933,5.933,0,0,1,.723-1.887A3.217,3.217,0,0,1,78,6a3.323,3.323,0,0,1,1.621-.387Q83.141,5.609,83.141,11.352Zm-1.312.125q0-4.781-2.273-4.781-2.4,0-2.4,4.867,0,4.539,2.352,4.539Q81.828,16.1,81.828,11.477ZM62.691,55.047H58.426V54.039h4.266Z" transform="translate(-6691.975 6399.818)" fill="#12263f"/>
    <path id="Trazado_1054740" data-name="Trazado 1054740" d="M43.691,13.047H39.426V12.039h4.266Zm0,42H39.426V54.039h4.266Z" transform="translate(-6419.975 6399.818)" fill="#12263f"/>
    <path id="Trazado_1054734" data-name="Trazado 1054734" d="M43.691,13.047H39.426V12.039h4.266Zm0,42H39.426V54.039h4.266Z" transform="translate(-6314.268 6399.82)" fill="#12263f"/>
    <path id="Trazado_1054747" data-name="Trazado 1054747" d="M35.25,16.938v1.7h-.812V17a4.9,4.9,0,0,1-2.7-.672V14.969a3.661,3.661,0,0,0,1.238.668,4.528,4.528,0,0,0,1.465.27v-4a6.129,6.129,0,0,1-2.227-1.527A2.736,2.736,0,0,1,31.7,8.727a2.763,2.763,0,0,1,.773-1.957,3.2,3.2,0,0,1,1.961-.988V4.375h.813V5.75a4.324,4.324,0,0,1,2.117.438V7.516a3.549,3.549,0,0,0-2.117-.672v4.125a6.64,6.64,0,0,1,2.223,1.5,2.51,2.51,0,0,1,.6,1.645,2.545,2.545,0,0,1-.746,1.863A3.624,3.624,0,0,1,35.25,16.938Zm-.812-6.406V6.891a1.78,1.78,0,0,0-1.039.582,1.623,1.623,0,0,0-.383,1.09,1.826,1.826,0,0,0,.313,1.1A3.367,3.367,0,0,0,34.438,10.531Zm.813,1.781v3.531q1.508-.328,1.508-1.625Q36.758,13.141,35.25,12.313Zm11.7-5.773q-.258.445-.621,1.109t-.77,1.492q-.406.828-.828,1.781t-.789,1.969q-.367,1.016-.645,2.059A15.315,15.315,0,0,0,42.9,17H41.523a15.579,15.579,0,0,1,.434-2.043q.293-1.043.664-2.047t.785-1.934q.414-.93.8-1.711t.715-1.379q.324-.6.52-.934H39.828V5.8h7.125Zm8.578,4.188a11.159,11.159,0,0,1-.3,2.738,6.108,6.108,0,0,1-.891,2.031,3.942,3.942,0,0,1-1.43,1.266,4.145,4.145,0,0,1-1.922.434,4.6,4.6,0,0,1-1.953-.391V15.578a3.981,3.981,0,0,0,1.984.523,2.881,2.881,0,0,0,1.355-.312,2.807,2.807,0,0,0,1.012-.91,4.468,4.468,0,0,0,.633-1.473,8.315,8.315,0,0,0,.219-2.008H54.2a2.559,2.559,0,0,1-2.5,1.445,3.361,3.361,0,0,1-1.32-.254,3.025,3.025,0,0,1-1.039-.719,3.289,3.289,0,0,1-.68-1.105,3.97,3.97,0,0,1-.242-1.414,4.119,4.119,0,0,1,.27-1.516,3.532,3.532,0,0,1,.75-1.184,3.356,3.356,0,0,1,1.141-.77,3.73,3.73,0,0,1,1.441-.273,3.191,3.191,0,0,1,1.5.34,3,3,0,0,1,1.1.992,4.9,4.9,0,0,1,.68,1.605A9.166,9.166,0,0,1,55.531,10.727ZM54.148,9.578A3.9,3.9,0,0,0,53.98,8.4a2.856,2.856,0,0,0-.465-.91,2.086,2.086,0,0,0-.707-.586,1.957,1.957,0,0,0-.895-.207,2.028,2.028,0,0,0-.859.184,2.066,2.066,0,0,0-.691.516,2.462,2.462,0,0,0-.461.789,2.866,2.866,0,0,0-.168,1,3.277,3.277,0,0,0,.16,1.063,2.219,2.219,0,0,0,.457.793,1.974,1.974,0,0,0,.715.5,2.412,2.412,0,0,0,.926.172,2.121,2.121,0,0,0,.84-.168,2.224,2.224,0,0,0,.688-.453,2.088,2.088,0,0,0,.461-.672A2.066,2.066,0,0,0,54.148,9.578Zm3.906,7.594a.829.829,0,0,1-.613-.258.849.849,0,0,1-.254-.617.862.862,0,0,1,.254-.621.823.823,0,0,1,.613-.262.845.845,0,0,1,.625.262.855.855,0,0,1,.258.621.842.842,0,0,1-.258.617A.851.851,0,0,1,58.055,17.172ZM66.422,5.8v7.4h1.438v1.172H66.422V17H65.156V14.367H59.891V13.258q.734-.828,1.484-1.77t1.434-1.91q.684-.969,1.266-1.934a17.671,17.671,0,0,0,.98-1.848Zm-5.086,7.4h3.82V7.711q-.586,1.023-1.109,1.828t-1,1.461q-.473.656-.9,1.188T61.336,13.2Zm7.773.68a2.981,2.981,0,0,1,.141-.895,3.24,3.24,0,0,1,.4-.84,3.329,3.329,0,0,1,.648-.711,3.091,3.091,0,0,1,.879-.508,3.322,3.322,0,0,1-1.156-1.043,2.466,2.466,0,0,1-.43-1.41,2.719,2.719,0,0,1,.9-2.047,3.052,3.052,0,0,1,1-.6,3.735,3.735,0,0,1,2.508,0,3.106,3.106,0,0,1,1,.6,2.7,2.7,0,0,1,.656.906,2.74,2.74,0,0,1,.234,1.133,2.466,2.466,0,0,1-.43,1.41,3.363,3.363,0,0,1-1.141,1.043,3.064,3.064,0,0,1,.867.508,3.378,3.378,0,0,1,.645.711,3.24,3.24,0,0,1,.4.84,2.981,2.981,0,0,1,.141.895,3.327,3.327,0,0,1-.266,1.344,3,3,0,0,1-.746,1.043,3.444,3.444,0,0,1-1.148.676,4.293,4.293,0,0,1-1.473.242,4.235,4.235,0,0,1-1.461-.242,3.5,3.5,0,0,1-1.148-.676,3.023,3.023,0,0,1-.754-1.043A3.285,3.285,0,0,1,69.109,13.875Zm1.391-.109a2.646,2.646,0,0,0,.16.945,2.038,2.038,0,0,0,.453.719,1.978,1.978,0,0,0,.711.457,2.568,2.568,0,0,0,.926.16,2.439,2.439,0,0,0,.906-.164,2.112,2.112,0,0,0,.715-.461,2.072,2.072,0,0,0,.469-.719,2.514,2.514,0,0,0,.168-.937,2.4,2.4,0,0,0-.16-.879,2.2,2.2,0,0,0-.457-.723,2.147,2.147,0,0,0-.711-.492,2.313,2.313,0,0,0-.93-.18,2.338,2.338,0,0,0-.895.168,2.14,2.14,0,0,0-.711.469,2.171,2.171,0,0,0-.473.719A2.391,2.391,0,0,0,70.5,13.766Zm.4-5.2a1.86,1.86,0,0,0,1.133,1.73,1.846,1.846,0,0,0,1.441,0,1.867,1.867,0,0,0,.59-.4,1.95,1.95,0,0,0,.4-.594,1.8,1.8,0,0,0,.148-.73,1.916,1.916,0,0,0-.145-.75A1.841,1.841,0,0,0,72.75,6.688,1.864,1.864,0,0,0,72,6.836a1.821,1.821,0,0,0-.586.4,1.759,1.759,0,0,0-.379.6A2.02,2.02,0,0,0,70.9,8.57Zm6.836,5.3a2.981,2.981,0,0,1,.141-.895,3.24,3.24,0,0,1,.4-.84,3.329,3.329,0,0,1,.648-.711,3.091,3.091,0,0,1,.879-.508,3.322,3.322,0,0,1-1.156-1.043,2.466,2.466,0,0,1-.43-1.41,2.719,2.719,0,0,1,.9-2.047,3.052,3.052,0,0,1,1-.6,3.735,3.735,0,0,1,2.508,0,3.106,3.106,0,0,1,1,.6,2.7,2.7,0,0,1,.656.906,2.74,2.74,0,0,1,.234,1.133,2.466,2.466,0,0,1-.43,1.41,3.363,3.363,0,0,1-1.141,1.043,3.064,3.064,0,0,1,.867.508,3.378,3.378,0,0,1,.645.711,3.24,3.24,0,0,1,.4.84,2.981,2.981,0,0,1,.141.895,3.327,3.327,0,0,1-.266,1.344,3,3,0,0,1-.746,1.043,3.444,3.444,0,0,1-1.148.676,4.293,4.293,0,0,1-1.473.242,4.235,4.235,0,0,1-1.461-.242,3.5,3.5,0,0,1-1.148-.676A3.023,3.023,0,0,1,78,15.219,3.285,3.285,0,0,1,77.734,13.875Zm1.391-.109a2.646,2.646,0,0,0,.16.945,2.038,2.038,0,0,0,.453.719,1.978,1.978,0,0,0,.711.457,2.568,2.568,0,0,0,.926.16,2.439,2.439,0,0,0,.906-.164A2.112,2.112,0,0,0,83,15.422a2.072,2.072,0,0,0,.469-.719,2.514,2.514,0,0,0,.168-.937,2.4,2.4,0,0,0-.16-.879,2.2,2.2,0,0,0-.457-.723,2.147,2.147,0,0,0-.711-.492,2.313,2.313,0,0,0-.93-.18,2.338,2.338,0,0,0-.895.168,2.14,2.14,0,0,0-.711.469,2.171,2.171,0,0,0-.473.719A2.391,2.391,0,0,0,79.125,13.766Zm.4-5.2a1.86,1.86,0,0,0,1.133,1.73,1.846,1.846,0,0,0,1.441,0,1.867,1.867,0,0,0,.59-.4,1.95,1.95,0,0,0,.4-.594,1.8,1.8,0,0,0,.148-.73,1.916,1.916,0,0,0-.145-.75,1.841,1.841,0,0,0-1.715-1.133,1.864,1.864,0,0,0-.754.148,1.821,1.821,0,0,0-.586.4,1.759,1.759,0,0,0-.379.6A2.02,2.02,0,0,0,79.523,8.57Zm7.875,8.6a.829.829,0,0,1-.613-.258.849.849,0,0,1-.254-.617.862.862,0,0,1,.254-.621.823.823,0,0,1,.613-.262.845.845,0,0,1,.625.262.855.855,0,0,1,.258.621.842.842,0,0,1-.258.617A.851.851,0,0,1,87.4,17.172Zm9.3-3.594a3.771,3.771,0,0,1-.281,1.484,3.245,3.245,0,0,1-.8,1.141,3.586,3.586,0,0,1-1.254.734,4.9,4.9,0,0,1-1.633.258,4.511,4.511,0,0,1-2.32-.469V15.367a4.266,4.266,0,0,0,2.336.734,3.161,3.161,0,0,0,1.1-.18,2.439,2.439,0,0,0,.832-.5,2.141,2.141,0,0,0,.527-.773,2.618,2.618,0,0,0,.184-.992,2.125,2.125,0,0,0-.734-1.715,3.221,3.221,0,0,0-2.133-.621q-.227,0-.477.008t-.5.02q-.25.012-.488.027t-.434.039L91,5.8h5.18V6.953h-4.07l-.227,3.289q.25-.016.531-.027t.5-.012a5.028,5.028,0,0,1,1.594.234,3.377,3.377,0,0,1,1.191.668,2.8,2.8,0,0,1,.742,1.063A3.737,3.737,0,0,1,96.7,13.578Zm9.023-2.227a11.005,11.005,0,0,1-.254,2.492,5.807,5.807,0,0,1-.734,1.832,3.305,3.305,0,0,1-1.18,1.133,3.23,3.23,0,0,1-1.59.387,3.016,3.016,0,0,1-1.5-.371,3.152,3.152,0,0,1-1.113-1.082A5.484,5.484,0,0,1,98.656,14a10.8,10.8,0,0,1-.234-2.371,12.222,12.222,0,0,1,.246-2.594,5.933,5.933,0,0,1,.723-1.887A3.217,3.217,0,0,1,100.574,6a3.323,3.323,0,0,1,1.621-.387Q105.719,5.609,105.719,11.352Zm-1.312.125q0-4.781-2.273-4.781-2.4,0-2.4,4.867,0,4.539,2.352,4.539Q104.406,16.1,104.406,11.477Zm9.938-.125a11.005,11.005,0,0,1-.254,2.492,5.807,5.807,0,0,1-.734,1.832,3.305,3.305,0,0,1-1.18,1.133,3.23,3.23,0,0,1-1.59.387,3.016,3.016,0,0,1-1.5-.371,3.152,3.152,0,0,1-1.113-1.082A5.484,5.484,0,0,1,107.281,14a10.8,10.8,0,0,1-.234-2.371,12.222,12.222,0,0,1,.246-2.594,5.933,5.933,0,0,1,.723-1.887A3.217,3.217,0,0,1,109.2,6a3.323,3.323,0,0,1,1.621-.387Q114.344,5.609,114.344,11.352Zm-1.312.125q0-4.781-2.273-4.781-2.4,0-2.4,4.867,0,4.539,2.352,4.539Q113.031,16.1,113.031,11.477Zm.961,43.57h-4.266V54.039h4.266Z" transform="translate(-6561.521 6399.818)" fill="#12263f"/>
    <path id="Trazado_1054729" data-name="Trazado 1054729" d="M44.773,13.578a3.771,3.771,0,0,1-.281,1.484,3.245,3.245,0,0,1-.8,1.141,3.586,3.586,0,0,1-1.254.734A4.9,4.9,0,0,1,40.8,17.2a4.511,4.511,0,0,1-2.32-.469V15.367a4.266,4.266,0,0,0,2.336.734,3.161,3.161,0,0,0,1.1-.18,2.439,2.439,0,0,0,.832-.5,2.141,2.141,0,0,0,.527-.773,2.618,2.618,0,0,0,.184-.992,2.125,2.125,0,0,0-.734-1.715,3.221,3.221,0,0,0-2.133-.621q-.227,0-.477.008t-.5.02q-.25.012-.488.027t-.434.039L39.078,5.8h5.18V6.953h-4.07l-.227,3.289q.25-.016.531-.027t.5-.012a5.028,5.028,0,0,1,1.594.234,3.377,3.377,0,0,1,1.191.668,2.8,2.8,0,0,1,.742,1.063A3.737,3.737,0,0,1,44.773,13.578ZM53.8,11.352a11.005,11.005,0,0,1-.254,2.492,5.807,5.807,0,0,1-.734,1.832,3.305,3.305,0,0,1-1.18,1.133,3.23,3.23,0,0,1-1.59.387,3.016,3.016,0,0,1-1.5-.371,3.152,3.152,0,0,1-1.113-1.082A5.484,5.484,0,0,1,46.734,14a10.8,10.8,0,0,1-.234-2.371,12.222,12.222,0,0,1,.246-2.594,5.933,5.933,0,0,1,.723-1.887A3.216,3.216,0,0,1,48.652,6a3.323,3.323,0,0,1,1.621-.387Q53.8,5.609,53.8,11.352Zm-1.312.125q0-4.781-2.273-4.781-2.4,0-2.4,4.867,0,4.539,2.352,4.539Q52.484,16.1,52.484,11.477Zm3.711,5.7a.829.829,0,0,1-.613-.258.849.849,0,0,1-.254-.617.862.862,0,0,1,.254-.621.823.823,0,0,1,.613-.262.845.845,0,0,1,.625.262.855.855,0,0,1,.258.621.842.842,0,0,1-.258.617A.851.851,0,0,1,56.2,17.172Zm9.7-5.82a11.005,11.005,0,0,1-.254,2.492,5.807,5.807,0,0,1-.734,1.832,3.305,3.305,0,0,1-1.18,1.133,3.23,3.23,0,0,1-1.59.387,3.016,3.016,0,0,1-1.5-.371,3.152,3.152,0,0,1-1.113-1.082A5.484,5.484,0,0,1,58.828,14a10.8,10.8,0,0,1-.234-2.371,12.222,12.222,0,0,1,.246-2.594,5.933,5.933,0,0,1,.723-1.887A3.216,3.216,0,0,1,60.746,6a3.323,3.323,0,0,1,1.621-.387Q65.891,5.609,65.891,11.352Zm-1.312.125Q64.578,6.7,62.3,6.7q-2.4,0-2.4,4.867,0,4.539,2.352,4.539Q64.578,16.1,64.578,11.477Zm9.938-.125a11.005,11.005,0,0,1-.254,2.492,5.807,5.807,0,0,1-.734,1.832,3.305,3.305,0,0,1-1.18,1.133,3.23,3.23,0,0,1-1.59.387,3.016,3.016,0,0,1-1.5-.371,3.152,3.152,0,0,1-1.113-1.082A5.484,5.484,0,0,1,67.453,14a10.8,10.8,0,0,1-.234-2.371,12.222,12.222,0,0,1,.246-2.594,5.933,5.933,0,0,1,.723-1.887A3.217,3.217,0,0,1,69.371,6a3.323,3.323,0,0,1,1.621-.387Q74.516,5.609,74.516,11.352Zm-1.312.125Q73.2,6.7,70.93,6.7q-2.4,0-2.4,4.867,0,4.539,2.352,4.539Q73.2,16.1,73.2,11.477Zm9.938-.125a11.005,11.005,0,0,1-.254,2.492,5.807,5.807,0,0,1-.734,1.832,3.305,3.305,0,0,1-1.18,1.133,3.23,3.23,0,0,1-1.59.387,3.016,3.016,0,0,1-1.5-.371,3.152,3.152,0,0,1-1.113-1.082A5.484,5.484,0,0,1,76.078,14a10.8,10.8,0,0,1-.234-2.371,12.222,12.222,0,0,1,.246-2.594,5.933,5.933,0,0,1,.723-1.887A3.217,3.217,0,0,1,78,6a3.323,3.323,0,0,1,1.621-.387Q83.141,5.609,83.141,11.352Zm-1.312.125q0-4.781-2.273-4.781-2.4,0-2.4,4.867,0,4.539,2.352,4.539Q81.828,16.1,81.828,11.477ZM62.691,55.047H58.426V54.039h4.266Z" transform="translate(-6221.536 6399.818)" fill="#12263f"/>
    <path id="Trazado_1054726" data-name="Trazado 1054726" d="M58.5,16.938v1.7h-.812V17a4.9,4.9,0,0,1-2.7-.672V14.969a3.661,3.661,0,0,0,1.238.668,4.528,4.528,0,0,0,1.465.27v-4a6.129,6.129,0,0,1-2.227-1.527,2.736,2.736,0,0,1-.508-1.652,2.763,2.763,0,0,1,.773-1.957,3.2,3.2,0,0,1,1.961-.988V4.375H58.5V5.75a4.324,4.324,0,0,1,2.117.438V7.516A3.549,3.549,0,0,0,58.5,6.844v4.125a6.64,6.64,0,0,1,2.223,1.5,2.51,2.51,0,0,1,.6,1.645,2.545,2.545,0,0,1-.746,1.863A3.624,3.624,0,0,1,58.5,16.938Zm-.812-6.406V6.891a1.78,1.78,0,0,0-1.039.582,1.623,1.623,0,0,0-.383,1.09,1.826,1.826,0,0,0,.313,1.1A3.367,3.367,0,0,0,57.688,10.531Zm.813,1.781v3.531q1.508-.328,1.508-1.625Q60.008,13.141,58.5,12.313ZM67.969,17H66.688V7.32a2.966,2.966,0,0,1-.434.34,7.068,7.068,0,0,1-.641.379q-.355.188-.75.352a5.451,5.451,0,0,1-.77.258v-1.3a7.448,7.448,0,0,0,.895-.316q.473-.2.93-.445t.863-.516a6.853,6.853,0,0,0,.7-.527h.484Zm4.711.172a.829.829,0,0,1-.613-.258.849.849,0,0,1-.254-.617.862.862,0,0,1,.254-.621.823.823,0,0,1,.613-.262.845.845,0,0,1,.625.262.855.855,0,0,1,.258.621.842.842,0,0,1-.258.617A.851.851,0,0,1,72.68,17.172Zm9.3-3.594a3.771,3.771,0,0,1-.281,1.484,3.245,3.245,0,0,1-.8,1.141,3.586,3.586,0,0,1-1.254.734,4.9,4.9,0,0,1-1.633.258,4.511,4.511,0,0,1-2.32-.469V15.367a4.266,4.266,0,0,0,2.336.734,3.161,3.161,0,0,0,1.1-.18,2.439,2.439,0,0,0,.832-.5,2.141,2.141,0,0,0,.527-.773,2.618,2.618,0,0,0,.184-.992,2.125,2.125,0,0,0-.734-1.715A3.221,3.221,0,0,0,77.8,11.32q-.227,0-.477.008t-.5.02q-.25.012-.488.027t-.434.039L76.281,5.8h5.18V6.953h-4.07l-.227,3.289q.25-.016.531-.027t.5-.012a5.028,5.028,0,0,1,1.594.234,3.377,3.377,0,0,1,1.191.668,2.8,2.8,0,0,1,.742,1.063A3.737,3.737,0,0,1,81.977,13.578Zm1.758.3a2.981,2.981,0,0,1,.141-.895,3.24,3.24,0,0,1,.4-.84,3.329,3.329,0,0,1,.648-.711,3.091,3.091,0,0,1,.879-.508,3.322,3.322,0,0,1-1.156-1.043,2.466,2.466,0,0,1-.43-1.41,2.719,2.719,0,0,1,.9-2.047,3.052,3.052,0,0,1,1-.6,3.735,3.735,0,0,1,2.508,0,3.106,3.106,0,0,1,1,.6,2.7,2.7,0,0,1,.656.906,2.74,2.74,0,0,1,.234,1.133,2.466,2.466,0,0,1-.43,1.41,3.363,3.363,0,0,1-1.141,1.043,3.064,3.064,0,0,1,.867.508,3.378,3.378,0,0,1,.645.711,3.24,3.24,0,0,1,.4.84,2.981,2.981,0,0,1,.141.895,3.327,3.327,0,0,1-.266,1.344,3,3,0,0,1-.746,1.043,3.444,3.444,0,0,1-1.148.676,4.293,4.293,0,0,1-1.473.242,4.235,4.235,0,0,1-1.461-.242,3.5,3.5,0,0,1-1.148-.676A3.023,3.023,0,0,1,84,15.219,3.285,3.285,0,0,1,83.734,13.875Zm1.391-.109a2.646,2.646,0,0,0,.16.945,2.038,2.038,0,0,0,.453.719,1.978,1.978,0,0,0,.711.457,2.568,2.568,0,0,0,.926.16,2.439,2.439,0,0,0,.906-.164A2.112,2.112,0,0,0,89,15.422a2.072,2.072,0,0,0,.469-.719,2.514,2.514,0,0,0,.168-.937,2.4,2.4,0,0,0-.16-.879,2.2,2.2,0,0,0-.457-.723,2.147,2.147,0,0,0-.711-.492,2.313,2.313,0,0,0-.93-.18,2.338,2.338,0,0,0-.895.168,2.14,2.14,0,0,0-.711.469,2.171,2.171,0,0,0-.473.719A2.391,2.391,0,0,0,85.125,13.766Zm.4-5.2a1.86,1.86,0,0,0,1.133,1.73,1.846,1.846,0,0,0,1.441,0,1.867,1.867,0,0,0,.59-.4,1.95,1.95,0,0,0,.4-.594,1.8,1.8,0,0,0,.148-.73,1.916,1.916,0,0,0-.145-.75,1.841,1.841,0,0,0-1.715-1.133,1.864,1.864,0,0,0-.754.148,1.821,1.821,0,0,0-.586.4,1.759,1.759,0,0,0-.379.6A2.02,2.02,0,0,0,85.523,8.57ZM99.5,10.727a11.159,11.159,0,0,1-.3,2.738A6.108,6.108,0,0,1,98.3,15.5a3.942,3.942,0,0,1-1.43,1.266,4.145,4.145,0,0,1-1.922.434A4.6,4.6,0,0,1,93,16.8V15.578a3.981,3.981,0,0,0,1.984.523,2.881,2.881,0,0,0,1.355-.312,2.807,2.807,0,0,0,1.012-.91,4.469,4.469,0,0,0,.633-1.473A8.315,8.315,0,0,0,98.2,11.4h-.031a2.559,2.559,0,0,1-2.5,1.445,3.361,3.361,0,0,1-1.32-.254,3.025,3.025,0,0,1-1.039-.719,3.289,3.289,0,0,1-.68-1.105,3.97,3.97,0,0,1-.242-1.414,4.119,4.119,0,0,1,.27-1.516,3.532,3.532,0,0,1,.75-1.184,3.356,3.356,0,0,1,1.141-.77,3.73,3.73,0,0,1,1.441-.273,3.191,3.191,0,0,1,1.5.34,3,3,0,0,1,1.1.992,4.9,4.9,0,0,1,.68,1.605A9.166,9.166,0,0,1,99.5,10.727ZM98.117,9.578a3.9,3.9,0,0,0-.168-1.18,2.856,2.856,0,0,0-.465-.91,2.086,2.086,0,0,0-.707-.586,1.957,1.957,0,0,0-.895-.207,2.029,2.029,0,0,0-.859.184,2.066,2.066,0,0,0-.691.516,2.462,2.462,0,0,0-.461.789,2.867,2.867,0,0,0-.168,1,3.277,3.277,0,0,0,.16,1.063,2.219,2.219,0,0,0,.457.793,1.973,1.973,0,0,0,.715.5,2.412,2.412,0,0,0,.926.172,2.122,2.122,0,0,0,.84-.168,2.224,2.224,0,0,0,.688-.453,2.088,2.088,0,0,0,.461-.672A2.066,2.066,0,0,0,98.117,9.578Zm4.633,5.641-1.25,3.844h-.914l.914-3.844Zm8.891-8.68q-.258.445-.621,1.109t-.77,1.492q-.406.828-.828,1.781t-.789,1.969q-.367,1.016-.645,2.059a15.315,15.315,0,0,0-.4,2.051h-1.375a15.579,15.579,0,0,1,.434-2.043q.293-1.043.664-2.047t.785-1.934q.414-.93.8-1.711t.715-1.379q.324-.6.52-.934h-5.617V5.8h7.125Zm8.625,0q-.258.445-.621,1.109t-.77,1.492q-.406.828-.828,1.781t-.789,1.969q-.367,1.016-.645,2.059a15.315,15.315,0,0,0-.4,2.051h-1.375a15.579,15.579,0,0,1,.434-2.043q.293-1.043.664-2.047t.785-1.934q.414-.93.8-1.711t.715-1.379q.324-.6.52-.934h-5.617V5.8h7.125Zm-.273,48.508h-4.266V54.039h4.266Z" transform="translate(-6097.258 6397.828)" fill="#12263f"/>
    <path id="Trazado_1054727" data-name="Trazado 1054727" d="M20.531,16.938v1.7h-.812V17a4.9,4.9,0,0,1-2.7-.672V14.969a3.661,3.661,0,0,0,1.238.668,4.528,4.528,0,0,0,1.465.27v-4a6.129,6.129,0,0,1-2.227-1.527,2.736,2.736,0,0,1-.508-1.652,2.763,2.763,0,0,1,.773-1.957,3.2,3.2,0,0,1,1.961-.988V4.375h.813V5.75a4.324,4.324,0,0,1,2.117.438V7.516a3.549,3.549,0,0,0-2.117-.672v4.125a6.64,6.64,0,0,1,2.223,1.5,2.51,2.51,0,0,1,.6,1.645,2.545,2.545,0,0,1-.746,1.863A3.624,3.624,0,0,1,20.531,16.938Zm-.812-6.406V6.891a1.78,1.78,0,0,0-1.039.582,1.623,1.623,0,0,0-.383,1.09,1.826,1.826,0,0,0,.313,1.1A3.367,3.367,0,0,0,19.719,10.531Zm.813,1.781v3.531q1.508-.328,1.508-1.625Q22.039,13.141,20.531,12.313Zm11.7-5.773q-.258.445-.621,1.109t-.77,1.492q-.406.828-.828,1.781t-.789,1.969q-.367,1.016-.645,2.059A15.315,15.315,0,0,0,28.18,17H26.8a15.579,15.579,0,0,1,.434-2.043q.293-1.043.664-2.047t.785-1.934q.414-.93.8-1.711t.715-1.379q.324-.6.52-.934H25.109V5.8h7.125Zm8.578,4.188a11.159,11.159,0,0,1-.3,2.738,6.108,6.108,0,0,1-.891,2.031,3.942,3.942,0,0,1-1.43,1.266,4.145,4.145,0,0,1-1.922.434,4.6,4.6,0,0,1-1.953-.391V15.578A3.981,3.981,0,0,0,36.3,16.1a2.881,2.881,0,0,0,1.355-.312,2.807,2.807,0,0,0,1.012-.91,4.468,4.468,0,0,0,.633-1.473,8.315,8.315,0,0,0,.219-2.008h-.031a2.559,2.559,0,0,1-2.5,1.445,3.361,3.361,0,0,1-1.32-.254,3.025,3.025,0,0,1-1.039-.719,3.289,3.289,0,0,1-.68-1.105A3.97,3.97,0,0,1,33.7,9.352a4.119,4.119,0,0,1,.27-1.516,3.532,3.532,0,0,1,.75-1.184,3.356,3.356,0,0,1,1.141-.77A3.73,3.73,0,0,1,37.3,5.609a3.191,3.191,0,0,1,1.5.34,3,3,0,0,1,1.1.992,4.9,4.9,0,0,1,.68,1.605A9.166,9.166,0,0,1,40.813,10.727ZM39.43,9.578a3.9,3.9,0,0,0-.168-1.18,2.856,2.856,0,0,0-.465-.91A2.086,2.086,0,0,0,38.09,6.9,1.957,1.957,0,0,0,37.2,6.7a2.028,2.028,0,0,0-.859.184,2.066,2.066,0,0,0-.691.516,2.462,2.462,0,0,0-.461.789,2.866,2.866,0,0,0-.168,1,3.277,3.277,0,0,0,.16,1.063,2.219,2.219,0,0,0,.457.793,1.974,1.974,0,0,0,.715.5,2.412,2.412,0,0,0,.926.172,2.121,2.121,0,0,0,.84-.168,2.224,2.224,0,0,0,.688-.453,2.088,2.088,0,0,0,.461-.672A2.066,2.066,0,0,0,39.43,9.578Zm3.906,7.594a.829.829,0,0,1-.613-.258.849.849,0,0,1-.254-.617.862.862,0,0,1,.254-.621.823.823,0,0,1,.613-.262.845.845,0,0,1,.625.262.855.855,0,0,1,.258.621.842.842,0,0,1-.258.617A.851.851,0,0,1,43.336,17.172ZM51.7,5.8v7.4h1.438v1.172H51.7V17H50.438V14.367H45.172V13.258q.734-.828,1.484-1.77t1.434-1.91q.684-.969,1.266-1.934a17.672,17.672,0,0,0,.98-1.848Zm-5.086,7.4h3.82V7.711q-.586,1.023-1.109,1.828t-1,1.461q-.473.656-.9,1.188T46.617,13.2Zm7.773.68a2.981,2.981,0,0,1,.141-.895,3.24,3.24,0,0,1,.4-.84,3.33,3.33,0,0,1,.648-.711,3.091,3.091,0,0,1,.879-.508A3.322,3.322,0,0,1,55.3,9.879a2.466,2.466,0,0,1-.43-1.41,2.72,2.72,0,0,1,.238-1.141,2.748,2.748,0,0,1,.66-.906,3.052,3.052,0,0,1,1-.6,3.735,3.735,0,0,1,2.508,0,3.106,3.106,0,0,1,1,.6,2.7,2.7,0,0,1,.656.906,2.74,2.74,0,0,1,.234,1.133,2.466,2.466,0,0,1-.43,1.41A3.363,3.363,0,0,1,59.6,10.922a3.064,3.064,0,0,1,.867.508,3.379,3.379,0,0,1,.645.711,3.24,3.24,0,0,1,.4.84,2.981,2.981,0,0,1,.141.895,3.327,3.327,0,0,1-.266,1.344,3,3,0,0,1-.746,1.043,3.444,3.444,0,0,1-1.148.676,4.293,4.293,0,0,1-1.473.242,4.235,4.235,0,0,1-1.461-.242,3.5,3.5,0,0,1-1.148-.676,3.023,3.023,0,0,1-.754-1.043A3.285,3.285,0,0,1,54.391,13.875Zm1.391-.109a2.647,2.647,0,0,0,.16.945,2.038,2.038,0,0,0,.453.719,1.978,1.978,0,0,0,.711.457,2.568,2.568,0,0,0,.926.16,2.439,2.439,0,0,0,.906-.164,2.112,2.112,0,0,0,.715-.461,2.073,2.073,0,0,0,.469-.719,2.514,2.514,0,0,0,.168-.937,2.4,2.4,0,0,0-.16-.879,2.2,2.2,0,0,0-.457-.723,2.147,2.147,0,0,0-.711-.492,2.313,2.313,0,0,0-.93-.18,2.338,2.338,0,0,0-.895.168,2.14,2.14,0,0,0-.711.469,2.171,2.171,0,0,0-.473.719A2.391,2.391,0,0,0,55.781,13.766Zm.4-5.2a1.86,1.86,0,0,0,1.133,1.73,1.846,1.846,0,0,0,1.441,0,1.867,1.867,0,0,0,.59-.4,1.95,1.95,0,0,0,.4-.594,1.8,1.8,0,0,0,.148-.73,1.916,1.916,0,0,0-.145-.75,1.841,1.841,0,0,0-1.715-1.133,1.864,1.864,0,0,0-.754.148,1.821,1.821,0,0,0-.586.4,1.759,1.759,0,0,0-.379.6A2.02,2.02,0,0,0,56.18,8.57Zm6.836,5.3a2.981,2.981,0,0,1,.141-.895,3.24,3.24,0,0,1,.4-.84,3.33,3.33,0,0,1,.648-.711,3.091,3.091,0,0,1,.879-.508A3.322,3.322,0,0,1,63.93,9.879a2.466,2.466,0,0,1-.43-1.41,2.72,2.72,0,0,1,.238-1.141,2.748,2.748,0,0,1,.66-.906,3.052,3.052,0,0,1,1-.6,3.735,3.735,0,0,1,2.508,0,3.106,3.106,0,0,1,1,.6,2.7,2.7,0,0,1,.656.906A2.74,2.74,0,0,1,69.8,8.469a2.466,2.466,0,0,1-.43,1.41,3.363,3.363,0,0,1-1.141,1.043,3.064,3.064,0,0,1,.867.508,3.378,3.378,0,0,1,.645.711,3.24,3.24,0,0,1,.4.84,2.981,2.981,0,0,1,.141.895,3.327,3.327,0,0,1-.266,1.344,3,3,0,0,1-.746,1.043,3.444,3.444,0,0,1-1.148.676,4.293,4.293,0,0,1-1.473.242,4.235,4.235,0,0,1-1.461-.242,3.5,3.5,0,0,1-1.148-.676,3.023,3.023,0,0,1-.754-1.043A3.285,3.285,0,0,1,63.016,13.875Zm1.391-.109a2.646,2.646,0,0,0,.16.945,2.038,2.038,0,0,0,.453.719,1.978,1.978,0,0,0,.711.457,2.568,2.568,0,0,0,.926.16,2.439,2.439,0,0,0,.906-.164,2.112,2.112,0,0,0,.715-.461,2.072,2.072,0,0,0,.469-.719,2.514,2.514,0,0,0,.168-.937,2.4,2.4,0,0,0-.16-.879,2.2,2.2,0,0,0-.457-.723,2.147,2.147,0,0,0-.711-.492,2.313,2.313,0,0,0-.93-.18,2.338,2.338,0,0,0-.895.168,2.14,2.14,0,0,0-.711.469,2.171,2.171,0,0,0-.473.719A2.391,2.391,0,0,0,64.406,13.766Zm.4-5.2a1.86,1.86,0,0,0,1.133,1.73,1.846,1.846,0,0,0,1.441,0,1.867,1.867,0,0,0,.59-.4,1.95,1.95,0,0,0,.4-.594,1.8,1.8,0,0,0,.148-.73,1.916,1.916,0,0,0-.145-.75,1.841,1.841,0,0,0-1.715-1.133,1.864,1.864,0,0,0-.754.148,1.821,1.821,0,0,0-.586.4,1.759,1.759,0,0,0-.379.6A2.02,2.02,0,0,0,64.8,8.57Zm7.875,8.6a.829.829,0,0,1-.613-.258.849.849,0,0,1-.254-.617.862.862,0,0,1,.254-.621.823.823,0,0,1,.613-.262.845.845,0,0,1,.625.262.855.855,0,0,1,.258.621.842.842,0,0,1-.258.617A.851.851,0,0,1,72.68,17.172Zm9.3-3.594a3.771,3.771,0,0,1-.281,1.484,3.245,3.245,0,0,1-.8,1.141,3.586,3.586,0,0,1-1.254.734,4.9,4.9,0,0,1-1.633.258,4.511,4.511,0,0,1-2.32-.469V15.367a4.266,4.266,0,0,0,2.336.734,3.161,3.161,0,0,0,1.1-.18,2.439,2.439,0,0,0,.832-.5,2.141,2.141,0,0,0,.527-.773,2.618,2.618,0,0,0,.184-.992,2.125,2.125,0,0,0-.734-1.715A3.221,3.221,0,0,0,77.8,11.32q-.227,0-.477.008t-.5.02q-.25.012-.488.027t-.434.039L76.281,5.8h5.18V6.953h-4.07l-.227,3.289q.25-.016.531-.027t.5-.012a5.028,5.028,0,0,1,1.594.234,3.377,3.377,0,0,1,1.191.668,2.8,2.8,0,0,1,.742,1.063A3.737,3.737,0,0,1,81.977,13.578ZM91,11.352a11.005,11.005,0,0,1-.254,2.492,5.807,5.807,0,0,1-.734,1.832,3.305,3.305,0,0,1-1.18,1.133,3.23,3.23,0,0,1-1.59.387,3.016,3.016,0,0,1-1.5-.371,3.152,3.152,0,0,1-1.113-1.082A5.484,5.484,0,0,1,83.938,14a10.8,10.8,0,0,1-.234-2.371,12.222,12.222,0,0,1,.246-2.594,5.933,5.933,0,0,1,.723-1.887A3.217,3.217,0,0,1,85.855,6a3.323,3.323,0,0,1,1.621-.387Q91,5.609,91,11.352Zm-1.312.125q0-4.781-2.273-4.781-2.4,0-2.4,4.867,0,4.539,2.352,4.539Q89.688,16.1,89.688,11.477Zm9.938-.125a11.005,11.005,0,0,1-.254,2.492,5.807,5.807,0,0,1-.734,1.832,3.305,3.305,0,0,1-1.18,1.133,3.23,3.23,0,0,1-1.59.387,3.016,3.016,0,0,1-1.5-.371,3.152,3.152,0,0,1-1.113-1.082A5.484,5.484,0,0,1,92.563,14a10.8,10.8,0,0,1-.234-2.371,12.222,12.222,0,0,1,.246-2.594A5.933,5.933,0,0,1,93.3,7.145,3.217,3.217,0,0,1,94.48,6,3.323,3.323,0,0,1,96.1,5.609Q99.625,5.609,99.625,11.352Zm-1.312.125q0-4.781-2.273-4.781-2.4,0-2.4,4.867,0,4.539,2.352,4.539Q98.313,16.1,98.313,11.477Zm4.438,3.742-1.25,3.844h-.914l.914-3.844Zm8.969-3.867a11.005,11.005,0,0,1-.254,2.492,5.807,5.807,0,0,1-.734,1.832,3.305,3.305,0,0,1-1.18,1.133,3.23,3.23,0,0,1-1.59.387,3.016,3.016,0,0,1-1.5-.371,3.152,3.152,0,0,1-1.113-1.082A5.484,5.484,0,0,1,104.656,14a10.8,10.8,0,0,1-.234-2.371,12.222,12.222,0,0,1,.246-2.594,5.933,5.933,0,0,1,.723-1.887A3.217,3.217,0,0,1,106.574,6a3.323,3.323,0,0,1,1.621-.387Q111.719,5.609,111.719,11.352Zm-1.312.125q0-4.781-2.273-4.781-2.4,0-2.4,4.867,0,4.539,2.352,4.539Q110.406,16.1,110.406,11.477Zm9.938-.125a11.005,11.005,0,0,1-.254,2.492,5.807,5.807,0,0,1-.734,1.832,3.305,3.305,0,0,1-1.18,1.133,3.23,3.23,0,0,1-1.59.387,3.016,3.016,0,0,1-1.5-.371,3.152,3.152,0,0,1-1.113-1.082A5.484,5.484,0,0,1,113.281,14a10.8,10.8,0,0,1-.234-2.371,12.222,12.222,0,0,1,.246-2.594,5.933,5.933,0,0,1,.723-1.887A3.217,3.217,0,0,1,115.2,6a3.323,3.323,0,0,1,1.621-.387Q120.344,5.609,120.344,11.352Zm-1.312.125q0-4.781-2.273-4.781-2.4,0-2.4,4.867,0,4.539,2.352,4.539Q119.031,16.1,119.031,11.477Zm.961,43.57h-4.266V54.039h4.266Z" transform="translate(-5921.002 6397.828)" fill="#12263f"/>
    <path id="Trazado_1054743" data-name="Trazado 1054743" d="M0,0H1238.826V34.184H0Z" transform="translate(-7018.352 6303.691)" fill="#fd9826"/>
    <path id="Trazado_1054748" data-name="Trazado 1054748" d="M12.984,17H6.266V5.8h6.461V7.852H8.789v2.492h3.664v2.047H8.789v2.563h4.2Zm11.875,0H22.313L17.7,9.961a10.179,10.179,0,0,1-.562-.93H17.1q.062.594.063,1.813V17H14.781V5.8H17.5l4.445,6.82q.3.461.563.914h.031a11.978,11.978,0,0,1-.062-1.539V5.8h2.383Zm10.43-9.148h-3.2V17H29.563V7.852h-3.18V5.8h8.906ZM46.2,17H43.3l-1.742-2.883q-.2-.328-.375-.586a3.255,3.255,0,0,0-.363-.441,1.445,1.445,0,0,0-.383-.281.972.972,0,0,0-.434-.1h-.68V17H36.8V5.8h4q4.078,0,4.078,3.047a3.155,3.155,0,0,1-.18,1.082,3.006,3.006,0,0,1-.508.895,3.219,3.219,0,0,1-.793.688,4.089,4.089,0,0,1-1.035.453v.031a1.606,1.606,0,0,1,.484.254,3.468,3.468,0,0,1,.453.41,5.723,5.723,0,0,1,.418.5q.2.27.363.527ZM39.32,7.688V10.8h1.094a1.813,1.813,0,0,0,1.3-.469,1.564,1.564,0,0,0,.5-1.18q0-1.469-1.758-1.469ZM57.094,17h-2.75l-.8-2.492H49.563L48.773,17H46.039L50.117,5.8h2.992Zm-4.125-4.43L51.766,8.8A4.907,4.907,0,0,1,51.578,7.8h-.062a4.273,4.273,0,0,1-.2.977L50.1,12.57ZM58.492,17V5.8h3.969q5.969,0,5.969,5.461a5.522,5.522,0,0,1-1.629,4.18A6.007,6.007,0,0,1,62.461,17Zm2.523-9.148v7.1h1.25a3.378,3.378,0,0,0,2.574-.984,3.735,3.735,0,0,0,.934-2.68,3.388,3.388,0,0,0-.926-2.52,3.529,3.529,0,0,0-2.6-.918ZM79.9,17h-2.75l-.8-2.492H72.367L71.578,17H68.844L72.922,5.8h2.992Zm-4.125-4.43L74.57,8.8A4.908,4.908,0,0,1,74.383,7.8H74.32a4.273,4.273,0,0,1-.2.977l-1.219,3.8Z" transform="translate(-6608.71 6312.918)" fill="#12263f"/>
    <path id="Trazado_1054741" data-name="Trazado 1054741" d="M15.129,16.57v-2.5a4.8,4.8,0,0,0,1.477.855,4.746,4.746,0,0,0,1.609.285,3.569,3.569,0,0,0,.832-.086,1.949,1.949,0,0,0,.594-.238A1.039,1.039,0,0,0,20,14.527a.9.9,0,0,0,.117-.449.971.971,0,0,0-.187-.586,2.018,2.018,0,0,0-.512-.477,5.347,5.347,0,0,0-.77-.422q-.445-.2-.961-.414a4.9,4.9,0,0,1-1.957-1.336,2.917,2.917,0,0,1-.645-1.906,3.036,3.036,0,0,1,.352-1.5A2.986,2.986,0,0,1,16.391,6.4a4.291,4.291,0,0,1,1.4-.6,7.206,7.206,0,0,1,1.688-.191,10.15,10.15,0,0,1,1.551.105,6.1,6.1,0,0,1,1.246.324V8.375a3.768,3.768,0,0,0-.613-.344,4.859,4.859,0,0,0-.684-.246,5.214,5.214,0,0,0-.7-.145,4.949,4.949,0,0,0-.66-.047,3.443,3.443,0,0,0-.781.082,2,2,0,0,0-.594.23,1.147,1.147,0,0,0-.375.355.843.843,0,0,0-.133.465.888.888,0,0,0,.148.5,1.7,1.7,0,0,0,.422.422,4.477,4.477,0,0,0,.664.391q.391.191.883.395a9.837,9.837,0,0,1,1.207.6,4.291,4.291,0,0,1,.918.715,2.785,2.785,0,0,1,.586.91,3.216,3.216,0,0,1,.2,1.191,3.191,3.191,0,0,1-.355,1.574,2.886,2.886,0,0,1-.965,1.031,4.184,4.184,0,0,1-1.418.566,8.2,8.2,0,0,1-1.707.172,9.492,9.492,0,0,1-1.754-.156A5.3,5.3,0,0,1,15.129,16.57ZM34.465,17h-2.75l-.8-2.492H26.934L26.145,17H23.41L27.488,5.8H30.48ZM30.34,12.57,29.137,8.8A4.907,4.907,0,0,1,28.949,7.8h-.062a4.273,4.273,0,0,1-.2.977l-1.219,3.8ZM42.535,17H35.863V5.8h2.523v9.156h4.148Zm4.031,0H44.043V5.8h2.523Zm2.547,0V5.8h3.969q5.969,0,5.969,5.461a5.522,5.522,0,0,1-1.629,4.18A6.007,6.007,0,0,1,53.082,17Zm2.523-9.148v7.1h1.25a3.378,3.378,0,0,0,2.574-.984,3.735,3.735,0,0,0,.934-2.68,3.388,3.388,0,0,0-.926-2.52,3.529,3.529,0,0,0-2.6-.918ZM70.52,17H67.77l-.8-2.492H62.988L62.2,17H59.465L63.543,5.8h2.992Zm-4.125-4.43L65.191,8.8A4.908,4.908,0,0,1,65,7.8h-.062a4.273,4.273,0,0,1-.2.977l-1.219,3.8Z" transform="translate(-6368.062 6312.691)" fill="#12263f"/>
    <path id="Trazado_1054742" data-name="Trazado 1054742" d="M17.1,16.57v-2.5a4.8,4.8,0,0,0,1.477.855,4.746,4.746,0,0,0,1.609.285,3.569,3.569,0,0,0,.832-.086,1.949,1.949,0,0,0,.594-.238,1.039,1.039,0,0,0,.355-.359.9.9,0,0,0,.117-.449.971.971,0,0,0-.187-.586,2.018,2.018,0,0,0-.512-.477,5.347,5.347,0,0,0-.77-.422q-.445-.2-.961-.414A4.9,4.9,0,0,1,17.7,10.844a2.917,2.917,0,0,1-.645-1.906,3.036,3.036,0,0,1,.352-1.5A2.986,2.986,0,0,1,18.363,6.4a4.291,4.291,0,0,1,1.4-.6,7.206,7.206,0,0,1,1.688-.191A10.15,10.15,0,0,1,23,5.715a6.1,6.1,0,0,1,1.246.324V8.375a3.768,3.768,0,0,0-.613-.344,4.859,4.859,0,0,0-.684-.246,5.214,5.214,0,0,0-.7-.145,4.949,4.949,0,0,0-.66-.047,3.443,3.443,0,0,0-.781.082,2,2,0,0,0-.594.23,1.147,1.147,0,0,0-.375.355.843.843,0,0,0-.133.465.888.888,0,0,0,.148.5,1.7,1.7,0,0,0,.422.422,4.477,4.477,0,0,0,.664.391q.391.191.883.395a9.837,9.837,0,0,1,1.207.6,4.291,4.291,0,0,1,.918.715,2.785,2.785,0,0,1,.586.91,3.216,3.216,0,0,1,.2,1.191,3.191,3.191,0,0,1-.355,1.574,2.886,2.886,0,0,1-.965,1.031A4.184,4.184,0,0,1,22,17.023,8.2,8.2,0,0,1,20.3,17.2a9.492,9.492,0,0,1-1.754-.156A5.3,5.3,0,0,1,17.1,16.57ZM36.438,17h-2.75l-.8-2.492H28.906L28.117,17H25.383L29.461,5.8h2.992Zm-4.125-4.43L31.109,8.8A4.907,4.907,0,0,1,30.922,7.8h-.062a4.273,4.273,0,0,1-.2.977l-1.219,3.8ZM44.508,17H37.836V5.8h2.523v9.156h4.148Zm1.508,0V5.8h3.969q5.969,0,5.969,5.461a5.522,5.522,0,0,1-1.629,4.18A6.007,6.007,0,0,1,49.984,17Zm2.523-9.148v7.1h1.25a3.378,3.378,0,0,0,2.574-.984,3.735,3.735,0,0,0,.934-2.68,3.388,3.388,0,0,0-.926-2.52,3.529,3.529,0,0,0-2.6-.918ZM62.547,17.2a5.215,5.215,0,0,1-3.922-1.566,5.624,5.624,0,0,1-1.516-4.082,6.026,6.026,0,0,1,1.539-4.3,5.328,5.328,0,0,1,4.078-1.641,5.085,5.085,0,0,1,3.879,1.57,5.79,5.79,0,0,1,1.48,4.141,5.929,5.929,0,0,1-1.535,4.258A5.269,5.269,0,0,1,62.547,17.2Zm.109-9.414a2.54,2.54,0,0,0-2.109,1,4.153,4.153,0,0,0-.781,2.637,4.077,4.077,0,0,0,.781,2.633,2.7,2.7,0,0,0,4.117.027,4.032,4.032,0,0,0,.766-2.613,4.369,4.369,0,0,0-.742-2.711A2.42,2.42,0,0,0,62.656,7.781Z" transform="translate(-6070.975 6312.691)" fill="#12263f"/>
    <path id="Trazado_1054757" data-name="Trazado 1054757" d="M0,0V197.917" transform="translate(-6694.611 6269.304)" fill="none" stroke="#e1e1e1" stroke-width="1"/>
    <path id="Trazado_1054745" data-name="Trazado 1054745" d="M0,0V326.838" transform="translate(-6431.81 6140.188)" fill="none" stroke="#e1e1e1" stroke-width="1"/>
    <path id="Trazado_1054730" data-name="Trazado 1054730" d="M0,0V197.32" transform="translate(-6105.875 6269.304)" fill="none" stroke="#e1e1e1" stroke-width="1"/>
    <path id="Trazado_1054728" data-name="Trazado 1054728" d="M0,0V198.513" transform="translate(-5955.296 6269.304)" fill="none" stroke="#e1e1e1" stroke-width="1"/>
  </g>
</svg>
