<svg xmlns="http://www.w3.org/2000/svg" width="1093.61" height="394.455" viewBox="0 0 1093.61 394.455">
  <g id="Grupo_1181000" data-name="Grupo 1181000" transform="translate(5785.525 -11146.035)">
    <path id="Trazado_1034149" data-name="Trazado 1034149" d="M0,0H1093.565V95.39H0Z" transform="translate(-5785.525 11444.751)" fill="#f6f6f6"/>
    <path id="Trazado_1054771" data-name="Trazado 1054771" d="M0,0H1093.458V39.247H0Z" transform="translate(-5785.417 11501.244)" fill="#fff"/>
    <path id="Trazado_1054779" data-name="Trazado 1054779" d="M0,0H1093.458V39.247H0Z" transform="translate(-5785.47 11384.129)" fill="#f6f6f6"/>
    <path id="Trazado_1054780" data-name="Trazado 1054780" d="M-222.922-.43v-2.5a4.8,4.8,0,0,0,1.477.855,4.746,4.746,0,0,0,1.609.285A3.569,3.569,0,0,0-219-1.875a1.949,1.949,0,0,0,.594-.238,1.039,1.039,0,0,0,.355-.359.9.9,0,0,0,.117-.449.971.971,0,0,0-.187-.586,2.018,2.018,0,0,0-.512-.477,5.347,5.347,0,0,0-.77-.422q-.445-.2-.961-.414a4.9,4.9,0,0,1-1.957-1.336,2.917,2.917,0,0,1-.645-1.906,3.036,3.036,0,0,1,.352-1.5,2.986,2.986,0,0,1,.957-1.035,4.291,4.291,0,0,1,1.4-.6,7.206,7.206,0,0,1,1.688-.191,10.15,10.15,0,0,1,1.551.105,6.1,6.1,0,0,1,1.246.324v2.336a3.768,3.768,0,0,0-.613-.344,4.859,4.859,0,0,0-.684-.246,5.214,5.214,0,0,0-.7-.145,4.949,4.949,0,0,0-.66-.047,3.443,3.443,0,0,0-.781.082,2,2,0,0,0-.594.23,1.147,1.147,0,0,0-.375.355.843.843,0,0,0-.133.465.888.888,0,0,0,.148.5,1.7,1.7,0,0,0,.422.422,4.477,4.477,0,0,0,.664.391q.391.191.883.395a9.836,9.836,0,0,1,1.207.6,4.291,4.291,0,0,1,.918.715,2.785,2.785,0,0,1,.586.91,3.216,3.216,0,0,1,.2,1.191,3.191,3.191,0,0,1-.355,1.574A2.886,2.886,0,0,1-216.6-.543a4.184,4.184,0,0,1-1.418.566A8.2,8.2,0,0,1-219.727.2,9.492,9.492,0,0,1-221.48.039,5.3,5.3,0,0,1-222.922-.43Zm16.2.43h-6.719V-11.2h6.461v2.055h-3.937v2.492h3.664v2.047h-3.664v2.563h4.2Zm11.2,0h-2.9l-1.742-2.883q-.2-.328-.375-.586a3.256,3.256,0,0,0-.363-.441,1.445,1.445,0,0,0-.383-.281.972.972,0,0,0-.434-.1h-.68V0h-2.523V-11.2h4q4.078,0,4.078,3.047a3.155,3.155,0,0,1-.18,1.082,3.006,3.006,0,0,1-.508.895,3.219,3.219,0,0,1-.793.688,4.089,4.089,0,0,1-1.035.453v.031a1.606,1.606,0,0,1,.484.254,3.468,3.468,0,0,1,.453.41,5.723,5.723,0,0,1,.418.5q.2.27.363.527ZM-202.4-9.312V-6.2h1.094a1.813,1.813,0,0,0,1.3-.469,1.564,1.564,0,0,0,.5-1.18q0-1.469-1.758-1.469Zm17.25-1.891L-189.008,0h-2.859l-3.812-11.2h2.719l2.336,7.8a5.584,5.584,0,0,1,.227,1.117h.047a6.314,6.314,0,0,1,.242-1.148l2.32-7.766ZM-181.281,0H-183.8V-11.2h2.523ZM-170.7-.4a7.388,7.388,0,0,1-3.2.594,5.4,5.4,0,0,1-4.055-1.516,5.54,5.54,0,0,1-1.477-4.039,5.919,5.919,0,0,1,1.66-4.359,5.807,5.807,0,0,1,4.309-1.672,8.058,8.058,0,0,1,2.766.414v2.43a4.9,4.9,0,0,0-2.562-.672,3.4,3.4,0,0,0-2.547.992,3.682,3.682,0,0,0-.969,2.688,3.611,3.611,0,0,0,.914,2.59,3.229,3.229,0,0,0,2.461.965,5.249,5.249,0,0,0,2.7-.719Zm4.477.4h-2.523V-11.2h2.523Zm7.281.2a5.215,5.215,0,0,1-3.922-1.566,5.624,5.624,0,0,1-1.516-4.082,6.026,6.026,0,0,1,1.539-4.3,5.328,5.328,0,0,1,4.078-1.641,5.085,5.085,0,0,1,3.879,1.57,5.789,5.789,0,0,1,1.48,4.141,5.929,5.929,0,0,1-1.535,4.258A5.269,5.269,0,0,1-158.945.2Zm.109-9.414a2.54,2.54,0,0,0-2.109,1,4.153,4.153,0,0,0-.781,2.637,4.077,4.077,0,0,0,.781,2.633,2.5,2.5,0,0,0,2.047.969,2.528,2.528,0,0,0,2.07-.941,4.032,4.032,0,0,0,.766-2.613A4.369,4.369,0,0,0-156.8-8.25,2.42,2.42,0,0,0-158.836-9.219ZM-147.133,0V-11.2h3.969q5.969,0,5.969,5.461a5.522,5.522,0,0,1-1.629,4.18A6.007,6.007,0,0,1-143.164,0Zm2.523-9.148v7.1h1.25a3.378,3.378,0,0,0,2.574-.984,3.735,3.735,0,0,0,.934-2.68,3.388,3.388,0,0,0-.926-2.52,3.529,3.529,0,0,0-2.6-.918ZM-128.617,0h-6.719V-11.2h6.461v2.055h-3.937v2.492h3.664v2.047h-3.664v2.563h4.2Zm14.078-9.148h-3.2V0h-2.531V-9.148h-3.18V-11.2h8.906ZM-106.312,0h-6.719V-11.2h6.461v2.055h-3.937v2.492h3.664v2.047h-3.664v2.563h4.2Zm8.469,0h-6.672V-11.2h2.523v9.156h4.148Zm8.227,0h-6.719V-11.2h6.461v2.055h-3.937v2.492h3.664v2.047h-3.664v2.563h4.2Zm-.7-14.766-2.445,2.523h-1.781l2.031-2.523Zm8.977,5.617H-85.3V-6.4h3.633v2.047H-85.3V0H-87.82V-11.2h6.477ZM-74.766.2a5.215,5.215,0,0,1-3.922-1.566A5.624,5.624,0,0,1-80.2-5.453a6.026,6.026,0,0,1,1.539-4.3,5.328,5.328,0,0,1,4.078-1.641,5.085,5.085,0,0,1,3.879,1.57,5.79,5.79,0,0,1,1.48,4.141,5.929,5.929,0,0,1-1.535,4.258A5.269,5.269,0,0,1-74.766.2Zm.109-9.414a2.54,2.54,0,0,0-2.109,1,4.153,4.153,0,0,0-.781,2.637,4.077,4.077,0,0,0,.781,2.633,2.5,2.5,0,0,0,2.047.969,2.528,2.528,0,0,0,2.07-.941,4.032,4.032,0,0,0,.766-2.613,4.369,4.369,0,0,0-.742-2.711A2.42,2.42,0,0,0-74.656-9.219ZM-57.289,0h-2.547l-4.617-7.039a10.178,10.178,0,0,1-.562-.93h-.031q.062.594.063,1.813V0h-2.383V-11.2h2.719l4.445,6.82q.3.461.563.914h.031a11.978,11.978,0,0,1-.062-1.539v-6.2h2.383Zm7.3.2a5.215,5.215,0,0,1-3.922-1.566A5.624,5.624,0,0,1-55.43-5.453a6.026,6.026,0,0,1,1.539-4.3,5.328,5.328,0,0,1,4.078-1.641,5.085,5.085,0,0,1,3.879,1.57,5.79,5.79,0,0,1,1.48,4.141,5.929,5.929,0,0,1-1.535,4.258A5.269,5.269,0,0,1-49.992.2Zm.109-9.414a2.54,2.54,0,0,0-2.109,1,4.153,4.153,0,0,0-.781,2.637,4.077,4.077,0,0,0,.781,2.633,2.5,2.5,0,0,0,2.047.969,2.528,2.528,0,0,0,2.07-.941,4.032,4.032,0,0,0,.766-2.613,4.369,4.369,0,0,0-.742-2.711A2.42,2.42,0,0,0-49.883-9.219ZM-38.18,0V-11.2h3.969q5.969,0,5.969,5.461a5.522,5.522,0,0,1-1.629,4.18A6.007,6.007,0,0,1-34.211,0Zm2.523-9.148v7.1h1.25a3.378,3.378,0,0,0,2.574-.984,3.735,3.735,0,0,0,.934-2.68,3.388,3.388,0,0,0-.926-2.52,3.529,3.529,0,0,0-2.6-.918ZM-19.664,0h-6.719V-11.2h6.461v2.055h-3.937v2.492H-20.2v2.047h-3.664v2.563h4.2ZM-11.2,0h-6.672V-11.2h2.523v9.156H-11.2Zm9.18.2q-4,0-4-5.617A7.643,7.643,0,0,1-4.934-9.863,3.605,3.605,0,0,1-1.8-11.391q3.906,0,3.906,5.711A7.526,7.526,0,0,1,1.043-1.32,3.513,3.513,0,0,1-2.016.2Zm.109-9.7q-1.6,0-1.6,4.023,0,3.789,1.57,3.789Q-.406-1.7-.406-5.6T-1.906-9.508ZM9.148-11.453V0H6.688V-8.672a2.947,2.947,0,0,1-.48.34,4.96,4.96,0,0,1-.59.289,5.267,5.267,0,0,1-.648.219A4.736,4.736,0,0,1,4.3-7.7V-9.773a10.266,10.266,0,0,0,1.813-.719,10.315,10.315,0,0,0,1.539-.961ZM27.4,0h-2.75l-.8-2.492H19.867L19.078,0H16.344l4.078-11.2h2.992ZM23.273-4.43,22.07-8.2A4.907,4.907,0,0,1,21.883-9.2H21.82a4.273,4.273,0,0,1-.2.977l-1.219,3.8ZM35.469,0H28.8V-11.2H31.32v9.156h4.148Zm5.555-.367V-2.516a4.336,4.336,0,0,0,2.625.82A2.363,2.363,0,0,0,45.121-2.1a1.349,1.349,0,0,0,.527-1.133A1.288,1.288,0,0,0,45-4.391,3.38,3.38,0,0,0,43.2-4.8H42.164V-6.687h.961q2.187,0,2.188-1.453,0-1.367-1.68-1.367a3.829,3.829,0,0,0-2.187.727V-10.8a6.042,6.042,0,0,1,2.75-.594,4.15,4.15,0,0,1,2.676.773,2.461,2.461,0,0,1,.957,2.008A2.611,2.611,0,0,1,45.6-5.859v.039a3.027,3.027,0,0,1,1.875.863A2.434,2.434,0,0,1,48.164-3.2,3.006,3.006,0,0,1,47.016-.719,4.965,4.965,0,0,1,43.844.2,6.13,6.13,0,0,1,41.023-.367ZM53.852.2q-4,0-4-5.617a7.643,7.643,0,0,1,1.082-4.441,3.605,3.605,0,0,1,3.137-1.527q3.906,0,3.906,5.711A7.526,7.526,0,0,1,56.91-1.32,3.513,3.513,0,0,1,53.852.2Zm.109-9.7q-1.6,0-1.6,4.023,0,3.789,1.57,3.789,1.531,0,1.531-3.906T53.961-9.508ZM64.211,0V-11.2H68.18q5.969,0,5.969,5.461a5.522,5.522,0,0,1-1.629,4.18A6.007,6.007,0,0,1,68.18,0Zm2.523-9.148v7.1h1.25a3.378,3.378,0,0,0,2.574-.984,3.735,3.735,0,0,0,.934-2.68,3.388,3.388,0,0,0-.926-2.52,3.529,3.529,0,0,0-2.6-.918ZM82.727,0H76.008V-11.2h6.461v2.055H78.531v2.492H82.2v2.047H78.531v2.563h4.2Zm5.7-.43v-2.5a4.8,4.8,0,0,0,1.477.855,4.746,4.746,0,0,0,1.609.285,3.569,3.569,0,0,0,.832-.086,1.949,1.949,0,0,0,.594-.238,1.039,1.039,0,0,0,.355-.359.9.9,0,0,0,.117-.449.971.971,0,0,0-.187-.586,2.018,2.018,0,0,0-.512-.477,5.347,5.347,0,0,0-.77-.422q-.445-.2-.961-.414A4.9,4.9,0,0,1,89.02-6.156a2.917,2.917,0,0,1-.645-1.906,3.036,3.036,0,0,1,.352-1.5,2.986,2.986,0,0,1,.957-1.035,4.291,4.291,0,0,1,1.4-.6,7.206,7.206,0,0,1,1.688-.191,10.15,10.15,0,0,1,1.551.105,6.1,6.1,0,0,1,1.246.324v2.336a3.768,3.768,0,0,0-.613-.344,4.859,4.859,0,0,0-.684-.246,5.214,5.214,0,0,0-.7-.145,4.949,4.949,0,0,0-.66-.047,3.443,3.443,0,0,0-.781.082,2,2,0,0,0-.594.23,1.147,1.147,0,0,0-.375.355.843.843,0,0,0-.133.465.888.888,0,0,0,.148.5,1.7,1.7,0,0,0,.422.422,4.477,4.477,0,0,0,.664.391q.391.191.883.395a9.838,9.838,0,0,1,1.207.6,4.291,4.291,0,0,1,.918.715,2.785,2.785,0,0,1,.586.91,3.216,3.216,0,0,1,.2,1.191,3.191,3.191,0,0,1-.355,1.574,2.886,2.886,0,0,1-.965,1.031,4.184,4.184,0,0,1-1.418.566A8.2,8.2,0,0,1,91.617.2,9.492,9.492,0,0,1,89.863.039,5.3,5.3,0,0,1,88.422-.43Zm16.2.43H97.906V-11.2h6.461v2.055H100.43v2.492h3.664v2.047H100.43v2.563h4.2Zm4.32-3.859V0h-2.523V-11.2h3.953q4.234,0,4.234,3.57a3.426,3.426,0,0,1-1.215,2.73,4.813,4.813,0,0,1-3.246,1.043Zm0-5.406v3.492h.992q2.016,0,2.016-1.766,0-1.727-2.016-1.727Zm15.172.117h-3.2V0h-2.531V-9.148h-3.18V-11.2h8.906ZM128.148,0h-2.523V-11.2h2.523Zm9.266,0H130.7V-11.2h6.461v2.055h-3.937v2.492h3.664v2.047h-3.664v2.563h4.2Zm14.563,0h-2.492V-6.7q0-1.086.094-2.4h-.062a11.8,11.8,0,0,1-.352,1.484L146.539,0h-2.062L141.8-7.539a14.668,14.668,0,0,1-.352-1.562h-.07q.1,1.656.1,2.906V0h-2.273V-11.2h3.7L145.2-4.562a9.349,9.349,0,0,1,.4,1.6h.047a16.127,16.127,0,0,1,.445-1.617l2.289-6.625h3.6Zm2.547,0V-11.2H158.6a5.093,5.093,0,0,1,2.883.688,2.211,2.211,0,0,1,1.008,1.938,2.293,2.293,0,0,1-.613,1.586,3.222,3.222,0,0,1-1.566.945v.031a3.1,3.1,0,0,1,1.91.883,2.469,2.469,0,0,1,.715,1.789,2.99,2.99,0,0,1-1.1,2.441,4.61,4.61,0,0,1-3.008.9Zm2.523-9.344v2.656h1.109a1.849,1.849,0,0,0,1.23-.379,1.291,1.291,0,0,0,.449-1.043q0-1.234-1.844-1.234Zm0,4.531v2.953h1.367a2.1,2.1,0,0,0,1.371-.406,1.357,1.357,0,0,0,.5-1.109,1.266,1.266,0,0,0-.488-1.055,2.16,2.16,0,0,0-1.363-.383ZM174.18,0h-2.9l-1.742-2.883q-.2-.328-.375-.586a3.256,3.256,0,0,0-.363-.441,1.445,1.445,0,0,0-.383-.281.972.972,0,0,0-.434-.1h-.68V0h-2.523V-11.2h4q4.078,0,4.078,3.047a3.155,3.155,0,0,1-.18,1.082,3.006,3.006,0,0,1-.508.895,3.219,3.219,0,0,1-.793.688,4.089,4.089,0,0,1-1.035.453v.031a1.606,1.606,0,0,1,.484.254,3.468,3.468,0,0,1,.453.41,5.723,5.723,0,0,1,.418.5q.2.27.363.527ZM167.3-9.312V-6.2H168.4a1.813,1.813,0,0,0,1.3-.469,1.564,1.564,0,0,0,.5-1.18q0-1.469-1.758-1.469ZM181.945,0h-6.719V-11.2h6.461v2.055H177.75v2.492h3.664v2.047H177.75v2.563h4.2Zm8.281-2.047h4.75V0h-7.453V-.844a3.927,3.927,0,0,1,.289-1.543,5.12,5.12,0,0,1,.727-1.227,6.3,6.3,0,0,1,.957-.961q.52-.418.988-.754.492-.352.863-.672a4.919,4.919,0,0,0,.625-.637,2.421,2.421,0,0,0,.379-.641,1.905,1.905,0,0,0,.125-.691,1.39,1.39,0,0,0-.406-1.086,1.806,1.806,0,0,0-1.242-.367,4.172,4.172,0,0,0-2.766,1.148v-2.172a5.937,5.937,0,0,1,3.3-.945,4.869,4.869,0,0,1,1.527.223,3.231,3.231,0,0,1,1.145.637,2.716,2.716,0,0,1,.715,1,3.388,3.388,0,0,1,.246,1.316,3.712,3.712,0,0,1-.238,1.375,4.225,4.225,0,0,1-.633,1.094,5.74,5.74,0,0,1-.91.9q-.516.41-1.07.793-.375.266-.723.527A6.851,6.851,0,0,0,190.8-3a2.8,2.8,0,0,0-.422.5A.856.856,0,0,0,190.227-2.047ZM200.617.2q-4,0-4-5.617A7.643,7.643,0,0,1,197.7-9.863a3.605,3.605,0,0,1,3.137-1.527q3.906,0,3.906,5.711a7.526,7.526,0,0,1-1.066,4.359A3.513,3.513,0,0,1,200.617.2Zm.109-9.7q-1.6,0-1.6,4.023,0,3.789,1.57,3.789,1.531,0,1.531-3.906T200.727-9.508Zm7.906,7.461h4.75V0H205.93V-.844a3.927,3.927,0,0,1,.289-1.543,5.12,5.12,0,0,1,.727-1.227,6.3,6.3,0,0,1,.957-.961q.52-.418.988-.754.492-.352.863-.672a4.919,4.919,0,0,0,.625-.637,2.421,2.421,0,0,0,.379-.641,1.905,1.905,0,0,0,.125-.691,1.39,1.39,0,0,0-.406-1.086,1.806,1.806,0,0,0-1.242-.367,4.172,4.172,0,0,0-2.766,1.148v-2.172a5.937,5.937,0,0,1,3.3-.945,4.869,4.869,0,0,1,1.527.223,3.231,3.231,0,0,1,1.145.637,2.716,2.716,0,0,1,.715,1,3.388,3.388,0,0,1,.246,1.316,3.712,3.712,0,0,1-.238,1.375,4.225,4.225,0,0,1-.633,1.094,5.74,5.74,0,0,1-.91.9q-.516.41-1.07.793-.375.266-.723.527a6.851,6.851,0,0,0-.613.516,2.8,2.8,0,0,0-.422.5A.856.856,0,0,0,208.633-2.047ZM219.023.2q-4,0-4-5.617a7.643,7.643,0,0,1,1.082-4.441,3.605,3.605,0,0,1,3.137-1.527q3.906,0,3.906,5.711a7.526,7.526,0,0,1-1.066,4.359A3.513,3.513,0,0,1,219.023.2Zm.109-9.7q-1.6,0-1.6,4.023,0,3.789,1.57,3.789,1.531,0,1.531-3.906T219.133-9.508Z" transform="translate(-5549.085 11406.865)" fill="#12263f"/>
    <path id="Trazado_1034198" data-name="Trazado 1034198" d="M0,0H1093.124V238H0Z" transform="translate(-5785.039 11146.494)" fill="#fff"/>
    <path id="Trazado_1034195" data-name="Trazado 1034195" d="M0,0H1093.565V59.665H0Z" transform="translate(-5785.525 11146.494)" fill="#fd9826"/>
    <path id="Trazado_1034197" data-name="Trazado 1034197" d="M0,0H1093.565V59.665H0Z" transform="translate(-5785.525 11265.824)" fill="#fd9826"/>
    <path id="Trazado_1054784" data-name="Trazado 1054784" d="M0,0V177" transform="translate(-4879.32 11148.494)" fill="none"/>
    <path id="Trazado_1054794" data-name="Trazado 1054794" d="M101.964,16.6a7.388,7.388,0,0,1-3.2.594,5.4,5.4,0,0,1-4.055-1.516,5.54,5.54,0,0,1-1.477-4.039,5.919,5.919,0,0,1,1.66-4.359A5.807,5.807,0,0,1,99.2,5.609a8.058,8.058,0,0,1,2.766.414v2.43A4.9,4.9,0,0,0,99.4,7.781a3.4,3.4,0,0,0-2.547.992,3.682,3.682,0,0,0-.969,2.688,3.611,3.611,0,0,0,.914,2.59,3.229,3.229,0,0,0,2.461.965,5.249,5.249,0,0,0,2.7-.719Zm8.625.4h-6.672V5.8h2.523v9.156h4.148ZM122.3,17h-2.75l-.8-2.492h-3.984L113.98,17h-2.734l4.078-11.2h2.992Zm-4.125-4.43-1.2-3.766a4.908,4.908,0,0,1-.187-1.008h-.062a4.273,4.273,0,0,1-.2.977l-1.219,3.8ZM133.1,17h-2.9l-1.742-2.883q-.2-.328-.375-.586a3.255,3.255,0,0,0-.363-.441,1.445,1.445,0,0,0-.383-.281.972.972,0,0,0-.434-.1h-.68V17H123.7V5.8h4q4.078,0,4.078,3.047a3.155,3.155,0,0,1-.18,1.082,3.006,3.006,0,0,1-.508.895,3.219,3.219,0,0,1-.793.688,4.089,4.089,0,0,1-1.035.453v.031a1.606,1.606,0,0,1,.484.254,3.468,3.468,0,0,1,.453.41,5.726,5.726,0,0,1,.418.5q.2.27.363.527Zm-6.875-9.312V10.8h1.094a1.813,1.813,0,0,0,1.3-.469,1.564,1.564,0,0,0,.5-1.18q0-1.469-1.758-1.469Zm12.5,9.508a5.215,5.215,0,0,1-3.922-1.566,5.624,5.624,0,0,1-1.516-4.082,6.026,6.026,0,0,1,1.539-4.3A5.328,5.328,0,0,1,138.9,5.609a5.085,5.085,0,0,1,3.879,1.57,5.789,5.789,0,0,1,1.48,4.141,5.929,5.929,0,0,1-1.535,4.258A5.269,5.269,0,0,1,138.722,17.2Zm.109-9.414a2.54,2.54,0,0,0-2.109,1,4.153,4.153,0,0,0-.781,2.637,4.077,4.077,0,0,0,.781,2.633,2.7,2.7,0,0,0,4.117.027,4.032,4.032,0,0,0,.766-2.613,4.369,4.369,0,0,0-.742-2.711A2.42,2.42,0,0,0,138.832,7.781Z" transform="translate(-5649.667 11166.166)" fill="#12263f"/>
    <path id="Trazado_1054790" data-name="Trazado 1054790" d="M8,17H1.281V5.8H7.742V7.852H3.8v2.492H7.469v2.047H3.8v2.563H8Zm14.563,0H20.07V10.3q0-1.086.094-2.4H20.1a11.8,11.8,0,0,1-.352,1.484L17.125,17H15.063L12.391,9.461A14.67,14.67,0,0,1,12.039,7.9h-.07q.1,1.656.1,2.906V17H9.8V5.8h3.7l2.289,6.641a9.35,9.35,0,0,1,.4,1.6h.047a16.127,16.127,0,0,1,.445-1.617L18.961,5.8h3.6Zm5.07-3.859V17H25.109V5.8h3.953q4.234,0,4.234,3.57a3.426,3.426,0,0,1-1.215,2.73,4.813,4.813,0,0,1-3.246,1.043Zm0-5.406v3.492h.992q2.016,0,2.016-1.766,0-1.727-2.016-1.727ZM43.844,17h-2.75l-.8-2.492H36.313L35.523,17H32.789L36.867,5.8h2.992Zm-4.125-4.43L38.516,8.8A4.907,4.907,0,0,1,38.328,7.8h-.062a4.273,4.273,0,0,1-.2.977l-1.219,3.8ZM55.32,17H52.773L48.156,9.961a10.18,10.18,0,0,1-.562-.93h-.031q.063.594.063,1.813V17H45.242V5.8h2.719l4.445,6.82q.3.461.563.914H53a11.978,11.978,0,0,1-.062-1.539V5.8H55.32Zm12.414,0h-2.75l-.8-2.492H60.2L59.414,17H56.68L60.758,5.8H63.75Zm-4.125-4.43L62.406,8.8A4.907,4.907,0,0,1,62.219,7.8h-.062a4.273,4.273,0,0,1-.2.977l-1.219,3.8ZM69.133,17V5.8H73.1q5.969,0,5.969,5.461a5.522,5.522,0,0,1-1.629,4.18A6.007,6.007,0,0,1,73.1,17Zm2.523-9.148v7.1h1.25a3.378,3.378,0,0,0,2.574-.984,3.735,3.735,0,0,0,.934-2.68,3.388,3.388,0,0,0-.926-2.52,3.529,3.529,0,0,0-2.6-.918ZM90.539,17h-2.75l-.8-2.492H83.008L82.219,17H79.484L83.563,5.8h2.992Zm-4.125-4.43L85.211,8.8A4.908,4.908,0,0,1,85.023,7.8h-.062a4.273,4.273,0,0,1-.2.977l-1.219,3.8ZM100.18,17H91.156V15.547l5.742-7.7H91.57V5.8h8.594V7.211l-5.617,7.742h5.633Zm6.383.2a5.215,5.215,0,0,1-3.922-1.566,5.624,5.624,0,0,1-1.516-4.082,6.026,6.026,0,0,1,1.539-4.3,5.328,5.328,0,0,1,4.078-1.641,5.085,5.085,0,0,1,3.879,1.57,5.79,5.79,0,0,1,1.48,4.141,5.929,5.929,0,0,1-1.535,4.258A5.269,5.269,0,0,1,106.563,17.2Zm.109-9.414a2.54,2.54,0,0,0-2.109,1,4.153,4.153,0,0,0-.781,2.637,4.077,4.077,0,0,0,.781,2.633,2.7,2.7,0,0,0,4.117.027,4.032,4.032,0,0,0,.766-2.613A4.369,4.369,0,0,0,108.7,8.75,2.42,2.42,0,0,0,106.672,7.781ZM125.047,17h-6.672V5.8H120.9v9.156h4.148Zm8.32-9.148h-3.2V17h-2.531V7.852h-3.18V5.8h8.906ZM134.875,17V5.8h3.969q5.969,0,5.969,5.461a5.522,5.522,0,0,1-1.629,4.18A6.007,6.007,0,0,1,138.844,17ZM137.4,7.852v7.1h1.25a3.378,3.378,0,0,0,2.574-.984,3.735,3.735,0,0,0,.934-2.68,3.388,3.388,0,0,0-.926-2.52,3.529,3.529,0,0,0-2.6-.918ZM156.281,17h-2.75l-.8-2.492H148.75L147.961,17h-2.734L149.3,5.8H152.3Zm-4.125-4.43-1.2-3.766a4.906,4.906,0,0,1-.187-1.008H150.7a4.273,4.273,0,0,1-.2.977l-1.219,3.8Z" transform="translate(-5714.45 11225.996)" fill="#12263f"/>
    <path id="Trazado_1054792" data-name="Trazado 1054792" d="M55.671,7.852H51.718V10.6h3.633v2.047H51.718V17H49.195V5.8h6.477ZM66.914,17h-2.9l-1.742-2.883q-.2-.328-.375-.586a3.255,3.255,0,0,0-.363-.441,1.445,1.445,0,0,0-.383-.281.972.972,0,0,0-.434-.1h-.68V17H57.515V5.8h4q4.078,0,4.078,3.047a3.155,3.155,0,0,1-.18,1.082,3.006,3.006,0,0,1-.508.895,3.219,3.219,0,0,1-.793.688,4.089,4.089,0,0,1-1.035.453v.031a1.606,1.606,0,0,1,.484.254,3.468,3.468,0,0,1,.453.41,5.722,5.722,0,0,1,.418.5q.2.27.363.527ZM60.039,7.688V10.8h1.094a1.813,1.813,0,0,0,1.3-.469,1.564,1.564,0,0,0,.5-1.18q0-1.469-1.758-1.469ZM77.812,17h-2.75l-.8-2.492H70.281L69.492,17H66.757L70.835,5.8h2.992Zm-4.125-4.43L72.484,8.8A4.908,4.908,0,0,1,72.3,7.8h-.062a4.273,4.273,0,0,1-.2.977l-1.219,3.8ZM83.625,17V5.8h3.969q5.969,0,5.969,5.461a5.522,5.522,0,0,1-1.629,4.18A6.007,6.007,0,0,1,87.593,17Zm2.523-9.148v7.1H87.4a3.378,3.378,0,0,0,2.574-.984,3.735,3.735,0,0,0,.934-2.68,3.388,3.388,0,0,0-.926-2.52,3.529,3.529,0,0,0-2.6-.918ZM102.14,17H95.421V5.8h6.461V7.852H97.945v2.492h3.664v2.047H97.945v2.563h4.2ZM117.679,5.8,113.82,17H110.96L107.148,5.8h2.719l2.336,7.8a5.584,5.584,0,0,1,.227,1.117h.047a6.315,6.315,0,0,1,.242-1.148l2.32-7.766ZM125.742,17h-6.719V5.8h6.461V7.852h-3.937v2.492h3.664v2.047h-3.664v2.563h4.2Zm11.875,0H135.07l-4.617-7.039a10.174,10.174,0,0,1-.562-.93h-.031q.062.594.063,1.813V17h-2.383V5.8h2.719l4.445,6.82q.3.461.563.914h.031a11.977,11.977,0,0,1-.062-1.539V5.8h2.383Zm10.43-9.148h-3.2V17H142.32V7.852h-3.18V5.8h8.906ZM158.289,17h-2.75l-.8-2.492h-3.984L149.968,17h-2.734l4.078-11.2H154.3Zm-4.125-4.43L152.96,8.8a4.906,4.906,0,0,1-.187-1.008h-.062a4.273,4.273,0,0,1-.2.977l-1.219,3.8ZM174.179,17h-2.547l-4.617-7.039a10.181,10.181,0,0,1-.562-.93h-.031q.063.594.063,1.813V17H164.1V5.8h2.719l4.445,6.82q.3.461.563.914h.031a11.977,11.977,0,0,1-.062-1.539V5.8h2.383Zm6.133.2a4.3,4.3,0,0,1-3.145-1.121,4.064,4.064,0,0,1-1.145-3.043,4.065,4.065,0,0,1,1.188-3.105A4.487,4.487,0,0,1,180.421,8.8a4.249,4.249,0,0,1,3.125,1.121,3.985,3.985,0,0,1,1.133,2.965,4.23,4.23,0,0,1-1.168,3.148A4.348,4.348,0,0,1,180.312,17.2Zm.063-6.5a1.647,1.647,0,0,0-1.359.6,2.653,2.653,0,0,0-.484,1.7q0,2.3,1.859,2.3,1.773,0,1.773-2.367Q182.164,10.7,180.375,10.7Zm7.008,6.5a1.44,1.44,0,0,1-1.016-.375,1.206,1.206,0,0,1-.406-.922,1.161,1.161,0,0,1,.418-.922,1.543,1.543,0,0,1,1.043-.359,1.486,1.486,0,0,1,1.035.363,1.258,1.258,0,0,1-.008,1.852A1.549,1.549,0,0,1,187.382,17.2Z" transform="translate(-5154.846 11171.826)" fill="#12263f"/>
    <path id="Trazado_1054791" data-name="Trazado 1054791" d="M65.281,7.852H61.328V10.6H64.96v2.047H61.328V17H58.8V5.8h6.477ZM73.843,17H67.125V5.8h6.461V7.852H69.648v2.492h3.664v2.047H69.648v2.563h4.2Zm9.828-.4a7.388,7.388,0,0,1-3.2.594,5.4,5.4,0,0,1-4.055-1.516,5.54,5.54,0,0,1-1.477-4.039A5.919,5.919,0,0,1,76.6,7.281a5.807,5.807,0,0,1,4.309-1.672,8.058,8.058,0,0,1,2.766.414v2.43a4.9,4.9,0,0,0-2.562-.672,3.4,3.4,0,0,0-2.547.992,3.682,3.682,0,0,0-.969,2.688,3.611,3.611,0,0,0,.914,2.59,3.229,3.229,0,0,0,2.461.965,5.249,5.249,0,0,0,2.7-.719ZM95.32,17H92.789V12.438H88.148V17H85.625V5.8h2.523v4.469h4.641V5.8H95.32Zm12.414,0h-2.75l-.8-2.492H100.2L99.414,17H96.679l4.078-11.2h2.992Zm-4.125-4.43-1.2-3.766a4.908,4.908,0,0,1-.187-1.008h-.062a4.273,4.273,0,0,1-.2.977l-1.219,3.8ZM120.265,17h-6.719V5.8h6.461V7.852H116.07v2.492h3.664v2.047H116.07v2.563h4.2Zm14.563,0h-2.492V10.3q0-1.086.094-2.4h-.062a11.806,11.806,0,0,1-.352,1.484L129.39,17h-2.063l-2.672-7.539A14.672,14.672,0,0,1,124.3,7.9h-.07q.1,1.656.1,2.906V17h-2.273V5.8h3.7l2.289,6.641a9.349,9.349,0,0,1,.4,1.6h.047a16.119,16.119,0,0,1,.445-1.617L131.226,5.8h3.6Zm5.07,0h-2.523V5.8H139.9Zm2.031-.43v-2.5a4.8,4.8,0,0,0,1.477.855,4.746,4.746,0,0,0,1.609.285,3.569,3.569,0,0,0,.832-.086,1.949,1.949,0,0,0,.594-.238,1.039,1.039,0,0,0,.355-.359.9.9,0,0,0,.117-.449.971.971,0,0,0-.187-.586,2.018,2.018,0,0,0-.512-.477,5.347,5.347,0,0,0-.77-.422q-.445-.2-.961-.414a4.9,4.9,0,0,1-1.957-1.336,2.917,2.917,0,0,1-.645-1.906,3.036,3.036,0,0,1,.352-1.5,2.986,2.986,0,0,1,.957-1.035,4.291,4.291,0,0,1,1.4-.6,7.206,7.206,0,0,1,1.688-.191,10.15,10.15,0,0,1,1.551.105,6.1,6.1,0,0,1,1.246.324V8.375a3.768,3.768,0,0,0-.613-.344,4.859,4.859,0,0,0-.684-.246,5.214,5.214,0,0,0-.7-.145,4.949,4.949,0,0,0-.66-.047,3.443,3.443,0,0,0-.781.082,2,2,0,0,0-.594.23,1.147,1.147,0,0,0-.375.355.843.843,0,0,0-.133.465.888.888,0,0,0,.148.5,1.7,1.7,0,0,0,.422.422,4.477,4.477,0,0,0,.664.391q.391.191.883.395a9.837,9.837,0,0,1,1.207.6,4.291,4.291,0,0,1,.918.715,2.785,2.785,0,0,1,.586.91,3.216,3.216,0,0,1,.2,1.191,3.191,3.191,0,0,1-.355,1.574,2.886,2.886,0,0,1-.965,1.031,4.184,4.184,0,0,1-1.418.566,8.2,8.2,0,0,1-1.707.172,9.492,9.492,0,0,1-1.754-.156A5.3,5.3,0,0,1,141.929,16.57Zm12.008.43h-2.523V5.8h2.523Zm7.281.2a5.215,5.215,0,0,1-3.922-1.566,5.624,5.624,0,0,1-1.516-4.082,6.026,6.026,0,0,1,1.539-4.3A5.328,5.328,0,0,1,161.4,5.609a5.085,5.085,0,0,1,3.879,1.57,5.789,5.789,0,0,1,1.48,4.141,5.929,5.929,0,0,1-1.535,4.258A5.269,5.269,0,0,1,161.218,17.2Zm.109-9.414a2.54,2.54,0,0,0-2.109,1,4.153,4.153,0,0,0-.781,2.637,4.077,4.077,0,0,0,.781,2.633,2.7,2.7,0,0,0,4.117.027,4.032,4.032,0,0,0,.766-2.613,4.369,4.369,0,0,0-.742-2.711A2.42,2.42,0,0,0,161.328,7.781Zm2.547-5.547-2.445,2.523h-1.781l2.031-2.523ZM178.687,17H176.14l-4.617-7.039a10.181,10.181,0,0,1-.562-.93h-.031q.063.594.063,1.813V17h-2.383V5.8h2.719l4.445,6.82q.3.461.563.914h.031a11.977,11.977,0,0,1-.062-1.539V5.8h2.383Z" transform="translate(-5154.846 11226.662)" fill="#12263f"/>
    <path id="Trazado_1054793" data-name="Trazado 1054793" d="M20.272,13.984a2.983,2.983,0,0,1,.137-.9,2.734,2.734,0,0,1,.41-.8,3.019,3.019,0,0,1,.684-.664,3.672,3.672,0,0,1,.965-.48,3.46,3.46,0,0,1-1.32-1.082,2.473,2.473,0,0,1-.469-1.465,2.649,2.649,0,0,1,.27-1.187,2.881,2.881,0,0,1,.746-.945,3.49,3.49,0,0,1,1.137-.621,4.485,4.485,0,0,1,1.441-.223,4.573,4.573,0,0,1,1.461.223,3.572,3.572,0,0,1,1.145.617,2.8,2.8,0,0,1,.746.934,2.615,2.615,0,0,1,.266,1.172A2.326,2.326,0,0,1,27.39,10a3.722,3.722,0,0,1-1.383,1.074,3.769,3.769,0,0,1,.961.48,3.093,3.093,0,0,1,.7.668,2.736,2.736,0,0,1,.422.816,3.006,3.006,0,0,1,.141.918,2.933,2.933,0,0,1-.289,1.309,2.979,2.979,0,0,1-.816,1.016,3.853,3.853,0,0,1-1.258.66,5.661,5.661,0,0,1-3.211,0,3.84,3.84,0,0,1-1.258-.652,3.025,3.025,0,0,1-.824-1.012A2.852,2.852,0,0,1,20.272,13.984Zm2.336-.211a1.9,1.9,0,0,0,.117.688,1.406,1.406,0,0,0,.336.516,1.5,1.5,0,0,0,.52.324,1.906,1.906,0,0,0,.676.113,1.8,1.8,0,0,0,.66-.117,1.549,1.549,0,0,0,.52-.328,1.493,1.493,0,0,0,.344-.516,1.86,1.86,0,0,0,.008-1.32,1.523,1.523,0,0,0-.336-.527,1.635,1.635,0,0,0-1.2-.488,1.761,1.761,0,0,0-.656.121,1.5,1.5,0,0,0-.523.344,1.622,1.622,0,0,0-.344.527A1.733,1.733,0,0,0,22.608,13.773Zm.344-4.961a1.48,1.48,0,0,0,.105.559,1.441,1.441,0,0,0,.285.453,1.3,1.3,0,0,0,.426.3,1.3,1.3,0,0,0,1.043,0,1.331,1.331,0,0,0,.426-.3,1.459,1.459,0,0,0,.395-1.008,1.552,1.552,0,0,0-.1-.566,1.339,1.339,0,0,0-.715-.754,1.342,1.342,0,0,0-1.07,0,1.309,1.309,0,0,0-.422.3,1.369,1.369,0,0,0-.273.453A1.585,1.585,0,0,0,22.952,8.813ZM37.4,7.219q-.75,1.352-1.344,2.535T35.007,12.09a22.03,22.03,0,0,0-.773,2.344A22.638,22.638,0,0,0,33.71,17H31.132a21.094,21.094,0,0,1,.578-2.516,23.592,23.592,0,0,1,.832-2.348Q33.015,11,33.589,9.922T34.8,7.813H29.6V5.8h7.8Zm9.328,6.055a4.107,4.107,0,0,1-.289,1.547,3.776,3.776,0,0,1-.8,1.246,3.723,3.723,0,0,1-1.227.828,4.208,4.208,0,0,1-3.246-.051,3.414,3.414,0,0,1-1.262-1.02,4.767,4.767,0,0,1-.789-1.637,8.088,8.088,0,0,1-.273-2.2,9.038,9.038,0,0,1,.355-2.621,6.018,6.018,0,0,1,1.016-2.012,4.562,4.562,0,0,1,1.6-1.293,4.751,4.751,0,0,1,2.109-.457,5.32,5.32,0,0,1,2.016.3V7.977a3.7,3.7,0,0,0-1.859-.484,2.6,2.6,0,0,0-1.133.242,2.5,2.5,0,0,0-.871.688A3.324,3.324,0,0,0,41.5,9.5a4.781,4.781,0,0,0-.223,1.4h.047a2.717,2.717,0,0,1,2.352-1.1,3.064,3.064,0,0,1,1.258.25,2.729,2.729,0,0,1,.961.707,3.243,3.243,0,0,1,.617,1.1A4.379,4.379,0,0,1,46.725,13.273Zm-2.414.156q0-1.8-1.477-1.8a1.449,1.449,0,0,0-.609.125,1.356,1.356,0,0,0-.469.352,1.6,1.6,0,0,0-.3.535,2.1,2.1,0,0,0-.105.684,2.644,2.644,0,0,0,.109.773,2.054,2.054,0,0,0,.309.629,1.528,1.528,0,0,0,.473.426,1.206,1.206,0,0,0,.609.156,1.319,1.319,0,0,0,.605-.137,1.356,1.356,0,0,0,.461-.383,1.759,1.759,0,0,0,.293-.594A2.708,2.708,0,0,0,44.311,13.43Zm4.055,3.281V14.6a4.605,4.605,0,0,0,2.445.7,2.3,2.3,0,0,0,1.527-.465,1.565,1.565,0,0,0,.551-1.262q0-1.664-2.352-1.664a17.413,17.413,0,0,0-2,.133L48.96,5.8h5.93V7.813H50.843l-.156,2.242q.6-.047,1.039-.047a3.821,3.821,0,0,1,2.7.906,3.165,3.165,0,0,1,.977,2.438,3.6,3.6,0,0,1-1.164,2.77A4.473,4.473,0,0,1,51.085,17.2,6.754,6.754,0,0,1,48.366,16.711Z" transform="translate(-4818.632 11168.826)" fill="#12263f"/>
    <path id="Trazado_1054788" data-name="Trazado 1054788" d="M2.4,16.633V14.484a4.336,4.336,0,0,0,2.625.82A2.363,2.363,0,0,0,6.495,14.9a1.349,1.349,0,0,0,.527-1.133,1.288,1.288,0,0,0-.652-1.156A3.38,3.38,0,0,0,4.577,12.2H3.538V10.313H4.5q2.187,0,2.188-1.453,0-1.367-1.68-1.367a3.829,3.829,0,0,0-2.187.727V6.2a6.042,6.042,0,0,1,2.75-.594,4.15,4.15,0,0,1,2.676.773A2.461,2.461,0,0,1,9.2,8.391a2.611,2.611,0,0,1-2.227,2.75v.039a3.027,3.027,0,0,1,1.875.863A2.434,2.434,0,0,1,9.538,13.8a3.006,3.006,0,0,1-1.148,2.484,4.965,4.965,0,0,1-3.172.914A6.13,6.13,0,0,1,2.4,16.633Zm12.828.563q-4,0-4-5.617a7.643,7.643,0,0,1,1.082-4.441,3.605,3.605,0,0,1,3.137-1.527q3.906,0,3.906,5.711a7.526,7.526,0,0,1-1.066,4.359A3.513,3.513,0,0,1,15.225,17.2Zm.109-9.7q-1.6,0-1.6,4.023,0,3.789,1.57,3.789,1.531,0,1.531-3.906T15.335,7.492ZM27.17,5.8,21.71,18.859h-2.2L24.944,5.8Zm4.352,11.4q-4,0-4-5.617A7.643,7.643,0,0,1,28.6,7.137a3.605,3.605,0,0,1,3.137-1.527q3.906,0,3.906,5.711a7.526,7.526,0,0,1-1.066,4.359A3.513,3.513,0,0,1,31.522,17.2Zm.109-9.7q-1.6,0-1.6,4.023,0,3.789,1.57,3.789,1.531,0,1.531-3.906T31.631,7.492Zm13.047,3.367a9.937,9.937,0,0,1-.328,2.668,5.723,5.723,0,0,1-.957,1.988,4.227,4.227,0,0,1-1.535,1.246A4.7,4.7,0,0,1,39.8,17.2a5.838,5.838,0,0,1-2.367-.437V14.727a3.793,3.793,0,0,0,2.125.578,2.446,2.446,0,0,0,1.992-.867,3.869,3.869,0,0,0,.727-2.508l-.047-.016a2.537,2.537,0,0,1-2.258,1.1,3.1,3.1,0,0,1-1.27-.258,3.05,3.05,0,0,1-1.008-.715,3.267,3.267,0,0,1-.664-1.09A3.917,3.917,0,0,1,36.8,9.563a4.318,4.318,0,0,1,.289-1.609,3.684,3.684,0,0,1,.809-1.25,3.568,3.568,0,0,1,1.246-.809,4.37,4.37,0,0,1,1.609-.285,3.685,3.685,0,0,1,1.641.355,3.447,3.447,0,0,1,1.238,1.027,4.8,4.8,0,0,1,.781,1.648A8.352,8.352,0,0,1,44.678,10.859ZM42.186,9.547a2.9,2.9,0,0,0-.109-.809,2.128,2.128,0,0,0-.3-.652,1.483,1.483,0,0,0-.477-.434,1.226,1.226,0,0,0-.617-.16,1.256,1.256,0,0,0-.59.141,1.438,1.438,0,0,0-.465.387,1.832,1.832,0,0,0-.3.59,2.435,2.435,0,0,0-.109.742,2.536,2.536,0,0,0,.109.777,1.66,1.66,0,0,0,.309.574,1.3,1.3,0,0,0,.48.355,1.565,1.565,0,0,0,.625.121,1.342,1.342,0,0,0,.594-.129,1.43,1.43,0,0,0,.457-.348,1.574,1.574,0,0,0,.3-.516A1.9,1.9,0,0,0,42.186,9.547ZM52.67,5.8,47.21,18.859h-2.2L50.444,5.8Zm3.164,9.156h4.75V17H53.131v-.844a3.927,3.927,0,0,1,.289-1.543,5.12,5.12,0,0,1,.727-1.227,6.3,6.3,0,0,1,.957-.961q.52-.418.988-.754.492-.352.863-.672a4.919,4.919,0,0,0,.625-.637,2.421,2.421,0,0,0,.379-.641,1.905,1.905,0,0,0,.125-.691,1.39,1.39,0,0,0-.406-1.086,1.806,1.806,0,0,0-1.242-.367A4.172,4.172,0,0,0,53.67,8.727V6.555a5.937,5.937,0,0,1,3.3-.945,4.869,4.869,0,0,1,1.527.223,3.231,3.231,0,0,1,1.145.637,2.716,2.716,0,0,1,.715,1A3.388,3.388,0,0,1,60.6,8.789a3.712,3.712,0,0,1-.238,1.375,4.225,4.225,0,0,1-.633,1.094,5.74,5.74,0,0,1-.91.9q-.516.41-1.07.793-.375.266-.723.527a6.851,6.851,0,0,0-.613.516,2.8,2.8,0,0,0-.422.5A.856.856,0,0,0,55.835,14.953ZM66.225,17.2q-4,0-4-5.617a7.643,7.643,0,0,1,1.082-4.441,3.605,3.605,0,0,1,3.137-1.527q3.906,0,3.906,5.711a7.526,7.526,0,0,1-1.066,4.359A3.513,3.513,0,0,1,66.225,17.2Zm.109-9.7q-1.6,0-1.6,4.023,0,3.789,1.57,3.789,1.531,0,1.531-3.906T66.335,7.492Zm7.906,7.461h4.75V17H71.538v-.844a3.927,3.927,0,0,1,.289-1.543,5.12,5.12,0,0,1,.727-1.227,6.3,6.3,0,0,1,.957-.961q.52-.418.988-.754.492-.352.863-.672a4.919,4.919,0,0,0,.625-.637,2.421,2.421,0,0,0,.379-.641,1.905,1.905,0,0,0,.125-.691,1.39,1.39,0,0,0-.406-1.086,1.806,1.806,0,0,0-1.242-.367,4.172,4.172,0,0,0-2.766,1.148V6.555a5.937,5.937,0,0,1,3.3-.945,4.869,4.869,0,0,1,1.527.223,3.231,3.231,0,0,1,1.145.637,2.716,2.716,0,0,1,.715,1,3.388,3.388,0,0,1,.246,1.316,3.712,3.712,0,0,1-.238,1.375,4.225,4.225,0,0,1-.633,1.094,5.74,5.74,0,0,1-.91.9q-.516.41-1.07.793-.375.266-.723.527a6.851,6.851,0,0,0-.613.516,2.8,2.8,0,0,0-.422.5A.856.856,0,0,0,74.241,14.953ZM84.631,17.2q-4,0-4-5.617a7.643,7.643,0,0,1,1.082-4.441A3.605,3.605,0,0,1,84.85,5.609q3.906,0,3.906,5.711A7.526,7.526,0,0,1,87.69,15.68,3.513,3.513,0,0,1,84.631,17.2Zm.109-9.7q-1.6,0-1.6,4.023,0,3.789,1.57,3.789,1.531,0,1.531-3.906T84.741,7.492Z" transform="translate(-4825.632 11227.494)" fill="#12263f"/>
    <path id="Trazado_1034201" data-name="Trazado 1034201" d="M1093.565,59h0Z" transform="translate(-5785.48 11443.494)" fill="#fd9826"/>
    <path id="Trazado_1054782" data-name="Trazado 1054782" d="M0,0H1092.683" transform="translate(-5785.039 11383.994)" fill="none"/>
    <path id="Trazado_1054787" data-name="Trazado 1054787" d="M11.359,17H8.813L4.2,9.961a10.179,10.179,0,0,1-.562-.93H3.6q.062.594.063,1.813V17H1.281V5.8H4l4.445,6.82q.3.461.563.914h.031a11.978,11.978,0,0,1-.062-1.539V5.8h2.383Zm5.086,0H13.922V5.8h2.523ZM26.859,7.852h-3.2V17H21.133V7.852h-3.18V5.8h8.906Zm5.266,6.133a2.983,2.983,0,0,1,.137-.9,2.734,2.734,0,0,1,.41-.8,3.019,3.019,0,0,1,.684-.664,3.672,3.672,0,0,1,.965-.48A3.46,3.46,0,0,1,33,10.051a2.473,2.473,0,0,1-.469-1.465A2.649,2.649,0,0,1,32.8,7.4a2.881,2.881,0,0,1,.746-.945,3.49,3.49,0,0,1,1.137-.621,4.485,4.485,0,0,1,1.441-.223,4.573,4.573,0,0,1,1.461.223,3.572,3.572,0,0,1,1.145.617,2.8,2.8,0,0,1,.746.934,2.615,2.615,0,0,1,.266,1.172,2.326,2.326,0,0,1-.5,1.449,3.722,3.722,0,0,1-1.383,1.074,3.769,3.769,0,0,1,.961.48,3.093,3.093,0,0,1,.7.668,2.736,2.736,0,0,1,.422.816,3.006,3.006,0,0,1,.141.918,2.933,2.933,0,0,1-.289,1.309,2.979,2.979,0,0,1-.816,1.016,3.853,3.853,0,0,1-1.258.66,5.661,5.661,0,0,1-3.211,0,3.84,3.84,0,0,1-1.258-.652,3.025,3.025,0,0,1-.824-1.012A2.852,2.852,0,0,1,32.125,13.984Zm2.336-.211a1.9,1.9,0,0,0,.117.688,1.406,1.406,0,0,0,.336.516,1.5,1.5,0,0,0,.52.324,1.906,1.906,0,0,0,.676.113,1.8,1.8,0,0,0,.66-.117,1.549,1.549,0,0,0,.52-.328,1.493,1.493,0,0,0,.344-.516,1.86,1.86,0,0,0,.008-1.32,1.523,1.523,0,0,0-.336-.527,1.635,1.635,0,0,0-1.2-.488,1.761,1.761,0,0,0-.656.121,1.5,1.5,0,0,0-.523.344,1.622,1.622,0,0,0-.344.527A1.733,1.733,0,0,0,34.461,13.773ZM34.8,8.813a1.48,1.48,0,0,0,.105.559,1.441,1.441,0,0,0,.285.453,1.3,1.3,0,0,0,.426.3,1.3,1.3,0,0,0,1.043,0,1.331,1.331,0,0,0,.426-.3,1.459,1.459,0,0,0,.395-1.008,1.552,1.552,0,0,0-.1-.566,1.339,1.339,0,0,0-.715-.754,1.342,1.342,0,0,0-1.07,0,1.309,1.309,0,0,0-.422.3,1.369,1.369,0,0,0-.273.453A1.585,1.585,0,0,0,34.8,8.813Zm14.57,4.461a4.107,4.107,0,0,1-.289,1.547,3.776,3.776,0,0,1-.8,1.246,3.723,3.723,0,0,1-1.227.828,4.208,4.208,0,0,1-3.246-.051,3.414,3.414,0,0,1-1.262-1.02,4.767,4.767,0,0,1-.789-1.637,8.088,8.088,0,0,1-.273-2.2,9.038,9.038,0,0,1,.355-2.621,6.018,6.018,0,0,1,1.016-2.012,4.562,4.562,0,0,1,1.6-1.293,4.751,4.751,0,0,1,2.109-.457,5.32,5.32,0,0,1,2.016.3V7.977a3.7,3.7,0,0,0-1.859-.484,2.6,2.6,0,0,0-1.133.242,2.5,2.5,0,0,0-.871.688,3.324,3.324,0,0,0-.57,1.074,4.781,4.781,0,0,0-.223,1.4h.047A2.717,2.717,0,0,1,46.32,9.8a3.064,3.064,0,0,1,1.258.25,2.729,2.729,0,0,1,.961.707,3.243,3.243,0,0,1,.617,1.1A4.379,4.379,0,0,1,49.375,13.273Zm-2.414.156q0-1.8-1.477-1.8a1.449,1.449,0,0,0-.609.125,1.356,1.356,0,0,0-.469.352,1.6,1.6,0,0,0-.3.535A2.1,2.1,0,0,0,44,13.32a2.644,2.644,0,0,0,.109.773,2.054,2.054,0,0,0,.309.629,1.528,1.528,0,0,0,.473.426,1.206,1.206,0,0,0,.609.156,1.319,1.319,0,0,0,.605-.137,1.356,1.356,0,0,0,.461-.383,1.759,1.759,0,0,0,.293-.594A2.708,2.708,0,0,0,46.961,13.43ZM54.445,17.2q-4,0-4-5.617a7.643,7.643,0,0,1,1.082-4.441,3.605,3.605,0,0,1,3.137-1.527q3.906,0,3.906,5.711A7.526,7.526,0,0,1,57.5,15.68,3.513,3.513,0,0,1,54.445,17.2Zm.109-9.7q-1.6,0-1.6,4.023,0,3.789,1.57,3.789,1.531,0,1.531-3.906T54.555,7.492ZM65.609,5.547V17H63.148V8.328a2.947,2.947,0,0,1-.48.34,4.96,4.96,0,0,1-.59.289,5.267,5.267,0,0,1-.648.219,4.736,4.736,0,0,1-.664.129V7.227a10.266,10.266,0,0,0,1.813-.719,10.315,10.315,0,0,0,1.539-.961ZM72.852,17.2q-4,0-4-5.617a7.643,7.643,0,0,1,1.082-4.441A3.605,3.605,0,0,1,73.07,5.609q3.906,0,3.906,5.711A7.526,7.526,0,0,1,75.91,15.68,3.513,3.513,0,0,1,72.852,17.2Zm.109-9.7q-1.6,0-1.6,4.023,0,3.789,1.57,3.789,1.531,0,1.531-3.906T72.961,7.492Zm9.094,9.7q-4,0-4-5.617a7.643,7.643,0,0,1,1.082-4.441,3.605,3.605,0,0,1,3.137-1.527q3.906,0,3.906,5.711a7.526,7.526,0,0,1-1.066,4.359A3.513,3.513,0,0,1,82.055,17.2Zm.109-9.7q-1.6,0-1.6,4.023,0,3.789,1.57,3.789,1.531,0,1.531-3.906T82.164,7.492Z" transform="translate(-5714.45 11286.664)" fill="#12263f"/>
    <path id="Trazado_1054789" data-name="Trazado 1054789" d="M36.67,17h-2.9l-1.742-2.883q-.2-.328-.375-.586a3.255,3.255,0,0,0-.363-.441,1.445,1.445,0,0,0-.383-.281.972.972,0,0,0-.434-.1h-.68V17H27.271V5.8h4q4.078,0,4.078,3.047a3.155,3.155,0,0,1-.18,1.082,3.006,3.006,0,0,1-.508.895,3.219,3.219,0,0,1-.793.688,4.089,4.089,0,0,1-1.035.453v.031a1.606,1.606,0,0,1,.484.254,3.468,3.468,0,0,1,.453.41,5.723,5.723,0,0,1,.418.5q.2.27.363.527ZM29.795,7.688V10.8h1.094a1.813,1.813,0,0,0,1.3-.469,1.564,1.564,0,0,0,.5-1.18q0-1.469-1.758-1.469ZM47.115,17h-2.9l-1.742-2.883q-.2-.328-.375-.586a3.255,3.255,0,0,0-.363-.441,1.445,1.445,0,0,0-.383-.281.972.972,0,0,0-.434-.1h-.68V17H37.717V5.8h4q4.078,0,4.078,3.047a3.155,3.155,0,0,1-.18,1.082,3.006,3.006,0,0,1-.508.895,3.219,3.219,0,0,1-.793.688,4.089,4.089,0,0,1-1.035.453v.031a1.606,1.606,0,0,1,.484.254,3.468,3.468,0,0,1,.453.41,5.723,5.723,0,0,1,.418.5q.2.27.363.527ZM40.24,7.688V10.8h1.094a1.813,1.813,0,0,0,1.3-.469,1.564,1.564,0,0,0,.5-1.18q0-1.469-1.758-1.469ZM50.685,17H48.162V5.8h2.523Z" transform="translate(-5337.424 11228.148)" fill="#12263f"/>
    <path id="Trazado_1035692" data-name="Trazado 1035692" d="M0,0H1092.683V59H0Z" transform="translate(-5785.48 11324.535)" fill="#feead4"/>
    <path id="Trazado_1054783" data-name="Trazado 1054783" d="M16.91,16.6a7.388,7.388,0,0,1-3.2.594A5.4,5.4,0,0,1,9.652,15.68a5.54,5.54,0,0,1-1.477-4.039,5.919,5.919,0,0,1,1.66-4.359,5.807,5.807,0,0,1,4.309-1.672,8.058,8.058,0,0,1,2.766.414v2.43a4.9,4.9,0,0,0-2.562-.672,3.4,3.4,0,0,0-2.547.992,3.682,3.682,0,0,0-.969,2.688,3.611,3.611,0,0,0,.914,2.59,3.229,3.229,0,0,0,2.461.965,5.249,5.249,0,0,0,2.7-.719ZM23.4,17.2a5.215,5.215,0,0,1-3.922-1.566,5.624,5.624,0,0,1-1.516-4.082A6.026,6.026,0,0,1,19.5,7.25a5.328,5.328,0,0,1,4.078-1.641,5.085,5.085,0,0,1,3.879,1.57,5.79,5.79,0,0,1,1.48,4.141,5.929,5.929,0,0,1-1.535,4.258A5.269,5.269,0,0,1,23.4,17.2Zm.109-9.414a2.54,2.54,0,0,0-2.109,1,4.153,4.153,0,0,0-.781,2.637,4.077,4.077,0,0,0,.781,2.633,2.7,2.7,0,0,0,4.117.027,4.032,4.032,0,0,0,.766-2.613,4.369,4.369,0,0,0-.742-2.711A2.42,2.42,0,0,0,23.512,7.781ZM40.879,17H38.332L33.715,9.961a10.18,10.18,0,0,1-.562-.93h-.031q.063.594.063,1.813V17H30.8V5.8H33.52l4.445,6.82q.3.461.563.914h.031a11.978,11.978,0,0,1-.062-1.539V5.8h2.383Zm10.594-.4a7.388,7.388,0,0,1-3.2.594,5.4,5.4,0,0,1-4.055-1.516,5.54,5.54,0,0,1-1.477-4.039A5.919,5.919,0,0,1,44.4,7.281a5.807,5.807,0,0,1,4.309-1.672,8.058,8.058,0,0,1,2.766.414v2.43a4.9,4.9,0,0,0-2.562-.672,3.4,3.4,0,0,0-2.547.992,3.682,3.682,0,0,0-.969,2.688,3.611,3.611,0,0,0,.914,2.59,3.229,3.229,0,0,0,2.461.965,5.249,5.249,0,0,0,2.7-.719Zm8.672.4H53.426V5.8h6.461V7.852H55.949v2.492h3.664v2.047H55.949v2.563h4.2Zm4.32-3.859V17H61.941V5.8h3.953q4.234,0,4.234,3.57a3.426,3.426,0,0,1-1.215,2.73,4.813,4.813,0,0,1-3.246,1.043Zm0-5.406v3.492h.992q2.016,0,2.016-1.766,0-1.727-2.016-1.727Zm15.172.117h-3.2V17H73.91V7.852H70.73V5.8h8.906ZM85.285,17.2a5.215,5.215,0,0,1-3.922-1.566,5.624,5.624,0,0,1-1.516-4.082,6.026,6.026,0,0,1,1.539-4.3,5.328,5.328,0,0,1,4.078-1.641,5.085,5.085,0,0,1,3.879,1.57,5.79,5.79,0,0,1,1.48,4.141,5.929,5.929,0,0,1-1.535,4.258A5.269,5.269,0,0,1,85.285,17.2Zm.109-9.414a2.54,2.54,0,0,0-2.109,1,4.153,4.153,0,0,0-.781,2.637,4.077,4.077,0,0,0,.781,2.633,2.7,2.7,0,0,0,4.117.027,4.032,4.032,0,0,0,.766-2.613,4.369,4.369,0,0,0-.742-2.711A2.42,2.42,0,0,0,85.395,7.781Z" transform="translate(-5578.232 11346.535)" fill="#12263f"/>
    <path id="Trazado_1054781" data-name="Trazado 1054781" d="M36.691,5.8,32.831,17H29.972L26.159,5.8h2.719l2.336,7.8a5.584,5.584,0,0,1,.227,1.117h.047a6.315,6.315,0,0,1,.242-1.148L34.05,5.8ZM47.058,17h-2.75l-.8-2.492H39.527L38.738,17H36L40.081,5.8h2.992Zm-4.125-4.43L41.73,8.8A4.907,4.907,0,0,1,41.542,7.8H41.48a4.273,4.273,0,0,1-.2.977l-1.219,3.8ZM55.128,17H48.456V5.8H50.98v9.156h4.148Zm5.844.2a5.215,5.215,0,0,1-3.922-1.566,5.624,5.624,0,0,1-1.516-4.082,6.026,6.026,0,0,1,1.539-4.3,5.328,5.328,0,0,1,4.078-1.641,5.085,5.085,0,0,1,3.879,1.57,5.79,5.79,0,0,1,1.48,4.141,5.929,5.929,0,0,1-1.535,4.258A5.269,5.269,0,0,1,60.972,17.2Zm.109-9.414a2.54,2.54,0,0,0-2.109,1,4.153,4.153,0,0,0-.781,2.637,4.077,4.077,0,0,0,.781,2.633,2.7,2.7,0,0,0,4.117.027,4.032,4.032,0,0,0,.766-2.613,4.369,4.369,0,0,0-.742-2.711A2.42,2.42,0,0,0,61.081,7.781ZM77.769,17h-2.9l-1.742-2.883q-.2-.328-.375-.586a3.255,3.255,0,0,0-.363-.441,1.445,1.445,0,0,0-.383-.281.972.972,0,0,0-.434-.1h-.68V17H68.37V5.8h4q4.078,0,4.078,3.047a3.155,3.155,0,0,1-.18,1.082,3.006,3.006,0,0,1-.508.895,3.219,3.219,0,0,1-.793.688,4.089,4.089,0,0,1-1.035.453v.031a1.606,1.606,0,0,1,.484.254,3.469,3.469,0,0,1,.453.41,5.722,5.722,0,0,1,.418.5q.2.27.363.527ZM70.894,7.688V10.8h1.094a1.813,1.813,0,0,0,1.3-.469,1.564,1.564,0,0,0,.5-1.18q0-1.469-1.758-1.469ZM36.976,31.852h-3.2V41H31.249V31.852H28.07V29.8h8.906ZM42.624,41.2A5.215,5.215,0,0,1,38.7,39.629a5.624,5.624,0,0,1-1.516-4.082,6.026,6.026,0,0,1,1.539-4.3A5.328,5.328,0,0,1,42.8,29.609a5.085,5.085,0,0,1,3.879,1.57,5.789,5.789,0,0,1,1.48,4.141,5.929,5.929,0,0,1-1.535,4.258A5.269,5.269,0,0,1,42.624,41.2Zm.109-9.414a2.54,2.54,0,0,0-2.109,1,4.153,4.153,0,0,0-.781,2.637,4.077,4.077,0,0,0,.781,2.633,2.7,2.7,0,0,0,4.117.027,4.032,4.032,0,0,0,.766-2.613,4.369,4.369,0,0,0-.742-2.711A2.42,2.42,0,0,0,42.734,31.781Zm14.516.07h-3.2V41H51.523V31.852h-3.18V29.8h8.906ZM67.492,41h-2.75l-.8-2.492H59.96L59.171,41H56.437l4.078-11.2h2.992Zm-4.125-4.43-1.2-3.766a4.907,4.907,0,0,1-.187-1.008h-.062a4.273,4.273,0,0,1-.2.977L60.5,36.57ZM75.562,41H68.89V29.8h2.523v9.156h4.148Z" transform="translate(-4832.758 11334.535)" fill="#12263f"/>
    <path id="Trazado_1054778" data-name="Trazado 1054778" d="M0,0H1093.458V39.247H0Z" transform="translate(-5785.47 11422.752)" fill="#fff"/>
    <path id="Trazado_1054785" data-name="Trazado 1054785" d="M0,0V179" transform="translate(-5197.689 11146.035)" fill="none" stroke="#dcdcdc" stroke-width="1"/>
    <path id="Trazado_1035693" data-name="Trazado 1035693" d="M0,0V394.455" transform="translate(-4879.32 11146.035)" fill="none" stroke="#ededee" stroke-width="1"/>
    <path id="Trazado_1054786" data-name="Trazado 1054786" d="M0,0V119" transform="translate(-5411.993 11206.035)" fill="none" stroke="#e2e2e2" stroke-width="1"/>
    <path id="Trazado_1054776" data-name="Trazado 1054776" d="M0,0V214.966" transform="translate(-5272.651 11325.522)" fill="none" stroke="#e0e0e0" stroke-width="1"/>
    <path id="Trazado_1054772" data-name="Trazado 1054772" d="M0,0V215" transform="translate(-5220.619 11325.494)" fill="none" stroke="#e0e0e0" stroke-width="1"/>
    <path id="Trazado_1054773" data-name="Trazado 1054773" d="M0,0V213.182" transform="translate(-5168.585 11325.856)" fill="none" stroke="#e0e0e0" stroke-width="1"/>
    <path id="Trazado_1054774" data-name="Trazado 1054774" d="M0,0V213.182" transform="translate(-5116.553 11326.944)" fill="none" stroke="#e0e0e0" stroke-width="1"/>
    <path id="Trazado_1054775" data-name="Trazado 1054775" d="M31.747,16.938v1.7h-.812V17a4.9,4.9,0,0,1-2.7-.672V14.969a3.661,3.661,0,0,0,1.238.668,4.528,4.528,0,0,0,1.465.27v-4a6.129,6.129,0,0,1-2.227-1.527A2.736,2.736,0,0,1,28.2,8.727a2.763,2.763,0,0,1,.773-1.957,3.2,3.2,0,0,1,1.961-.988V4.375h.813V5.75a4.324,4.324,0,0,1,2.117.438V7.516a3.549,3.549,0,0,0-2.117-.672v4.125a6.64,6.64,0,0,1,2.223,1.5,2.51,2.51,0,0,1,.6,1.645,2.545,2.545,0,0,1-.746,1.863A3.624,3.624,0,0,1,31.747,16.938Zm-.812-6.406V6.891a1.78,1.78,0,0,0-1.039.582,1.623,1.623,0,0,0-.383,1.09,1.826,1.826,0,0,0,.313,1.1A3.367,3.367,0,0,0,30.935,10.531Zm.813,1.781v3.531q1.508-.328,1.508-1.625Q33.255,13.141,31.747,12.313Zm9.844-3.578a2.316,2.316,0,0,0-.16-.9,1.739,1.739,0,0,0-1.09-1.016,2.555,2.555,0,0,0-.812-.125,2.688,2.688,0,0,0-.734.1,3.57,3.57,0,0,0-.7.281,4.3,4.3,0,0,0-.656.43,4.74,4.74,0,0,0-.59.555V6.688a3.831,3.831,0,0,1,1.207-.8,4.25,4.25,0,0,1,1.629-.277,3.932,3.932,0,0,1,1.273.2,2.92,2.92,0,0,1,1.016.582,2.691,2.691,0,0,1,.676.945A3.188,3.188,0,0,1,42.9,8.625a4.42,4.42,0,0,1-.152,1.2,3.721,3.721,0,0,1-.461,1.016,4.9,4.9,0,0,1-.777.914,11.011,11.011,0,0,1-1.1.891q-.789.563-1.3.961a5.75,5.75,0,0,0-.812.746,2.165,2.165,0,0,0-.422.7,2.43,2.43,0,0,0-.121.8h5.578V17H36.411v-.555a4.622,4.622,0,0,1,.156-1.266,3.286,3.286,0,0,1,.516-1.039,5.767,5.767,0,0,1,.941-.984q.582-.492,1.426-1.109a9.014,9.014,0,0,0,1.02-.836,4.346,4.346,0,0,0,.66-.8,2.862,2.862,0,0,0,.355-.809A3.486,3.486,0,0,0,41.591,8.734Zm10.563,2.617a11.005,11.005,0,0,1-.254,2.492,5.807,5.807,0,0,1-.734,1.832,3.305,3.305,0,0,1-1.18,1.133,3.23,3.23,0,0,1-1.59.387,3.016,3.016,0,0,1-1.5-.371,3.152,3.152,0,0,1-1.113-1.082A5.484,5.484,0,0,1,45.091,14a10.8,10.8,0,0,1-.234-2.371A12.222,12.222,0,0,1,45.1,9.031a5.933,5.933,0,0,1,.723-1.887A3.216,3.216,0,0,1,47.009,6a3.323,3.323,0,0,1,1.621-.387Q52.153,5.609,52.153,11.352Zm-1.312.125q0-4.781-2.273-4.781-2.4,0-2.4,4.867,0,4.539,2.352,4.539Q50.841,16.1,50.841,11.477Zm9.938-.125a11.005,11.005,0,0,1-.254,2.492,5.807,5.807,0,0,1-.734,1.832,3.305,3.305,0,0,1-1.18,1.133,3.23,3.23,0,0,1-1.59.387,3.016,3.016,0,0,1-1.5-.371A3.152,3.152,0,0,1,54.4,15.742,5.484,5.484,0,0,1,53.716,14a10.8,10.8,0,0,1-.234-2.371,12.222,12.222,0,0,1,.246-2.594,5.933,5.933,0,0,1,.723-1.887A3.216,3.216,0,0,1,55.634,6a3.323,3.323,0,0,1,1.621-.387Q60.778,5.609,60.778,11.352Zm-1.312.125q0-4.781-2.273-4.781-2.4,0-2.4,4.867,0,4.539,2.352,4.539Q59.466,16.1,59.466,11.477Zm3.711,5.7a.829.829,0,0,1-.613-.258.849.849,0,0,1-.254-.617.862.862,0,0,1,.254-.621.823.823,0,0,1,.613-.262.845.845,0,0,1,.625.262.855.855,0,0,1,.258.621.842.842,0,0,1-.258.617A.851.851,0,0,1,63.177,17.172Zm9.7-5.82a11.005,11.005,0,0,1-.254,2.492,5.807,5.807,0,0,1-.734,1.832,3.305,3.305,0,0,1-1.18,1.133,3.23,3.23,0,0,1-1.59.387,3.016,3.016,0,0,1-1.5-.371A3.152,3.152,0,0,1,66.5,15.742,5.484,5.484,0,0,1,65.81,14a10.8,10.8,0,0,1-.234-2.371,12.222,12.222,0,0,1,.246-2.594,5.933,5.933,0,0,1,.723-1.887A3.217,3.217,0,0,1,67.728,6a3.323,3.323,0,0,1,1.621-.387Q72.872,5.609,72.872,11.352Zm-1.312.125q0-4.781-2.273-4.781-2.4,0-2.4,4.867,0,4.539,2.352,4.539Q71.56,16.1,71.56,11.477Zm9.938-.125a11.005,11.005,0,0,1-.254,2.492,5.807,5.807,0,0,1-.734,1.832,3.305,3.305,0,0,1-1.18,1.133,3.23,3.23,0,0,1-1.59.387,3.016,3.016,0,0,1-1.5-.371,3.152,3.152,0,0,1-1.113-1.082A5.484,5.484,0,0,1,74.435,14a10.8,10.8,0,0,1-.234-2.371,12.222,12.222,0,0,1,.246-2.594,5.933,5.933,0,0,1,.723-1.887A3.217,3.217,0,0,1,76.353,6a3.323,3.323,0,0,1,1.621-.387Q81.5,5.609,81.5,11.352Zm-1.312.125q0-4.781-2.273-4.781-2.4,0-2.4,4.867,0,4.539,2.352,4.539Q80.185,16.1,80.185,11.477Zm9.938-.125a11.005,11.005,0,0,1-.254,2.492,5.807,5.807,0,0,1-.734,1.832,3.305,3.305,0,0,1-1.18,1.133,3.23,3.23,0,0,1-1.59.387,3.016,3.016,0,0,1-1.5-.371,3.152,3.152,0,0,1-1.113-1.082A5.484,5.484,0,0,1,83.06,14a10.8,10.8,0,0,1-.234-2.371,12.222,12.222,0,0,1,.246-2.594,5.933,5.933,0,0,1,.723-1.887A3.217,3.217,0,0,1,84.978,6,3.323,3.323,0,0,1,86.6,5.609Q90.122,5.609,90.122,11.352Zm-1.312.125q0-4.781-2.273-4.781-2.4,0-2.4,4.867,0,4.539,2.352,4.539Q88.81,16.1,88.81,11.477ZM27.364,55.938v1.7h-.812V56a4.9,4.9,0,0,1-2.7-.672V53.969a3.661,3.661,0,0,0,1.238.668,4.528,4.528,0,0,0,1.465.27v-4a6.129,6.129,0,0,1-2.227-1.527,2.9,2.9,0,0,1,.266-3.609,3.2,3.2,0,0,1,1.961-.988V43.375h.813V44.75a4.324,4.324,0,0,1,2.117.438v1.328a3.549,3.549,0,0,0-2.117-.672v4.125a6.64,6.64,0,0,1,2.223,1.5,2.51,2.51,0,0,1,.6,1.645,2.545,2.545,0,0,1-.746,1.863A3.624,3.624,0,0,1,27.364,55.938Zm-.812-6.406V45.891a1.78,1.78,0,0,0-1.039.582,1.623,1.623,0,0,0-.383,1.09,1.826,1.826,0,0,0,.313,1.1A3.367,3.367,0,0,0,26.552,49.531Zm.813,1.781v3.531q1.508-.328,1.508-1.625Q28.872,52.141,27.364,51.313Zm14.227-3.578a2.316,2.316,0,0,0-.16-.9,1.739,1.739,0,0,0-1.09-1.016,2.555,2.555,0,0,0-.812-.125,2.688,2.688,0,0,0-.734.1,3.57,3.57,0,0,0-.7.281,4.3,4.3,0,0,0-.656.43,4.741,4.741,0,0,0-.59.555V45.688a3.831,3.831,0,0,1,1.207-.8,4.25,4.25,0,0,1,1.629-.277,3.932,3.932,0,0,1,1.273.2,2.92,2.92,0,0,1,1.016.582,2.691,2.691,0,0,1,.676.945,3.188,3.188,0,0,1,.246,1.289,4.42,4.42,0,0,1-.152,1.2,3.721,3.721,0,0,1-.461,1.016,4.9,4.9,0,0,1-.777.914,11.011,11.011,0,0,1-1.1.891q-.789.563-1.3.961a5.75,5.75,0,0,0-.812.746,2.165,2.165,0,0,0-.422.7,2.43,2.43,0,0,0-.121.8h5.578V56H36.411v-.555a4.622,4.622,0,0,1,.156-1.266,3.286,3.286,0,0,1,.516-1.039,5.767,5.767,0,0,1,.941-.984q.582-.492,1.426-1.109a9.014,9.014,0,0,0,1.02-.836,4.346,4.346,0,0,0,.66-.8,2.862,2.862,0,0,0,.355-.809A3.486,3.486,0,0,0,41.591,47.734Zm10.563,2.617a11.005,11.005,0,0,1-.254,2.492,5.807,5.807,0,0,1-.734,1.832,3.305,3.305,0,0,1-1.18,1.133,3.23,3.23,0,0,1-1.59.387,3.016,3.016,0,0,1-1.5-.371,3.152,3.152,0,0,1-1.113-1.082A5.484,5.484,0,0,1,45.091,53a10.8,10.8,0,0,1-.234-2.371,12.222,12.222,0,0,1,.246-2.594,5.933,5.933,0,0,1,.723-1.887A3.216,3.216,0,0,1,47.009,45a3.323,3.323,0,0,1,1.621-.387Q52.153,44.609,52.153,50.352Zm-1.312.125q0-4.781-2.273-4.781-2.4,0-2.4,4.867,0,4.539,2.352,4.539Q50.841,55.1,50.841,50.477Zm9.938-.125a11.005,11.005,0,0,1-.254,2.492,5.807,5.807,0,0,1-.734,1.832,3.305,3.305,0,0,1-1.18,1.133,3.23,3.23,0,0,1-1.59.387,3.016,3.016,0,0,1-1.5-.371A3.152,3.152,0,0,1,54.4,54.742,5.484,5.484,0,0,1,53.716,53a10.8,10.8,0,0,1-.234-2.371,12.222,12.222,0,0,1,.246-2.594,5.933,5.933,0,0,1,.723-1.887A3.216,3.216,0,0,1,55.634,45a3.323,3.323,0,0,1,1.621-.387Q60.778,44.609,60.778,50.352Zm-1.312.125q0-4.781-2.273-4.781-2.4,0-2.4,4.867,0,4.539,2.352,4.539Q59.466,55.1,59.466,50.477Zm3.711,5.7a.829.829,0,0,1-.613-.258.849.849,0,0,1-.254-.617.862.862,0,0,1,.254-.621.823.823,0,0,1,.613-.262.845.845,0,0,1,.625.262.855.855,0,0,1,.258.621.842.842,0,0,1-.258.617A.851.851,0,0,1,63.177,56.172Zm9.7-5.82a11.005,11.005,0,0,1-.254,2.492,5.807,5.807,0,0,1-.734,1.832,3.305,3.305,0,0,1-1.18,1.133,3.23,3.23,0,0,1-1.59.387,3.016,3.016,0,0,1-1.5-.371A3.152,3.152,0,0,1,66.5,54.742,5.484,5.484,0,0,1,65.81,53a10.8,10.8,0,0,1-.234-2.371,12.222,12.222,0,0,1,.246-2.594,5.933,5.933,0,0,1,.723-1.887A3.217,3.217,0,0,1,67.728,45a3.323,3.323,0,0,1,1.621-.387Q72.872,44.609,72.872,50.352Zm-1.312.125q0-4.781-2.273-4.781-2.4,0-2.4,4.867,0,4.539,2.352,4.539Q71.56,55.1,71.56,50.477Zm9.938-.125a11.005,11.005,0,0,1-.254,2.492,5.807,5.807,0,0,1-.734,1.832,3.305,3.305,0,0,1-1.18,1.133,3.23,3.23,0,0,1-1.59.387,3.016,3.016,0,0,1-1.5-.371,3.152,3.152,0,0,1-1.113-1.082A5.484,5.484,0,0,1,74.435,53a10.8,10.8,0,0,1-.234-2.371,12.222,12.222,0,0,1,.246-2.594,5.933,5.933,0,0,1,.723-1.887A3.217,3.217,0,0,1,76.353,45a3.323,3.323,0,0,1,1.621-.387Q81.5,44.609,81.5,50.352Zm-1.312.125q0-4.781-2.273-4.781-2.4,0-2.4,4.867,0,4.539,2.352,4.539Q80.185,55.1,80.185,50.477Zm9.938-.125a11.005,11.005,0,0,1-.254,2.492,5.807,5.807,0,0,1-.734,1.832,3.305,3.305,0,0,1-1.18,1.133,3.23,3.23,0,0,1-1.59.387,3.016,3.016,0,0,1-1.5-.371,3.152,3.152,0,0,1-1.113-1.082A5.484,5.484,0,0,1,83.06,53a10.8,10.8,0,0,1-.234-2.371,12.222,12.222,0,0,1,.246-2.594,5.933,5.933,0,0,1,.723-1.887A3.217,3.217,0,0,1,84.978,45a3.323,3.323,0,0,1,1.621-.387Q90.122,44.609,90.122,50.352Zm-1.312.125q0-4.781-2.273-4.781-2.4,0-2.4,4.867,0,4.539,2.352,4.539Q88.81,55.1,88.81,50.477ZM40.372,94.938v1.7H39.56V95a4.9,4.9,0,0,1-2.7-.672V92.969a3.661,3.661,0,0,0,1.238.668,4.528,4.528,0,0,0,1.465.27v-4a6.129,6.129,0,0,1-2.227-1.527A2.9,2.9,0,0,1,37.6,84.77a3.2,3.2,0,0,1,1.961-.988V82.375h.813V83.75a4.324,4.324,0,0,1,2.117.438v1.328a3.549,3.549,0,0,0-2.117-.672v4.125a6.64,6.64,0,0,1,2.223,1.5,2.51,2.51,0,0,1,.6,1.645,2.545,2.545,0,0,1-.746,1.863A3.624,3.624,0,0,1,40.372,94.938Zm-.812-6.406V84.891a1.78,1.78,0,0,0-1.039.582,1.623,1.623,0,0,0-.383,1.09,1.826,1.826,0,0,0,.313,1.1A3.367,3.367,0,0,0,39.56,88.531Zm.813,1.781v3.531q1.508-.328,1.508-1.625Q41.88,91.141,40.372,90.313ZM51.63,91.828a3.266,3.266,0,0,1-.285,1.379,3.045,3.045,0,0,1-.8,1.063,3.714,3.714,0,0,1-1.246.684,5.04,5.04,0,0,1-1.6.242,4.654,4.654,0,0,1-2.547-.609V93.211a4.081,4.081,0,0,0,2.594.891,3.525,3.525,0,0,0,1.059-.148,2.374,2.374,0,0,0,.813-.43,1.909,1.909,0,0,0,.523-.68,2.123,2.123,0,0,0,.184-.9q0-2.2-3.125-2.2h-.93V88.664h.883q2.766,0,2.766-2.062,0-1.906-2.109-1.906a3.592,3.592,0,0,0-2.227.8V84.25a4.868,4.868,0,0,1,2.547-.641,3.913,3.913,0,0,1,1.273.2,2.918,2.918,0,0,1,.977.547A2.423,2.423,0,0,1,51,85.2a2.6,2.6,0,0,1,.223,1.086,2.735,2.735,0,0,1-2.234,2.844v.031a3.534,3.534,0,0,1,1.055.277,2.814,2.814,0,0,1,.836.559,2.49,2.49,0,0,1,.551.809A2.582,2.582,0,0,1,51.63,91.828Zm1.883.047a2.981,2.981,0,0,1,.141-.895,3.24,3.24,0,0,1,.4-.84,3.33,3.33,0,0,1,.648-.711,3.091,3.091,0,0,1,.879-.508,3.322,3.322,0,0,1-1.156-1.043,2.466,2.466,0,0,1-.43-1.41,2.72,2.72,0,0,1,.238-1.141,2.748,2.748,0,0,1,.66-.906,3.052,3.052,0,0,1,1-.6,3.735,3.735,0,0,1,2.508,0,3.106,3.106,0,0,1,1,.6,2.7,2.7,0,0,1,.656.906,2.74,2.74,0,0,1,.234,1.133,2.466,2.466,0,0,1-.43,1.41,3.363,3.363,0,0,1-1.141,1.043,3.064,3.064,0,0,1,.867.508,3.379,3.379,0,0,1,.645.711,3.24,3.24,0,0,1,.4.84,2.981,2.981,0,0,1,.141.895,3.327,3.327,0,0,1-.266,1.344,3,3,0,0,1-.746,1.043,3.444,3.444,0,0,1-1.148.676,4.293,4.293,0,0,1-1.473.242,4.235,4.235,0,0,1-1.461-.242,3.5,3.5,0,0,1-1.148-.676,3.023,3.023,0,0,1-.754-1.043A3.285,3.285,0,0,1,53.513,91.875Zm1.391-.109a2.647,2.647,0,0,0,.16.945,2.038,2.038,0,0,0,.453.719,1.978,1.978,0,0,0,.711.457,2.568,2.568,0,0,0,.926.16,2.439,2.439,0,0,0,.906-.164,2.112,2.112,0,0,0,.715-.461,2.072,2.072,0,0,0,.469-.719,2.514,2.514,0,0,0,.168-.937,2.4,2.4,0,0,0-.16-.879,2.2,2.2,0,0,0-.457-.723,2.147,2.147,0,0,0-.711-.492,2.313,2.313,0,0,0-.93-.18,2.338,2.338,0,0,0-.895.168,2.14,2.14,0,0,0-.711.469,2.171,2.171,0,0,0-.473.719A2.391,2.391,0,0,0,54.9,91.766Zm.4-5.2a1.86,1.86,0,0,0,1.133,1.73,1.846,1.846,0,0,0,1.441,0,1.867,1.867,0,0,0,.59-.4,1.95,1.95,0,0,0,.4-.594,1.8,1.8,0,0,0,.148-.73,1.915,1.915,0,0,0-.145-.75,1.841,1.841,0,0,0-1.715-1.133,1.864,1.864,0,0,0-.754.148,1.821,1.821,0,0,0-.586.4,1.759,1.759,0,0,0-.379.6A2.02,2.02,0,0,0,55.3,86.57Zm7.875,8.6a.829.829,0,0,1-.613-.258.849.849,0,0,1-.254-.617.862.862,0,0,1,.254-.621.823.823,0,0,1,.613-.262.845.845,0,0,1,.625.262.855.855,0,0,1,.258.621.842.842,0,0,1-.258.617A.851.851,0,0,1,63.177,95.172Zm9.7-5.82a11.005,11.005,0,0,1-.254,2.492,5.807,5.807,0,0,1-.734,1.832,3.305,3.305,0,0,1-1.18,1.133,3.23,3.23,0,0,1-1.59.387,3.016,3.016,0,0,1-1.5-.371A3.152,3.152,0,0,1,66.5,93.742,5.484,5.484,0,0,1,65.81,92a10.8,10.8,0,0,1-.234-2.371,12.222,12.222,0,0,1,.246-2.594,5.933,5.933,0,0,1,.723-1.887A3.217,3.217,0,0,1,67.728,84a3.323,3.323,0,0,1,1.621-.387Q72.872,83.609,72.872,89.352Zm-1.312.125q0-4.781-2.273-4.781-2.4,0-2.4,4.867,0,4.539,2.352,4.539Q71.56,94.1,71.56,89.477Zm9.938-.125a11.005,11.005,0,0,1-.254,2.492,5.807,5.807,0,0,1-.734,1.832,3.305,3.305,0,0,1-1.18,1.133,3.23,3.23,0,0,1-1.59.387,3.016,3.016,0,0,1-1.5-.371,3.152,3.152,0,0,1-1.113-1.082A5.484,5.484,0,0,1,74.435,92a10.8,10.8,0,0,1-.234-2.371,12.222,12.222,0,0,1,.246-2.594,5.933,5.933,0,0,1,.723-1.887A3.217,3.217,0,0,1,76.353,84a3.323,3.323,0,0,1,1.621-.387Q81.5,83.609,81.5,89.352Zm-1.312.125q0-4.781-2.273-4.781-2.4,0-2.4,4.867,0,4.539,2.352,4.539Q80.185,94.1,80.185,89.477Zm9.938-.125a11.005,11.005,0,0,1-.254,2.492,5.807,5.807,0,0,1-.734,1.832,3.305,3.305,0,0,1-1.18,1.133,3.23,3.23,0,0,1-1.59.387,3.016,3.016,0,0,1-1.5-.371,3.152,3.152,0,0,1-1.113-1.082A5.484,5.484,0,0,1,83.06,92a10.8,10.8,0,0,1-.234-2.371,12.222,12.222,0,0,1,.246-2.594,5.933,5.933,0,0,1,.723-1.887A3.217,3.217,0,0,1,84.978,84a3.323,3.323,0,0,1,1.621-.387Q90.122,83.609,90.122,89.352Zm-1.312.125q0-4.781-2.273-4.781-2.4,0-2.4,4.867,0,4.539,2.352,4.539Q88.81,94.1,88.81,89.477ZM27.364,133.938v1.7h-.812V134a4.9,4.9,0,0,1-2.7-.672v-1.359a3.661,3.661,0,0,0,1.238.668,4.528,4.528,0,0,0,1.465.27v-4a6.129,6.129,0,0,1-2.227-1.527,2.9,2.9,0,0,1,.266-3.609,3.2,3.2,0,0,1,1.961-.988v-1.406h.813v1.375a4.324,4.324,0,0,1,2.117.438v1.328a3.549,3.549,0,0,0-2.117-.672v4.125a6.64,6.64,0,0,1,2.223,1.5,2.51,2.51,0,0,1,.6,1.645,2.545,2.545,0,0,1-.746,1.863A3.624,3.624,0,0,1,27.364,133.938Zm-.812-6.406v-3.641a1.78,1.78,0,0,0-1.039.582,1.623,1.623,0,0,0-.383,1.09,1.826,1.826,0,0,0,.313,1.1A3.367,3.367,0,0,0,26.552,127.531Zm.813,1.781v3.531q1.508-.328,1.508-1.625Q28.872,130.141,27.364,129.313Zm14.227-3.578a2.316,2.316,0,0,0-.16-.9,1.739,1.739,0,0,0-1.09-1.016,2.554,2.554,0,0,0-.812-.125,2.687,2.687,0,0,0-.734.1,3.57,3.57,0,0,0-.7.281,4.3,4.3,0,0,0-.656.43,4.74,4.74,0,0,0-.59.555v-1.375a3.831,3.831,0,0,1,1.207-.8,4.25,4.25,0,0,1,1.629-.277,3.932,3.932,0,0,1,1.273.2,2.92,2.92,0,0,1,1.016.582,2.691,2.691,0,0,1,.676.945,3.188,3.188,0,0,1,.246,1.289,4.42,4.42,0,0,1-.152,1.2,3.721,3.721,0,0,1-.461,1.016,4.9,4.9,0,0,1-.777.914,11.01,11.01,0,0,1-1.1.891q-.789.563-1.3.961a5.751,5.751,0,0,0-.812.746,2.165,2.165,0,0,0-.422.7,2.43,2.43,0,0,0-.121.8h5.578V134H36.411v-.555a4.622,4.622,0,0,1,.156-1.266,3.287,3.287,0,0,1,.516-1.039,5.767,5.767,0,0,1,.941-.984q.582-.492,1.426-1.109a9.014,9.014,0,0,0,1.02-.836,4.346,4.346,0,0,0,.66-.8,2.862,2.862,0,0,0,.355-.809A3.486,3.486,0,0,0,41.591,125.734Zm10.039,5.094a3.266,3.266,0,0,1-.285,1.379,3.044,3.044,0,0,1-.8,1.063,3.714,3.714,0,0,1-1.246.684,5.041,5.041,0,0,1-1.6.242,4.654,4.654,0,0,1-2.547-.609v-1.375a4.081,4.081,0,0,0,2.594.891,3.525,3.525,0,0,0,1.059-.148,2.373,2.373,0,0,0,.813-.43,1.909,1.909,0,0,0,.523-.68,2.123,2.123,0,0,0,.184-.9q0-2.2-3.125-2.2h-.93v-1.086h.883q2.766,0,2.766-2.062,0-1.906-2.109-1.906a3.592,3.592,0,0,0-2.227.8V123.25a4.868,4.868,0,0,1,2.547-.641,3.913,3.913,0,0,1,1.273.2,2.918,2.918,0,0,1,.977.547A2.423,2.423,0,0,1,51,124.2a2.6,2.6,0,0,1,.223,1.086,2.735,2.735,0,0,1-2.234,2.844v.031a3.534,3.534,0,0,1,1.055.277,2.814,2.814,0,0,1,.836.559,2.49,2.49,0,0,1,.551.809A2.582,2.582,0,0,1,51.63,130.828Zm1.883.047a2.981,2.981,0,0,1,.141-.895,3.24,3.24,0,0,1,.4-.84,3.33,3.33,0,0,1,.648-.711,3.091,3.091,0,0,1,.879-.508,3.322,3.322,0,0,1-1.156-1.043,2.466,2.466,0,0,1-.43-1.41,2.72,2.72,0,0,1,.238-1.141,2.748,2.748,0,0,1,.66-.906,3.052,3.052,0,0,1,1-.6,3.735,3.735,0,0,1,2.508,0,3.106,3.106,0,0,1,1,.6,2.7,2.7,0,0,1,.656.906,2.74,2.74,0,0,1,.234,1.133,2.466,2.466,0,0,1-.43,1.41,3.363,3.363,0,0,1-1.141,1.043,3.063,3.063,0,0,1,.867.508,3.379,3.379,0,0,1,.645.711,3.24,3.24,0,0,1,.4.84,2.981,2.981,0,0,1,.141.895,3.327,3.327,0,0,1-.266,1.344,3,3,0,0,1-.746,1.043,3.444,3.444,0,0,1-1.148.676,4.293,4.293,0,0,1-1.473.242,4.236,4.236,0,0,1-1.461-.242,3.5,3.5,0,0,1-1.148-.676,3.023,3.023,0,0,1-.754-1.043A3.285,3.285,0,0,1,53.513,130.875Zm1.391-.109a2.647,2.647,0,0,0,.16.945,2.038,2.038,0,0,0,.453.719,1.978,1.978,0,0,0,.711.457,2.568,2.568,0,0,0,.926.16,2.439,2.439,0,0,0,.906-.164,2.112,2.112,0,0,0,.715-.461,2.073,2.073,0,0,0,.469-.719,2.514,2.514,0,0,0,.168-.937,2.4,2.4,0,0,0-.16-.879,2.2,2.2,0,0,0-.457-.723,2.147,2.147,0,0,0-.711-.492,2.313,2.313,0,0,0-.93-.18,2.338,2.338,0,0,0-.895.168,2.141,2.141,0,0,0-.711.469,2.171,2.171,0,0,0-.473.719A2.391,2.391,0,0,0,54.9,130.766Zm.4-5.2a1.86,1.86,0,0,0,1.133,1.73,1.846,1.846,0,0,0,1.441,0,1.867,1.867,0,0,0,.59-.4,1.95,1.95,0,0,0,.4-.594,1.8,1.8,0,0,0,.148-.73,1.915,1.915,0,0,0-.145-.75,1.841,1.841,0,0,0-1.715-1.133,1.864,1.864,0,0,0-.754.148,1.821,1.821,0,0,0-.586.4,1.759,1.759,0,0,0-.379.6A2.02,2.02,0,0,0,55.3,125.57Zm7.875,8.6a.829.829,0,0,1-.613-.258.849.849,0,0,1-.254-.617.862.862,0,0,1,.254-.621.823.823,0,0,1,.613-.262.845.845,0,0,1,.625.262.855.855,0,0,1,.258.621.842.842,0,0,1-.258.617A.851.851,0,0,1,63.177,134.172Zm9.7-5.82a11.005,11.005,0,0,1-.254,2.492,5.807,5.807,0,0,1-.734,1.832,3.305,3.305,0,0,1-1.18,1.133,3.23,3.23,0,0,1-1.59.387,3.016,3.016,0,0,1-1.5-.371,3.152,3.152,0,0,1-1.113-1.082A5.484,5.484,0,0,1,65.81,131a10.8,10.8,0,0,1-.234-2.371,12.222,12.222,0,0,1,.246-2.594,5.933,5.933,0,0,1,.723-1.887A3.217,3.217,0,0,1,67.728,123a3.323,3.323,0,0,1,1.621-.387Q72.872,122.609,72.872,128.352Zm-1.312.125q0-4.781-2.273-4.781-2.4,0-2.4,4.867,0,4.539,2.352,4.539Q71.56,133.1,71.56,128.477Zm9.938-.125a11.005,11.005,0,0,1-.254,2.492,5.807,5.807,0,0,1-.734,1.832,3.305,3.305,0,0,1-1.18,1.133,3.23,3.23,0,0,1-1.59.387,3.016,3.016,0,0,1-1.5-.371,3.152,3.152,0,0,1-1.113-1.082A5.484,5.484,0,0,1,74.435,131a10.8,10.8,0,0,1-.234-2.371,12.222,12.222,0,0,1,.246-2.594,5.933,5.933,0,0,1,.723-1.887A3.217,3.217,0,0,1,76.353,123a3.323,3.323,0,0,1,1.621-.387Q81.5,122.609,81.5,128.352Zm-1.312.125q0-4.781-2.273-4.781-2.4,0-2.4,4.867,0,4.539,2.352,4.539Q80.185,133.1,80.185,128.477Zm9.938-.125a11.005,11.005,0,0,1-.254,2.492,5.807,5.807,0,0,1-.734,1.832,3.305,3.305,0,0,1-1.18,1.133,3.23,3.23,0,0,1-1.59.387,3.016,3.016,0,0,1-1.5-.371,3.152,3.152,0,0,1-1.113-1.082A5.484,5.484,0,0,1,83.06,131a10.8,10.8,0,0,1-.234-2.371,12.222,12.222,0,0,1,.246-2.594,5.933,5.933,0,0,1,.723-1.887A3.217,3.217,0,0,1,84.978,123a3.323,3.323,0,0,1,1.621-.387Q90.122,122.609,90.122,128.352Zm-1.312.125q0-4.781-2.273-4.781-2.4,0-2.4,4.867,0,4.539,2.352,4.539Q88.81,133.1,88.81,128.477Z" transform="translate(-4800.008 11393.752)" fill="#00223d"/>
    <path id="Trazado_1054777" data-name="Trazado 1054777" d="M-63.058-.349V-2.38a3.9,3.9,0,0,0,1.2.7,3.856,3.856,0,0,0,1.308.232,2.9,2.9,0,0,0,.676-.07,1.584,1.584,0,0,0,.482-.194.844.844,0,0,0,.289-.292.729.729,0,0,0,.1-.365.789.789,0,0,0-.152-.476,1.639,1.639,0,0,0-.416-.387A4.344,4.344,0,0,0-60.2-3.58q-.362-.165-.781-.336A3.985,3.985,0,0,1-62.572-5,2.37,2.37,0,0,1-63.1-6.551a2.467,2.467,0,0,1,.286-1.222,2.426,2.426,0,0,1,.778-.841A3.487,3.487,0,0,1-60.893-9.1a5.855,5.855,0,0,1,1.371-.156,8.247,8.247,0,0,1,1.26.086,4.955,4.955,0,0,1,1.012.263v1.9a3.061,3.061,0,0,0-.5-.279,3.948,3.948,0,0,0-.555-.2,4.237,4.237,0,0,0-.568-.117,4.021,4.021,0,0,0-.536-.038,2.8,2.8,0,0,0-.635.067,1.628,1.628,0,0,0-.482.187.932.932,0,0,0-.3.289.685.685,0,0,0-.108.378.721.721,0,0,0,.121.409,1.383,1.383,0,0,0,.343.343,3.637,3.637,0,0,0,.54.317q.317.156.717.321a7.993,7.993,0,0,1,.981.486,3.486,3.486,0,0,1,.746.581,2.263,2.263,0,0,1,.476.74,2.613,2.613,0,0,1,.165.968,2.593,2.593,0,0,1-.289,1.279,2.345,2.345,0,0,1-.784.838,3.4,3.4,0,0,1-1.152.46,6.658,6.658,0,0,1-1.387.14A7.712,7.712,0,0,1-61.886.032,4.3,4.3,0,0,1-63.058-.349Zm15.126-3.593q0,4.1-3.821,4.1-3.707,0-3.707-4.005V-9.1H-53.4v5.281q0,2.209,1.727,2.209,1.695,0,1.695-2.133V-9.1h2.05ZM-45.951,0V-9.1h3.313a4.138,4.138,0,0,1,2.342.559,1.8,1.8,0,0,1,.819,1.574,1.863,1.863,0,0,1-.5,1.289,2.618,2.618,0,0,1-1.273.768v.025A2.522,2.522,0,0,1-39.7-4.17a2.006,2.006,0,0,1,.581,1.454,2.43,2.43,0,0,1-.9,1.984A3.745,3.745,0,0,1-42.453,0Zm2.05-7.592v2.158h.9a1.5,1.5,0,0,0,1-.308,1.049,1.049,0,0,0,.365-.847q0-1-1.5-1Zm0,3.682v2.4h1.111a1.71,1.71,0,0,0,1.114-.33,1.1,1.1,0,0,0,.4-.9,1.029,1.029,0,0,0-.4-.857,1.755,1.755,0,0,0-1.108-.311Zm12.365-3.523h-2.6V0h-2.057V-7.433h-2.583V-9.1h7.236ZM-26.946.159a4.237,4.237,0,0,1-3.187-1.273,4.569,4.569,0,0,1-1.231-3.317,4.9,4.9,0,0,1,1.25-3.491A4.329,4.329,0,0,1-26.8-9.255a4.132,4.132,0,0,1,3.152,1.276,4.7,4.7,0,0,1,1.2,3.364,4.818,4.818,0,0,1-1.247,3.459A4.281,4.281,0,0,1-26.946.159Zm.089-7.649a2.064,2.064,0,0,0-1.714.809,3.374,3.374,0,0,0-.635,2.142A3.312,3.312,0,0,0-28.571-2.4a2.034,2.034,0,0,0,1.663.787,2.054,2.054,0,0,0,1.682-.765A3.276,3.276,0,0,0-24.6-4.5a3.55,3.55,0,0,0-.6-2.2A1.966,1.966,0,0,0-26.857-7.49Zm11.794.057h-2.6V0h-2.057V-7.433H-22.3V-9.1h7.236ZM-6.741,0H-8.976l-.647-2.025H-12.86L-13.5,0h-2.222l3.313-9.1h2.431Zm-3.352-3.6-.978-3.06a3.987,3.987,0,0,1-.152-.819h-.051a3.472,3.472,0,0,1-.159.793l-.99,3.085ZM-.184,0H-5.6V-9.1h2.05v7.439H-.184ZM-18.167,39h-2.05V29.9h2.05Zm9.648-9.1L-11.654,39h-2.323l-3.1-9.1h2.209l1.9,6.335a4.537,4.537,0,0,1,.184.908h.038a5.131,5.131,0,0,1,.2-.933l1.885-6.31ZM-.1,39H-2.33l-.647-2.025H-6.214L-6.855,39H-9.077l3.313-9.1h2.431Zm-3.352-3.6-.978-3.06a3.987,3.987,0,0,1-.152-.819h-.051a3.472,3.472,0,0,1-.159.793l-.99,3.085ZM-31.535,70.567h-2.6V78h-2.057V70.567h-2.583V68.9h7.236Zm4.589,7.592a4.237,4.237,0,0,1-3.187-1.273,4.569,4.569,0,0,1-1.231-3.317,4.9,4.9,0,0,1,1.25-3.491A4.329,4.329,0,0,1-26.8,68.745a4.132,4.132,0,0,1,3.152,1.276,4.7,4.7,0,0,1,1.2,3.364,4.818,4.818,0,0,1-1.247,3.459A4.281,4.281,0,0,1-26.946,78.159Zm.089-7.649a2.064,2.064,0,0,0-1.714.809,3.374,3.374,0,0,0-.635,2.142,3.312,3.312,0,0,0,.635,2.139,2.034,2.034,0,0,0,1.663.787,2.054,2.054,0,0,0,1.682-.765A3.276,3.276,0,0,0-24.6,73.5a3.55,3.55,0,0,0-.6-2.2A1.966,1.966,0,0,0-26.857,70.51Zm11.794.057h-2.6V78h-2.057V70.567H-22.3V68.9h7.236ZM-6.741,78H-8.976l-.647-2.025H-12.86L-13.5,78h-2.222l3.313-9.1h2.431Zm-3.352-3.6-.978-3.06a3.987,3.987,0,0,1-.152-.819h-.051a3.472,3.472,0,0,1-.159.793l-.99,3.085ZM-.184,78H-5.6V68.9h2.05v7.439H-.184Z" transform="translate(-4894.448 11446.994)" fill="#12263f"/>
  </g>
</svg>
